<?xml version="1.0" encoding="UTF-8"?>
<svg id="Layer_2" data-name="Layer 2" xmlns="http://www.w3.org/2000/svg" viewBox="0 0 1513.98 437.83">
  <defs>
    <style>
      .cls-1 {
        fill: #f8f8ff;
      }
    </style>
  </defs>
  <g id="Layer_1-2" data-name="Layer 1">
    <g>
      <g>
        <g>
          <polygon class="cls-1" points="507.6 57.2 507.6 213.99 629.01 213.99 629.01 185.77 540.08 185.77 540.08 148.36 618.11 148.36 618.11 121.26 540.08 121.26 540.08 85.42 625.09 85.42 625.09 57.2 507.6 57.2"/>
          <polygon class="cls-1" points="682.52 52.04 682.52 213.99 651.83 213.99 651.83 66.73 682.52 52.04"/>
          <path class="cls-1" d="M732.02,144.11h56.9c-1.2-4.63-3.17-8.7-5.94-12.21-2.77-3.51-6.08-6.23-9.96-8.17-3.88-1.94-8.07-2.91-12.55-2.91-4.78,0-9.11.93-12.99,2.8-3.89,1.87-7.13,4.56-9.74,8.06-2.62,3.51-4.52,7.66-5.71,12.43h0ZM763.61,216.23c-11.65,0-22.22-2.72-31.7-8.18-9.49-5.45-16.99-12.69-22.51-21.73-5.52-9.03-8.29-19.22-8.29-30.57s2.65-21.39,7.95-30.57c5.3-9.18,12.5-16.46,21.62-21.84,9.11-5.38,19.18-8.07,30.24-8.07s21.16,2.73,29.9,8.17c8.74,5.45,15.6,12.88,20.61,22.29,5,9.41,7.5,20.16,7.5,32.25v8.07h-86.46c1.34,4.63,3.58,8.81,6.72,12.54,3.14,3.74,6.94,6.61,11.43,8.63,4.47,2.02,9.33,3.02,14.56,3.02s9.85-.78,14.34-2.35c4.47-1.57,8.28-3.85,11.42-6.83l20.16,18.37c-7.16,5.82-14.53,10.08-22.06,12.76-7.55,2.69-16.01,4.04-25.42,4.04h0Z"/>
          <path class="cls-1" d="M837.74,213.99v-116.7h30.68v8.96c8.36-7.46,18.52-11.2,30.47-11.2,7.62,0,14.41,1.53,20.38,4.59,5.97,3.06,10.9,7.36,14.79,12.88,4.77-5.67,10.45-10,17.02-12.99,6.57-2.99,13.81-4.48,21.73-4.48,8.66,0,16.31,1.98,22.96,5.94,6.65,3.96,11.87,9.41,15.68,16.35,3.81,6.94,5.72,14.97,5.72,24.08v72.57h-30.69v-67.87c0-7.62-1.98-13.63-5.93-18.03-3.96-4.4-9.3-6.61-16.02-6.61-4.63,0-8.85.93-12.65,2.8-.44.22-.91.5-1.4.84-4.91,3.36-7.69,9.07-7.68,15.03,0,.49,0,.93,0,1.27v72.57h-30.68v-67.87c0-7.62-1.98-13.63-5.94-18.03-3.96-4.4-9.3-6.61-16.02-6.61-4.63,0-8.77.9-12.43,2.69h0c-5.69,2.8-9.3,8.6-9.3,14.94v74.87s-30.68,0-30.68,0Z"/>
          <path class="cls-1" d="M1065.99,144.11h56.89c-1.2-4.63-3.17-8.7-5.93-12.21-2.77-3.51-6.09-6.23-9.97-8.17-3.88-1.94-8.07-2.91-12.54-2.91-4.78,0-9.11.93-12.99,2.8-3.89,1.87-7.14,4.56-9.74,8.06-2.61,3.51-4.52,7.66-5.71,12.43h0ZM1097.58,216.23c-11.65,0-22.21-2.72-31.7-8.18-9.49-5.45-16.99-12.69-22.51-21.73-5.52-9.03-8.29-19.22-8.29-30.57s2.65-21.39,7.95-30.57c5.3-9.18,12.51-16.46,21.62-21.84,9.11-5.38,19.18-8.07,30.24-8.07s21.17,2.73,29.9,8.17c8.74,5.45,15.6,12.88,20.61,22.29,5,9.41,7.5,20.16,7.5,32.25v8.07h-86.46c1.35,4.63,3.59,8.81,6.72,12.54,3.13,3.74,6.94,6.61,11.42,8.63,4.48,2.02,9.33,3.02,14.56,3.02s9.86-.78,14.34-2.35c4.48-1.57,8.29-3.85,11.42-6.83l20.16,18.37c-7.17,5.82-14.53,10.08-22.06,12.76-7.55,2.69-16.02,4.04-25.42,4.04h0Z"/>
          <path class="cls-1" d="M1171.71,213.99v-116.7h30.68v9.63c8.96-7.91,19.94-11.87,32.93-11.87,8.96,0,16.91,1.98,23.86,5.94,6.94,3.96,12.35,9.41,16.24,16.35,3.88,6.94,5.82,14.97,5.82,24.08v72.57h-30.46v-67.87c0-7.62-2.2-13.63-6.61-18.03-4.4-4.4-10.34-6.61-17.81-6.61-5.23,0-9.85,1.01-13.88,3.02h0c-6.18,3.1-10.09,9.43-10.09,16.35v73.13h-30.68Z"/>
          <path class="cls-1" d="M1356.28,215.78c-12.85,0-22.59-2.95-29.23-8.85-6.65-5.9-9.97-14.45-9.97-25.65v-58.46h-23.97v-25.54h23.97v-22.16l30.46-14.58v36.73h33.6v25.54h-33.6v51.96c0,5.38,1.23,9.22,3.69,11.53,2.47,2.32,6.61,3.47,12.44,3.47,3.13,0,5.93-.19,8.4-.56,2.46-.37,5.18-1.01,8.18-1.9v25.08c-3.14,1.05-7.02,1.86-11.65,2.47-4.63.6-8.74.9-12.32.9h0Z"/>
          <path class="cls-1" d="M1451.7,189.57c6.12,0,11.65-1.52,16.58-4.59,4.93-3.06,8.81-7.13,11.65-12.21,2.83-5.08,4.26-10.82,4.26-17.25s-1.46-11.94-4.37-17.02c-2.91-5.08-6.8-9.11-11.65-12.1-4.85-2.99-10.27-4.48-16.24-4.48s-11.65,1.49-16.57,4.48c-4.93,2.99-8.82,7.02-11.65,12.1-2.84,5.08-4.26,10.75-4.26,17.02s1.42,12.17,4.26,17.25c2.83,5.08,6.68,9.15,11.53,12.21,4.85,3.06,10.34,4.59,16.46,4.59h0ZM1451.7,216.23c-11.65,0-22.17-2.69-31.58-8.07-9.41-5.37-16.88-12.65-22.4-21.84-5.52-9.18-8.29-19.37-8.29-30.57s2.76-21.61,8.29-30.8c5.52-9.18,12.99-16.43,22.4-21.73,9.41-5.3,19.94-7.95,31.58-7.95s22.18,2.65,31.58,7.95c9.41,5.3,16.87,12.54,22.4,21.73,5.52,9.18,8.29,19.45,8.29,30.8s-2.73,21.39-8.18,30.57c-5.46,9.19-12.88,16.47-22.29,21.84-9.41,5.38-20.01,8.07-31.81,8.07h0Z"/>
        </g>
        <g>
          <path class="cls-1" d="M507.6,358.59v-88.99h38.14c5.85,0,10.93,1.06,15.26,3.18,4.32,2.12,7.69,5.08,10.11,8.9,2.42,3.81,3.62,8.31,3.62,13.48,0,5.85-1.72,10.87-5.15,15.06-3.43,4.19-8.03,7.14-13.79,8.84l19.96,39.54h-10.81l-19.07-38.27h-28.48v38.27h-9.79ZM517.39,312.06h27.72c6.02,0,10.83-1.53,14.43-4.58,3.6-3.05,5.4-7.16,5.4-12.33s-1.8-9.15-5.4-12.21c-3.6-3.05-8.41-4.58-14.43-4.58h-27.72v33.69Z"/>
          <path class="cls-1" d="M613.89,359.73c-6.1,0-11.63-1.46-16.59-4.39-4.96-2.92-8.9-6.89-11.82-11.89-2.92-5-4.39-10.59-4.39-16.78s1.4-11.63,4.2-16.59c2.8-4.96,6.57-8.9,11.31-11.82,4.75-2.92,10.04-4.39,15.89-4.39s10.79,1.46,15.32,4.39c4.53,2.92,8.14,6.87,10.81,11.82,2.67,4.96,4,10.49,4,16.59v2.92h-52.25c.51,4.15,1.84,7.88,4,11.19,2.16,3.3,4.98,5.91,8.45,7.82,3.47,1.91,7.29,2.86,11.44,2.86,3.31,0,6.53-.51,9.66-1.53,3.13-1.02,5.76-2.46,7.88-4.32l5.85,6.23c-3.56,2.63-7.27,4.6-11.12,5.91-3.86,1.31-8.07,1.97-12.65,1.97ZM590.62,322.1h42.59c-.51-3.81-1.76-7.22-3.75-10.23-1.99-3.01-4.47-5.38-7.44-7.12-2.97-1.74-6.23-2.61-9.79-2.61s-6.99.85-10.04,2.54-5.59,4.05-7.63,7.06c-2.03,3.01-3.35,6.46-3.94,10.36Z"/>
          <path class="cls-1" d="M674.53,359.73c-4.66,0-8.75-.81-12.27-2.42-3.52-1.61-6.27-3.85-8.26-6.74-1.99-2.88-2.99-6.23-2.99-10.04,0-6.02,2.29-10.76,6.87-14.24,4.58-3.47,10.76-5.21,18.56-5.21,6.87,0,13.1,1.44,18.69,4.32v-8.39c0-5.09-1.44-8.92-4.32-11.51-2.88-2.58-7.08-3.88-12.59-3.88-3.14,0-6.29.45-9.47,1.34-3.18.89-6.67,2.31-10.49,4.26l-3.56-7.25c4.58-2.2,8.81-3.81,12.71-4.83,3.9-1.02,7.8-1.53,11.7-1.53,8.05,0,14.26,1.91,18.62,5.72,4.36,3.81,6.55,9.28,6.55,16.4v42.84h-9.15v-6.23c-2.88,2.46-6.04,4.3-9.47,5.53-3.43,1.23-7.14,1.84-11.12,1.84ZM660.03,340.28c0,3.56,1.5,6.47,4.51,8.71,3.01,2.25,6.88,3.37,11.63,3.37,3.81,0,7.29-.59,10.43-1.78,3.13-1.19,5.98-3.05,8.52-5.59v-11.95c-2.63-1.78-5.43-3.07-8.39-3.88-2.97-.8-6.31-1.21-10.04-1.21-5.09,0-9.13,1.13-12.14,3.37-3.01,2.25-4.51,5.23-4.51,8.96Z"/>
          <path class="cls-1" d="M749.15,359.6c-5.93,0-11.34-1.46-16.21-4.39-4.87-2.92-8.73-6.86-11.57-11.82-2.84-4.96-4.26-10.53-4.26-16.72s1.42-11.74,4.26-16.65c2.84-4.91,6.69-8.84,11.57-11.76,4.87-2.92,10.32-4.39,16.34-4.39,3.73,0,7.33.62,10.81,1.84,3.47,1.23,6.65,3.03,9.53,5.4v-31.53l9.41-2.16v91.16h-9.28v-6.74c-5.59,5.17-12.46,7.75-20.6,7.75ZM750.04,351.34c3.98,0,7.69-.78,11.12-2.35,3.43-1.57,6.25-3.75,8.45-6.55v-31.53c-2.2-2.71-5.02-4.85-8.45-6.42-3.43-1.57-7.14-2.35-11.12-2.35-4.41,0-8.41,1.06-12.01,3.18-3.6,2.12-6.44,5.02-8.52,8.71-2.08,3.69-3.11,7.86-3.11,12.52s1.04,8.86,3.11,12.59c2.08,3.73,4.91,6.7,8.52,8.9,3.6,2.2,7.61,3.3,12.01,3.3Z"/>
          <path class="cls-1" d="M797.72,385.79c-1.19,0-2.31-.06-3.37-.19-1.06-.13-1.93-.28-2.61-.45v-8.52c1.44.34,3.22.51,5.34.51,5.59,0,9.83-3.31,12.71-9.92l3.81-8.77-25.93-63.57h10.42l20.6,52.25,22.25-52.25h10.17l-31.78,73.61c-1.78,4.07-3.69,7.37-5.72,9.92-2.03,2.54-4.34,4.41-6.93,5.59-2.59,1.19-5.57,1.78-8.96,1.78Z"/>
          <path class="cls-1" d="M858.23,359.35c-1.78,0-3.31-.63-4.58-1.91-1.27-1.27-1.91-2.8-1.91-4.58s.64-3.31,1.91-4.58c1.27-1.27,2.8-1.91,4.58-1.91s3.31.64,4.58,1.91c1.27,1.27,1.91,2.8,1.91,4.58s-.64,3.3-1.91,4.58c-1.27,1.27-2.8,1.91-4.58,1.91Z"/>
          <path class="cls-1" d="M940.11,359.86c-7.04,0-13.77-1.42-20.21-4.26-6.44-2.84-12.12-6.93-17.04-12.27l6.48-6.74c4.58,4.92,9.47,8.6,14.68,11.06,5.21,2.46,10.7,3.69,16.46,3.69,4.66,0,8.79-.74,12.4-2.23,3.6-1.48,6.42-3.56,8.45-6.23,2.03-2.67,3.05-5.7,3.05-9.09,0-4.58-1.59-8.09-4.77-10.55-3.18-2.46-8.41-4.28-15.7-5.47l-12.84-2.03c-8.56-1.44-14.87-3.98-18.94-7.63-4.07-3.64-6.1-8.6-6.1-14.88,0-4.91,1.31-9.24,3.94-12.97,2.63-3.73,6.29-6.63,11-8.71,4.7-2.08,10.15-3.12,16.34-3.12s12.44,1.02,18.5,3.05c6.06,2.03,11.59,4.96,16.59,8.77l-5.59,7.63c-9.75-7.37-19.71-11.06-29.88-11.06-4.24,0-7.97.66-11.19,1.97-3.22,1.31-5.72,3.14-7.5,5.47-1.78,2.33-2.67,5.07-2.67,8.2,0,4.15,1.4,7.33,4.2,9.53,2.8,2.2,7.42,3.81,13.86,4.83l12.71,2.03c9.75,1.61,16.82,4.35,21.23,8.2,4.41,3.86,6.61,9.26,6.61,16.21,0,5.17-1.44,9.77-4.32,13.79-2.88,4.03-6.89,7.16-12.01,9.41-5.13,2.24-11.04,3.37-17.74,3.37Z"/>
          <path class="cls-1" d="M1016.89,359.73c-6.1,0-11.63-1.46-16.59-4.39-4.96-2.92-8.9-6.89-11.82-11.89-2.92-5-4.39-10.59-4.39-16.78s1.4-11.63,4.2-16.59c2.8-4.96,6.57-8.9,11.31-11.82,4.75-2.92,10.04-4.39,15.89-4.39s10.79,1.46,15.32,4.39c4.53,2.92,8.14,6.87,10.81,11.82,2.67,4.96,4,10.49,4,16.59v2.92h-52.25c.51,4.15,1.84,7.88,4,11.19,2.16,3.3,4.98,5.91,8.45,7.82,3.47,1.91,7.29,2.86,11.44,2.86,3.31,0,6.53-.51,9.66-1.53,3.13-1.02,5.76-2.46,7.88-4.32l5.85,6.23c-3.56,2.63-7.27,4.6-11.12,5.91-3.86,1.31-8.07,1.97-12.65,1.97ZM993.63,322.1h42.59c-.51-3.81-1.76-7.22-3.75-10.23-1.99-3.01-4.47-5.38-7.44-7.12-2.97-1.74-6.23-2.61-9.79-2.61s-6.99.85-10.04,2.54-5.59,4.05-7.63,7.06c-2.03,3.01-3.35,6.46-3.94,10.36Z"/>
          <path class="cls-1" d="M1081.86,359.86c-5.51,0-9.75-1.31-12.71-3.94-2.97-2.63-4.45-6.44-4.45-11.44v-41.57h-13.73v-8.01h13.73v-16.15l9.28-2.41v18.56h19.2v8.01h-19.2v39.16c0,3.39.76,5.83,2.29,7.31,1.53,1.48,4.02,2.23,7.5,2.23,1.78,0,3.37-.13,4.77-.38,1.4-.26,2.9-.68,4.51-1.27v8.26c-1.61.59-3.41,1.02-5.4,1.27-1.99.25-3.92.38-5.78.38Z"/>
          <path class="cls-1" d="M1111.1,359.35c-1.78,0-3.31-.63-4.58-1.91-1.27-1.27-1.91-2.8-1.91-4.58s.64-3.31,1.91-4.58c1.27-1.27,2.8-1.91,4.58-1.91s3.31.64,4.58,1.91c1.27,1.27,1.91,2.8,1.91,4.58s-.64,3.3-1.91,4.58c-1.27,1.27-2.8,1.91-4.58,1.91Z"/>
          <path class="cls-1" d="M1206.06,359.98c-6.44,0-12.46-1.17-18.05-3.5-5.59-2.33-10.51-5.59-14.75-9.79-4.24-4.2-7.52-9.07-9.85-14.62-2.33-5.55-3.5-11.55-3.5-17.99s1.16-12.44,3.5-17.99c2.33-5.55,5.61-10.43,9.85-14.62,4.24-4.19,9.15-7.46,14.75-9.79,5.59-2.33,11.61-3.5,18.05-3.5,4.66,0,9.13.57,13.41,1.72,4.28,1.14,8.26,2.8,11.95,4.96,3.69,2.16,6.97,4.81,9.85,7.95l-6.48,6.86c-3.48-3.98-7.75-7.06-12.84-9.22-5.09-2.16-10.38-3.24-15.89-3.24-5.17,0-9.96.93-14.37,2.8-4.41,1.86-8.24,4.47-11.51,7.82-3.26,3.35-5.81,7.25-7.63,11.7-1.82,4.45-2.73,9.3-2.73,14.56s.91,10,2.73,14.49c1.82,4.49,4.39,8.41,7.69,11.76,3.31,3.35,7.18,5.96,11.63,7.82,4.45,1.87,9.26,2.8,14.43,2.8,5.51,0,10.76-1.08,15.76-3.24,5-2.16,9.19-5.15,12.59-8.96l6.36,6.61c-2.97,3.05-6.29,5.68-9.98,7.88-3.69,2.21-7.65,3.88-11.89,5.02-4.24,1.14-8.6,1.72-13.09,1.72Z"/>
          <path class="cls-1" d="M1254.12,358.59v-88.99l9.41-2.16v91.16h-9.41Z"/>
          <path class="cls-1" d="M1309.17,359.86c-6.02,0-11.51-1.46-16.46-4.39-4.96-2.92-8.88-6.88-11.76-11.89-2.88-5-4.32-10.59-4.32-16.78s1.44-11.78,4.32-16.78c2.88-5,6.8-8.96,11.76-11.89,4.96-2.92,10.45-4.39,16.46-4.39s11.61,1.46,16.53,4.39c4.91,2.92,8.81,6.89,11.7,11.89,2.88,5,4.32,10.6,4.32,16.78s-1.44,11.78-4.32,16.78c-2.88,5-6.78,8.96-11.7,11.89-4.92,2.92-10.43,4.39-16.53,4.39ZM1309.17,351.47c4.32,0,8.24-1.1,11.76-3.31,3.52-2.2,6.31-5.17,8.39-8.9,2.08-3.73,3.11-7.88,3.11-12.46s-1.04-8.84-3.11-12.52c-2.08-3.69-4.87-6.63-8.39-8.84-3.52-2.2-7.44-3.31-11.76-3.31s-8.24,1.1-11.76,3.31c-3.52,2.2-6.31,5.15-8.39,8.84-2.08,3.69-3.11,7.86-3.11,12.52s1.04,8.73,3.11,12.46c2.08,3.73,4.87,6.7,8.39,8.9,3.52,2.2,7.44,3.31,11.76,3.31Z"/>
          <path class="cls-1" d="M1379.22,359.86c-4.83,0-9.11-1.04-12.84-3.12-3.73-2.08-6.63-4.96-8.71-8.64-2.08-3.69-3.12-7.99-3.12-12.9v-40.3h9.28v38.4c0,5.68,1.61,10.15,4.83,13.41,3.22,3.26,7.54,4.89,12.97,4.89,3.81,0,7.22-.87,10.23-2.61,3.01-1.74,5.44-4.17,7.31-7.31v-46.79h9.41v63.69h-9.41v-7.37c-5,5.76-11.65,8.64-19.96,8.64Z"/>
          <path class="cls-1" d="M1453.72,359.6c-5.93,0-11.34-1.46-16.21-4.39-4.87-2.92-8.73-6.86-11.57-11.82-2.84-4.96-4.26-10.53-4.26-16.72s1.42-11.74,4.26-16.65c2.84-4.91,6.69-8.84,11.57-11.76,4.87-2.92,10.32-4.39,16.34-4.39,3.73,0,7.33.62,10.81,1.84,3.47,1.23,6.65,3.03,9.53,5.4v-31.53l9.41-2.16v91.16h-9.28v-6.74c-5.59,5.17-12.46,7.75-20.6,7.75ZM1454.61,351.34c3.98,0,7.69-.78,11.12-2.35,3.43-1.57,6.25-3.75,8.45-6.55v-31.53c-2.2-2.71-5.02-4.85-8.45-6.42-3.43-1.57-7.14-2.35-11.12-2.35-4.41,0-8.41,1.06-12.01,3.18-3.6,2.12-6.44,5.02-8.52,8.71-2.08,3.69-3.11,7.86-3.11,12.52s1.04,8.86,3.11,12.59c2.08,3.73,4.91,6.7,8.52,8.9,3.6,2.2,7.61,3.3,12.01,3.3Z"/>
          <path class="cls-1" d="M1507.49,359.35c-1.78,0-3.31-.63-4.58-1.91-1.27-1.27-1.91-2.8-1.91-4.58s.64-3.31,1.91-4.58c1.27-1.27,2.8-1.91,4.58-1.91s3.31.64,4.58,1.91c1.27,1.27,1.91,2.8,1.91,4.58s-.64,3.3-1.91,4.58c-1.27,1.27-2.8,1.91-4.58,1.91Z"/>
        </g>
      </g>
      <g>
        <g>
          <path class="cls-1" d="M186.37,2.89c8.03-3.85,17.38-3.85,25.42,0,37.48,17.93,146.84,70.26,177.99,85.16,5.12,2.45,8.37,7.61,8.37,13.28v38.97s-137.84-40.87-184.12-54.59c-9.75-2.89-20.14-2.89-29.89,0C137.85,99.43,0,140.3,0,140.3v-38.97c0-5.67,3.25-10.83,8.37-13.28C39.52,73.14,148.89,20.81,186.37,2.89h0Z"/>
          <path class="cls-1" d="M211.78,434.95c-8.04,3.85-17.38,3.85-25.42,0-37.48-17.92-146.84-70.26-177.99-85.16C3.26,347.34,0,342.17,0,336.5v-38.97s137.84,40.87,184.12,54.59c9.75,2.89,20.14,2.89,29.89,0,46.28-13.73,184.12-54.59,184.12-54.59v38.97c0,5.67-3.25,10.84-8.37,13.29-31.15,14.9-140.52,67.24-177.99,85.16h0Z"/>
        </g>
        <polygon class="cls-1" points="0 196.06 0 241.77 199.07 258.77 398.14 241.77 398.14 196.06 199.07 179.07 0 196.06"/>
      </g>
    </g>
  </g>
</svg>