<?xml version="1.0" encoding="UTF-8" standalone="no"?>
<!DOCTYPE svg PUBLIC "-//W3C//DTD SVG 1.1//EN" "http://www.w3.org/Graphics/SVG/1.1/DTD/svg11.dtd">
<svg width="100%" height="100%" viewBox="0 0 1113 264" version="1.1" xmlns="http://www.w3.org/2000/svg" xmlns:xlink="http://www.w3.org/1999/xlink" xml:space="preserve" xmlns:serif="http://www.serif.com/" style="fill-rule:evenodd;clip-rule:evenodd;stroke-linejoin:round;stroke-miterlimit:2;">
    <g transform="matrix(1,0,0,1,-1561.3,-1310)">
        <g transform="matrix(1,0,0,1,0,290)">
            <g transform="matrix(0.498418,0,0,0.56104,1116.27,452.126)">
                <text x="886.81px" y="1408px" style="font-family:'Hero-Light', 'Hero';font-weight:200;font-size:506.495px;">A<tspan x="1197.29px 1479.92px " y="1408px 1408px ">TO</tspan>M    S</text>
            </g>
            <g transform="matrix(1.41214,0,0,1.41214,-422.248,-474.766)">
                <g transform="matrix(0.631398,0,0,0.914747,750.764,92.3305)">
                    <path d="M1952.79,1056.23C1995.4,1056.23 2030,1101.88 2030,1158.11C2030,1214.35 1995.4,1260 1952.79,1260C1910.17,1260 1875.58,1214.35 1875.58,1158.11C1875.58,1101.88 1910.17,1056.23 1952.79,1056.23ZM1952.79,1061.26C1967.73,1061.26 1981.24,1067.98 1992.44,1078.82C2010.92,1096.7 2022.71,1125.59 2022.71,1158.11C2022.71,1190.64 2010.92,1219.53 1992.44,1237.41C1981.24,1248.24 1967.73,1254.97 1952.79,1254.97C1937.85,1254.97 1924.33,1248.24 1913.13,1237.41C1894.66,1219.53 1882.87,1190.64 1882.87,1158.11C1882.87,1125.59 1894.66,1096.7 1913.13,1078.82C1924.33,1067.98 1937.85,1061.26 1952.79,1061.26Z"/>
                </g>
                <g transform="matrix(0.315699,0.546807,-0.792194,0.457373,2284.71,-445.777)">
                    <path d="M1952.79,1056.23C1995.4,1056.23 2030,1101.88 2030,1158.11C2030,1214.35 1995.4,1260 1952.79,1260C1910.17,1260 1875.58,1214.35 1875.58,1158.11C1875.58,1101.88 1910.17,1056.23 1952.79,1056.23ZM1952.79,1061.26C1967.73,1061.26 1981.24,1067.98 1992.44,1078.82C2010.92,1096.7 2022.71,1125.59 2022.71,1158.11C2022.71,1190.64 2010.92,1219.53 1992.44,1237.41C1981.24,1248.24 1967.73,1254.97 1952.79,1254.97C1937.85,1254.97 1924.33,1248.24 1913.13,1237.41C1894.66,1219.53 1882.87,1190.64 1882.87,1158.11C1882.87,1125.59 1894.66,1096.7 1913.13,1078.82C1924.33,1067.98 1937.85,1061.26 1952.79,1061.26L1952.79,1061.26Z"/>
                </g>
                <g transform="matrix(-0.315699,0.546807,-0.792194,-0.457373,3517.7,613.603)">
                    <path d="M1952.79,1056.23C1995.4,1056.23 2030,1101.88 2030,1158.11C2030,1214.35 1995.4,1260 1952.79,1260C1910.17,1260 1875.58,1214.35 1875.58,1158.11C1875.58,1101.88 1910.17,1056.23 1952.79,1056.23ZM1952.79,1061.26C1967.73,1061.26 1981.24,1067.98 1992.44,1078.82C2010.92,1096.7 2022.71,1125.59 2022.71,1158.11C2022.71,1190.64 2010.92,1219.53 1992.44,1237.41C1981.24,1248.24 1967.73,1254.97 1952.79,1254.97C1937.85,1254.97 1924.33,1248.24 1913.13,1237.41C1894.66,1219.53 1882.87,1190.64 1882.87,1158.11C1882.87,1125.59 1894.66,1096.7 1913.13,1078.82C1924.33,1067.98 1937.85,1061.26 1952.79,1061.26L1952.79,1061.26Z"/>
                </g>
            </g>
            <g transform="matrix(0.713288,0,0,0.713288,1344.59,92.6043)">
                <path d="M1363.24,1428.93L1450.32,1387.22L1537.39,1428.93L1537.39,1540.45L1450.3,1582.15L1363.24,1540.45L1363.24,1428.93Z" style="fill:white;"/>
            </g>
        </g>
    </g>
</svg>
