<?xml version="1.0" encoding="UTF-8" standalone="no"?>
<!DOCTYPE svg PUBLIC "-//W3C//DTD SVG 1.1//EN" "http://www.w3.org/Graphics/SVG/1.1/DTD/svg11.dtd">
<svg width="100%" height="100%" viewBox="0 0 239 264" version="1.1" xmlns="http://www.w3.org/2000/svg" xmlns:xlink="http://www.w3.org/1999/xlink" xml:space="preserve" xmlns:serif="http://www.serif.com/" style="fill-rule:evenodd;clip-rule:evenodd;stroke-linejoin:round;stroke-miterlimit:2;">
    <g transform="matrix(1,0,0,1,-1891.17,-605)">
        <g transform="matrix(1,0,0,1,-371.17,-410)">
            <g transform="matrix(0.167742,0,0,0.188817,1912.5,911.169)">
                <path d="M2627.63,1413.07C2598.6,1413.07 2571.58,1405.55 2546.6,1390.53C2521.61,1375.5 2501.85,1354.82 2487.34,1328.48C2472.82,1302.14 2465.89,1273.1 2466.57,1241.36C2467.58,1205.23 2476.02,1175.18 2491.89,1151.21C2507.76,1127.23 2527.6,1109.51 2551.41,1098.03C2575.21,1086.54 2599.61,1080.8 2624.6,1080.8C2649.92,1080.8 2675.16,1086.88 2700.32,1099.04C2725.47,1111.19 2746.49,1129.85 2763.38,1155.01C2780.26,1180.16 2788.7,1210.81 2788.7,1246.93C2788.7,1278 2781.36,1306.19 2766.67,1331.52C2751.98,1356.84 2732.31,1376.77 2707.66,1391.29C2683.01,1405.81 2656.34,1413.07 2627.63,1413.07ZM2483.79,1246.43C2483.79,1274.12 2490.37,1299.53 2503.54,1322.66C2516.71,1345.79 2534.35,1364.02 2556.47,1377.36C2578.59,1390.69 2602.31,1397.36 2627.63,1397.36C2653.3,1397.36 2677.19,1390.69 2699.3,1377.36C2721.42,1364.02 2739.06,1345.79 2752.23,1322.66C2765.4,1299.53 2771.99,1274.12 2771.99,1246.43C2771.99,1213 2764.39,1185.06 2749.19,1162.6C2734,1140.15 2715,1123.6 2692.21,1112.97C2669.42,1102.33 2646.88,1097.01 2624.6,1097.01C2601.3,1097.01 2578.93,1102.33 2557.48,1112.97C2536.04,1123.6 2518.4,1140.15 2504.56,1162.6C2490.71,1185.06 2483.79,1213 2483.79,1246.43Z" style="fill-rule:nonzero;stroke:rgb(7,0,0);stroke-width:19.6px;"/>
                <path d="M2833.78,1340.13C2832.76,1337.43 2833.19,1335.07 2835.04,1333.04C2836.9,1331.01 2839.01,1330 2841.38,1330C2843.06,1330 2844.67,1330.51 2846.19,1331.52C2847.71,1332.53 2848.64,1334.05 2848.97,1336.08C2853.7,1352.62 2864.17,1365.54 2880.38,1374.83C2896.58,1384.11 2913.8,1390.44 2932.04,1393.82C2950.27,1397.19 2966.31,1398.88 2980.16,1398.88C2999.4,1398.88 3018.73,1396.35 3038.15,1391.29C3057.56,1386.22 3074.03,1377.78 3087.53,1365.96C3101.04,1354.14 3107.79,1338.44 3107.79,1318.86C3107.79,1301.64 3102.14,1288.47 3090.82,1279.35C3079.51,1270.23 3065.58,1264.15 3049.04,1261.12C3032.49,1258.08 3010.21,1255.38 2982.18,1253.01C2951.12,1250.65 2926.21,1247.53 2907.47,1243.64C2888.73,1239.76 2872.86,1232.08 2859.86,1220.6C2846.86,1209.12 2840.36,1192.4 2840.36,1170.45C2840.36,1149.18 2847.96,1131.79 2863.15,1118.29C2878.35,1104.78 2896.33,1095.15 2917.1,1089.41C2937.86,1083.67 2957.03,1080.8 2974.58,1080.8C3005.31,1080.8 3033.76,1085.53 3059.93,1094.99C3086.1,1104.44 3103.57,1120.99 3112.35,1144.62C3113.03,1146.65 3113.36,1148.17 3113.36,1149.18C3113.36,1151.21 3112.69,1152.81 3111.34,1153.99C3109.99,1155.17 3108.3,1155.77 3106.27,1155.77C3102.22,1155.77 3099.52,1153.91 3098.17,1150.19C3085,1114.06 3043.97,1096 2975.09,1096C2956.18,1096 2937.61,1098.95 2919.38,1104.86C2901.14,1110.77 2886.2,1119.47 2874.55,1130.95C2862.9,1142.43 2857.08,1155.77 2857.08,1170.96C2857.08,1188.52 2862.73,1201.86 2874.04,1210.97C2885.36,1220.09 2899.37,1226.25 2916.08,1229.46C2932.8,1232.67 2955.51,1235.45 2984.21,1237.82C3015.27,1240.52 3040.01,1243.81 3058.41,1247.69C3076.81,1251.58 3092.43,1259.01 3105.26,1269.98C3118.09,1280.95 3124.51,1297.08 3124.51,1318.35C3124.51,1341.65 3117.16,1360.31 3102.47,1374.32C3087.78,1388.33 3069.55,1398.29 3047.77,1404.2C3025.99,1410.11 3003.45,1413.07 2980.16,1413.07C2947.4,1413.07 2916.67,1407.49 2887.97,1396.35C2859.27,1385.21 2841.21,1366.47 2833.78,1340.13Z" style="fill-rule:nonzero;stroke:rgb(7,0,0);stroke-width:19.6px;"/>
            </g>
            <g transform="matrix(1.41214,0,0,1.41214,-419.908,-479.766)">
                <clipPath id="_clip1">
                    <path d="M2083.54,1026.64L1883.6,1026.64L1883.6,1267.41L2083.54,1267.41L2083.54,1026.64ZM1939.77,1123.55L1983.75,1102.48L2027.74,1123.55L2027.74,1179.88L1983.74,1200.94L1939.77,1179.88L1939.77,1123.55Z"/>
                </clipPath>
                <g clip-path="url(#_clip1)">
                    <g transform="matrix(0.631398,0,0,0.914747,750.764,92.3305)">
                        <path d="M1952.79,1056.23C1995.4,1056.23 2030,1101.88 2030,1158.11C2030,1214.35 1995.4,1260 1952.79,1260C1910.17,1260 1875.58,1214.35 1875.58,1158.11C1875.58,1101.88 1910.17,1056.23 1952.79,1056.23ZM1952.79,1061.26C1967.73,1061.26 1981.24,1067.98 1992.44,1078.82C2010.92,1096.7 2022.71,1125.59 2022.71,1158.11C2022.71,1190.64 2010.92,1219.53 1992.44,1237.41C1981.24,1248.24 1967.73,1254.97 1952.79,1254.97C1937.85,1254.97 1924.33,1248.24 1913.13,1237.41C1894.66,1219.53 1882.87,1190.64 1882.87,1158.11C1882.87,1125.59 1894.66,1096.7 1913.13,1078.82C1924.33,1067.98 1937.85,1061.26 1952.79,1061.26Z"/>
                    </g>
                    <g transform="matrix(0.315699,0.546807,-0.792194,0.457373,2284.71,-445.777)">
                        <path d="M1952.79,1056.23C1995.4,1056.23 2030,1101.88 2030,1158.11C2030,1214.35 1995.4,1260 1952.79,1260C1910.17,1260 1875.58,1214.35 1875.58,1158.11C1875.58,1101.88 1910.17,1056.23 1952.79,1056.23ZM1952.79,1061.26C1967.73,1061.26 1981.24,1067.98 1992.44,1078.82C2010.92,1096.7 2022.71,1125.59 2022.71,1158.11C2022.71,1190.64 2010.92,1219.53 1992.44,1237.41C1981.24,1248.24 1967.73,1254.97 1952.79,1254.97C1937.85,1254.97 1924.33,1248.24 1913.13,1237.41C1894.66,1219.53 1882.87,1190.64 1882.87,1158.11C1882.87,1125.59 1894.66,1096.7 1913.13,1078.82C1924.33,1067.98 1937.85,1061.26 1952.79,1061.26L1952.79,1061.26Z"/>
                    </g>
                    <g transform="matrix(-0.315699,0.546807,-0.792194,-0.457373,3517.7,613.603)">
                        <path d="M1952.79,1056.23C1995.4,1056.23 2030,1101.88 2030,1158.11C2030,1214.35 1995.4,1260 1952.79,1260C1910.17,1260 1875.58,1214.35 1875.58,1158.11C1875.58,1101.88 1910.17,1056.23 1952.79,1056.23ZM1952.79,1061.26C1967.73,1061.26 1981.24,1067.98 1992.44,1078.82C2010.92,1096.7 2022.71,1125.59 2022.71,1158.11C2022.71,1190.64 2010.92,1219.53 1992.44,1237.41C1981.24,1248.24 1967.73,1254.97 1952.79,1254.97C1937.85,1254.97 1924.33,1248.24 1913.13,1237.41C1894.66,1219.53 1882.87,1190.64 1882.87,1158.11C1882.87,1125.59 1894.66,1096.7 1913.13,1078.82C1924.33,1067.98 1937.85,1061.26 1952.79,1061.26L1952.79,1061.26Z"/>
                    </g>
                </g>
            </g>
        </g>
    </g>
</svg>
