<?xml version="1.0" encoding="UTF-8" standalone="no"?>
<!DOCTYPE svg PUBLIC "-//W3C//DTD SVG 1.1//EN" "http://www.w3.org/Graphics/SVG/1.1/DTD/svg11.dtd">
<svg width="100%" height="100%" viewBox="0 0 1113 264" version="1.1" xmlns="http://www.w3.org/2000/svg" xmlns:xlink="http://www.w3.org/1999/xlink" xml:space="preserve" xmlns:serif="http://www.serif.com/" style="fill-rule:evenodd;clip-rule:evenodd;stroke-linejoin:round;stroke-miterlimit:2;">
    <g transform="matrix(1,0,0,1,-1561.3,-1310)">
        <g transform="matrix(1,0,0,1,0,290)">
            <g transform="matrix(0.498418,0,0,0.56104,1116.27,452.126)">
                <g transform="matrix(506.495,0,0,506.495,886.81,1408)">
                    <path d="M0.347,-0.654C0.354,-0.654 0.358,-0.651 0.361,-0.645L0.68,-0.018C0.681,-0.016 0.682,-0.013 0.682,-0.009C0.682,-0.004 0.68,-0.001 0.677,0.003C0.674,0.006 0.67,0.007 0.665,0.007C0.659,0.007 0.654,0.004 0.651,-0.002L0.562,-0.179L0.132,-0.179L0.043,-0.002C0.04,0.004 0.036,0.007 0.029,0.007C0.024,0.007 0.02,0.006 0.017,0.003C0.014,-0.001 0.012,-0.004 0.012,-0.009C0.012,-0.013 0.013,-0.016 0.014,-0.018L0.332,-0.645C0.335,-0.651 0.34,-0.654 0.347,-0.654ZM0.147,-0.209L0.546,-0.209L0.347,-0.605L0.147,-0.209Z" style="fill-rule:nonzero;"/>
                </g>
                <g transform="matrix(506.495,0,0,506.495,1197.29,1408)">
                    <path d="M0.567,-0.636C0.573,-0.636 0.578,-0.635 0.581,-0.632C0.584,-0.628 0.585,-0.625 0.585,-0.621C0.585,-0.617 0.583,-0.614 0.58,-0.611C0.577,-0.608 0.572,-0.606 0.567,-0.606L0.308,-0.606L0.309,-0.019C0.309,-0.013 0.307,-0.008 0.304,-0.005C0.3,-0.002 0.296,-0 0.291,-0C0.286,-0 0.282,-0.002 0.279,-0.005C0.276,-0.008 0.274,-0.013 0.274,-0.019L0.274,-0.606L0.016,-0.606C0.011,-0.606 0.006,-0.608 0.003,-0.611C-0,-0.614 -0.002,-0.617 -0.002,-0.621C-0.002,-0.625 -0.001,-0.628 0.003,-0.632C0.006,-0.635 0.01,-0.636 0.016,-0.636L0.567,-0.636Z" style="fill-rule:nonzero;"/>
                </g>
                <g transform="matrix(506.495,0,0,506.495,1479.92,1408)">
                    <path d="M0.372,0.01C0.315,0.01 0.261,-0.005 0.212,-0.035C0.163,-0.064 0.124,-0.105 0.095,-0.157C0.066,-0.209 0.053,-0.266 0.054,-0.329C0.056,-0.4 0.073,-0.46 0.104,-0.507C0.135,-0.554 0.174,-0.589 0.222,-0.612C0.269,-0.635 0.317,-0.646 0.366,-0.646C0.416,-0.646 0.466,-0.634 0.516,-0.61C0.565,-0.586 0.607,-0.549 0.64,-0.5C0.673,-0.45 0.69,-0.389 0.69,-0.318C0.69,-0.257 0.676,-0.201 0.647,-0.151C0.618,-0.101 0.579,-0.062 0.53,-0.033C0.481,-0.004 0.429,0.01 0.372,0.01ZM0.088,-0.319C0.088,-0.264 0.101,-0.214 0.127,-0.169C0.153,-0.123 0.188,-0.087 0.232,-0.061C0.275,-0.034 0.322,-0.021 0.372,-0.021C0.423,-0.021 0.47,-0.034 0.514,-0.061C0.557,-0.087 0.592,-0.123 0.618,-0.169C0.644,-0.214 0.657,-0.264 0.657,-0.319C0.657,-0.385 0.642,-0.44 0.612,-0.485C0.582,-0.529 0.545,-0.562 0.5,-0.583C0.454,-0.604 0.41,-0.614 0.366,-0.614C0.32,-0.614 0.276,-0.604 0.234,-0.583C0.191,-0.562 0.156,-0.529 0.129,-0.485C0.102,-0.44 0.088,-0.385 0.088,-0.319Z" style="fill-rule:nonzero;"/>
                </g>
                <g transform="matrix(506.495,0,0,506.495,1857.25,1408)">
                    <path d="M0.678,-0.626C0.683,-0.633 0.688,-0.636 0.695,-0.636C0.7,-0.636 0.704,-0.635 0.707,-0.632C0.709,-0.628 0.711,-0.624 0.711,-0.618L0.711,-0.018C0.711,-0.013 0.709,-0.008 0.706,-0.005C0.703,-0.002 0.699,-0 0.694,-0C0.689,-0 0.685,-0.002 0.682,-0.005C0.679,-0.008 0.677,-0.012 0.677,-0.018L0.677,-0.564L0.419,-0.159C0.415,-0.152 0.409,-0.148 0.402,-0.148C0.394,-0.148 0.388,-0.152 0.384,-0.159L0.126,-0.562L0.126,-0.018C0.126,-0.012 0.124,-0.008 0.121,-0.005C0.118,-0.002 0.114,-0 0.109,-0C0.104,-0 0.1,-0.002 0.097,-0.005C0.094,-0.008 0.092,-0.013 0.092,-0.018L0.092,-0.618C0.092,-0.624 0.094,-0.628 0.097,-0.632C0.1,-0.635 0.104,-0.636 0.108,-0.636C0.115,-0.636 0.12,-0.633 0.124,-0.626L0.402,-0.193L0.678,-0.626Z" style="fill-rule:nonzero;"/>
                </g>
                <g transform="matrix(506.495,0,0,506.495,2816.56,1408)">
                    <path d="M0.034,-0.134C0.032,-0.139 0.033,-0.144 0.037,-0.148C0.04,-0.152 0.044,-0.154 0.049,-0.154C0.052,-0.154 0.056,-0.153 0.059,-0.151C0.062,-0.149 0.063,-0.146 0.064,-0.142C0.073,-0.109 0.094,-0.084 0.126,-0.066C0.158,-0.047 0.192,-0.035 0.228,-0.028C0.264,-0.021 0.296,-0.018 0.323,-0.018C0.361,-0.018 0.399,-0.023 0.438,-0.033C0.476,-0.043 0.508,-0.06 0.535,-0.083C0.562,-0.106 0.575,-0.137 0.575,-0.176C0.575,-0.21 0.564,-0.236 0.542,-0.254C0.519,-0.272 0.492,-0.284 0.459,-0.29C0.426,-0.296 0.382,-0.301 0.327,-0.306C0.266,-0.311 0.217,-0.317 0.18,-0.325C0.142,-0.332 0.111,-0.347 0.086,-0.37C0.06,-0.393 0.047,-0.426 0.047,-0.469C0.047,-0.511 0.062,-0.545 0.092,-0.572C0.122,-0.599 0.158,-0.618 0.199,-0.629C0.24,-0.64 0.277,-0.646 0.312,-0.646C0.373,-0.646 0.429,-0.637 0.481,-0.618C0.532,-0.599 0.567,-0.567 0.584,-0.52C0.585,-0.516 0.586,-0.513 0.586,-0.511C0.586,-0.507 0.585,-0.504 0.582,-0.502C0.579,-0.499 0.576,-0.498 0.572,-0.498C0.564,-0.498 0.559,-0.502 0.556,-0.509C0.53,-0.58 0.449,-0.616 0.313,-0.616C0.276,-0.616 0.239,-0.61 0.203,-0.599C0.167,-0.587 0.137,-0.57 0.115,-0.547C0.092,-0.524 0.08,-0.498 0.08,-0.468C0.08,-0.433 0.091,-0.407 0.114,-0.389C0.136,-0.371 0.164,-0.359 0.197,-0.353C0.23,-0.346 0.274,-0.341 0.331,-0.336C0.392,-0.331 0.441,-0.324 0.478,-0.317C0.514,-0.309 0.545,-0.294 0.57,-0.273C0.595,-0.251 0.608,-0.219 0.608,-0.177C0.608,-0.131 0.594,-0.094 0.565,-0.067C0.536,-0.039 0.5,-0.019 0.457,-0.008C0.413,0.004 0.369,0.01 0.323,0.01C0.258,0.01 0.198,-0.001 0.141,-0.023C0.084,-0.045 0.049,-0.082 0.034,-0.134Z" style="fill-rule:nonzero;"/>
                </g>
            </g>
            <g transform="matrix(1.41214,0,0,1.41214,-422.248,-474.766)">
                <clipPath id="_clip1">
                    <path d="M2083.54,1026.64L1883.6,1026.64L1883.6,1267.41L2083.54,1267.41L2083.54,1026.64ZM1939.77,1123.55L1983.75,1102.48L2027.74,1123.55L2027.74,1179.88L1983.74,1200.94L1939.77,1179.88L1939.77,1123.55Z"/>
                </clipPath>
                <g clip-path="url(#_clip1)">
                    <g transform="matrix(0.631398,0,0,0.914747,750.764,92.3305)">
                        <path d="M1952.79,1056.23C1995.4,1056.23 2030,1101.88 2030,1158.11C2030,1214.35 1995.4,1260 1952.79,1260C1910.17,1260 1875.58,1214.35 1875.58,1158.11C1875.58,1101.88 1910.17,1056.23 1952.79,1056.23ZM1952.79,1061.26C1967.73,1061.26 1981.24,1067.98 1992.44,1078.82C2010.92,1096.7 2022.71,1125.59 2022.71,1158.11C2022.71,1190.64 2010.92,1219.53 1992.44,1237.41C1981.24,1248.24 1967.73,1254.97 1952.79,1254.97C1937.85,1254.97 1924.33,1248.24 1913.13,1237.41C1894.66,1219.53 1882.87,1190.64 1882.87,1158.11C1882.87,1125.59 1894.66,1096.7 1913.13,1078.82C1924.33,1067.98 1937.85,1061.26 1952.79,1061.26Z"/>
                    </g>
                    <g transform="matrix(0.315699,0.546807,-0.792194,0.457373,2284.71,-445.777)">
                        <path d="M1952.79,1056.23C1995.4,1056.23 2030,1101.88 2030,1158.11C2030,1214.35 1995.4,1260 1952.79,1260C1910.17,1260 1875.58,1214.35 1875.58,1158.11C1875.58,1101.88 1910.17,1056.23 1952.79,1056.23ZM1952.79,1061.26C1967.73,1061.26 1981.24,1067.98 1992.44,1078.82C2010.92,1096.7 2022.71,1125.59 2022.71,1158.11C2022.71,1190.64 2010.92,1219.53 1992.44,1237.41C1981.24,1248.24 1967.73,1254.97 1952.79,1254.97C1937.85,1254.97 1924.33,1248.24 1913.13,1237.41C1894.66,1219.53 1882.87,1190.64 1882.87,1158.11C1882.87,1125.59 1894.66,1096.7 1913.13,1078.82C1924.33,1067.98 1937.85,1061.26 1952.79,1061.26Z"/>
                    </g>
                    <g transform="matrix(-0.315699,0.546807,-0.792194,-0.457373,3517.7,613.603)">
                        <path d="M1952.79,1056.23C1995.4,1056.23 2030,1101.88 2030,1158.11C2030,1214.35 1995.4,1260 1952.79,1260C1910.17,1260 1875.58,1214.35 1875.58,1158.11C1875.58,1101.88 1910.17,1056.23 1952.79,1056.23ZM1952.79,1061.26C1967.73,1061.26 1981.24,1067.98 1992.44,1078.82C2010.92,1096.7 2022.71,1125.59 2022.71,1158.11C2022.71,1190.64 2010.92,1219.53 1992.44,1237.41C1981.24,1248.24 1967.73,1254.97 1952.79,1254.97C1937.85,1254.97 1924.33,1248.24 1913.13,1237.41C1894.66,1219.53 1882.87,1190.64 1882.87,1158.11C1882.87,1125.59 1894.66,1096.7 1913.13,1078.82C1924.33,1067.98 1937.85,1061.26 1952.79,1061.26Z"/>
                    </g>
                </g>
            </g>
        </g>
    </g>
</svg>
