<?xml version="1.0" encoding="UTF-8" standalone="no"?>
<!DOCTYPE svg PUBLIC "-//W3C//DTD SVG 1.1//EN" "http://www.w3.org/Graphics/SVG/1.1/DTD/svg11.dtd">
<svg width="100%" height="100%" viewBox="0 0 2481 3508" version="1.1" xmlns="http://www.w3.org/2000/svg" xmlns:xlink="http://www.w3.org/1999/xlink" xml:space="preserve" xmlns:serif="http://www.serif.com/" style="fill-rule:evenodd;clip-rule:evenodd;stroke-linejoin:round;stroke-miterlimit:2;">
    <g id="Livello-1" serif:id="Livello 1" transform="matrix(4.16667,0,0,4.16667,-128.078,213.804)">
        <g transform="matrix(1,0,0,1,74.2845,-58.786)">
            <text x="70.454px" y="642.434px" style="font-family:'Hero-Regular', 'Hero';font-size:91px;">A</text>
            <text x="132.789px" y="642.434px" style="font-family:'Hero-Regular', 'Hero';font-size:91px;">t<tspan x="164.821px 219.148px " y="642.434px 642.434px ">om</tspan></text>
            <text x="315.244px" y="642.434px" style="font-family:'Hero-Regular', 'Hero';font-size:91px;fill:rgb(254,157,0);">O<tspan x="381.947px " y="642.434px ">S</tspan></text>
        </g>
        <g transform="matrix(1,0,0,1,33.652,-64.7124)">
            <text x="108.268px" y="677.72px" style="font-family:'Hero-Bold', 'Hero';font-weight:700;font-size:24px;fill:rgb(60,66,80);">C<tspan x="125.476px 131.524px 146.956px 163.564px " y="677.72px 677.72px 677.72px 677.72px ">loud</tspan></text>
            <text x="187.324px" y="677.72px" style="font-family:'Hero-Regular', 'Hero';font-size:24px;fill:rgb(60,66,80);"><tspan x="187.324px 204.004px 219.988px 230.428px 236.476px 250.732px " y="677.72px 677.72px 677.72px 677.72px 677.72px 677.72px ">native</tspan></text>
            <text x="274.54px" y="677.72px" style="font-family:'Hero-Bold', 'Hero';font-weight:700;font-size:24px;fill:rgb(60,66,80);">L<tspan x="289.564px 295.612px 312.292px 328.9px " y="677.72px 677.72px 677.72px 677.72px ">inux</tspan></text>
            <text x="350.332px" y="677.72px" style="font-family:'Hero-Regular', 'Hero';font-size:24px;fill:rgb(60,66,80);"><tspan x="350.332px 366.508px 381.124px 397.204px 413.26px 423.052px 437.572px 443.62px 457.66px 473.476px " y="677.72px 677.72px 677.72px 677.72px 677.72px 677.72px 677.72px 677.72px 677.72px 677.72px ">hypervisor</tspan></text>
        </g>
        <g transform="matrix(0.24,0,0,0.24,30.9166,-47.9529)">
            <text x="2198.31px" y="732.283px" style="font-family:'ArialMT', 'Arial', sans-serif;font-size:125px;fill:rgb(60,66,80);">®</text>
        </g>
    </g>
    <g transform="matrix(4.16667,0,0,4.16667,-2418.23,32.7194)">
        <g>
            <g transform="matrix(0.171223,0,0,0.171223,667.699,83.7257)">
                <path d="M1269.69,256.261L2137.47,671.968C2131.91,683.009 2128.82,695.477 2128.82,708.661C2128.82,746.129 2153.8,777.809 2187.99,787.944L2187.99,1869.54C2153.8,1879.67 2128.82,1911.35 2128.82,1948.82C2128.82,1962.01 2131.91,1974.49 2137.47,1985.53L1269.69,2398.76C1269.69,2350.34 1269.59,300.89 1269.69,256.261Z" style="fill:rgb(255,162,1);fill-opacity:0.35;"/>
            </g>
            <g transform="matrix(0.1943,0,0,0.1943,638.4,53.0913)">
                <path d="M1269.69,256.261L2137.47,671.968C2131.91,683.009 2128.82,695.477 2128.82,708.661C2128.82,746.129 2153.8,777.809 2187.99,787.944L2187.99,1869.54C2153.8,1879.67 2128.82,1911.35 2128.82,1948.82C2128.82,1962.01 2131.91,1974.49 2137.47,1985.53L1269.69,2398.76C1269.69,2350.34 1269.59,300.89 1269.69,256.261Z" style="fill:rgb(255,162,1);fill-opacity:0.35;"/>
            </g>
            <g transform="matrix(0.219736,0,0,0.219736,606.095,19.5349)">
                <path d="M1311.63,276.354L2137.47,671.968C2131.91,683.009 2128.82,695.477 2128.82,708.661C2128.82,746.129 2153.8,777.809 2187.99,787.944L2187.99,1869.54C2153.8,1879.67 2128.82,1911.35 2128.82,1948.82C2128.82,1962.01 2131.91,1974.49 2137.47,1985.53L1320.81,2376.75C1320.81,2376.75 1301.72,2354.67 1269.69,2345.96L1269.69,298.634C1275.77,297.188 1295.18,290.212 1311.63,276.354Z" style="fill:rgb(255,162,1);fill-opacity:0.35;"/>
            </g>
            <g transform="matrix(0.24,0,0,0.24,580.366,-7.85228)">
                <path d="M1346.04,292.838L2137.47,671.968C2131.91,683.009 2128.82,695.477 2128.82,708.661C2128.82,746.129 2153.8,777.809 2187.99,787.944L2187.99,1869.54C2153.8,1879.67 2128.82,1911.35 2128.82,1948.82C2128.82,1962.01 2131.91,1974.49 2137.47,1985.53L1346.41,2364.48L1346.46,2362.2C1346.46,2313.78 1314.01,2272.88 1269.69,2260.07L1269.69,385.601C1311.12,373.63 1342.17,337.104 1346.04,292.838Z" style="fill:rgb(255,162,1);fill-opacity:0.35;"/>
            </g>
        </g>
        <g transform="matrix(0.24,0,0,0.24,580.375,-7.85336)">
            <path d="M1134.28,292.844C1138.15,337.112 1169.2,373.631 1210.63,385.602L1210.63,2260.07C1166.31,2272.88 1133.86,2313.78 1133.86,2362.2L1133.91,2364.49L342.842,1985.53C348.404,1974.49 351.5,1962.01 351.5,1948.82C351.5,1911.35 326.523,1879.67 292.323,1869.54L292.323,787.945C326.523,777.809 351.5,746.129 351.5,708.661C351.5,695.477 348.407,683.009 342.853,671.972L1134.28,292.844Z" style="fill:rgb(14,17,25);"/>
        </g>
    </g>
</svg>
