<?xml version="1.0" encoding="UTF-8" standalone="no"?>
<!DOCTYPE svg PUBLIC "-//W3C//DTD SVG 1.1//EN" "http://www.w3.org/Graphics/SVG/1.1/DTD/svg11.dtd">
<svg width="100%" height="100%" viewBox="0 0 2481 3508" version="1.1" xmlns="http://www.w3.org/2000/svg" xmlns:xlink="http://www.w3.org/1999/xlink" xml:space="preserve" xmlns:serif="http://www.serif.com/" style="fill-rule:evenodd;clip-rule:evenodd;stroke-linejoin:round;stroke-miterlimit:2;">
    <g id="Livello-1" serif:id="Livello 1" transform="matrix(4.16667,0,0,4.16667,-128.078,213.804)">
        <g transform="matrix(91,0,0,91,90.0474,642.434)">
            <path d="M0.567,-0.032C0.572,-0.032 0.576,-0.031 0.579,-0.028C0.582,-0.024 0.583,-0.021 0.583,-0.016C0.583,-0.011 0.582,-0.008 0.579,-0.005C0.576,-0.002 0.572,-0 0.567,-0L0.119,-0C0.111,-0 0.105,-0.003 0.1,-0.008C0.094,-0.013 0.092,-0.02 0.092,-0.027L0.092,-0.61C0.092,-0.617 0.094,-0.624 0.1,-0.629C0.105,-0.634 0.111,-0.636 0.119,-0.636L0.568,-0.636C0.573,-0.636 0.576,-0.635 0.579,-0.632C0.582,-0.628 0.583,-0.625 0.583,-0.621C0.583,-0.617 0.582,-0.614 0.579,-0.611C0.576,-0.608 0.572,-0.606 0.567,-0.606L0.125,-0.606L0.125,-0.33L0.547,-0.33C0.552,-0.33 0.556,-0.329 0.559,-0.326C0.562,-0.323 0.563,-0.319 0.563,-0.315C0.563,-0.311 0.562,-0.308 0.559,-0.305C0.556,-0.302 0.552,-0.3 0.547,-0.3L0.125,-0.3L0.125,-0.032L0.567,-0.032Z" style="fill:rgb(250,167,25);fill-rule:nonzero;"/>
        </g>
        <g transform="matrix(91,0,0,91,147.104,642.434)">
            <path d="M0.111,-0C0.099,-0 0.093,-0.006 0.093,-0.019L0.093,-0.617C0.093,-0.623 0.095,-0.628 0.098,-0.631C0.101,-0.634 0.105,-0.636 0.11,-0.636C0.115,-0.636 0.119,-0.634 0.122,-0.631C0.125,-0.628 0.127,-0.623 0.127,-0.617L0.127,-0.031L0.547,-0.031C0.552,-0.031 0.557,-0.029 0.56,-0.027C0.563,-0.023 0.564,-0.02 0.564,-0.016C0.564,-0.012 0.563,-0.008 0.56,-0.005C0.557,-0.002 0.552,-0 0.547,-0L0.111,-0Z" style="fill:rgb(250,167,25);fill-rule:nonzero;"/>
        </g>
        <g transform="matrix(91,0,0,91,198.428,642.434)">
            <path d="M0.567,-0.032C0.572,-0.032 0.576,-0.031 0.579,-0.028C0.582,-0.024 0.583,-0.021 0.583,-0.016C0.583,-0.011 0.582,-0.008 0.579,-0.005C0.576,-0.002 0.572,-0 0.567,-0L0.119,-0C0.111,-0 0.105,-0.003 0.1,-0.008C0.094,-0.013 0.092,-0.02 0.092,-0.027L0.092,-0.61C0.092,-0.617 0.094,-0.624 0.1,-0.629C0.105,-0.634 0.111,-0.636 0.119,-0.636L0.568,-0.636C0.573,-0.636 0.576,-0.635 0.579,-0.632C0.582,-0.628 0.583,-0.625 0.583,-0.621C0.583,-0.617 0.582,-0.614 0.579,-0.611C0.576,-0.608 0.572,-0.606 0.567,-0.606L0.125,-0.606L0.125,-0.33L0.547,-0.33C0.552,-0.33 0.556,-0.329 0.559,-0.326C0.562,-0.323 0.563,-0.319 0.563,-0.315C0.563,-0.311 0.562,-0.308 0.559,-0.305C0.556,-0.302 0.552,-0.3 0.547,-0.3L0.125,-0.3L0.125,-0.032L0.567,-0.032Z" style="fill:rgb(250,167,25);fill-rule:nonzero;"/>
        </g>
        <g transform="matrix(91,0,0,91,255.485,642.434)">
            <path d="M0.678,-0.626C0.683,-0.633 0.688,-0.636 0.695,-0.636C0.7,-0.636 0.704,-0.635 0.707,-0.632C0.709,-0.628 0.711,-0.624 0.711,-0.618L0.711,-0.018C0.711,-0.013 0.709,-0.008 0.706,-0.005C0.703,-0.002 0.699,-0 0.694,-0C0.689,-0 0.685,-0.002 0.682,-0.005C0.679,-0.008 0.677,-0.012 0.677,-0.018L0.677,-0.564L0.419,-0.159C0.415,-0.152 0.409,-0.148 0.402,-0.148C0.394,-0.148 0.388,-0.152 0.384,-0.159L0.126,-0.562L0.126,-0.018C0.126,-0.012 0.124,-0.008 0.121,-0.005C0.118,-0.002 0.114,-0 0.109,-0C0.104,-0 0.1,-0.002 0.097,-0.005C0.094,-0.008 0.092,-0.013 0.092,-0.018L0.092,-0.618C0.092,-0.624 0.094,-0.628 0.097,-0.632C0.1,-0.635 0.104,-0.636 0.108,-0.636C0.115,-0.636 0.12,-0.633 0.124,-0.626L0.402,-0.193L0.678,-0.626Z" style="fill:rgb(250,167,25);fill-rule:nonzero;"/>
        </g>
        <g transform="matrix(91,0,0,91,327.375,642.434)">
            <path d="M0.567,-0.032C0.572,-0.032 0.576,-0.031 0.579,-0.028C0.582,-0.024 0.583,-0.021 0.583,-0.016C0.583,-0.011 0.582,-0.008 0.579,-0.005C0.576,-0.002 0.572,-0 0.567,-0L0.119,-0C0.111,-0 0.105,-0.003 0.1,-0.008C0.094,-0.013 0.092,-0.02 0.092,-0.027L0.092,-0.61C0.092,-0.617 0.094,-0.624 0.1,-0.629C0.105,-0.634 0.111,-0.636 0.119,-0.636L0.568,-0.636C0.573,-0.636 0.576,-0.635 0.579,-0.632C0.582,-0.628 0.583,-0.625 0.583,-0.621C0.583,-0.617 0.582,-0.614 0.579,-0.611C0.576,-0.608 0.572,-0.606 0.567,-0.606L0.125,-0.606L0.125,-0.33L0.547,-0.33C0.552,-0.33 0.556,-0.329 0.559,-0.326C0.562,-0.323 0.563,-0.319 0.563,-0.315C0.563,-0.311 0.562,-0.308 0.559,-0.305C0.556,-0.302 0.552,-0.3 0.547,-0.3L0.125,-0.3L0.125,-0.032L0.567,-0.032Z" style="fill:rgb(250,167,25);fill-rule:nonzero;"/>
        </g>
        <g transform="matrix(91,0,0,91,384.432,642.434)">
            <path d="M0.56,-0.617C0.56,-0.623 0.562,-0.628 0.565,-0.631C0.568,-0.634 0.572,-0.636 0.577,-0.636C0.582,-0.636 0.586,-0.634 0.589,-0.631C0.592,-0.628 0.594,-0.623 0.594,-0.617L0.594,-0.02C0.594,-0.014 0.592,-0.009 0.59,-0.006C0.587,-0.003 0.583,-0.001 0.579,-0.001C0.572,-0.001 0.565,-0.005 0.559,-0.012L0.124,-0.575L0.124,-0.018C0.124,-0.013 0.123,-0.008 0.12,-0.005C0.117,-0.002 0.113,-0 0.108,-0C0.103,-0 0.099,-0.002 0.096,-0.005C0.093,-0.008 0.091,-0.012 0.091,-0.018L0.091,-0.615C0.091,-0.622 0.092,-0.627 0.096,-0.631C0.098,-0.634 0.102,-0.636 0.107,-0.636C0.114,-0.636 0.121,-0.632 0.126,-0.625L0.56,-0.062L0.56,-0.617Z" style="fill:rgb(250,167,25);fill-rule:nonzero;"/>
        </g>
        <g transform="matrix(91,0,0,91,445.857,642.434)">
            <path d="M0.567,-0.636C0.573,-0.636 0.578,-0.635 0.581,-0.632C0.584,-0.628 0.585,-0.625 0.585,-0.621C0.585,-0.617 0.583,-0.614 0.58,-0.611C0.577,-0.608 0.572,-0.606 0.567,-0.606L0.308,-0.606L0.309,-0.019C0.309,-0.013 0.307,-0.008 0.304,-0.005C0.3,-0.002 0.296,-0 0.291,-0C0.286,-0 0.282,-0.002 0.279,-0.005C0.276,-0.008 0.274,-0.013 0.274,-0.019L0.274,-0.606L0.016,-0.606C0.011,-0.606 0.006,-0.608 0.003,-0.611C-0,-0.614 -0.002,-0.617 -0.002,-0.621C-0.002,-0.625 -0.001,-0.628 0.003,-0.632C0.006,-0.635 0.01,-0.636 0.016,-0.636L0.567,-0.636Z" style="fill:rgb(250,167,25);fill-rule:nonzero;"/>
        </g>
        <g transform="matrix(91,0,0,91,495.543,642.434)">
            <path d="M0.372,0.01C0.315,0.01 0.261,-0.005 0.212,-0.035C0.163,-0.064 0.124,-0.105 0.095,-0.157C0.066,-0.209 0.053,-0.266 0.054,-0.329C0.056,-0.4 0.073,-0.46 0.104,-0.507C0.135,-0.554 0.174,-0.589 0.222,-0.612C0.269,-0.635 0.317,-0.646 0.366,-0.646C0.416,-0.646 0.466,-0.634 0.516,-0.61C0.565,-0.586 0.607,-0.549 0.64,-0.5C0.673,-0.45 0.69,-0.389 0.69,-0.318C0.69,-0.257 0.676,-0.201 0.647,-0.151C0.618,-0.101 0.579,-0.062 0.53,-0.033C0.481,-0.004 0.429,0.01 0.372,0.01ZM0.088,-0.319C0.088,-0.264 0.101,-0.214 0.127,-0.169C0.153,-0.123 0.188,-0.087 0.232,-0.061C0.275,-0.034 0.322,-0.021 0.372,-0.021C0.423,-0.021 0.47,-0.034 0.514,-0.061C0.557,-0.087 0.592,-0.123 0.618,-0.169C0.644,-0.214 0.657,-0.264 0.657,-0.319C0.657,-0.385 0.642,-0.44 0.612,-0.485C0.582,-0.529 0.545,-0.562 0.5,-0.583C0.454,-0.604 0.41,-0.614 0.366,-0.614C0.32,-0.614 0.276,-0.604 0.234,-0.583C0.191,-0.562 0.156,-0.529 0.129,-0.485C0.102,-0.44 0.088,-0.385 0.088,-0.319Z" style="fill:rgb(250,167,25);fill-rule:nonzero;"/>
        </g>
        <g transform="matrix(1,0,0,1,11.2009,-4.33931)">
            <g transform="matrix(24,0,0,24,163.144,677.72)">
                <path d="M0.118,-0.637C0.127,-0.637 0.137,-0.634 0.146,-0.629C0.155,-0.624 0.163,-0.616 0.169,-0.607L0.378,-0.28L0.586,-0.608C0.592,-0.617 0.6,-0.624 0.61,-0.63C0.619,-0.635 0.629,-0.637 0.639,-0.637C0.654,-0.637 0.668,-0.632 0.679,-0.622C0.69,-0.612 0.695,-0.598 0.695,-0.581L0.695,-0.052C0.695,-0.035 0.689,-0.023 0.677,-0.014C0.665,-0.005 0.651,-0 0.636,-0C0.62,-0 0.607,-0.005 0.596,-0.014C0.584,-0.023 0.579,-0.035 0.579,-0.052L0.579,-0.389L0.43,-0.156C0.425,-0.147 0.417,-0.14 0.408,-0.135C0.399,-0.13 0.389,-0.127 0.378,-0.127C0.367,-0.127 0.357,-0.13 0.347,-0.136C0.337,-0.141 0.329,-0.149 0.324,-0.159L0.177,-0.388L0.177,-0.052C0.177,-0.035 0.171,-0.023 0.16,-0.014C0.148,-0.005 0.134,-0 0.119,-0C0.103,-0 0.089,-0.005 0.078,-0.014C0.067,-0.023 0.061,-0.035 0.061,-0.052L0.061,-0.58C0.061,-0.597 0.067,-0.61 0.078,-0.621C0.089,-0.632 0.103,-0.637 0.118,-0.637Z" style="fill:rgb(60,66,80);fill-rule:nonzero;"/>
            </g>
            <g transform="matrix(24,0,0,24,187.192,677.72)">
                <path d="M0.675,-0.318C0.675,-0.253 0.662,-0.196 0.635,-0.147C0.608,-0.097 0.57,-0.058 0.521,-0.031C0.471,-0.004 0.415,0.01 0.35,0.01C0.285,0.01 0.228,-0.004 0.179,-0.031C0.129,-0.058 0.09,-0.097 0.063,-0.147C0.036,-0.196 0.022,-0.253 0.022,-0.318C0.022,-0.383 0.036,-0.44 0.063,-0.49C0.09,-0.54 0.129,-0.579 0.179,-0.606C0.228,-0.633 0.285,-0.647 0.35,-0.647C0.414,-0.647 0.471,-0.633 0.52,-0.606C0.569,-0.579 0.608,-0.54 0.635,-0.491C0.662,-0.441 0.675,-0.383 0.675,-0.318ZM0.35,-0.092C0.391,-0.092 0.428,-0.101 0.459,-0.121C0.49,-0.139 0.515,-0.166 0.532,-0.2C0.549,-0.234 0.558,-0.273 0.558,-0.318C0.558,-0.363 0.549,-0.402 0.532,-0.437C0.515,-0.471 0.49,-0.498 0.459,-0.517C0.428,-0.536 0.391,-0.545 0.35,-0.545C0.309,-0.545 0.272,-0.536 0.24,-0.517C0.208,-0.498 0.183,-0.471 0.166,-0.437C0.149,-0.402 0.14,-0.363 0.14,-0.318C0.14,-0.273 0.149,-0.234 0.166,-0.2C0.183,-0.166 0.208,-0.139 0.24,-0.121C0.272,-0.101 0.309,-0.092 0.35,-0.092Z" style="fill:rgb(60,66,80);fill-rule:nonzero;"/>
            </g>
            <g transform="matrix(24,0,0,24,209.872,677.72)">
                <path d="M0.295,-0.637C0.355,-0.637 0.408,-0.624 0.454,-0.597C0.499,-0.57 0.535,-0.533 0.56,-0.485C0.585,-0.437 0.598,-0.381 0.598,-0.318C0.598,-0.255 0.585,-0.199 0.56,-0.151C0.535,-0.103 0.499,-0.066 0.454,-0.04C0.408,-0.013 0.355,-0 0.295,-0L0.089,-0C0.071,-0 0.056,-0.006 0.043,-0.018C0.029,-0.029 0.023,-0.043 0.023,-0.059L0.023,-0.579C0.023,-0.595 0.029,-0.609 0.043,-0.62C0.056,-0.631 0.071,-0.637 0.089,-0.637L0.295,-0.637ZM0.295,-0.099C0.332,-0.099 0.365,-0.108 0.394,-0.126C0.422,-0.144 0.444,-0.17 0.46,-0.203C0.475,-0.236 0.483,-0.275 0.483,-0.318C0.483,-0.361 0.475,-0.4 0.46,-0.434C0.444,-0.467 0.422,-0.493 0.393,-0.512C0.364,-0.53 0.332,-0.539 0.295,-0.539L0.137,-0.539L0.137,-0.099L0.295,-0.099Z" style="fill:rgb(60,66,80);fill-rule:nonzero;"/>
            </g>
            <g transform="matrix(24,0,0,24,230.44,677.72)">
                <path d="M0.542,-0.584C0.542,-0.601 0.548,-0.614 0.56,-0.623C0.571,-0.632 0.585,-0.637 0.601,-0.637C0.617,-0.637 0.631,-0.632 0.642,-0.624C0.653,-0.615 0.659,-0.602 0.659,-0.585L0.659,-0.281C0.659,-0.224 0.647,-0.173 0.622,-0.129C0.596,-0.085 0.561,-0.051 0.516,-0.027C0.471,-0.002 0.418,0.01 0.358,0.01C0.298,0.01 0.245,-0.002 0.2,-0.027C0.155,-0.051 0.12,-0.085 0.095,-0.129C0.07,-0.173 0.057,-0.224 0.057,-0.281L0.057,-0.587C0.057,-0.603 0.063,-0.615 0.074,-0.624C0.085,-0.633 0.099,-0.637 0.115,-0.637C0.132,-0.637 0.146,-0.633 0.158,-0.624C0.169,-0.615 0.175,-0.603 0.175,-0.586L0.175,-0.281C0.175,-0.226 0.192,-0.181 0.225,-0.147C0.258,-0.112 0.302,-0.095 0.357,-0.095C0.412,-0.095 0.457,-0.112 0.491,-0.147C0.525,-0.181 0.542,-0.226 0.542,-0.281L0.542,-0.584Z" style="fill:rgb(60,66,80);fill-rule:nonzero;"/>
            </g>
            <g transform="matrix(24,0,0,24,253.456,677.72)">
                <path d="M0.117,-0C0.096,-0 0.081,-0.005 0.072,-0.014C0.062,-0.023 0.057,-0.036 0.057,-0.054L0.057,-0.586C0.057,-0.602 0.063,-0.615 0.075,-0.624C0.086,-0.632 0.1,-0.637 0.116,-0.637C0.131,-0.637 0.145,-0.632 0.157,-0.624C0.168,-0.615 0.174,-0.602 0.174,-0.586L0.174,-0.1L0.502,-0.1C0.521,-0.1 0.535,-0.095 0.546,-0.085C0.557,-0.075 0.562,-0.063 0.562,-0.05C0.562,-0.036 0.557,-0.024 0.546,-0.015C0.535,-0.005 0.521,-0 0.502,-0L0.117,-0Z" style="fill:rgb(60,66,80);fill-rule:nonzero;"/>
            </g>
            <g transform="matrix(24,0,0,24,273.328,677.72)">
                <path d="M0.327,-0.647C0.352,-0.647 0.369,-0.638 0.378,-0.619L0.661,-0.064C0.666,-0.055 0.669,-0.046 0.669,-0.037C0.669,-0.023 0.663,-0.012 0.651,-0.003C0.639,0.006 0.625,0.01 0.609,0.01C0.599,0.01 0.589,0.008 0.58,0.003C0.57,-0.003 0.563,-0.01 0.558,-0.019L0.488,-0.158L0.166,-0.158L0.096,-0.019C0.091,-0.009 0.085,-0.002 0.076,0.003C0.067,0.008 0.057,0.01 0.046,0.01C0.031,0.01 0.017,0.005 0.004,-0.005C-0.009,-0.015 -0.015,-0.027 -0.015,-0.041C-0.015,-0.046 -0.013,-0.053 -0.01,-0.061L0.275,-0.619C0.28,-0.63 0.286,-0.637 0.295,-0.641C0.303,-0.645 0.314,-0.647 0.327,-0.647ZM0.215,-0.255L0.439,-0.255L0.327,-0.478L0.215,-0.255Z" style="fill:rgb(60,66,80);fill-rule:nonzero;"/>
            </g>
            <g transform="matrix(24,0,0,24,294.856,677.72)">
                <path d="M0.577,-0.098C0.591,-0.083 0.598,-0.068 0.598,-0.051C0.598,-0.037 0.593,-0.025 0.583,-0.015C0.572,-0.004 0.56,0.001 0.546,0.001C0.531,0.001 0.517,-0.006 0.504,-0.019L0.325,-0.21L0.174,-0.21L0.174,-0.052C0.174,-0.036 0.168,-0.023 0.157,-0.014C0.145,-0.005 0.131,-0 0.116,-0C0.1,-0 0.086,-0.005 0.075,-0.014C0.064,-0.023 0.058,-0.035 0.058,-0.051L0.058,-0.585C0.058,-0.6 0.063,-0.613 0.074,-0.623C0.085,-0.632 0.099,-0.637 0.116,-0.637L0.339,-0.637C0.397,-0.637 0.446,-0.628 0.487,-0.609C0.527,-0.59 0.557,-0.564 0.578,-0.531C0.599,-0.498 0.609,-0.462 0.609,-0.421C0.609,-0.373 0.596,-0.332 0.571,-0.297C0.545,-0.262 0.507,-0.238 0.457,-0.224L0.577,-0.098ZM0.34,-0.307C0.39,-0.307 0.428,-0.317 0.454,-0.338C0.479,-0.359 0.492,-0.385 0.492,-0.416C0.492,-0.451 0.478,-0.479 0.451,-0.502C0.424,-0.525 0.387,-0.536 0.34,-0.536L0.174,-0.536L0.174,-0.307L0.34,-0.307Z" style="fill:rgb(60,66,80);fill-rule:nonzero;"/>
            </g>
            <g transform="matrix(24,0,0,24,326.776,677.72)">
                <path d="M0.35,-0.647C0.457,-0.647 0.54,-0.614 0.599,-0.548C0.61,-0.535 0.616,-0.521 0.616,-0.508C0.616,-0.494 0.611,-0.482 0.6,-0.473C0.589,-0.464 0.577,-0.459 0.562,-0.459C0.545,-0.459 0.529,-0.466 0.516,-0.48C0.493,-0.505 0.468,-0.523 0.441,-0.532C0.414,-0.541 0.384,-0.545 0.349,-0.545C0.307,-0.545 0.27,-0.536 0.239,-0.518C0.207,-0.499 0.182,-0.474 0.165,-0.441C0.147,-0.408 0.138,-0.369 0.138,-0.326C0.138,-0.279 0.147,-0.238 0.165,-0.203C0.183,-0.168 0.208,-0.14 0.241,-0.121C0.274,-0.102 0.311,-0.092 0.354,-0.092C0.385,-0.092 0.416,-0.1 0.447,-0.116C0.478,-0.131 0.504,-0.151 0.523,-0.174C0.54,-0.193 0.558,-0.203 0.577,-0.203C0.591,-0.203 0.603,-0.198 0.614,-0.189C0.624,-0.18 0.629,-0.168 0.629,-0.154C0.629,-0.141 0.624,-0.128 0.614,-0.114C0.587,-0.076 0.55,-0.046 0.501,-0.024C0.452,-0.001 0.402,0.01 0.352,0.01C0.287,0.01 0.229,-0.004 0.18,-0.032C0.13,-0.06 0.091,-0.099 0.064,-0.15C0.037,-0.201 0.023,-0.259 0.023,-0.326C0.023,-0.389 0.037,-0.445 0.066,-0.494C0.095,-0.543 0.134,-0.58 0.184,-0.607C0.233,-0.634 0.289,-0.647 0.35,-0.647Z" style="fill:rgb(60,66,80);fill-rule:nonzero;"/>
            </g>
            <g transform="matrix(24,0,0,24,347.584,677.72)">
                <path d="M0.117,-0C0.096,-0 0.081,-0.005 0.072,-0.014C0.062,-0.023 0.057,-0.036 0.057,-0.054L0.057,-0.586C0.057,-0.602 0.063,-0.615 0.075,-0.624C0.086,-0.632 0.1,-0.637 0.116,-0.637C0.131,-0.637 0.145,-0.632 0.157,-0.624C0.168,-0.615 0.174,-0.602 0.174,-0.586L0.174,-0.1L0.502,-0.1C0.521,-0.1 0.535,-0.095 0.546,-0.085C0.557,-0.075 0.562,-0.063 0.562,-0.05C0.562,-0.036 0.557,-0.024 0.546,-0.015C0.535,-0.005 0.521,-0 0.502,-0L0.117,-0Z" style="fill:rgb(60,66,80);fill-rule:nonzero;"/>
            </g>
            <g transform="matrix(24,0,0,24,365.224,677.72)">
                <path d="M0.675,-0.318C0.675,-0.253 0.662,-0.196 0.635,-0.147C0.608,-0.097 0.57,-0.058 0.521,-0.031C0.471,-0.004 0.415,0.01 0.35,0.01C0.285,0.01 0.228,-0.004 0.179,-0.031C0.129,-0.058 0.09,-0.097 0.063,-0.147C0.036,-0.196 0.022,-0.253 0.022,-0.318C0.022,-0.383 0.036,-0.44 0.063,-0.49C0.09,-0.54 0.129,-0.579 0.179,-0.606C0.228,-0.633 0.285,-0.647 0.35,-0.647C0.414,-0.647 0.471,-0.633 0.52,-0.606C0.569,-0.579 0.608,-0.54 0.635,-0.491C0.662,-0.441 0.675,-0.383 0.675,-0.318ZM0.35,-0.092C0.391,-0.092 0.428,-0.101 0.459,-0.121C0.49,-0.139 0.515,-0.166 0.532,-0.2C0.549,-0.234 0.558,-0.273 0.558,-0.318C0.558,-0.363 0.549,-0.402 0.532,-0.437C0.515,-0.471 0.49,-0.498 0.459,-0.517C0.428,-0.536 0.391,-0.545 0.35,-0.545C0.309,-0.545 0.272,-0.536 0.24,-0.517C0.208,-0.498 0.183,-0.471 0.166,-0.437C0.149,-0.402 0.14,-0.363 0.14,-0.318C0.14,-0.273 0.149,-0.234 0.166,-0.2C0.183,-0.166 0.208,-0.139 0.24,-0.121C0.272,-0.101 0.309,-0.092 0.35,-0.092Z" style="fill:rgb(60,66,80);fill-rule:nonzero;"/>
            </g>
            <g transform="matrix(24,0,0,24,387.904,677.72)">
                <path d="M0.542,-0.584C0.542,-0.601 0.548,-0.614 0.56,-0.623C0.571,-0.632 0.585,-0.637 0.601,-0.637C0.617,-0.637 0.631,-0.632 0.642,-0.624C0.653,-0.615 0.659,-0.602 0.659,-0.585L0.659,-0.281C0.659,-0.224 0.647,-0.173 0.622,-0.129C0.596,-0.085 0.561,-0.051 0.516,-0.027C0.471,-0.002 0.418,0.01 0.358,0.01C0.298,0.01 0.245,-0.002 0.2,-0.027C0.155,-0.051 0.12,-0.085 0.095,-0.129C0.07,-0.173 0.057,-0.224 0.057,-0.281L0.057,-0.587C0.057,-0.603 0.063,-0.615 0.074,-0.624C0.085,-0.633 0.099,-0.637 0.115,-0.637C0.132,-0.637 0.146,-0.633 0.158,-0.624C0.169,-0.615 0.175,-0.603 0.175,-0.586L0.175,-0.281C0.175,-0.226 0.192,-0.181 0.225,-0.147C0.258,-0.112 0.302,-0.095 0.357,-0.095C0.412,-0.095 0.457,-0.112 0.491,-0.147C0.525,-0.181 0.542,-0.226 0.542,-0.281L0.542,-0.584Z" style="fill:rgb(60,66,80);fill-rule:nonzero;"/>
            </g>
            <g transform="matrix(24,0,0,24,410.92,677.72)">
                <path d="M0.295,-0.637C0.355,-0.637 0.408,-0.624 0.454,-0.597C0.499,-0.57 0.535,-0.533 0.56,-0.485C0.585,-0.437 0.598,-0.381 0.598,-0.318C0.598,-0.255 0.585,-0.199 0.56,-0.151C0.535,-0.103 0.499,-0.066 0.454,-0.04C0.408,-0.013 0.355,-0 0.295,-0L0.089,-0C0.071,-0 0.056,-0.006 0.043,-0.018C0.029,-0.029 0.023,-0.043 0.023,-0.059L0.023,-0.579C0.023,-0.595 0.029,-0.609 0.043,-0.62C0.056,-0.631 0.071,-0.637 0.089,-0.637L0.295,-0.637ZM0.295,-0.099C0.332,-0.099 0.365,-0.108 0.394,-0.126C0.422,-0.144 0.444,-0.17 0.46,-0.203C0.475,-0.236 0.483,-0.275 0.483,-0.318C0.483,-0.361 0.475,-0.4 0.46,-0.434C0.444,-0.467 0.422,-0.493 0.393,-0.512C0.364,-0.53 0.332,-0.539 0.295,-0.539L0.137,-0.539L0.137,-0.099L0.295,-0.099Z" style="fill:rgb(60,66,80);fill-rule:nonzero;"/>
            </g>
        </g>
        <g transform="matrix(0.24,0,0,0.24,36.5859,-57.8186)">
            <g transform="matrix(125,0,0,125,2198.31,732.283)">
                <path d="M0.37,-0.728C0.432,-0.728 0.492,-0.712 0.551,-0.68C0.61,-0.649 0.656,-0.603 0.689,-0.544C0.722,-0.485 0.738,-0.424 0.738,-0.359C0.738,-0.296 0.722,-0.235 0.69,-0.176C0.657,-0.118 0.612,-0.072 0.553,-0.04C0.495,-0.007 0.434,0.009 0.37,0.009C0.306,0.009 0.245,-0.007 0.187,-0.04C0.128,-0.072 0.083,-0.118 0.05,-0.176C0.018,-0.235 0.001,-0.296 0.001,-0.359C0.001,-0.424 0.018,-0.485 0.051,-0.544C0.084,-0.603 0.13,-0.649 0.189,-0.68C0.248,-0.712 0.308,-0.728 0.37,-0.728ZM0.37,-0.667C0.318,-0.667 0.268,-0.654 0.219,-0.627C0.17,-0.601 0.132,-0.563 0.104,-0.513C0.076,-0.464 0.063,-0.413 0.063,-0.359C0.063,-0.306 0.076,-0.255 0.103,-0.207C0.13,-0.158 0.168,-0.12 0.217,-0.093C0.266,-0.066 0.317,-0.052 0.37,-0.052C0.423,-0.052 0.474,-0.066 0.523,-0.093C0.572,-0.12 0.61,-0.158 0.637,-0.207C0.664,-0.255 0.677,-0.306 0.677,-0.359C0.677,-0.413 0.663,-0.464 0.636,-0.513C0.608,-0.563 0.57,-0.601 0.521,-0.627C0.472,-0.654 0.422,-0.667 0.37,-0.667ZM0.208,-0.156L0.208,-0.552L0.345,-0.552C0.391,-0.552 0.425,-0.549 0.446,-0.541C0.467,-0.534 0.483,-0.521 0.496,-0.503C0.508,-0.485 0.514,-0.465 0.514,-0.445C0.514,-0.416 0.504,-0.391 0.483,-0.369C0.462,-0.348 0.435,-0.336 0.401,-0.333C0.415,-0.327 0.426,-0.32 0.435,-0.312C0.451,-0.296 0.47,-0.27 0.493,-0.233L0.542,-0.156L0.463,-0.156L0.428,-0.218C0.401,-0.267 0.378,-0.298 0.361,-0.311C0.35,-0.32 0.333,-0.324 0.31,-0.324L0.272,-0.324L0.272,-0.156L0.208,-0.156ZM0.272,-0.379L0.35,-0.379C0.387,-0.379 0.413,-0.384 0.426,-0.396C0.44,-0.407 0.446,-0.421 0.446,-0.439C0.446,-0.451 0.443,-0.462 0.437,-0.471C0.43,-0.48 0.421,-0.487 0.409,-0.492C0.398,-0.496 0.376,-0.499 0.345,-0.499L0.272,-0.499L0.272,-0.379Z" style="fill:rgb(60,66,80);fill-rule:nonzero;"/>
            </g>
        </g>
        <g transform="matrix(1,0,0,1,32.188,73.0469)">
            <g transform="matrix(48,0,0,48,73.2284,677.72)">
                <path d="M0.577,-0.098C0.591,-0.083 0.598,-0.068 0.598,-0.051C0.598,-0.037 0.593,-0.025 0.583,-0.015C0.572,-0.004 0.56,0.001 0.546,0.001C0.531,0.001 0.517,-0.006 0.504,-0.019L0.325,-0.21L0.174,-0.21L0.174,-0.052C0.174,-0.036 0.168,-0.023 0.157,-0.014C0.145,-0.005 0.131,-0 0.116,-0C0.1,-0 0.086,-0.005 0.075,-0.014C0.064,-0.023 0.058,-0.035 0.058,-0.051L0.058,-0.585C0.058,-0.6 0.063,-0.613 0.074,-0.623C0.085,-0.632 0.099,-0.637 0.116,-0.637L0.339,-0.637C0.397,-0.637 0.446,-0.628 0.487,-0.609C0.527,-0.59 0.557,-0.564 0.578,-0.531C0.599,-0.498 0.609,-0.462 0.609,-0.421C0.609,-0.373 0.596,-0.332 0.571,-0.297C0.545,-0.262 0.507,-0.238 0.457,-0.224L0.577,-0.098ZM0.34,-0.307C0.39,-0.307 0.428,-0.317 0.454,-0.338C0.479,-0.359 0.492,-0.385 0.492,-0.416C0.492,-0.451 0.478,-0.479 0.451,-0.502C0.424,-0.525 0.387,-0.536 0.34,-0.536L0.174,-0.536L0.174,-0.307L0.34,-0.307Z" style="fill:rgb(14,17,25);fill-rule:nonzero;"/>
            </g>
            <g transform="matrix(48,0,0,48,107.164,677.72)">
                <path d="M0.286,-0.089C0.329,-0.089 0.365,-0.101 0.395,-0.124C0.41,-0.137 0.425,-0.143 0.44,-0.143C0.454,-0.143 0.466,-0.138 0.476,-0.128C0.485,-0.118 0.49,-0.106 0.49,-0.093C0.49,-0.078 0.483,-0.063 0.47,-0.05C0.448,-0.029 0.421,-0.013 0.39,-0.004C0.358,0.006 0.324,0.011 0.289,0.01C0.237,0.01 0.191,-0.001 0.151,-0.022C0.111,-0.043 0.08,-0.073 0.058,-0.112C0.036,-0.15 0.025,-0.194 0.025,-0.243C0.025,-0.298 0.036,-0.346 0.057,-0.388C0.078,-0.429 0.109,-0.462 0.148,-0.485C0.187,-0.507 0.233,-0.519 0.286,-0.519C0.365,-0.519 0.426,-0.495 0.47,-0.448C0.514,-0.401 0.536,-0.338 0.537,-0.259C0.537,-0.239 0.533,-0.224 0.525,-0.214C0.517,-0.204 0.5,-0.199 0.474,-0.199L0.141,-0.199C0.15,-0.166 0.168,-0.14 0.194,-0.12C0.22,-0.099 0.251,-0.089 0.286,-0.089ZM0.287,-0.42C0.248,-0.42 0.216,-0.408 0.19,-0.384C0.164,-0.36 0.147,-0.328 0.14,-0.288L0.431,-0.288C0.427,-0.329 0.413,-0.362 0.39,-0.385C0.367,-0.408 0.332,-0.42 0.287,-0.42Z" style="fill:rgb(14,17,25);fill-rule:nonzero;"/>
            </g>
            <g transform="matrix(48,0,0,48,139.276,677.72)">
                <path d="M0.465,-0.509C0.482,-0.509 0.495,-0.504 0.506,-0.495C0.517,-0.485 0.522,-0.472 0.522,-0.457L0.522,-0.052C0.522,-0.037 0.517,-0.024 0.506,-0.015C0.495,-0.005 0.482,-0 0.465,-0C0.449,-0 0.436,-0.004 0.427,-0.012C0.417,-0.019 0.411,-0.029 0.409,-0.042C0.387,-0.025 0.362,-0.012 0.335,-0.003C0.307,0.006 0.28,0.01 0.253,0.01C0.205,0.01 0.164,-0.001 0.129,-0.023C0.093,-0.045 0.067,-0.076 0.048,-0.116C0.029,-0.156 0.02,-0.203 0.02,-0.256C0.02,-0.307 0.03,-0.353 0.051,-0.393C0.072,-0.432 0.1,-0.463 0.138,-0.486C0.175,-0.508 0.217,-0.519 0.266,-0.519C0.289,-0.519 0.313,-0.515 0.339,-0.506C0.364,-0.497 0.388,-0.485 0.409,-0.469C0.412,-0.482 0.418,-0.492 0.428,-0.499C0.437,-0.505 0.45,-0.509 0.465,-0.509ZM0.265,-0.091C0.296,-0.091 0.325,-0.098 0.352,-0.111C0.378,-0.124 0.397,-0.143 0.408,-0.168L0.408,-0.341C0.396,-0.365 0.378,-0.384 0.353,-0.398C0.327,-0.411 0.301,-0.418 0.274,-0.418C0.232,-0.418 0.198,-0.403 0.173,-0.373C0.147,-0.342 0.134,-0.303 0.134,-0.255C0.134,-0.206 0.146,-0.166 0.17,-0.136C0.194,-0.106 0.226,-0.091 0.265,-0.091Z" style="fill:rgb(14,17,25);fill-rule:nonzero;"/>
            </g>
            <g transform="matrix(48,0,0,48,171.244,677.72)">
                <path d="M0.466,-0.647C0.481,-0.647 0.495,-0.643 0.507,-0.634C0.518,-0.625 0.524,-0.613 0.524,-0.597L0.524,-0.051C0.524,-0.035 0.519,-0.023 0.509,-0.014C0.499,-0.005 0.485,-0 0.466,-0C0.431,-0 0.413,-0.016 0.412,-0.048C0.391,-0.029 0.368,-0.015 0.341,-0.006C0.314,0.004 0.289,0.009 0.264,0.009C0.215,0.009 0.172,-0.002 0.136,-0.025C0.099,-0.048 0.071,-0.079 0.052,-0.12C0.032,-0.161 0.022,-0.207 0.022,-0.26C0.022,-0.31 0.032,-0.355 0.053,-0.394C0.074,-0.433 0.103,-0.464 0.14,-0.486C0.177,-0.508 0.22,-0.519 0.268,-0.519C0.291,-0.519 0.315,-0.515 0.34,-0.506C0.365,-0.497 0.389,-0.484 0.41,-0.467L0.41,-0.597C0.41,-0.614 0.416,-0.626 0.427,-0.635C0.438,-0.643 0.451,-0.647 0.466,-0.647ZM0.267,-0.092C0.301,-0.092 0.331,-0.1 0.358,-0.115C0.385,-0.13 0.403,-0.152 0.412,-0.18L0.411,-0.334C0.4,-0.36 0.382,-0.381 0.357,-0.396C0.331,-0.411 0.305,-0.418 0.276,-0.418C0.235,-0.418 0.201,-0.403 0.175,-0.373C0.149,-0.343 0.136,-0.305 0.136,-0.259C0.136,-0.21 0.148,-0.169 0.172,-0.139C0.196,-0.108 0.228,-0.092 0.267,-0.092Z" style="fill:rgb(14,17,25);fill-rule:nonzero;"/>
            </g>
            <g transform="matrix(48,0,0,48,203.26,677.72)">
                <path d="M0.466,-0.509C0.481,-0.509 0.494,-0.503 0.505,-0.493C0.516,-0.482 0.521,-0.468 0.521,-0.453C0.521,-0.448 0.52,-0.441 0.518,-0.434L0.226,0.139C0.219,0.152 0.211,0.162 0.201,0.169C0.19,0.176 0.179,0.18 0.168,0.18C0.154,0.18 0.142,0.175 0.131,0.164C0.12,0.153 0.115,0.141 0.115,0.126C0.115,0.119 0.117,0.11 0.121,0.101L0.197,-0.049L0,-0.43C-0.003,-0.439 -0.005,-0.446 -0.005,-0.452C-0.005,-0.467 0.001,-0.481 0.013,-0.492C0.024,-0.503 0.037,-0.509 0.052,-0.509C0.063,-0.509 0.073,-0.506 0.083,-0.499C0.092,-0.492 0.1,-0.484 0.105,-0.473L0.259,-0.172L0.413,-0.474C0.418,-0.485 0.425,-0.493 0.434,-0.5C0.443,-0.506 0.454,-0.509 0.466,-0.509Z" style="fill:rgb(14,17,25);fill-rule:nonzero;"/>
            </g>
            <g transform="matrix(48,0,0,48,232.492,677.72)">
                <path d="M0.072,-0.107C0.091,-0.107 0.107,-0.101 0.119,-0.091C0.13,-0.08 0.136,-0.065 0.136,-0.048C0.136,-0.031 0.13,-0.017 0.119,-0.006C0.107,0.005 0.091,0.01 0.072,0.01C0.053,0.01 0.038,0.005 0.025,-0.007C0.012,-0.017 0.006,-0.031 0.006,-0.048C0.006,-0.065 0.012,-0.08 0.025,-0.091C0.038,-0.101 0.053,-0.107 0.072,-0.107Z" style="fill:rgb(14,17,25);fill-rule:nonzero;"/>
            </g>
            <g transform="matrix(48,0,0,48,257.164,677.72)">
                <path d="M0.007,-0.151C0.006,-0.158 0.005,-0.162 0.005,-0.164C0.005,-0.179 0.011,-0.191 0.024,-0.2C0.037,-0.209 0.051,-0.214 0.068,-0.214C0.082,-0.214 0.094,-0.211 0.104,-0.204C0.114,-0.197 0.12,-0.188 0.123,-0.175C0.133,-0.146 0.155,-0.125 0.19,-0.113C0.225,-0.101 0.263,-0.095 0.304,-0.095C0.35,-0.095 0.392,-0.102 0.429,-0.117C0.466,-0.132 0.484,-0.157 0.484,-0.192C0.484,-0.211 0.476,-0.226 0.46,-0.237C0.443,-0.248 0.423,-0.255 0.399,-0.259C0.375,-0.263 0.343,-0.267 0.304,-0.27C0.245,-0.275 0.196,-0.282 0.156,-0.291C0.116,-0.3 0.082,-0.318 0.055,-0.343C0.027,-0.368 0.013,-0.405 0.013,-0.452C0.013,-0.495 0.027,-0.532 0.056,-0.561C0.084,-0.59 0.12,-0.612 0.163,-0.626C0.206,-0.64 0.249,-0.647 0.294,-0.647C0.356,-0.647 0.413,-0.636 0.467,-0.615C0.52,-0.593 0.557,-0.557 0.578,-0.507C0.579,-0.5 0.58,-0.496 0.58,-0.493C0.58,-0.478 0.574,-0.466 0.562,-0.457C0.55,-0.447 0.536,-0.442 0.521,-0.442C0.51,-0.442 0.499,-0.444 0.49,-0.45C0.481,-0.455 0.474,-0.461 0.47,-0.47C0.452,-0.517 0.394,-0.54 0.295,-0.54C0.258,-0.54 0.221,-0.533 0.186,-0.519C0.151,-0.504 0.133,-0.482 0.133,-0.451C0.133,-0.43 0.141,-0.415 0.157,-0.404C0.172,-0.393 0.192,-0.386 0.217,-0.382C0.241,-0.377 0.274,-0.374 0.315,-0.371C0.383,-0.364 0.435,-0.358 0.471,-0.351C0.506,-0.343 0.537,-0.328 0.564,-0.304C0.591,-0.279 0.604,-0.242 0.604,-0.193C0.604,-0.144 0.589,-0.104 0.558,-0.074C0.527,-0.043 0.489,-0.022 0.444,-0.009C0.398,0.004 0.351,0.01 0.304,0.01C0.265,0.01 0.224,0.005 0.183,-0.006C0.142,-0.016 0.105,-0.033 0.072,-0.057C0.039,-0.081 0.018,-0.112 0.007,-0.151Z" style="fill:rgb(14,17,25);fill-rule:nonzero;"/>
            </g>
            <g transform="matrix(48,0,0,48,290.572,677.72)">
                <path d="M0.286,-0.089C0.329,-0.089 0.365,-0.101 0.395,-0.124C0.41,-0.137 0.425,-0.143 0.44,-0.143C0.454,-0.143 0.466,-0.138 0.476,-0.128C0.485,-0.118 0.49,-0.106 0.49,-0.093C0.49,-0.078 0.483,-0.063 0.47,-0.05C0.448,-0.029 0.421,-0.013 0.39,-0.004C0.358,0.006 0.324,0.011 0.289,0.01C0.237,0.01 0.191,-0.001 0.151,-0.022C0.111,-0.043 0.08,-0.073 0.058,-0.112C0.036,-0.15 0.025,-0.194 0.025,-0.243C0.025,-0.298 0.036,-0.346 0.057,-0.388C0.078,-0.429 0.109,-0.462 0.148,-0.485C0.187,-0.507 0.233,-0.519 0.286,-0.519C0.365,-0.519 0.426,-0.495 0.47,-0.448C0.514,-0.401 0.536,-0.338 0.537,-0.259C0.537,-0.239 0.533,-0.224 0.525,-0.214C0.517,-0.204 0.5,-0.199 0.474,-0.199L0.141,-0.199C0.15,-0.166 0.168,-0.14 0.194,-0.12C0.22,-0.099 0.251,-0.089 0.286,-0.089ZM0.287,-0.42C0.248,-0.42 0.216,-0.408 0.19,-0.384C0.164,-0.36 0.147,-0.328 0.14,-0.288L0.431,-0.288C0.427,-0.329 0.413,-0.362 0.39,-0.385C0.367,-0.408 0.332,-0.42 0.287,-0.42Z" style="fill:rgb(14,17,25);fill-rule:nonzero;"/>
            </g>
            <g transform="matrix(48,0,0,48,321.676,677.72)">
                <path d="M0.275,-0.095C0.287,-0.101 0.298,-0.104 0.308,-0.104C0.322,-0.104 0.334,-0.099 0.344,-0.09C0.353,-0.08 0.358,-0.068 0.358,-0.055C0.358,-0.046 0.355,-0.037 0.35,-0.029C0.344,-0.02 0.336,-0.013 0.325,-0.007C0.311,0 0.299,0.005 0.288,0.007C0.277,0.009 0.262,0.01 0.243,0.01C0.136,0.01 0.082,-0.053 0.082,-0.178L0.082,-0.414L0.044,-0.414C0.027,-0.414 0.013,-0.419 0.004,-0.428C-0.006,-0.437 -0.011,-0.448 -0.011,-0.461C-0.011,-0.474 -0.006,-0.485 0.004,-0.495C0.013,-0.504 0.027,-0.509 0.044,-0.509L0.082,-0.509L0.082,-0.595C0.082,-0.611 0.088,-0.624 0.099,-0.633C0.11,-0.642 0.123,-0.647 0.138,-0.647C0.153,-0.647 0.167,-0.642 0.178,-0.633C0.189,-0.624 0.195,-0.611 0.195,-0.595L0.195,-0.509L0.273,-0.509C0.29,-0.509 0.303,-0.504 0.313,-0.495C0.322,-0.485 0.327,-0.474 0.327,-0.461C0.327,-0.448 0.322,-0.437 0.313,-0.428C0.303,-0.419 0.29,-0.414 0.273,-0.414L0.195,-0.414L0.195,-0.178C0.195,-0.151 0.198,-0.129 0.205,-0.113C0.211,-0.096 0.224,-0.088 0.243,-0.088C0.254,-0.088 0.264,-0.09 0.275,-0.095Z" style="fill:rgb(14,17,25);fill-rule:nonzero;"/>
            </g>
            <g transform="matrix(48,0,0,48,342.556,677.72)">
                <path d="M0.072,-0.107C0.091,-0.107 0.107,-0.101 0.119,-0.091C0.13,-0.08 0.136,-0.065 0.136,-0.048C0.136,-0.031 0.13,-0.017 0.119,-0.006C0.107,0.005 0.091,0.01 0.072,0.01C0.053,0.01 0.038,0.005 0.025,-0.007C0.012,-0.017 0.006,-0.031 0.006,-0.048C0.006,-0.065 0.012,-0.08 0.025,-0.091C0.038,-0.101 0.053,-0.107 0.072,-0.107Z" style="fill:rgb(14,17,25);fill-rule:nonzero;"/>
            </g>
            <g transform="matrix(48,0,0,48,367.228,677.72)">
                <path d="M0.35,-0.647C0.457,-0.647 0.54,-0.614 0.599,-0.548C0.61,-0.535 0.616,-0.521 0.616,-0.508C0.616,-0.494 0.611,-0.482 0.6,-0.473C0.589,-0.464 0.577,-0.459 0.562,-0.459C0.545,-0.459 0.529,-0.466 0.516,-0.48C0.493,-0.505 0.468,-0.523 0.441,-0.532C0.414,-0.541 0.384,-0.545 0.349,-0.545C0.307,-0.545 0.27,-0.536 0.239,-0.518C0.207,-0.499 0.182,-0.474 0.165,-0.441C0.147,-0.408 0.138,-0.369 0.138,-0.326C0.138,-0.279 0.147,-0.238 0.165,-0.203C0.183,-0.168 0.208,-0.14 0.241,-0.121C0.274,-0.102 0.311,-0.092 0.354,-0.092C0.385,-0.092 0.416,-0.1 0.447,-0.116C0.478,-0.131 0.504,-0.151 0.523,-0.174C0.54,-0.193 0.558,-0.203 0.577,-0.203C0.591,-0.203 0.603,-0.198 0.614,-0.189C0.624,-0.18 0.629,-0.168 0.629,-0.154C0.629,-0.141 0.624,-0.128 0.614,-0.114C0.587,-0.076 0.55,-0.046 0.501,-0.024C0.452,-0.001 0.402,0.01 0.352,0.01C0.287,0.01 0.229,-0.004 0.18,-0.032C0.13,-0.06 0.091,-0.099 0.064,-0.15C0.037,-0.201 0.023,-0.259 0.023,-0.326C0.023,-0.389 0.037,-0.445 0.066,-0.494C0.095,-0.543 0.134,-0.58 0.184,-0.607C0.233,-0.634 0.289,-0.647 0.35,-0.647Z" style="fill:rgb(14,17,25);fill-rule:nonzero;"/>
            </g>
            <g transform="matrix(48,0,0,48,401.644,677.72)">
                <path d="M0.149,-0.05C0.149,-0.037 0.143,-0.025 0.133,-0.015C0.122,-0.005 0.108,-0 0.092,-0C0.075,-0 0.062,-0.005 0.051,-0.015C0.04,-0.024 0.035,-0.036 0.035,-0.05L0.035,-0.597C0.035,-0.611 0.04,-0.623 0.051,-0.633C0.062,-0.642 0.075,-0.647 0.092,-0.647C0.108,-0.647 0.122,-0.642 0.133,-0.632C0.143,-0.622 0.149,-0.61 0.149,-0.597L0.149,-0.05Z" style="fill:rgb(14,17,25);fill-rule:nonzero;"/>
            </g>
            <g transform="matrix(48,0,0,48,413.74,677.72)">
                <path d="M0.286,-0.519C0.339,-0.519 0.385,-0.508 0.426,-0.486C0.466,-0.463 0.497,-0.432 0.519,-0.392C0.541,-0.351 0.552,-0.305 0.552,-0.252C0.551,-0.2 0.54,-0.154 0.518,-0.115C0.495,-0.075 0.464,-0.044 0.424,-0.023C0.384,-0.001 0.338,0.01 0.286,0.01C0.234,0.01 0.188,-0.001 0.148,-0.023C0.108,-0.044 0.077,-0.075 0.055,-0.115C0.032,-0.154 0.021,-0.2 0.02,-0.252C0.02,-0.305 0.031,-0.351 0.054,-0.392C0.076,-0.432 0.107,-0.463 0.147,-0.486C0.187,-0.508 0.233,-0.519 0.286,-0.519ZM0.286,-0.09C0.331,-0.09 0.367,-0.105 0.394,-0.135C0.421,-0.165 0.435,-0.204 0.435,-0.252C0.435,-0.301 0.421,-0.341 0.394,-0.373C0.367,-0.403 0.331,-0.419 0.286,-0.419C0.241,-0.419 0.205,-0.403 0.178,-0.373C0.151,-0.341 0.137,-0.301 0.137,-0.252C0.137,-0.204 0.151,-0.165 0.178,-0.135C0.205,-0.105 0.241,-0.09 0.286,-0.09Z" style="fill:rgb(14,17,25);fill-rule:nonzero;"/>
            </g>
            <g transform="matrix(48,0,0,48,444.604,677.72)">
                <path d="M0.491,-0.509C0.508,-0.509 0.522,-0.504 0.533,-0.493C0.544,-0.482 0.549,-0.469 0.549,-0.453L0.549,-0.051C0.549,-0.036 0.543,-0.023 0.532,-0.014C0.52,-0.005 0.507,-0 0.492,-0C0.477,-0 0.463,-0.005 0.452,-0.014C0.441,-0.023 0.435,-0.036 0.435,-0.052L0.435,-0.056C0.39,-0.012 0.334,0.01 0.268,0.01C0.199,0.01 0.145,-0.012 0.106,-0.055C0.067,-0.098 0.048,-0.158 0.048,-0.233L0.048,-0.453C0.048,-0.469 0.053,-0.482 0.064,-0.493C0.074,-0.504 0.088,-0.509 0.105,-0.509C0.122,-0.509 0.135,-0.504 0.146,-0.493C0.157,-0.482 0.162,-0.469 0.162,-0.453L0.162,-0.231C0.162,-0.186 0.172,-0.152 0.193,-0.127C0.213,-0.102 0.244,-0.09 0.285,-0.09C0.304,-0.09 0.325,-0.097 0.349,-0.11C0.372,-0.123 0.393,-0.143 0.41,-0.169C0.427,-0.195 0.435,-0.226 0.435,-0.262L0.435,-0.453C0.435,-0.47 0.44,-0.483 0.45,-0.494C0.459,-0.504 0.473,-0.509 0.491,-0.509Z" style="fill:rgb(14,17,25);fill-rule:nonzero;"/>
            </g>
            <g transform="matrix(48,0,0,48,477.82,677.72)">
                <path d="M0.466,-0.647C0.481,-0.647 0.495,-0.643 0.507,-0.634C0.518,-0.625 0.524,-0.613 0.524,-0.597L0.524,-0.051C0.524,-0.035 0.519,-0.023 0.509,-0.014C0.499,-0.005 0.485,-0 0.466,-0C0.431,-0 0.413,-0.016 0.412,-0.048C0.391,-0.029 0.368,-0.015 0.341,-0.006C0.314,0.004 0.289,0.009 0.264,0.009C0.215,0.009 0.172,-0.002 0.136,-0.025C0.099,-0.048 0.071,-0.079 0.052,-0.12C0.032,-0.161 0.022,-0.207 0.022,-0.26C0.022,-0.31 0.032,-0.355 0.053,-0.394C0.074,-0.433 0.103,-0.464 0.14,-0.486C0.177,-0.508 0.22,-0.519 0.268,-0.519C0.291,-0.519 0.315,-0.515 0.34,-0.506C0.365,-0.497 0.389,-0.484 0.41,-0.467L0.41,-0.597C0.41,-0.614 0.416,-0.626 0.427,-0.635C0.438,-0.643 0.451,-0.647 0.466,-0.647ZM0.267,-0.092C0.301,-0.092 0.331,-0.1 0.358,-0.115C0.385,-0.13 0.403,-0.152 0.412,-0.18L0.411,-0.334C0.4,-0.36 0.382,-0.381 0.357,-0.396C0.331,-0.411 0.305,-0.418 0.276,-0.418C0.235,-0.418 0.201,-0.403 0.175,-0.373C0.149,-0.343 0.136,-0.305 0.136,-0.259C0.136,-0.21 0.148,-0.169 0.172,-0.139C0.196,-0.108 0.228,-0.092 0.267,-0.092Z" style="fill:rgb(14,17,25);fill-rule:nonzero;"/>
            </g>
            <g transform="matrix(48,0,0,48,509.836,677.72)">
                <path d="M0.072,-0.107C0.091,-0.107 0.107,-0.101 0.119,-0.091C0.13,-0.08 0.136,-0.065 0.136,-0.048C0.136,-0.031 0.13,-0.017 0.119,-0.006C0.107,0.005 0.091,0.01 0.072,0.01C0.053,0.01 0.038,0.005 0.025,-0.007C0.012,-0.017 0.006,-0.031 0.006,-0.048C0.006,-0.065 0.012,-0.08 0.025,-0.091C0.038,-0.101 0.053,-0.107 0.072,-0.107Z" style="fill:rgb(14,17,25);fill-rule:nonzero;"/>
            </g>
        </g>
    </g>
    <g transform="matrix(4.16667,0,0,4.16667,-2418.23,32.7194)">
        <g id="Livello-3" serif:id="Livello 3">
            <g>
                <g>
                    <g transform="matrix(0.275294,0,0,0.275294,500.84,11.7884)">
                        <circle cx="1370.08" cy="1086.61" r="803.15"/>
                    </g>
                    <g transform="matrix(0.24,0,0,0.24,587.528,-7.85265)">
                        <path d="M1210.36,455.184L1210.36,2415.38L1210.35,2415.38L239.017,1950.07L239.017,706.425L239.023,706.422L239.023,827.917L1210.36,455.184Z" style="fill:rgb(14,17,25);"/>
                    </g>
                    <g transform="matrix(0.24,0,0,0.24,38.2782,-57.7022)">
                        <path d="M3498.9,662.895L4470.22,1035.62L4470.22,2157.78L3498.9,2623.08L3498.9,662.895Z" style="fill:rgb(60,66,80);"/>
                    </g>
                </g>
                <g>
                    <g transform="matrix(-0.238309,0,0,0.24,1166.45,-7.79179)">
                        <path d="M1198.46,2205.59L1210.35,2415.38L2188.58,1950.17L2188.58,1828.33L1198.46,2205.59Z" style="fill:rgb(255,166,1);"/>
                    </g>
                    <g transform="matrix(-0.238309,0,0,-0.24,1166.45,629.646)">
                        <path d="M2188.58,1949.82L1210.36,2415.13L1210.35,2415.12L1180.62,2212.39L2188.58,1828.33L2188.58,1949.82Z" style="fill:rgb(255,166,1);"/>
                    </g>
                    <g transform="matrix(-0.238305,0,0,0.24,1166.44,-8.72225)">
                        <path d="M1210.35,1232.65C1175.31,1299.95 1179.19,1365.97 1210.35,1431.09L2188.58,1388.55L2188.58,1275.2L1210.35,1232.65Z" style="fill:rgb(255,166,1);"/>
                    </g>
                </g>
                <g>
                    <g transform="matrix(0.238309,0,0,0.24,589.573,-7.79179)">
                        <path d="M1210.35,2201.06L1210.35,2415.38L2188.58,1950.17L2188.58,1828.33L1210.35,2201.06Z" style="fill:rgb(255,212,100);"/>
                    </g>
                    <g transform="matrix(0.238309,0,0,-0.24,589.575,629.646)">
                        <path d="M1210.34,2201.05L1210.36,2415.12L2188.57,1949.82L2188.57,1828.33L1210.34,2201.05Z" style="fill:rgb(255,212,100);"/>
                    </g>
                    <g transform="matrix(0.238305,0,0,0.24,589.584,-8.72225)">
                        <path d="M1210.35,1232.65L1210.35,1431.09L2188.58,1388.55L2188.58,1275.2L1210.35,1232.65Z" style="fill:rgb(255,212,100);"/>
                    </g>
                </g>
            </g>
        </g>
    </g>
</svg>
