<svg id="eAyPLSKRdJI1" xmlns="http://www.w3.org/2000/svg" xmlns:xlink="http://www.w3.org/1999/xlink" viewBox="0 0 918 273" shape-rendering="geometricPrecision" text-rendering="geometricPrecision"><defs><filter id="eAyPLSKRdJI11-filter" x="-150%" width="400%" y="-150%" height="400%"><feGaussianBlur id="eAyPLSKRdJI11-filter-blur-0" stdDeviation="0,0" result="result"/></filter></defs><g transform="translate(-1232.52002-70.850403)" clip-rule="evenodd"><g transform="translate(-139.610992 64.314301)" clip-rule="evenodd"><g transform="matrix(.652373 0 0 0.652373 1299.469971-52.793301)" clip-rule="evenodd"><g transform="matrix(1.00388 0 0 1.01497-1236.780029-344.475006)" clip-rule="evenodd"><path id="eAyPLSKRdJI6" d="M1531.53,428.995l188.576316,132.320055.000001,147.318102L1531.53,840.081L1342.956049,708.633155l-.007068-147.3181L1531.53,428.995Z" opacity="0" clip-rule="evenodd" fill-rule="evenodd" stroke-linejoin="round" stroke-miterlimit="2"/></g><g transform="matrix(.746669 0 0 0.746669-534.593994-448.816986)" clip-rule="evenodd"><path id="eAyPLSKRdJI8" d="M1102.5,727.744c10.23-4.897,22.13-4.897,32.37,0c47.73,22.835,187.02,89.483,226.69,108.466c6.52,3.116,10.66,9.694,10.66,16.913v49.633c0,0-175.56-52.053-234.5-69.53-12.42-3.683-25.65-3.683-38.07,0-58.94,17.477-234.5,69.53-234.5,69.53v-49.633c0-7.219,4.144-13.797,10.657-16.913c39.673-18.983,178.963-85.631,226.693-108.466Z" transform="translate(0 99.413605)" opacity="0" clip-rule="evenodd" fill="#faa601" fill-rule="evenodd" stroke-linejoin="round" stroke-miterlimit="2"/><path id="eAyPLSKRdJI9" d="M1134.87,1278.02c-10.24,4.9-22.14,4.9-32.37,0-47.73-22.83-187.02-89.48-226.693-108.46-6.513-3.12-10.657-9.7-10.657-16.92v-49.63c0,0,175.56,52.05,234.5,69.53c12.42,3.68,25.65,3.68,38.07,0c58.94-17.48,234.5-69.53,234.5-69.53v49.63c0,7.22-4.14,13.8-10.66,16.92-39.67,18.98-178.96,85.63-226.69,108.46Z" transform="translate(0-99.647461)" opacity="0" clip-rule="evenodd" fill="#faa601" fill-rule="evenodd" stroke-linejoin="round" stroke-miterlimit="2"/><g transform="matrix(1.33928 0 0 1.33928-1996.310059-579.508972)" clip-rule="evenodd"><path id="eAyPLSKRdJI11" d="M2280.827589,1203.259996v-43.469995L2325.87,1143.63v0v0v0l47.100572,16.160001.000058,43.469995L2325.87,1219.42l-45.042411-16.160004Z" opacity="0" clip-rule="evenodd" filter="url(#eAyPLSKRdJI11-filter)" fill="#faa601" fill-rule="evenodd" stroke-linejoin="round" stroke-miterlimit="2"/></g></g><g id="eAyPLSKRdJI12" transform="matrix(1.53287 0 0 1.53287-1671.73999-109.746919)" opacity="0" clip-rule="evenodd"><path d="M1568.32,318.917c.32-.504.74-.756,1.26-.756.34,0,.63.126.87.378s.36.594.36,1.026v20.196c0,.408-.13.726-.38.954s-.56.342-.92.342-.67-.114-.93-.342c-.27-.228-.4-.546-.4-.954v-15.84l-7.34,11.484c-.32.504-.72.756-1.23.756-.5,0-.92-.252-1.26-.756l-7.34-11.412v15.768c0,.408-.13.726-.38.954s-.56.342-.92.342-.67-.114-.93-.342c-.27-.228-.4-.546-.4-.954v-20.16c0-.432.13-.78.38-1.044s.54-.396.88-.396c.22,0,.43.066.65.198.21.132.39.33.54.594l8.78,13.644l8.71-13.68Z" clip-rule="evenodd" stroke="#040200" stroke-linejoin="round" stroke-miterlimit="2"/><path d="M1592.48,341.417c-2.18,0-4.16-.492-5.92-1.476-1.77-.984-3.16-2.4-4.2-4.248-1.03-1.848-1.54-4.008-1.54-6.48c0-2.52.58-4.638,1.76-6.354s2.64-2.988,4.39-3.816s3.49-1.242,5.22-1.242c1.75,0,3.54.414,5.37,1.242c1.82.828,3.35,2.1,4.59,3.816c1.23,1.716,1.85,3.834,1.85,6.354c0,2.424-.53,4.56-1.58,6.408-1.06,1.848-2.46,3.276-4.22,4.284-1.75,1.008-3.66,1.512-5.72,1.512Zm-8.96-12.096c0,1.92.39,3.612,1.17,5.076s1.85,2.592,3.22,3.384s2.89,1.188,4.57,1.188c1.63,0,3.12-.39,4.46-1.17c1.35-.78,2.42-1.896,3.21-3.348s1.19-3.162,1.19-5.13c0-2.04-.48-3.75-1.43-5.13-.94-1.38-2.11-2.388-3.51-3.024-1.39-.636-2.77-.954-4.14-.954-1.36,0-2.71.306-4.05.918-1.33.612-2.44,1.602-3.34,2.97s-1.35,3.108-1.35,5.22Z" clip-rule="evenodd" stroke="#040200" stroke-linejoin="round" stroke-miterlimit="2"/><path d="M1614.4,341.057c-.45,0-.84-.156-1.17-.468-.32-.312-.48-.672-.48-1.08v-19.836c0-.408.16-.762.48-1.062.33-.3.72-.45,1.17-.45h7.85c2.28,0,4.23.54,5.85,1.62s2.84,2.496,3.66,4.248c.81,1.752,1.22,3.612,1.22,5.58s-.41,3.828-1.22,5.58c-.82,1.752-2.04,3.168-3.66,4.248s-3.57,1.62-5.85,1.62h-7.85Zm7.85-2.34c1.73,0,3.2-.432,4.41-1.296s2.13-1.992,2.76-3.384c.62-1.392.93-2.868.93-4.428s-.31-3.042-.93-4.446c-.63-1.404-1.55-2.538-2.76-3.402s-2.68-1.296-4.41-1.296h-6.91v18.252h6.91Z" clip-rule="evenodd" stroke="#040200" stroke-linejoin="round" stroke-miterlimit="2"/><path d="M1661.24,319.133c0-.432.13-.762.4-.99.26-.228.58-.342.97-.342.36,0,.67.114.93.342.27.228.4.546.4.954v11.916c0,2.208-.5,4.098-1.51,5.67s-2.32,2.754-3.94,3.546-3.35,1.188-5.17,1.188-3.55-.396-5.17-1.188-2.93-1.974-3.94-3.546-1.51-3.462-1.51-5.67v-12.024c0-.384.13-.678.4-.882.26-.204.57-.306.93-.306.39,0,.71.108.97.324.27.216.4.516.4.9v11.988c0,1.656.37,3.072,1.12,4.248.74,1.176,1.72,2.064,2.93,2.664s2.5.9,3.87.9s2.66-.3,3.87-.9s2.19-1.488,2.93-2.664c.75-1.176,1.12-2.592,1.12-4.248v-11.88Z" clip-rule="evenodd" stroke="#040200" stroke-linejoin="round" stroke-miterlimit="2"/><path d="M1676.5,341.057c-.91,0-1.36-.444-1.36-1.332v-20.304c0-.408.13-.72.39-.936.27-.216.58-.324.94-.324s.67.108.93.324c.27.216.4.528.4.936v19.26h13.46c.44,0,.77.114,1.01.342s.36.51.36.846c0,.312-.12.588-.36.828s-.57.36-1.01.36h-14.76Z" clip-rule="evenodd" stroke="#040200" stroke-linejoin="round" stroke-miterlimit="2"/><path d="M1711.82,317.801c.53,0,.91.228,1.15.684l10.62,20.844c.1.192.15.384.15.576c0,.336-.14.612-.4.828s-.59.324-.97.324c-.55,0-.95-.228-1.19-.684l-2.59-5.112h-13.54l-2.66,5.148c-.24.432-.6.648-1.08.648-.36,0-.69-.12-.97-.36-.29-.24-.44-.528-.44-.864c0-.144.04-.3.11-.468l10.62-20.88c.1-.216.26-.384.49-.504s.46-.18.7-.18Zm-5.69,15.192h11.34l-5.65-11.34-5.69,11.34Z" clip-rule="evenodd" stroke="#040200" stroke-linejoin="round" stroke-miterlimit="2"/><path d="M1735.18,339.797c0,.384-.13.69-.39.918-.27.228-.58.342-.94.342-.33,0-.63-.108-.9-.324-.26-.216-.39-.516-.39-.9v-20.412c0-.384.12-.69.36-.918s.56-.342.97-.342h8.53c2.02,0,3.73.342,5.13,1.026s2.47,1.614,3.19,2.79s1.08,2.484,1.08,3.924c0,1.872-.53,3.42-1.59,4.644-1.05,1.224-2.66,2.016-4.82,2.376l5.51,5.94c.31.312.46.636.46.972s-.13.624-.39.864c-.27.24-.57.36-.9.36-.36,0-.69-.156-.97-.468l-6.95-7.524h-6.99v6.732Zm7.28-9c2.2,0,3.87-.444,5-1.332s1.69-2.028,1.69-3.42c-.02-1.584-.63-2.892-1.83-3.924s-2.82-1.548-4.86-1.548h-7.28v10.224h7.28Z" clip-rule="evenodd" stroke="#040200" stroke-linejoin="round" stroke-miterlimit="2"/><path d="M1785.98,317.765c3.86,0,6.85,1.188,8.96,3.564.41.48.62.96.62,1.44c0,.504-.2.924-.58,1.26s-.84.504-1.37.504c-.62,0-1.17-.252-1.65-.756-.84-.912-1.74-1.53-2.7-1.854s-2.07-.486-3.32-.486c-1.51,0-2.83.33-3.97.99s-2.03,1.584-2.67,2.772c-.63,1.188-.95,2.562-.95,4.122c0,1.68.32,3.156.97,4.428s1.56,2.256,2.74,2.952c1.17.696,2.53,1.044,4.06,1.044c1.11,0,2.22-.282,3.35-.846s2.04-1.266,2.74-2.106c.6-.696,1.25-1.044,1.94-1.044.51,0,.94.168,1.32.504.37.336.55.756.55,1.26c0,.456-.18.936-.54,1.44-.96,1.368-2.32,2.454-4.08,3.258-1.77.804-3.55,1.206-5.35,1.206-2.35,0-4.42-.504-6.21-1.512s-3.17-2.424-4.16-4.248c-.98-1.824-1.47-3.936-1.47-6.336c0-2.28.51-4.296,1.55-6.048c1.03-1.752,2.44-3.108,4.23-4.068c1.78-.96,3.78-1.44,5.99-1.44Z" clip-rule="evenodd" stroke="#040200" stroke-linejoin="round" stroke-miterlimit="2"/><path d="M1806.64,341.057c-.74,0-1.29-.162-1.63-.486-.35-.324-.53-.81-.53-1.458v-19.152c0-.576.21-1.026.63-1.35s.92-.486,1.5-.486c.55,0,1.04.162,1.46.486s.63.774.63,1.35v17.496h11.8c.68,0,1.2.18,1.59.54.38.36.57.78.57,1.26c0,.504-.19.93-.57,1.278-.39.348-.91.522-1.59.522h-13.86Z" clip-rule="evenodd" stroke="#040200" stroke-linejoin="round" stroke-miterlimit="2"/><path d="M1851.03,329.609c0,2.328-.48,4.386-1.46,6.174-.97,1.788-2.34,3.174-4.1,4.158s-3.81,1.476-6.14,1.476-4.38-.492-6.17-1.476-3.18-2.37-4.16-4.158-1.48-3.846-1.48-6.174.5-4.392,1.48-6.192s2.37-3.192,4.16-4.176s3.84-1.476,6.17-1.476c2.31,0,4.35.492,6.12,1.476c1.78.984,3.15,2.37,4.12,4.158.98,1.788,1.46,3.858,1.46,6.21Zm-11.7,8.136c1.49,0,2.8-.342,3.93-1.026c1.12-.684,2-1.638,2.62-2.862.63-1.224.94-2.64.94-4.248s-.31-3.03-.94-4.266c-.62-1.236-1.5-2.196-2.62-2.88-1.13-.684-2.44-1.026-3.93-1.026s-2.81.342-3.96,1.026-2.04,1.644-2.66,2.88c-.63,1.236-.94,2.658-.94,4.266s.31,3.024.94,4.248c.62,1.224,1.51,2.178,2.66,2.862s2.47,1.026,3.96,1.026Z" clip-rule="evenodd" stroke="#040200" stroke-linejoin="round" stroke-miterlimit="2"/><path d="M1878.1,320.033c0-.6.21-1.068.63-1.404s.92-.504,1.5-.504c.57,0,1.07.162,1.47.486.41.324.62.786.62,1.386v10.944c0,2.064-.45,3.888-1.35,5.472s-2.17,2.814-3.8,3.69-3.53,1.314-5.69,1.314-4.06-.438-5.69-1.314-2.9-2.106-3.8-3.69-1.35-3.408-1.35-5.472v-11.016c0-.576.21-1.02.62-1.332.4-.312.9-.468,1.47-.468.6,0,1.11.156,1.53.468s.63.768.63,1.368v10.98c0,1.992.6,3.606,1.8,4.842s2.79,1.854,4.75,1.854c2,0,3.6-.618,4.83-1.854c1.22-1.236,1.83-2.85,1.83-4.842v-10.908Z" clip-rule="evenodd" stroke="#040200" stroke-linejoin="round" stroke-miterlimit="2"/><path d="M1901.58,318.125c2.16,0,4.06.48,5.7,1.44c1.65.96,2.92,2.304,3.84,4.032.91,1.728,1.36,3.732,1.36,6.012s-.45,4.284-1.36,6.012c-.92,1.728-2.19,3.066-3.84,4.014-1.64.948-3.54,1.422-5.7,1.422h-7.42c-.65,0-1.21-.21-1.67-.63-.47-.42-.71-.918-.71-1.494v-18.72c0-.576.24-1.068.71-1.476.46-.408,1.02-.612,1.67-.612h7.42Zm0,19.368c1.34,0,2.52-.324,3.54-.972s1.81-1.572,2.38-2.772c.56-1.2.84-2.58.84-4.14s-.28-2.946-.84-4.158c-.57-1.212-1.36-2.148-2.4-2.808-1.03-.66-2.2-.99-3.52-.99h-5.69v15.84h5.69Z" clip-rule="evenodd" stroke="#040200" stroke-linejoin="round" stroke-miterlimit="2"/></g><g id="eAyPLSKRdJI25" transform="matrix(14.7427 0 0 14.7427-7165.399902-2349.874971)" opacity="0" clip-rule="evenodd"><g transform="matrix(12 0 0 12 522.044983 183.742996)" clip-rule="evenodd"><path d="M0.543,-0.066c.011,0,.019.003.025.01.006.008.009.016.009.025s-.003.016-.009.022-.014.009-.025.009h-.421c-.013,0-.024-.004-.033-.013s-.013-.019-.013-.031v-.549c0-.012.004-.022.013-.031.009-.008.02-.012.033-.012h.422c.01,0,.018.003.023.009s.008.013.008.022-.003.016-.008.023c-.006.007-.014.01-.024.01h-.395v.225h.376c.009,0,.017.003.023.009.005.007.008.015.008.024c0,.008-.003.015-.008.021-.005.007-.013.01-.023.01h-.376v.217h.395Z" clip-rule="evenodd" fill="#ffa601" stroke-linejoin="round" stroke-miterlimit="2"/></g><g transform="matrix(12 0 0 12 530.312988 183.742996)" clip-rule="evenodd"><path d="M0.114,0c-.025,0-.038-.012-.038-.037v-.564c0-.011.004-.02.011-.026s.016-.009.026-.009.019.003.026.009.011.015.011.026v.535h.374c.012,0,.021.003.028.009.007.007.01.015.01.024s-.003.016-.01.023-.016.01-.028.01h-.41Z" clip-rule="evenodd" fill="#ffa601" stroke-linejoin="round" stroke-miterlimit="2"/></g><g transform="matrix(12 0 0 12 537.825012 183.742996)" clip-rule="evenodd"><path d="M0.543,-0.066c.011,0,.019.003.025.01.006.008.009.016.009.025s-.003.016-.009.022-.014.009-.025.009h-.421c-.013,0-.024-.004-.033-.013s-.013-.019-.013-.031v-.549c0-.012.004-.022.013-.031.009-.008.02-.012.033-.012h.422c.01,0,.018.003.023.009s.008.013.008.022-.003.016-.008.023c-.006.007-.014.01-.024.01h-.395v.225h.376c.009,0,.017.003.023.009.005.007.008.015.008.024c0,.008-.003.015-.008.021-.005.007-.013.01-.023.01h-.376v.217h.395Z" clip-rule="evenodd" fill="#ffa601" stroke-linejoin="round" stroke-miterlimit="2"/></g><g transform="matrix(12 0 0 12 546.093018 183.742996)" clip-rule="evenodd"><path d="M0.632,-0.615c.009-.014.02-.021.035-.021.009,0,.017.004.024.01.007.007.01.017.01.029v.561c0,.011-.003.02-.01.026-.007.007-.016.01-.026.01s-.019-.003-.026-.01c-.007-.006-.011-.015-.011-.026v-.44l-.204.319c-.009.014-.02.021-.034.021s-.026-.007-.035-.021l-.204-.317v.438c0,.011-.003.02-.01.026-.007.007-.016.01-.026.01s-.019-.003-.026-.01c-.007-.006-.011-.015-.011-.026v-.56c0-.012.004-.022.011-.029.006-.007.015-.011.024-.011.006,0,.012.002.018.005.006.004.011.01.015.017l.244.379.242-.38Z" clip-rule="evenodd" fill="#ffa601" stroke-linejoin="round" stroke-miterlimit="2"/></g><g transform="matrix(12 0 0 12 556.317017 183.742996)" clip-rule="evenodd"><path d="M0.543,-0.066c.011,0,.019.003.025.01.006.008.009.016.009.025s-.003.016-.009.022-.014.009-.025.009h-.421c-.013,0-.024-.004-.033-.013s-.013-.019-.013-.031v-.549c0-.012.004-.022.013-.031.009-.008.02-.012.033-.012h.422c.01,0,.018.003.023.009s.008.013.008.022-.003.016-.008.023c-.006.007-.014.01-.024.01h-.395v.225h.376c.009,0,.017.003.023.009.005.007.008.015.008.024c0,.008-.003.015-.008.021-.005.007-.013.01-.023.01h-.376v.217h.395Z" clip-rule="evenodd" fill="#ffa601" stroke-linejoin="round" stroke-miterlimit="2"/></g><g transform="matrix(12 0 0 12 564.585022 183.742996)" clip-rule="evenodd"><path d="M0.527,-0.604c0-.01.004-.018.012-.024.007-.005.016-.008.027-.008.01,0,.019.003.026.008.007.006.011.014.011.024v.561c0,.013-.004.024-.013.031-.009.008-.02.012-.033.012-.009,0-.017-.002-.025-.006s-.014-.01-.019-.017l-.374-.496.008.138v.344c0,.012-.004.021-.011.027-.007.007-.016.01-.027.01s-.02-.003-.027-.01c-.007-.006-.011-.015-.011-.027v-.555c0-.014.004-.025.012-.033.007-.007.017-.011.028-.011.008,0,.016.002.023.006s.013.01.018.017l.385.506-.01-.151v-.346Z" clip-rule="evenodd" fill="#ffa601" stroke-linejoin="round" stroke-miterlimit="2"/></g><g transform="matrix(12 0 0 12 573.47699 183.742996)" clip-rule="evenodd"><path d="M0.542,-0.636c.012,0,.021.003.028.01.006.007.009.015.009.024c0,.01-.003.018-.009.025-.007.007-.016.01-.028.01h-.223l.001.53c0,.011-.004.02-.012.027s-.017.01-.026.01-.018-.003-.025-.01c-.007-.006-.011-.015-.011-.027v-.53h-.222c-.011,0-.019-.004-.026-.011-.006-.006-.009-.015-.009-.024s.003-.017.009-.024c.007-.007.015-.01.026-.01h.518Z" clip-rule="evenodd" fill="#ffa601" stroke-linejoin="round" stroke-miterlimit="2"/></g><g transform="matrix(12 0 0 12 580.77301 183.742996)" clip-rule="evenodd"><path d="M0.361,0.01c-.061,0-.115-.014-.164-.041s-.088-.067-.117-.118-.043-.111-.043-.18c0-.07.016-.129.049-.177.033-.047.073-.082.122-.106.049-.023.097-.034.145-.034.049,0,.098.011.149.034.051.024.093.059.128.106.034.048.051.107.051.177c0,.067-.015.127-.044.178s-.068.091-.117.119-.102.042-.159.042Zm-.249-.336c0,.053.011.1.033.141.021.041.051.072.089.094s.08.033.127.033c.045,0,.087-.011.124-.033.037-.021.067-.052.089-.093.022-.04.033-.087.033-.142c0-.057-.013-.104-.039-.143-.027-.038-.059-.066-.098-.084-.039-.017-.077-.026-.115-.026s-.075.008-.112.025-.069.045-.093.083c-.025.038-.038.086-.038.145Z" clip-rule="evenodd" fill="#ffa601" stroke-linejoin="round" stroke-miterlimit="2"/></g></g></g></g></g>
<script><![CDATA[
!function(t,n){"object"==typeof exports&&"undefined"!=typeof module?module.exports=n():"function"==typeof define&&define.amd?define(n):((t="undefined"!=typeof globalThis?globalThis:t||self).__SVGATOR_PLAYER__=t.__SVGATOR_PLAYER__||{},t.__SVGATOR_PLAYER__["5c7f360c"]=n())}(this,(function(){"use strict";function t(t,n){var e=Object.keys(t);if(Object.getOwnPropertySymbols){var r=Object.getOwnPropertySymbols(t);n&&(r=r.filter((function(n){return Object.getOwnPropertyDescriptor(t,n).enumerable}))),e.push.apply(e,r)}return e}function n(n){for(var e=1;e<arguments.length;e++){var r=null!=arguments[e]?arguments[e]:{};e%2?t(Object(r),!0).forEach((function(t){o(n,t,r[t])})):Object.getOwnPropertyDescriptors?Object.defineProperties(n,Object.getOwnPropertyDescriptors(r)):t(Object(r)).forEach((function(t){Object.defineProperty(n,t,Object.getOwnPropertyDescriptor(r,t))}))}return n}function e(t){return(e="function"==typeof Symbol&&"symbol"==typeof Symbol.iterator?function(t){return typeof t}:function(t){return t&&"function"==typeof Symbol&&t.constructor===Symbol&&t!==Symbol.prototype?"symbol":typeof t})(t)}function r(t,n){if(!(t instanceof n))throw new TypeError("Cannot call a class as a function")}function i(t,n){for(var e=0;e<n.length;e++){var r=n[e];r.enumerable=r.enumerable||!1,r.configurable=!0,"value"in r&&(r.writable=!0),Object.defineProperty(t,r.key,r)}}function u(t,n,e){return n&&i(t.prototype,n),e&&i(t,e),t}function o(t,n,e){return n in t?Object.defineProperty(t,n,{value:e,enumerable:!0,configurable:!0,writable:!0}):t[n]=e,t}function a(t){return(a=Object.setPrototypeOf?Object.getPrototypeOf:function(t){return t.__proto__||Object.getPrototypeOf(t)})(t)}function l(t,n){return(l=Object.setPrototypeOf||function(t,n){return t.__proto__=n,t})(t,n)}function s(){if("undefined"==typeof Reflect||!Reflect.construct)return!1;if(Reflect.construct.sham)return!1;if("function"==typeof Proxy)return!0;try{return Boolean.prototype.valueOf.call(Reflect.construct(Boolean,[],(function(){}))),!0}catch(t){return!1}}function f(t,n,e){return(f=s()?Reflect.construct:function(t,n,e){var r=[null];r.push.apply(r,n);var i=new(Function.bind.apply(t,r));return e&&l(i,e.prototype),i}).apply(null,arguments)}function c(t,n){if(n&&("object"==typeof n||"function"==typeof n))return n;if(void 0!==n)throw new TypeError("Derived constructors may only return object or undefined");return function(t){if(void 0===t)throw new ReferenceError("this hasn't been initialised - super() hasn't been called");return t}(t)}function h(t,n,e){return(h="undefined"!=typeof Reflect&&Reflect.get?Reflect.get:function(t,n,e){var r=function(t,n){for(;!Object.prototype.hasOwnProperty.call(t,n)&&null!==(t=a(t)););return t}(t,n);if(r){var i=Object.getOwnPropertyDescriptor(r,n);return i.get?i.get.call(e):i.value}})(t,n,e||t)}function v(t){return function(t){if(Array.isArray(t))return y(t)}(t)||function(t){if("undefined"!=typeof Symbol&&null!=t[Symbol.iterator]||null!=t["@@iterator"])return Array.from(t)}(t)||function(t,n){if(!t)return;if("string"==typeof t)return y(t,n);var e=Object.prototype.toString.call(t).slice(8,-1);"Object"===e&&t.constructor&&(e=t.constructor.name);if("Map"===e||"Set"===e)return Array.from(t);if("Arguments"===e||/^(?:Ui|I)nt(?:8|16|32)(?:Clamped)?Array$/.test(e))return y(t,n)}(t)||function(){throw new TypeError("Invalid attempt to spread non-iterable instance.\nIn order to be iterable, non-array objects must have a [Symbol.iterator]() method.")}()}function y(t,n){(null==n||n>t.length)&&(n=t.length);for(var e=0,r=new Array(n);e<n;e++)r[e]=t[e];return r}Number.isInteger||(Number.isInteger=function(t){return"number"==typeof t&&isFinite(t)&&Math.floor(t)===t}),Number.EPSILON||(Number.EPSILON=2220446049250313e-31);var g=d(Math.pow(10,-6));function d(t){var n=arguments.length>1&&void 0!==arguments[1]?arguments[1]:6;if(Number.isInteger(t))return t;var e=Math.pow(10,n);return Math.round((+t+Number.EPSILON)*e)/e}function p(t,n){var e=arguments.length>2&&void 0!==arguments[2]?arguments[2]:g;return Math.abs(t-n)<e}var m=Math.PI/180;function b(t){return t}function w(t,n,e){var r=1-e;return 3*e*r*(t*r+n*e)+e*e*e}function x(){var t=arguments.length>0&&void 0!==arguments[0]?arguments[0]:0,n=arguments.length>1&&void 0!==arguments[1]?arguments[1]:0,e=arguments.length>2&&void 0!==arguments[2]?arguments[2]:1,r=arguments.length>3&&void 0!==arguments[3]?arguments[3]:1;return t<0||t>1||e<0||e>1?null:p(t,n)&&p(e,r)?b:function(i){if(i<=0)return t>0?i*n/t:0===n&&e>0?i*r/e:0;if(i>=1)return e<1?1+(i-1)*(r-1)/(e-1):1===e&&t<1?1+(i-1)*(n-1)/(t-1):1;for(var u,o=0,a=1;o<a;){var l=w(t,e,u=(o+a)/2);if(p(i,l))break;l<i?o=u:a=u}return w(n,r,u)}}function A(){return 1}function k(t){return 1===t?1:0}function _(){var t=arguments.length>0&&void 0!==arguments[0]?arguments[0]:1,n=arguments.length>1&&void 0!==arguments[1]?arguments[1]:0;if(1===t){if(0===n)return k;if(1===n)return A}var e=1/t;return function(t){return t>=1?1:(t+=n*e)-t%e}}var S=Math.sin,O=Math.cos,j=Math.acos,M=Math.asin,P=Math.tan,E=Math.atan2,I=Math.PI/180,R=180/Math.PI,F=Math.sqrt,N=function(){function t(){var n=arguments.length>0&&void 0!==arguments[0]?arguments[0]:1,e=arguments.length>1&&void 0!==arguments[1]?arguments[1]:0,i=arguments.length>2&&void 0!==arguments[2]?arguments[2]:0,u=arguments.length>3&&void 0!==arguments[3]?arguments[3]:1,o=arguments.length>4&&void 0!==arguments[4]?arguments[4]:0,a=arguments.length>5&&void 0!==arguments[5]?arguments[5]:0;r(this,t),this.m=[n,e,i,u,o,a],this.i=null,this.w=null,this.s=null}return u(t,[{key:"determinant",get:function(){var t=this.m;return t[0]*t[3]-t[1]*t[2]}},{key:"isIdentity",get:function(){if(null===this.i){var t=this.m;this.i=1===t[0]&&0===t[1]&&0===t[2]&&1===t[3]&&0===t[4]&&0===t[5]}return this.i}},{key:"point",value:function(t,n){var e=this.m;return{x:e[0]*t+e[2]*n+e[4],y:e[1]*t+e[3]*n+e[5]}}},{key:"translateSelf",value:function(){var t=arguments.length>0&&void 0!==arguments[0]?arguments[0]:0,n=arguments.length>1&&void 0!==arguments[1]?arguments[1]:0;if(!t&&!n)return this;var e=this.m;return e[4]+=e[0]*t+e[2]*n,e[5]+=e[1]*t+e[3]*n,this.w=this.s=this.i=null,this}},{key:"rotateSelf",value:function(){var t=arguments.length>0&&void 0!==arguments[0]?arguments[0]:0;if(t%=360){var n=S(t*=I),e=O(t),r=this.m,i=r[0],u=r[1];r[0]=i*e+r[2]*n,r[1]=u*e+r[3]*n,r[2]=r[2]*e-i*n,r[3]=r[3]*e-u*n,this.w=this.s=this.i=null}return this}},{key:"scaleSelf",value:function(){var t=arguments.length>0&&void 0!==arguments[0]?arguments[0]:1,n=arguments.length>1&&void 0!==arguments[1]?arguments[1]:1;if(1!==t||1!==n){var e=this.m;e[0]*=t,e[1]*=t,e[2]*=n,e[3]*=n,this.w=this.s=this.i=null}return this}},{key:"skewSelf",value:function(t,n){if(n%=360,(t%=360)||n){var e=this.m,r=e[0],i=e[1],u=e[2],o=e[3];t&&(t=P(t*I),e[2]+=r*t,e[3]+=i*t),n&&(n=P(n*I),e[0]+=u*n,e[1]+=o*n),this.w=this.s=this.i=null}return this}},{key:"resetSelf",value:function(){var t=arguments.length>0&&void 0!==arguments[0]?arguments[0]:1,n=arguments.length>1&&void 0!==arguments[1]?arguments[1]:0,e=arguments.length>2&&void 0!==arguments[2]?arguments[2]:0,r=arguments.length>3&&void 0!==arguments[3]?arguments[3]:1,i=arguments.length>4&&void 0!==arguments[4]?arguments[4]:0,u=arguments.length>5&&void 0!==arguments[5]?arguments[5]:0,o=this.m;return o[0]=t,o[1]=n,o[2]=e,o[3]=r,o[4]=i,o[5]=u,this.w=this.s=this.i=null,this}},{key:"recomposeSelf",value:function(){var t=arguments.length>0&&void 0!==arguments[0]?arguments[0]:null,n=arguments.length>1&&void 0!==arguments[1]?arguments[1]:null,e=arguments.length>2&&void 0!==arguments[2]?arguments[2]:null,r=arguments.length>3&&void 0!==arguments[3]?arguments[3]:null,i=arguments.length>4&&void 0!==arguments[4]?arguments[4]:null;return this.isIdentity||this.resetSelf(),t&&(t.x||t.y)&&this.translateSelf(t.x,t.y),n&&this.rotateSelf(n),e&&(e.x&&this.skewSelf(e.x,0),e.y&&this.skewSelf(0,e.y)),!r||1===r.x&&1===r.y||this.scaleSelf(r.x,r.y),i&&(i.x||i.y)&&this.translateSelf(i.x,i.y),this}},{key:"decompose",value:function(){var t=arguments.length>0&&void 0!==arguments[0]?arguments[0]:0,n=arguments.length>1&&void 0!==arguments[1]?arguments[1]:0,e=this.m,r=e[0]*e[0]+e[1]*e[1],i=[[e[0],e[1]],[e[2],e[3]]],u=F(r);if(0===u)return{origin:{x:d(e[4]),y:d(e[5])},translate:{x:d(t),y:d(n)},scale:{x:0,y:0},skew:{x:0,y:0},rotate:0};i[0][0]/=u,i[0][1]/=u;var o=e[0]*e[3]-e[1]*e[2]<0;o&&(u=-u);var a=i[0][0]*i[1][0]+i[0][1]*i[1][1];i[1][0]-=i[0][0]*a,i[1][1]-=i[0][1]*a;var l=F(i[1][0]*i[1][0]+i[1][1]*i[1][1]);if(0===l)return{origin:{x:d(e[4]),y:d(e[5])},translate:{x:d(t),y:d(n)},scale:{x:d(u),y:0},skew:{x:0,y:0},rotate:0};i[1][0]/=l,i[1][1]/=l,a/=l;var s=0;return i[1][1]<0?(s=j(i[1][1])*R,i[0][1]<0&&(s=360-s)):s=M(i[0][1])*R,o&&(s=-s),a=E(a,F(i[0][0]*i[0][0]+i[0][1]*i[0][1]))*R,o&&(a=-a),{origin:{x:d(e[4]),y:d(e[5])},translate:{x:d(t),y:d(n)},scale:{x:d(u),y:d(l)},skew:{x:d(a),y:0},rotate:d(s)}}},{key:"clone",value:function(){var t=this.m;return new this.constructor(t[0],t[1],t[2],t[3],t[4],t[5])}},{key:"toString",value:function(){var t=arguments.length>0&&void 0!==arguments[0]?arguments[0]:" ";if(null===this.s){var n=this.m.map((function(t){return d(t)}));1===n[0]&&0===n[1]&&0===n[2]&&1===n[3]?this.s="translate("+n[4]+t+n[5]+")":this.s="matrix("+n.join(t)+")"}return this.s}}],[{key:"create",value:function(t){return t?Array.isArray(t)?f(this,v(t)):t instanceof this?t.clone():(new this).recomposeSelf(t.origin,t.rotate,t.skew,t.scale,t.translate):new this}}]),t}();function T(t,n,e){return t>=.5?e:n}function q(t,n,e){return 0===t||n===e?n:t*(e-n)+n}function B(t,n,e){var r=q(t,n,e);return r<=0?0:r}function L(t,n,e){var r=q(t,n,e);return r<=0?0:r>=1?1:r}function C(t,n,e){return 0===t?n:1===t?e:{x:q(t,n.x,e.x),y:q(t,n.y,e.y)}}function D(t,n,e){var r=function(t,n,e){return Math.round(q(t,n,e))}(t,n,e);return r<=0?0:r>=255?255:r}function z(t,n,e){return 0===t?n:1===t?e:{r:D(t,n.r,e.r),g:D(t,n.g,e.g),b:D(t,n.b,e.b),a:q(t,null==n.a?1:n.a,null==e.a?1:e.a)}}function V(t,n){for(var e=[],r=0;r<t;r++)e.push(n);return e}function G(t,n){if(--n<=0)return t;var e=(t=Object.assign([],t)).length;do{for(var r=0;r<e;r++)t.push(t[r])}while(--n>0);return t}var Y,$=function(){function t(n){r(this,t),this.list=n,this.length=n.length}return u(t,[{key:"setAttribute",value:function(t,n){for(var e=this.list,r=0;r<this.length;r++)e[r].setAttribute(t,n)}},{key:"removeAttribute",value:function(t){for(var n=this.list,e=0;e<this.length;e++)n[e].removeAttribute(t)}},{key:"style",value:function(t,n){for(var e=this.list,r=0;r<this.length;r++)e[r].style[t]=n}}]),t}(),U=/-./g,Q=function(t,n){return n.toUpperCase()};function H(t){return"function"==typeof t?t:T}function J(t){return t?"function"==typeof t?t:Array.isArray(t)?function(t){var n=arguments.length>1&&void 0!==arguments[1]?arguments[1]:b;if(!Array.isArray(t))return n;switch(t.length){case 1:return _(t[0])||n;case 2:return _(t[0],t[1])||n;case 4:return x(t[0],t[1],t[2],t[3])||n}return n}(t,null):function(t,n){var e=arguments.length>2&&void 0!==arguments[2]?arguments[2]:b;switch(t){case"linear":return b;case"steps":return _(n.steps||1,n.jump||0)||e;case"bezier":case"cubic-bezier":return x(n.x1||0,n.y1||0,n.x2||0,n.y2||0)||e}return e}(t.type,t.value,null):null}function Z(t,n,e){var r=arguments.length>3&&void 0!==arguments[3]&&arguments[3],i=n.length-1;if(t<=n[0].t)return r?[0,0,n[0].v]:n[0].v;if(t>=n[i].t)return r?[i,1,n[i].v]:n[i].v;var u,o=n[0],a=null;for(u=1;u<=i;u++){if(!(t>n[u].t)){a=n[u];break}o=n[u]}return null==a?r?[i,1,n[i].v]:n[i].v:o.t===a.t?r?[u,1,a.v]:a.v:(t=(t-o.t)/(a.t-o.t),o.e&&(t=o.e(t)),r?[u,t,e(t,o.v,a.v)]:e(t,o.v,a.v))}function K(t,n){var e=arguments.length>2&&void 0!==arguments[2]?arguments[2]:null;return t&&t.length?"function"!=typeof n?null:("function"!=typeof e&&(e=null),function(r){var i=Z(r,t,n);return null!=i&&e&&(i=e(i)),i}):null}function W(t,n){return t.t-n.t}function X(t,n,r,i,u){var o,a="@"===r[0],l="#"===r[0],s=Y[r],f=T;switch(a?(o=r.substr(1),r=o.replace(U,Q)):l&&(r=r.substr(1)),e(s)){case"function":if(f=s(i,u,Z,J,r,a,n,t),l)return f;break;case"string":f=K(i,H(s));break;case"object":if((f=K(i,H(s.i),s.f))&&"function"==typeof s.u)return s.u(n,f,r,a,t)}return f?function(t,n,e){if(arguments.length>3&&void 0!==arguments[3]&&arguments[3])return t instanceof $?function(r){return t.style(n,e(r))}:function(r){return t.style[n]=e(r)};if(Array.isArray(n)){var r=n.length;return function(i){var u=e(i);if(null==u)for(var o=0;o<r;o++)t[o].removeAttribute(n);else for(var a=0;a<r;a++)t[a].setAttribute(n,u)}}return function(r){var i=e(r);null==i?t.removeAttribute(n):t.setAttribute(n,i)}}(n,r,f,a):null}function tt(t,n,r,i){if(!i||"object"!==e(i))return null;var u=null,o=null;return Array.isArray(i)?o=function(t){if(!t||!t.length)return null;for(var n=0;n<t.length;n++)t[n].e&&(t[n].e=J(t[n].e));return t.sort(W)}(i):(o=i.keys,u=i.data||null),o?X(t,n,r,o,u):null}function nt(t,n,e){if(!e)return null;var r=[];for(var i in e)if(e.hasOwnProperty(i)){var u=tt(t,n,i,e[i]);u&&r.push(u)}return r.length?r:null}function et(t,n){if(!n.settings.duration||n.settings.duration<0)return null;var e,r,i,u,o,a=function(t,n){if(!n)return null;var e=[];if(Array.isArray(n))for(var r=n.length,i=0;i<r;i++){var u=n[i];if(2===u.length){var o=null;if("string"==typeof u[0])o=t.getElementById(u[0]);else if(Array.isArray(u[0])){o=[];for(var a=0;a<u[0].length;a++)if("string"==typeof u[0][a]){var l=t.getElementById(u[0][a]);l&&o.push(l)}o=o.length?1===o.length?o[0]:new $(o):null}if(o){var s=nt(t,o,u[1]);s&&(e=e.concat(s))}}}else for(var f in n)if(n.hasOwnProperty(f)){var c=t.getElementById(f);if(c){var h=nt(t,c,n[f]);h&&(e=e.concat(h))}}return e.length?e:null}(t,n.elements);return a?(e=a,r=n.settings,i=r.duration,u=e.length,o=null,function(t,n){var a=r.iterations||1/0,l=(r.alternate&&a%2==0)^r.direction>0?i:0,s=t%i,f=1+(t-s)/i;n*=r.direction,r.alternate&&f%2==0&&(n=-n);var c=!1;if(f>a)s=l,c=!0,-1===r.fill&&(s=r.direction>0?0:i);else if(n<0&&(s=i-s),s===o)return!1;o=s;for(var h=0;h<u;h++)e[h](s);return c}):null}function rt(t,n){if(Y=n,!t||!t.root||!Array.isArray(t.animations))return null;var e=function(t){for(var n=document.getElementsByTagName("svg"),e=0;e<n.length;e++)if(n[e].id===t.root&&!n[e].svgatorAnimation)return n[e].svgatorAnimation=!0,n[e];return null}(t);if(!e)return null;var r=t.animations.map((function(t){return et(e,t)})).filter((function(t){return!!t}));return r.length?{svg:e,animations:r,animationSettings:t.animationSettings,options:t.options||void 0}:null}function it(t){return+("0x"+(t.replace(/[^0-9a-fA-F]+/g,"")||27))}function ut(t,n,e){return!t||!e||n>t.length?t:t.substring(0,n)+ut(t.substring(n+1),e,e)}function ot(t){var n=arguments.length>1&&void 0!==arguments[1]?arguments[1]:27;return!t||t%n?t%n:ot(t/n,n)}function at(t,n,e){if(t&&t.length){var r=it(e),i=it(n),u=ot(r)+5,o=ut(t,ot(r,5),u);return o=o.replace(/\x7c$/g,"==").replace(/\x2f$/g,"="),o=function(t,n,e){var r=+("0x"+t.substring(0,4));t=t.substring(4);for(var i=n%r+e%27,u=[],o=0;o<t.length;o+=2)if("|"!==t[o]){var a=+("0x"+t[o]+t[o+1])-i;u.push(a)}else{var l=+("0x"+t.substring(o+1,o+1+4))-i;o+=3,u.push(l)}return String.fromCharCode.apply(String,u)}(o=(o=atob(o)).replace(/[\x41-\x5A]/g,""),i,r),o=JSON.parse(o)}}var lt=[{key:"alternate",def:!1},{key:"fill",def:1},{key:"iterations",def:0},{key:"direction",def:1},{key:"speed",def:1},{key:"fps",def:100}],st=function(){function t(n,e){var i=this,u=arguments.length>2&&void 0!==arguments[2]?arguments[2]:null;r(this,t),this._id=0,this._running=!1,this._rollingBack=!1,this._animations=n,this._settings=e,(!u||u<"2022-05-02")&&delete this._settings.speed,lt.forEach((function(t){i._settings[t.key]=i._settings[t.key]||t.def})),this.duration=e.duration,this.offset=e.offset||0,this.rollbackStartOffset=0}return u(t,[{key:"alternate",get:function(){return this._settings.alternate}},{key:"fill",get:function(){return this._settings.fill}},{key:"iterations",get:function(){return this._settings.iterations}},{key:"direction",get:function(){return this._settings.direction}},{key:"speed",get:function(){return this._settings.speed}},{key:"fps",get:function(){return this._settings.fps}},{key:"maxFiniteDuration",get:function(){return this.iterations>0?this.iterations*this.duration:this.duration}},{key:"_apply",value:function(t){for(var n=arguments.length>1&&void 0!==arguments[1]?arguments[1]:{},e=this._animations,r=e.length,i=0,u=0;u<r;u++)n[u]?i++:(n[u]=e[u](t,1),n[u]&&i++);return i}},{key:"_rollback",value:function(t){var n=this,e=1/0,r=null;this.rollbackStartOffset=t,this._rollingBack=!0,this._running=!0;this._id=window.requestAnimationFrame((function i(u){if(n._rollingBack){null==r&&(r=u);var o=Math.round(t-(u-r)*n.speed);if(o>n.duration&&e!==1/0){var a=!!n.alternate&&o/n.duration%2>1,l=o%n.duration;o=(l+=a?n.duration:0)||n.duration}var s=(n.fps?1e3/n.fps:0)*n.speed,f=Math.max(0,o);f<=e-s&&(n.offset=f,e=f,n._apply(f));var c=n.iterations>0&&-1===n.fill&&o>=n.maxFiniteDuration;(o<=0||n.offset<o||c)&&n.stop(),n._id=window.requestAnimationFrame(i)}}))}},{key:"_start",value:function(){var t=this,n=arguments.length>0&&void 0!==arguments[0]?arguments[0]:0,e=-1/0,r=null,i={};this._running=!0;var u=function u(o){null==r&&(r=o);var a=Math.round((o-r)*t.speed+n),l=(t.fps?1e3/t.fps:0)*t.speed;if(a>=e+l&&!t._rollingBack&&(t.offset=a,e=a,t._apply(a,i)===t._animations.length))return void t.pause(!0);t._id=window.requestAnimationFrame(u)};this._id=window.requestAnimationFrame(u)}},{key:"_pause",value:function(){this._id&&window.cancelAnimationFrame(this._id),this._running=!1}},{key:"play",value:function(){if(!this._running)return this._rollingBack?this._rollback(this.offset):this._start(this.offset)}},{key:"stop",value:function(){this._pause(),this.offset=0,this.rollbackStartOffset=0,this._rollingBack=!1,this._apply(0)}},{key:"reachedToEnd",value:function(){return this.iterations>0&&this.offset>=this.iterations*this.duration}},{key:"restart",value:function(){var t=arguments.length>0&&void 0!==arguments[0]&&arguments[0];this.stop(t),this.play(t)}},{key:"pause",value:function(){this._pause()}},{key:"reverse",value:function(){this.direction=-this.direction}}],[{key:"build",value:function(t,n){delete t.animationSettings,t.options=at(t.options,t.root,"5c7f360c"),t.animations.map((function(n){n.settings=at(n.s,t.root,"5c7f360c"),delete n.s,t.animationSettings||(t.animationSettings=n.settings)}));var e=t.version;if(!(t=rt(t,n)))return null;var r=t.options||{},i=new this(t.animations,t.animationSettings,e);return{el:t.svg,options:r,player:i}}},{key:"push",value:function(t){return this.build(t)}},{key:"init",value:function(){var t=this,n=window.__SVGATOR_PLAYER__&&window.__SVGATOR_PLAYER__["5c7f360c"];Array.isArray(n)&&n.splice(0).forEach((function(n){return t.build(n)}))}}]),t}();function ft(t){return d(t)+""}function ct(t){var n=arguments.length>1&&void 0!==arguments[1]?arguments[1]:" ";return t&&t.length?t.map(ft).join(n):""}function ht(t){if(!t)return"transparent";if(null==t.a||t.a>=1){var n=function(t){return 1===(t=parseInt(t).toString(16)).length?"0"+t:t},e=function(t){return t.charAt(0)===t.charAt(1)},r=n(t.r),i=n(t.g),u=n(t.b);return e(r)&&e(i)&&e(u)&&(r=r.charAt(0),i=i.charAt(0),u=u.charAt(0)),"#"+r+i+u}return"rgba("+t.r+","+t.g+","+t.b+","+t.a+")"}function vt(t){return t?"url(#"+t+")":"none"}!function(){for(var t=0,n=["ms","moz","webkit","o"],e=0;e<n.length&&!window.requestAnimationFrame;++e)window.requestAnimationFrame=window[n[e]+"RequestAnimationFrame"],window.cancelAnimationFrame=window[n[e]+"CancelAnimationFrame"]||window[n[e]+"CancelRequestAnimationFrame"];window.requestAnimationFrame||(window.requestAnimationFrame=function(n){var e=Date.now(),r=Math.max(0,16-(e-t)),i=window.setTimeout((function(){n(e+r)}),r);return t=e+r,i},window.cancelAnimationFrame=window.clearTimeout)}();var yt={f:null,i:function(t,n,e){return 0===t?n:1===t?e:{x:B(t,n.x,e.x),y:B(t,n.y,e.y)}},u:function(t,n){return function(e){var r=n(e);t.setAttribute("rx",ft(r.x)),t.setAttribute("ry",ft(r.y))}}},gt={f:null,i:function(t,n,e){return 0===t?n:1===t?e:{width:B(t,n.width,e.width),height:B(t,n.height,e.height)}},u:function(t,n){return function(e){var r=n(e);t.setAttribute("width",ft(r.width)),t.setAttribute("height",ft(r.height))}}};Object.freeze({M:2,L:2,Z:0,H:1,V:1,C:6,Q:4,T:2,S:4,A:7});var dt={},pt=null;function mt(t){var n=function(){if(pt)return pt;if("object"!==("undefined"==typeof document?"undefined":e(document))||!document.createElementNS)return{};var t=document.createElementNS("http://www.w3.org/2000/svg","svg");return t&&t.style?(t.style.position="absolute",t.style.opacity="0.01",t.style.zIndex="-9999",t.style.left="-9999px",t.style.width="1px",t.style.height="1px",pt={svg:t}):{}}().svg;if(!n)return function(t){return null};var r=document.createElementNS(n.namespaceURI,"path");r.setAttributeNS(null,"d",t),r.setAttributeNS(null,"fill","none"),r.setAttributeNS(null,"stroke","none"),n.appendChild(r);var i=r.getTotalLength();return function(t){var n=r.getPointAtLength(i*t);return{x:n.x,y:n.y}}}function bt(t){return dt[t]?dt[t]:dt[t]=mt(t)}function wt(t,n,e,r){if(!t||!r)return!1;var i=["M",t.x,t.y];if(n&&e&&(i.push("C"),i.push(n.x),i.push(n.y),i.push(e.x),i.push(e.y)),n?!e:e){var u=n||e;i.push("Q"),i.push(u.x),i.push(u.y)}return n||e||i.push("L"),i.push(r.x),i.push(r.y),i.join(" ")}function xt(t,n,e,r){var i=arguments.length>4&&void 0!==arguments[4]?arguments[4]:1,u=wt(t,n,e,r),o=bt(u);try{return o(i)}catch(t){return null}}function At(t,n,e){return t+(n-t)*e}function kt(t,n,e){var r=arguments.length>3&&void 0!==arguments[3]&&arguments[3],i={x:At(t.x,n.x,e),y:At(t.y,n.y,e)};return r&&(i.a=_t(t,n)),i}function _t(t,n){return Math.atan2(n.y-t.y,n.x-t.x)}function St(t,n,e,r){var i=1-r;return i*i*t+2*i*r*n+r*r*e}function Ot(t,n,e,r){return 2*(1-r)*(n-t)+2*r*(e-n)}function jt(t,n,e,r){var i=arguments.length>4&&void 0!==arguments[4]&&arguments[4],u=xt(t,n,null,e,r);return u||(u={x:St(t.x,n.x,e.x,r),y:St(t.y,n.y,e.y,r)}),i&&(u.a=Mt(t,n,e,r)),u}function Mt(t,n,e,r){return Math.atan2(Ot(t.y,n.y,e.y,r),Ot(t.x,n.x,e.x,r))}function Pt(t,n,e,r,i){var u=i*i;return i*u*(r-t+3*(n-e))+3*u*(t+e-2*n)+3*i*(n-t)+t}function Et(t,n,e,r,i){var u=1-i;return 3*(u*u*(n-t)+2*u*i*(e-n)+i*i*(r-e))}function It(t,n,e,r,i){var u=arguments.length>5&&void 0!==arguments[5]&&arguments[5],o=xt(t,n,e,r,i);return o||(o={x:Pt(t.x,n.x,e.x,r.x,i),y:Pt(t.y,n.y,e.y,r.y,i)}),u&&(o.a=Rt(t,n,e,r,i)),o}function Rt(t,n,e,r,i){return Math.atan2(Et(t.y,n.y,e.y,r.y,i),Et(t.x,n.x,e.x,r.x,i))}function Ft(t,n,e){var r=arguments.length>3&&void 0!==arguments[3]&&arguments[3];if(Tt(n)){if(qt(e))return jt(n,e.start,e,t,r)}else if(Tt(e)){if(Bt(n))return jt(n,n.end,e,t,r)}else{if(Bt(n))return qt(e)?It(n,n.end,e.start,e,t,r):jt(n,n.end,e,t,r);if(qt(e))return jt(n,e.start,e,t,r)}return kt(n,e,t,r)}function Nt(t,n,e){var r=Ft(t,n,e,!0);return r.a=function(t){return arguments.length>1&&void 0!==arguments[1]&&arguments[1]?t+Math.PI:t}(r.a)/m,r}function Tt(t){return!t.type||"corner"===t.type}function qt(t){return null!=t.start&&!Tt(t)}function Bt(t){return null!=t.end&&!Tt(t)}var Lt=new N;var Ct={f:ft,i:q},Dt={f:ft,i:L};function zt(t,n,e){return t.map((function(t){return function(t,n,e){var r=t.v;if(!r||"g"!==r.t||r.s||!r.v||!r.r)return t;var i=e.getElementById(r.r),u=i&&i.querySelectorAll("stop")||[];return r.s=r.v.map((function(t,n){var e=u[n]&&u[n].getAttribute("offset");return{c:t,o:e=d(parseInt(e)/100)}})),delete r.v,t}(t,0,e)}))}var Vt={gt:"gradientTransform",c:{x:"cx",y:"cy"},rd:"r",f:{x:"x1",y:"y1"},to:{x:"x2",y:"y2"}};function Gt(t,n,r,i,u,o,a,l){return zt(t,0,l),n=function(t,n,e){for(var r,i,u,o=t.length-1,a={},l=0;l<=o;l++)(r=t[l]).e&&(r.e=n(r.e)),r.v&&"g"===(i=r.v).t&&i.r&&(u=e.getElementById(i.r))&&(a[i.r]={e:u,s:u.querySelectorAll("stop")});return a}(t,i,l),function(i){var u=r(i,t,Yt);if(!u)return"none";if("c"===u.t)return ht(u.v);if("g"===u.t){if(!n[u.r])return vt(u.r);var o=n[u.r];return function(t,n){for(var e=t.s,r=e.length;r<n.length;r++){var i=e[e.length-1].cloneNode();i.id=Qt(i.id),t.e.appendChild(i),e=t.s=t.e.querySelectorAll("stop")}for(var u=0,o=e.length,a=n.length-1;u<o;u++)e[u].setAttribute("stop-color",ht(n[Math.min(u,a)].c)),e[u].setAttribute("offset",n[Math.min(u,a)].o)}(o,u.s),Object.keys(Vt).forEach((function(t){if(void 0!==u[t])if("object"!==e(Vt[t])){var n,r="gt"===t?(n=u[t],Array.isArray(n)?"matrix("+n.join(" ")+")":""):u[t],i=Vt[t];o.e.setAttribute(i,r)}else Object.keys(Vt[t]).forEach((function(n){if(void 0!==u[t][n]){var e=u[t][n],r=Vt[t][n];o.e.setAttribute(r,e)}}))})),vt(u.r)}return"none"}}function Yt(t,e,r){if(0===t)return e;if(1===t)return r;if(e&&r){var i=e.t;if(i===r.t)switch(e.t){case"c":return{t:i,v:z(t,e.v,r.v)};case"g":if(e.r===r.r){var u={t:i,s:$t(t,e.s,r.s),r:e.r};return e.gt&&r.gt&&(u.gt=function(t,n,e){var r=n.length;if(r!==e.length)return T(t,n,e);for(var i=new Array(r),u=0;u<r;u++)i[u]=q(t,n[u],e[u]);return i}(t,e.gt,r.gt)),e.c?(u.c=C(t,e.c,r.c),u.rd=B(t,e.rd,r.rd)):e.f&&(u.f=C(t,e.f,r.f),u.to=C(t,e.to,r.to)),u}}if("c"===e.t&&"g"===r.t||"c"===r.t&&"g"===e.t){var o="c"===e.t?e:r,a="g"===e.t?n({},e):n({},r),l=a.s.map((function(t){return{c:o.v,o:t.o}}));return a.s="c"===e.t?$t(t,l,a.s):$t(t,a.s,l),a}}return T(t,e,r)}function $t(t,n,e){if(n.length===e.length)return n.map((function(n,r){return Ut(t,n,e[r])}));for(var r=Math.max(n.length,e.length),i=[],u=0;u<r;u++){var o=Ut(t,n[Math.min(u,n.length-1)],e[Math.min(u,e.length-1)]);i.push(o)}return i}function Ut(t,n,e){return{o:L(t,n.o,e.o||0),c:z(t,n.c,e.c||{})}}function Qt(t){return t.replace(/-fill-([0-9]+)$/,(function(t,n){return"-fill-"+(+n+1)}))}var Ht={fill:Gt,"fill-opacity":Dt,stroke:Gt,"stroke-opacity":Dt,"stroke-width":Ct,"stroke-dashoffset":{f:ft,i:q},"stroke-dasharray":{f:function(t){var n=arguments.length>1&&void 0!==arguments[1]?arguments[1]:" ";return t&&t.length>0&&(t=t.map((function(t){return d(t,4)}))),ct(t,n)},i:function(t,n,e){var r,i,u,o=n.length,a=e.length;if(o!==a)if(0===o)n=V(o=a,0);else if(0===a)a=o,e=V(o,0);else{var l=(u=(r=o)*(i=a)/function(t,n){for(var e;n;)e=n,n=t%n,t=e;return t||1}(r,i))<0?-u:u;n=G(n,Math.floor(l/o)),e=G(e,Math.floor(l/a)),o=a=l}for(var s=[],f=0;f<o;f++)s.push(d(B(t,n[f],e[f])));return s}},opacity:Dt,transform:function(t,n,r,i){if(!(t=function(t,n){if(!t||"object"!==e(t))return null;var r=!1;for(var i in t)t.hasOwnProperty(i)&&(t[i]&&t[i].length?(t[i].forEach((function(t){t.e&&(t.e=n(t.e))})),r=!0):delete t[i]);return r?t:null}(t,i)))return null;var u=function(e,i,u){var o=arguments.length>3&&void 0!==arguments[3]?arguments[3]:null;return t[e]?r(i,t[e],u):n&&n[e]?n[e]:o};return n&&n.a&&t.o?function(n){var e=r(n,t.o,Nt);return Lt.recomposeSelf(e,u("r",n,q,0)+e.a,u("k",n,C),u("s",n,C),u("t",n,C)).toString()}:function(t){return Lt.recomposeSelf(u("o",t,Ft,null),u("r",t,q,0),u("k",t,C),u("s",t,C),u("t",t,C)).toString()}},r:Ct,"#size":gt,"#radius":yt,_:function(t,n){if(Array.isArray(t))for(var e=0;e<t.length;e++)this[t[e]]=n;else this[t]=n}},Jt=function(t){!function(t,n){if("function"!=typeof n&&null!==n)throw new TypeError("Super expression must either be null or a function");t.prototype=Object.create(n&&n.prototype,{constructor:{value:t,writable:!0,configurable:!0}}),n&&l(t,n)}(o,t);var n,e,i=(n=o,e=s(),function(){var t,r=a(n);if(e){var i=a(this).constructor;t=Reflect.construct(r,arguments,i)}else t=r.apply(this,arguments);return c(this,t)});function o(){return r(this,o),i.apply(this,arguments)}return u(o,null,[{key:"build",value:function(t){var n=h(a(o),"build",this).call(this,t,Ht);if(!n)return null;n.el,n.options,function(t,n,e){t.play()}(n.player)}}]),o}(st);return Jt.init(),Jt}));
(function(s,i,o,w,a,b){w[o]=w[o]||{};w[o][s]=w[o][s]||[];w[o][s].push(i);})('5c7f360c',{"root":"eAyPLSKRdJI1","version":"2022-05-04","animations":[{"elements":{"eAyPLSKRdJI6":{"opacity":[{"t":600,"v":0},{"t":1100,"v":1},{"t":1600,"v":1},{"t":2000,"v":0}]},"eAyPLSKRdJI8":{"transform":{"data":{"o":{"x":1118.684998,"y":813.413605,"type":"corner"}},"keys":{"t":[{"t":0,"v":{"x":-1118.684998,"y":-714}},{"t":500,"v":{"x":-1118.684998,"y":-813.413605}}]}},"opacity":[{"t":0,"v":0},{"t":360,"v":1},{"t":1890,"v":1},{"t":2200,"v":0}]},"eAyPLSKRdJI9":{"transform":{"data":{"o":{"x":1118.684998,"y":1192.352539,"type":"corner"}},"keys":{"t":[{"t":0,"v":{"x":-1118.684998,"y":-1292}},{"t":500,"v":{"x":-1118.684998,"y":-1192.352539}}]}},"opacity":[{"t":0,"v":0},{"t":360,"v":1},{"t":1900,"v":1},{"t":2200,"v":0}]},"eAyPLSKRdJI11":{"opacity":[{"t":300,"v":0},{"t":600,"v":1},{"t":1900,"v":1},{"t":2200,"v":0}]},"eAyPLSKRdJI12":{"opacity":[{"t":700,"v":0},{"t":1300,"v":1},{"t":1890,"v":1},{"t":2200,"v":0}]},"eAyPLSKRdJI25":{"opacity":[{"t":500,"v":0},{"t":940,"v":1},{"t":1890,"v":1},{"t":2200,"v":0}]}},"s":"MJDA1ZGFhNTE5M01hNGMExOTBhMzk4OWVROWQI1MTY5NjE2Mkg1ZjVmNNWI1MUU5Mzk4YTE5NWDkyYTM5ODllOWQ1MVRY2OTYwNWI1MTk4YTMM5NGExOTBhMzk4OWU5MZE9hMjUxNjk2MDViNDTE5NTk4OWI5Yk81MTNY5NjA1YjUxOTBZOWJGhMzk0YTE5ZFU5MGEzQOTQ1MTY5Vjk1OTA5YPkhhMjk0NWI1MWEyOWAY5NDk0OTM1MTY5NjAX1YjUxOTU5ZmEyWTUxXNjk2MDVmNWZhYw|"}],"options":"MQDAxMDg4MmY4MEU4MTJZlN2Y4MTJmRjQ3MmYB3OTdjNmU3MTJmOGE/H"},'__SVGATOR_PLAYER__',window)
]]></script>
</svg>
