<?xml version="1.0" encoding="UTF-8" standalone="no"?>
<!DOCTYPE svg PUBLIC "-//W3C//DTD SVG 1.1//EN" "http://www.w3.org/Graphics/SVG/1.1/DTD/svg11.dtd">
<svg width="100%" height="100%" viewBox="0 0 2315 3024" version="1.1" xmlns="http://www.w3.org/2000/svg" xmlns:xlink="http://www.w3.org/1999/xlink" xml:space="preserve" xmlns:serif="http://www.serif.com/" style="fill-rule:evenodd;clip-rule:evenodd;stroke-linejoin:round;stroke-miterlimit:2;">
    <g transform="matrix(1,0,0,1,-82.6772,-141.732)">
        <g id="_-Rectangle-" serif:id="(Rectangle)" transform="matrix(1,0,0,1,11.811,-94.4882)">
            <rect x="70.866" y="236.22" width="2314.96" height="3023.62" style="fill-opacity:0;"/>
        </g>
        <g transform="matrix(4.16667,0,0,4.16667,-128.078,213.804)">
            <g transform="matrix(91,0,0,91,90.0474,642.434)">
                <path d="M0.567,-0.032C0.572,-0.032 0.576,-0.031 0.579,-0.028C0.582,-0.024 0.583,-0.021 0.583,-0.016C0.583,-0.011 0.582,-0.008 0.579,-0.005C0.576,-0.002 0.572,-0 0.567,-0L0.119,-0C0.111,-0 0.105,-0.003 0.1,-0.008C0.094,-0.013 0.092,-0.02 0.092,-0.027L0.092,-0.61C0.092,-0.617 0.094,-0.624 0.1,-0.629C0.105,-0.634 0.111,-0.636 0.119,-0.636L0.568,-0.636C0.573,-0.636 0.576,-0.635 0.579,-0.632C0.582,-0.628 0.583,-0.625 0.583,-0.621C0.583,-0.617 0.582,-0.614 0.579,-0.611C0.576,-0.608 0.572,-0.606 0.567,-0.606L0.125,-0.606L0.125,-0.33L0.547,-0.33C0.552,-0.33 0.556,-0.329 0.559,-0.326C0.562,-0.323 0.563,-0.319 0.563,-0.315C0.563,-0.311 0.562,-0.308 0.559,-0.305C0.556,-0.302 0.552,-0.3 0.547,-0.3L0.125,-0.3L0.125,-0.032L0.567,-0.032Z" style="fill:rgb(250,167,25);fill-rule:nonzero;"/>
            </g>
            <g transform="matrix(91,0,0,91,147.104,642.434)">
                <path d="M0.111,-0C0.099,-0 0.093,-0.006 0.093,-0.019L0.093,-0.617C0.093,-0.623 0.095,-0.628 0.098,-0.631C0.101,-0.634 0.105,-0.636 0.11,-0.636C0.115,-0.636 0.119,-0.634 0.122,-0.631C0.125,-0.628 0.127,-0.623 0.127,-0.617L0.127,-0.031L0.547,-0.031C0.552,-0.031 0.557,-0.029 0.56,-0.027C0.563,-0.023 0.564,-0.02 0.564,-0.016C0.564,-0.012 0.563,-0.008 0.56,-0.005C0.557,-0.002 0.552,-0 0.547,-0L0.111,-0Z" style="fill:rgb(250,167,25);fill-rule:nonzero;"/>
            </g>
            <g transform="matrix(91,0,0,91,198.428,642.434)">
                <path d="M0.567,-0.032C0.572,-0.032 0.576,-0.031 0.579,-0.028C0.582,-0.024 0.583,-0.021 0.583,-0.016C0.583,-0.011 0.582,-0.008 0.579,-0.005C0.576,-0.002 0.572,-0 0.567,-0L0.119,-0C0.111,-0 0.105,-0.003 0.1,-0.008C0.094,-0.013 0.092,-0.02 0.092,-0.027L0.092,-0.61C0.092,-0.617 0.094,-0.624 0.1,-0.629C0.105,-0.634 0.111,-0.636 0.119,-0.636L0.568,-0.636C0.573,-0.636 0.576,-0.635 0.579,-0.632C0.582,-0.628 0.583,-0.625 0.583,-0.621C0.583,-0.617 0.582,-0.614 0.579,-0.611C0.576,-0.608 0.572,-0.606 0.567,-0.606L0.125,-0.606L0.125,-0.33L0.547,-0.33C0.552,-0.33 0.556,-0.329 0.559,-0.326C0.562,-0.323 0.563,-0.319 0.563,-0.315C0.563,-0.311 0.562,-0.308 0.559,-0.305C0.556,-0.302 0.552,-0.3 0.547,-0.3L0.125,-0.3L0.125,-0.032L0.567,-0.032Z" style="fill:rgb(250,167,25);fill-rule:nonzero;"/>
            </g>
            <g transform="matrix(91,0,0,91,255.485,642.434)">
                <path d="M0.678,-0.626C0.683,-0.633 0.688,-0.636 0.695,-0.636C0.7,-0.636 0.704,-0.635 0.707,-0.632C0.709,-0.628 0.711,-0.624 0.711,-0.618L0.711,-0.018C0.711,-0.013 0.709,-0.008 0.706,-0.005C0.703,-0.002 0.699,-0 0.694,-0C0.689,-0 0.685,-0.002 0.682,-0.005C0.679,-0.008 0.677,-0.012 0.677,-0.018L0.677,-0.564L0.419,-0.159C0.415,-0.152 0.409,-0.148 0.402,-0.148C0.394,-0.148 0.388,-0.152 0.384,-0.159L0.126,-0.562L0.126,-0.018C0.126,-0.012 0.124,-0.008 0.121,-0.005C0.118,-0.002 0.114,-0 0.109,-0C0.104,-0 0.1,-0.002 0.097,-0.005C0.094,-0.008 0.092,-0.013 0.092,-0.018L0.092,-0.618C0.092,-0.624 0.094,-0.628 0.097,-0.632C0.1,-0.635 0.104,-0.636 0.108,-0.636C0.115,-0.636 0.12,-0.633 0.124,-0.626L0.402,-0.193L0.678,-0.626Z" style="fill:rgb(250,167,25);fill-rule:nonzero;"/>
            </g>
            <g transform="matrix(91,0,0,91,327.375,642.434)">
                <path d="M0.567,-0.032C0.572,-0.032 0.576,-0.031 0.579,-0.028C0.582,-0.024 0.583,-0.021 0.583,-0.016C0.583,-0.011 0.582,-0.008 0.579,-0.005C0.576,-0.002 0.572,-0 0.567,-0L0.119,-0C0.111,-0 0.105,-0.003 0.1,-0.008C0.094,-0.013 0.092,-0.02 0.092,-0.027L0.092,-0.61C0.092,-0.617 0.094,-0.624 0.1,-0.629C0.105,-0.634 0.111,-0.636 0.119,-0.636L0.568,-0.636C0.573,-0.636 0.576,-0.635 0.579,-0.632C0.582,-0.628 0.583,-0.625 0.583,-0.621C0.583,-0.617 0.582,-0.614 0.579,-0.611C0.576,-0.608 0.572,-0.606 0.567,-0.606L0.125,-0.606L0.125,-0.33L0.547,-0.33C0.552,-0.33 0.556,-0.329 0.559,-0.326C0.562,-0.323 0.563,-0.319 0.563,-0.315C0.563,-0.311 0.562,-0.308 0.559,-0.305C0.556,-0.302 0.552,-0.3 0.547,-0.3L0.125,-0.3L0.125,-0.032L0.567,-0.032Z" style="fill:rgb(250,167,25);fill-rule:nonzero;"/>
            </g>
            <g transform="matrix(91,0,0,91,384.432,642.434)">
                <path d="M0.56,-0.617C0.56,-0.623 0.562,-0.628 0.565,-0.631C0.568,-0.634 0.572,-0.636 0.577,-0.636C0.582,-0.636 0.586,-0.634 0.589,-0.631C0.592,-0.628 0.594,-0.623 0.594,-0.617L0.594,-0.02C0.594,-0.014 0.592,-0.009 0.59,-0.006C0.587,-0.003 0.583,-0.001 0.579,-0.001C0.572,-0.001 0.565,-0.005 0.559,-0.012L0.124,-0.575L0.124,-0.018C0.124,-0.013 0.123,-0.008 0.12,-0.005C0.117,-0.002 0.113,-0 0.108,-0C0.103,-0 0.099,-0.002 0.096,-0.005C0.093,-0.008 0.091,-0.012 0.091,-0.018L0.091,-0.615C0.091,-0.622 0.092,-0.627 0.096,-0.631C0.098,-0.634 0.102,-0.636 0.107,-0.636C0.114,-0.636 0.121,-0.632 0.126,-0.625L0.56,-0.062L0.56,-0.617Z" style="fill:rgb(250,167,25);fill-rule:nonzero;"/>
            </g>
            <g transform="matrix(91,0,0,91,445.857,642.434)">
                <path d="M0.567,-0.636C0.573,-0.636 0.578,-0.635 0.581,-0.632C0.584,-0.628 0.585,-0.625 0.585,-0.621C0.585,-0.617 0.583,-0.614 0.58,-0.611C0.577,-0.608 0.572,-0.606 0.567,-0.606L0.308,-0.606L0.309,-0.019C0.309,-0.013 0.307,-0.008 0.304,-0.005C0.3,-0.002 0.296,-0 0.291,-0C0.286,-0 0.282,-0.002 0.279,-0.005C0.276,-0.008 0.274,-0.013 0.274,-0.019L0.274,-0.606L0.016,-0.606C0.011,-0.606 0.006,-0.608 0.003,-0.611C-0,-0.614 -0.002,-0.617 -0.002,-0.621C-0.002,-0.625 -0.001,-0.628 0.003,-0.632C0.006,-0.635 0.01,-0.636 0.016,-0.636L0.567,-0.636Z" style="fill:rgb(250,167,25);fill-rule:nonzero;"/>
            </g>
            <g transform="matrix(91,0,0,91,495.543,642.434)">
                <path d="M0.372,0.01C0.315,0.01 0.261,-0.005 0.212,-0.035C0.163,-0.064 0.124,-0.105 0.095,-0.157C0.066,-0.209 0.053,-0.266 0.054,-0.329C0.056,-0.4 0.073,-0.46 0.104,-0.507C0.135,-0.554 0.174,-0.589 0.222,-0.612C0.269,-0.635 0.317,-0.646 0.366,-0.646C0.416,-0.646 0.466,-0.634 0.516,-0.61C0.565,-0.586 0.607,-0.549 0.64,-0.5C0.673,-0.45 0.69,-0.389 0.69,-0.318C0.69,-0.257 0.676,-0.201 0.647,-0.151C0.618,-0.101 0.579,-0.062 0.53,-0.033C0.481,-0.004 0.429,0.01 0.372,0.01ZM0.088,-0.319C0.088,-0.264 0.101,-0.214 0.127,-0.169C0.153,-0.123 0.188,-0.087 0.232,-0.061C0.275,-0.034 0.322,-0.021 0.372,-0.021C0.423,-0.021 0.47,-0.034 0.514,-0.061C0.557,-0.087 0.592,-0.123 0.618,-0.169C0.644,-0.214 0.657,-0.264 0.657,-0.319C0.657,-0.385 0.642,-0.44 0.612,-0.485C0.582,-0.529 0.545,-0.562 0.5,-0.583C0.454,-0.604 0.41,-0.614 0.366,-0.614C0.32,-0.614 0.276,-0.604 0.234,-0.583C0.191,-0.562 0.156,-0.529 0.129,-0.485C0.102,-0.44 0.088,-0.385 0.088,-0.319Z" style="fill:rgb(250,167,25);fill-rule:nonzero;"/>
            </g>
        </g>
        <g transform="matrix(4.16667,0,0,4.16667,-128.078,213.804)">
            <g transform="matrix(1,0,0,1,14.0809,-4.33931)">
                <g transform="matrix(24,0,0,24,163.144,677.72)">
                    <path d="M0.632,-0.615C0.641,-0.629 0.652,-0.636 0.667,-0.636C0.676,-0.636 0.684,-0.632 0.691,-0.626C0.698,-0.619 0.701,-0.609 0.701,-0.597L0.701,-0.036C0.701,-0.025 0.698,-0.016 0.691,-0.01C0.684,-0.003 0.675,-0 0.665,-0C0.655,-0 0.646,-0.003 0.639,-0.01C0.632,-0.016 0.628,-0.025 0.628,-0.036L0.628,-0.476L0.424,-0.157C0.415,-0.143 0.404,-0.136 0.39,-0.136C0.376,-0.136 0.364,-0.143 0.355,-0.157L0.151,-0.474L0.151,-0.036C0.151,-0.025 0.148,-0.016 0.141,-0.01C0.134,-0.003 0.125,-0 0.115,-0C0.105,-0 0.096,-0.003 0.089,-0.01C0.082,-0.016 0.078,-0.025 0.078,-0.036L0.078,-0.596C0.078,-0.608 0.082,-0.618 0.089,-0.625C0.095,-0.632 0.104,-0.636 0.113,-0.636C0.119,-0.636 0.125,-0.634 0.131,-0.631C0.137,-0.627 0.142,-0.621 0.146,-0.614L0.39,-0.235L0.632,-0.615Z" style="fill:rgb(60,66,80);fill-rule:nonzero;"/>
                </g>
                <g transform="matrix(24,0,0,24,187.192,677.72)">
                    <path d="M0.361,0.01C0.3,0.01 0.246,-0.004 0.197,-0.031C0.148,-0.058 0.109,-0.098 0.08,-0.149C0.051,-0.2 0.037,-0.26 0.037,-0.329C0.037,-0.399 0.053,-0.458 0.086,-0.506C0.119,-0.553 0.159,-0.588 0.208,-0.612C0.257,-0.635 0.305,-0.646 0.353,-0.646C0.402,-0.646 0.451,-0.635 0.502,-0.612C0.553,-0.588 0.595,-0.553 0.63,-0.506C0.664,-0.458 0.681,-0.399 0.681,-0.329C0.681,-0.262 0.666,-0.202 0.637,-0.151C0.608,-0.1 0.569,-0.06 0.52,-0.032C0.471,-0.004 0.418,0.01 0.361,0.01ZM0.112,-0.326C0.112,-0.273 0.123,-0.226 0.145,-0.185C0.166,-0.144 0.196,-0.113 0.234,-0.091C0.272,-0.069 0.314,-0.058 0.361,-0.058C0.406,-0.058 0.448,-0.069 0.485,-0.091C0.522,-0.112 0.552,-0.143 0.574,-0.184C0.596,-0.224 0.607,-0.271 0.607,-0.326C0.607,-0.383 0.594,-0.43 0.568,-0.469C0.541,-0.507 0.509,-0.535 0.47,-0.553C0.431,-0.57 0.393,-0.579 0.355,-0.579C0.317,-0.579 0.28,-0.571 0.243,-0.554C0.206,-0.537 0.174,-0.509 0.15,-0.471C0.125,-0.433 0.112,-0.385 0.112,-0.326Z" style="fill:rgb(60,66,80);fill-rule:nonzero;"/>
                </g>
                <g transform="matrix(24,0,0,24,209.872,677.72)">
                    <path d="M0.085,-0C0.072,-0 0.062,-0.004 0.053,-0.013C0.044,-0.022 0.039,-0.032 0.039,-0.043L0.039,-0.594C0.039,-0.605 0.044,-0.615 0.053,-0.624C0.062,-0.632 0.072,-0.636 0.085,-0.636L0.303,-0.636C0.366,-0.636 0.421,-0.621 0.466,-0.591C0.511,-0.561 0.544,-0.522 0.567,-0.473C0.59,-0.424 0.601,-0.373 0.601,-0.318C0.601,-0.263 0.59,-0.212 0.567,-0.163C0.544,-0.114 0.511,-0.075 0.466,-0.045C0.421,-0.015 0.366,-0 0.303,-0L0.085,-0ZM0.303,-0.065C0.351,-0.065 0.392,-0.077 0.426,-0.101C0.459,-0.125 0.485,-0.156 0.502,-0.195C0.519,-0.234 0.528,-0.275 0.528,-0.318C0.528,-0.361 0.519,-0.403 0.502,-0.442C0.485,-0.481 0.459,-0.512 0.426,-0.536C0.392,-0.56 0.351,-0.572 0.303,-0.572L0.111,-0.572L0.111,-0.065L0.303,-0.065Z" style="fill:rgb(60,66,80);fill-rule:nonzero;"/>
                </g>
                <g transform="matrix(24,0,0,24,230.44,677.72)">
                    <path d="M0.589,-0.609C0.589,-0.621 0.593,-0.63 0.6,-0.637C0.607,-0.643 0.616,-0.646 0.627,-0.646C0.637,-0.646 0.646,-0.643 0.653,-0.637C0.66,-0.63 0.664,-0.621 0.664,-0.61L0.664,-0.279C0.664,-0.218 0.65,-0.165 0.622,-0.122C0.594,-0.078 0.558,-0.045 0.513,-0.023C0.467,-0.001 0.42,0.01 0.369,0.01C0.318,0.01 0.271,-0.001 0.226,-0.023C0.181,-0.045 0.144,-0.078 0.116,-0.122C0.088,-0.165 0.074,-0.218 0.074,-0.279L0.074,-0.613C0.074,-0.624 0.078,-0.632 0.085,-0.638C0.092,-0.643 0.101,-0.646 0.111,-0.646C0.122,-0.646 0.131,-0.643 0.138,-0.637C0.145,-0.631 0.149,-0.623 0.149,-0.612L0.149,-0.279C0.149,-0.233 0.159,-0.194 0.18,-0.161C0.201,-0.128 0.228,-0.104 0.262,-0.087C0.295,-0.07 0.331,-0.062 0.369,-0.062C0.407,-0.062 0.443,-0.07 0.477,-0.087C0.51,-0.104 0.537,-0.128 0.558,-0.161C0.579,-0.194 0.589,-0.233 0.589,-0.279L0.589,-0.609Z" style="fill:rgb(60,66,80);fill-rule:nonzero;"/>
                </g>
                <g transform="matrix(24,0,0,24,253.456,677.72)">
                    <path d="M0.114,-0C0.089,-0 0.076,-0.012 0.076,-0.037L0.076,-0.601C0.076,-0.612 0.08,-0.621 0.087,-0.627C0.094,-0.633 0.103,-0.636 0.113,-0.636C0.123,-0.636 0.132,-0.633 0.139,-0.627C0.146,-0.621 0.15,-0.612 0.15,-0.601L0.15,-0.066L0.524,-0.066C0.536,-0.066 0.545,-0.063 0.552,-0.057C0.559,-0.05 0.562,-0.042 0.562,-0.033C0.562,-0.024 0.559,-0.017 0.552,-0.01C0.545,-0.003 0.536,-0 0.524,-0L0.114,-0Z" style="fill:rgb(60,66,80);fill-rule:nonzero;"/>
                </g>
                <g transform="matrix(24,0,0,24,273.328,677.72)">
                    <path d="M0.337,-0.646C0.352,-0.646 0.362,-0.64 0.369,-0.627L0.664,-0.048C0.667,-0.043 0.668,-0.037 0.668,-0.032C0.668,-0.023 0.664,-0.015 0.657,-0.009C0.65,-0.003 0.641,-0 0.63,-0C0.615,-0 0.604,-0.006 0.597,-0.019L0.525,-0.161L0.149,-0.161L0.075,-0.018C0.068,-0.006 0.058,-0 0.045,-0C0.035,-0 0.026,-0.003 0.018,-0.01C0.01,-0.017 0.006,-0.025 0.006,-0.034C0.006,-0.038 0.007,-0.042 0.009,-0.047L0.304,-0.627C0.307,-0.633 0.311,-0.638 0.318,-0.641C0.324,-0.644 0.33,-0.646 0.337,-0.646ZM0.179,-0.224L0.494,-0.224L0.337,-0.539L0.179,-0.224Z" style="fill:rgb(60,66,80);fill-rule:nonzero;"/>
                </g>
                <g transform="matrix(24,0,0,24,294.856,677.72)">
                    <path d="M0.149,-0.035C0.149,-0.024 0.145,-0.016 0.138,-0.01C0.131,-0.003 0.122,-0 0.112,-0C0.103,-0 0.094,-0.003 0.087,-0.009C0.08,-0.015 0.076,-0.023 0.076,-0.034L0.076,-0.601C0.076,-0.612 0.079,-0.62 0.086,-0.627C0.093,-0.633 0.102,-0.636 0.113,-0.636L0.35,-0.636C0.406,-0.636 0.454,-0.627 0.493,-0.608C0.532,-0.588 0.561,-0.563 0.581,-0.53C0.601,-0.497 0.611,-0.461 0.611,-0.421C0.611,-0.369 0.596,-0.326 0.567,-0.292C0.538,-0.258 0.493,-0.236 0.433,-0.226L0.586,-0.061C0.595,-0.052 0.599,-0.043 0.599,-0.034C0.599,-0.025 0.595,-0.017 0.588,-0.01C0.581,-0.003 0.572,-0 0.563,-0C0.553,-0 0.544,-0.004 0.536,-0.013L0.343,-0.222L0.149,-0.222L0.149,-0.035ZM0.351,-0.285C0.412,-0.285 0.459,-0.297 0.49,-0.322C0.521,-0.347 0.537,-0.378 0.537,-0.417C0.536,-0.461 0.519,-0.497 0.486,-0.526C0.453,-0.555 0.408,-0.569 0.351,-0.569L0.149,-0.569L0.149,-0.285L0.351,-0.285Z" style="fill:rgb(60,66,80);fill-rule:nonzero;"/>
                </g>
                <g transform="matrix(24,0,0,24,326.776,677.72)">
                    <path d="M0.37,-0.646C0.465,-0.646 0.543,-0.613 0.605,-0.547C0.611,-0.54 0.614,-0.533 0.614,-0.525C0.614,-0.516 0.61,-0.509 0.603,-0.502C0.595,-0.495 0.586,-0.491 0.577,-0.491C0.569,-0.491 0.561,-0.495 0.554,-0.502C0.528,-0.529 0.5,-0.549 0.47,-0.561C0.44,-0.572 0.407,-0.578 0.372,-0.578C0.331,-0.578 0.291,-0.57 0.252,-0.555C0.213,-0.539 0.18,-0.512 0.153,-0.475C0.126,-0.437 0.113,-0.387 0.113,-0.326C0.113,-0.277 0.125,-0.232 0.148,-0.191C0.17,-0.15 0.201,-0.118 0.24,-0.095C0.279,-0.071 0.321,-0.059 0.366,-0.059C0.405,-0.059 0.441,-0.067 0.476,-0.084C0.51,-0.101 0.539,-0.124 0.562,-0.154C0.568,-0.163 0.576,-0.167 0.587,-0.167C0.596,-0.167 0.605,-0.164 0.613,-0.157C0.621,-0.15 0.625,-0.142 0.625,-0.133C0.625,-0.126 0.623,-0.12 0.619,-0.114C0.592,-0.076 0.555,-0.046 0.508,-0.024C0.461,-0.001 0.413,0.01 0.364,0.01C0.307,0.01 0.254,-0.005 0.205,-0.034C0.156,-0.063 0.116,-0.103 0.087,-0.155C0.057,-0.206 0.042,-0.264 0.042,-0.327C0.042,-0.398 0.059,-0.458 0.094,-0.506C0.128,-0.554 0.17,-0.589 0.221,-0.612C0.271,-0.635 0.321,-0.646 0.37,-0.646Z" style="fill:rgb(60,66,80);fill-rule:nonzero;"/>
                </g>
                <g transform="matrix(24,0,0,24,347.584,677.72)">
                    <path d="M0.114,-0C0.089,-0 0.076,-0.012 0.076,-0.037L0.076,-0.601C0.076,-0.612 0.08,-0.621 0.087,-0.627C0.094,-0.633 0.103,-0.636 0.113,-0.636C0.123,-0.636 0.132,-0.633 0.139,-0.627C0.146,-0.621 0.15,-0.612 0.15,-0.601L0.15,-0.066L0.524,-0.066C0.536,-0.066 0.545,-0.063 0.552,-0.057C0.559,-0.05 0.562,-0.042 0.562,-0.033C0.562,-0.024 0.559,-0.017 0.552,-0.01C0.545,-0.003 0.536,-0 0.524,-0L0.114,-0Z" style="fill:rgb(60,66,80);fill-rule:nonzero;"/>
                </g>
                <g transform="matrix(24,0,0,24,365.224,677.72)">
                    <path d="M0.361,0.01C0.3,0.01 0.246,-0.004 0.197,-0.031C0.148,-0.058 0.109,-0.098 0.08,-0.149C0.051,-0.2 0.037,-0.26 0.037,-0.329C0.037,-0.399 0.053,-0.458 0.086,-0.506C0.119,-0.553 0.159,-0.588 0.208,-0.612C0.257,-0.635 0.305,-0.646 0.353,-0.646C0.402,-0.646 0.451,-0.635 0.502,-0.612C0.553,-0.588 0.595,-0.553 0.63,-0.506C0.664,-0.458 0.681,-0.399 0.681,-0.329C0.681,-0.262 0.666,-0.202 0.637,-0.151C0.608,-0.1 0.569,-0.06 0.52,-0.032C0.471,-0.004 0.418,0.01 0.361,0.01ZM0.112,-0.326C0.112,-0.273 0.123,-0.226 0.145,-0.185C0.166,-0.144 0.196,-0.113 0.234,-0.091C0.272,-0.069 0.314,-0.058 0.361,-0.058C0.406,-0.058 0.448,-0.069 0.485,-0.091C0.522,-0.112 0.552,-0.143 0.574,-0.184C0.596,-0.224 0.607,-0.271 0.607,-0.326C0.607,-0.383 0.594,-0.43 0.568,-0.469C0.541,-0.507 0.509,-0.535 0.47,-0.553C0.431,-0.57 0.393,-0.579 0.355,-0.579C0.317,-0.579 0.28,-0.571 0.243,-0.554C0.206,-0.537 0.174,-0.509 0.15,-0.471C0.125,-0.433 0.112,-0.385 0.112,-0.326Z" style="fill:rgb(60,66,80);fill-rule:nonzero;"/>
                </g>
                <g transform="matrix(24,0,0,24,387.904,677.72)">
                    <path d="M0.589,-0.609C0.589,-0.621 0.593,-0.63 0.6,-0.637C0.607,-0.643 0.616,-0.646 0.627,-0.646C0.637,-0.646 0.646,-0.643 0.653,-0.637C0.66,-0.63 0.664,-0.621 0.664,-0.61L0.664,-0.279C0.664,-0.218 0.65,-0.165 0.622,-0.122C0.594,-0.078 0.558,-0.045 0.513,-0.023C0.467,-0.001 0.42,0.01 0.369,0.01C0.318,0.01 0.271,-0.001 0.226,-0.023C0.181,-0.045 0.144,-0.078 0.116,-0.122C0.088,-0.165 0.074,-0.218 0.074,-0.279L0.074,-0.613C0.074,-0.624 0.078,-0.632 0.085,-0.638C0.092,-0.643 0.101,-0.646 0.111,-0.646C0.122,-0.646 0.131,-0.643 0.138,-0.637C0.145,-0.631 0.149,-0.623 0.149,-0.612L0.149,-0.279C0.149,-0.233 0.159,-0.194 0.18,-0.161C0.201,-0.128 0.228,-0.104 0.262,-0.087C0.295,-0.07 0.331,-0.062 0.369,-0.062C0.407,-0.062 0.443,-0.07 0.477,-0.087C0.51,-0.104 0.537,-0.128 0.558,-0.161C0.579,-0.194 0.589,-0.233 0.589,-0.279L0.589,-0.609Z" style="fill:rgb(60,66,80);fill-rule:nonzero;"/>
                </g>
                <g transform="matrix(24,0,0,24,410.92,677.72)">
                    <path d="M0.085,-0C0.072,-0 0.062,-0.004 0.053,-0.013C0.044,-0.022 0.039,-0.032 0.039,-0.043L0.039,-0.594C0.039,-0.605 0.044,-0.615 0.053,-0.624C0.062,-0.632 0.072,-0.636 0.085,-0.636L0.303,-0.636C0.366,-0.636 0.421,-0.621 0.466,-0.591C0.511,-0.561 0.544,-0.522 0.567,-0.473C0.59,-0.424 0.601,-0.373 0.601,-0.318C0.601,-0.263 0.59,-0.212 0.567,-0.163C0.544,-0.114 0.511,-0.075 0.466,-0.045C0.421,-0.015 0.366,-0 0.303,-0L0.085,-0ZM0.303,-0.065C0.351,-0.065 0.392,-0.077 0.426,-0.101C0.459,-0.125 0.485,-0.156 0.502,-0.195C0.519,-0.234 0.528,-0.275 0.528,-0.318C0.528,-0.361 0.519,-0.403 0.502,-0.442C0.485,-0.481 0.459,-0.512 0.426,-0.536C0.392,-0.56 0.351,-0.572 0.303,-0.572L0.111,-0.572L0.111,-0.065L0.303,-0.065Z" style="fill:rgb(60,66,80);fill-rule:nonzero;"/>
                </g>
            </g>
        </g>
        <g transform="matrix(4.16667,0,0,4.16667,-128.078,213.804)">
            <g transform="matrix(0.24,0,0,0.24,36.5859,-57.8186)">
                <g transform="matrix(125,0,0,125,2198.31,732.283)">
                    <path d="M0.37,-0.728C0.432,-0.728 0.492,-0.712 0.551,-0.68C0.61,-0.649 0.656,-0.603 0.689,-0.544C0.722,-0.485 0.738,-0.424 0.738,-0.359C0.738,-0.296 0.722,-0.235 0.69,-0.176C0.657,-0.118 0.612,-0.072 0.553,-0.04C0.495,-0.007 0.434,0.009 0.37,0.009C0.306,0.009 0.245,-0.007 0.187,-0.04C0.128,-0.072 0.083,-0.118 0.05,-0.176C0.018,-0.235 0.001,-0.296 0.001,-0.359C0.001,-0.424 0.018,-0.485 0.051,-0.544C0.084,-0.603 0.13,-0.649 0.189,-0.68C0.248,-0.712 0.308,-0.728 0.37,-0.728ZM0.37,-0.667C0.318,-0.667 0.268,-0.654 0.219,-0.627C0.17,-0.601 0.132,-0.563 0.104,-0.513C0.076,-0.464 0.063,-0.413 0.063,-0.359C0.063,-0.306 0.076,-0.255 0.103,-0.207C0.13,-0.158 0.168,-0.12 0.217,-0.093C0.266,-0.066 0.317,-0.052 0.37,-0.052C0.423,-0.052 0.474,-0.066 0.523,-0.093C0.572,-0.12 0.61,-0.158 0.637,-0.207C0.664,-0.255 0.677,-0.306 0.677,-0.359C0.677,-0.413 0.663,-0.464 0.636,-0.513C0.608,-0.563 0.57,-0.601 0.521,-0.627C0.472,-0.654 0.422,-0.667 0.37,-0.667ZM0.208,-0.156L0.208,-0.552L0.345,-0.552C0.391,-0.552 0.425,-0.549 0.446,-0.541C0.467,-0.534 0.483,-0.521 0.496,-0.503C0.508,-0.485 0.514,-0.465 0.514,-0.445C0.514,-0.416 0.504,-0.391 0.483,-0.369C0.462,-0.348 0.435,-0.336 0.401,-0.333C0.415,-0.327 0.426,-0.32 0.435,-0.312C0.451,-0.296 0.47,-0.27 0.493,-0.233L0.542,-0.156L0.463,-0.156L0.428,-0.218C0.401,-0.267 0.378,-0.298 0.361,-0.311C0.35,-0.32 0.333,-0.324 0.31,-0.324L0.272,-0.324L0.272,-0.156L0.208,-0.156ZM0.272,-0.379L0.35,-0.379C0.387,-0.379 0.413,-0.384 0.426,-0.396C0.44,-0.407 0.446,-0.421 0.446,-0.439C0.446,-0.451 0.443,-0.462 0.437,-0.471C0.43,-0.48 0.421,-0.487 0.409,-0.492C0.398,-0.496 0.376,-0.499 0.345,-0.499L0.272,-0.499L0.272,-0.379Z" style="fill:rgb(60,66,80);fill-rule:nonzero;"/>
                </g>
            </g>
        </g>
        <g transform="matrix(4.16667,0,0,4.16667,-159.493,240.426)">
            <g transform="matrix(1,0,0,1,-542.097,-49.8496)">
                <g>
                    <g transform="matrix(0.275294,0,0,0.275294,500.84,11.7884)">
                        <circle cx="1370.08" cy="1086.61" r="803.15"/>
                    </g>
                    <g transform="matrix(0.24,0,0,0.24,587.528,-7.85265)">
                        <path d="M1210.36,455.184L1210.36,2415.38L1210.35,2415.38L239.017,1950.07L239.017,706.425L239.023,706.422L239.023,827.917L1210.36,455.184Z" style="fill:rgb(14,17,25);"/>
                    </g>
                    <g transform="matrix(0.24,0,0,0.24,38.2782,-57.7022)">
                        <path d="M3498.9,662.895L4470.22,1035.62L4470.22,2157.78L3498.9,2623.08L3498.9,662.895Z" style="fill:rgb(60,66,80);"/>
                    </g>
                </g>
                <g>
                    <g transform="matrix(-0.238309,0,0,0.24,1166.45,-7.79179)">
                        <path d="M1198.46,2205.59L1210.35,2415.38L2188.58,1950.17L2188.58,1828.33L1198.46,2205.59Z" style="fill:rgb(255,166,1);"/>
                    </g>
                    <g transform="matrix(-0.238309,0,0,-0.24,1166.45,629.646)">
                        <path d="M2188.58,1949.82L1210.36,2415.13L1210.35,2415.12L1180.62,2212.39L2188.58,1828.33L2188.58,1949.82Z" style="fill:rgb(255,166,1);"/>
                    </g>
                    <g transform="matrix(-0.238305,0,0,0.24,1166.44,-8.72225)">
                        <path d="M1210.35,1232.65C1175.31,1299.95 1179.19,1365.97 1210.35,1431.09L2188.58,1388.55L2188.58,1275.2L1210.35,1232.65Z" style="fill:rgb(255,166,1);"/>
                    </g>
                </g>
                <g>
                    <g transform="matrix(0.238309,0,0,0.24,589.573,-7.79179)">
                        <path d="M1210.35,2201.06L1210.35,2415.38L2188.58,1950.17L2188.58,1828.33L1210.35,2201.06Z" style="fill:rgb(255,212,100);"/>
                    </g>
                    <g transform="matrix(0.238309,0,0,-0.24,589.575,629.646)">
                        <path d="M1210.34,2201.05L1210.36,2415.12L2188.57,1949.82L2188.57,1828.33L1210.34,2201.05Z" style="fill:rgb(255,212,100);"/>
                    </g>
                    <g transform="matrix(0.238305,0,0,0.24,589.584,-8.72225)">
                        <path d="M1210.35,1232.65L1210.35,1431.09L2188.58,1388.55L2188.58,1275.2L1210.35,1232.65Z" style="fill:rgb(255,212,100);"/>
                    </g>
                </g>
            </g>
        </g>
    </g>
</svg>
