<?xml version="1.0" encoding="UTF-8" standalone="no"?>
<!DOCTYPE svg PUBLIC "-//W3C//DTD SVG 1.1//EN" "http://www.w3.org/Graphics/SVG/1.1/DTD/svg11.dtd">
<svg width="100%" height="100%" viewBox="0 0 1123 213" version="1.1" xmlns="http://www.w3.org/2000/svg" xmlns:xlink="http://www.w3.org/1999/xlink" xml:space="preserve" xmlns:serif="http://www.serif.com/" style="fill-rule:evenodd;clip-rule:evenodd;stroke-linejoin:round;stroke-miterlimit:2;">
    <g transform="matrix(1,0,0,1,-1350.34,-1039.88)">
        <g transform="matrix(0.489147,0,0,0.489147,1160.17,570.993)">
            <g transform="matrix(0.596225,0,0,0.596225,-449.929,344.674)">
                <clipPath id="_clip1">
                    <path d="M2278.35,830.284L1254.32,830.284L1254.32,1925.83L2278.35,1925.83L2278.35,830.284ZM1452.31,1203.67L1750.88,1060.65L2049.45,1203.68L2049.45,1586.06L1750.81,1729.03L1452.3,1586.06L1452.31,1203.67Z"/>
                </clipPath>
                <g clip-path="url(#_clip1)">
                    <path d="M1750.81,1029.66C1825.07,1029.66 2029.93,1147.94 2067.06,1212.25C2104.18,1276.55 2104.18,1513.11 2067.06,1577.41C2029.93,1641.72 1825.07,1760 1750.81,1760C1676.55,1760 1471.69,1641.72 1434.56,1577.41C1397.44,1513.11 1397.44,1276.55 1434.56,1212.25C1471.69,1147.94 1676.55,1029.66 1750.81,1029.66Z"/>
                </g>
            </g>
            <g transform="matrix(1.01895,0,0,1.14698,-89.7492,-243.009)">
                <g transform="matrix(506.495,0,0,506.495,886.81,1408)">
                    <path d="M0.125,-0.017C0.125,-0.012 0.123,-0.008 0.12,-0.005C0.117,-0.002 0.113,-0 0.108,-0C0.104,-0 0.1,-0.002 0.097,-0.005C0.094,-0.008 0.092,-0.011 0.092,-0.016L0.092,-0.619C0.092,-0.624 0.094,-0.628 0.097,-0.632C0.1,-0.635 0.104,-0.636 0.109,-0.636L0.361,-0.636C0.416,-0.636 0.462,-0.627 0.501,-0.608C0.539,-0.589 0.568,-0.564 0.587,-0.533C0.606,-0.502 0.616,-0.467 0.616,-0.428C0.616,-0.373 0.598,-0.328 0.561,-0.293C0.524,-0.258 0.469,-0.238 0.398,-0.233L0.598,-0.029C0.602,-0.025 0.604,-0.021 0.604,-0.016C0.604,-0.011 0.603,-0.008 0.6,-0.005C0.596,-0.002 0.593,-0 0.589,-0C0.585,-0 0.581,-0.002 0.577,-0.006L0.359,-0.234L0.125,-0.234L0.125,-0.017ZM0.362,-0.263C0.435,-0.263 0.49,-0.278 0.527,-0.308C0.564,-0.338 0.582,-0.377 0.582,-0.424C0.582,-0.457 0.573,-0.488 0.556,-0.516C0.538,-0.543 0.513,-0.565 0.48,-0.581C0.447,-0.597 0.407,-0.605 0.362,-0.605L0.125,-0.605L0.125,-0.263L0.362,-0.263Z" style="fill-rule:nonzero;"/>
                </g>
                <g transform="matrix(506.495,0,0,506.495,1219.58,1408)">
                    <path d="M0.352,-0.636C0.387,-0.636 0.422,-0.631 0.459,-0.622C0.495,-0.612 0.526,-0.595 0.553,-0.571C0.579,-0.546 0.592,-0.513 0.592,-0.472C0.592,-0.44 0.583,-0.413 0.566,-0.39C0.549,-0.367 0.524,-0.351 0.492,-0.341C0.537,-0.332 0.573,-0.314 0.6,-0.287C0.627,-0.26 0.64,-0.225 0.64,-0.181C0.64,-0.116 0.616,-0.069 0.567,-0.042C0.518,-0.014 0.458,-0 0.386,-0L0.11,-0C0.105,-0 0.101,-0.002 0.098,-0.006C0.094,-0.009 0.092,-0.013 0.092,-0.018L0.092,-0.618C0.092,-0.623 0.094,-0.628 0.098,-0.631C0.101,-0.634 0.105,-0.636 0.11,-0.636L0.352,-0.636ZM0.126,-0.606L0.126,-0.35L0.365,-0.35C0.422,-0.35 0.469,-0.36 0.504,-0.379C0.539,-0.398 0.557,-0.429 0.557,-0.472C0.557,-0.505 0.546,-0.532 0.523,-0.552C0.5,-0.571 0.472,-0.585 0.442,-0.593C0.411,-0.601 0.381,-0.605 0.352,-0.606L0.126,-0.606ZM0.126,-0.318L0.126,-0.03L0.386,-0.03C0.449,-0.03 0.501,-0.041 0.543,-0.064C0.584,-0.086 0.605,-0.125 0.605,-0.181C0.605,-0.228 0.588,-0.262 0.554,-0.285C0.519,-0.307 0.474,-0.318 0.418,-0.318L0.126,-0.318Z" style="fill-rule:nonzero;"/>
                </g>
                <g transform="matrix(506.495,0,0,506.495,1567.54,1408)">
                    <path d="M0.092,-0.617C0.092,-0.623 0.094,-0.628 0.098,-0.631C0.101,-0.634 0.105,-0.636 0.11,-0.636C0.115,-0.636 0.119,-0.634 0.123,-0.631C0.126,-0.628 0.128,-0.623 0.128,-0.617L0.128,-0.017C0.128,-0.012 0.126,-0.008 0.123,-0.005C0.119,-0.002 0.115,-0 0.11,-0C0.105,-0 0.101,-0.002 0.098,-0.005C0.094,-0.008 0.092,-0.012 0.092,-0.017L0.092,-0.617Z" style="fill-rule:nonzero;"/>
                </g>
                <g transform="matrix(506.495,0,0,506.495,1678.97,1408)">
                    <path d="M0.567,-0.636C0.573,-0.636 0.578,-0.635 0.581,-0.632C0.584,-0.628 0.585,-0.625 0.585,-0.621C0.585,-0.617 0.583,-0.614 0.58,-0.611C0.577,-0.608 0.572,-0.606 0.567,-0.606L0.308,-0.606L0.309,-0.019C0.309,-0.013 0.307,-0.008 0.304,-0.005C0.3,-0.002 0.296,-0 0.291,-0C0.286,-0 0.282,-0.002 0.279,-0.005C0.276,-0.008 0.274,-0.013 0.274,-0.019L0.274,-0.606L0.016,-0.606C0.011,-0.606 0.006,-0.608 0.003,-0.611C-0,-0.614 -0.002,-0.617 -0.002,-0.621C-0.002,-0.625 -0.001,-0.628 0.003,-0.632C0.006,-0.635 0.01,-0.636 0.016,-0.636L0.567,-0.636Z" style="fill-rule:nonzero;"/>
                </g>
                <g transform="matrix(506.495,0,0,506.495,1930.19,1408)">
                    <path d="M0.347,-0.654C0.354,-0.654 0.358,-0.651 0.361,-0.645L0.68,-0.018C0.681,-0.016 0.682,-0.013 0.682,-0.009C0.682,-0.004 0.68,-0.001 0.677,0.003C0.674,0.006 0.67,0.007 0.665,0.007C0.659,0.007 0.654,0.004 0.651,-0.002L0.562,-0.179L0.132,-0.179L0.043,-0.002C0.04,0.004 0.036,0.007 0.029,0.007C0.024,0.007 0.02,0.006 0.017,0.003C0.014,-0.001 0.012,-0.004 0.012,-0.009C0.012,-0.013 0.013,-0.016 0.014,-0.018L0.332,-0.645C0.335,-0.651 0.34,-0.654 0.347,-0.654ZM0.147,-0.209L0.546,-0.209L0.347,-0.605L0.147,-0.209Z" style="fill-rule:nonzero;"/>
                </g>
                <g transform="matrix(506.495,0,0,506.495,2283.22,1408)">
                    <path d="M0.111,-0C0.099,-0 0.093,-0.006 0.093,-0.019L0.093,-0.617C0.093,-0.623 0.095,-0.628 0.098,-0.631C0.101,-0.634 0.105,-0.636 0.11,-0.636C0.115,-0.636 0.119,-0.634 0.122,-0.631C0.125,-0.628 0.127,-0.623 0.127,-0.617L0.127,-0.031L0.547,-0.031C0.552,-0.031 0.557,-0.029 0.56,-0.027C0.563,-0.023 0.564,-0.02 0.564,-0.016C0.564,-0.012 0.563,-0.008 0.56,-0.005C0.557,-0.002 0.552,-0 0.547,-0L0.111,-0Z" style="fill-rule:nonzero;"/>
                </g>
                <g transform="matrix(295.287,0,0,295.287,2569.89,1239.34)">
                    <path d="M0.184,-0.031L0.499,-0.031C0.504,-0.031 0.509,-0.029 0.512,-0.027C0.515,-0.023 0.517,-0.02 0.517,-0.016C0.517,-0.012 0.516,-0.008 0.513,-0.005C0.509,-0.002 0.505,-0 0.499,-0L0.076,-0C0.067,-0 0.06,-0.005 0.057,-0.014L0.056,-0.019C0.056,-0.026 0.059,-0.032 0.065,-0.036C0.102,-0.063 0.159,-0.106 0.235,-0.165L0.384,-0.278C0.442,-0.32 0.471,-0.372 0.471,-0.435C0.471,-0.493 0.454,-0.537 0.419,-0.568C0.384,-0.598 0.339,-0.613 0.284,-0.613C0.233,-0.613 0.191,-0.6 0.158,-0.575C0.124,-0.55 0.104,-0.513 0.097,-0.464C0.096,-0.453 0.095,-0.444 0.095,-0.437C0.095,-0.433 0.093,-0.43 0.091,-0.428C0.088,-0.426 0.084,-0.425 0.08,-0.425C0.076,-0.425 0.073,-0.426 0.07,-0.428C0.067,-0.43 0.065,-0.433 0.065,-0.437C0.065,-0.445 0.066,-0.456 0.067,-0.469C0.075,-0.526 0.099,-0.57 0.138,-0.601C0.177,-0.631 0.226,-0.646 0.285,-0.646C0.342,-0.646 0.39,-0.631 0.43,-0.6C0.469,-0.569 0.493,-0.525 0.501,-0.469C0.503,-0.457 0.504,-0.445 0.504,-0.434C0.504,-0.367 0.471,-0.308 0.406,-0.257L0.169,-0.073L0.096,-0.027L0.184,-0.031Z" style="fill-rule:nonzero;"/>
                </g>
            </g>
        </g>
    </g>
</svg>
