<?xml version="1.0" encoding="UTF-8" standalone="no"?>
<!DOCTYPE svg PUBLIC "-//W3C//DTD SVG 1.1//EN" "http://www.w3.org/Graphics/SVG/1.1/DTD/svg11.dtd">
<svg width="100%" height="100%" viewBox="0 0 285 213" version="1.1" xmlns="http://www.w3.org/2000/svg" xmlns:xlink="http://www.w3.org/1999/xlink" xml:space="preserve" xmlns:serif="http://www.serif.com/" style="fill-rule:evenodd;clip-rule:evenodd;stroke-linejoin:round;stroke-miterlimit:2;">
    <g transform="matrix(1,0,0,1,-596.536,-1038.97)">
        <g transform="matrix(0.489147,0,0,0.489147,406.757,570.993)">
            <g transform="matrix(0.596225,0,0,0.596225,-450.741,342.814)">
                <clipPath id="_clip1">
                    <path d="M2278.35,830.284L1254.32,830.284L1254.32,1925.83L2278.35,1925.83L2278.35,830.284ZM1452.31,1203.67L1750.88,1060.65L2049.45,1203.68L2049.45,1586.06L1750.81,1729.03L1452.3,1586.06L1452.31,1203.67Z"/>
                </clipPath>
                <g clip-path="url(#_clip1)">
                    <path d="M1750.81,1029.66C1825.07,1029.66 2029.93,1147.94 2067.06,1212.25C2104.18,1276.55 2104.18,1513.11 2067.06,1577.41C2029.93,1641.72 1825.07,1760 1750.81,1760C1676.55,1760 1471.69,1641.72 1434.56,1577.41C1397.44,1513.11 1397.44,1276.55 1434.56,1212.25C1471.69,1147.94 1676.55,1029.66 1750.81,1029.66Z"/>
                </g>
            </g>
            <g transform="matrix(1.01895,0,0,1.14698,-89.7492,-243.009)">
                <g transform="matrix(295.287,0,0,295.287,886.81,1239.34)">
                    <path d="M0.184,-0.031L0.499,-0.031C0.504,-0.031 0.509,-0.029 0.512,-0.027C0.515,-0.023 0.517,-0.02 0.517,-0.016C0.517,-0.012 0.516,-0.008 0.513,-0.005C0.509,-0.002 0.505,-0 0.499,-0L0.076,-0C0.067,-0 0.06,-0.005 0.057,-0.014L0.056,-0.019C0.056,-0.026 0.059,-0.032 0.065,-0.036C0.102,-0.063 0.159,-0.106 0.235,-0.165L0.384,-0.278C0.442,-0.32 0.471,-0.372 0.471,-0.435C0.471,-0.493 0.454,-0.537 0.419,-0.568C0.384,-0.598 0.339,-0.613 0.284,-0.613C0.233,-0.613 0.191,-0.6 0.158,-0.575C0.124,-0.55 0.104,-0.513 0.097,-0.464C0.096,-0.453 0.095,-0.444 0.095,-0.437C0.095,-0.433 0.093,-0.43 0.091,-0.428C0.088,-0.426 0.084,-0.425 0.08,-0.425C0.076,-0.425 0.073,-0.426 0.07,-0.428C0.067,-0.43 0.065,-0.433 0.065,-0.437C0.065,-0.445 0.066,-0.456 0.067,-0.469C0.075,-0.526 0.099,-0.57 0.138,-0.601C0.177,-0.631 0.226,-0.646 0.285,-0.646C0.342,-0.646 0.39,-0.631 0.43,-0.6C0.469,-0.569 0.493,-0.525 0.501,-0.469C0.503,-0.457 0.504,-0.445 0.504,-0.434C0.504,-0.367 0.471,-0.308 0.406,-0.257L0.169,-0.073L0.096,-0.027L0.184,-0.031Z" style="fill-rule:nonzero;"/>
                </g>
            </g>
        </g>
    </g>
</svg>
