<?xml version="1.0" encoding="UTF-8" standalone="no"?>
<!DOCTYPE svg PUBLIC "-//W3C//DTD SVG 1.1//EN" "http://www.w3.org/Graphics/SVG/1.1/DTD/svg11.dtd">
<svg width="100%" height="100%" viewBox="0 0 283 213" version="1.1" xmlns="http://www.w3.org/2000/svg" xmlns:xlink="http://www.w3.org/1999/xlink" xml:space="preserve" xmlns:serif="http://www.serif.com/" style="fill-rule:evenodd;clip-rule:evenodd;stroke-linejoin:round;stroke-miterlimit:2;">
    <g transform="matrix(1,0,0,1,-596.536,-1403.4)">
        <g transform="matrix(0.489147,0,0,0.489147,406.757,935.419)">
            <g transform="matrix(0.596225,0,0,0.596225,-450.741,342.814)">
                <clipPath id="_clip1">
                    <path d="M2278.35,830.284L1254.32,830.284L1254.32,1925.83L2278.35,1925.83L2278.35,830.284ZM1452.31,1203.67L1750.88,1060.65L2049.45,1203.68L2049.45,1586.06L1750.81,1729.03L1452.3,1586.06L1452.31,1203.67Z"/>
                </clipPath>
                <g clip-path="url(#_clip1)">
                    <path d="M1750.81,1029.66C1825.07,1029.66 2029.93,1147.94 2067.06,1212.25C2104.18,1276.55 2104.18,1513.11 2067.06,1577.41C2029.93,1641.72 1825.07,1760 1750.81,1760C1676.55,1760 1471.69,1641.72 1434.56,1577.41C1397.44,1513.11 1397.44,1276.55 1434.56,1212.25C1471.69,1147.94 1676.55,1029.66 1750.81,1029.66Z"/>
                </g>
            </g>
            <g transform="matrix(1.01895,0,0,1.14698,-89.7492,-243.009)">
                <g transform="matrix(295.287,0,0,295.287,886.81,1239.34)">
                    <path d="M0.081,-0.177C0.088,-0.123 0.109,-0.084 0.145,-0.059C0.181,-0.034 0.227,-0.021 0.283,-0.021C0.332,-0.021 0.374,-0.035 0.408,-0.064C0.442,-0.092 0.462,-0.131 0.469,-0.181C0.47,-0.193 0.471,-0.202 0.471,-0.209C0.471,-0.245 0.462,-0.278 0.444,-0.309C0.426,-0.339 0.401,-0.361 0.368,-0.375C0.349,-0.383 0.328,-0.387 0.307,-0.387C0.284,-0.387 0.263,-0.382 0.242,-0.373C0.239,-0.371 0.235,-0.37 0.232,-0.37C0.227,-0.37 0.223,-0.372 0.22,-0.376C0.216,-0.379 0.214,-0.383 0.214,-0.388C0.214,-0.395 0.216,-0.4 0.22,-0.403L0.438,-0.604L0.085,-0.604C0.08,-0.604 0.076,-0.606 0.073,-0.609C0.07,-0.612 0.069,-0.615 0.069,-0.62C0.069,-0.625 0.07,-0.628 0.073,-0.632C0.076,-0.635 0.08,-0.636 0.085,-0.636L0.468,-0.636C0.474,-0.636 0.479,-0.634 0.483,-0.63C0.486,-0.626 0.488,-0.621 0.488,-0.615C0.488,-0.608 0.485,-0.602 0.48,-0.599L0.34,-0.469L0.266,-0.409C0.281,-0.414 0.3,-0.417 0.321,-0.417C0.344,-0.417 0.364,-0.414 0.382,-0.407C0.421,-0.392 0.45,-0.367 0.471,-0.332C0.492,-0.297 0.502,-0.258 0.502,-0.215C0.502,-0.202 0.501,-0.188 0.499,-0.174C0.491,-0.117 0.467,-0.073 0.428,-0.04C0.388,-0.007 0.34,0.01 0.283,0.01C0.144,0.01 0.067,-0.05 0.05,-0.17C0.049,-0.185 0.048,-0.195 0.048,-0.202C0.048,-0.206 0.05,-0.209 0.053,-0.212C0.056,-0.215 0.06,-0.216 0.064,-0.216C0.068,-0.216 0.072,-0.215 0.075,-0.212C0.078,-0.209 0.079,-0.206 0.079,-0.202C0.079,-0.191 0.08,-0.182 0.081,-0.177Z" style="fill-rule:nonzero;"/>
                </g>
            </g>
        </g>
    </g>
</svg>
