<?xml version="1.0" encoding="UTF-8" standalone="no"?>
<!DOCTYPE svg PUBLIC "-//W3C//DTD SVG 1.1//EN" "http://www.w3.org/Graphics/SVG/1.1/DTD/svg11.dtd">
<svg width="100%" height="100%" viewBox="0 0 955 1050" version="1.1" xmlns="http://www.w3.org/2000/svg" xmlns:xlink="http://www.w3.org/1999/xlink" xml:space="preserve" xmlns:serif="http://www.serif.com/" style="fill-rule:evenodd;clip-rule:evenodd;stroke-linejoin:round;stroke-miterlimit:2;">
    <g transform="matrix(1,0,0,1,-477.384,-477.423)">
        <g transform="matrix(0.746669,0,0,0.746669,-645.98,-540.642)">
            <g>
                <g>
                    <g id="Full-logo_00000090254559645655329930000013448361227887471246_">
                        <path id="Top_00000173148682498353353530000014349880722853992832_" d="M2103.1,1372.7C2128.9,1360.4 2158.9,1360.4 2184.7,1372.7C2305.1,1430.3 2656.3,1598.4 2756.4,1646.2C2772.8,1654.1 2783.3,1670.6 2783.3,1688.9L2783.3,1814.1C2783.3,1814.1 2340.6,1682.8 2191.9,1638.8C2160.6,1629.5 2127.2,1629.5 2095.9,1638.8C1947.3,1682.9 1504.5,1814.1 1504.5,1814.1L1504.5,1688.9C1504.5,1670.7 1515,1654.1 1531.4,1646.2C1631.5,1598.4 1982.8,1430.3 2103.1,1372.7Z" style="fill:rgb(255,166,0);"/>
                        <path id="Bottom_00000168839507392702214830000002958938589572736400_" d="M2184.8,2760.4C2159,2772.8 2129,2772.8 2103.2,2760.4C1982.8,2702.8 1631.6,2534.7 1531.5,2486.9C1515.1,2479 1504.6,2462.4 1504.6,2444.2L1504.6,2319C1504.6,2319 1947.3,2450.3 2096,2494.3C2127.3,2503.6 2160.7,2503.6 2192,2494.3C2340.6,2450.2 2783.4,2319 2783.4,2319L2783.4,2444.2C2783.4,2462.4 2773,2479 2756.5,2486.9C2656.4,2534.8 2305.1,2702.9 2184.8,2760.4Z" style="fill:rgb(255,166,0);"/>
                        <g id="Mid_00000177465331428292283570000013052340730885229709_" transform="matrix(1.33928,0,0,1.33928,-1996.31,-579.509)">
                            <path d="M2614,2030.6L2614,1921L3091.4,1880.2L3568.8,1921L3568.8,2030.6L3091.4,2071.4L2614,2030.6Z" style="fill:rgb(255,166,0);"/>
                        </g>
                    </g>
                </g>
            </g>
        </g>
    </g>
</svg>
