<?xml version="1.0" encoding="utf-8"?>
<!-- Generator: Adobe Illustrator 27.2.0, SVG Export Plug-In . SVG Version: 6.00 Build 0)  -->
<svg version="1.1" id="Layer_1" xmlns="http://www.w3.org/2000/svg" xmlns:xlink="http://www.w3.org/1999/xlink" x="0px" y="0px"
	 viewBox="0 0 1909.6 2004.8" style="enable-background:new 0 0 1909.6 2004.8;" xml:space="preserve">
<style type="text/css">
	.st0{fill-rule:evenodd;clip-rule:evenodd;}
</style>
<g>
	<g transform="matrix(1,0,0,1,-2136.56,-973.343)">
		<g transform="matrix(0.746669,0,0,0.746669,1490.58,432.701)">
			<g id="Full-logo_00000090254559645655329930000013448361227887471246_">
				<path id="Top_00000173148682498353353530000014349880722853992832_" class="st0" d="M2103.1,1372.7c25.8-12.3,55.8-12.3,81.6,0
					c120.4,57.6,471.6,225.7,571.7,273.5c16.4,7.9,26.9,24.4,26.9,42.7v125.2c0,0-442.7-131.3-591.4-175.3c-31.3-9.3-64.7-9.3-96,0
					c-148.6,44.1-591.4,175.3-591.4,175.3v-125.2c0-18.2,10.5-34.8,26.9-42.7C1631.5,1598.4,1982.8,1430.3,2103.1,1372.7z"/>
				<path id="Bottom_00000168839507392702214830000002958938589572736400_" class="st0" d="M2184.8,2760.4
					c-25.8,12.4-55.8,12.4-81.6,0c-120.4-57.6-471.6-225.7-571.7-273.5c-16.4-7.9-26.9-24.5-26.9-42.7v-125.2
					c0,0,442.7,131.3,591.4,175.3c31.3,9.3,64.7,9.3,96,0c148.6-44.1,591.4-175.3,591.4-175.3v125.2c0,18.2-10.4,34.8-26.9,42.7
					C2656.4,2534.8,2305.1,2702.9,2184.8,2760.4z"/>
				<g id="Mid_00000177465331428292283570000013052340730885229709_" transform="matrix(1.33928,0,0,1.33928,-1996.31,-579.509)">
					<path class="st0" d="M2614,2030.6v-109.6l477.4-40.8l0,0l0,0l0,0l477.4,40.8v109.6l-477.4,40.8L2614,2030.6z"/>
				</g>
			</g>
		</g>
	</g>
</g>
</svg>
