<?xml version="1.0" encoding="UTF-8" standalone="no"?>
<!DOCTYPE svg PUBLIC "-//W3C//DTD SVG 1.1//EN" "http://www.w3.org/Graphics/SVG/1.1/DTD/svg11.dtd">
<svg width="100%" height="100%" viewBox="0 0 919 228" version="1.1" xmlns="http://www.w3.org/2000/svg" xmlns:xlink="http://www.w3.org/1999/xlink" xml:space="preserve" xmlns:serif="http://www.serif.com/" style="fill-rule:evenodd;clip-rule:evenodd;stroke-linejoin:round;stroke-miterlimit:2;">
    <g transform="matrix(0.652373,0,0,0.652373,-72.661,-59.3297)">
        <g transform="matrix(0.98778,0,0,0.98778,-36.5748,-31.1897)">
            <g>
                <g id="Full-logo" serif:id="Full logo" transform="matrix(0.633171,0,0,0.633171,-397.998,-334.816)">
                    <path id="Top" d="M1102.5,727.744C1112.73,722.847 1124.63,722.847 1134.87,727.744C1182.6,750.579 1321.89,817.227 1361.56,836.21C1368.08,839.326 1372.22,845.904 1372.22,853.123L1372.22,902.756C1372.22,902.756 1196.66,850.703 1137.72,833.226C1125.3,829.543 1112.07,829.543 1099.65,833.226C1040.71,850.703 865.15,902.756 865.15,902.756L865.15,853.123C865.15,845.904 869.294,839.326 875.807,836.21C915.48,817.227 1054.77,750.579 1102.5,727.744Z" style="fill:rgb(60,66,80);stroke:rgb(60,66,80);stroke-width:2.45px;"/>
                    <path id="Bottom" d="M1134.87,1278.02C1124.63,1282.92 1112.73,1282.92 1102.5,1278.02C1054.77,1255.19 915.48,1188.54 875.807,1169.56C869.294,1166.44 865.15,1159.86 865.15,1152.64L865.15,1103.01C865.15,1103.01 1040.71,1155.06 1099.65,1172.54C1112.07,1176.22 1125.3,1176.22 1137.72,1172.54C1196.66,1155.06 1372.22,1103.01 1372.22,1103.01L1372.22,1152.64C1372.22,1159.86 1368.08,1166.44 1361.56,1169.56C1321.89,1188.54 1182.6,1255.19 1134.87,1278.02Z" style="fill:rgb(60,66,80);stroke:rgb(60,66,80);stroke-width:2.45px;"/>
                    <g id="Mid" transform="matrix(1.33928,0,0,1.33928,-1996.31,-579.509)">
                        <path d="M2136.56,1203.26L2136.56,1159.79L2325.87,1143.63L2515.18,1159.79L2515.18,1203.26L2325.87,1219.42L2136.56,1203.26Z" style="fill:rgb(60,66,80);stroke:rgb(60,66,80);stroke-width:1.83px;"/>
                    </g>
                </g>
                <g transform="matrix(16.1072,0,0,16.1072,-7911.9,-2597.94)">
                    <g transform="matrix(12,0,0,12,522.045,183.743)">
                        <path d="M0.543,-0.066C0.554,-0.066 0.562,-0.063 0.568,-0.056C0.574,-0.048 0.577,-0.04 0.577,-0.031C0.577,-0.022 0.574,-0.015 0.568,-0.009C0.562,-0.003 0.554,-0 0.543,-0L0.122,-0C0.109,-0 0.098,-0.004 0.089,-0.013C0.08,-0.022 0.076,-0.032 0.076,-0.044L0.076,-0.593C0.076,-0.605 0.08,-0.615 0.089,-0.624C0.098,-0.632 0.109,-0.636 0.122,-0.636L0.544,-0.636C0.554,-0.636 0.562,-0.633 0.567,-0.627C0.572,-0.621 0.575,-0.614 0.575,-0.605C0.575,-0.596 0.572,-0.589 0.567,-0.582C0.561,-0.575 0.553,-0.572 0.543,-0.572L0.148,-0.572L0.148,-0.347L0.524,-0.347C0.533,-0.347 0.541,-0.344 0.547,-0.338C0.552,-0.331 0.555,-0.323 0.555,-0.314C0.555,-0.306 0.552,-0.299 0.547,-0.293C0.542,-0.286 0.534,-0.283 0.524,-0.283L0.148,-0.283L0.148,-0.066L0.543,-0.066Z" style="fill:rgb(60,66,80);fill-rule:nonzero;stroke:rgb(60,66,80);stroke-width:0.01px;"/>
                    </g>
                    <g transform="matrix(12,0,0,12,530.313,183.743)">
                        <path d="M0.114,-0C0.089,-0 0.076,-0.012 0.076,-0.037L0.076,-0.601C0.076,-0.612 0.08,-0.621 0.087,-0.627C0.094,-0.633 0.103,-0.636 0.113,-0.636C0.123,-0.636 0.132,-0.633 0.139,-0.627C0.146,-0.621 0.15,-0.612 0.15,-0.601L0.15,-0.066L0.524,-0.066C0.536,-0.066 0.545,-0.063 0.552,-0.057C0.559,-0.05 0.562,-0.042 0.562,-0.033C0.562,-0.024 0.559,-0.017 0.552,-0.01C0.545,-0.003 0.536,-0 0.524,-0L0.114,-0Z" style="fill:rgb(60,66,80);fill-rule:nonzero;stroke:rgb(60,66,80);stroke-width:0.01px;"/>
                    </g>
                    <g transform="matrix(12,0,0,12,537.825,183.743)">
                        <path d="M0.543,-0.066C0.554,-0.066 0.562,-0.063 0.568,-0.056C0.574,-0.048 0.577,-0.04 0.577,-0.031C0.577,-0.022 0.574,-0.015 0.568,-0.009C0.562,-0.003 0.554,-0 0.543,-0L0.122,-0C0.109,-0 0.098,-0.004 0.089,-0.013C0.08,-0.022 0.076,-0.032 0.076,-0.044L0.076,-0.593C0.076,-0.605 0.08,-0.615 0.089,-0.624C0.098,-0.632 0.109,-0.636 0.122,-0.636L0.544,-0.636C0.554,-0.636 0.562,-0.633 0.567,-0.627C0.572,-0.621 0.575,-0.614 0.575,-0.605C0.575,-0.596 0.572,-0.589 0.567,-0.582C0.561,-0.575 0.553,-0.572 0.543,-0.572L0.148,-0.572L0.148,-0.347L0.524,-0.347C0.533,-0.347 0.541,-0.344 0.547,-0.338C0.552,-0.331 0.555,-0.323 0.555,-0.314C0.555,-0.306 0.552,-0.299 0.547,-0.293C0.542,-0.286 0.534,-0.283 0.524,-0.283L0.148,-0.283L0.148,-0.066L0.543,-0.066Z" style="fill:rgb(60,66,80);fill-rule:nonzero;stroke:rgb(60,66,80);stroke-width:0.01px;"/>
                    </g>
                    <g transform="matrix(12,0,0,12,546.093,183.743)">
                        <path d="M0.632,-0.615C0.641,-0.629 0.652,-0.636 0.667,-0.636C0.676,-0.636 0.684,-0.632 0.691,-0.626C0.698,-0.619 0.701,-0.609 0.701,-0.597L0.701,-0.036C0.701,-0.025 0.698,-0.016 0.691,-0.01C0.684,-0.003 0.675,-0 0.665,-0C0.655,-0 0.646,-0.003 0.639,-0.01C0.632,-0.016 0.628,-0.025 0.628,-0.036L0.628,-0.476L0.424,-0.157C0.415,-0.143 0.404,-0.136 0.39,-0.136C0.376,-0.136 0.364,-0.143 0.355,-0.157L0.151,-0.474L0.151,-0.036C0.151,-0.025 0.148,-0.016 0.141,-0.01C0.134,-0.003 0.125,-0 0.115,-0C0.105,-0 0.096,-0.003 0.089,-0.01C0.082,-0.016 0.078,-0.025 0.078,-0.036L0.078,-0.596C0.078,-0.608 0.082,-0.618 0.089,-0.625C0.095,-0.632 0.104,-0.636 0.113,-0.636C0.119,-0.636 0.125,-0.634 0.131,-0.631C0.137,-0.627 0.142,-0.621 0.146,-0.614L0.39,-0.235L0.632,-0.615Z" style="fill:rgb(60,66,80);fill-rule:nonzero;stroke:rgb(60,66,80);stroke-width:0.01px;"/>
                    </g>
                    <g transform="matrix(12,0,0,12,556.317,183.743)">
                        <path d="M0.543,-0.066C0.554,-0.066 0.562,-0.063 0.568,-0.056C0.574,-0.048 0.577,-0.04 0.577,-0.031C0.577,-0.022 0.574,-0.015 0.568,-0.009C0.562,-0.003 0.554,-0 0.543,-0L0.122,-0C0.109,-0 0.098,-0.004 0.089,-0.013C0.08,-0.022 0.076,-0.032 0.076,-0.044L0.076,-0.593C0.076,-0.605 0.08,-0.615 0.089,-0.624C0.098,-0.632 0.109,-0.636 0.122,-0.636L0.544,-0.636C0.554,-0.636 0.562,-0.633 0.567,-0.627C0.572,-0.621 0.575,-0.614 0.575,-0.605C0.575,-0.596 0.572,-0.589 0.567,-0.582C0.561,-0.575 0.553,-0.572 0.543,-0.572L0.148,-0.572L0.148,-0.347L0.524,-0.347C0.533,-0.347 0.541,-0.344 0.547,-0.338C0.552,-0.331 0.555,-0.323 0.555,-0.314C0.555,-0.306 0.552,-0.299 0.547,-0.293C0.542,-0.286 0.534,-0.283 0.524,-0.283L0.148,-0.283L0.148,-0.066L0.543,-0.066Z" style="fill:rgb(60,66,80);fill-rule:nonzero;stroke:rgb(60,66,80);stroke-width:0.01px;"/>
                    </g>
                    <g transform="matrix(12,0,0,12,564.585,183.743)">
                        <path d="M0.527,-0.604C0.527,-0.614 0.531,-0.622 0.539,-0.628C0.546,-0.633 0.555,-0.636 0.566,-0.636C0.576,-0.636 0.585,-0.633 0.592,-0.628C0.599,-0.622 0.603,-0.614 0.603,-0.604L0.603,-0.043C0.603,-0.03 0.599,-0.019 0.59,-0.012C0.581,-0.004 0.57,-0 0.557,-0C0.548,-0 0.54,-0.002 0.532,-0.006C0.524,-0.01 0.518,-0.016 0.513,-0.023L0.139,-0.519L0.147,-0.381L0.147,-0.037C0.147,-0.025 0.143,-0.016 0.136,-0.01C0.129,-0.003 0.12,-0 0.109,-0C0.098,-0 0.089,-0.003 0.082,-0.01C0.075,-0.016 0.071,-0.025 0.071,-0.037L0.071,-0.592C0.071,-0.606 0.075,-0.617 0.083,-0.625C0.09,-0.632 0.1,-0.636 0.111,-0.636C0.119,-0.636 0.127,-0.634 0.134,-0.63C0.141,-0.626 0.147,-0.62 0.152,-0.613L0.537,-0.107L0.527,-0.258L0.527,-0.604Z" style="fill:rgb(60,66,80);fill-rule:nonzero;stroke:rgb(60,66,80);stroke-width:0.01px;"/>
                    </g>
                    <g transform="matrix(12,0,0,12,573.477,183.743)">
                        <path d="M0.542,-0.636C0.554,-0.636 0.563,-0.633 0.57,-0.626C0.576,-0.619 0.579,-0.611 0.579,-0.602C0.579,-0.592 0.576,-0.584 0.57,-0.577C0.563,-0.57 0.554,-0.567 0.542,-0.567L0.319,-0.567L0.32,-0.037C0.32,-0.026 0.316,-0.017 0.308,-0.01C0.3,-0.003 0.291,-0 0.282,-0C0.273,-0 0.264,-0.003 0.257,-0.01C0.25,-0.016 0.246,-0.025 0.246,-0.037L0.246,-0.567L0.024,-0.567C0.013,-0.567 0.005,-0.571 -0.002,-0.578C-0.008,-0.584 -0.011,-0.593 -0.011,-0.602C-0.011,-0.611 -0.008,-0.619 -0.002,-0.626C0.005,-0.633 0.013,-0.636 0.024,-0.636L0.542,-0.636Z" style="fill:rgb(60,66,80);fill-rule:nonzero;stroke:rgb(60,66,80);stroke-width:0.01px;"/>
                    </g>
                    <g transform="matrix(12,0,0,12,580.773,183.743)">
                        <path d="M0.361,0.01C0.3,0.01 0.246,-0.004 0.197,-0.031C0.148,-0.058 0.109,-0.098 0.08,-0.149C0.051,-0.2 0.037,-0.26 0.037,-0.329C0.037,-0.399 0.053,-0.458 0.086,-0.506C0.119,-0.553 0.159,-0.588 0.208,-0.612C0.257,-0.635 0.305,-0.646 0.353,-0.646C0.402,-0.646 0.451,-0.635 0.502,-0.612C0.553,-0.588 0.595,-0.553 0.63,-0.506C0.664,-0.458 0.681,-0.399 0.681,-0.329C0.681,-0.262 0.666,-0.202 0.637,-0.151C0.608,-0.1 0.569,-0.06 0.52,-0.032C0.471,-0.004 0.418,0.01 0.361,0.01ZM0.112,-0.326C0.112,-0.273 0.123,-0.226 0.145,-0.185C0.166,-0.144 0.196,-0.113 0.234,-0.091C0.272,-0.069 0.314,-0.058 0.361,-0.058C0.406,-0.058 0.448,-0.069 0.485,-0.091C0.522,-0.112 0.552,-0.143 0.574,-0.184C0.596,-0.224 0.607,-0.271 0.607,-0.326C0.607,-0.383 0.594,-0.43 0.568,-0.469C0.541,-0.507 0.509,-0.535 0.47,-0.553C0.431,-0.57 0.393,-0.579 0.355,-0.579C0.317,-0.579 0.28,-0.571 0.243,-0.554C0.206,-0.537 0.174,-0.509 0.15,-0.471C0.125,-0.433 0.112,-0.385 0.112,-0.326Z" style="fill:rgb(60,66,80);fill-rule:nonzero;stroke:rgb(60,66,80);stroke-width:0.01px;"/>
                    </g>
                </g>
            </g>
        </g>
        <g transform="matrix(1.64098,0,0,1.64098,572.934,-603.866)">
            <g transform="matrix(38.4308,0,0,38.4308,254.123,605)">
                <path d="M0.577,-0.098C0.591,-0.083 0.598,-0.068 0.598,-0.051C0.598,-0.037 0.593,-0.025 0.583,-0.015C0.572,-0.004 0.56,0.001 0.546,0.001C0.531,0.001 0.517,-0.006 0.504,-0.019L0.325,-0.21L0.174,-0.21L0.174,-0.052C0.174,-0.036 0.168,-0.023 0.157,-0.014C0.145,-0.005 0.131,-0 0.116,-0C0.1,-0 0.086,-0.005 0.075,-0.014C0.064,-0.023 0.058,-0.035 0.058,-0.051L0.058,-0.585C0.058,-0.6 0.063,-0.613 0.074,-0.623C0.085,-0.632 0.099,-0.637 0.116,-0.637L0.339,-0.637C0.397,-0.637 0.446,-0.628 0.487,-0.609C0.527,-0.59 0.557,-0.564 0.578,-0.531C0.599,-0.498 0.609,-0.462 0.609,-0.421C0.609,-0.373 0.596,-0.332 0.571,-0.297C0.545,-0.262 0.507,-0.238 0.457,-0.224L0.577,-0.098ZM0.34,-0.307C0.39,-0.307 0.428,-0.317 0.454,-0.338C0.479,-0.359 0.492,-0.385 0.492,-0.416C0.492,-0.451 0.478,-0.479 0.451,-0.502C0.424,-0.525 0.387,-0.536 0.34,-0.536L0.174,-0.536L0.174,-0.307L0.34,-0.307Z" style="fill-rule:nonzero;stroke:black;stroke-width:0.02px;"/>
            </g>
            <g transform="matrix(38.4308,0,0,38.4308,279.372,605)">
                <path d="M0.286,-0.089C0.329,-0.089 0.365,-0.101 0.395,-0.124C0.41,-0.137 0.425,-0.143 0.44,-0.143C0.454,-0.143 0.466,-0.138 0.476,-0.128C0.485,-0.118 0.49,-0.106 0.49,-0.093C0.49,-0.078 0.483,-0.063 0.47,-0.05C0.448,-0.029 0.421,-0.013 0.39,-0.004C0.358,0.006 0.324,0.011 0.289,0.01C0.237,0.01 0.191,-0.001 0.151,-0.022C0.111,-0.043 0.08,-0.073 0.058,-0.112C0.036,-0.15 0.025,-0.194 0.025,-0.243C0.025,-0.298 0.036,-0.346 0.057,-0.388C0.078,-0.429 0.109,-0.462 0.148,-0.485C0.187,-0.507 0.233,-0.519 0.286,-0.519C0.365,-0.519 0.426,-0.495 0.47,-0.448C0.514,-0.401 0.536,-0.338 0.537,-0.259C0.537,-0.239 0.533,-0.224 0.525,-0.214C0.517,-0.204 0.5,-0.199 0.474,-0.199L0.141,-0.199C0.15,-0.166 0.168,-0.14 0.194,-0.12C0.22,-0.099 0.251,-0.089 0.286,-0.089ZM0.287,-0.42C0.248,-0.42 0.216,-0.408 0.19,-0.384C0.164,-0.36 0.147,-0.328 0.14,-0.288L0.431,-0.288C0.427,-0.329 0.413,-0.362 0.39,-0.385C0.367,-0.408 0.332,-0.42 0.287,-0.42Z" style="fill-rule:nonzero;stroke:black;stroke-width:0.02px;"/>
            </g>
            <g transform="matrix(38.4308,0,0,38.4308,303.161,605)">
                <path d="M0.465,-0.509C0.482,-0.509 0.495,-0.504 0.506,-0.495C0.517,-0.485 0.522,-0.472 0.522,-0.457L0.522,-0.052C0.522,-0.037 0.517,-0.024 0.506,-0.015C0.495,-0.005 0.482,-0 0.465,-0C0.449,-0 0.436,-0.004 0.427,-0.012C0.417,-0.019 0.411,-0.029 0.409,-0.042C0.387,-0.025 0.362,-0.012 0.335,-0.003C0.307,0.006 0.28,0.01 0.253,0.01C0.205,0.01 0.164,-0.001 0.129,-0.023C0.093,-0.045 0.067,-0.076 0.048,-0.116C0.029,-0.156 0.02,-0.203 0.02,-0.256C0.02,-0.307 0.03,-0.353 0.051,-0.393C0.072,-0.432 0.1,-0.463 0.138,-0.486C0.175,-0.508 0.217,-0.519 0.266,-0.519C0.289,-0.519 0.313,-0.515 0.339,-0.506C0.364,-0.497 0.388,-0.485 0.409,-0.469C0.412,-0.482 0.418,-0.492 0.428,-0.499C0.437,-0.505 0.45,-0.509 0.465,-0.509ZM0.265,-0.091C0.296,-0.091 0.325,-0.098 0.352,-0.111C0.378,-0.124 0.397,-0.143 0.408,-0.168L0.408,-0.341C0.396,-0.365 0.378,-0.384 0.353,-0.398C0.327,-0.411 0.301,-0.418 0.274,-0.418C0.232,-0.418 0.198,-0.403 0.173,-0.373C0.147,-0.342 0.134,-0.303 0.134,-0.255C0.134,-0.206 0.146,-0.166 0.17,-0.136C0.194,-0.106 0.226,-0.091 0.265,-0.091Z" style="fill-rule:nonzero;stroke:black;stroke-width:0.02px;"/>
            </g>
            <g transform="matrix(38.4308,0,0,38.4308,326.834,605)">
                <path d="M0.466,-0.647C0.481,-0.647 0.495,-0.643 0.507,-0.634C0.518,-0.625 0.524,-0.613 0.524,-0.597L0.524,-0.051C0.524,-0.035 0.519,-0.023 0.509,-0.014C0.499,-0.005 0.485,-0 0.466,-0C0.431,-0 0.413,-0.016 0.412,-0.048C0.391,-0.029 0.368,-0.015 0.341,-0.006C0.314,0.004 0.289,0.009 0.264,0.009C0.215,0.009 0.172,-0.002 0.136,-0.025C0.099,-0.048 0.071,-0.079 0.052,-0.12C0.032,-0.161 0.022,-0.207 0.022,-0.26C0.022,-0.31 0.032,-0.355 0.053,-0.394C0.074,-0.433 0.103,-0.464 0.14,-0.486C0.177,-0.508 0.22,-0.519 0.268,-0.519C0.291,-0.519 0.315,-0.515 0.34,-0.506C0.365,-0.497 0.389,-0.484 0.41,-0.467L0.41,-0.597C0.41,-0.614 0.416,-0.626 0.427,-0.635C0.438,-0.643 0.451,-0.647 0.466,-0.647ZM0.267,-0.092C0.301,-0.092 0.331,-0.1 0.358,-0.115C0.385,-0.13 0.403,-0.152 0.412,-0.18L0.411,-0.334C0.4,-0.36 0.382,-0.381 0.357,-0.396C0.331,-0.411 0.305,-0.418 0.276,-0.418C0.235,-0.418 0.201,-0.403 0.175,-0.373C0.149,-0.343 0.136,-0.305 0.136,-0.259C0.136,-0.21 0.148,-0.169 0.172,-0.139C0.196,-0.108 0.228,-0.092 0.267,-0.092Z" style="fill-rule:nonzero;stroke:black;stroke-width:0.02px;"/>
            </g>
            <g transform="matrix(38.4308,0,0,38.4308,350.546,605)">
                <path d="M0.466,-0.509C0.481,-0.509 0.494,-0.503 0.505,-0.493C0.516,-0.482 0.521,-0.468 0.521,-0.453C0.521,-0.448 0.52,-0.441 0.518,-0.434L0.226,0.139C0.219,0.152 0.211,0.162 0.201,0.169C0.19,0.176 0.179,0.18 0.168,0.18C0.154,0.18 0.142,0.175 0.131,0.164C0.12,0.153 0.115,0.141 0.115,0.126C0.115,0.119 0.117,0.11 0.121,0.101L0.197,-0.049L0,-0.43C-0.003,-0.439 -0.005,-0.446 -0.005,-0.452C-0.005,-0.467 0.001,-0.481 0.013,-0.492C0.024,-0.503 0.037,-0.509 0.052,-0.509C0.063,-0.509 0.073,-0.506 0.083,-0.499C0.092,-0.492 0.1,-0.484 0.105,-0.473L0.259,-0.172L0.413,-0.474C0.418,-0.485 0.425,-0.493 0.434,-0.5C0.443,-0.506 0.454,-0.509 0.466,-0.509Z" style="fill-rule:nonzero;stroke:black;stroke-width:0.02px;"/>
            </g>
            <g transform="matrix(38.4308,0,0,38.4308,372.029,605)">
                <path d="M0.072,-0.107C0.091,-0.107 0.107,-0.101 0.119,-0.091C0.13,-0.08 0.136,-0.065 0.136,-0.048C0.136,-0.031 0.13,-0.017 0.119,-0.006C0.107,0.005 0.091,0.01 0.072,0.01C0.053,0.01 0.038,0.005 0.025,-0.007C0.012,-0.017 0.006,-0.031 0.006,-0.048C0.006,-0.065 0.012,-0.08 0.025,-0.091C0.038,-0.101 0.053,-0.107 0.072,-0.107Z" style="fill-rule:nonzero;stroke:black;stroke-width:0.02px;"/>
            </g>
            <g transform="matrix(38.4308,0,0,38.4308,387.939,605)">
                <path d="M0.007,-0.151C0.006,-0.158 0.005,-0.162 0.005,-0.164C0.005,-0.179 0.011,-0.191 0.024,-0.2C0.037,-0.209 0.051,-0.214 0.068,-0.214C0.082,-0.214 0.094,-0.211 0.104,-0.204C0.114,-0.197 0.12,-0.188 0.123,-0.175C0.133,-0.146 0.155,-0.125 0.19,-0.113C0.225,-0.101 0.263,-0.095 0.304,-0.095C0.35,-0.095 0.392,-0.102 0.429,-0.117C0.466,-0.132 0.484,-0.157 0.484,-0.192C0.484,-0.211 0.476,-0.226 0.46,-0.237C0.443,-0.248 0.423,-0.255 0.399,-0.259C0.375,-0.263 0.343,-0.267 0.304,-0.27C0.245,-0.275 0.196,-0.282 0.156,-0.291C0.116,-0.3 0.082,-0.318 0.055,-0.343C0.027,-0.368 0.013,-0.405 0.013,-0.452C0.013,-0.495 0.027,-0.532 0.056,-0.561C0.084,-0.59 0.12,-0.612 0.163,-0.626C0.206,-0.64 0.249,-0.647 0.294,-0.647C0.356,-0.647 0.413,-0.636 0.467,-0.615C0.52,-0.593 0.557,-0.557 0.578,-0.507C0.579,-0.5 0.58,-0.496 0.58,-0.493C0.58,-0.478 0.574,-0.466 0.562,-0.457C0.55,-0.447 0.536,-0.442 0.521,-0.442C0.51,-0.442 0.499,-0.444 0.49,-0.45C0.481,-0.455 0.474,-0.461 0.47,-0.47C0.452,-0.517 0.394,-0.54 0.295,-0.54C0.258,-0.54 0.221,-0.533 0.186,-0.519C0.151,-0.504 0.133,-0.482 0.133,-0.451C0.133,-0.43 0.141,-0.415 0.157,-0.404C0.172,-0.393 0.192,-0.386 0.217,-0.382C0.241,-0.377 0.274,-0.374 0.315,-0.371C0.383,-0.364 0.435,-0.358 0.471,-0.351C0.506,-0.343 0.537,-0.328 0.564,-0.304C0.591,-0.279 0.604,-0.242 0.604,-0.193C0.604,-0.144 0.589,-0.104 0.558,-0.074C0.527,-0.043 0.489,-0.022 0.444,-0.009C0.398,0.004 0.351,0.01 0.304,0.01C0.265,0.01 0.224,0.005 0.183,-0.006C0.142,-0.016 0.105,-0.033 0.072,-0.057C0.039,-0.081 0.018,-0.112 0.007,-0.151Z" style="fill-rule:nonzero;stroke:black;stroke-width:0.02px;"/>
            </g>
            <g transform="matrix(38.4308,0,0,38.4308,412.766,605)">
                <path d="M0.286,-0.089C0.329,-0.089 0.365,-0.101 0.395,-0.124C0.41,-0.137 0.425,-0.143 0.44,-0.143C0.454,-0.143 0.466,-0.138 0.476,-0.128C0.485,-0.118 0.49,-0.106 0.49,-0.093C0.49,-0.078 0.483,-0.063 0.47,-0.05C0.448,-0.029 0.421,-0.013 0.39,-0.004C0.358,0.006 0.324,0.011 0.289,0.01C0.237,0.01 0.191,-0.001 0.151,-0.022C0.111,-0.043 0.08,-0.073 0.058,-0.112C0.036,-0.15 0.025,-0.194 0.025,-0.243C0.025,-0.298 0.036,-0.346 0.057,-0.388C0.078,-0.429 0.109,-0.462 0.148,-0.485C0.187,-0.507 0.233,-0.519 0.286,-0.519C0.365,-0.519 0.426,-0.495 0.47,-0.448C0.514,-0.401 0.536,-0.338 0.537,-0.259C0.537,-0.239 0.533,-0.224 0.525,-0.214C0.517,-0.204 0.5,-0.199 0.474,-0.199L0.141,-0.199C0.15,-0.166 0.168,-0.14 0.194,-0.12C0.22,-0.099 0.251,-0.089 0.286,-0.089ZM0.287,-0.42C0.248,-0.42 0.216,-0.408 0.19,-0.384C0.164,-0.36 0.147,-0.328 0.14,-0.288L0.431,-0.288C0.427,-0.329 0.413,-0.362 0.39,-0.385C0.367,-0.408 0.332,-0.42 0.287,-0.42Z" style="fill-rule:nonzero;stroke:black;stroke-width:0.02px;"/>
            </g>
            <g transform="matrix(38.4308,0,0,38.4308,435.747,605)">
                <path d="M0.275,-0.095C0.287,-0.101 0.298,-0.104 0.308,-0.104C0.322,-0.104 0.334,-0.099 0.344,-0.09C0.353,-0.08 0.358,-0.068 0.358,-0.055C0.358,-0.046 0.355,-0.037 0.35,-0.029C0.344,-0.02 0.336,-0.013 0.325,-0.007C0.311,0 0.299,0.005 0.288,0.007C0.277,0.009 0.262,0.01 0.243,0.01C0.136,0.01 0.082,-0.053 0.082,-0.178L0.082,-0.414L0.044,-0.414C0.027,-0.414 0.013,-0.419 0.004,-0.428C-0.006,-0.437 -0.011,-0.448 -0.011,-0.461C-0.011,-0.474 -0.006,-0.485 0.004,-0.495C0.013,-0.504 0.027,-0.509 0.044,-0.509L0.082,-0.509L0.082,-0.595C0.082,-0.611 0.088,-0.624 0.099,-0.633C0.11,-0.642 0.123,-0.647 0.138,-0.647C0.153,-0.647 0.167,-0.642 0.178,-0.633C0.189,-0.624 0.195,-0.611 0.195,-0.595L0.195,-0.509L0.273,-0.509C0.29,-0.509 0.303,-0.504 0.313,-0.495C0.322,-0.485 0.327,-0.474 0.327,-0.461C0.327,-0.448 0.322,-0.437 0.313,-0.428C0.303,-0.419 0.29,-0.414 0.273,-0.414L0.195,-0.414L0.195,-0.178C0.195,-0.151 0.198,-0.129 0.205,-0.113C0.211,-0.096 0.224,-0.088 0.243,-0.088C0.254,-0.088 0.264,-0.09 0.275,-0.095Z" style="fill-rule:nonzero;stroke:black;stroke-width:0.02px;"/>
            </g>
            <g transform="matrix(38.4308,0,0,38.4308,450.543,605)">
                <path d="M0.072,-0.107C0.091,-0.107 0.107,-0.101 0.119,-0.091C0.13,-0.08 0.136,-0.065 0.136,-0.048C0.136,-0.031 0.13,-0.017 0.119,-0.006C0.107,0.005 0.091,0.01 0.072,0.01C0.053,0.01 0.038,0.005 0.025,-0.007C0.012,-0.017 0.006,-0.031 0.006,-0.048C0.006,-0.065 0.012,-0.08 0.025,-0.091C0.038,-0.101 0.053,-0.107 0.072,-0.107Z" style="fill-rule:nonzero;stroke:black;stroke-width:0.02px;"/>
            </g>
            <g transform="matrix(38.4308,0,0,38.4308,466.453,605)">
                <path d="M0.35,-0.647C0.457,-0.647 0.54,-0.614 0.599,-0.548C0.61,-0.535 0.616,-0.521 0.616,-0.508C0.616,-0.494 0.611,-0.482 0.6,-0.473C0.589,-0.464 0.577,-0.459 0.562,-0.459C0.545,-0.459 0.529,-0.466 0.516,-0.48C0.493,-0.505 0.468,-0.523 0.441,-0.532C0.414,-0.541 0.384,-0.545 0.349,-0.545C0.307,-0.545 0.27,-0.536 0.239,-0.518C0.207,-0.499 0.182,-0.474 0.165,-0.441C0.147,-0.408 0.138,-0.369 0.138,-0.326C0.138,-0.279 0.147,-0.238 0.165,-0.203C0.183,-0.168 0.208,-0.14 0.241,-0.121C0.274,-0.102 0.311,-0.092 0.354,-0.092C0.385,-0.092 0.416,-0.1 0.447,-0.116C0.478,-0.131 0.504,-0.151 0.523,-0.174C0.54,-0.193 0.558,-0.203 0.577,-0.203C0.591,-0.203 0.603,-0.198 0.614,-0.189C0.624,-0.18 0.629,-0.168 0.629,-0.154C0.629,-0.141 0.624,-0.128 0.614,-0.114C0.587,-0.076 0.55,-0.046 0.501,-0.024C0.452,-0.001 0.402,0.01 0.352,0.01C0.287,0.01 0.229,-0.004 0.18,-0.032C0.13,-0.06 0.091,-0.099 0.064,-0.15C0.037,-0.201 0.023,-0.259 0.023,-0.326C0.023,-0.389 0.037,-0.445 0.066,-0.494C0.095,-0.543 0.134,-0.58 0.184,-0.607C0.233,-0.634 0.289,-0.647 0.35,-0.647Z" style="fill-rule:nonzero;stroke:black;stroke-width:0.02px;"/>
            </g>
            <g transform="matrix(38.4308,0,0,38.4308,492.087,605)">
                <path d="M0.149,-0.05C0.149,-0.037 0.143,-0.025 0.133,-0.015C0.122,-0.005 0.108,-0 0.092,-0C0.075,-0 0.062,-0.005 0.051,-0.015C0.04,-0.024 0.035,-0.036 0.035,-0.05L0.035,-0.597C0.035,-0.611 0.04,-0.623 0.051,-0.633C0.062,-0.642 0.075,-0.647 0.092,-0.647C0.108,-0.647 0.122,-0.642 0.133,-0.632C0.143,-0.622 0.149,-0.61 0.149,-0.597L0.149,-0.05Z" style="fill-rule:nonzero;stroke:black;stroke-width:0.02px;"/>
            </g>
            <g transform="matrix(38.4308,0,0,38.4308,499.85,605)">
                <path d="M0.286,-0.519C0.339,-0.519 0.385,-0.508 0.426,-0.486C0.466,-0.463 0.497,-0.432 0.519,-0.392C0.541,-0.351 0.552,-0.305 0.552,-0.252C0.551,-0.2 0.54,-0.154 0.518,-0.115C0.495,-0.075 0.464,-0.044 0.424,-0.023C0.384,-0.001 0.338,0.01 0.286,0.01C0.234,0.01 0.188,-0.001 0.148,-0.023C0.108,-0.044 0.077,-0.075 0.055,-0.115C0.032,-0.154 0.021,-0.2 0.02,-0.252C0.02,-0.305 0.031,-0.351 0.054,-0.392C0.076,-0.432 0.107,-0.463 0.147,-0.486C0.187,-0.508 0.233,-0.519 0.286,-0.519ZM0.286,-0.09C0.331,-0.09 0.367,-0.105 0.394,-0.135C0.421,-0.165 0.435,-0.204 0.435,-0.252C0.435,-0.301 0.421,-0.341 0.394,-0.373C0.367,-0.403 0.331,-0.419 0.286,-0.419C0.241,-0.419 0.205,-0.403 0.178,-0.373C0.151,-0.341 0.137,-0.301 0.137,-0.252C0.137,-0.204 0.151,-0.165 0.178,-0.135C0.205,-0.105 0.241,-0.09 0.286,-0.09Z" style="fill-rule:nonzero;stroke:black;stroke-width:0.02px;"/>
            </g>
            <g transform="matrix(38.4308,0,0,38.4308,522.639,605)">
                <path d="M0.491,-0.509C0.508,-0.509 0.522,-0.504 0.533,-0.493C0.544,-0.482 0.549,-0.469 0.549,-0.453L0.549,-0.051C0.549,-0.036 0.543,-0.023 0.532,-0.014C0.52,-0.005 0.507,-0 0.492,-0C0.477,-0 0.463,-0.005 0.452,-0.014C0.441,-0.023 0.435,-0.036 0.435,-0.052L0.435,-0.056C0.39,-0.012 0.334,0.01 0.268,0.01C0.199,0.01 0.145,-0.012 0.106,-0.055C0.067,-0.098 0.048,-0.158 0.048,-0.233L0.048,-0.453C0.048,-0.469 0.053,-0.482 0.064,-0.493C0.074,-0.504 0.088,-0.509 0.105,-0.509C0.122,-0.509 0.135,-0.504 0.146,-0.493C0.157,-0.482 0.162,-0.469 0.162,-0.453L0.162,-0.231C0.162,-0.186 0.172,-0.152 0.193,-0.127C0.213,-0.102 0.244,-0.09 0.285,-0.09C0.304,-0.09 0.325,-0.097 0.349,-0.11C0.372,-0.123 0.393,-0.143 0.41,-0.169C0.427,-0.195 0.435,-0.226 0.435,-0.262L0.435,-0.453C0.435,-0.47 0.44,-0.483 0.45,-0.494C0.459,-0.504 0.473,-0.509 0.491,-0.509Z" style="fill-rule:nonzero;stroke:black;stroke-width:0.02px;"/>
            </g>
            <g transform="matrix(38.4308,0,0,38.4308,547.312,605)">
                <path d="M0.466,-0.647C0.481,-0.647 0.495,-0.643 0.507,-0.634C0.518,-0.625 0.524,-0.613 0.524,-0.597L0.524,-0.051C0.524,-0.035 0.519,-0.023 0.509,-0.014C0.499,-0.005 0.485,-0 0.466,-0C0.431,-0 0.413,-0.016 0.412,-0.048C0.391,-0.029 0.368,-0.015 0.341,-0.006C0.314,0.004 0.289,0.009 0.264,0.009C0.215,0.009 0.172,-0.002 0.136,-0.025C0.099,-0.048 0.071,-0.079 0.052,-0.12C0.032,-0.161 0.022,-0.207 0.022,-0.26C0.022,-0.31 0.032,-0.355 0.053,-0.394C0.074,-0.433 0.103,-0.464 0.14,-0.486C0.177,-0.508 0.22,-0.519 0.268,-0.519C0.291,-0.519 0.315,-0.515 0.34,-0.506C0.365,-0.497 0.389,-0.484 0.41,-0.467L0.41,-0.597C0.41,-0.614 0.416,-0.626 0.427,-0.635C0.438,-0.643 0.451,-0.647 0.466,-0.647ZM0.267,-0.092C0.301,-0.092 0.331,-0.1 0.358,-0.115C0.385,-0.13 0.403,-0.152 0.412,-0.18L0.411,-0.334C0.4,-0.36 0.382,-0.381 0.357,-0.396C0.331,-0.411 0.305,-0.418 0.276,-0.418C0.235,-0.418 0.201,-0.403 0.175,-0.373C0.149,-0.343 0.136,-0.305 0.136,-0.259C0.136,-0.21 0.148,-0.169 0.172,-0.139C0.196,-0.108 0.228,-0.092 0.267,-0.092Z" style="fill-rule:nonzero;stroke:black;stroke-width:0.02px;"/>
            </g>
            <g transform="matrix(38.4308,0,0,38.4308,571.024,605)">
                <path d="M0.072,-0.107C0.091,-0.107 0.107,-0.101 0.119,-0.091C0.13,-0.08 0.136,-0.065 0.136,-0.048C0.136,-0.031 0.13,-0.017 0.119,-0.006C0.107,0.005 0.091,0.01 0.072,0.01C0.053,0.01 0.038,0.005 0.025,-0.007C0.012,-0.017 0.006,-0.031 0.006,-0.048C0.006,-0.065 0.012,-0.08 0.025,-0.091C0.038,-0.101 0.053,-0.107 0.072,-0.107Z" style="fill-rule:nonzero;stroke:black;stroke-width:0.02px;"/>
            </g>
        </g>
    </g>
</svg>
