<?xml version="1.0" encoding="utf-8"?>
<!-- Generator: Adobe Illustrator 27.2.0, SVG Export Plug-In . SVG Version: 6.00 Build 0)  -->
<svg version="1.1" id="Layer_1" xmlns="http://www.w3.org/2000/svg" xmlns:xlink="http://www.w3.org/1999/xlink" x="0px" y="0px"
	 viewBox="0 0 3490.2 2807.5" style="enable-background:new 0 0 3490.2 2807.5;" xml:space="preserve">
<style type="text/css">
	.st0{fill-rule:evenodd;clip-rule:evenodd;}
</style>
<g>
	<g transform="matrix(1,0,0,1,-2136.56,-973.343)">
		<g transform="matrix(0.746669,0,0,0.746669,1490.58,432.701)">
			<g id="Full-logo_00000005985706772474757190000003547806396822952846_">
				<path id="Top_00000114755622533444548530000007220611245850315144_" class="st0" d="M3154.2,1366.9c30.4-14.6,65.9-14.6,96.3,0
					c142.1,68,556.6,266.3,674.7,322.8c19.4,9.3,31.7,28.9,31.7,50.3v147.7c0,0-522.5-154.9-697.9-206.9c-37-11-76.3-11-113.3,0
					c-175.4,52-697.9,206.9-697.9,206.9v-147.7c0-21.5,12.3-41.1,31.7-50.3C2597.6,1633.2,3012.1,1434.9,3154.2,1366.9z"/>
				<path id="Bottom_00000156575935966262193720000010423741720969728143_" class="st0" d="M3250.5,3004.7
					c-30.5,14.6-65.9,14.6-96.3,0c-142.1-67.9-556.6-266.3-674.7-322.8c-19.4-9.3-31.7-28.9-31.7-50.4v-147.7
					c0,0,522.5,154.9,697.9,206.9c37,11,76.3,11,113.3,0c175.4-52,697.9-206.9,697.9-206.9v147.7c0,21.5-12.3,41.1-31.7,50.4
					C3807.2,2738.4,3392.6,2936.7,3250.5,3004.7z"/>
				<g id="Mid_00000133501137817553445970000007541043290247527058_" transform="matrix(1.33928,0,0,1.33928,-1996.31,-579.509)">
					<path class="st0" d="M3318.3,2129.5v-129.4l563.4-48.1l0,0l0,0l0,0l563.4,48.1v129.4l-563.4,48.1L3318.3,2129.5z"/>
				</g>
			</g>
		</g>
	</g>
	<g>
		<path d="M702.8,2245.7c5.3,0,9.4,1.7,12.4,5.2c3,3.5,4.5,7.5,4.5,12.1c0,4.3-1.5,7.9-4.5,10.9c-3,3-7.1,4.5-12.4,4.5H494.6
			c-6.6,0-12-2.1-16.3-6.4c-4.3-4.3-6.4-9.4-6.4-15.3V1985c0-5.9,2.1-11,6.4-15.1c4.3-4.1,9.7-6.2,16.3-6.2h208.7
			c4.9,0,8.7,1.5,11.4,4.5c2.6,3,4,6.6,4,10.9c0,4.3-1.4,8.1-4.2,11.4c-2.8,3.3-6.7,4.9-11.6,4.9H507.4v111.3h186
			c4.6,0,8.3,1.6,11.1,4.7c2.8,3.1,4.2,7,4.2,11.6c0,4-1.3,7.5-4,10.6c-2.6,3.1-6.4,4.7-11.4,4.7h-186v107.3H702.8z"/>
		<path d="M787.9,2260v-278.9c0-5.6,1.8-9.9,5.4-12.9c3.6-3,7.9-4.5,12.9-4.5c4.9,0,9.2,1.5,12.9,4.5c3.6,3,5.4,7.3,5.4,12.9v264.6
			h185c5.9,0,10.5,1.6,13.8,4.7c3.3,3.1,4.9,7,4.9,11.6c0,4.3-1.7,8.1-4.9,11.4c-3.3,3.3-7.9,4.9-13.8,4.9H806.7
			C794.1,2278.3,787.9,2272.2,787.9,2260z"/>
		<path d="M1303.7,2245.7c5.3,0,9.4,1.7,12.4,5.2c3,3.5,4.5,7.5,4.5,12.1c0,4.3-1.5,7.9-4.5,10.9c-3,3-7.1,4.5-12.4,4.5h-208.2
			c-6.6,0-12-2.1-16.3-6.4c-4.3-4.3-6.4-9.4-6.4-15.3V1985c0-5.9,2.1-11,6.4-15.1c4.3-4.1,9.7-6.2,16.3-6.2h208.7
			c4.9,0,8.7,1.5,11.4,4.5c2.6,3,4,6.6,4,10.9c0,4.3-1.4,8.1-4.2,11.4c-2.8,3.3-6.7,4.9-11.6,4.9h-195.4v111.3h186
			c4.6,0,8.3,1.6,11.1,4.7c2.8,3.1,4.2,7,4.2,11.6c0,4-1.3,7.5-4,10.6c-2.6,3.1-6.4,4.7-11.4,4.7h-186v107.3H1303.7z"/>
		<path d="M1681.1,1963.8c4.6,0,8.6,1.7,11.9,5.2c3.3,3.5,4.9,8.2,4.9,14.1v277.5c0,5.6-1.7,10-5.2,13.1c-3.5,3.1-7.7,4.7-12.6,4.7
			c-4.9,0-9.2-1.6-12.9-4.7c-3.6-3.1-5.4-7.5-5.4-13.1v-217.6l-100.9,157.8c-4.3,6.9-9.9,10.4-16.8,10.4c-6.9,0-12.7-3.5-17.3-10.4
			l-100.9-156.8v216.6c0,5.6-1.7,10-5.2,13.1c-3.5,3.1-7.7,4.7-12.6,4.7c-4.9,0-9.2-1.6-12.9-4.7c-3.6-3.1-5.4-7.5-5.4-13.1v-277
			c0-5.9,1.7-10.7,5.2-14.3c3.5-3.6,7.5-5.4,12.1-5.4c3,0,5.9,0.9,8.9,2.7c3,1.8,5.4,4.5,7.4,8.2l120.7,187.4l119.7-187.9
			C1668,1967.2,1673.8,1963.8,1681.1,1963.8z"/>
		<path d="M2016.4,2245.7c5.3,0,9.4,1.7,12.4,5.2c3,3.5,4.5,7.5,4.5,12.1c0,4.3-1.5,7.9-4.5,10.9c-3,3-7.1,4.5-12.4,4.5h-208.2
			c-6.6,0-12-2.1-16.3-6.4c-4.3-4.3-6.4-9.4-6.4-15.3V1985c0-5.9,2.1-11,6.4-15.1c4.3-4.1,9.7-6.2,16.3-6.2h208.7
			c4.9,0,8.7,1.5,11.4,4.5c2.6,3,4,6.6,4,10.9c0,4.3-1.4,8.1-4.2,11.4c-2.8,3.3-6.7,4.9-11.6,4.9H1821v111.3h186
			c4.6,0,8.3,1.6,11.1,4.7c2.8,3.1,4.2,7,4.2,11.6c0,4-1.3,7.5-4,10.6c-2.6,3.1-6.4,4.7-11.4,4.7h-186v107.3H2016.4z"/>
		<path d="M2330.2,1968c3.8-2.8,8.3-4.2,13.6-4.2c4.9,0,9.2,1.4,12.9,4.2c3.6,2.8,5.4,6.7,5.4,11.6V2257c0,6.6-2.2,11.8-6.7,15.6
			c-4.5,3.8-9.8,5.7-16.1,5.7c-4.3,0-8.4-1-12.4-3c-4-2-7.1-4.8-9.4-8.4l-185-245.3l4,68.3V2260c0,5.9-1.8,10.5-5.4,13.6
			c-3.6,3.1-8.1,4.7-13.4,4.7c-5.3,0-9.7-1.6-13.4-4.7c-3.6-3.1-5.4-7.7-5.4-13.6v-274.5c0-6.9,1.9-12.3,5.7-16.1
			c3.8-3.8,8.5-5.7,14.1-5.7c4,0,7.7,1,11.4,3c3.6,2,6.6,4.8,8.9,8.4l190.4,250.3l-4.9-74.7v-171.1
			C2324.5,1974.6,2326.4,1970.8,2330.2,1968z"/>
		<path d="M2687.3,1968.7c3.1,3.3,4.7,7.3,4.7,11.9c0,4.9-1.6,9.1-4.7,12.4c-3.1,3.3-7.7,4.9-13.6,4.9h-110.3l0.5,262.1
			c0,5.6-2,10.1-5.9,13.4c-4,3.3-8.2,4.9-12.9,4.9c-4.6,0-8.7-1.6-12.4-4.7c-3.6-3.1-5.4-7.7-5.4-13.6v-262.1h-109.8
			c-5.3,0-9.5-1.7-12.6-5.2c-3.1-3.5-4.7-7.5-4.7-12.1c0-4.6,1.6-8.6,4.7-11.9c3.1-3.3,7.3-4.9,12.6-4.9h256.2
			C2679.6,1963.8,2684.1,1965.4,2687.3,1968.7z"/>
		<path d="M2778.8,2263c-24.2-13.5-43.4-33-57.6-58.4c-14.2-25.4-21.3-55.1-21.3-89c0-34.6,8.1-63.7,24.2-87.3
			c16.2-23.6,36.3-41.1,60.3-52.4c24.1-11.4,48-17.1,71.7-17.1c24.1,0,48.6,5.7,73.7,17.1c25.1,11.4,46.1,28.9,63.1,52.4
			c17,23.6,25.5,52.7,25.5,87.3c0,33.3-7.3,62.6-21.8,88c-14.5,25.4-33.8,45-57.9,58.9c-24.1,13.8-50.3,20.8-78.6,20.8
			C2830.1,2283.3,2803,2276.5,2778.8,2263z M2753.1,2186.8c10.7,20.1,25.5,35.6,44.3,46.5c18.8,10.9,39.7,16.3,62.8,16.3
			c22.4,0,42.9-5.4,61.3-16.1c18.5-10.7,33.1-26,44-46c10.9-19.9,16.3-43.4,16.3-70.5c0-28-6.5-51.5-19.5-70.5
			c-13-19-29.1-32.8-48.2-41.5c-19.1-8.7-38.1-13.1-56.9-13.1c-18.8,0-37.3,4.2-55.6,12.6c-18.3,8.4-33.6,22-46,40.8
			c-12.4,18.8-18.5,42.7-18.5,71.7C2737,2143.5,2742.3,2166.7,2753.1,2186.8z"/>
	</g>
</g>
</svg>
