<?xml version="1.0" encoding="UTF-8"?>
<svg id="Layer_2" data-name="Layer 2" xmlns="http://www.w3.org/2000/svg" viewBox="0 0 568.86 789.78">
  <defs>
    <style>
      .cls-1 {
        fill: #16161d;
      }
    </style>
  </defs>
  <g id="Layer_1-2" data-name="Layer 1">
    <g>
      <g>
        <g>
          <polygon class="cls-1" points="37.5 299.9 37.5 243.2 284.43 222.12 531.36 243.2 531.36 299.9 284.43 320.98 37.5 299.9"/>
          <path class="cls-1" d="M268.67,3.58c9.96-4.77,21.55-4.77,31.53,0,46.49,22.24,182.15,87.15,220.78,105.64,6.35,3.04,10.38,9.44,10.38,16.47v48.34s-170.99-50.7-228.39-67.72c-12.1-3.59-24.98-3.59-37.08,0-57.4,17.02-228.39,67.72-228.39,67.72v-48.34c0-7.03,4.04-13.44,10.38-16.47C86.53,90.73,222.19,25.82,268.67,3.58"/>
          <path class="cls-1" d="M300.2,539.51c-9.97,4.77-21.56,4.77-31.53,0-46.49-22.24-182.15-87.15-220.79-105.63-6.34-3.04-10.38-9.45-10.38-16.48v-48.34s170.99,50.69,228.39,67.72c12.1,3.58,24.98,3.58,37.08,0,57.4-17.03,228.39-67.72,228.39-67.72v48.34c0,7.03-4.03,13.44-10.38,16.48-38.64,18.49-174.3,83.4-220.78,105.63"/>
        </g>
        <g>
          <polygon class="cls-1" points="0 604.63 0 693.26 68.63 693.26 68.63 677.31 18.36 677.31 18.36 656.17 62.47 656.17 62.47 640.85 18.36 640.85 18.36 620.59 66.41 620.59 66.41 604.63 0 604.63"/>
          <polygon class="cls-1" points="98.88 601.72 98.88 693.27 81.53 693.27 81.53 610.02 98.88 601.72"/>
          <path class="cls-1" d="M126.85,653.76h32.16c-.68-2.62-1.79-4.92-3.36-6.9-1.56-1.98-3.44-3.52-5.63-4.62-2.2-1.1-4.56-1.65-7.09-1.65-2.7,0-5.15.53-7.34,1.58-2.2,1.06-4.03,2.58-5.51,4.56-1.48,1.98-2.56,4.33-3.23,7.03h0ZM144.71,694.53c-6.58,0-12.56-1.54-17.92-4.62-5.36-3.08-9.61-7.17-12.73-12.28-3.12-5.1-4.68-10.86-4.68-17.28s1.5-12.09,4.49-17.28c3-5.19,7.07-9.31,12.22-12.35,5.15-3.04,10.84-4.56,17.09-4.56s11.96,1.54,16.9,4.62c4.94,3.08,8.82,7.28,11.65,12.6,2.83,5.32,4.24,11.39,4.24,18.23v4.56h-48.87c.76,2.62,2.03,4.98,3.8,7.09,1.77,2.11,3.93,3.74,6.46,4.88,2.53,1.14,5.27,1.71,8.23,1.71s5.57-.44,8.11-1.33c2.53-.89,4.68-2.17,6.45-3.86l11.39,10.38c-4.05,3.29-8.21,5.7-12.47,7.21-4.27,1.52-9.05,2.28-14.37,2.28h0Z"/>
          <path class="cls-1" d="M186.62,693.26v-65.96h17.34v5.06c4.73-4.22,10.47-6.33,17.22-6.33,4.31,0,8.14.87,11.52,2.6,3.38,1.73,6.16,4.16,8.36,7.28,2.7-3.21,5.91-5.65,9.62-7.34,3.71-1.69,7.81-2.53,12.28-2.53,4.89,0,9.22,1.12,12.98,3.36,3.76,2.24,6.71,5.32,8.86,9.24,2.15,3.92,3.23,8.46,3.23,13.61v41.02h-17.35v-38.36c0-4.31-1.12-7.7-3.35-10.19-2.24-2.49-5.25-3.74-9.05-3.74-2.62,0-5,.53-7.15,1.58-.25.12-.51.28-.79.47-2.78,1.9-4.35,5.13-4.34,8.5,0,.28,0,.53,0,.72v41.02h-17.34v-38.36c0-4.31-1.12-7.7-3.36-10.19-2.24-2.49-5.25-3.74-9.05-3.74-2.61,0-4.96.51-7.03,1.52h0c-3.22,1.59-5.26,4.86-5.26,8.45v42.32s-17.34,0-17.34,0Z"/>
          <path class="cls-1" d="M315.63,653.76h32.16c-.68-2.62-1.79-4.92-3.35-6.9-1.56-1.98-3.44-3.52-5.64-4.62-2.19-1.1-4.56-1.65-7.09-1.65-2.7,0-5.15.53-7.34,1.58-2.2,1.06-4.03,2.58-5.51,4.56-1.48,1.98-2.55,4.33-3.23,7.03h0ZM333.49,694.53c-6.58,0-12.56-1.54-17.92-4.62-5.36-3.08-9.61-7.17-12.73-12.28-3.12-5.1-4.68-10.86-4.68-17.28s1.5-12.09,4.5-17.28c3-5.19,7.07-9.31,12.22-12.35,5.15-3.04,10.84-4.56,17.09-4.56s11.97,1.54,16.9,4.62c4.94,3.08,8.82,7.28,11.65,12.6,2.83,5.32,4.24,11.39,4.24,18.23v4.56h-48.87c.76,2.62,2.03,4.98,3.8,7.09,1.77,2.11,3.93,3.74,6.46,4.88,2.53,1.14,5.27,1.71,8.23,1.71s5.57-.44,8.1-1.33c2.53-.89,4.68-2.17,6.46-3.86l11.39,10.38c-4.05,3.29-8.21,5.7-12.47,7.21-4.27,1.52-9.06,2.28-14.37,2.28h0Z"/>
          <path class="cls-1" d="M375.4,693.26v-65.96h17.34v5.44c5.07-4.47,11.27-6.71,18.61-6.71,5.07,0,9.56,1.12,13.49,3.36,3.92,2.24,6.98,5.32,9.18,9.24,2.2,3.92,3.29,8.46,3.29,13.61v41.02h-17.22v-38.36c0-4.31-1.25-7.7-3.74-10.19-2.49-2.49-5.85-3.74-10.07-3.74-2.95,0-5.57.57-7.85,1.71h0c-3.49,1.75-5.7,5.33-5.7,9.24v41.34h-17.34Z"/>
          <path class="cls-1" d="M479.73,694.28c-7.26,0-12.77-1.67-16.52-5-3.76-3.34-5.64-8.17-5.64-14.5v-33.04h-13.55v-14.43h13.55v-12.52l17.22-8.24v20.76h18.99v14.43h-18.99v29.37c0,3.04.7,5.21,2.09,6.52,1.39,1.31,3.74,1.96,7.03,1.96,1.77,0,3.35-.11,4.75-.32,1.39-.21,2.93-.57,4.62-1.08v14.18c-1.77.59-3.97,1.05-6.58,1.39-2.62.34-4.94.51-6.96.51h0Z"/>
          <path class="cls-1" d="M533.66,679.46c3.46,0,6.58-.86,9.37-2.59,2.79-1.73,4.98-4.03,6.58-6.9,1.6-2.87,2.41-6.12,2.41-9.75s-.82-6.75-2.47-9.62c-1.64-2.87-3.84-5.15-6.58-6.84-2.74-1.69-5.8-2.53-9.18-2.53s-6.58.84-9.37,2.53c-2.79,1.69-4.98,3.97-6.58,6.84-1.6,2.87-2.41,6.08-2.41,9.62s.8,6.88,2.41,9.75c1.6,2.87,3.77,5.17,6.52,6.9,2.74,1.73,5.84,2.59,9.31,2.59h0ZM533.66,694.53c-6.58,0-12.53-1.52-17.85-4.56-5.32-3.04-9.54-7.15-12.66-12.35-3.12-5.19-4.68-10.95-4.68-17.28s1.56-12.22,4.68-17.41c3.12-5.19,7.35-9.29,12.66-12.28,5.32-2.99,11.27-4.5,17.85-4.5s12.53,1.5,17.85,4.5c5.32,3,9.54,7.09,12.66,12.28,3.12,5.19,4.69,10.99,4.69,17.41s-1.54,12.09-4.62,17.28c-3.08,5.19-7.28,9.31-12.6,12.35-5.32,3.04-11.31,4.56-17.98,4.56h0Z"/>
        </g>
      </g>
      <g>
        <path class="cls-1" d="M0,774.41v-50.3h21.56c3.31,0,6.18.6,8.62,1.8,2.44,1.2,4.35,2.87,5.71,5.03,1.37,2.16,2.05,4.7,2.05,7.62,0,3.3-.97,6.14-2.91,8.52-1.94,2.37-4.54,4.04-7.8,4.99l11.28,22.35h-6.11l-10.78-21.63H5.53v21.63H0ZM5.53,748.1h15.67c3.4,0,6.12-.86,8.16-2.59,2.04-1.73,3.05-4.05,3.05-6.97s-1.02-5.17-3.05-6.9c-2.04-1.73-4.76-2.59-8.16-2.59H5.53v19.04Z"/>
        <path class="cls-1" d="M60.08,775.05c-3.45,0-6.58-.83-9.38-2.48-2.8-1.65-5.03-3.89-6.68-6.72-1.65-2.83-2.48-5.99-2.48-9.49s.79-6.58,2.37-9.38c1.58-2.8,3.71-5.03,6.4-6.68,2.68-1.65,5.68-2.48,8.98-2.48s6.1.83,8.66,2.48c2.56,1.65,4.6,3.88,6.11,6.68,1.51,2.8,2.26,5.93,2.26,9.38v1.65h-29.54c.29,2.35,1.04,4.46,2.26,6.32,1.22,1.87,2.81,3.34,4.78,4.42,1.96,1.08,4.12,1.62,6.47,1.62,1.87,0,3.69-.29,5.46-.86,1.77-.58,3.26-1.39,4.46-2.44l3.31,3.52c-2.01,1.49-4.11,2.6-6.29,3.34-2.18.74-4.56,1.11-7.15,1.11ZM46.93,753.78h24.07c-.29-2.16-.99-4.08-2.12-5.78-1.13-1.7-2.53-3.04-4.2-4.02-1.68-.98-3.52-1.47-5.53-1.47s-3.95.48-5.68,1.44-3.16,2.29-4.31,3.99c-1.15,1.7-1.89,3.65-2.23,5.86Z"/>
        <path class="cls-1" d="M94.36,775.05c-2.64,0-4.95-.46-6.94-1.37-1.99-.91-3.55-2.18-4.67-3.81-1.13-1.63-1.69-3.52-1.69-5.68,0-3.4,1.29-6.08,3.88-8.05,2.59-1.96,6.08-2.95,10.49-2.95,3.88,0,7.4.82,10.56,2.44v-4.74c0-2.88-.82-5.04-2.44-6.5-1.63-1.46-4-2.19-7.11-2.19-1.77,0-3.56.25-5.35.75s-3.77,1.31-5.93,2.41l-2.01-4.1c2.59-1.25,4.98-2.16,7.19-2.73,2.2-.58,4.41-.86,6.61-.86,4.55,0,8.06,1.08,10.53,3.23,2.47,2.16,3.7,5.25,3.7,9.27v24.22h-5.17v-3.52c-1.63,1.39-3.41,2.43-5.35,3.13-1.94.69-4.04,1.04-6.29,1.04ZM86.16,764.06c0,2.01.85,3.65,2.55,4.92,1.7,1.27,3.89,1.9,6.58,1.9,2.16,0,4.12-.33,5.89-1.01,1.77-.67,3.38-1.73,4.81-3.16v-6.76c-1.49-1.01-3.07-1.74-4.74-2.19-1.68-.45-3.57-.68-5.68-.68-2.87,0-5.16.64-6.86,1.9-1.7,1.27-2.55,2.96-2.55,5.07Z"/>
        <path class="cls-1" d="M136.54,774.98c-3.35,0-6.41-.83-9.16-2.48-2.76-1.65-4.93-3.88-6.54-6.68-1.61-2.8-2.41-5.95-2.41-9.45s.8-6.63,2.41-9.41c1.6-2.78,3.78-4.99,6.54-6.65,2.75-1.65,5.83-2.48,9.23-2.48,2.11,0,4.14.35,6.11,1.04,1.96.7,3.76,1.71,5.39,3.05v-17.82l5.32-1.22v51.53h-5.25v-3.81c-3.16,2.92-7.04,4.38-11.64,4.38ZM137.04,770.31c2.25,0,4.35-.44,6.29-1.33s3.53-2.12,4.78-3.7v-17.82c-1.25-1.53-2.84-2.74-4.78-3.63s-4.04-1.33-6.29-1.33c-2.49,0-4.76.6-6.79,1.8-2.04,1.2-3.64,2.84-4.81,4.92-1.17,2.08-1.76,4.44-1.76,7.08s.59,5.01,1.76,7.11c1.17,2.11,2.78,3.79,4.81,5.03,2.04,1.25,4.3,1.87,6.79,1.87Z"/>
        <path class="cls-1" d="M163.99,789.78c-.67,0-1.31-.04-1.9-.11-.6-.07-1.09-.16-1.47-.25v-4.81c.81.19,1.82.29,3.02.29,3.16,0,5.56-1.87,7.19-5.61l2.16-4.96-14.66-35.93h5.89l11.64,29.54,12.58-29.54h5.75l-17.97,41.61c-1.01,2.3-2.08,4.17-3.23,5.6-1.15,1.44-2.46,2.49-3.92,3.16-1.46.67-3.15,1.01-5.07,1.01Z"/>
        <path class="cls-1" d="M198.2,774.84c-1.01,0-1.87-.36-2.59-1.08-.72-.72-1.08-1.58-1.08-2.59s.36-1.87,1.08-2.59c.72-.72,1.58-1.08,2.59-1.08s1.87.36,2.59,1.08c.72.72,1.08,1.58,1.08,2.59s-.36,1.87-1.08,2.59c-.72.72-1.58,1.08-2.59,1.08Z"/>
        <path class="cls-1" d="M244.48,775.12c-3.98,0-7.79-.8-11.43-2.41-3.64-1.6-6.85-3.92-9.63-6.93l3.66-3.81c2.59,2.78,5.35,4.86,8.3,6.25s6.05,2.08,9.31,2.08c2.63,0,4.97-.42,7.01-1.26,2.04-.84,3.63-2.01,4.78-3.52,1.15-1.51,1.72-3.22,1.72-5.14,0-2.59-.9-4.57-2.69-5.97-1.8-1.39-4.75-2.42-8.87-3.09l-7.26-1.15c-4.84-.81-8.41-2.25-10.71-4.31s-3.45-4.86-3.45-8.41c0-2.78.74-5.22,2.23-7.33,1.48-2.11,3.56-3.75,6.22-4.92,2.66-1.17,5.74-1.76,9.23-1.76s7.03.57,10.46,1.72c3.42,1.15,6.55,2.8,9.38,4.96l-3.16,4.31c-5.51-4.17-11.14-6.25-16.89-6.25-2.4,0-4.5.37-6.32,1.11-1.82.74-3.23,1.77-4.24,3.09-1.01,1.32-1.51,2.86-1.51,4.64,0,2.35.79,4.14,2.37,5.39,1.58,1.25,4.19,2.16,7.83,2.73l7.19,1.15c5.51.91,9.51,2.46,12,4.64,2.49,2.18,3.74,5.24,3.74,9.16,0,2.92-.82,5.52-2.44,7.8-1.63,2.28-3.89,4.05-6.79,5.32-2.9,1.27-6.24,1.9-10.03,1.9Z"/>
        <path class="cls-1" d="M287.88,775.05c-3.45,0-6.58-.83-9.38-2.48-2.8-1.65-5.03-3.89-6.68-6.72-1.65-2.83-2.48-5.99-2.48-9.49s.79-6.58,2.37-9.38c1.58-2.8,3.71-5.03,6.4-6.68,2.68-1.65,5.68-2.48,8.98-2.48s6.1.83,8.66,2.48c2.56,1.65,4.6,3.88,6.11,6.68,1.51,2.8,2.26,5.93,2.26,9.38v1.65h-29.54c.29,2.35,1.04,4.46,2.26,6.32,1.22,1.87,2.81,3.34,4.78,4.42,1.96,1.08,4.12,1.62,6.47,1.62,1.87,0,3.69-.29,5.46-.86,1.77-.58,3.26-1.39,4.46-2.44l3.31,3.52c-2.01,1.49-4.11,2.6-6.29,3.34-2.18.74-4.56,1.11-7.15,1.11ZM274.73,753.78h24.07c-.29-2.16-.99-4.08-2.12-5.78-1.13-1.7-2.53-3.04-4.2-4.02-1.68-.98-3.52-1.47-5.53-1.47s-3.95.48-5.68,1.44-3.16,2.29-4.31,3.99c-1.15,1.7-1.89,3.65-2.23,5.86Z"/>
        <path class="cls-1" d="M324.6,775.12c-3.11,0-5.51-.74-7.19-2.23-1.68-1.48-2.52-3.64-2.52-6.47v-23.5h-7.76v-4.53h7.76v-9.13l5.25-1.36v10.49h10.85v4.53h-10.85v22.13c0,1.92.43,3.3,1.29,4.13.86.84,2.27,1.26,4.24,1.26,1.01,0,1.9-.07,2.69-.21.79-.14,1.64-.38,2.55-.72v4.67c-.91.33-1.93.58-3.05.72-1.13.14-2.22.22-3.27.22Z"/>
        <path class="cls-1" d="M341.13,774.84c-1.01,0-1.87-.36-2.59-1.08-.72-.72-1.08-1.58-1.08-2.59s.36-1.87,1.08-2.59c.72-.72,1.58-1.08,2.59-1.08s1.87.36,2.59,1.08c.72.72,1.08,1.58,1.08,2.59s-.36,1.87-1.08,2.59c-.72.72-1.58,1.08-2.59,1.08Z"/>
        <path class="cls-1" d="M394.81,775.2c-3.64,0-7.04-.66-10.2-1.98s-5.94-3.16-8.34-5.53c-2.4-2.37-4.25-5.13-5.57-8.26-1.32-3.14-1.98-6.53-1.98-10.17s.66-7.03,1.98-10.17c1.32-3.14,3.17-5.89,5.57-8.26,2.4-2.37,5.17-4.22,8.34-5.53,3.16-1.32,6.56-1.98,10.2-1.98,2.63,0,5.16.32,7.58.97,2.42.65,4.67,1.58,6.76,2.8,2.08,1.22,3.94,2.72,5.57,4.49l-3.66,3.88c-1.97-2.25-4.38-3.99-7.26-5.21-2.87-1.22-5.87-1.83-8.98-1.83-2.92,0-5.63.53-8.12,1.58-2.49,1.05-4.66,2.53-6.5,4.42-1.85,1.89-3.28,4.1-4.31,6.61-1.03,2.51-1.55,5.26-1.55,8.23s.51,5.65,1.55,8.19c1.03,2.54,2.48,4.75,4.35,6.65,1.87,1.89,4.06,3.37,6.58,4.42,2.52,1.05,5.23,1.58,8.16,1.58,3.11,0,6.08-.61,8.91-1.83,2.83-1.22,5.2-2.91,7.11-5.07l3.59,3.74c-1.68,1.72-3.56,3.21-5.64,4.45-2.08,1.25-4.32,2.19-6.72,2.84-2.4.65-4.86.97-7.4.97Z"/>
        <path class="cls-1" d="M421.98,774.41v-50.3l5.32-1.22v51.53h-5.32Z"/>
        <path class="cls-1" d="M453.09,775.12c-3.4,0-6.5-.83-9.31-2.48-2.8-1.65-5.02-3.89-6.65-6.72-1.63-2.83-2.44-5.99-2.44-9.49s.81-6.66,2.44-9.49c1.63-2.83,3.84-5.07,6.65-6.72,2.8-1.65,5.9-2.48,9.31-2.48s6.56.83,9.34,2.48c2.78,1.65,4.98,3.89,6.61,6.72,1.63,2.83,2.44,5.99,2.44,9.49s-.82,6.66-2.44,9.49c-1.63,2.83-3.83,5.07-6.61,6.72-2.78,1.65-5.89,2.48-9.34,2.48ZM453.09,770.38c2.44,0,4.66-.62,6.65-1.87,1.99-1.24,3.57-2.92,4.74-5.03,1.17-2.11,1.76-4.46,1.76-7.04s-.59-4.99-1.76-7.08c-1.17-2.08-2.76-3.75-4.74-4.99-1.99-1.24-4.2-1.87-6.65-1.87s-4.66.62-6.65,1.87c-1.99,1.25-3.57,2.91-4.74,4.99-1.17,2.08-1.76,4.44-1.76,7.08s.59,4.94,1.76,7.04c1.17,2.11,2.75,3.79,4.74,5.03,1.99,1.25,4.2,1.87,6.65,1.87Z"/>
        <path class="cls-1" d="M492.69,775.12c-2.73,0-5.15-.59-7.26-1.76-2.11-1.17-3.75-2.8-4.92-4.89-1.17-2.08-1.76-4.52-1.76-7.29v-22.78h5.25v21.7c0,3.21.91,5.74,2.73,7.58,1.82,1.84,4.26,2.77,7.33,2.77,2.16,0,4.08-.49,5.78-1.47,1.7-.98,3.08-2.36,4.13-4.13v-26.45h5.32v36h-5.32v-4.17c-2.83,3.26-6.59,4.89-11.28,4.89Z"/>
        <path class="cls-1" d="M534.8,774.98c-3.35,0-6.41-.83-9.16-2.48-2.76-1.65-4.93-3.88-6.54-6.68-1.61-2.8-2.41-5.95-2.41-9.45s.8-6.63,2.41-9.41c1.6-2.78,3.78-4.99,6.54-6.65,2.75-1.65,5.83-2.48,9.23-2.48,2.11,0,4.14.35,6.11,1.04,1.96.7,3.76,1.71,5.39,3.05v-17.82l5.32-1.22v51.53h-5.25v-3.81c-3.16,2.92-7.04,4.38-11.64,4.38ZM535.31,770.31c2.25,0,4.35-.44,6.29-1.33s3.53-2.12,4.78-3.7v-17.82c-1.25-1.53-2.84-2.74-4.78-3.63s-4.04-1.33-6.29-1.33c-2.49,0-4.76.6-6.79,1.8-2.04,1.2-3.64,2.84-4.81,4.92-1.17,2.08-1.76,4.44-1.76,7.08s.59,5.01,1.76,7.11c1.17,2.11,2.78,3.79,4.81,5.03,2.04,1.25,4.3,1.87,6.79,1.87Z"/>
        <path class="cls-1" d="M565.2,774.84c-1.01,0-1.87-.36-2.59-1.08-.72-.72-1.08-1.58-1.08-2.59s.36-1.87,1.08-2.59c.72-.72,1.58-1.08,2.59-1.08s1.87.36,2.59,1.08c.72.72,1.08,1.58,1.08,2.59s-.36,1.87-1.08,2.59c-.72.72-1.58,1.08-2.59,1.08Z"/>
      </g>
    </g>
  </g>
</svg>