<?xml version="1.0" standalone="no"?>
<!DOCTYPE svg PUBLIC "-//W3C//DTD SVG 20010904//EN"
 "http://www.w3.org/TR/2001/REC-SVG-20010904/DTD/svg10.dtd">
<svg version="1.0" xmlns="http://www.w3.org/2000/svg"
 width="700.000000pt" height="700.000000pt" viewBox="0 0 700.000000 700.000000"
 preserveAspectRatio="xMidYMid meet">
<metadata>
Created by potrace 1.14, written by Peter Selinger 2001-2017
</metadata>
<g transform="translate(0.000000,700.000000) scale(0.100000,-0.100000)"
fill="#000000" stroke="none">
<path d="M3375 6981 c-33 -10 -109 -42 -170 -71 -60 -29 -166 -80 -235 -113
-191 -91 -351 -168 -505 -242 -77 -37 -180 -87 -230 -110 -91 -43 -239 -114
-460 -220 -132 -63 -296 -142 -450 -215 -225 -107 -316 -150 -440 -210 -108
-52 -276 -133 -431 -206 -46 -22 -95 -73 -117 -124 -19 -42 -20 -68 -21 -373
-1 -181 2 -331 6 -333 6 -4 219 57 463 131 73 23 436 130 645 191 179 53 530
157 640 191 63 19 124 38 135 40 11 3 94 28 185 55 91 27 172 51 180 53 8 2
168 49 355 105 387 115 451 130 555 132 152 3 126 9 950 -237 135 -40 340
-101 455 -135 187 -55 274 -81 595 -176 47 -14 128 -38 180 -54 52 -16 196
-58 320 -94 124 -37 261 -77 305 -91 44 -13 118 -35 165 -49 47 -13 114 -34
150 -45 36 -11 70 -21 75 -21 6 0 10 116 9 330 -1 370 -4 387 -72 452 -37 37
-65 52 -272 151 -63 30 -167 79 -230 110 -63 30 -169 81 -235 112 -132 63
-283 136 -475 227 -69 33 -170 82 -225 108 -55 26 -156 75 -225 108 -151 72
-325 155 -480 229 -195 94 -329 158 -475 228 -275 132 -305 146 -347 161 -66
24 -201 26 -273 5z"/>
<path d="M3479 4136 c-2 -2 -49 -7 -104 -11 -55 -3 -116 -8 -135 -10 -19 -2
-75 -6 -125 -10 -49 -4 -97 -8 -105 -10 -8 -2 -55 -6 -105 -9 -130 -10 -195
-16 -240 -21 -22 -2 -78 -7 -125 -10 -47 -4 -101 -8 -120 -10 -63 -6 -194 -17
-230 -20 -38 -3 -161 -14 -225 -20 -22 -2 -80 -7 -130 -10 -49 -4 -101 -8
-115 -10 -14 -2 -63 -7 -110 -10 -123 -9 -268 -21 -345 -30 -22 -2 -80 -7
-130 -10 -49 -3 -103 -8 -120 -10 -16 -2 -66 -6 -110 -10 -44 -3 -99 -8 -122
-10 -23 -3 -75 -7 -115 -10 -40 -3 -91 -8 -113 -10 -22 -2 -80 -7 -130 -10
-53 -4 -94 -12 -100 -19 -8 -10 -12 -556 -6 -702 1 -17 8 -21 50 -23 28 -1 59
-4 70 -6 11 -2 57 -6 103 -10 46 -3 97 -7 113 -9 17 -3 77 -7 135 -11 58 -4
112 -9 121 -10 8 -2 55 -6 105 -10 49 -3 105 -8 124 -10 19 -3 71 -7 115 -11
44 -3 96 -7 115 -9 19 -2 69 -6 110 -10 41 -3 95 -8 120 -10 25 -2 79 -7 120
-10 99 -7 185 -15 240 -20 25 -2 79 -7 120 -10 41 -4 93 -8 115 -10 22 -2 72
-7 110 -10 39 -3 93 -7 120 -10 79 -8 154 -14 240 -20 44 -3 94 -8 110 -10 17
-2 68 -7 115 -10 47 -4 101 -8 120 -10 19 -2 73 -6 120 -10 47 -3 99 -8 115
-10 54 -7 219 -19 255 -19 41 1 210 13 260 19 19 2 69 6 110 9 148 12 216 17
250 22 19 2 69 6 110 9 70 5 95 7 225 19 28 3 86 8 130 11 44 3 96 7 115 10
19 2 71 7 115 10 44 3 100 8 125 10 25 3 74 7 110 10 36 3 90 7 120 10 30 3
82 7 116 10 34 2 85 7 115 9 30 3 86 8 124 11 39 3 88 8 110 10 22 2 76 7 120
10 44 4 98 8 120 10 65 6 176 15 240 21 33 2 80 7 105 9 25 2 81 7 125 10 44
4 96 8 115 10 19 3 76 7 125 11 50 3 92 8 94 10 10 9 5 716 -4 724 -6 5 -47
11 -90 14 -44 3 -100 8 -125 10 -25 3 -76 7 -115 11 -38 3 -90 7 -115 10 -25
2 -81 7 -125 10 -44 4 -93 8 -110 10 -16 2 -70 7 -120 10 -49 3 -103 8 -120
10 -16 2 -68 7 -115 10 -47 4 -101 8 -120 10 -19 2 -71 6 -115 9 -44 4 -102 9
-130 12 -55 5 -100 9 -220 18 -44 4 -98 8 -120 11 -22 2 -76 7 -120 10 -44 3
-98 8 -121 10 -22 3 -74 7 -115 10 -41 3 -94 7 -119 10 -25 3 -76 7 -115 10
-38 3 -90 8 -115 10 -130 12 -193 17 -350 30 -131 11 -187 15 -240 20 -30 3
-78 7 -106 10 -29 2 -53 3 -55 1z"/>
<path d="M319 2238 c0 -2 -1 -138 -2 -303 -2 -300 3 -377 28 -425 36 -69 51
-78 760 -415 61 -29 162 -77 225 -107 63 -31 165 -79 225 -108 61 -29 171 -82
245 -117 130 -63 244 -118 435 -208 50 -24 167 -80 260 -125 94 -45 202 -97
240 -115 39 -18 138 -65 220 -105 412 -199 432 -206 541 -208 32 0 84 5 116
13 54 14 99 34 408 183 80 38 183 88 230 110 47 22 144 68 215 102 250 120
361 173 450 215 50 23 162 77 250 120 150 72 218 105 455 218 52 25 163 77
245 117 83 40 191 91 240 115 482 230 469 223 506 259 18 17 41 51 52 76 19
41 20 67 20 372 0 180 -2 330 -5 333 -3 4 -59 -10 -124 -30 -66 -20 -126 -38
-134 -40 -8 -2 -46 -13 -85 -25 -38 -11 -95 -28 -125 -36 -30 -9 -73 -22 -95
-30 -22 -7 -87 -27 -145 -43 -124 -36 -83 -24 -1135 -336 -456 -136 -837 -248
-845 -250 -8 -2 -83 -24 -166 -49 -196 -58 -299 -70 -439 -51 -33 5 -62 9 -65
10 -3 1 -18 5 -35 9 -16 5 -73 21 -125 37 -235 69 -472 140 -550 163 -47 14
-155 46 -240 71 -85 26 -168 50 -185 55 -16 4 -70 20 -120 35 -49 15 -94 28
-100 29 -5 2 -17 6 -25 9 -15 6 -505 151 -565 167 -16 4 -91 26 -165 48 -259
78 -883 262 -886 262 -2 0 -4 -1 -5 -2z"/>
</g>
</svg>
