<?xml version="1.0" encoding="UTF-8" standalone="no"?>
<!DOCTYPE svg PUBLIC "-//W3C//DTD SVG 1.1//EN" "http://www.w3.org/Graphics/SVG/1.1/DTD/svg11.dtd">
<svg width="100%" height="100%" viewBox="0 0 649 649" version="1.1" xmlns="http://www.w3.org/2000/svg" xmlns:xlink="http://www.w3.org/1999/xlink" xml:space="preserve" xmlns:serif="http://www.serif.com/" style="fill-rule:evenodd;clip-rule:evenodd;stroke-linejoin:round;stroke-miterlimit:2;">
    <g>
        <g>
            <g id="Full-logo" serif:id="Full logo">
                <path d="M29.423,498.797L29.423,150.199C29.423,141.797 34.246,134.141 41.827,130.515C88.001,108.421 250.116,30.852 305.667,4.275C317.574,-1.425 331.424,-1.425 343.342,4.275C398.893,30.852 561.008,108.421 607.179,130.515C614.767,134.141 619.586,141.797 619.586,150.199L619.586,185.158L619.586,185.158L619.586,463.809L619.586,463.81L619.586,498.797C619.586,507.2 614.767,514.858 607.179,518.49C561.008,540.58 398.893,618.152 343.342,644.723C331.424,650.426 317.574,650.426 305.667,644.723C250.116,618.152 88.001,540.58 41.827,518.49C34.246,514.858 29.423,507.2 29.423,498.797Z"/>
            </g>
        </g>
    </g>
</svg>
