<?xml version="1.0" encoding="utf-8"?>
<!-- Generator: Adobe Illustrator 27.2.0, SVG Export Plug-In . SVG Version: 6.00 Build 0)  -->
<svg version="1.1" id="Livello_1" xmlns="http://www.w3.org/2000/svg" xmlns:xlink="http://www.w3.org/1999/xlink" x="0px" y="0px"
	 viewBox="0 0 1920 1080" style="enable-background:new 0 0 1920 1080;" xml:space="preserve">
<g>
	<path d="M1920,240.1C1271.3,355.3,630.5,470.8,0,586.1v4.1c630.5-115.3,1271.3-230.7,1920-346V240.1L1920,240.1z"/>
	<path d="M1920,244.7C1268.9,360.3,627.7,476.6,0,593.1v4.1c627.7-116.4,1268.9-232.8,1920-348.4V244.7L1920,244.7z"/>
	<path d="M1920,249.3C1265.7,365.7,623.8,483.7,0,602.2v4.1c623.8-118.5,1265.7-236.5,1920-352.9V249.3L1920,249.3z"/>
	<path d="M1920,258.3v-4.1C1425.1,342.8,939.1,432.9,465.7,524C315.4,553,160.1,582.9,0,613.7v4.1C160.3,586.9,315.9,557,466.5,528
		C939.7,436.8,1425.4,346.8,1920,258.3L1920,258.3z"/>
	<path d="M1920,263.6v-4.1c-350,63.3-694.4,127.9-1031.2,193.7c-276.5,54-573.4,112-888.8,173.6v4.1
		c315.8-61.7,612.9-119.7,889.6-173.7C1226.2,391.5,1570.2,326.9,1920,263.6L1920,263.6z"/>
	<path d="M1920,269.6v-4.1c-230.5,42.5-457.3,85.9-679.6,130C869.1,469.4,453.4,552,0,642v4.1C453.7,556,869.6,473.3,1241.2,399.5
		C1463.2,355.4,1689.7,312,1920,269.6L1920,269.6z"/>
	<path d="M1920,276.7v-4.1c-130.8,24.9-260.1,50.3-387.6,76.2C1091.4,438.3,575.2,543,0,659.7v4.1
		C575.5,547,1092,442.2,1533.2,352.7C1660.4,326.9,1789.4,301.5,1920,276.7z"/>
	<path d="M1920,285.5v-4.1c-48.6,9.8-97,19.7-145.1,29.7C1284.4,413.2,682,538.5,0,680.4v4.1c682.3-142,1285.1-267.4,1775.7-369.5
		C1823.5,305.1,1871.6,295.3,1920,285.5z"/>
	<path d="M1920,293.1C1404,403.7,747,544.6,0,704.8v4.1c746.9-160.1,1403.9-301,1920-411.7V293.1L1920,293.1z"/>
	<path d="M1920,306.9C1401.7,422.1,741.4,568.9,0,733.6v4.1C741.3,573,1401.6,426.2,1920,311V306.9L1920,306.9z"/>
	<path d="M1920,322.8C1398.1,443.8,733.6,597.9,0,768v4.1C733.6,602,1398,447.9,1920,326.9V322.8L1920,322.8z"/>
	<path d="M1920,341.1C1392.9,469.5,723.1,632.8,0,809v4.1c723-176.2,1392.8-339.5,1920-468V341.1L1920,341.1z"/>
	<path d="M1920,362.4C1385.4,500.4,708.5,675.3,0,858.2v4.1c708.5-183,1385.3-357.8,1920-495.9V362.4z"/>
	<path d="M1920,387.3C1374.7,537.8,687.9,727.5,0,917.4v4.2c687.8-190,1374.6-379.6,1920-530.2V387.3L1920,387.3z"/>
	<path d="M1920,416.5C1358.7,583.8,657.2,792.8,0,988.7v4.2C657,797,1358.6,588,1920,420.7V416.5L1920,416.5z"/>
	<path d="M1920,451C1333,641.7,607,877.5,0,1074.6v4.2c606.8-197.1,1332.8-432.9,1920-623.6V451z"/>
</g>
</svg>
