<?xml version="1.0" encoding="utf-8"?>
<!-- Generator: Adobe Illustrator 27.2.0, SVG Export Plug-In . SVG Version: 6.00 Build 0)  -->
<svg version="1.1" id="Livello_1" xmlns="http://www.w3.org/2000/svg" xmlns:xlink="http://www.w3.org/1999/xlink" x="0px" y="0px"
	 viewBox="0 0 1921 1081" style="enable-background:new 0 0 1921 1081;" xml:space="preserve">
<g>
	<path d="M0.5,879.7C647.2,781.6,1289.2,685.5,1920,592.5v-3.9c-630.8,93-1272.8,189-1919.5,287.1V879.7L0.5,879.7z"/>
	<path d="M0.5,848.9C648.3,752.2,1291.4,658.2,1920,568.5v-3.9C1291.4,654.3,648.3,748.3,0.5,845V848.9L0.5,848.9z"/>
	<path d="M0.5,816.6C649.2,721.5,1294,630.1,1920,544.6v-3.9C1294,626.2,649.2,717.5,0.5,812.7V816.6z"/>
	<path d="M0.5,782.8C649.9,689.2,1297.3,600.8,1920,521v-3.9C1297.4,596.9,650,685.3,0.5,778.8V782.8L0.5,782.8z"/>
	<path d="M0.5,747.3c649.6-92.2,1301-176.9,1919.5-249.4V494C1301.5,566.5,650.1,651.2,0.5,743.4V747.3L0.5,747.3z"/>
	<path d="M1911.3,476.8c2.9-0.3,5.8-0.6,8.7-0.9V472c-4.9,0.5-9.9,1-14.9,1.5C1907.2,474.6,1909.3,475.7,1911.3,476.8L1911.3,476.8z
		"/>
	<path d="M1870.6,477.1C1271.5,539,631.9,617.5,0.5,706.6v3.9C632,621.4,1271.8,542.9,1871,481c11.1-1.1,22.2-2.3,33.4-3.5
		c-2.1-1.1-4.1-2.2-6.2-3.2C1889,475.2,1879.8,476.2,1870.6,477.1L1870.6,477.1z"/>
	<path d="M1768,464.5C1223.8,511.9,637.8,579.1,65.9,659.6c-3.4,1.8-6.8,3.6-10.2,5.3c575.2-81.2,1165.1-149,1712.7-196.6
		c33.5-2.9,67.4-5.9,101.6-8.9c-2.1-1.1-4.2-2.2-6.3-3.3C1831.4,459,1799.5,461.7,1768,464.5L1768,464.5z"/>
	<path d="M1877.1,458.9c14.2-1.2,28.5-2.5,42.9-3.7v-3.9c-16.5,1.4-32.9,2.9-49.2,4.3C1872.9,456.6,1875,457.7,1877.1,458.9
		L1877.1,458.9z"/>
	<path d="M0.5,668.9v3.9c14.6-2.1,29.1-4.2,43.7-6.2c3.4-1.8,6.8-3.6,10.2-5.3C36.5,663.8,18.5,666.3,0.5,668.9z"/>
	<path d="M1685.9,451.6c49-3.3,99-6.6,150-10c-2.2-1.1-4.4-2.3-6.6-3.5c-48.8,3.2-96.8,6.4-143.7,9.6
		c-469.3,31.2-977.6,83.9-1470,152.5c-16.7,2.3-33.4,4.7-50,7c-3.4,1.8-6.8,3.6-10.2,5.4c20.2-2.9,40.5-5.7,60.8-8.6
		C708.5,535.6,1216.7,482.8,1685.9,451.6L1685.9,451.6z"/>
	<path d="M1920,435.4v-3.2c-2.5,0.2-4.9,0.3-7.4,0.5C1915.1,433.6,1917.5,434.5,1920,435.4z"/>
	<path d="M1843.4,441.2c22.7-1.5,45.6-3,68.7-4.6c-3-1.1-5.9-2.2-8.9-3.3c-22.3,1.5-44.4,3-66.4,4.4
		C1839,438.9,1841.2,440,1843.4,441.2L1843.4,441.2z"/>
	<path d="M12.2,629.7c-3.9,1.8-7.8,3.5-11.7,5.3v0.4c47.7-7.2,95.5-14.2,143.5-21c3.4-1.8,6.8-3.6,10.2-5.4
		C106.8,615.7,59.4,622.6,12.2,629.7L12.2,629.7z"/>
	<path d="M120.7,580.7c40.9-6.4,82-12.7,123.3-18.8c3.5-1.8,6.9-3.6,10.4-5.4c-40.3,5.9-80.4,12-120.4,18.2
		C129.6,576.7,125.1,578.7,120.7,580.7L120.7,580.7z"/>
	<path d="M0.5,596.2v3.9c35.1-5.8,70.3-11.6,105.7-17.2c4.5-2,8.9-4,13.3-6C79.7,583.2,40,589.7,0.5,596.2L0.5,596.2z"/>
	<path d="M1810.2,423.8c20-0.8,40.2-1.6,60.6-2.4c-3.2-1.2-6.3-2.3-9.5-3.5c-19.5,0.8-38.9,1.6-58,2.3
		C1805.6,421.4,1807.9,422.6,1810.2,423.8L1810.2,423.8z"/>
	<path d="M1620,431.5c59-2.4,119.9-4.8,182.5-7.4c-2.3-1.2-4.6-2.4-6.9-3.6c-60.3,2.4-118.9,4.8-175.8,7.1
		c-379.2,15.3-790.3,51.3-1189.1,104.3c-55.1,7.3-110.1,15-164.8,22.9c-3.4,1.8-6.9,3.6-10.4,5.4c58.3-8.5,116.9-16.7,175.7-24.5
		C829.9,482.8,1241,446.7,1620,431.5L1620,431.5z"/>
	<path d="M1880.9,421c12.9-0.5,26-1,39.1-1.6v-3.9c-16.3,0.7-32.5,1.3-48.5,2C1874.6,418.6,1877.8,419.8,1880.9,421L1880.9,421z"/>
	<path d="M139.9,540.6c-6.3,2.5-12.6,4.9-18.9,7.4c34.4-6.4,69-12.6,104-18.6c4.7-2.1,9.4-4.2,14-6.3
		C205.7,528.7,172.7,534.5,139.9,540.6z"/>
	<path d="M240.1,526.8c34.1-5.8,68.5-11.4,103-16.8c3.6-1.9,7.1-3.7,10.6-5.6c-33.4,5.2-66.7,10.6-99.8,16.1
		C249.4,522.6,244.8,524.7,240.1,526.8L240.1,526.8z"/>
	<path d="M1777.9,406.9c17.4-0.1,35-0.2,52.8-0.4c-3.4-1.3-6.9-2.5-10.3-3.8c-16.7,0.1-33.3,0.2-49.8,0.3
		C1773,404.3,1775.5,405.6,1777.9,406.9L1777.9,406.9z"/>
	<path d="M1841.6,406.4c18.5-0.1,37.2-0.3,56-0.4c-5-1.3-10-2.5-15-3.8c-17.2,0.1-34.3,0.2-51.3,0.4
		C1834.8,403.9,1838.2,405.1,1841.6,406.4L1841.6,406.4z"/>
	<path d="M26.5,562.2c-8.6,3-17.3,6-26,9v0.2c33.1-6.7,66.5-13.3,100.3-19.6c6.4-2.5,12.8-5,19.2-7.5
		C88.5,550.1,57.4,556.1,26.5,562.2L26.5,562.2z"/>
	<path d="M1913.1,405.9c2.3,0,4.6,0,6.9,0V402c-7.3,0-14.6,0.1-21.9,0.1C1903.1,403.4,1908,404.7,1913.1,405.9L1913.1,405.9z"/>
	<path d="M1567.4,408.3c64.7-0.4,132.1-0.9,202.3-1.4c-2.4-1.3-4.9-2.5-7.3-3.8c-67.6,0.5-132.6,0.9-195,1.3
		c-306,2.1-638.5,24.4-961.4,64.6c-80.7,10-161,21.2-240.4,33.5c-3.5,1.9-7.1,3.7-10.6,5.6c83-12.9,167-24.7,251.4-35.2
		C929.2,432.7,1261.5,410.4,1567.4,408.3L1567.4,408.3z"/>
	<path d="M5.5,552c-1.7,0.5-3.4,0.9-5,1.4v2c18.4-5.7,36.6-11.3,54.5-16.8C38.3,543,21.9,547.5,5.5,552L5.5,552z"/>
	<path d="M1920,393.5v-0.2c-1.1-0.1-2.2-0.2-3.2-0.3C1917.8,393.1,1918.9,393.3,1920,393.5L1920,393.5z"/>
	<path d="M1357.1,379.6c57,0,113.3,1,168.5,3c67.2,2.4,138,5,212.1,7.6c-2.7-1.4-5.3-2.8-7.9-4.2c-71.2-2.5-139.2-5-204-7.3
		c-246.8-8.9-515.3,2.2-776.8,32c-96.1,11-191.5,24.4-284.9,40.2c-3.7,1.9-7.4,3.9-11.1,5.8c97-16.6,196.3-30.8,296.4-42.2
		C952.2,391.4,1159.2,379.6,1357.1,379.6L1357.1,379.6z"/>
	<path d="M356.5,474.2c3.3-0.6,6.6-1.3,10-1.9c24.5-4.6,49.2-9.1,74.1-13.5c3.7-2,7.5-3.9,11.2-5.9c-26.9,4.6-53.6,9.4-80.1,14.4
		C366.6,469.7,361.6,472,356.5,474.2L356.5,474.2z"/>
	<path d="M257.8,494.3c27.2-5.8,54.6-11.4,82.3-16.8c5.1-2.3,10.2-4.6,15.3-6.9c-25.5,4.9-50.7,9.9-75.8,15.2
		C272.3,488.5,265.1,491.4,257.8,494.3L257.8,494.3z"/>
	<path d="M129.9,519.5c-24.1,7.4-48.7,15-73.8,22.8c20.5-5.4,41.1-10.7,62-15.9c13-4.5,25.9-9,38.6-13.4
		C147.8,515.2,138.8,517.4,129.9,519.5L129.9,519.5z"/>
	<path d="M157.9,516.8c25.2-6,50.6-11.8,76.3-17.4c7.5-3,15-5.9,22.5-8.8c-21.4,4.6-42.6,9.3-63.6,14.1
		C181.4,508.6,169.7,512.7,157.9,516.8L157.9,516.8z"/>
	<path d="M1869.1,394.9c15,0.5,30.1,1.1,45.4,1.6c-10.4-1.7-20.7-3.3-31-5c-10.8-0.4-21.6-0.8-32.3-1.2
		C1857.2,391.9,1863.1,393.4,1869.1,394.9z"/>
	<path d="M1804.1,392.5c15.4,0.5,30.9,1.1,46.6,1.7c-6-1.5-12-3-17.9-4.5c-13.5-0.5-26.9-1-40.2-1.4
		C1796.3,389.7,1800.2,391.1,1804.1,392.5L1804.1,392.5z"/>
	<path d="M1746.7,390.5c14.9,0.5,29.9,1.1,45.1,1.6c-3.9-1.4-7.8-2.9-11.6-4.3c-13.9-0.5-27.7-1-41.4-1.5
		C1741.4,387.7,1744,389.1,1746.7,390.5L1746.7,390.5z"/>
	<path d="M467.9,424c22-5,44.2-9.8,66.6-14.4c4.1-2.1,8.2-4.3,12.2-6.4c-20.6,4.1-41.1,8.4-61.4,12.9
		C479.6,418.7,473.8,421.3,467.9,424L467.9,424z"/>
	<path d="M386.8,443.6c20.4-5.2,41.1-10.3,61.9-15.2c6-2.7,12-5.4,18-8.1c-17.4,4-34.6,8-51.8,12.2
		C405.6,436.2,396.2,439.9,386.8,443.6L386.8,443.6z"/>
	<path d="M1769,379.5c12.1,1.1,24.3,2.2,36.7,3.3c-8.1-2-16.1-4.1-24.1-6.1c-8.9-0.8-17.7-1.6-26.5-2.4
		C1759.7,376.1,1764.3,377.8,1769,379.5L1769,379.5z"/>
	<path d="M1861,387.9c-18.3-3-36.5-5.9-54.4-8.8c7.9,2,15.8,4,23.7,6C1840.5,386,1850.7,387,1861,387.9z"/>
	<path d="M866.3,359.5c105.2-10.6,211.6-16.4,316.1-17.3c9.6-0.1,19.1-0.1,28.7-0.1c96,0,190.6,4.2,281.5,12.4
		c66.8,6,138.3,12.5,214.1,19.4c-3-1.6-6-3.1-9-4.7c-72.3-6.5-140.7-12.7-204.8-18.5c-100.2-9.1-204.6-13.2-310.6-12.3
		c-104.7,0.9-211.2,6.7-316.5,17.3c-103.7,10.4-206.5,25.5-305.7,44.9c-4,2.1-8,4.2-12.1,6.3c2.7-0.5,5.3-1.1,8-1.6
		C656.7,385.5,761.1,370.2,866.3,359.5L866.3,359.5z"/>
	<path d="M1716.8,374.8c12.3,1.1,24.8,2.2,37.4,3.4c-4.7-1.7-9.3-3.4-13.9-5.1c-10.9-1-21.7-2-32.4-2.9
		C1710.8,371.7,1713.8,373.3,1716.8,374.8L1716.8,374.8z"/>
	<path d="M1916.8,392.9c1.1,0.1,2.2,0.2,3.2,0.3v-3.9c-19.7-1.8-39.2-3.5-58.5-5.3C1879.7,387,1898.1,389.9,1916.8,392.9
		L1916.8,392.9z"/>
	<path d="M204.8,496.5c33.6-11.6,66.3-22.9,98.1-33.9c-13.5,3.9-27,7.9-40.2,12c-64.9,20-134.3,41.4-207.6,64
		c-17.9,5.5-36.1,11.1-54.5,16.8v4c18.8-5.8,37.3-11.5,55.6-17.1c25.1-7.7,49.7-15.3,73.8-22.8C155.4,511.7,180.4,504,204.8,496.5
		L204.8,496.5z"/>
	<path d="M304,466.2c16.7-4.9,33.6-9.6,50.6-14.2c10.4-4.1,20.7-8.1,31-12.2c-7.5,1.9-14.9,3.9-22.3,5.9
		C343.9,452.4,324.1,459.3,304,466.2L304,466.2z"/>
	<path d="M573.3,376.4c16.5-4.7,33.3-9.1,50.1-13.4c4.8-2.5,9.7-5.1,14.5-7.6c-14.1,3.4-28.1,7-42,10.7
		C588.5,369.5,580.9,373,573.3,376.4z"/>
	<path d="M962,307.1c61-5.1,122.3-7.7,183.3-7.7c24.1,0,48.1,0.4,71.9,1.2c85.3,2.9,169.2,10.9,249.6,23.8
		c65,10.5,135.2,21.8,210,33.8c-3.6-1.9-7.2-3.8-10.8-5.7c-70.6-11.4-136.9-22-198.6-32c-80.5-13-164.6-21-250.1-23.9
		c-84.4-2.8-170.4-0.7-255.7,6.5c-85.2,7.1-169.9,19.3-251.7,36c-19.1,3.9-38,8.1-56.7,12.5c-4.6,2.4-9.3,4.9-14,7.3
		c23.6-5.7,47.4-11.1,71.5-16C792.4,326.3,876.9,314.2,962,307.1L962,307.1z"/>
	<path d="M1737.9,368.1c8.2,1.3,16.5,2.6,24.8,4c-14.6-3.7-29-7.3-43.2-10.9c-0.1,0-0.3,0-0.4-0.1
		C1725.4,363.4,1731.6,365.8,1737.9,368.1z"/>
	<path d="M157.9,516.8c11.8-4.1,23.6-8.1,35.2-12.2c38.1-13.2,75.1-26,111-38.4c20.1-7,39.9-13.8,59.2-20.5
		c21.2-7.3,42-14.5,62.3-21.5c27.1-10.6,53.5-21,79.1-31.1c-11,3.6-22,7.2-32.8,11c-53,18.3-109.4,37.9-169.1,58.5
		c-31.8,11-64.5,22.3-98.1,33.9c-15.8,5.5-31.8,11-48,16.6c-12.8,4.4-25.6,8.9-38.6,13.4c-38.2,13.2-77.4,26.8-117.6,40.7v4.1
		c8.7-3,17.4-6,26-9C71.6,546.7,115.4,531.5,157.9,516.8L157.9,516.8z"/>
	<path d="M1688.8,360.2c9.7,1.6,19.5,3.1,29.3,4.7c-6.3-2.3-12.6-4.6-18.8-6.9c-7.2-1.1-14.3-2.3-21.3-3.4
		C1681.6,356.4,1685.2,358.3,1688.8,360.2z"/>
	<path d="M506,396.7c13.6-4.4,27.3-8.6,41.1-12.8c8.4-3.8,16.7-7.5,24.9-11.2c-6.1,1.7-12.2,3.5-18.3,5.3
		C538.1,384.1,522.2,390.4,506,396.7L506,396.7z"/>
	<path d="M1861.5,384c-33.4-5.4-66.1-10.6-98-15.8c14.2,3.6,28.6,7.2,43.2,10.9c17.9,2.9,36,5.8,54.4,8.8c7.5,1.2,15,2.4,22.5,3.6
		c10.3,1.6,20.6,3.3,31,5c1.8,0.3,3.7,0.6,5.5,0.9v-3.9c-1.1-0.2-2.2-0.4-3.2-0.5C1898.2,389.9,1879.7,387,1861.5,384L1861.5,384z"
		/>
	<path d="M257.8,494.3c7.3-2.9,14.6-5.7,21.8-8.6c36.8-14.5,72.6-28.5,107.2-42.1c9.5-3.7,18.9-7.4,28.2-11.1
		c31.3-12.3,61.7-24.2,91.1-35.8c16.2-6.4,32.1-12.6,47.7-18.7c17.5-6.9,34.5-13.6,51.2-20.1c22-10,43.5-19.6,64.4-29.1
		c-9,3.3-17.9,6.6-26.7,10.1c-43.1,16.9-89.2,35-137.9,54.2c-25.6,10.1-52,20.5-79.1,31.1c-13.2,5.2-26.5,10.4-40,15.7
		c-10.2,4-20.5,8.1-31,12.2c-31.8,12.5-64.5,25.3-98,38.5c-7.4,2.9-14.9,5.9-22.5,8.8C197.1,514,159,528.9,120,544.3
		c-6.4,2.5-12.8,5-19.2,7.5c-32.8,12.9-66.2,26-100.3,39.4v4.2c41-16.1,81.2-31.9,120.5-47.3c6.3-2.5,12.6-5,18.9-7.4
		C180.2,524.8,219.5,509.3,257.8,494.3L257.8,494.3z"/>
	<path d="M1040.6,256.5c28.7-1.8,57.5-2.7,86.3-2.7c40,0,80,1.7,119.4,5.2c68.6,6,136,17.3,200.4,33.5
		c61.4,15.5,128.8,32.4,201.4,50.7c-4.9-2.6-9.8-5.1-14.7-7.7c-66.7-16.8-128.8-32.4-185.8-46.8c-64.5-16.3-132.2-27.6-201-33.6
		c-68-6-137.4-6.8-206.3-2.5c-68.9,4.3-137.5,13.7-203.9,28.1c-31.3,6.8-62.2,14.6-92.5,23.6c-6,3.2-12.1,6.4-18.3,9.6
		c36.3-11.3,73.7-21.2,111.6-29.4C903.4,270.2,971.9,260.8,1040.6,256.5L1040.6,256.5z"/>
	<path d="M670.8,332.4c11-4,22-7.9,33.2-11.6c6.8-3.6,13.5-7.1,20.2-10.6c-4.9,1.5-9.9,3.1-14.8,4.7
		C696.8,320.7,683.9,326.5,670.8,332.4L670.8,332.4z"/>
	<path d="M1664.2,347.3c6.5,1.6,13.1,3.3,19.7,5c-11.4-4.2-22.7-8.4-33.8-12.5c-0.2,0-0.3-0.1-0.5-0.1
		C1654.4,342.1,1659.3,344.7,1664.2,347.3L1664.2,347.3z"/>
	<path d="M1898.1,402.2c-9.7-2.5-19.4-4.9-29-7.3c-6-1.5-12-3-17.9-4.5c-7-1.8-13.9-3.5-20.8-5.2c-7.9-2-15.9-4-23.7-6
		c-14.6-3.7-28.9-7.3-43.2-10.9c-26.8-6.7-52.9-13.3-78.5-19.8c11.2,4.1,22.4,8.3,33.8,12.5c0.2,0.1,0.5,0.1,0.7,0.2
		c14.2,3.6,28.6,7.2,43.2,10.9c6.2,1.6,12.5,3.1,18.8,4.7c8,2,16,4,24.1,6.1c9,2.3,18,4.5,27.1,6.8c6,1.5,11.9,3,17.9,4.5
		c10.6,2.7,21.3,5.4,32,8.1c5,1.2,10,2.5,15,3.8c7.4,1.9,14.9,3.8,22.4,5.6v-4c-2.3-0.6-4.6-1.2-6.9-1.8
		C1908.1,404.7,1903.1,403.4,1898.1,402.2L1898.1,402.2z"/>
	<path d="M120.7,580.7c4.4-2,8.9-4,13.3-6c36.1-16.3,71.5-32.3,106.1-47.9c4.6-2.1,9.3-4.2,13.9-6.3c34.9-15.8,69.1-31.2,102.5-46.3
		c5-2.3,10.1-4.5,15.1-6.8c32.9-14.9,65.1-29.4,96.3-43.5c5.8-2.6,11.6-5.3,17.4-7.9c30.2-13.6,59.5-26.9,88-39.7
		c7.6-3.4,15.2-6.8,22.6-10.2c25.7-11.6,50.7-22.9,74.8-33.8c13.1-5.9,26-11.7,38.6-17.4c14.1-6.4,28-12.6,41.5-18.7
		c18.2-9.5,35.8-18.8,53-27.8c-7.3,3-14.6,6.2-21.8,9.4c-35.2,15.9-72.9,32.9-112.7,50.9c-20.9,9.4-42.3,19.1-64.4,29.1
		c-10.8,4.9-21.8,9.8-32.9,14.9c-8.2,3.7-16.5,7.5-24.9,11.2c-26.1,11.8-52.9,23.9-80.4,36.3c-6,2.7-12,5.4-18,8.1
		c-30.3,13.7-61.5,27.8-93.4,42.1c-5.1,2.3-10.2,4.6-15.3,6.9c-33,14.9-66.7,30.1-101.1,45.6c-4.7,2.1-9.3,4.2-14,6.3
		c-34.4,15.5-69.6,31.4-105.4,47.6c-4.4,2-8.9,4-13.3,6c-34.7,15.6-69.9,31.6-105.7,47.7v4.2c3.9-1.8,7.8-3.5,11.7-5.3
		C49,613.1,85.2,596.7,120.7,580.7L120.7,580.7z"/>
	<path d="M1105.4,207.2c10.2-0.4,20.3-0.5,30.5-0.5c45.3,0,90.7,3.5,135.1,10.5c55.1,8.7,109.1,22.7,160.4,41.7
		c57.1,21.1,120.5,44.5,189.4,70c-9-4.7-17.9-9.4-26.7-14c-58.1-21.5-112.1-41.4-161.3-59.6c-51.6-19.1-105.8-33.2-161.2-41.9
		c-54.7-8.6-110.7-12-166.4-10c-55.7,1.9-111.3,9.2-165.3,21.6c-35.1,8.1-69.6,18.3-103.1,30.6c-10.2,5.4-20.7,10.9-31.4,16.5
		c43.4-18.1,88.9-32.6,135.4-43.3C994.5,216.3,1049.9,209.1,1105.4,207.2L1105.4,207.2z"/>
	<path d="M1880.9,421c-3.2-1.2-6.3-2.3-9.5-3.5c-10-3.7-20-7.4-29.8-11c-3.4-1.3-6.9-2.5-10.3-3.8c-9.2-3.4-18.2-6.8-27.3-10.1
		c-3.9-1.4-7.8-2.9-11.6-4.3c-7.9-2.9-15.7-5.8-23.5-8.7c-4.7-1.7-9.3-3.4-13.9-5.1c-5.7-2.1-11.4-4.2-17.1-6.3
		c-6.3-2.3-12.6-4.6-18.8-6.9c-0.1,0-0.2-0.1-0.3-0.1c-11.4-4.2-22.7-8.4-33.8-12.5c-21.3-7.9-42.2-15.6-62.6-23.1
		c8.8,4.6,17.7,9.3,26.7,14c0.3,0.1,0.6,0.2,0.9,0.3c11.1,4.1,22.4,8.3,33.8,12.5c5.2,1.9,10.3,3.8,15.5,5.7
		c6.2,2.3,12.5,4.6,18.8,6.9c7.3,2.7,14.7,5.4,22.1,8.2c4.6,1.7,9.3,3.4,13.9,5.1c8.6,3.2,17.2,6.4,25.9,9.6
		c3.9,1.4,7.7,2.9,11.6,4.3c9.5,3.5,19,7,28.7,10.6c3.4,1.3,6.8,2.5,10.3,3.8c10.2,3.8,20.4,7.5,30.7,11.4c3.1,1.2,6.3,2.3,9.5,3.5
		c10.7,4,21.5,7.9,32.3,12c3,1.1,5.9,2.2,8.9,3.3c2.6,1,5.3,2,7.9,2.9v-4.1c-2.5-0.9-4.9-1.8-7.4-2.7
		C1902,428.7,1891.4,424.8,1880.9,421L1880.9,421z"/>
	<path d="M1905.1,473.5c-9.4-4.9-18.7-9.8-28-14.7c-2.1-1.1-4.2-2.2-6.3-3.3c-9.2-4.8-18.3-9.6-27.4-14.4c-2.2-1.1-4.4-2.3-6.6-3.5
		c-8.9-4.7-17.8-9.3-26.6-13.9c-2.3-1.2-4.6-2.4-6.9-3.6c-8.5-4.5-17-8.9-25.4-13.3c-2.4-1.3-4.9-2.5-7.3-3.8
		c-8.1-4.2-16-8.4-24-12.6c-2.7-1.4-5.3-2.8-7.9-4.2c-7.4-3.9-14.7-7.7-21.9-11.5c-3-1.6-6-3.1-9-4.7c-6.4-3.3-12.7-6.6-19-9.9
		c-3.6-1.9-7.2-3.8-10.8-5.7c-4.6-2.4-9.3-4.9-13.8-7.3c-4.9-2.6-9.8-5.1-14.7-7.7c-0.1-0.1-0.3-0.1-0.4-0.2
		c-9-4.7-17.9-9.4-26.7-14c-74.4-39-141.7-74.3-200.7-105.2l0,0c-41.1-21.6-84.4-38-128.8-49c-43.9-10.8-88.9-16.3-134-16.3
		s-90.1,5.5-134,16.3c-44.4,11-87.8,27.5-128.9,49c-28.5,15-59.4,31.1-92.2,48.3c-17.1,9-34.8,18.2-53,27.8
		c-8.8,4.6-17.7,9.3-26.7,14c-6.7,3.5-13.4,7-20.2,10.6c-21.4,11.2-43.4,22.8-66,34.6c-4.8,2.5-9.6,5-14.5,7.6
		c-24.9,13-50.5,26.4-76.7,40.2c-4.1,2.1-8.1,4.3-12.2,6.4c-26.9,14.1-54.6,28.6-82.8,43.4c-3.7,1.9-7.4,3.9-11.2,5.9
		c-28.3,14.8-57.3,30-86.8,45.5c-3.5,1.9-7.1,3.7-10.6,5.6c-29.1,15.2-58.7,30.8-88.8,46.5c-3.4,1.8-6.9,3.6-10.4,5.4
		c-29.4,15.4-59.4,31.1-89.7,47c-3.4,1.8-6.8,3.6-10.2,5.4c-29.5,15.4-59.3,31.1-89.5,46.9c-3.4,1.8-6.8,3.6-10.2,5.3
		c-14.5,7.6-29.1,15.2-43.7,22.9v4.4c18.5-9.7,36.9-19.3,55.2-28.9c3.4-1.8,6.8-3.6,10.2-5.3c30.2-15.8,60.1-31.5,89.6-47
		c3.4-1.8,6.8-3.6,10.2-5.4c30.4-15.9,60.4-31.7,89.9-47.1c3.5-1.8,6.9-3.6,10.4-5.4c30.2-15.8,60-31.4,89.1-46.7
		c3.5-1.9,7.1-3.7,10.6-5.6c29.7-15.6,58.9-30.9,87.4-45.8c3.7-2,7.4-3.9,11.1-5.8c28.7-15,56.7-29.7,84-44c4-2.1,8.1-4.2,12.1-6.3
		c27.1-14.2,53.5-28,79.1-41.5c4.7-2.5,9.3-4.9,14-7.3c24.9-13,49-25.7,72.3-37.9c6.1-3.2,12.2-6.4,18.3-9.6
		c21.2-11.1,41.8-21.9,61.5-32.2c10.7-5.6,21.2-11.1,31.4-16.5c21.3-11.2,41.6-21.8,61-31.9c40.9-21.4,84-37.8,128.1-48.7
		c43.6-10.8,88.4-16.2,133.1-16.2s89.5,5.5,133,16.2c44.1,10.9,87.2,27.3,128,48.7l0,0c51.9,27.2,110.2,57.8,174.1,91.3
		c8.8,4.6,17.7,9.3,26.7,14c4.2,2.2,8.4,4.4,12.7,6.6c4.9,2.5,9.8,5.1,14.7,7.7c5.9,3.1,11.9,6.2,17.9,9.4c3.6,1.9,7.2,3.8,10.8,5.7
		c6.9,3.6,13.9,7.3,20.9,11c3,1.6,6,3.1,9,4.7c7.6,4,15.3,8,23.1,12.1c2.6,1.4,5.3,2.8,7.9,4.2c8.2,4.3,16.4,8.6,24.7,12.9
		c2.4,1.3,4.8,2.5,7.3,3.8c8.6,4.5,17.2,9,25.9,13.6c2.3,1.2,4.6,2.4,6.9,3.6c8.9,4.7,17.9,9.4,26.9,14.1c2.2,1.1,4.4,2.3,6.6,3.5
		c9.2,4.8,18.4,9.6,27.7,14.5c2.1,1.1,4.2,2.2,6.3,3.3c9.3,4.9,18.7,9.8,28.2,14.8c2.1,1.1,4.1,2.2,6.2,3.2
		c5.2,2.7,10.4,5.5,15.6,8.2v-4.4c-2.9-1.5-5.8-3-8.7-4.5C1909.3,475.7,1907.2,474.6,1905.1,473.5L1905.1,473.5z"/>
</g>
</svg>
