<?xml version="1.0" encoding="utf-8"?>
<!-- Generator: Adobe Illustrator 27.2.0, SVG Export Plug-In . SVG Version: 6.00 Build 0)  -->
<svg version="1.1" id="Livello_1" xmlns="http://www.w3.org/2000/svg" xmlns:xlink="http://www.w3.org/1999/xlink" x="0px" y="0px"
	 viewBox="0 0 1920 1080" style="enable-background:new 0 0 1920 1080;" xml:space="preserve">
<g>
	<path d="M23.5,30.1C15.7,30,7.8,29.9,0,29.8v4c10.7,0.2,21.5,0.4,32.2,0.5C29.3,32.9,26.4,31.5,23.5,30.1z"/>
	<path d="M33.1,30.3c2.9,1.4,5.8,2.8,8.7,4.2c494.5,8.3,1008.9,12.7,1521.6,12.7c118.9,0,237.8-0.2,356.6-0.7v-4
		c-118.8,0.5-237.8,0.7-356.6,0.7C1047.7,43.1,530.3,38.8,33.1,30.3L33.1,30.3z"/>
	<path d="M117.7,75.2c-39.4-1-78.7-2-117.7-3.1v4c41.9,1.2,84.1,2.3,126.5,3.4C123.6,78,120.7,76.6,117.7,75.2z"/>
	<path d="M127.5,75.5c2.9,1.4,5.9,2.8,8.8,4.2c459.1,11.6,944,17.6,1427.1,17.6c118.9,0,237.9-0.4,356.6-1.1v-4
		c-118.7,0.7-237.7,1.1-356.6,1.1C1077.2,93.2,589.2,87.2,127.5,75.5z"/>
	<path d="M210,119.4c-68.2-2.6-135.6-5.4-201.9-8.4c4,1.5,8,3,12,4.6c65.3,2.9,131.7,5.7,198.9,8.2
		C216.1,122.3,213.1,120.8,210,119.4z"/>
	<path d="M220.1,119.8c3,1.4,6.1,2.9,9.1,4.3c423.1,15.9,879.7,24.3,1334.2,24.3c118.9,0,238-0.6,356.6-1.7v-4
		c-118.6,1.1-237.7,1.7-356.6,1.7C1105.6,144.4,645.8,135.9,220.1,119.8L220.1,119.8z"/>
	<path d="M7.4,114.9c-2.5-0.9-4.9-1.9-7.4-2.8v2.4c0.7,0,1.3,0.1,2,0.1C3.8,114.8,5.6,114.8,7.4,114.9L7.4,114.9z"/>
	<path d="M309.4,162.5c3.2,1.5,6.3,3,9.5,4.6c386.8,22,816.8,33.6,1244.5,33.6c119,0,238.2-0.9,356.6-2.7v-4
		c-118.4,1.8-237.6,2.7-356.6,2.7C1132.1,196.6,698.6,184.8,309.4,162.5L309.4,162.5z"/>
	<path d="M101.5,150.5c-33.3-1.9-67.2-3.9-101.5-5.8v4c38.6,2.2,76.6,4.4,114,6.6C109.8,153.7,105.7,152.1,101.5,150.5L101.5,150.5z
		"/>
	<path d="M308.4,166.4c-3.2-1.5-6.3-3-9.5-4.6c-59.5-3.4-120.9-6.9-184-10.6c4.2,1.6,8.3,3.1,12.5,4.7
		c60.6,3.5,119.6,6.9,176.8,10.2C305.6,166.3,307,166.3,308.4,166.4L308.4,166.4z"/>
	<path d="M548.1,214.8c-49.3-3.6-100.3-7.3-152.7-11.1c3.3,1.6,6.6,3.1,9.9,4.7c48.9,3.6,96.4,7,142.5,10.4
		c315,23,666.2,35.1,1015.5,35.1c119.2,0,238.5-1.4,356.6-4.2v-4c-118.1,2.8-237.5,4.2-356.6,4.2
		C1214.1,249.9,863,237.7,548.1,214.8L548.1,214.8z"/>
	<path d="M4.7,175.2c-1.5-0.1-3.1-0.2-4.7-0.3v4c7.5,0.6,14.9,1.1,22.4,1.6C16.5,178.7,10.6,177,4.7,175.2z"/>
	<path d="M384.5,202.8c-53.5-3.9-108.5-7.9-165.1-12c4.4,1.7,8.8,3.3,13.1,5c55.4,4,109.4,8,161.8,11.8
		C391,206,387.7,204.4,384.5,202.8z"/>
	<path d="M205.4,189.8c-59.1-4.3-119.9-8.7-182.2-13.3c5.9,1.8,11.8,3.5,17.7,5.3c60.7,4.4,120,8.7,177.6,12.9
		C214.2,193.1,209.8,191.5,205.4,189.8L205.4,189.8z"/>
	<path d="M744.7,268.4c-82.9-7.6-171.4-15.8-265-24.4c3.5,1.7,6.9,3.3,10.4,5c89.6,8.2,174.5,16.1,254.2,23.4
		c254.1,23.4,537.3,35.8,819,35.8c119.4,0,239-2.2,356.6-6.6v-4c-117.6,4.4-237.3,6.6-356.6,6.6
		C1281.7,304.2,998.6,291.8,744.7,268.4L744.7,268.4z"/>
	<path d="M306.5,228c-52.2-4.8-105.7-9.7-160.5-14.8c6.5,1.9,13,3.9,19.4,5.8c52.9,4.9,104.7,9.6,155.1,14.3
		C315.8,231.6,311.1,229.8,306.5,228z"/>
	<path d="M468.2,242.9c-47.6-4.4-96.6-8.9-146.8-13.5c4.7,1.8,9.4,3.5,14,5.3c49,4.5,96.7,8.9,143.2,13.2
		C475.2,246.2,471.7,244.6,468.2,242.9L468.2,242.9z"/>
	<path d="M125.7,211.4c-41.2-3.8-83.1-7.7-125.7-11.6v4c49.3,4.5,97.7,9,145.2,13.4C138.7,215.2,132.2,213.3,125.7,211.4
		L125.7,211.4z"/>
	<path d="M404.1,264.9c-45.5-5.3-92-10.7-139.6-16.3c7.4,2.2,14.8,4.4,22.1,6.6c45.3,5.3,89.6,10.4,132.9,15.5
		C414.4,268.8,409.2,266.9,404.1,264.9L404.1,264.9z"/>
	<path d="M59.4,224.8c-19.7-2.3-39.5-4.6-59.4-6.9v4c31.4,3.7,62.4,7.3,93.1,10.9C81.9,230.1,70.7,227.4,59.4,224.8L59.4,224.8z"/>
	<path d="M241.6,246c-48.2-5.6-97.5-11.4-147.8-17.2c11.3,2.7,22.5,5.3,33.7,7.9c46.3,5.4,91.7,10.7,136.2,15.9
		C256.4,250.4,249,248.2,241.6,246z"/>
	<path d="M549.7,281.9c-42-4.9-85.1-9.9-129.3-15.1c5.1,1.9,10.3,3.9,15.4,5.8c42.7,5,84.4,9.8,125,14.6
		C557.1,285.5,553.4,283.7,549.7,281.9L549.7,281.9z"/>
	<path d="M903.2,323.1c-103.5-12.1-217.6-25.4-341.2-39.8c3.7,1.8,7.4,3.5,11.1,5.3c119.2,13.9,229.4,26.7,329.6,38.4
		c204.9,23.9,433.4,36.6,660.6,36.6c119.7,0,239.8-3.5,356.6-10.3v-4c-116.8,6.8-236.9,10.3-356.6,10.3
		C1336.3,359.7,1108,347,903.2,323.1L903.2,323.1z"/>
	<path d="M182.2,253.8c-37.9-5.6-76.5-11.3-115.5-17c34.8,6.5,69.3,12.9,103.3,19.3c19.4,2.9,38.7,5.7,57.8,8.5
		C212.7,261,197.5,257.4,182.2,253.8z"/>
	<path d="M0,228.3v2.6c22.2,3.3,44.2,6.5,66.1,9.8C44.2,236.6,22.2,232.5,0,228.3z"/>
	<path d="M497.5,300.3c-38.9-5.7-78.6-11.6-119.1-17.6c8.9,2.7,17.8,5.3,26.7,8c37.4,5.5,74,10.9,110,16.2
		C509.2,304.7,503.4,302.5,497.5,300.3z"/>
	<path d="M1031.1,379c-114.4-16.9-245-36.1-389.2-57.4c4.1,2,8.2,3.9,12.2,5.9c139.2,20.5,265.4,39.1,376.4,55.5
		c165.3,24.4,349.6,37.3,532.9,37.3c120.3,0,241.1-5.6,356.6-16.3v-4c-115.6,10.7-236.3,16.3-356.6,16.3
		C1380.3,416.2,1196.2,403.4,1031.1,379L1031.1,379z"/>
	<path d="M628.5,319.6c-36.6-5.4-74.1-10.9-112.4-16.6c5.9,2.2,11.7,4.4,17.5,6.6c36.5,5.4,72.2,10.6,107.1,15.8
		C636.6,323.5,632.5,321.5,628.5,319.6L628.5,319.6z"/>
	<path d="M350.8,278.6c-40-5.9-80.7-11.9-122.2-18c15.3,3.6,30.5,7.2,45.6,10.8c35,5.2,69.4,10.2,103.3,15.2
		C368.6,284,359.7,281.3,350.8,278.6L350.8,278.6z"/>
	<path d="M449.9,308.2c-30.7-5.7-61.8-11.5-93.4-17.4c27.7,6.5,55.1,13,82.1,19.4c15.9,3,31.8,5.9,47.5,8.9
		C474.1,315.5,462.1,311.9,449.9,308.2L449.9,308.2z"/>
	<path d="M1134.2,436C1015.9,413.9,876,387.8,719,358.5c4.7,2.2,9.3,4.5,13.9,6.7c151.1,28.2,285.9,53.4,400.6,74.8
		c133.3,24.9,282,38.1,429.9,38.1c121.3,0,243.1-8.9,356.6-25.8v-4c-113.5,17-235.3,25.8-356.6,25.8
		C1415.7,474,1267.4,460.8,1134.2,436L1134.2,436z"/>
	<path d="M355.7,294.7c-27.1-6.4-54.5-12.9-82.1-19.4C239.5,269,205,262.5,170,256c-34-6.4-68.5-12.8-103.3-19.3
		c-22.1-4.1-44.3-8.3-66.7-12.5v4.1c22.2,4.1,44.2,8.2,66.1,12.3C166,259.3,262.8,277.4,355.7,294.7L355.7,294.7z"/>
	<path d="M703.8,355.6c-31.3-5.8-63.3-11.8-95.9-17.9c7.1,2.7,14.2,5.4,21.2,8c30.1,5.6,59.6,11.1,88.6,16.5
		C713.1,360.1,708.5,357.9,703.8,355.6L703.8,355.6z"/>
	<path d="M585.6,333.6c-32.2-6-65.1-12.1-98.5-18.4c12.1,3.6,24.2,7.2,36.3,10.8c28.2,5.3,56.1,10.5,83.5,15.6
		C599.8,338.9,592.7,336.3,585.6,333.6L585.6,333.6z"/>
	<path d="M774.8,389.6c-25.9-6.1-52.3-12.4-79.2-18.7c9.7,3.7,19.4,7.3,29,11c22.7,5.4,45.1,10.7,67.2,15.9
		C786.1,395,780.5,392.3,774.8,389.6z"/>
	<path d="M665.5,363.8c-24.7-5.8-49.8-11.8-75.2-17.8c22.1,6.6,44,13.1,65.6,19.6c13,3.1,25.8,6.1,38.5,9.1
		C684.9,371.1,675.2,367.4,665.5,363.8L665.5,363.8z"/>
	<path d="M1563.4,532.9c-119,0-238.6-13.4-345.9-38.8c-117.4-27.7-261-61.6-424.4-100.2c5.7,2.7,11.3,5.4,17,8.1
		c156,36.8,293.4,69.3,406.5,96c107.6,25.4,227.5,38.9,346.8,38.9s239.3-13.5,347-38.9c3.2-0.8,6.4-1.5,9.7-2.3v-4.1
		c-3.6,0.8-7.1,1.7-10.6,2.5C1802,519.5,1682.4,532.9,1563.4,532.9L1563.4,532.9z"/>
	<path d="M93.1,232.7c30,7.1,59.7,14.1,89.1,21.1c15.3,3.6,30.5,7.2,45.6,10.8c15.3,3.6,30.5,7.2,45.7,10.8
		c27.7,6.5,55,13,82.1,19.4c80.6,19,158.6,37.5,233.6,55.2c-21.6-6.5-43.5-13-65.6-19.6c-28-6.6-56.3-13.3-85-20.1
		c-27.1-6.4-54.5-12.9-82.1-19.4c-27.2-6.4-54.6-12.9-82.4-19.5c-15.1-3.6-30.3-7.2-45.6-10.8c-33.3-7.9-67.1-15.8-101.1-23.9
		c-11.2-2.6-22.4-5.3-33.7-7.9c-31-7.3-62.3-14.7-93.8-22.1v4.1c19.9,4.7,39.7,9.4,59.4,14C70.7,227.4,81.9,230.1,93.1,232.7
		L93.1,232.7z"/>
	<path d="M1842.2,553.5c-86.6,25.9-183,39.5-278.9,39.5s-192.3-13.7-278.8-39.5c-113.1-33.8-256.2-76.6-420.8-125.7
		c7.8,3.7,15.5,7.4,23.2,11.1c154.3,46.1,288.9,86.3,396.4,118.4c86.8,26,183.6,39.7,279.9,39.7s193.1-13.7,280-39.7
		c24.2-7.2,49.8-14.9,76.6-22.9v-4.2C1892.8,538.4,1866.8,546.1,1842.2,553.5L1842.2,553.5L1842.2,553.5z"/>
	<path d="M839.1,420.4c-19.8-5.9-39.9-11.9-60.3-18c17.8,6.7,35.3,13.4,52.7,19.9c10.4,3.1,20.7,6.2,30.9,9.2
		C854.7,427.8,846.9,424.1,839.1,420.4z"/>
	<path d="M22.4,180.5c34.7,10.4,69.2,20.7,103.3,30.9c6.5,1.9,13,3.9,19.4,5.8c32.4,9.7,64.6,19.3,96.4,28.8
		c7.4,2.2,14.8,4.4,22.1,6.6c29.3,8.8,58.3,17.4,87.1,26c8.9,2.7,17.8,5.3,26.7,8c24.4,7.3,48.5,14.5,72.4,21.6
		c12.1,3.6,24.2,7.2,36.3,10.8c12.6,3.8,25.1,7.5,37.5,11.2c22.1,6.6,44,13.1,65.6,19.6c65,19.4,127.9,38.2,188.3,56.3
		c-17.4-6.6-34.9-13.2-52.7-19.9c-22.7-6.8-45.7-13.7-69-20.6c-21.6-6.5-43.5-13-65.6-19.6c-22.1-6.6-44.4-13.3-66.9-20
		c-12-3.6-24.1-7.2-36.3-10.8c-27-8.1-54.4-16.2-82-24.5c-8.9-2.6-17.8-5.3-26.7-8c-30.3-9-60.9-18.2-91.8-27.4
		c-7.4-2.2-14.7-4.4-22.1-6.6c-32.8-9.8-65.8-19.7-99.1-29.6c-6.5-1.9-12.9-3.9-19.4-5.8c-34.7-10.4-69.8-20.9-105.1-31.4
		c-5.9-1.8-11.8-3.5-17.7-5.3c-7.7-2.3-15.4-4.6-23.1-6.9v4.2c1.6,0.5,3.1,0.9,4.7,1.4C10.6,177,16.5,178.7,22.4,180.5L22.4,180.5z"
		/>
	<path d="M1563.4,654.4c-77.2,0-154.9-13.9-224.6-40.3C1232.3,573.8,1092.6,521,931,459.9c14.4,6.9,28.6,13.7,42.6,20.4
		c143,54.1,267.1,101,363.8,137.5c70.1,26.5,148.2,40.6,226,40.6s155.9-14,226.1-40.6c39.3-14.9,83-31.4,130.6-49.4v-4.3
		c-48.1,18.2-92.3,34.9-132,49.9C1718.3,640.4,1640.6,654.4,1563.4,654.4L1563.4,654.4z"/>
	<path d="M101.5,150.5c4.2,1.6,8.3,3.1,12.5,4.7c30.6,11.6,61.1,23.1,91.4,34.6c4.4,1.7,8.8,3.3,13.1,5
		c29.5,11.1,58.8,22.2,87.9,33.2c4.7,1.8,9.4,3.5,14,5.3c28.1,10.6,55.9,21.1,83.6,31.6c5.1,1.9,10.3,3.9,15.4,5.8
		c26.2,9.9,52.3,19.8,78.1,29.5c5.9,2.2,11.7,4.4,17.5,6.6c23.7,9,47.2,17.9,70.5,26.7c7.1,2.7,14.2,5.4,21.2,8
		c19.7,7.5,39.3,14.9,58.7,22.2c9.7,3.7,19.3,7.3,29,11c10.2,3.9,20.4,7.7,30.5,11.5c17.7,6.7,35.3,13.3,52.7,19.9
		c52.4,19.8,103.1,39,151.8,57.4c-14.1-6.7-28.3-13.5-42.6-20.4c-18.2-6.9-36.6-13.8-55.3-20.9c-17.3-6.6-34.9-13.2-52.7-19.9
		c-17.9-6.8-36-13.6-54.3-20.5c-9.6-3.6-19.3-7.3-29-11c-21.9-8.3-44.1-16.7-66.5-25.1c-7.1-2.7-14.1-5.4-21.2-8
		c-24.5-9.3-49.3-18.6-74.3-28.1c-5.8-2.2-11.7-4.4-17.5-6.6c-26.5-10-53.3-20.1-80.2-30.3c-5.1-1.9-10.3-3.9-15.4-5.8
		c-28.1-10.6-56.5-21.3-85-32.1c-4.7-1.8-9.4-3.5-14-5.3c-29.4-11.1-59.1-22.3-88.9-33.6c-4.4-1.6-8.8-3.3-13.1-5
		c-30.5-11.5-61.2-23.1-92.1-34.8c-4.2-1.6-8.3-3.1-12.5-4.7c-31.4-11.9-63-23.8-94.6-35.8c-4-1.5-8-3-12-4.6
		c-2.7-1-5.4-2.1-8.2-3.1v4.3c2.5,0.9,4.9,1.9,7.4,2.8C38.8,126.8,70.2,138.7,101.5,150.5L101.5,150.5z"/>
	<path d="M32.2,34.3c28.5,13.6,57,27.3,85.5,40.9c2.9,1.4,5.9,2.8,8.8,4.2c27.8,13.3,55.7,26.6,83.5,39.9c3,1.4,6.1,2.9,9.1,4.3
		c26.6,12.7,53.2,25.5,79.7,38.1c3.2,1.5,6.3,3,9.5,4.6c25.5,12.2,50.8,24.3,76.1,36.4c3.3,1.6,6.6,3.1,9.9,4.7
		c24.7,11.8,49.4,23.6,73.9,35.4c3.5,1.7,6.9,3.3,10.4,5c23.8,11.4,47.5,22.8,71.1,34c3.7,1.8,7.4,3.5,11.1,5.3
		c22.7,10.9,45.2,21.6,67.6,32.3c4.1,2,8.2,3.9,12.2,5.9c21.2,10.1,42.3,20.2,63.1,30.2c4.7,2.2,9.3,4.5,13.9,6.7
		c19.2,9.2,38.2,18.3,57,27.3c5.7,2.7,11.3,5.4,17,8.1c15.9,7.6,31.7,15.2,47.4,22.7c7.8,3.7,15.5,7.4,23.2,11.1
		c8.2,3.9,16.3,7.8,24.4,11.7c14.3,6.9,28.6,13.7,42.6,20.4c182.4,87.3,339.5,162.4,451.4,216c56.6,27.1,119.7,41.5,182.5,41.5
		s125.9-14.3,182.6-41.5c49.8-23.8,108.4-51.9,174-83.2v-4.4c-66.3,31.7-125.5,60-175.8,84.1l0,0c-56.1,26.9-118.7,41.1-180.9,41.1
		s-124.7-14.2-180.8-41.1c-103.1-49.3-244.7-117-409-195.6c-14-6.7-28.3-13.5-42.6-20.4c-14.5-6.9-29.1-13.9-43.9-21
		c-7.7-3.7-15.5-7.4-23.2-11.1c-17.7-8.5-35.7-17.1-53.8-25.7c-5.6-2.7-11.3-5.4-17-8.1c-19.8-9.5-39.9-19.1-60.1-28.8
		c-4.6-2.2-9.3-4.4-13.9-6.7c-21.4-10.3-43.1-20.6-64.9-31.1c-4.1-2-8.1-3.9-12.2-5.9c-22.7-10.9-45.7-21.8-68.7-32.9
		c-3.7-1.8-7.4-3.5-11.1-5.3c-23.8-11.4-47.8-22.9-71.9-34.4c-3.5-1.7-6.9-3.3-10.4-5c-24.7-11.8-49.5-23.7-74.4-35.6
		c-3.3-1.6-6.6-3.1-9.9-4.7c-25.4-12.2-50.9-24.4-76.5-36.6c-3.2-1.5-6.3-3-9.5-4.6c-26.7-12.8-53.4-25.6-80.2-38.4
		c-3-1.4-6.1-2.9-9.1-4.3c-27.9-13.3-55.8-26.7-83.8-40.1c-2.9-1.4-5.9-2.8-8.8-4.2c-28.6-13.7-57.2-27.3-85.7-41
		c-2.9-1.4-5.8-2.8-8.7-4.1C22.1,25,11,19.7,0,14.5v4.4c7.8,3.8,15.7,7.5,23.5,11.3C26.4,31.5,29.3,32.9,32.2,34.3z"/>
</g>
</svg>
