<?xml version="1.0" encoding="utf-8"?>
<!-- Generator: Adobe Illustrator 27.2.0, SVG Export Plug-In . SVG Version: 6.00 Build 0)  -->
<svg version="1.1" id="Livello_1" xmlns="http://www.w3.org/2000/svg" xmlns:xlink="http://www.w3.org/1999/xlink" x="0px" y="0px"
	 viewBox="0 0 1920 1080" style="enable-background:new 0 0 1920 1080;" xml:space="preserve">
<style type="text/css">
	.st0{fill:#1D1D1B;}
</style>
<g>
	<path class="st0" d="M1164.8,500c51.3-7.5,102.5-15,153.6-22.5c-3.8-0.6-7.7-1.2-11.5-1.8c-50.2,7.3-100.6,14.7-151,22.1
		C1158.9,498.5,1161.8,499.2,1164.8,500z"/>
	<path class="st0" d="M1504.2,446.9c5,0.4,9.9,0.9,14.9,1.4c36.3-5.3,72.6-10.6,108.8-15.8c29.2-4.2,58.4-8.5,87.8-12.8
		c-6.5-0.2-13-0.5-19.5-0.7c-23,3.3-46,6.7-68.8,10C1586.4,434.9,1545.3,440.9,1504.2,446.9z"/>
	<path class="st0" d="M1735,416.9c61.3-8.9,122.9-17.9,185-26.9v-3.5c-68.7,10-136.8,19.9-204.5,29.7
		C1722,416.4,1728.5,416.6,1735,416.9z"/>
	<path class="st0" d="M896.5,539.4c39.2-5.8,78.3-11.5,117.4-17.3c-2.3-0.8-4.5-1.7-6.8-2.5c-38.6,5.7-77.2,11.3-115.8,17
		C893,537.5,894.7,538.4,896.5,539.4z"/>
	<path class="st0" d="M1021.1,521c45-6.6,89.9-13.2,134.7-19.7c-3-0.7-5.9-1.5-8.8-2.2c-44.2,6.5-88.4,12.9-132.7,19.5
		C1016.5,519.4,1018.8,520.2,1021.1,521z"/>
	<path class="st0" d="M1330,475.8c58.2-8.5,116.3-17,174.3-25.4c-5-0.5-10-0.9-14.9-1.4c-56.8,8.3-113.8,16.6-170.9,24.9
		C1322.3,474.6,1326.1,475.2,1330,475.8z"/>
	<path class="st0" d="M885.4,537.5c-292.6,43-588,86.8-885.4,131.2v3.5c299.2-44.7,596.3-88.7,890.6-132
		C888.9,539.3,887.1,538.4,885.4,537.5z"/>
	<path class="st0" d="M920.8,552.1c41.6-6.1,83.2-12.2,124.7-18.3c-2.3-0.8-4.5-1.7-6.8-2.5c-41,6-82,12-123.1,18.1
		C917.3,550.3,919.1,551.2,920.8,552.1z"/>
	<path class="st0" d="M909.7,550.2C609.2,594.4,305.7,639.4,0,685v3.5c307.5-45.9,612.8-91.1,915-135.6
		C913.2,552.1,911.5,551.2,909.7,550.2z"/>
	<path class="st0" d="M1825.7,420.1c31.3-4.6,62.8-9.1,94.3-13.7v-3.5c-38.1,5.5-76,11-113.7,16.5
		C1812.7,419.7,1819.2,419.9,1825.7,420.1z"/>
	<path class="st0" d="M1052.8,532.8c48.1-7.1,96.2-14.1,144.1-21.1c-2.9-0.7-5.9-1.5-8.8-2.2c-47.3,6.9-94.7,13.9-142.1,20.8
		C1048.2,531.1,1050.5,531.9,1052.8,532.8z"/>
	<path class="st0" d="M1383.4,484.4c63.6-9.3,127.1-18.5,190.4-27.7c-5-0.5-9.9-0.9-14.9-1.3c-62.2,9-124.5,18.1-187,27.2
		C1375.8,483.2,1379.6,483.8,1383.4,484.4z"/>
	<path class="st0" d="M1573.8,453.2c5,0.4,9.9,0.9,14.9,1.3c1.5-0.2,3-0.4,4.6-0.7c70.5-10.2,141.5-20.6,213.1-30.9
		c-6.5-0.2-12.9-0.5-19.4-0.7c-65.2,9.5-129.9,18.9-194.2,28.2C1586.4,451.4,1580.1,452.3,1573.8,453.2z"/>
	<path class="st0" d="M1205.9,510.3c55.4-8.1,110.7-16.2,165.9-24.2c-3.8-0.6-7.6-1.2-11.5-1.8c-54.3,7.9-108.8,15.9-163.3,23.9
		C1200.1,508.8,1203,509.6,1205.9,510.3z"/>
	<path class="st0" d="M957.7,571.5c45.3-6.7,90.6-13.3,135.8-19.9c-2.3-0.8-4.5-1.7-6.8-2.5c-44.7,6.5-89.4,13.1-134.2,19.7
		C954.2,569.6,956,570.5,957.7,571.5z"/>
	<path class="st0" d="M1268.2,526c61.6-9,123.2-18,184.5-26.9c-3.8-0.6-7.6-1.2-11.5-1.8c-60.5,8.8-121.1,17.6-181.9,26.5
		C1262.3,524.5,1265.2,525.3,1268.2,526z"/>
	<path class="st0" d="M1693.8,464.1c74.8-10.9,150.2-21.8,226.2-32.8v-3.5c-81,11.8-161.4,23.4-241.1,35
		C1683.9,463.2,1688.8,463.6,1693.8,464.1z"/>
	<path class="st0" d="M1452.8,495.6c3.8,0.6,7.6,1.2,11.5,1.8c36.1-5.3,72.3-10.5,108.3-15.7c35.3-5.1,70.8-10.3,106.4-15.5
		c-5-0.5-9.9-0.9-14.9-1.3c-30.8,4.5-61.5,8.9-92,13.4C1532.3,484,1492.6,489.8,1452.8,495.6z"/>
	<path class="st0" d="M946.6,569.6C634.1,615.5,318.2,662.2,0,709.7v3.5c320-47.8,637.6-94.8,951.9-140.9
		C950.1,571.4,948.4,570.5,946.6,569.6z"/>
	<path class="st0" d="M1100.7,550.5c52.9-7.7,105.7-15.5,158.4-23.2c-2.9-0.7-5.9-1.5-8.8-2.2c-52,7.6-104.2,15.2-156.4,22.9
		C1096.2,548.8,1098.4,549.7,1100.7,550.5z"/>
	<path class="st0" d="M981.5,587.9C657.6,635.4,330.1,683.9,0,733.1v3.5c331.9-49.5,661.2-98.2,986.8-146
		C985,589.7,983.3,588.8,981.5,587.9z"/>
	<path class="st0" d="M1793.2,473.1c42.1-6.1,84.3-12.2,126.8-18.4v-3.5c-47.5,6.9-94.7,13.8-141.7,20.6
		C1783.3,472.2,1788.3,472.6,1793.2,473.1z"/>
	<path class="st0" d="M1529.3,507.9c3.8,0.6,7.6,1.2,11.5,1.8c5.5-0.8,11.1-1.6,16.6-2.4c73.1-10.6,146.7-21.3,221-32.1
		c-5-0.5-9.9-0.9-14.9-1.3c-69.4,10.1-138.2,20.1-206.6,30C1547.7,505.2,1538.5,506.6,1529.3,507.9z"/>
	<path class="st0" d="M1327.1,540.8c67.5-9.9,134.9-19.7,202.1-29.4c-3.8-0.6-7.7-1.2-11.5-1.8c-66.3,9.6-132.8,19.3-199.5,29
		C1321.2,539.3,1324.2,540.1,1327.1,540.8z"/>
	<path class="st0" d="M1146.1,567.3c57.4-8.4,114.7-16.8,171.9-25.1c-2.9-0.7-5.9-1.5-8.8-2.2c-56.5,8.2-113.2,16.5-169.9,24.8
		C1141.5,565.6,1143.8,566.4,1146.1,567.3z"/>
	<path class="st0" d="M992.6,589.8c48.8-7.2,97.6-14.3,146.3-21.4c-2.3-0.8-4.5-1.7-6.8-2.5c-48.1,7-96.4,14.1-144.7,21.2
		C989.1,587.9,990.9,588.8,992.6,589.8z"/>
	<path class="st0" d="M854,521C572.3,561.1,287.3,602.2,0,644v3.5c289.1-42.1,575.9-83.4,859.2-123.8
		C857.5,522.9,855.7,521.9,854,521z"/>
	<path class="st0" d="M1443.1,441.4c59.1-8.3,118.6-16.6,178.5-25c-6.7-0.2-13.3-0.5-20-0.7c-58.4,8.2-116.3,16.3-173.8,24.4
		C1432.9,440.4,1438,440.9,1443.1,441.4z"/>
	<path class="st0" d="M1115.2,487.5c47.2-6.7,94.4-13.3,141.4-19.9c-3.9-0.6-7.8-1.3-11.7-1.9c-46.1,6.5-92.3,13-138.7,19.6
		C1109.2,486,1112.2,486.7,1115.2,487.5z"/>
	<path class="st0" d="M1256.7,464c3.9,0.6,7.8,1.3,11.7,1.9c29.5-4.2,59.1-8.3,88.5-12.4c23.6-3.3,47.3-6.6,71.1-10
		c-5.1-0.5-10.2-0.9-15.2-1.4c-18.8,2.6-37.6,5.3-56.3,7.9C1323.2,454.7,1289.9,459.3,1256.7,464z"/>
	<path class="st0" d="M865.1,522.9c36.4-5.2,72.8-10.3,109.1-15.5c-2.3-0.8-4.6-1.7-6.9-2.5c-35.8,5.1-71.6,10.2-107.5,15.3
		C861.6,521.1,863.4,522,865.1,522.9z"/>
	<path class="st0" d="M1641.5,413.5c65.5-9.2,131.5-18.4,198-27.8c-8.8,0.1-17.6,0.1-26.4,0.2c-64.4,9-128.3,18-191.6,26.9
		C1628.2,413,1634.8,413.3,1641.5,413.5z"/>
	<path class="st0" d="M981.5,506.4c41.6-5.9,83.1-11.8,124.5-17.6c-3-0.8-6-1.5-9-2.3c-40.7,5.8-81.6,11.5-122.5,17.3
		C976.9,504.7,979.2,505.6,981.5,506.4z"/>
	<path class="st0" d="M1865.6,382.1c18.1-2.5,36.2-5.1,54.4-7.6V371c-27,3.8-53.9,7.6-80.8,11.3
		C1848,382.2,1856.8,382.1,1865.6,382.1z"/>
	<path class="st0" d="M1549.2,410.2c58.4-7.8,117.4-15.7,176.8-23.7c-9.3,0.1-18.5,0.1-27.7,0.2c-57.1,7.6-113.7,15.2-169.8,22.8
		C1535.4,409.7,1542.3,410,1549.2,410.2z"/>
	<path class="st0" d="M833.7,506.4c33.7-4.6,67.3-9.1,100.8-13.7c-2.3-0.9-4.6-1.7-7-2.6c-33,4.5-66.1,9-99.2,13.5
		C830.1,504.6,831.9,505.5,833.7,506.4z"/>
	<path class="st0" d="M941.9,491.8c38.3-5.2,76.5-10.3,114.6-15.5c-3-0.8-6.1-1.5-9.1-2.3c-37.4,5-74.9,10.1-112.4,15.2
		C937.2,490,939.5,490.9,941.9,491.8z"/>
	<path class="st0" d="M1367.8,434.5c53.2-7.1,106.8-14.3,160.9-21.6c-6.9-0.2-13.8-0.5-20.7-0.7c-52.3,7-104.3,14-155.8,20.9
		C1357.3,433.6,1362.6,434.1,1367.8,434.5z"/>
	<path class="st0" d="M1207.2,456.1c48-6.4,96.3-12.9,145-19.4c-5.2-0.5-10.5-0.9-15.7-1.4c-47.4,6.4-94.5,12.7-141.2,18.9
		C1199.3,454.8,1203.2,455.4,1207.2,456.1z"/>
	<path class="st0" d="M822.4,504.5C551.8,541.3,277.2,579.3,0,618.5v3.5c279-39.4,555.4-77.7,827.7-114.7
		C825.9,506.3,824.1,505.4,822.4,504.5z"/>
	<path class="st0" d="M1056.7,472.7c3,0.8,6.1,1.5,9.1,2.3c24-3.2,48-6.5,72-9.7c19.1-2.6,38.3-5.1,57.5-7.7c-4-0.6-8-1.3-11.9-1.9
		c-15.4,2.1-30.7,4.1-46,6.2C1110.5,465.5,1083.6,469.1,1056.7,472.7z"/>
	<path class="st0" d="M1725.7,383c9.2-0.1,18.4-0.1,27.7-0.2c55.1-7.4,110.7-14.8,166.6-22.3v-2.4c-4.1,0.2-8.1,0.3-12.2,0.5
		C1846.6,366.8,1785.9,375,1725.7,383z"/>
	<path class="st0" d="M1851.9,357.4c22.6-2.9,45.3-5.7,68.1-8.6v-3.5c-36.6,4.6-72.9,9.2-109.1,13.8
		C1824.5,358.5,1838.2,357.9,1851.9,357.4z"/>
	<path class="st0" d="M1644,383.6c55.2-7,111-14,167.2-21.1c-13.7,0.6-27.4,1.1-41,1.7c-52.3,6.6-104.2,13.1-155.7,19.6
		C1624.3,383.7,1634.1,383.7,1644,383.6z"/>
	<path class="st0" d="M1146.7,446.3c43.2-5.4,86.7-10.9,130.6-16.5c-5.4-0.5-10.8-1-16.2-1.5c-42.5,5.4-84.7,10.7-126.6,16
		C1138.5,445,1142.6,445.7,1146.7,446.3z"/>
	<path class="st0" d="M790.7,487.9C531.4,521,267.1,555.8,0,592v3.5c269-36.4,535-71.5,796.1-104.8
		C794.3,489.7,792.5,488.8,790.7,487.9z"/>
	<path class="st0" d="M802.1,489.9c31-4,61.9-7.9,92.8-11.8c-2.4-0.9-4.7-1.7-7.1-2.6c-30.3,3.8-60.7,7.7-91.1,11.6
		C798.5,488,800.3,489,802.1,489.9z"/>
	<path class="st0" d="M1016.8,462.7c38.9-4.9,78.1-9.8,117.6-14.8c-4.1-0.7-8.2-1.3-12.2-2c-38.5,4.9-76.7,9.7-114.6,14.5
		C1010.6,461.1,1013.7,461.9,1016.8,462.7z"/>
	<path class="st0" d="M1293.5,427.8c47.5-6,95.4-12,143.6-18.1c-7.3-0.3-14.5-0.5-21.7-0.8c-46.4,5.9-92.5,11.7-138.1,17.4
		C1282.7,426.8,1288.1,427.3,1293.5,427.8z"/>
	<path class="st0" d="M895.3,474.5c2.4,0.9,4.7,1.7,7.1,2.6c19.5-2.5,39-4.9,58.5-7.4c15.4-1.9,30.9-3.9,46.4-5.9
		c-3.1-0.8-6.2-1.6-9.3-2.3c-12.5,1.6-25.1,3.2-37.5,4.7C938.8,469,917,471.8,895.3,474.5z"/>
	<path class="st0" d="M1458.7,407c51.6-6.5,103.6-13.1,156.1-19.7c-9.9,0.1-19.7,0.1-29.5,0.2c-49.8,6.3-99.3,12.5-148.3,18.7
		C1444.2,406.5,1451.5,406.7,1458.7,407z"/>
	<path class="st0" d="M765.2,470.6c1.8,1,3.7,1.9,5.5,2.9c15.8-1.9,31.7-3.7,47.5-5.5c12.4-1.4,24.9-2.9,37.4-4.3
		c-2.4-0.9-4.8-1.8-7.2-2.7c-10.2,1.2-20.4,2.4-30.6,3.6C800.3,466.5,782.8,468.5,765.2,470.6z"/>
	<path class="st0" d="M1087.1,436.7c38.6-4.5,77.4-9,116.7-13.5c-5.7-0.5-11.4-1-17-1.5c-37.7,4.4-75.2,8.7-112.3,13
		C1078.6,435.4,1082.8,436,1087.1,436.7z"/>
	<path class="st0" d="M759.1,471.3c-248,29-502,60.2-759.1,93.2v3.5c259-33.3,514.8-64.7,764.6-93.9
		C762.8,473.2,760.9,472.3,759.1,471.3z"/>
	<path class="st0" d="M968.4,450.5c35-4.1,70.4-8.2,105.9-12.3c-4.2-0.7-8.5-1.4-12.7-2c-34.5,4-68.8,8-102.8,11.9
		C962,448.9,965.2,449.7,968.4,450.5z"/>
	<path class="st0" d="M1370.6,403.8c44.9-5.2,90.2-10.5,136-15.8c-10.8,0.1-21.5,0.1-32.2,0.2c-42.7,5-85,9.9-126.9,14.7
		C1355.1,403.3,1362.8,403.5,1370.6,403.8z"/>
	<path class="st0" d="M1538.4,384.3c47.2-5.5,94.7-11,142.7-16.6c-15.5,0.6-31,1.2-46.4,1.9c-43.2,5-86,10-128.5,14.9
		C1516.9,384.5,1527.6,384.4,1538.4,384.3z"/>
	<path class="st0" d="M1220.7,421.2c41.9-4.9,84.2-9.8,126.9-14.7c-7.7-0.3-15.4-0.6-23.1-0.8c-40.6,4.7-80.8,9.4-120.7,14
		C1209.3,420.2,1215,420.7,1220.7,421.2z"/>
	<path class="st0" d="M1920,338.9v-2.4c-16.3,1.9-32.5,3.8-48.6,5.6C1887.5,341.1,1903.7,340,1920,338.9z"/>
	<path class="st0" d="M1727.3,362.4c47.8-5.5,95.9-11.1,144.5-16.8c-23.8,1.6-47.4,3.2-71,4.7c-40.2,4.7-80.2,9.3-119.9,13.9
		C1696.3,363.7,1711.7,363,1727.3,362.4z"/>
	<path class="st0" d="M863.3,462.7c31.5-3.7,63.3-7.3,95.3-11.1c-3.2-0.8-6.4-1.6-9.6-2.4c-31.2,3.6-62.2,7.2-92.9,10.8
		C858.4,460.9,860.9,461.8,863.3,462.7z"/>
	<path class="st0" d="M920.5,438.4c31.3-3.2,62.8-6.5,94.6-9.8c-4.4-0.7-8.8-1.4-13.2-2.1c-30.7,3.2-61.1,6.3-91.2,9.4
		C913.9,436.8,917.2,437.6,920.5,438.4z"/>
	<path class="st0" d="M1903.1,336.9c-51.3,4.5-102.1,8.9-152.3,13.3c22.2-1.5,44.6-3,67-4.5C1846.1,342.8,1874.6,339.9,1903.1,336.9
		z"/>
	<path class="st0" d="M1437.5,385c39-4,78.4-8.1,118.1-12.2c-18.6,0.8-37.1,1.5-55.6,2.2c-33.2,3.4-66.1,6.8-98.8,10.2
		C1413.3,385.2,1425.3,385.1,1437.5,385z"/>
	<path class="st0" d="M739.6,457.1c25.5-2.6,51.2-5.3,77.1-8c-2.5-0.9-4.9-1.8-7.4-2.7c-25.3,2.6-50.4,5.2-75.2,7.8
		C735.9,455.2,737.7,456.2,739.6,457.1z"/>
	<path class="st0" d="M733.3,457.8c-1.9-1-3.7-1.9-5.6-2.9c-8.3,0.9-16.6,1.7-24.9,2.6C474,481.1,238.6,507.4,0,536v3.5
		c238.7-28.6,474.3-55,703.2-78.6C713.2,459.9,723.2,458.8,733.3,457.8z"/>
	<path class="st0" d="M1611.1,367.1c37-3.8,74.2-7.7,111.7-11.5c-32,2.1-63.7,4.2-95.2,6.3c-24.2,2.5-48.2,5-72.1,7.5
		C1573.9,368.6,1592.4,367.8,1611.1,367.1z"/>
	<path class="st0" d="M824.5,448.4c28.4-2.9,57-5.9,85.8-8.9c-3.3-0.8-6.6-1.7-9.8-2.5c-28,2.9-55.8,5.8-83.3,8.6
		C819.6,446.5,822,447.4,824.5,448.4z"/>
	<path class="st0" d="M1028.4,427.3c34-3.5,68.4-7.1,103.1-10.6c-6-0.5-12-1.1-18-1.6c-33,3.4-65.8,6.8-98.3,10.2
		C1019.6,425.9,1024,426.6,1028.4,427.3z"/>
	<path class="st0" d="M1149.6,414.8c36.5-3.8,73.4-7.6,110.5-11.4c-8.4-0.3-16.8-0.6-25.1-0.9c-34.8,3.6-69.3,7.2-103.4,10.7
		C1137.6,413.7,1143.6,414.2,1149.6,414.8z"/>
	<path class="st0" d="M1285.2,400.8c38.4-4,77.1-8,116.2-12c-12.1,0.1-24.2,0.2-36.3,0.2c-35.3,3.6-70.3,7.3-105,10.9
		C1268.5,400.2,1276.8,400.5,1285.2,400.8z"/>
	<path class="st0" d="M1920,332v-0.3c-5.7,0.6-11.4,1.2-17.1,1.8C1908.6,332.9,1914.3,332.4,1920,332z"/>
	<path class="st0" d="M1080.9,408.6c31.2-2.7,62.7-5.5,94.5-8.2c-9.5-0.3-19-0.7-28.4-1c-28.8,2.5-57.4,5-85.8,7.5
		C1067.8,407.4,1074.3,408,1080.9,408.6z"/>
	<path class="st0" d="M1580.9,361.5c55.8-3.7,112.5-7.5,169.9-11.3c50.2-4.4,101-8.8,152.3-13.3c5.6-0.5,11.2-1,16.9-1.5V332
		c-5.7,0.5-11.4,1-17.1,1.5C1793.1,343,1685.7,352.4,1580.9,361.5z"/>
	<path class="st0" d="M708.8,441c22.9-2,46.1-4,69.4-6c-2.6-0.9-5.1-1.9-7.7-2.8c-22.7,2-45.1,3.9-67.4,5.9
		C704.9,439,706.8,440,708.8,441z"/>
	<path class="st0" d="M1581,365c-42.7,2.8-84.9,5.7-126.7,8.4c18.5-0.7,37.1-1.5,55.7-2.2C1533.5,369.1,1557.2,367.1,1581,365z"/>
	<path class="st0" d="M971.3,418.1c29.7-2.6,59.6-5.2,89.8-7.8c-6.6-0.6-13.1-1.2-19.7-1.8c-28.3,2.5-56.4,4.9-84.3,7.3
		C961.9,416.6,966.6,417.3,971.3,418.1z"/>
	<path class="st0" d="M702.3,441.5c-1.9-1-3.8-2-5.7-3c-29,2.5-57.8,5-86.1,7.5C412,463.3,207.4,483.5,0,506.3v3.5
		c207.5-22.8,412.2-43,610.8-60.3C640.9,446.9,671.4,444.2,702.3,441.5z"/>
	<path class="st0" d="M1343.5,385.7c30.4-2.6,61-5.3,91.8-8c-25.1,1-50,2-74.7,3c-20.3,1.8-40.6,3.5-60.7,5.3
		C1314.4,385.9,1328.9,385.8,1343.5,385.7z"/>
	<path class="st0" d="M1203.9,397.8c31.8-2.8,63.9-5.6,96.3-8.4c-14.6,0.1-29.1,0.2-43.6,0.3c-27.2,2.4-54.3,4.7-81.1,7.1
		C1184.9,397.2,1194.3,397.5,1203.9,397.8z"/>
	<path class="st0" d="M786.3,434.2c25.3-2.2,50.8-4.4,76.6-6.7c-3.4-0.9-6.9-1.7-10.3-2.6c-24.8,2.2-49.5,4.3-73.9,6.4
		C781.2,432.3,783.7,433.3,786.3,434.2z"/>
	<path class="st0" d="M873.5,426.6c27.6-2.4,55.5-4.8,83.6-7.3c-4.7-0.8-9.4-1.5-14.1-2.3c-26.8,2.3-53.4,4.7-79.8,7
		C866.6,424.9,870.1,425.8,873.5,426.6z"/>
	<path class="st0" d="M678.3,425c20.4-1.4,41.1-2.7,61.9-4.1c-2.7-1-5.3-2-8-3c-20.1,1.3-40,2.7-59.8,4
		C674.4,423,676.4,424,678.3,425z"/>
	<path class="st0" d="M1128,395.1c24.9-1.7,49.9-3.3,75.2-5c-19.7,0.1-39.2,0.3-58.6,0.4c-17,1.1-33.9,2.3-50.7,3.4
		C1105.2,394.3,1116.6,394.7,1128,395.1z"/>
	<path class="st0" d="M827.7,415.1c24.1-1.6,48.3-3.2,72.9-4.8c-5.1-0.8-10.3-1.7-15.4-2.5c-23,1.5-45.9,3.1-68.5,4.6
		C820.4,413.3,824.1,414.2,827.7,415.1z"/>
	<path class="st0" d="M1321,382.3c-35.7,1.4-71.1,2.9-106,4.3c15.4-0.1,31-0.2,46.6-0.3C1281.2,384.9,1301,383.6,1321,382.3z"/>
	<path class="st0" d="M1015.4,402.6c25.9-1.7,52.1-3.5,78.5-5.2c-11.4-0.4-22.8-0.8-34.2-1.2c-22.4,1.5-44.6,3-66.6,4.4
		C1000.5,401.3,1007.9,401.9,1015.4,402.6z"/>
	<path class="st0" d="M671.7,425.5c-2-1-3.9-2.1-5.9-3.1c-44,2.9-87.2,5.8-129.5,8.6c-174,11.6-353.9,26.4-536.3,44.2v3.5
		c182.5-17.8,362.5-32.7,536.5-44.2C580.6,431.5,625.7,428.5,671.7,425.5z"/>
	<path class="st0" d="M748.8,420.4c22.3-1.5,44.9-3,67.6-4.5c-3.7-0.9-7.3-1.8-11-2.8c-21.8,1.4-43.3,2.9-64.7,4.3
		C743.4,418.4,746.1,419.4,748.8,420.4z"/>
	<path class="st0" d="M916.1,409.2c25.4-1.7,51-3.4,76.9-5.1c-7.4-0.7-14.9-1.3-22.3-2c-23.5,1.6-46.9,3.1-70,4.7
		C905.9,407.6,911,408.4,916.1,409.2z"/>
	<path class="st0" d="M1817.9,345.7c-22.5,1.5-44.8,3-67,4.5c-57.4,3.8-114.1,7.6-169.9,11.3c-88.8,5.9-175.5,11.7-260.1,17.3
		c43.9-1.8,88.4-3.6,133.4-5.4c41.7-2.8,84-5.6,126.7-8.4c15.5-1,31.1-2.1,46.7-3.1c31.5-2.1,63.2-4.2,95.2-6.3
		c25.8-1.7,51.8-3.4,77.9-5.2c23.5-1.6,47.2-3.1,71-4.7c16-1.1,32.1-2.1,48.3-3.2V339c-16.3,1.1-32.5,2.2-48.6,3.2
		C1853.5,343.4,1835.6,344.5,1817.9,345.7z"/>
	<path class="st0" d="M648.5,409.4c18-0.7,36.3-1.5,54.6-2.2c-2.8-1.1-5.7-2.1-8.5-3.2c-17.6,0.7-35,1.4-52.3,2.1
		C644.4,407.2,646.4,408.3,648.5,409.4z"/>
	<path class="st0" d="M712.2,406.8c19.5-0.8,39.1-1.6,58.9-2.4c-4-1-8-2-12-3c-18.7,0.8-37.2,1.5-55.5,2.2
		C706.5,404.7,709.3,405.8,712.2,406.8z"/>
	<path class="st0" d="M641.5,409.7c-2.1-1.1-4.1-2.2-6.2-3.2c-54.2,2.2-107.1,4.3-158.4,6.4C322.6,419,162.4,429.1,0,442.6v3.5
		c162.5-13.5,322.7-23.6,477.1-29.8C530.3,414.2,585.1,411.9,641.5,409.7z"/>
	<path class="st0" d="M1110.8,390.8c-29.6,0.2-58.9,0.4-87.8,0.6c12.8,0.5,25.6,0.9,38.6,1.4
		C1077.9,392.1,1094.3,391.4,1110.8,390.8z"/>
	<path class="st0" d="M863.4,400.7c21.1-0.9,42.5-1.7,64-2.6c-8.9-0.8-17.8-1.6-26.7-2.4c-18.3,0.7-36.5,1.5-54.6,2.2
		C851.8,398.9,857.6,399.8,863.4,400.7z"/>
	<path class="st0" d="M954.2,397.1c20.3-0.8,40.9-1.6,61.5-2.5c-15.4-0.6-30.7-1.1-45.9-1.6c-14.2,0.6-28.3,1.1-42.3,1.7
		C936.3,395.5,945.2,396.3,954.2,397.1z"/>
	<path class="st0" d="M783.5,404c20.6-0.8,41.4-1.7,62.4-2.5c-5.8-0.9-11.6-1.9-17.4-2.8c-19.1,0.8-38.1,1.5-57,2.3
		C775.5,401.9,779.5,402.9,783.5,404z"/>
	<path class="st0" d="M1810.9,359c-28.1,1.1-55.9,2.3-83.6,3.4c-15.5,0.6-31,1.2-46.4,1.9c-23.4,0.9-46.7,1.9-69.8,2.8
		c-18.6,0.8-37.1,1.5-55.6,2.2c-15.2,0.6-30.4,1.2-45.5,1.8c-18.7,0.8-37.3,1.5-55.7,2.2c-45,1.8-89.5,3.6-133.4,5.4
		c-71.7,2.9-141.9,5.7-210.5,8.5c34.4-0.2,69.2-0.5,104.5-0.7c35-1.4,70.3-2.8,106-4.3c13.2-0.5,26.4-1.1,39.6-1.6
		c24.7-1,49.6-2,74.7-3c21.4-0.9,43-1.7,64.7-2.6c18.4-0.7,37-1.5,55.6-2.2c26.2-1.1,52.6-2.1,79.1-3.2c15.4-0.6,30.9-1.2,46.4-1.9
		c29.5-1.2,59.1-2.4,89-3.6c13.6-0.5,27.3-1.1,41-1.7c32-1.3,64.2-2.6,96.7-3.9c4-0.2,8.1-0.3,12.2-0.5v-3.5
		c-22.8,0.9-45.5,1.8-68.1,2.7C1838.2,357.9,1824.5,358.5,1810.9,359z"/>
	<path class="st0" d="M941.2,391.9c-24.5-0.9-48.8-1.7-72.7-2.6c10.6,1,21.2,1.9,31.9,2.9C913.9,392.1,927.5,392,941.2,391.9z"/>
	<path class="st0" d="M612,394.2c-2.2-1.1-4.4-2.3-6.6-3.4c-60.9,0.4-119.5,0.8-175.7,1.2c-138.6,0.9-283.2,6.5-429.7,16.4v3.5
		c146.5-9.9,291.1-15.5,429.7-16.4C488,395,548.7,394.6,612,394.2z"/>
	<path class="st0" d="M619.4,394.1c15.7-0.1,31.5-0.2,47.5-0.3c-3.1-1.1-6.2-2.3-9.2-3.4c-15.1,0.1-30,0.2-44.9,0.3
		C615,391.8,617.2,393,619.4,394.1z"/>
	<path class="st0" d="M676.8,393.7c16.6-0.1,33.5-0.2,50.4-0.3c-4.5-1.1-9-2.3-13.5-3.4c-15.5,0.1-30.9,0.2-46.2,0.3
		C670.6,391.5,673.7,392.6,676.8,393.7z"/>
	<path class="st0" d="M741.2,393.3c17.1-0.1,34.4-0.2,51.9-0.4c-6.9-1.1-13.9-2.2-20.7-3.3c-15,0.1-29.9,0.2-44.6,0.3
		C732.2,391,736.7,392.2,741.2,393.3z"/>
	<path class="st0" d="M814.1,392.8c16.6-0.1,33.4-0.2,50.3-0.3c-12-1.1-23.9-2.2-35.7-3.2c-11.8,0.1-23.6,0.2-35.3,0.2
		C800.3,390.6,807.2,391.7,814.1,392.8z"/>
	<path class="st0" d="M1839.2,382.3c-28.8,0.2-57.5,0.4-85.9,0.6c-9.3,0.1-18.5,0.1-27.7,0.2c-27.4,0.2-54.6,0.4-81.7,0.6
		c-9.9,0.1-19.7,0.1-29.5,0.2c-25.5,0.2-50.9,0.4-76.1,0.5c-10.8,0.1-21.5,0.1-32.2,0.2c-23.1,0.2-46,0.3-68.7,0.5
		c-12.1,0.1-24.2,0.2-36.3,0.2c-19.3,0.1-38.6,0.3-57.7,0.4c-14.6,0.1-29.1,0.2-43.6,0.3c-12.8,0.1-25.6,0.2-38.4,0.3
		c-15.6,0.1-31.1,0.2-46.6,0.3c-35.3,0.2-70.2,0.5-104.5,0.7c-57.6,0.4-113.9,0.8-168.8,1.2c26.8,1,54,1.9,81.5,2.9
		c28.9-0.2,58.2-0.4,87.8-0.6c11.2-0.1,22.4-0.2,33.7-0.2c19.4-0.1,38.9-0.3,58.6-0.4c17.7-0.1,35.4-0.2,53.3-0.4
		c14.5-0.1,29-0.2,43.6-0.3c21.5-0.1,43.2-0.3,65-0.4c12.1-0.1,24.2-0.2,36.3-0.2c24.1-0.2,48.4-0.3,72.9-0.5
		c10.7-0.1,21.4-0.1,32.2-0.2c26.1-0.2,52.3-0.4,78.8-0.5c9.8-0.1,19.6-0.1,29.5-0.2c27.6-0.2,55.5-0.4,83.5-0.6
		c9.2-0.1,18.4-0.1,27.7-0.2c28.8-0.2,57.9-0.4,87.2-0.6c8.8-0.1,17.6-0.1,26.4-0.2c26.7-0.2,53.5-0.4,80.5-0.6v-3.5
		c-18.2,0.1-36.3,0.2-54.4,0.4C1856.8,382.1,1848,382.2,1839.2,382.3z"/>
	<path class="st0" d="M392.1,372.2c60.3,2.2,124.1,4.4,191.1,6.8c-2.4-1.3-4.8-2.5-7.2-3.8c-64.3-2.3-125.6-4.5-183.8-6.6
		c-126-4.5-258.3-3.3-392.2,3.5v3.5c81-4.1,161.5-6.2,240.3-6.2C291.7,369.6,342.4,370.5,392.1,372.2z"/>
	<path class="st0" d="M804.5,387c-20.2-1.8-40.3-3.6-60-5.4c8.7,1.4,17.5,2.8,26.3,4.2C781.9,386.2,793.2,386.6,804.5,387z"/>
	<path class="st0" d="M643,381.2c13.8,0.5,27.8,1,41.9,1.5c-5.4-1.4-10.8-2.7-16.2-4.1c-12.2-0.4-24.2-0.9-36.2-1.3
		C636,378.6,639.5,379.9,643,381.2z"/>
	<path class="st0" d="M701.6,383.3c13.5,0.5,27.1,1,40.9,1.5c-9.4-1.5-18.7-3-27.9-4.5c-9.8-0.3-19.5-0.7-29.1-1
		C690.8,380.6,696.2,382,701.6,383.3z"/>
	<path class="st0" d="M591.2,379.4c13.4,0.5,26.9,1,40.6,1.5c-3.5-1.3-7-2.6-10.5-3.9c-12.5-0.4-25-0.9-37.3-1.3
		C586.4,376.9,588.8,378.1,591.2,379.4z"/>
	<path class="st0" d="M1806.3,419.4c-23.9-0.9-47.7-1.7-71.3-2.6c-6.5-0.2-13-0.5-19.5-0.7c-24.9-0.9-49.5-1.8-74.1-2.7
		c-6.7-0.2-13.3-0.5-20-0.7c-24.3-0.9-48.4-1.7-72.3-2.6c-6.9-0.2-13.8-0.5-20.7-0.7c-23.4-0.8-46.7-1.7-69.8-2.5
		c-7.3-0.3-14.5-0.5-21.7-0.8c-22.3-0.8-44.5-1.6-66.4-2.4c-7.7-0.3-15.5-0.6-23.1-0.8c-20.9-0.7-41.6-1.5-62.2-2.2
		c-8.4-0.3-16.8-0.6-25.1-0.9c-18.9-0.7-37.6-1.3-56.2-2c-9.5-0.3-19-0.7-28.5-1c-15.9-0.6-31.7-1.1-47.4-1.7
		c-11.4-0.4-22.8-0.8-34.2-1.2c-10.8-0.4-21.6-0.8-32.3-1.2c-12.9-0.5-25.8-0.9-38.6-1.4c-27.5-1-54.7-2-81.5-2.9
		c-46.7-1.7-92.3-3.3-136.9-4.9c21,1.9,42.3,3.8,63.8,5.8c23.9,0.9,48.2,1.7,72.7,2.6c9.5,0.3,19,0.7,28.6,1
		c15.2,0.5,30.5,1.1,45.9,1.6c14.6,0.5,29.2,1,44,1.6c11.3,0.4,22.7,0.8,34.2,1.2c17.6,0.6,35.3,1.3,53.1,1.9
		c9.4,0.3,18.9,0.7,28.4,1c19.7,0.7,39.5,1.4,59.5,2.1c8.4,0.3,16.7,0.6,25.1,0.9c21.3,0.8,42.7,1.5,64.3,2.3
		c7.7,0.3,15.4,0.6,23.1,0.8c22.4,0.8,45.1,1.6,67.9,2.4c7.2,0.3,14.5,0.5,21.7,0.8c23.4,0.8,47,1.7,70.8,2.5
		c6.9,0.2,13.8,0.5,20.7,0.7c24.2,0.9,48.5,1.7,73,2.6c6.6,0.2,13.3,0.5,20,0.7c24.7,0.9,49.6,1.8,74.6,2.7c6.5,0.2,13,0.5,19.5,0.7
		c23.6,0.8,47.4,1.7,71.3,2.6c6.5,0.2,12.9,0.5,19.4,0.7c37.5,1.3,75.4,2.7,113.6,4.1v-3.5c-31.7-1.1-63.1-2.3-94.3-3.4
		C1819.2,419.9,1812.7,419.7,1806.3,419.4z"/>
	<path class="st0" d="M611.3,369.5c10.9,1,21.9,2,33,3c-7.3-1.8-14.5-3.7-21.8-5.5c-8-0.7-15.9-1.4-23.8-2.2
		C602.9,366.4,607.1,368,611.3,369.5z"/>
	<path class="st0" d="M108.8,335.8c86.5,0,171.7,3.8,253.6,11.2c60.2,5.5,124.6,11.3,192.8,17.5c-2.7-1.4-5.4-2.8-8.1-4.2
		c-65.1-5.9-126.7-11.5-184.5-16.7c-90.2-8.2-184.4-11.9-279.8-11.1c-27.5,0.2-55.2,0.9-82.9,1.9v3.5c27.7-1,55.4-1.6,82.9-1.9
		C91.5,335.8,100.1,335.8,108.8,335.8z"/>
	<path class="st0" d="M564.3,365.3c11.1,1,22.4,2,33.7,3.1c-4.2-1.6-8.4-3.1-12.6-4.6c-9.8-0.9-19.6-1.8-29.2-2.6
		C558.9,362.4,561.6,363.8,564.3,365.3z"/>
	<path class="st0" d="M694.2,377c-16.5-2.7-32.8-5.3-48.9-7.9c7.1,1.8,14.2,3.6,21.4,5.4C675.8,375.4,685,376.2,694.2,377z"/>
	<path class="st0" d="M1778.3,471.7c-28.4-2.6-56.5-5.1-84.5-7.7c-5-0.5-9.9-0.9-14.9-1.3c-30.3-2.7-60.4-5.5-90.2-8.2
		c-5-0.5-9.9-0.9-14.9-1.3c-18.3-1.7-36.5-3.3-54.7-5c-5-0.5-10-0.9-14.9-1.4c-20.5-1.9-40.9-3.7-61.1-5.5
		c-5.1-0.5-10.2-0.9-15.2-1.4c-20.2-1.8-40.2-3.6-60.1-5.4c-5.2-0.5-10.5-0.9-15.7-1.4c-19.7-1.8-39.2-3.6-58.6-5.3
		c-5.4-0.5-10.8-1-16.2-1.5c-19-1.7-37.9-3.4-56.6-5.1c-5.7-0.5-11.4-1-17-1.5c-18.2-1.6-36.2-3.3-54.1-4.9c-6-0.5-12-1.1-18-1.6
		c-17-1.5-33.9-3.1-50.6-4.6c-6.6-0.6-13.1-1.2-19.7-1.8c-15.4-1.4-30.7-2.8-45.9-4.2c-7.4-0.7-14.9-1.3-22.3-2
		c-13.1-1.2-26.1-2.4-39-3.5c-8.9-0.8-17.8-1.6-26.7-2.4c-9.1-0.8-18.1-1.6-27-2.4c-10.7-1-21.3-1.9-31.9-2.9
		c-21.5-2-42.8-3.9-63.8-5.8c-37.5-3.4-74.3-6.7-110.1-10c16.4,2.6,33,5.3,49.8,8c19.8,1.8,39.8,3.6,60,5.4c8,0.7,16.1,1.5,24.2,2.2
		c11.8,1.1,23.7,2.1,35.7,3.2s24.1,2.2,36.2,3.3c8.9,0.8,17.8,1.6,26.7,2.4c14.4,1.3,28.8,2.6,43.4,3.9c7.4,0.7,14.8,1.3,22.3,2
		c16,1.5,32.2,2.9,48.4,4.4c6.5,0.6,13.1,1.2,19.7,1.8c17.3,1.6,34.7,3.1,52.3,4.7c6,0.5,12,1.1,18,1.6c18.3,1.7,36.7,3.3,55.2,5
		c5.7,0.5,11.3,1,17,1.5c19,1.7,38.1,3.5,57.4,5.2c5.4,0.5,10.8,1,16.2,1.5c19.6,1.8,39.3,3.6,59.2,5.4c5.2,0.5,10.4,0.9,15.7,1.4
		c20,1.8,40.2,3.6,60.5,5.5c5.1,0.5,10.2,0.9,15.2,1.4c20.3,1.8,40.8,3.7,61.4,5.6c5,0.4,9.9,0.9,14.9,1.4c18.1,1.6,36.3,3.3,54.7,5
		c5,0.4,9.9,0.9,14.9,1.3c29.8,2.7,59.9,5.4,90.2,8.2c5,0.4,9.9,0.9,14.9,1.3c28,2.5,56.1,5.1,84.5,7.7c5,0.4,9.9,0.9,14.9,1.3
		c46.7,4.2,93.9,8.5,141.6,12.8v-3.5c-42.7-3.9-84.9-7.7-126.8-11.5C1788.3,472.6,1783.3,472.2,1778.3,471.7z"/>
	<path class="st0" d="M583.4,359.2c7.4,1.2,14.8,2.4,22.2,3.6c-13.1-3.3-26.1-6.6-38.9-9.8c-0.1,0-0.2,0-0.3,0
		C572,355,577.7,357.1,583.4,359.2z"/>
	<path class="st0" d="M539.1,352.1c8.7,1.4,17.5,2.8,26.4,4.3c-5.7-2.1-11.3-4.2-16.9-6.3c-6.5-1-12.9-2.1-19.2-3.1
		C532.6,348.7,535.9,350.4,539.1,352.1z"/>
	<path class="st0" d="M49.4,297.3c21.7,0,43.3,0.4,64.8,1.1c76.8,2.6,152.5,9.8,224.8,21.5c58.3,9.4,121.5,19.6,189.2,30.4
		c-3.3-1.7-6.5-3.4-9.7-5.1C454.8,335,395,325.3,339.6,316.4c-72.5-11.7-148.3-18.9-225.3-21.5c-37.9-1.3-76.1-1.4-114.4-0.5v3.5
		C16.5,297.6,33,297.3,49.4,297.3L49.4,297.3z"/>
	<path class="st0" d="M1529.3,507.9c-21.8-3.5-43.5-7-65-10.5c-3.8-0.6-7.6-1.2-11.5-1.8c-23.3-3.7-46.4-7.5-69.4-11.2
		c-3.8-0.6-7.6-1.2-11.5-1.8c-14.1-2.3-28.1-4.5-42-6.8c-3.8-0.6-7.7-1.2-11.5-1.8c-16.8-2.7-33.5-5.4-50.2-8.1
		c-3.9-0.6-7.8-1.3-11.7-1.9c-16.6-2.7-33.1-5.3-49.4-8c-4-0.6-8-1.3-11.9-1.9c-16.3-2.6-32.5-5.2-48.6-7.8c-4.1-0.7-8.2-1.3-12.2-2
		c-15.9-2.6-31.7-5.1-47.4-7.6c-4.2-0.7-8.5-1.4-12.7-2c-15.4-2.5-30.7-4.9-45.9-7.4c-4.4-0.7-8.8-1.4-13.2-2.1
		c-14.7-2.4-29.4-4.7-43.9-7.1c-4.7-0.8-9.4-1.5-14.1-2.3c-13.8-2.2-27.5-4.4-41.1-6.6c-5.1-0.8-10.3-1.7-15.4-2.5
		c-12.5-2-25-4-37.4-6c-5.8-0.9-11.6-1.9-17.4-2.8c-10.7-1.7-21.4-3.4-31.9-5.1c-6.9-1.1-13.9-2.2-20.7-3.3
		c-7.6-1.2-15.2-2.4-22.7-3.6c-8.8-1.4-17.6-2.8-26.3-4.2c-16.8-2.7-33.4-5.4-49.8-8c-30.1-4.8-59.5-9.6-88.2-14.2
		c12.8,3.2,25.8,6.5,38.9,9.8c16.1,2.6,32.4,5.2,48.9,7.9c6.7,1.1,13.5,2.2,20.3,3.3c9.2,1.5,18.6,3,27.9,4.5
		c9.9,1.6,19.8,3.2,29.9,4.8c6.9,1.1,13.8,2.2,20.7,3.3c11.7,1.9,23.5,3.8,35.4,5.7c5.8,0.9,11.6,1.9,17.4,2.8
		c13,2.1,26.2,4.2,39.4,6.3c5.1,0.8,10.2,1.6,15.4,2.5c14,2.3,28.1,4.5,42.4,6.8c4.7,0.8,9.4,1.5,14.1,2.3
		c14.8,2.4,29.7,4.8,44.7,7.2c4.4,0.7,8.8,1.4,13.2,2.1c15.4,2.5,30.9,5,46.5,7.5c4.2,0.7,8.5,1.4,12.7,2
		c15.8,2.5,31.8,5.1,47.9,7.7c4.1,0.7,8.2,1.3,12.2,2c16.2,2.6,32.5,5.2,48.9,7.9c4,0.6,8,1.3,11.9,1.9c16.5,2.6,33,5.3,49.7,8
		c3.9,0.6,7.8,1.3,11.7,1.9c16.7,2.7,33.5,5.4,50.4,8.1c3.8,0.6,7.6,1.2,11.5,1.8c13.9,2.2,27.9,4.5,42,6.8
		c3.8,0.6,7.6,1.2,11.5,1.8c22.9,3.7,46.1,7.4,69.4,11.2c3.8,0.6,7.6,1.2,11.5,1.8c21.5,3.5,43.2,7,65,10.5
		c3.8,0.6,7.6,1.2,11.5,1.8c126,20.3,256.5,41.3,390.8,62.9v-3.5c-130.2-20.9-256.9-41.3-379.3-61
		C1536.9,509.1,1533.1,508.5,1529.3,507.9z"/>
	<path class="st0" d="M32.9,256.3c36.1,0,72.1,1.6,107.6,4.7c61.8,5.4,122.6,15.6,180.5,30.2c55.6,14,116.2,29.3,181.5,45.7
		c-4.4-2.3-8.9-4.6-13.3-6.9c-59.9-15.1-115.8-29.2-167.4-42.1c-58.1-14.6-119.1-24.8-181.1-30.3C94.4,253.4,47.2,252,0,253.2v3.5
		C11,256.4,21.9,256.2,32.9,256.3L32.9,256.3z"/>
	<path class="st0" d="M517,340.5c5.9,1.5,11.8,3,17.8,4.5c-10.3-3.8-20.5-7.6-30.6-11.3c-0.1,0-0.3-0.1-0.4-0.1
		C508.1,335.8,512.5,338.1,517,340.5z"/>
	<path class="st0" d="M1318.3,538.6c-16.8-4.2-33.5-8.4-50.1-12.6c-2.9-0.7-5.9-1.5-8.8-2.2c-17.9-4.5-35.7-9-53.4-13.5
		c-2.9-0.7-5.9-1.5-8.8-2.2c-10.8-2.7-21.6-5.4-32.3-8.1c-3-0.7-5.9-1.5-8.8-2.2c-13.7-3.4-27.2-6.9-40.7-10.3c-3-0.8-6-1.5-9-2.3
		c-13.6-3.4-27.1-6.8-40.5-10.2c-3-0.8-6.1-1.5-9.1-2.3c-13.4-3.4-26.7-6.7-39.9-10c-3.1-0.8-6.2-1.6-9.3-2.3
		c-13.1-3.3-26.2-6.6-39.2-9.9c-3.2-0.8-6.4-1.6-9.6-2.4c-12.9-3.2-25.6-6.5-38.3-9.6c-3.3-0.8-6.6-1.7-9.8-2.5
		c-12.5-3.1-24.8-6.3-37.1-9.3c-3.4-0.9-6.9-1.7-10.3-2.6c-11.9-3-23.7-6-35.4-8.9c-3.7-0.9-7.3-1.8-11-2.8
		c-11.2-2.8-22.3-5.6-33.3-8.4c-4-1-8-2-12-3c-10.2-2.6-20.3-5.1-30.3-7.6c-4.5-1.1-9-2.3-13.5-3.4c-8.8-2.2-17.5-4.4-26.1-6.6
		c-5.4-1.4-10.8-2.7-16.2-4.1c-6.3-1.6-12.5-3.2-18.7-4.7c-7.2-1.8-14.3-3.6-21.4-5.4c-13.1-3.3-26.1-6.6-38.9-9.8
		c-24.1-6.1-47.7-12-70.8-17.8c10.1,3.7,20.3,7.5,30.6,11.3c0.2,0,0.3,0.1,0.5,0.1c12.8,3.2,25.8,6.5,38.9,9.8
		c5.6,1.4,11.3,2.8,16.9,4.3c7.2,1.8,14.5,3.6,21.8,5.5c8.1,2,16.2,4.1,24.4,6.1c5.4,1.4,10.8,2.7,16.2,4.1
		c9.6,2.4,19.2,4.8,28.9,7.3c4.5,1.1,9,2.3,13.5,3.4c10.6,2.7,21.2,5.3,31.9,8c4,1,8,2,12,3c11.3,2.9,22.8,5.7,34.3,8.6
		c3.7,0.9,7.3,1.8,11,2.8c12,3,24,6,36.1,9.1c3.4,0.9,6.9,1.7,10.3,2.6c12.4,3.1,25,6.3,37.6,9.5c3.3,0.8,6.6,1.7,9.8,2.5
		c12.8,3.2,25.7,6.5,38.7,9.7c3.2,0.8,6.4,1.6,9.6,2.4c13.1,3.3,26.2,6.6,39.4,9.9c3.1,0.8,6.2,1.6,9.3,2.3
		c13.3,3.3,26.6,6.7,40.1,10.1c3,0.8,6.1,1.5,9.1,2.3c13.5,3.4,27,6.8,40.6,10.2c3,0.8,6,1.5,9,2.3c13.5,3.4,27.2,6.8,40.9,10.3
		c2.9,0.7,5.9,1.5,8.8,2.2c10.7,2.7,21.5,5.4,32.3,8.1c2.9,0.7,5.9,1.5,8.8,2.2c17.7,4.5,35.5,8.9,53.4,13.4
		c2.9,0.7,5.9,1.5,8.8,2.2c16.6,4.2,33.3,8.4,50.1,12.6c2.9,0.7,5.9,1.5,8.8,2.2c190.6,48,393,99,602,151.6V690
		c-205.7-51.8-405-102-592.9-149.3C1324.2,540.1,1321.2,539.3,1318.3,538.6z"/>
	<path class="st0" d="M41,213.8L41,213.8c40.8,0,81.7,3.2,121.7,9.5c49.6,7.8,98.3,20.4,144.5,37.6c51.6,19.1,108.7,40.2,170.6,63.1
		c-8.1-4.3-16.2-8.5-24.1-12.6C401.5,292,352.9,274,308.4,257.5c-46.5-17.2-95.3-29.9-145.2-37.7c-49.3-7.7-99.7-10.8-149.9-9
		c-4.5,0.2-8.9,0.4-13.4,0.6v3.5c4.5-0.2,9-0.4,13.5-0.6C22.7,213.9,31.8,213.8,41,213.8z"/>
	<path class="st0" d="M1139.3,564.8c-12.9-4.8-25.8-9.5-38.6-14.3c-2.3-0.8-4.5-1.7-6.8-2.5c-13.8-5.1-27.5-10.2-41.2-15.2
		c-2.3-0.8-4.5-1.7-6.8-2.5c-8.3-3.1-16.6-6.1-24.9-9.2c-2.3-0.8-4.6-1.7-6.8-2.5c-11-4.1-21.9-8.1-32.7-12.1
		c-2.3-0.8-4.6-1.7-6.9-2.5c-11-4.1-21.9-8.1-32.8-12.1c-2.3-0.9-4.6-1.7-7-2.6c-10.9-4-21.7-8-32.5-12c-2.4-0.9-4.7-1.7-7.1-2.6
		c-10.7-4-21.4-7.9-32-11.8c-2.4-0.9-4.8-1.8-7.2-2.7c-10.6-3.9-21.1-7.8-31.5-11.7c-2.5-0.9-4.9-1.8-7.4-2.7
		c-10.4-3.8-20.6-7.6-30.8-11.4c-2.6-0.9-5.1-1.9-7.7-2.8c-10-3.7-20-7.4-29.9-11c-2.7-1-5.3-2-8-3c-9.6-3.5-19.1-7.1-28.6-10.6
		c-2.8-1.1-5.7-2.1-8.5-3.2c-9-3.3-18-6.6-26.9-9.9c-3.1-1.1-6.2-2.3-9.2-3.4c-8.3-3.1-16.5-6.1-24.6-9.1c-3.5-1.3-7-2.6-10.5-3.9
		c-7.1-2.6-14.2-5.2-21.2-7.8c-4.2-1.6-8.4-3.1-12.6-4.6c-5.2-1.9-10.3-3.8-15.4-5.7c-5.7-2.1-11.3-4.2-16.9-6.3
		c-0.1,0-0.1,0-0.2-0.1c-10.3-3.8-20.5-7.6-30.6-11.3c-19.2-7.1-38-14-56.4-20.8c7.9,4.2,16,8.4,24.1,12.6c0.3,0.1,0.5,0.2,0.8,0.3
		c10.1,3.7,20.3,7.5,30.6,11.3c4.6,1.7,9.3,3.4,13.9,5.1c5.6,2.1,11.2,4.2,16.9,6.3c6.6,2.4,13.2,4.9,19.9,7.3
		c4.2,1.5,8.4,3.1,12.6,4.6c7.7,2.9,15.5,5.7,23.4,8.6c3.5,1.3,7,2.6,10.5,3.9c8.6,3.2,17.2,6.3,25.9,9.6c3.1,1.1,6.2,2.3,9.2,3.4
		c9.2,3.4,18.4,6.8,27.7,10.2c2.8,1,5.7,2.1,8.5,3.2c9.6,3.6,19.3,7.2,29.1,10.8c2.7,1,5.3,2,8,3c10,3.7,20.1,7.4,30.2,11.2
		c2.5,0.9,5.1,1.9,7.7,2.8c10.3,3.8,20.7,7.6,31.1,11.5c2.5,0.9,4.9,1.8,7.4,2.7c10.5,3.9,21.1,7.8,31.7,11.7
		c2.4,0.9,4.8,1.8,7.2,2.7c10.7,3.9,21.4,7.9,32.2,11.9c2.4,0.9,4.7,1.7,7.1,2.6c10.8,4,21.7,8,32.6,12.1c2.3,0.9,4.6,1.7,7,2.6
		c10.9,4,21.8,8.1,32.8,12.1c2.3,0.8,4.6,1.7,6.9,2.5c10.9,4,21.8,8.1,32.8,12.1c2.3,0.8,4.5,1.7,6.8,2.5c8.3,3.1,16.6,6.1,24.9,9.2
		c2.3,0.8,4.5,1.7,6.8,2.5c13.6,5,27.4,10.1,41.2,15.2c2.3,0.8,4.5,1.7,6.8,2.5c12.8,4.7,25.6,9.5,38.6,14.3
		c2.3,0.8,4.5,1.7,6.8,2.5c243,89.9,508.9,188.2,781.1,288.8v-3.7c-269.5-99.7-532.9-197-773.9-286.2
		C1143.8,566.4,1141.5,565.6,1139.3,564.8z"/>
	<path class="st0" d="M987.4,587c-9.9-5.2-19.8-10.4-29.7-15.5c-1.7-0.9-3.5-1.8-5.2-2.7c-10.6-5.6-21.2-11.1-31.7-16.6
		c-1.7-0.9-3.5-1.8-5.2-2.7c-6.4-3.4-12.8-6.7-19.1-10c-1.8-0.9-3.5-1.8-5.2-2.8c-8.7-4.6-17.4-9.1-26.1-13.7
		c-1.8-0.9-3.5-1.8-5.3-2.8c-8.8-4.6-17.5-9.2-26.2-13.7c-1.8-0.9-3.6-1.9-5.3-2.8c-8.8-4.6-17.5-9.2-26.2-13.7
		c-1.8-0.9-3.6-1.9-5.4-2.8c-8.7-4.6-17.4-9.1-26-13.6c-1.8-1-3.7-1.9-5.5-2.9c-8.6-4.5-17.2-9-25.7-13.4c-1.9-1-3.7-1.9-5.6-2.9
		c-8.5-4.4-16.9-8.9-25.3-13.2c-1.9-1-3.8-2-5.7-3c-8.3-4.3-16.5-8.7-24.7-12.9c-2-1-3.9-2.1-5.9-3.1c-8-4.2-16-8.4-23.9-12.5
		c-2.1-1.1-4.1-2.2-6.2-3.2c-7.7-4-15.3-8-22.9-12c-2.2-1.1-4.4-2.3-6.6-3.4c-7.3-3.8-14.5-7.6-21.6-11.3c-2.4-1.3-4.8-2.5-7.2-3.8
		c-6.6-3.5-13.2-6.9-19.8-10.4c-2.7-1.4-5.4-2.8-8.1-4.2c-5.7-3-11.4-6-17.1-9c-3.3-1.7-6.5-3.4-9.7-5.1c-4.2-2.2-8.3-4.4-12.4-6.5
		c-4.4-2.3-8.9-4.6-13.3-6.9c-0.1-0.1-0.2-0.1-0.3-0.2c-8.1-4.3-16.2-8.5-24.1-12.6c-67.2-35.2-127.8-67-180.8-94.7
		c-37-19.4-76.1-34.3-116.1-44.1c-39.5-9.8-80.1-14.7-120.7-14.7c-20.6,0-41.2,1.3-61.8,3.8v3.5c20.5-2.6,41.1-3.9,61.8-3.9
		c40.3,0,80.6,4.9,119.8,14.6c39.7,9.8,78.5,24.6,115.3,43.9c46.6,24.4,99.2,52,156.9,82.2c7.9,4.2,16,8.4,24.1,12.6
		c3.8,2,7.6,4,11.4,6c4.4,2.3,8.8,4.6,13.3,6.9c5.3,2.8,10.7,5.6,16.1,8.4c3.2,1.7,6.5,3.4,9.7,5.1c6.2,3.3,12.5,6.6,18.8,9.9
		c2.7,1.4,5.4,2.8,8.1,4.2c6.9,3.6,13.8,7.2,20.8,10.9c2.4,1.2,4.8,2.5,7.2,3.8c7.4,3.9,14.8,7.7,22.3,11.7c2.2,1.1,4.4,2.3,6.6,3.4
		c7.7,4,15.5,8.1,23.4,12.2c2.1,1.1,4.1,2.2,6.2,3.2c8,4.2,16.1,8.4,24.2,12.7c2,1,3.9,2.1,5.9,3.1c8.2,4.3,16.5,8.7,24.9,13.1
		c1.9,1,3.8,2,5.7,3c8.4,4.4,16.9,8.9,25.4,13.3c1.9,1,3.7,1.9,5.6,2.9c8.5,4.5,17.1,9,25.8,13.5c1.8,1,3.7,1.9,5.5,2.9
		c8.6,4.5,17.3,9.1,26.1,13.7c1.8,0.9,3.6,1.9,5.4,2.8c8.7,4.6,17.5,9.2,26.3,13.8c1.8,0.9,3.6,1.9,5.3,2.8
		c8.7,4.6,17.5,9.2,26.3,13.8c1.8,0.9,3.5,1.8,5.3,2.8c8.7,4.5,17.4,9.1,26.1,13.7c1.7,0.9,3.5,1.8,5.2,2.8
		c6.4,3.3,12.7,6.7,19.1,10c1.7,0.9,3.5,1.8,5.2,2.7c10.5,5.5,21,11,31.7,16.6c1.7,0.9,3.5,1.8,5.2,2.7c9.8,5.2,19.7,10.3,29.7,15.5
		c1.7,0.9,3.5,1.8,5.2,2.7c284.2,148.9,608,318.7,933.2,489.1v-3.9c-323-169.3-644.7-337.9-927.4-486.1
		C990.9,588.8,989.1,587.9,987.4,587z"/>
</g>
</svg>
