<?xml version="1.0" encoding="utf-8"?>
<!-- Generator: Adobe Illustrator 27.2.0, SVG Export Plug-In . SVG Version: 6.00 Build 0)  -->
<svg version="1.1" id="Livello_1" xmlns="http://www.w3.org/2000/svg" xmlns:xlink="http://www.w3.org/1999/xlink" x="0px" y="0px"
	 viewBox="0 0 1920 1080" style="enable-background:new 0 0 1920 1080;" xml:space="preserve">
<g>
	<path d="M1283.1,1058.9c125.4,0.8,250.3,1.6,374.7,2.5c-4.6-1.4-9.1-2.7-13.7-4.1c-123.4-0.9-247.4-1.7-371.8-2.4
		C1275.9,1056.2,1279.5,1057.6,1283.1,1058.9L1283.1,1058.9z"/>
	<path d="M927.1,1052.9c-307.3-1.6-616.7-2.8-927.1-3.6v4c313.2,0.8,625.4,2,935.5,3.6C932.7,1055.6,929.9,1054.3,927.1,1052.9
		L927.1,1052.9z"/>
	<path d="M1672.1,1061.5c82.9,0.6,165.5,1.2,247.9,1.9v-4c-86.9-0.7-174.1-1.3-261.6-1.9C1663,1058.8,1667.6,1060.1,1672.1,1061.5
		L1672.1,1061.5z"/>
	<path d="M944.9,1057c109.2,0.6,218.1,1.2,326.7,1.8c-3.6-1.3-7.2-2.7-10.8-4.1c-107.8-0.7-216-1.2-324.4-1.8
		C939.2,1054.3,942.1,1055.7,944.9,1057L944.9,1057z"/>
	<path d="M1158.7,1011.9c115.5,1,230.5,2.2,344.8,3.4c-4.6-1.4-9.2-2.8-13.9-4.2c-113.3-1.2-227.3-2.3-341.8-3.3
		C1151.5,1009.2,1155.1,1010.5,1158.7,1011.9L1158.7,1011.9z"/>
	<path d="M827.2,1005.2c-273.6-2.1-549.8-3.7-827.2-4.8v4c280.2,1.2,559.2,2.8,835.7,4.9C832.8,1007.9,830,1006.5,827.2,1005.2z"/>
	<path d="M1518,1015.4c131.5,1.4,262.2,2.9,391.8,4.5c-6-1.4-11.9-2.8-17.9-4.2c-128.3-1.6-257.7-3.1-387.8-4.5
		C1508.8,1012.7,1513.4,1014.1,1518,1015.4L1518,1015.4z"/>
	<path d="M845.1,1009.3c101.1,0.8,201.8,1.6,302.1,2.5c-3.6-1.4-7.2-2.7-10.8-4.1c-99.5-0.9-199.5-1.7-299.7-2.5
		C839.4,1006.6,842.2,1007.9,845.1,1009.3L845.1,1009.3z"/>
	<path d="M1920,1018.2v-2.2c-3.2,0-6.4-0.1-9.7-0.1C1913.5,1016.7,1916.8,1017.5,1920,1018.2L1920,1018.2z"/>
	<path d="M726.7,957.1c-239.8-2.7-482.5-4.9-726.7-6.4v4c247.1,1.6,492.7,3.8,735.3,6.5C732.4,959.8,729.6,958.5,726.7,957.1
		L726.7,957.1z"/>
	<path d="M1365.2,969.8c120.6,1.9,240.1,4,358.3,6.2c-6.1-1.5-12.3-2.9-18.4-4.3c-116.8-2.2-234.9-4.2-354.1-6.1
		C1355.7,966.9,1360.4,968.3,1365.2,969.8L1365.2,969.8z"/>
	<path d="M1742.4,976.3c59.6,1.1,118.8,2.3,177.6,3.5v-4c-64.9-1.3-130.3-2.6-196-3.8C1730.1,973.4,1736.2,974.9,1742.4,976.3
		L1742.4,976.3z"/>
	<path d="M1034.4,964.9c106.1,1.4,211.4,3,316,4.6c-4.7-1.4-9.4-2.8-14.1-4.2c-103.5-1.6-207.8-3.1-312.8-4.5
		C1027.1,962.1,1030.8,963.5,1034.4,964.9L1034.4,964.9z"/>
	<path d="M744.8,961.3c93.1,1.1,185.8,2.2,277.9,3.5c-3.7-1.4-7.3-2.8-11-4.2c-91.4-1.2-183.2-2.3-275.5-3.4
		C739.1,958.6,741.9,959.9,744.8,961.3L744.8,961.3z"/>
	<path d="M911.2,918.3c97.3,2,193.6,4.1,289,6.3c-4.8-1.5-9.7-2.9-14.5-4.3C1091.3,918,996.1,916,900,914
		C903.7,915.5,907.4,916.9,911.2,918.3L911.2,918.3z"/>
	<path d="M1215.3,925c111,2.7,220.6,5.5,328.5,8.5c-6.4-1.5-12.8-3-19.2-4.5c-106.4-3-214.4-5.8-323.8-8.3
		C1205.6,922.1,1210.4,923.5,1215.3,925L1215.3,925z"/>
	<path d="M626.2,909c-206-3.5-415.2-6.3-626.2-8.4v4c214,2.2,426.1,5,634.9,8.6C632,911.8,629.1,910.4,626.2,909L626.2,909z"/>
	<path d="M1554.7,929.8c-3.4-0.1-6.9-0.2-10.4-0.3c6.4,1.5,12.8,3,19.2,4.5c115.7,3.3,234.6,6.7,356.4,10.1v-2.4
		c-3.4-0.6-6.8-1.3-10.2-1.9C1788.4,936.5,1669.9,933.1,1554.7,929.8L1554.7,929.8z"/>
	<path d="M644.5,913.3c85.5,1.5,170.4,3,254.7,4.7c-3.7-1.4-7.5-2.8-11.2-4.2c-83.5-1.7-167.5-3.2-252.2-4.6
		C638.8,910.6,641.6,911.9,644.5,913.3L644.5,913.3z"/>
	<path d="M1391.2,893.4c108.1,3.9,219.3,7.9,333.4,12c-8.8-1.7-17.7-3.3-26.5-5c-111.9-4-220.9-7.9-326.9-11.8
		C1377.9,890.2,1384.6,891.8,1391.2,893.4L1391.2,893.4z"/>
	<path d="M790.3,872.6c89.5,2.7,177.9,5.6,264.9,8.7c-5.1-1.5-10.1-3-15.2-4.5c-85.8-3-173-5.9-261.2-8.5
		C782.6,869.7,786.5,871.1,790.3,872.6L790.3,872.6z"/>
	<path d="M545.1,865.8c78.4,2,156.1,4.2,232.9,6.5c-3.8-1.5-7.7-2.9-11.5-4.3c-76-2.3-152.8-4.4-230.2-6.3
		C539.2,862.9,542.2,864.3,545.1,865.8L545.1,865.8z"/>
	<path d="M1055.9,877.3c5.1,1.5,10.1,3,15.2,4.5c97,3.5,196.9,7.1,299.7,10.8c-6.7-1.6-13.3-3.1-20-4.7
		c-98.2-3.5-193.7-7-286.6-10.3C1061.4,877.5,1058.6,877.4,1055.9,877.3L1055.9,877.3z"/>
	<path d="M526.5,861.3C354,857,178.1,853.3,0,850.5v4c181.1,2.9,360,6.5,535.3,11C532.4,864.1,529.4,862.7,526.5,861.3L526.5,861.3z
		"/>
	<path d="M1751.7,906.3c55.4,2,111.5,4,168.3,6v-4c-65.9-2.4-130.8-4.7-194.8-7C1734,903,1742.8,904.7,1751.7,906.3z"/>
	<path d="M662,824c4,1.5,8,3,12,4.5c78.3,3.6,158.9,7.2,241.6,11c-5.3-1.6-10.5-3.2-15.8-4.7c-79.1-3.6-156.3-7.1-231.3-10.5
		C666.3,824.2,664.1,824.1,662,824L662,824z"/>
	<path d="M447.6,819.1c72.2,2.8,143.4,5.7,213.5,8.9c-4-1.5-8-3-12-4.5c-69.2-3.1-139.4-6-210.6-8.7
		C441.6,816.2,444.6,817.7,447.6,819.1L447.6,819.1z"/>
	<path d="M1912,884.9c2.7,0.1,5.3,0.2,8,0.4v-4c-15.8-0.7-31.5-1.4-47.2-2.2C1885.9,881,1898.9,883,1912,884.9L1912,884.9z"/>
	<path d="M932.1,840.3c87.3,4,177,8,269,12.2c-7-1.7-14-3.3-21-5c-90.2-4.1-178.2-8.1-263.8-12C921.6,837.2,926.9,838.8,932.1,840.3
		L932.1,840.3z"/>
	<path d="M1222.7,853.5c96.4,4.4,195.4,8.9,296.8,13.5c-9.5-1.8-18.9-3.5-28.3-5.3c-98.8-4.5-195.4-8.9-289.5-13.2
		C1208.7,850.2,1215.7,851.9,1222.7,853.5L1222.7,853.5z"/>
	<path d="M1548.3,868.4c105.5,4.8,213.6,9.7,324.1,14.7c-13.1-1.9-26.2-3.9-39.2-5.8c-106.8-4.9-211.2-9.6-313.2-14.2
		C1529.4,864.8,1538.8,866.6,1548.3,868.4L1548.3,868.4z"/>
	<path d="M428.5,814.4c-139.8-5.3-283-9.7-428.5-13.4v4c148.6,3.8,294.9,8.3,437.6,13.7C434.5,817.3,431.5,815.8,428.5,814.4
		L428.5,814.4z"/>
	<path d="M344.3,769.7c3.2,1.5,6.3,3,9.5,4.5c62.9,3.6,127.8,7.3,194.7,11.2c-4.2-1.6-8.3-3.2-12.5-4.7
		c-64-3.7-126.2-7.2-186.5-10.7C347.8,769.9,346.1,769.8,344.3,769.7L344.3,769.7z"/>
	<path d="M561.9,786.2c70.2,4,142.5,8.2,216.9,12.5c-5.5-1.7-11.1-3.3-16.6-5c-73-4.2-144-8.3-212.8-12.2
		C553.6,783.1,557.8,784.6,561.9,786.2L561.9,786.2z"/>
	<path d="M1351.8,831.7c91.8,5.3,185.8,10.7,282.1,16.2c-14.9-2.2-29.7-4.4-44.6-6.6c-91.6-5.3-181.1-10.4-268.6-15.5
		C1331.1,827.8,1341.4,829.7,1351.8,831.7L1351.8,831.7z"/>
	<path d="M796.1,799.7c77.6,4.5,157.4,9.1,239.5,13.8c-7.5-1.8-15-3.5-22.4-5.3c-80-4.6-157.9-9.1-233.6-13.5
		C785.1,796.4,790.6,798,796.1,799.7L796.1,799.7z"/>
	<path d="M1058.6,814.8c84.9,4.9,172.2,9.9,261.6,15.1c-10.4-1.9-20.7-3.9-31.1-5.8c-86.5-5-170.8-9.8-253-14.6
		C1043.6,811.3,1051.1,813,1058.6,814.8L1058.6,814.8z"/>
	<path d="M1634.3,843.9c14.8,2.2,29.7,4.4,44.6,6.6c79,4.5,159.4,9.2,241.2,13.9V861c-3.6-0.4-7.1-0.8-10.7-1.2
		C1815.8,854.4,1724.1,849.1,1634.3,843.9z"/>
	<path d="M333.8,769.1C225.4,762.9,113.9,757.6,0,753v4c117.2,4.7,232,10.3,343.3,16.6C340.1,772.1,337,770.6,333.8,769.1z"/>
	<path d="M1458.9,818c80.9,5.9,163.3,11.9,247.1,18c-30.7-3.6-61.2-7.1-91.6-10.7c-70.8-5.2-140.5-10.2-209.2-15.2
		C1423.1,812.8,1441,815.4,1458.9,818z"/>
	<path d="M252.6,730.2c-3.3-1.6-6.6-3.2-9.9-4.7c-51.4-3.8-101.6-7.4-150.4-11c-30.4-2.2-61.2-4.3-92.2-6.4v4
		c30.9,2,61.6,4.1,91.9,6.3C144,722.3,197.5,726.2,252.6,730.2L252.6,730.2z"/>
	<path d="M1706.5,832.1c30.4,3.5,60.9,7.1,91.6,10.7c40.3,2.9,81,5.9,121.9,8.9v-2.2c-32.1-3-64-5.9-95.8-8.8
		C1784.7,837.8,1745.4,834.9,1706.5,832.1L1706.5,832.1z"/>
	<path d="M663.8,760.2c68.7,5,139.1,10.1,211.1,15.4c-8.2-1.9-16.4-3.9-24.5-5.8c-69.6-5.1-137.8-10-204.3-14.9
		C652,756.6,657.9,758.4,663.8,760.2L663.8,760.2z"/>
	<path d="M452.3,744.8c62.8,4.6,127.2,9.3,193.1,14.1c-5.9-1.8-11.8-3.5-17.7-5.3c-64.3-4.7-127.2-9.3-188.5-13.7
		C443.5,741.4,447.9,743.1,452.3,744.8L452.3,744.8z"/>
	<path d="M900.1,777.4c74.3,5.4,150.2,10.9,227.8,16.6c-11.8-2.2-23.5-4.4-35.2-6.6c-73.9-5.4-146.2-10.7-217.1-15.8
		C883.7,773.5,891.9,775.4,900.1,777.4L900.1,777.4z"/>
	<path d="M1163.6,796.5c78.8,5.7,159.2,11.6,241.2,17.6c-17.9-2.7-35.8-5.3-53.7-7.9c-75.6-5.5-149.9-10.9-222.7-16.2
		C1140.1,792.2,1151.8,794.4,1163.6,796.5L1163.6,796.5z"/>
	<path d="M263.5,731c56.7,4.1,115,8.4,174.8,12.7c-4.4-1.7-8.8-3.3-13.1-5c-58.6-4.3-115.8-8.4-171.5-12.5
		C256.9,727.9,260.2,729.4,263.5,731z"/>
	<path d="M1613.4,821.2c69.3,6.4,139.6,12.9,210.8,19.4c31.8,2.9,63.7,5.9,95.8,8.8v-4c-161.4-14.9-318.6-29.4-470.9-43.4
		C1503.3,808.4,1558.1,814.8,1613.4,821.2L1613.4,821.2z"/>
	<path d="M748.3,741.5c63.6,5.9,128.6,11.8,194.8,18c-14.2-2.7-28.4-5.3-42.5-7.9c-61.2-5.6-121.3-11.2-180.2-16.6
		C729.7,737.1,739,739.3,748.3,741.5L748.3,741.5z"/>
	<path d="M345.6,704.4c55.4,5.1,112.2,10.3,170.2,15.7c-6.5-1.9-13-3.9-19.4-5.8c-56.2-5.2-111.1-10.2-164.8-15.2
		C336.2,700.9,340.9,702.6,345.6,704.4L345.6,704.4z"/>
	<path d="M1259.1,788.6c62.3,5.7,125.5,11.6,189.5,17.5c-55.4-6.5-110.1-12.8-164.3-19.2c-32.8-3-65.4-6-97.8-9
		C1210.6,781.4,1234.8,785,1259.1,788.6z"/>
	<path d="M153.2,682.7c-52.5-4.8-103.6-9.5-153.2-14.1v4c52.8,4.9,107.4,9.9,163.6,15.1C160.1,686,156.6,684.3,153.2,682.7
		L153.2,682.7z"/>
	<path d="M175.1,688.7c50.6,4.7,102.4,9.4,155.6,14.3c-4.7-1.8-9.4-3.5-14-5.3c-51.9-4.8-102.5-9.5-151.9-14
		C168.1,685.4,171.6,687,175.1,688.7L175.1,688.7z"/>
	<path d="M986.2,763.4c65.5,6,132.1,12.2,199.9,18.4c-24.3-3.6-48.5-7.2-72.5-10.7c-57.5-5.3-114.1-10.5-169.9-15.7
		C957.8,758.1,972,760.8,986.2,763.4L986.2,763.4z"/>
	<path d="M536,721.9c59.9,5.5,121.2,11.2,183.8,16.9c-9.3-2.2-18.6-4.4-27.9-6.6c-59.7-5.5-118.1-10.9-175.4-16.2
		C523,718.1,529.5,720,536,721.9L536,721.9z"/>
	<path d="M65.6,640.8c-22.2-2.6-44-5.1-65.6-7.7v4c25.2,2.9,50.8,5.9,76.8,9C73,644.3,69.3,642.5,65.6,640.8z"/>
	<path d="M824.8,733.3c50.5,5.9,101.8,11.9,153.7,17.9c-43.9-6.5-87.3-12.9-130.2-19.2c-27.2-3.2-54.2-6.3-81-9.4
		C786.4,726.1,805.6,729.7,824.8,733.3L824.8,733.3z"/>
	<path d="M413.6,685.4c51.4,6,103.8,12.1,157.2,18.3c-11.3-2.7-22.5-5.3-33.7-8c-49.5-5.8-98-11.4-145.6-17
		C398.8,681,406.2,683.2,413.6,685.4z"/>
	<path d="M242.5,665.4c48.3,5.6,97.7,11.4,148.2,17.3c-7.4-2.2-14.8-4.4-22.1-6.6c-48.1-5.6-95.3-11.1-141.5-16.5
		C232.2,661.5,237.3,663.5,242.5,665.4L242.5,665.4z"/>
	<path d="M605.2,707.7c52.9,6.2,106.8,12.5,161.6,18.8c-19.3-3.6-38.4-7.2-57.5-10.7c-46.6-5.4-92.6-10.8-137.8-16.1
		C582.7,702.4,593.9,705.1,605.2,707.7L605.2,707.7z"/>
	<path d="M89,647.5c44.6,5.2,90.3,10.5,137.1,16c-5.1-1.9-10.3-3.9-15.4-5.8c-45.3-5.3-89.6-10.4-132.8-15.5
		C81.6,644,85.3,645.7,89,647.5L89,647.5z"/>
	<path d="M1706.5,832.1c-31.2-3.6-62.2-7.2-93.1-10.8c-55.3-6.5-110.1-12.8-164.3-19.2C1287,783.2,1130,764.9,979,747.3
		c43,6.3,86.4,12.8,130.2,19.2c57.6,6.7,115.9,13.5,175.1,20.4c54.1,6.3,108.9,12.7,164.3,19.2c54.7,6.4,110,12.8,165.8,19.3
		c30.4,3.5,60.9,7.1,91.6,10.7c67.1,7.8,134.9,15.7,203.3,23.7c3.6,0.4,7.1,0.8,10.7,1.2v-4c-40.9-4.8-81.6-9.5-121.9-14.2
		C1767.4,839.2,1736.8,835.6,1706.5,832.1L1706.5,832.1z"/>
	<path d="M143.7,628.1c41.4,6.1,83.7,12.3,126.7,18.7c-8.9-2.7-17.8-5.3-26.7-8c-39.9-5.9-79.1-11.7-117.6-17.3
		C132,623.7,137.9,625.9,143.7,628.1L143.7,628.1z"/>
	<path d="M474.9,676.9c40.9,6,82.4,12.2,124.5,18.4c-34.8-6.5-69.2-12.9-103.3-19.3c-22.4-3.3-44.7-6.6-66.8-9.8
		C444.4,669.7,459.6,673.3,474.9,676.9L474.9,676.9z"/>
	<path d="M125.2,625.3c-5.9-2.2-11.7-4.4-17.5-6.6C71,613.3,35.2,608,0,602.8v2.1c2,0.9,3.9,1.9,5.9,2.8
		C44.7,613.5,84.5,619.3,125.2,625.3L125.2,625.3z"/>
	<path d="M298.1,650.8c42.7,6.3,86.2,12.7,130.5,19.2c-15.3-3.6-30.5-7.2-45.6-10.8c-37.8-5.6-75-11.1-111.6-16.5
		C280.2,645.5,289.1,648.2,298.1,650.8L298.1,650.8z"/>
	<path d="M1872.8,879.1c-65.2-9.6-129.9-19.2-194-28.6c-14.9-2.2-29.7-4.4-44.6-6.6c-59-8.7-117.5-17.3-175.4-25.9
		c-17.9-2.7-35.8-5.3-53.7-7.9c-49.2-7.2-97.9-14.4-146.2-21.6c-24.3-3.6-48.5-7.2-72.5-10.7c-25.9-3.8-51.7-7.6-77.3-11.4
		c-43.8-6.5-87.3-12.9-130.2-19.2c-130.8-19.3-257.3-38-379-55.9c34.1,6.4,68.5,12.8,103.3,19.3c47.7,7,96,14.2,145,21.4
		c42.9,6.3,86.3,12.7,130.2,19.2c44.5,6.6,89.5,13.2,135,19.9c24,3.5,48.2,7.1,72.5,10.7c54.4,8,109.4,16.2,165.1,24.3
		c17.8,2.6,35.7,5.3,53.7,7.9c60.9,9,122.4,18.1,184.6,27.2c14.8,2.2,29.7,4.4,44.6,6.6c65.8,9.7,132.3,19.5,199.3,29.4
		c13.1,1.9,26.1,3.8,39.2,5.8c15.8,2.3,31.7,4.7,47.6,7v-4c-2.7-0.4-5.3-0.8-8-1.2C1898.9,883,1885.9,881.1,1872.8,879.1
		L1872.8,879.1z"/>
	<path d="M193,619.4c33,6.2,66.6,12.4,100.6,18.8c-27.7-6.5-55.1-13-82.2-19.4c-18.4-3.4-36.6-6.8-54.7-10.2
		C168.7,612.2,180.8,615.8,193,619.4L193,619.4z"/>
	<path d="M50.6,592.9c34.4,6.4,69.5,13,105.2,19.6c-12.1-3.6-24.2-7.2-36.3-10.8C89,596,58.9,590.3,29.3,584.8
		C36.4,587.5,43.5,590.2,50.6,592.9L50.6,592.9z"/>
	<path d="M7,580.7c-2.3-0.4-4.7-0.9-7-1.3v4.1c9.4,1.8,18.8,3.5,28.3,5.3C21.1,586,14.1,583.3,7,580.7L7,580.7z"/>
	<path d="M1725.2,901.4c-59.3-11.1-118.3-22.1-176.9-33c-9.5-1.8-18.9-3.5-28.3-5.3c-56.5-10.5-112.5-21-168.2-31.4
		c-10.4-1.9-20.7-3.9-31-5.8c-52.8-9.9-105.2-19.6-157.1-29.3c-11.8-2.2-23.5-4.4-35.2-6.6c-47.8-8.9-95.3-17.8-142.2-26.5
		c-14.2-2.7-28.4-5.3-42.5-7.9c-40-7.5-79.6-14.9-118.8-22.2c-19.3-3.6-38.4-7.2-57.5-10.7c-21.5-4-42.8-8-64-12
		c-34.8-6.5-69.2-12.9-103.3-19.3c-105.4-19.7-207.5-38.7-305.7-57c27.1,6.4,54.5,12.9,82.2,19.4c39.3,7.3,79.1,14.8,119.5,22.3
		c34.1,6.4,68.5,12.8,103.3,19.3c36.2,6.8,72.9,13.6,109.9,20.5c19.1,3.6,38.2,7.1,57.5,10.7c44.1,8.2,88.8,16.6,133.9,25
		c14.1,2.6,28.3,5.3,42.5,7.9c49.3,9.2,99.2,18.5,149.5,27.9c11.7,2.2,23.4,4.4,35.2,6.6c53.3,10,107.1,20,161.3,30.1
		c10.3,1.9,20.7,3.9,31.1,5.8c56.5,10.5,113.5,21.2,170.9,31.9c9.4,1.8,18.9,3.5,28.3,5.3c59.2,11,118.8,22.2,178.7,33.4
		c8.8,1.7,17.7,3.3,26.5,5c61.4,11.5,123.1,23,185.1,34.5c3.4,0.6,6.8,1.3,10.2,1.9v-4.1c-56.3-10.5-112.5-21-168.3-31.4
		C1742.8,904.7,1734,903,1725.2,901.4L1725.2,901.4z"/>
	<path d="M1742.4,976.3c-6.1-1.5-12.3-2.9-18.4-4.3c-53.6-12.7-107.1-25.3-160.4-37.9c-6.4-1.5-12.8-3-19.2-4.5
		c-51.2-12.1-102.2-24.1-153.1-36.2c-6.7-1.6-13.3-3.1-20-4.7c-49.8-11.8-99.3-23.5-148.6-35.1c-7-1.7-14-3.3-21-5
		c-48-11.3-95.7-22.6-143.1-33.8c-7.5-1.8-15-3.5-22.4-5.3c-45.7-10.8-91.1-21.5-136.1-32.1c-8.2-1.9-16.4-3.9-24.5-5.8
		c-42.8-10.1-85.2-20.1-127.2-30c-9.3-2.2-18.6-4.4-27.9-6.6c-38.8-9.2-77.2-18.2-115.3-27.2c-11.3-2.7-22.5-5.3-33.7-8
		c-32.5-7.7-64.7-15.3-96.6-22.8c-15.3-3.6-30.5-7.2-45.6-10.8c-17.7-4.2-35.3-8.3-52.8-12.5c-27.6-6.5-55-13-82.2-19.4
		c-85-20.1-167.3-39.5-246.5-58.2c21.7,6.5,43.5,13,65.6,19.6c32.2,7.6,64.8,15.3,97.9,23.1c27.1,6.4,54.5,12.9,82.2,19.4
		c29.5,7,59.3,14,89.4,21.1c15.1,3.6,30.3,7.2,45.6,10.8c35.8,8.5,72,17,108.6,25.6c11.2,2.6,22.4,5.3,33.7,8
		c40,9.4,80.3,19,121.1,28.6c9.3,2.2,18.6,4.4,27.9,6.6c43.1,10.2,86.7,20.5,130.6,30.8c8.2,1.9,16.3,3.9,24.5,5.8
		c45.7,10.8,91.8,21.7,138.2,32.7c7.5,1.8,14.9,3.5,22.4,5.3c47.8,11.3,96,22.7,144.5,34.1c7,1.7,14,3.3,21,5
		c49.6,11.7,99.5,23.5,149.7,35.3c6.7,1.6,13.3,3.1,20,4.7c51.1,12.1,102.4,24.2,153.8,36.3c6.4,1.5,12.8,3,19.2,4.5
		c53.6,12.7,107.4,25.4,161.3,38.1c6.1,1.5,12.3,2.9,18.4,4.3c56.1,13.2,112.3,26.5,168.5,39.8c6,1.4,11.9,2.8,17.9,4.2
		c3.4,0.8,6.8,1.6,10.2,2.4v-4.1c-3.2-0.8-6.4-1.5-9.7-2.3C1854.3,1002.7,1798.3,989.5,1742.4,976.3L1742.4,976.3z"/>
	<path d="M0,565.9v2.9c15.5,3.7,31.1,7.3,46.8,11.1C31.1,575.2,15.5,570.6,0,565.9z"/>
	<path d="M1658.4,1057.4c-46.6-13.9-93.5-27.9-140.4-42c-4.6-1.4-9.2-2.8-13.9-4.2c-46.2-13.8-92.6-27.7-139-41.5
		c-4.7-1.4-9.4-2.8-14.1-4.2c-45.2-13.5-90.5-27-135.7-40.6c-4.8-1.5-9.7-2.9-14.5-4.3c-43.3-12.9-86.5-25.9-129.7-38.8
		c-5.1-1.5-10.1-3-15.2-4.5c-41.4-12.4-82.7-24.7-123.8-37c-5.3-1.6-10.5-3.2-15.8-4.7c-40.2-12-80.3-24-120.2-35.9
		c-5.5-1.7-11.1-3.3-16.6-5c-38.8-11.6-77.4-23.1-115.7-34.6c-5.9-1.8-11.8-3.5-17.7-5.3c-37-11-73.7-22-110.1-32.9
		c-6.5-1.9-13-3.9-19.4-5.8c-34.6-10.3-69-20.6-103-30.8c-7.4-2.2-14.8-4.4-22.1-6.6c-31.4-9.4-62.5-18.7-93.4-27.9
		c-8.9-2.7-17.8-5.3-26.7-8c-26.4-7.9-52.5-15.7-78.4-23.4c-12.1-3.6-24.2-7.2-36.3-10.8c-14.5-4.3-28.9-8.6-43.2-12.9
		c-22.1-6.6-43.9-13.1-65.6-19.6c-16.1-4.8-32-9.6-47.9-14.3v4.2c15.5,4.6,31.1,9.3,46.8,14c24,7.2,48.2,14.4,72.6,21.7
		c12,3.6,24.1,7.2,36.3,10.8c29,8.7,58.4,17.4,88,26.3c8.9,2.7,17.8,5.3,26.7,8c32.4,9.7,65.1,19.4,98.1,29.3
		c7.4,2.2,14.7,4.4,22.1,6.6c34.9,10.4,70.1,21,105.7,31.6c6.5,1.9,12.9,3.9,19.4,5.8c37,11,74.3,22.2,111.8,33.4
		c5.9,1.8,11.8,3.5,17.7,5.3c38.7,11.6,77.7,23.2,116.9,34.9c5.5,1.7,11.1,3.3,16.6,5c40.1,12,80.5,24,121,36.2
		c5.3,1.6,10.5,3.2,15.8,4.7c41.3,12.3,82.8,24.7,124.4,37.2c5.1,1.5,10.1,3,15.2,4.5c43.4,13,86.8,26,130.4,39
		c4.8,1.5,9.7,2.9,14.5,4.3c45.4,13.6,90.8,27.1,136.2,40.7c4.7,1.4,9.4,2.8,14.1,4.2c46.5,13.9,92.9,27.8,139.3,41.6
		c4.6,1.4,9.2,2.8,13.9,4.2c47,14,93.9,28.1,140.6,42c4.6,1.4,9.1,2.7,13.7,4.1c20.8,6.2,41.6,12.4,62.3,18.6h14
		c-20.6-6.2-41.2-12.3-61.9-18.5C1667.5,1060.1,1663,1058.8,1658.4,1057.4L1658.4,1057.4z"/>
	<path d="M1272.3,1054.9c-37.7-14.2-75.6-28.6-113.6-43c-3.6-1.4-7.2-2.7-10.8-4.1c-37.7-14.2-75.5-28.6-113.5-42.9
		c-3.7-1.4-7.3-2.8-11-4.2c-37.4-14.1-74.8-28.3-112.3-42.5c-3.7-1.4-7.5-2.8-11.2-4.2c-36.6-13.8-73.2-27.7-109.7-41.5
		c-3.8-1.5-7.7-2.9-11.5-4.3c-35-13.2-70-26.5-104.8-39.6c-4-1.5-8-3-12-4.5c-33.5-12.7-66.8-25.3-100-37.8
		c-4.2-1.6-8.3-3.2-12.5-4.7c-32.5-12.3-64.9-24.5-97.2-36.7c-4.4-1.7-8.8-3.3-13.1-5c-31.4-11.9-62.6-23.7-93.6-35.4
		c-4.7-1.8-9.4-3.5-14-5.3c-29.9-11.3-59.6-22.5-89.1-33.7c-5.1-1.9-10.3-3.9-15.4-5.8c-28-10.6-55.8-21.1-83.3-31.5
		c-5.9-2.2-11.7-4.4-17.5-6.6c-25.4-9.6-50.6-19.2-75.6-28.6c-7.1-2.7-14.2-5.4-21.2-8c-9.8-3.7-19.6-7.4-29.3-11.1v4.3
		c2.3,0.9,4.7,1.8,7,2.7c7.1,2.7,14.1,5.3,21.2,8c26.2,9.9,52.7,19.9,79.4,30c5.8,2.2,11.7,4.4,17.5,6.6
		c28.3,10.7,56.8,21.5,85.5,32.3c5.1,1.9,10.3,3.9,15.4,5.8c29.9,11.3,60.1,22.7,90.5,34.2c4.7,1.8,9.4,3.5,14,5.3
		c31.3,11.8,62.8,23.8,94.5,35.7c4.4,1.7,8.8,3.3,13.1,5c32.4,12.3,65.1,24.6,97.8,37c4.2,1.6,8.3,3.2,12.5,4.7
		c33.4,12.6,66.9,25.3,100.5,38c4,1.5,8,3,12,4.5c35,13.2,70.2,26.5,105.4,39.8c3.8,1.5,7.7,2.9,11.5,4.3
		c36.7,13.9,73.3,27.7,110,41.6c3.7,1.4,7.5,2.8,11.2,4.2c37.5,14.2,75.1,28.4,112.5,42.5c3.7,1.4,7.3,2.8,11,4.2
		c38,14.4,75.9,28.7,113.6,43c3.6,1.4,7.2,2.7,10.8,4.1c38.1,14.4,76,28.7,113.7,43c3.6,1.4,7.2,2.7,10.8,4.1
		c18.7,7.1,37.3,14.1,55.9,21.1h11.3c-18.5-7-37.1-14-55.7-21.1C1279.5,1057.6,1276,1056.2,1272.3,1054.9L1272.3,1054.9z"/>
	<path d="M936.4,1053c-30.2-14.5-60.7-29-91.3-43.7c-2.8-1.3-5.7-2.7-8.5-4.1c-30.4-14.6-61.1-29.2-91.8-43.9
		c-2.8-1.4-5.7-2.7-8.6-4.1c-30.5-14.6-61-29.2-91.7-43.9c-2.9-1.4-5.8-2.8-8.7-4.2c-30.2-14.5-60.5-28.9-90.8-43.4
		c-2.9-1.4-5.9-2.8-8.8-4.2c-29.5-14.1-59.1-28.3-88.6-42.4c-3-1.5-6.1-2.9-9.1-4.3c-28.3-13.5-56.5-27-84.7-40.5
		c-3.2-1.5-6.4-3-9.5-4.5c-27-12.9-54-25.8-80.9-38.7c-3.3-1.6-6.6-3.2-9.9-4.7c-26.3-12.6-52.5-25.1-78.6-37.6
		c-3.5-1.7-6.9-3.3-10.4-5c-25.4-12.1-50.6-24.2-75.6-36.2c-3.7-1.8-7.4-3.5-11.1-5.3c-24.2-11.6-48.2-23.1-72-34.5
		c-2-0.9-3.9-1.9-5.9-2.8v4.4c21.7,10.4,43.6,20.9,65.6,31.4c3.7,1.8,7.4,3.5,11.1,5.3c25.3,12.1,50.8,24.3,76.4,36.6
		c3.5,1.7,6.9,3.3,10.4,5c26.2,12.5,52.6,25.2,79.1,37.8c3.3,1.6,6.6,3.2,9.9,4.7c27,12.9,54.1,25.9,81.3,38.9
		c3.2,1.5,6.3,3,9.5,4.5c28.3,13.5,56.7,27.1,85.2,40.8c3,1.5,6,2.9,9.1,4.3c29.6,14.2,59.3,28.4,88.9,42.5c2.9,1.4,5.9,2.8,8.8,4.2
		c30.3,14.5,60.7,29,90.9,43.5c2.9,1.4,5.8,2.8,8.7,4.2c30.7,14.7,61.3,29.3,91.8,43.9c2.9,1.4,5.7,2.7,8.6,4.1
		c30.8,14.7,61.4,29.4,91.9,44c2.8,1.4,5.7,2.7,8.5,4.1c30.7,14.7,61.2,29.3,91.4,43.7c2.8,1.3,5.6,2.7,8.5,4
		c16.1,7.7,32.1,15.4,48.1,23h9.3c-15.9-7.6-31.9-15.3-48-23C942.1,1055.7,939.3,1054.4,936.4,1053L936.4,1053z"/>
</g>
</svg>
