<?xml version="1.0" encoding="utf-8"?>
<!-- Generator: Adobe Illustrator 27.2.0, SVG Export Plug-In . SVG Version: 6.00 Build 0)  -->
<svg version="1.1" id="Livello_1" xmlns="http://www.w3.org/2000/svg" xmlns:xlink="http://www.w3.org/1999/xlink" x="0px" y="0px"
	 viewBox="0 0 1920 1080" style="enable-background:new 0 0 1920 1080;" xml:space="preserve">
<g>
	<path d="M0,1050.3v4c319.5-0.8,639.9-1.2,960-1.2s640.5,0.4,960,1.2v-4c-319.5-0.8-639.9-1.2-960-1.2S319.5,1049.5,0,1050.3z"/>
	<path d="M0,1001.2v4c319.1-1.3,639.8-1.9,960-1.9s640.9,0.7,960,1.9v-4c-319.1-1.3-639.8-1.9-960-1.9S319.1,1000,0,1001.2z"/>
	<path d="M0,951.5v4c318.5-2,639.5-3,960-3s641.5,1,960,3v-4c-318.5-2-639.5-3-960-3S318.5,949.5,0,951.5z"/>
	<path d="M0,901.4v4c317.5-3.1,639-4.7,960-4.7s642.5,1.6,960,4.7v-4c-317.5-3.1-639.1-4.7-960-4.7S317.5,898.3,0,901.4z"/>
	<path d="M0,851.2v4c315.9-4.9,638.3-7.5,960-7.5s644,2.5,960,7.5v-4c-315.9-4.9-638.4-7.5-960-7.5S315.9,846.3,0,851.2z"/>
	<path d="M0,801.5v4c313.4-7.7,637.2-11.7,960-11.7s646.5,4,960,11.7v-4c-313.5-7.7-637.2-11.7-960-11.7S313.4,793.8,0,801.5z"/>
	<path d="M0,753.2v4c309.3-12.2,635.3-18.5,960-18.5s650.6,6.3,960,18.5v-4c-309.4-12.2-635.4-18.5-960-18.5S309.3,741,0,753.2z"/>
	<path d="M0,707.9v4c302.7-19.3,632.1-29.4,960-29.4s657.1,10.1,960,29.4v-4c-302.9-19.3-632.2-29.4-960-29.4S302.7,688.6,0,707.9z"
		/>
	<path d="M960,621.1c-297.3,0-596.2,13.1-864.4,37.8c-31.1,2.9-63,5.8-95.7,8.8v4c32.8-3,64.8-6,96-8.8
		c268-24.7,566.8-37.8,864-37.8s596.1,13.1,864.4,37.8c31.2,2.9,63.1,5.8,95.6,8.8v-4c-32.4-3-64.2-5.9-95.2-8.8
		C1556.4,634.2,1257.4,621.1,960,621.1L960,621.1z"/>
	<path d="M960,562.6c-239.8,0-480.9,13.3-697.1,38.6C181.1,610.7,93.3,621,0,631.8v4c93.4-10.9,181.4-21.2,263.3-30.7
		c216.1-25.2,457-38.5,696.7-38.5s480.7,13.3,697,38.5c82,9.6,169.8,19.8,263,30.7v-4c-93-10.8-180.7-21.1-262.5-30.6
		C1441,575.9,1199.8,562.6,960,562.6L960,562.6z"/>
	<path d="M960,502.9c-193.4,0-387.9,13.6-562.3,39.4c-118.1,17.4-251.4,37-397.7,58.6v4c146.5-21.6,280-41.3,398.3-58.8
		c174.3-25.7,368.5-39.3,561.7-39.3s387.6,13.6,562,39.3c118.4,17.5,251.8,37.1,398,58.7v-4c-146-21.5-279.2-41.2-397.4-58.6
		C1348,516.5,1153.4,502.9,960,502.9L960,502.9z"/>
	<path d="M67.7,564c-22.2,4.2-44.8,8.4-67.7,12.6v4.1c18.1-3.4,36-6.7,53.8-10C58.4,568.5,63.1,566.2,67.7,564L67.7,564z"/>
	<path d="M1866.2,570.7c17.7,3.3,35.6,6.7,53.8,10v-4.1c-22.9-4.3-45.5-8.5-67.7-12.6C1857,566.2,1861.6,568.4,1866.2,570.7
		L1866.2,570.7z"/>
	<path d="M507.1,486.1C647.6,459.8,804.2,446,960,446s312.5,13.9,453.1,40.1c123.4,23,271,50.6,438,81.8c-4.7-2.2-9.3-4.5-13.9-6.7
		c-161-30-303.5-56.6-423.3-79C1273,455.9,1116,442,960,442s-312.9,13.9-453.6,40.2c-121.2,22.6-263.7,49.2-423.5,79
		c-4.6,2.2-9.3,4.4-13.9,6.7C234.7,536.9,382.2,509.4,507.1,486.1L507.1,486.1L507.1,486.1z"/>
	<path d="M1905.8,561.8c4.7,1.1,9.4,2.2,14.2,3.3V561c-14.5-3.4-28.9-6.8-43.1-10.2C1886.5,554.5,1896.2,558.1,1905.8,561.8
		L1905.8,561.8z"/>
	<path d="M43.1,550.9c-14.3,3.4-28.6,6.8-43.1,10.2v4.1c4.7-1.1,9.5-2.2,14.2-3.3C23.9,558.2,33.5,554.5,43.1,550.9z"/>
	<path d="M1791.2,534.7c27.7,6.5,55.9,13.2,84.5,20c-9.7-3.7-19.3-7.3-28.9-11c-24.6-5.8-48.7-11.5-72.5-17.1
		C1779.9,529.3,1785.5,532,1791.2,534.7L1791.2,534.7z"/>
	<path d="M960,383.8c125.6,0,251.9,14.1,365.2,40.9c124.9,29.5,276.3,65.2,447.7,105.7c-5.7-2.7-11.3-5.4-17-8.1
		c-164-38.7-309.2-73-429.8-101.5c-113.6-26.8-240.3-41-366.2-41s-252.5,14.2-366,41C473.5,449.2,328.2,483.6,164,522.3
		c-5.6,2.7-11.3,5.4-17,8.1c171.6-40.5,323-76.3,447.8-105.8C708.2,397.9,834.4,383.8,960,383.8L960,383.8z"/>
	<path d="M44.3,554.7c28.7-6.8,56.8-13.4,84.5-20c5.7-2.7,11.3-5.4,17-8.1c-23.8,5.6-48,11.3-72.5,17.1
		C63.7,547.4,54,551.1,44.3,554.7L44.3,554.7z"/>
	<path d="M960,320.3c101.2,0,203,14.4,294.3,41.7c120.6,36,271.5,81.1,443.9,132.6c-7.8-3.7-15.5-7.4-23.2-11.1
		c-162.3-48.5-304.6-91-419.5-125.4c-91.7-27.4-193.9-41.9-295.5-41.9s-203.7,14.5-295.3,41.9C550.1,392.4,407.6,435,245,483.6
		c-7.7,3.7-15.5,7.4-23.2,11.1c172.7-51.6,323.8-96.8,444-132.7C757.1,334.8,858.8,320.3,960,320.3L960,320.3z"/>
	<path d="M1841.8,537.6c25.7,7.7,51.8,15.5,78.2,23.4v-4.2c-44.7-13.3-88.3-26.4-130.8-39.1C1806.5,524.3,1824.1,530.9,1841.8,537.6
		L1841.8,537.6z"/>
	<path d="M130.9,517.7C88.3,530.4,44.7,543.5,0,556.8v4.2c26.4-7.9,52.5-15.7,78.2-23.4C95.9,530.9,113.5,524.3,130.9,517.7
		L130.9,517.7z"/>
	<path d="M132.1,521.5c22-6.6,43.6-13,65-19.4c7.8-3.7,15.5-7.4,23.2-11.1c-11.8,3.5-23.6,7-35.6,10.6
		C167.4,508.2,149.9,514.8,132.1,521.5L132.1,521.5z"/>
	<path d="M1722.9,502.1c21.3,6.4,43,12.8,65,19.4c-17.7-6.7-35.3-13.3-52.7-19.9c-11.9-3.6-23.8-7.1-35.6-10.6
		C1707.4,494.6,1715.1,498.3,1722.9,502.1L1722.9,502.1z"/>
	<path d="M960,255.6c81.5,0,163.5,14.7,237.1,42.5c113,42.7,260.3,98.4,430.2,162.7c-14.4-6.9-28.6-13.7-42.6-20.4
		c-151.4-57.2-283.1-107-386.2-146c-74-28-156.5-42.8-238.5-42.8s-164.5,14.8-238.4,42.8l0,0c-102.9,38.8-234.5,88.6-386.3,146
		c-14,6.7-28.3,13.5-42.6,20.4C463.1,396.4,610.3,340.7,723,298.1C796.5,270.3,878.5,255.6,960,255.6L960,255.6z"/>
	<path d="M73.2,543.8c19.8-7.5,39.5-14.9,58.9-22.3c17.7-6.7,35.3-13.4,52.7-19.9c21.5-8.1,42.7-16.2,63.6-24.1
		c14.3-6.9,28.5-13.7,42.6-20.4c-51.4,19.4-104.9,39.7-160.2,60.6c-17.4,6.6-34.9,13.2-52.7,19.9c-11.6,4.4-23.3,8.8-35.1,13.3
		c-9.6,3.6-19.3,7.3-29,11c-4.7,1.8-9.4,3.6-14.2,5.4v4.3c14.9-5.6,29.6-11.2,44.3-16.8C54,551.1,63.6,547.4,73.2,543.8L73.2,543.8z
		"/>
	<path d="M1876.9,550.9c-11.8-4.5-23.5-8.9-35.1-13.3c-17.7-6.7-35.3-13.3-52.7-19.9c-55.3-20.9-108.8-41.1-160.2-60.6
		c14.1,6.7,28.3,13.5,42.6,20.4c20.9,7.9,42.1,15.9,63.7,24.1c17.4,6.6,34.9,13.2,52.7,19.9c19.4,7.3,39.1,14.8,58.9,22.3
		c9.6,3.6,19.3,7.3,28.9,11c14.7,5.5,29.4,11.1,44.3,16.8v-4.3c-4.7-1.8-9.4-3.6-14.2-5.3C1896.2,558.2,1886.5,554.5,1876.9,550.9
		L1876.9,550.9z"/>
	<path d="M1852.3,564c-20.6-9.8-41-19.6-61.1-29.2c-5.7-2.7-11.3-5.4-17-8.1c-17.3-8.3-34.4-16.5-51.3-24.5
		c-7.8-3.7-15.5-7.4-23.2-11.1c-9.4-4.5-18.8-9-28.1-13.4c-14.3-6.9-28.6-13.7-42.6-20.4c-194.3-93-360.3-172.4-476.3-227.9
		c-59.8-28.6-126.4-43.7-192.7-43.7s-132.8,15.1-192.6,43.7C649.1,286,483.3,365.3,291,457.3c-14.1,6.7-28.3,13.5-42.6,20.4
		c-9.3,4.5-18.7,8.9-28.1,13.4c-7.7,3.7-15.5,7.4-23.2,11.1c-16.9,8.1-34,16.3-51.3,24.5c-5.6,2.7-11.3,5.4-17,8.1
		c-20.2,9.7-40.6,19.4-61.1,29.2c-4.6,2.2-9.3,4.4-13.9,6.7C36,579.2,18,587.8,0,596.4v4.4c23.2-11.1,46.2-22.1,68.9-33
		c4.7-2.2,9.3-4.5,13.9-6.7c21.6-10.3,43-20.6,64.2-30.7c5.7-2.7,11.3-5.4,17-8.1c19.4-9.3,38.7-18.5,57.7-27.6
		c7.8-3.7,15.5-7.4,23.2-11.1c16-7.7,31.9-15.3,47.6-22.8c14.4-6.9,28.6-13.7,42.6-20.4C509.3,357,659.5,285.2,769,232.8
		c59.2-28.3,125.2-43.3,190.8-43.3s131.7,15,190.9,43.3c107.4,51.4,257.8,123.4,433.8,207.6c14.1,6.7,28.3,13.5,42.6,20.4
		c15.7,7.5,31.6,15.1,47.6,22.8c7.7,3.7,15.5,7.4,23.2,11.1c19,9.1,38.2,18.3,57.7,27.6c5.6,2.7,11.3,5.4,17,8.1
		c21.2,10.1,42.6,20.4,64.2,30.7c4.6,2.2,9.3,4.4,13.9,6.7c22.8,10.9,45.8,21.9,68.9,33v-4.4c-18.1-8.6-36-17.2-53.8-25.7
		C1861.6,568.4,1857,566.2,1852.3,564L1852.3,564z"/>
</g>
</svg>
