<?xml version="1.0" encoding="utf-8"?>
<!-- Generator: Adobe Illustrator 27.2.0, SVG Export Plug-In . SVG Version: 6.00 Build 0)  -->
<svg version="1.1" id="Layer_1" xmlns="http://www.w3.org/2000/svg" xmlns:xlink="http://www.w3.org/1999/xlink" x="0px" y="0px"
	 viewBox="0 0 3490.2 3030.8" style="enable-background:new 0 0 3490.2 3030.8;" xml:space="preserve">
<style type="text/css">
	.st0{fill-rule:evenodd;clip-rule:evenodd;}
</style>
<g>
	<g transform="matrix(1,0,0,1,-2136.56,-973.343)">
		<g transform="matrix(0.746669,0,0,0.746669,1490.58,432.701)">
			<g id="Full-logo_00000139295136513109007540000013285830170721847179_">
				<path id="Top_00000057863098112285065900000007353390521199199119_" class="st0" d="M3154.2,1366.9c30.4-14.6,65.9-14.6,96.3,0
					c142.1,68,556.6,266.3,674.7,322.8c19.4,9.3,31.7,28.9,31.7,50.3v147.7c0,0-522.5-154.9-697.9-206.9c-37-11-76.3-11-113.3,0
					c-175.4,52-697.9,206.9-697.9,206.9v-147.7c0-21.5,12.3-41.1,31.7-50.3C2597.6,1633.2,3012.1,1434.9,3154.2,1366.9z"/>
				<path id="Bottom_00000099648565341899032300000016484898258778496411_" class="st0" d="M3250.5,3004.7
					c-30.5,14.6-65.9,14.6-96.3,0c-142.1-67.9-556.6-266.3-674.7-322.8c-19.4-9.3-31.7-28.9-31.7-50.4v-147.7
					c0,0,522.5,154.9,697.9,206.9c37,11,76.3,11,113.3,0c175.4-52,697.9-206.9,697.9-206.9v147.7c0,21.5-12.3,41.1-31.7,50.4
					C3807.2,2738.4,3392.6,2936.7,3250.5,3004.7z"/>
				<g id="Mid_00000132797519165835331900000015792230483729648558_" transform="matrix(1.33928,0,0,1.33928,-1996.31,-579.509)">
					<path class="st0" d="M3318.3,2129.5v-129.4l563.4-48.1l0,0l0,0l0,0l563.4,48.1v129.4l-563.4,48.1L3318.3,2129.5z"/>
				</g>
			</g>
		</g>
	</g>
	<g>
		<g>
			<path d="M702.8,2245.7c5.3,0,9.4,1.7,12.4,5.2c3,3.5,4.5,7.5,4.5,12.1c0,4.3-1.5,7.9-4.5,10.9c-3,3-7.1,4.5-12.4,4.5H494.6
				c-6.6,0-12-2.1-16.3-6.4c-4.3-4.3-6.4-9.4-6.4-15.3V1985c0-5.9,2.1-11,6.4-15.1c4.3-4.1,9.7-6.2,16.3-6.2h208.7
				c4.9,0,8.7,1.5,11.4,4.5c2.6,3,4,6.6,4,10.9c0,4.3-1.4,8.1-4.2,11.4c-2.8,3.3-6.7,4.9-11.6,4.9H507.4v111.3h186
				c4.6,0,8.3,1.6,11.1,4.7c2.8,3.1,4.2,7,4.2,11.6c0,4-1.3,7.5-4,10.6c-2.6,3.1-6.4,4.7-11.4,4.7h-186v107.3H702.8z"/>
			<path d="M787.9,2260v-278.9c0-5.6,1.8-9.9,5.4-12.9c3.6-3,7.9-4.5,12.9-4.5c4.9,0,9.2,1.5,12.9,4.5c3.6,3,5.4,7.3,5.4,12.9v264.6
				h185c5.9,0,10.5,1.6,13.8,4.7c3.3,3.1,4.9,7,4.9,11.6c0,4.3-1.7,8.1-4.9,11.4c-3.3,3.3-7.9,4.9-13.8,4.9H806.7
				C794.1,2278.3,787.9,2272.2,787.9,2260z"/>
			<path d="M1303.7,2245.7c5.3,0,9.4,1.7,12.4,5.2c3,3.5,4.5,7.5,4.5,12.1c0,4.3-1.5,7.9-4.5,10.9c-3,3-7.1,4.5-12.4,4.5h-208.2
				c-6.6,0-12-2.1-16.3-6.4c-4.3-4.3-6.4-9.4-6.4-15.3V1985c0-5.9,2.1-11,6.4-15.1c4.3-4.1,9.7-6.2,16.3-6.2h208.7
				c4.9,0,8.7,1.5,11.4,4.5c2.6,3,4,6.6,4,10.9c0,4.3-1.4,8.1-4.2,11.4c-2.8,3.3-6.7,4.9-11.6,4.9h-195.4v111.3h186
				c4.6,0,8.3,1.6,11.1,4.7c2.8,3.1,4.2,7,4.2,11.6c0,4-1.3,7.5-4,10.6c-2.6,3.1-6.4,4.7-11.4,4.7h-186v107.3H1303.7z"/>
			<path d="M1681.1,1963.8c4.6,0,8.6,1.7,11.9,5.2c3.3,3.5,4.9,8.2,4.9,14.1v277.5c0,5.6-1.7,10-5.2,13.1c-3.5,3.1-7.7,4.7-12.6,4.7
				c-4.9,0-9.2-1.6-12.9-4.7c-3.6-3.1-5.4-7.5-5.4-13.1v-217.6l-100.9,157.8c-4.3,6.9-9.9,10.4-16.8,10.4c-6.9,0-12.7-3.5-17.3-10.4
				l-100.9-156.8v216.6c0,5.6-1.7,10-5.2,13.1c-3.5,3.1-7.7,4.7-12.6,4.7c-4.9,0-9.2-1.6-12.9-4.7c-3.6-3.1-5.4-7.5-5.4-13.1v-277
				c0-5.9,1.7-10.7,5.2-14.3c3.5-3.6,7.5-5.4,12.1-5.4c3,0,5.9,0.9,8.9,2.7c3,1.8,5.4,4.5,7.4,8.2l120.7,187.4l119.7-187.9
				C1668,1967.2,1673.8,1963.8,1681.1,1963.8z"/>
			<path d="M2016.4,2245.7c5.3,0,9.4,1.7,12.4,5.2c3,3.5,4.5,7.5,4.5,12.1c0,4.3-1.5,7.9-4.5,10.9c-3,3-7.1,4.5-12.4,4.5h-208.2
				c-6.6,0-12-2.1-16.3-6.4c-4.3-4.3-6.4-9.4-6.4-15.3V1985c0-5.9,2.1-11,6.4-15.1c4.3-4.1,9.7-6.2,16.3-6.2h208.7
				c4.9,0,8.7,1.5,11.4,4.5c2.6,3,4,6.6,4,10.9c0,4.3-1.4,8.1-4.2,11.4c-2.8,3.3-6.7,4.9-11.6,4.9H1821v111.3h186
				c4.6,0,8.3,1.6,11.1,4.7c2.8,3.1,4.2,7,4.2,11.6c0,4-1.3,7.5-4,10.6c-2.6,3.1-6.4,4.7-11.4,4.7h-186v107.3H2016.4z"/>
			<path d="M2330.2,1968c3.8-2.8,8.3-4.2,13.6-4.2c4.9,0,9.2,1.4,12.9,4.2c3.6,2.8,5.4,6.7,5.4,11.6V2257c0,6.6-2.2,11.8-6.7,15.6
				c-4.5,3.8-9.8,5.7-16.1,5.7c-4.3,0-8.4-1-12.4-3c-4-2-7.1-4.8-9.4-8.4l-185-245.3l4,68.3V2260c0,5.9-1.8,10.5-5.4,13.6
				c-3.6,3.1-8.1,4.7-13.4,4.7c-5.3,0-9.7-1.6-13.4-4.7c-3.6-3.1-5.4-7.7-5.4-13.6v-274.5c0-6.9,1.9-12.3,5.7-16.1
				c3.8-3.8,8.5-5.7,14.1-5.7c4,0,7.7,1,11.4,3c3.6,2,6.6,4.8,8.9,8.4l190.4,250.3l-4.9-74.7v-171.1
				C2324.5,1974.6,2326.4,1970.8,2330.2,1968z"/>
			<path d="M2687.3,1968.7c3.1,3.3,4.7,7.3,4.7,11.9c0,4.9-1.6,9.1-4.7,12.4c-3.1,3.3-7.7,4.9-13.6,4.9h-110.3l0.5,262.1
				c0,5.6-2,10.1-5.9,13.4c-4,3.3-8.2,4.9-12.9,4.9c-4.6,0-8.7-1.6-12.4-4.7c-3.6-3.1-5.4-7.7-5.4-13.6v-262.1h-109.8
				c-5.3,0-9.5-1.7-12.6-5.2c-3.1-3.5-4.7-7.5-4.7-12.1c0-4.6,1.6-8.6,4.7-11.9c3.1-3.3,7.3-4.9,12.6-4.9h256.2
				C2679.6,1963.8,2684.1,1965.4,2687.3,1968.7z"/>
			<path d="M2778.8,2263c-24.2-13.5-43.4-33-57.6-58.4c-14.2-25.4-21.3-55.1-21.3-89c0-34.6,8.1-63.7,24.2-87.3
				c16.2-23.6,36.3-41.1,60.3-52.4c24.1-11.4,48-17.1,71.7-17.1c24.1,0,48.6,5.7,73.7,17.1c25.1,11.4,46.1,28.9,63.1,52.4
				c17,23.6,25.5,52.7,25.5,87.3c0,33.3-7.3,62.6-21.8,88c-14.5,25.4-33.8,45-57.9,58.9c-24.1,13.8-50.3,20.8-78.6,20.8
				C2830.1,2283.3,2803,2276.5,2778.8,2263z M2753.1,2186.8c10.7,20.1,25.5,35.6,44.3,46.5c18.8,10.9,39.7,16.3,62.8,16.3
				c22.4,0,42.9-5.4,61.3-16.1c18.5-10.7,33.1-26,44-46c10.9-19.9,16.3-43.4,16.3-70.5c0-28-6.5-51.5-19.5-70.5
				c-13-19-29.1-32.8-48.2-41.5c-19.1-8.7-38.1-13.1-56.9-13.1c-18.8,0-37.3,4.2-55.6,12.6c-18.3,8.4-33.6,22-46,40.8
				c-12.4,18.8-18.5,42.7-18.5,71.7C2737,2143.5,2742.3,2166.7,2753.1,2186.8z"/>
		</g>
		<g>
			<path d="M1324,2510.2c0,4.8-3.7,7.3-7.7,7.3c-3.7,0-7.5-2.5-7.5-7.1v-118.1c0-4.4,3.1-7.3,7.7-7.3h49.3c36,0,54.3,20.4,54.3,44.8
				c0,21-11.5,36.2-37.1,40.6l31.9,34.4c5.8,5.8,0.8,12.7-4.8,12.7c-1.9,0-4-0.8-5.6-2.7l-40.2-43.5H1324V2510.2z M1366,2458.2
				c26.9,0,38.7-12.3,38.7-27.5c-0.2-17.9-14.6-31.6-38.7-31.6H1324v59.1H1366z"/>
			<path d="M1534.8,2473.8h-82.2c2.7,17.1,17.3,31.9,38.1,31.9c9.6,0,19.6-2.5,27.7-8.7c7.3-6.7,18.1,1.9,10,10.2
				c-9.6,9-23.5,12.7-37.1,12.5c-32.9,0-54.1-23.7-54.1-55.2c0-35.2,26.4-54.3,53.1-54.3c28.1,0,54.1,16.4,54.8,54.1
				C1545,2468.8,1543.3,2473.8,1534.8,2473.8z M1530.4,2461.1c-2.1-25-21.7-36.9-39.1-36.9c-19.6,0-37.5,11.9-39.4,36.9H1530.4z"/>
			<path d="M1650.4,2426.5v-6.9c0-4.4,2.7-7.5,7.5-7.5c4.6,0,7.7,3.1,7.7,7.5v90.4c0,4.6-3.1,7.5-7.7,7.5c-4.8,0-7.5-2.9-7.5-7.5v-9
				c-6,12.1-21.4,18.5-33.7,18.5c-30.2,0-53.3-20.8-53.3-55.4c0-35.6,24.6-54.1,54.1-54.1
				C1629.4,2410.1,1642.9,2414.3,1650.4,2426.5z M1650.4,2473.2v-16.4c0-20.6-14.4-31.4-33.1-32.3c-25.2-0.4-38.7,18.5-38.7,39.8
				c0,30.4,24.8,41,38.3,41C1635.2,2504.6,1650.4,2493.4,1650.4,2473.2z"/>
			<path d="M1777.2,2427.2v-41.4c0-4.8,3.7-7.3,7.7-7.3c3.7,0,7.5,2.5,7.5,7.3v124.5c0,4.6-2.9,7.3-7.7,7.3c-4.8,0-7.1-2.7-7.1-7.3
				v-8.5c-7.1,12.9-21.7,17.9-34.1,17.9c-28.9,0-53.3-19.6-53.3-55.6c0-20.8,12.9-53.7,53.3-53.7
				C1757.4,2410.3,1770.9,2416.1,1777.2,2427.2z M1777.2,2473.2v-16.4c0-18.3-14.2-31.2-33.1-32.1c-31,0-38.7,25.2-38.7,38.7
				c0,32.3,24.2,41.9,39.4,41.9C1762.6,2504.2,1777.2,2492.8,1777.2,2473.2z"/>
			<path d="M1819.4,2412.2c2.5,0,5,1.2,6.5,4.4l39.1,78.3l38.7-78.5c1.5-2.9,4-4.2,6.5-4.2c4.8,0,9.8,4.2,7.7,9.8l-65.8,130.8
				c-5,9.8-18.1,4.6-14.2-5.2l18.3-37.3l-44.6-87.7C1809.2,2417,1814.4,2412.2,1819.4,2412.2z"/>
			<path d="M1934.8,2508.8c0,5.2-3.5,8.7-9,8.7c-5.4,0-9.4-3.5-9.4-8.7c0-5.2,4-8.7,9.4-8.7
				C1931.2,2500,1934.8,2503.6,1934.8,2508.8z"/>
			<path d="M2020.3,2484.6c5.4,17.3,28.5,20,45.2,20c17.7,0,45.2-4.4,45.2-25.4c0-18.1-21.9-19.6-44.8-21.4
				c-28.7-2.3-59.6-5-59.6-36c0-27.5,31.7-38.7,57.1-38.7c21.9,0,49.1,4.2,57.9,27.9c3.1,8.3-11,12.1-14.2,5
				c-6.2-15.8-28.5-17.5-43.5-17.5c-14,0-41,4.6-41,23.5c0,18.1,20.8,20,45,21.9c28.5,2.5,59.1,4,59.1,35.2
				c0,31.9-35.6,40.6-61.2,40.6c-21.2,0-53.7-6.2-60.6-31.2C2002.4,2479.2,2018.7,2476.1,2020.3,2484.6z"/>
			<path d="M2241.5,2473.8h-82.2c2.7,17.1,17.3,31.9,38.1,31.9c9.6,0,19.6-2.5,27.7-8.7c7.3-6.7,18.1,1.9,10,10.2
				c-9.6,9-23.5,12.7-37.1,12.5c-32.9,0-54.1-23.7-54.1-55.2c0-35.2,26.4-54.3,53.1-54.3c28.1,0,54.1,16.4,54.8,54.1
				C2251.7,2468.8,2250,2473.8,2241.5,2473.8z M2237.1,2461.1c-2.1-25-21.7-36.9-39.1-36.9c-19.6,0-37.5,11.9-39.4,36.9H2237.1z"/>
			<path d="M2318,2424.9h-22.7v56.6c0,11.9,1.9,24.4,16,24.4c3.1,0,7.7-1,9.8-2.3c8.7-5,15.6,7.3,6.2,12.5c-5.2,2.9-10.4,3.5-16,3.5
				c-25,0-31-18.3-31-38.1v-56.6h-13.7c-9.8,0-9.2-12.7,0-12.7h13.7v-24.8c0-10,15-9.8,15,0v24.8h22.7
				C2327.4,2412.2,2327.4,2424.9,2318,2424.9z"/>
			<path d="M2363.6,2508.8c0,5.2-3.5,8.7-9,8.7c-5.4,0-9.4-3.5-9.4-8.7c0-5.2,4-8.7,9.4-8.7
				C2360.1,2500,2363.6,2503.6,2363.6,2508.8z"/>
			<path d="M2555.2,2403.6c6.2,7.1-4.8,15.6-10.6,9.4c-11.2-11.9-23.9-15.8-37.9-15.8c-22.3,0-53.9,11.5-53.9,52.5
				c0,31.4,24.2,55.6,52.7,55.6c16,0,31-7.3,40.8-19.8c4.6-6.9,17.3,0.6,11.9,8.3c-11.5,16.2-33.3,25.8-53.1,25.8
				c-35.4,0-67-29.4-67-70.2c0-47.7,40.4-66.4,68.3-66.4C2525.2,2383,2541.9,2389.5,2555.2,2403.6z"/>
			<path d="M2586.7,2517.5c-4.6,0-7.7-3.1-7.7-7.1v-124.9c0-4,3.1-7.1,7.7-7.1c4.2,0,7.5,3.1,7.5,7.1v124.9
				C2594.2,2514.4,2590.9,2517.5,2586.7,2517.5z"/>
			<path d="M2616.3,2463.4c0-30.2,23.1-53.3,54.3-53.3c31.7,0,54.3,24.6,54.3,54.3c0,31.6-22.9,55.2-54.3,55.2
				C2637.6,2519.6,2616.3,2494.4,2616.3,2463.4z M2631.7,2465.1c0,22.3,15.6,40.2,38.9,40.2s39.1-18.9,39.1-39.8
				c0-28.1-19.8-41.2-39.4-41.2C2650.5,2424.3,2631.7,2438,2631.7,2465.1z"/>
			<path d="M2795.1,2505.5c20.2,0,39.1-16.7,39.1-39.4v-48.7c0-4.6,2.7-7.3,7.5-7.3s7.9,2.7,7.9,7.3v92.9c0,4.8-3.7,7.3-7.5,7.3
				c-3.7,0-7.5-2.5-7.5-7.5v-12.3c-7.5,15.2-23.5,21.9-39.8,21.9c-24.2,0-47.3-16.7-47.3-46.6v-55.6c0-4.6,2.7-7.3,7.5-7.3
				c4.6,0,7.7,2.7,7.7,7.3v55.6C2762.9,2492.1,2778.3,2505.5,2795.1,2505.5z"/>
			<path d="M2961,2427.2v-41.4c0-4.8,3.7-7.3,7.7-7.3c3.7,0,7.5,2.5,7.5,7.3v124.5c0,4.6-2.9,7.3-7.7,7.3c-4.8,0-7.1-2.7-7.1-7.3
				v-8.5c-7.1,12.9-21.7,17.9-34.1,17.9c-28.9,0-53.3-19.6-53.3-55.6c0-20.8,12.9-53.7,53.3-53.7
				C2941.2,2410.3,2954.8,2416.1,2961,2427.2z M2961,2473.2v-16.4c0-18.3-14.2-31.2-33.1-32.1c-31,0-38.7,25.2-38.7,38.7
				c0,32.3,24.2,41.9,39.4,41.9C2946.5,2504.2,2961,2492.8,2961,2473.2z"/>
			<path d="M3018.4,2508.8c0,5.2-3.5,8.7-9,8.7c-5.4,0-9.4-3.5-9.4-8.7c0-5.2,4-8.7,9.4-8.7
				C3014.9,2500,3018.4,2503.6,3018.4,2508.8z"/>
		</g>
	</g>
</g>
</svg>
