<?xml version="1.0" encoding="UTF-8"?>
<svg id="Layer_2" data-name="Layer 2" xmlns="http://www.w3.org/2000/svg" viewBox="0 0 1438.87 1470.08">
  <defs>
    <style>
      .cls-1 {
        fill: #16161d;
      }
    </style>
  </defs>
  <g id="Graphic">
    <g>
      <path class="cls-1" d="M62.24,499.24c12.69-33.82,28.3-66.89,46.38-98.32,5.63-9.8,11.52-19.47,17.51-28.76.2-.31.4-.62.6-.93.2-.31.4-.62.6-.94l.03-.05-11.98-32.93-.14.21c-28.51,44.24-52.27,91.65-70.62,140.9l-.03.07,17.56,20.94.08-.2Z"/>
      <path class="cls-1" d="M1334.65,924.4c17.99-61.28,27.12-125,27.12-189.36,0-38.07-3.23-76.32-9.59-113.68-4.33-25.4-10.24-50.91-17.56-75.83v-.03s-.03-.1-.05-.14c-.02-.05-.03-.11-.05-.17-14.16-48.15-33.84-94.79-58.5-138.64-37.3-66.31-85.22-125.42-142.43-175.71l84.35-48.7-.13-.12c-99.75-87.44-221.12-146.21-350.99-169.97h0s-.21-.04-.21-.04h-.07s0-.01,0-.01c-43.57-7.96-88.29-12-132.92-12-74.28,0-147.58,11.05-217.87,32.84h0s-.24.07-.24.07c-.01,0-.02,0-.04.01h-.02c-46.84,14.54-92.43,33.92-135.5,57.6-42.48,23.36-82.85,51.1-120.01,82.46l-.04.04v47.55l.21-.17c59.83-50.13,127.21-89.09,200.27-115.78,10.35-3.77,20.81-7.29,31.11-10.48.65-.21,1.3-.4,1.9-.57h0s.24-.07.24-.07c0,0,0,0,0,0l.05-.02h0c63.51-19.5,129.76-29.38,196.9-29.38,40.79,0,81.62,3.68,121.38,10.95.52.09,1.03.19,1.47.28l-52.96,63.1.21.04c33.8,6.36,67.28,15.7,99.54,27.76,34.29,12.83,67.62,28.9,99.06,47.75,31.12,18.66,60.75,40.27,88.07,64.22l1.58,1.38.03.03c51.4,45.33,94.5,98.57,128.08,158.27,22.3,39.68,40.11,81.87,52.92,125.41.04.11.07.24.1.36.02.08.04.15.07.22l-104.07,18.34-.14.02.04.13c5.83,19.93,10.54,40.34,13.99,60.64,5.17,30.21,7.79,61.18,7.79,92.05,0,51.88-7.34,103.24-21.82,152.64-28.05,95.76-82.21,181.98-156.63,249.32-1.62,1.47-3.25,2.9-5.05,4.48h0s0,0,0,0l-84.48-48.79-.13.13c-64.14,56.8-142.26,95.25-225.92,111.2h0s-.07.02-.07.02l-.21.04h0c-14.73,3.39-30.03,6.01-45.48,7.77-15.38,1.74-31.04,2.63-46.54,2.63-45.36,0-90.31-6.35-133.61-18.88l-21.99-60.36-.02-.06-.06-.02c-3.28-.9-6.77-1.94-10.69-3.16-6.19-1.91-12.54-4.04-18.87-6.34-41.96-15.28-81.01-37.16-116.07-65.04l-.2-.16h0c-3-2.36-6.14-4.93-9.33-7.63-28.91-24.41-54.35-52.57-75.6-83.72l11.89-32.69.02-.06-.04-.05c-2.64-3.77-5.14-7.48-7.42-11.03-3.12-4.84-6.12-9.75-8.92-14.61-7.98-13.77-15.13-28.41-21.26-43.52l-.08-.19h0c-1.32-3.21-2.54-6.4-3.56-9.09-5.85-15.69-10.61-32-14.15-48.47l19.72-11.38.08-.05-.02-.09c-.59-2.64-1.04-4.82-1.43-6.86-.41-2.08-.83-4.24-1.2-6.36-1.68-9.77-2.86-19.6-3.52-29.24h0v-.06s0-.04,0-.05v-.14h-.01c-.06-.68-.1-1.37-.14-2.05v-.12c-.39-6.16-.58-12.2-.58-17.97s.19-11.72.58-17.99v-.12c.05-.67.09-1.37.15-2.04l17.93,3.16,2.76.48v-.14c.53-7.4,1.45-14.88,2.75-22.23l.06-.35c.25-1.44.52-2.92.81-4.38.53-2.76,1.07-5.26,1.64-7.64h0l.04-.16c2.12-9.1,4.86-18.14,8.13-26.88,1.66-4.45,3.27-8.38,4.9-12.02l17.45,20.82.12.15.08-.18c1.69-3.55,3.53-7.03,5.46-10.34,1.25-2.17,2.62-4.41,4.19-6.86,3.47-5.39,7.32-10.63,11.42-15.57l.02-.02c6.02-7.27,12.78-14.09,20.08-20.26,5.32-4.5,11.03-8.7,16.96-12.49v48.9l.18-.09c3.28-1.66,6.63-3.12,9.96-4.33,1.71-.61,3.12-1.09,4.44-1.5,6.67-2.08,13.59-3.42,20.56-3.98h.01c2.63-.23,5.34-.35,8.03-.35,5.73,0,11.57.53,17.35,1.57,5.29.97,10.49,2.39,15.46,4.2h-.01s-54.97,65.54-54.97,65.54l-.08.1.1.08c2.92,2.46,5.36,5.37,7.25,8.65l.02.03c1.9,3.25,3.18,6.76,3.81,10.45l-31.97,5.64-20.93-24.96-.08-.1-.1.08c-2.91,2.45-5.34,5.35-7.24,8.62h0s-.06.09-.06.09c0,0,0,0,0,.01l-.06.11h0c-1.89,3.25-3.17,6.77-3.8,10.46h0s-20.71-3.64-20.71-3.64l-.13-.02v.13c-.13,1.06-.22,2.17-.29,3.3-.12,2.16-.18,4.15-.18,6.07s.06,3.88.18,6.05c.07,1.09.16,2.17.28,3.3v.13s.02,0,.02,0c.23,2.4.55,4.83.95,7.21.04.23.09.45.13.68.09.48.18.97.29,1.44.64,3.23,1.44,6.43,2.4,9.53l-8.88,5.11-11.06,6.41-.08.05.02.09c1.41,5.49,3.11,10.9,5.05,16.08,1.72,4.6,3.66,9.13,5.75,13.49h0s.04.07.04.07c0,0,0,.01,0,.02l.08.16h0c1.74,3.58,3.58,7.06,5.47,10.34,1.27,2.19,2.61,4.37,4.08,6.67,3.54,5.49,7.39,10.73,11.44,15.58l-12.05,33.14-.02.06.04.05c10,13.18,21.47,25.25,34.1,35.88,4.72,3.99,9.84,7.95,15.21,11.77h0s.05.04.05.04l.2.14h0c16.2,11.41,33.8,20.61,52.31,27.34,3.46,1.27,6.88,2.42,10.17,3.44,5.43,1.69,11.11,3.2,16.88,4.5l22.05,60.59.02.06.06.02c22.94,5.78,46.7,8.72,70.6,8.72,10.52,0,21.09-.79,31.41-2.35,10.31-1.55,20.51-3.87,30.34-6.89,49.08-10.12,94.82-33.36,132.29-67.21.02-.02.04-.03.06-.05h0s0,0,0,0l84.4,48.72.08.04.07-.06c.96-.86,1.93-1.74,2.86-2.59l.29-.27c47.24-43.33,81.6-98.58,99.38-159.79h0s.03-.11.03-.11c0,0,0,0,0-.01l.04-.12h0c9.15-31.51,13.79-64.29,13.79-97.45,0-20.03-1.7-40.12-5.05-59.71-2.19-12.75-5.09-25.46-8.63-37.79l103.94-18.32c4.27,14.61,7.78,29.88,10.43,45.37,3.96,23.15,5.97,46.85,5.97,70.45,0,39.41-5.55,78.4-16.5,115.88l-.04.13,12.49,2.21,91.88,16.2.11.02.03-.11c12.71-43.44,19.16-88.64,19.16-134.34,0-27.3-2.31-54.65-6.87-81.3-2.99-17.59-7.1-35.46-12.22-53.09l-.03-.11-92.06,16.24-12.17,2.15c-.09-.35-.19-.7-.29-1.04-.06-.19-.11-.38-.17-.58-8.79-29.84-21-58.76-36.28-85.94-22.41-39.77-50.99-75.37-84.95-105.81l-.02-.02c-1.31-1.22-2.67-2.42-3.99-3.57-37.91-33.21-81.01-58.97-128.1-76.58-19.99-7.49-40.81-13.47-61.88-17.78h0s0,0,0,0l52.77-62.9c25.28,4.98,50.33,12.08,74.46,21.11,54.24,20.27,103.95,49.99,147.75,88.33,1.12.98,2.17,1.91,3.2,2.86l.07.06,84.45-48.76.15-.09-.13-.11c-.81-.69-1.62-1.42-2.42-2.12-24.47-21.43-50.99-40.77-78.84-57.47-28.15-16.88-57.99-31.26-88.66-42.74-28.13-10.52-57.43-18.75-87.09-24.46h-.07s-52.96,63.11-52.96,63.11c-2.25-.45-4.54-.87-6.57-1.25-28.47-5.2-57.67-7.84-86.76-7.84-45.32,0-90.24,6.34-133.51,18.84h0s-.2.06-.2.06c-.01,0-.02,0-.03,0l-.06.02h0c-2.84.82-5.69,1.69-8.46,2.54l-.08.02c-7.54,2.34-15.02,4.86-22.22,7.49-49.57,18.12-95.56,44.18-136.7,77.45h0v-46.95c47.45-38.95,100.58-69.31,157.94-90.23,8.3-3.04,16.77-5.9,25.18-8.5,2.14-.67,4.3-1.32,6.43-1.94l.06-.02,21.98-60.42.09-.24-4.53,1.39c-9.14,2.82-18.61,6.01-28.17,9.5-65.24,23.84-125.53,58.52-179.19,103.06l-.04.04v47.24c-1.82,1.49-3.73,3.07-5.67,4.71-39.89,33.62-74.65,72.68-103.31,116.08v.02c-1.17,1.71-2.36,3.53-3.66,5.56-4.8,7.42-9.57,15.25-14.2,23.28-13.98,24.31-26.15,49.89-36.18,76.03l-17.26-20.56-.14-.16-1.25,3.31c-11.1,29.75-19.91,60.72-26.16,92.04l-.02.09h0c-.06.3-.12.61-.18.91-.06.32-.12.64-.19.96-.75,3.72-1.51,7.77-2.4,12.75-3.84,21.98-6.49,44.4-7.85,66.64l-20.45-3.6c1.53-24.85,4.46-49.77,8.72-74.06.83-4.73,1.72-9.47,2.63-14.08.04-.18.08-.37.12-.55l.11-.53-19.87-11.45-.15-.09-.03.17C6.18,623.94,1.99,656.58,0,689.2v.11s20.69,3.66,20.69,3.66c0,.01,0,.02,0,.03,0,.06-.01.11-.01.16-.87,14.16-1.31,28.25-1.31,41.88s.44,27.7,1.31,41.83c0,.06,0,.12.01.18,0,.03,0,.07,0,.11v.05s0,.14,0,.14h0c1.5,24.44,4.39,49.11,8.59,73.34.87,4.93,1.8,9.91,2.77,14.8l.09.46c.03.15.06.31.09.46l-19.72,11.36-.08.04.02.09c7.57,38.59,18.38,76.83,32.13,113.68h0s.03.07.03.07l.08.2h0c18.33,49.16,42.06,96.48,70.51,140.65h0l.03.05.14.21h0c39.77,61.71,88.4,117,144.54,164.34l.21.17v-47.6l-.05-.04c-.65-.51-1.28-1.05-1.89-1.56-50.75-42.79-94.76-92.67-130.82-148.26h0s-.04-.06-.04-.06l-.13-.2h0c-.36-.54-.73-1.1-1.08-1.66-6-9.3-11.72-18.68-17-27.86-18.34-31.78-34.1-65.14-46.84-99.15l17.19-20.5c11.44,30.2,25.48,59.77,41.71,87.9,4.75,8.27,9.78,16.52,15.38,25.22.79,1.22,1.61,2.49,2.44,3.73l.14.21,11.97-32.89.02-.06-.04-.05c-1.15-1.69-2.35-3.52-3.68-5.6-4.77-7.43-9.4-15.02-13.76-22.56-14.25-24.71-26.58-50.58-36.66-76.91l-.08-.2-17.38,20.72c-.39-.97-.76-1.96-1.12-2.91-11.1-29.73-19.89-60.64-26.13-91.89h0s-.01-.05-.01-.05c0-.01,0-.02,0-.04l-.03-.17h0c-.06-.3-.12-.61-.18-.91-.06-.3-.11-.6-.18-.9-.83-4.12-1.65-8.5-2.51-13.39-3.8-21.94-6.4-44.14-7.73-65.99h0s20.67-3.64,20.67-3.64l-.08-1.1c-.7-11.39-1.06-22.78-1.06-33.87s.36-22.51,1.06-33.89l.06-.85h0s0-.14,0-.14v-.12h0c1.24-19.91,3.6-39.83,7.02-59.22.6-3.43,1.28-7.06,2.12-11.41.16-.84.33-1.64.5-2.5l.06-.28,19.65,11.34.15.09.03-.17c4.87-23.83,11.65-47.48,20.16-70.27.91-2.42,1.66-4.41,2.37-6.24,8.73-22.41,19.22-44.32,31.2-65.13,3.99-6.93,8.2-13.84,12.51-20.53,1.56-2.44,3.17-4.88,4.77-7.26l11.83,32.49.08.23.14-.2c21.22-31.13,46.67-59.32,75.63-83.77,3.18-2.69,6.32-5.25,9.33-7.63h0s.2-.16.2-.16c34.88-27.75,73.8-49.59,115.68-64.9,6.43-2.33,12.91-4.52,19.26-6.5,3.71-1.16,7.14-2.17,10.48-3.09h0s-21.92,60.2-21.92,60.2l-.08.23.23-.06c29.73-7.98,60.54-12.02,91.57-12.02,21.42,0,42.81,1.93,63.58,5.74,3.45.62,6.62,1.25,9.7,1.91h.05c.05.02.1.03.15.04l.07.02h0c16.71,3.53,33.38,8.39,49.53,14.43,39.81,14.87,76.26,36.65,108.32,64.71,1.86,1.62,3.34,2.95,4.67,4.17h0s-84.24,48.63-84.24,48.63l-.15.09.12.12c22.33,20.53,41.21,44.34,56.12,70.79,10.63,18.82,19.1,38.83,25.18,59.5.08.27.16.54.24.81.14.48.29.98.42,1.48h0l.03.09s0,.03.01.04l.03.11h0c2.81,9.85,5.12,20.02,6.88,30.23,2.75,16.07,4.15,32.5,4.15,48.86,0,26.87-3.74,53.47-11.12,79.04l-104.12-18.37-.11-.02-.03.11c-10.93,38.23-32.07,72.85-61.15,100.12-.21.19-.42.39-.63.58-.38.36-.77.72-1.17,1.08h0s-.07.06-.07.06h0s-.04.04-.07.06c-.03.02-.06.05-.09.08-28.53,26.15-63.39,44.29-100.83,52.45l-53.19-63.39-.06-.07-.09.04c-6.34,2.73-13.09,4.85-20.05,6.28-6.91,1.42-14.06,2.14-21.25,2.14-9.7,0-19.35-.87-28.69-2.58h-.02c-6.33-1.12-12.67-2.66-18.84-4.58-2.39-.74-4.84-1.57-7.28-2.46-10.92-3.97-21.41-9.15-31.17-15.39v-48.91l-.07-.03c-6.8-3.36-13.21-7.58-19.06-12.52-2.02-1.7-3.98-3.49-5.82-5.34l-.03-.03c-4.93-4.89-9.35-10.35-13.14-16.22-.8-1.2-1.53-2.42-2.37-3.86l19.46-23.19.08-.1-.1-.08c-2.88-2.4-5.32-5.3-7.25-8.63h0c-1.9-3.27-3.19-6.8-3.86-10.51l31.97-5.64,20.95,24.95.08.1.1-.08c2.88-2.4,5.31-5.29,7.24-8.59h0s.06-.11.06-.11l.06-.11h0c1.88-3.26,3.16-6.78,3.82-10.48h0s63.92,11.27,63.92,11.27l40.05,7.05c-4.07,15.11-11.98,29.05-22.91,40.33l-.71.71,84.62,48.85.08.04.07-.06c.33-.28.64-.58.94-.86l.31-.29c20.05-19.32,34.61-43.66,42.11-70.39l.04-.13-104.24-18.39c2.07-7.81,3.13-15.86,3.13-23.94,0-5.59-.48-11.15-1.43-16.52-.38-2.38-.92-4.89-1.58-7.46h0l-.03-.11s0-.01,0-.02l-.03-.1c-.28-1.09-.58-2.24-.92-3.36-2.09-7.04-4.96-13.78-8.54-20.05-3.7-6.52-8.15-12.58-13.21-18.02h0s84.38-48.71,84.38-48.71c10.76,10.57,19.97,22.56,27.36,35.65,5.94,10.46,10.67,21.62,14.07,33.16.26.9.59,2.03.87,3.11l.03.11,104.48-18.41-.04-.13c-.22-.81-.5-1.81-.78-2.77-4.77-16.15-11.38-31.76-19.65-46.39-11.14-19.76-25.2-37.7-41.78-53.33l-.07-.06-84.46,48.76c-2.19-2.14-4.53-4.31-6.97-6.44-14.57-12.7-31.16-22.57-49.29-29.34-3.95-1.49-8.1-2.85-12.34-4.05h0s-.19-.05-.19-.05c0,0,0,0-.01,0l-.06-.02h0c-4.85-1.34-9.71-2.46-14.43-3.32-9.54-1.73-19.28-2.61-28.97-2.61s-19.17.85-28.5,2.52l22.07-60.62c16.18-3.64,32.83-5.49,49.48-5.49,13.62,0,27.23,1.22,40.47,3.64,4.26.78,8.65,1.73,13.06,2.81l.08.02,53.1-63.3.13-.16-.2-.05c-3.81-.88-7.68-1.67-11.5-2.35-17.05-3.12-34.57-4.7-52.08-4.7-23.89,0-47.63,2.93-70.57,8.71l-.06.02-18.67,51.27-3.41,9.36c-5.58,1.26-11.26,2.78-16.91,4.53-3.66,1.14-7.06,2.28-10.38,3.48-18.46,6.75-35.99,15.93-52.1,27.28h0s-.2.14-.2.14l-.05.04h0c-5.2,3.68-10.32,7.64-15.21,11.77-12.59,10.62-24.02,22.63-33.99,35.7h0s-10.66-29.31-10.66-29.31l-1.32-3.61-.14.19c-2.86,3.94-5.71,8.09-8.69,12.7-2.73,4.25-5.19,8.29-7.54,12.36-5.92,10.29-11.23,21.03-15.81,31.93h0l-.08.19c-1.34,3.14-2.71,6.56-4.29,10.77-4.55,12.18-8.29,24.83-11.12,37.6l-19.82-11.43-.04.17c-.44,1.96-.83,3.94-1.22,5.88-.39,2-.9,4.65-1.36,7.4-2.14,12.11-3.64,24.54-4.46,36.95h0v.13s0,0,0,.01h0s-.14,1.98-.14,1.98c-.46,7.23-.69,14.62-.69,21.97s.23,14.72.69,21.95l.13,1.87-20.69,3.66v.11c.97,14.77,2.73,29.59,5.24,44.05.5,2.76,1.08,5.98,1.71,9.17.32,1.66.68,3.32,1.02,4.93l.04.17h0c4.21,20.12,9.98,40.06,17.16,59.26,1.11,2.99,2.06,5.45,2.97,7.72l-17.37,20.68-.05.06.03.07c8.87,22.76,19.49,44.9,31.58,65.79,3.89,6.75,7.98,13.45,12.15,19.92,1.6,2.49,3.24,4.98,4.87,7.42h0s.04.05.04.05l.14.2h0c25.02,37.24,55.09,70.79,89.37,99.7,2.2,1.85,4.61,3.84,7.58,6.26v47.27l.05.04c47.57,39.06,100.91,69.51,158.54,90.5,8.03,2.93,16.34,5.73,24.71,8.32,2.15.67,4.31,1.32,6.43,1.94l.24.07h0c49.99,14.82,102.01,22.34,154.62,22.34,17.22,0,34.58-.92,51.59-2.72,17.07-1.8,34.16-4.52,50.78-8.1l53.19,63.39.05.06h.07c106.87-19.86,206.68-68.49,288.66-140.65h.01s.24-.23.24-.23c1.81-1.6,3.69-3.25,5.53-4.91,83.48-75.32,144.26-171.85,175.77-279.14h0s0,0,0,0l103.98,18.35c-34.91,118.72-102.27,225.51-194.79,308.82-1.95,1.76-3.95,3.52-5.88,5.22l-.64.56,84.63,48.87.08.04.07-.06c51.88-45.45,97.09-97.87,134.36-155.79,37.83-58.8,66.99-122.51,86.66-189.38l.04-.13-104.22-18.37Z"/>
      <path class="cls-1" d="M813.4,1394.37h-.07c-20.23,3.88-40.77,6.8-61.06,8.7-20.23,1.93-40.99,2.9-61.7,2.9-67.16,0-133.42-9.89-196.95-29.4l-.24-.07,22.05,60.59.02.06.06.02c70.37,21.84,143.75,32.91,218.12,32.91,44.66,0,89.4-4.04,132.99-12.01l.21-.04-53.37-63.61-.05-.06Z"/>
    </g>
  </g>
</svg>