<?xml version="1.0" encoding="UTF-8"?>
<svg id="Layer_2" data-name="Layer 2" xmlns="http://www.w3.org/2000/svg" viewBox="0 0 1391.85 1391.65" preserveAspectRatio="none">
  <defs>
    <style>
      .cls-1 {
        fill: #000;
      }
    </style>
  </defs>
  <g id="Graphic">
    <g>
      <path class="cls-1" d="M1391.55,70.28C1257.46,44.4,1117.32,20.77,975.01.06l-.43-.06v55.53c-112.91-19.74-229.55-37.21-346.68-51.92l-.42-.05v55.51c-90.88-14.25-184.16-26.27-277.27-35.72l-.41-.04v55.53c-69.46-9.27-140.3-16.29-210.55-20.86l-.4-.03v55.53c-45.76-4.52-92.34-6.82-138.46-6.82h-.38v195.13h.38c46.24,0,92.94,2.31,138.8,6.85l.41.04v-55.54h0c70.58,4.59,141.39,11.62,210.5,20.88h.45v-55.49h0c93.1,9.44,186.37,21.46,277.24,35.72l.43.07v-55.52h0c117.17,14.71,233.81,32.18,346.67,51.92l.44.08v-55.54h0c142.18,20.69,282.17,44.29,416.08,70.13l.45.09V70.34l-.3-.06Z"/>
      <path class="cls-1" d="M975.01,277.76l-.43-.06v55.51c-112.39-19.65-229.03-37.12-346.68-51.92l-.42-.05v55.53c-90.88-14.25-184.16-26.27-277.27-35.72l-.41-.04v55.53c-69.46-9.27-140.3-16.29-210.55-20.86l-.4-.03v55.51c-45.75-4.52-92.33-6.82-138.46-6.82h-.38v167.38h.38c46.25,0,92.95,2.31,138.8,6.86l.41.04v-55.54h0c70.24,4.57,141.07,11.6,210.53,20.87l.42.06v-55.54h0c93.1,9.44,186.37,21.46,277.24,35.72l.43.07v-55.54h0c117.66,14.79,234.3,32.27,346.67,51.92l.44.08v-55.52h0c142.2,20.69,282.19,44.29,416.08,70.13l.45.09v-167.37l-.3-.06c-134.07-25.88-274.22-49.5-416.54-70.22Z"/>
      <path class="cls-1" d="M1126.78,550.99h0s-.11-.02-.11-.02c-49.38-8.02-100.41-15.87-151.66-23.32l-.43-.06v55.53c-65.64-11.48-133.19-22.29-200.8-32.13h0s-.12-.02-.12-.02c-47.79-6.96-96.84-13.61-145.77-19.76l-.42-.05v55.53c-90.89-14.26-184.18-26.27-277.27-35.72l-.41-.04v55.51c-69.46-9.27-140.3-16.29-210.55-20.86l-.4-.03v55.53c-45.76-4.52-92.34-6.82-138.46-6.82h-.38v139.59h.38c46.25,0,92.95,2.31,138.8,6.86l.41.04v-55.52h0c70.23,4.57,141.06,11.59,210.53,20.87l.42.06v-55.56c93.1,9.45,186.37,21.47,277.24,35.73l.43.07v-55.54h0c48.71,6.12,97.56,12.74,145.22,19.68h0s.12.02.12.02c67.8,9.87,135.54,20.71,201.34,32.23l.44.08v-55.52h0c50.35,7.31,101.13,15.11,150.96,23.19h0s.11.02.11.02c89.83,14.53,179,30.32,265.01,46.92l.45.09v-139.62l-.3-.06c-85.93-16.6-175.01-32.37-264.77-46.88Z"/>
      <path class="cls-1" d="M975.01,749.81l-.43-.06v55.53c-112.92-19.74-229.56-37.21-346.68-51.92l-.42-.05v55.53c-90.88-14.25-184.16-26.27-277.27-35.72l-.41-.04v55.52c-69.07-9.25-139.91-16.27-210.55-20.87l-.4-.03v55.53c-45.76-4.52-92.34-6.82-138.46-6.82h-.38v111.81h.38c46.25,0,92.95,2.31,138.8,6.86l.41.04v-55.52h0c70.25,4.57,141.08,11.6,210.53,20.87l.42.06v-55.54h0c93.1,9.44,186.38,21.46,277.24,35.72l.43.07v-55.54h0c117.63,14.79,234.26,32.26,346.67,51.92l.44.08v-55.52h0c142.18,20.69,282.17,44.29,416.08,70.13l.45.09v-111.85l-.3-.06c-134.08-25.88-274.23-49.5-416.54-70.22Z"/>
      <path class="cls-1" d="M1126.63,967.5h0s-.11-.02-.11-.02c-49.91-8.1-100.88-15.93-151.51-23.29l-.43-.06v55.53c-65.45-11.46-133.06-22.28-200.99-32.16h0s-.12-.02-.12-.02c-48.11-7.01-97.09-13.65-145.58-19.74l-.42-.05v55.53c-90.88-14.25-184.16-26.27-277.27-35.72l-.41-.04v55.51c-69.48-9.27-140.32-16.29-210.55-20.86l-.4-.03v55.53c-45.75-4.52-92.34-6.82-138.46-6.82h-.38v84.07h.38c46.25,0,92.95,2.31,138.8,6.86l.41.04v-55.54h0c70.61,4.6,141.42,11.62,210.5,20.88h.45v-55.49h0c93.1,9.44,186.38,21.46,277.24,35.72l.43.07v-55.54h0c117.65,14.79,234.29,32.26,346.67,51.92l.44.08v-55.52h0c142.18,20.69,282.17,44.29,416.08,70.13l.45.09v-84.08l-.3-.06c-85.97-16.59-175.09-32.37-264.92-46.9Z"/>
      <path class="cls-1" d="M975.01,1110.79l-.43-.06v55.53c-112.87-19.74-229.51-37.21-346.68-51.92l-.42-.05v55.53c-90.88-14.25-184.16-26.27-277.27-35.72l-.41-.04v55.51c-69.48-9.27-140.32-16.29-210.55-20.86l-.4-.03v55.53c-45.76-4.52-92.34-6.82-138.46-6.82h-.38v56.29h.38c46.24,0,92.94,2.31,138.8,6.86l.41.04v-55.56c70.61,4.61,141.42,11.64,210.5,20.89h.45v-55.5c93.1,9.45,186.38,21.47,277.24,35.73l.43.07v-55.53c117.15,14.72,233.79,32.19,346.67,51.94l.44.08v-55.56c142.17,20.7,282.16,44.3,416.08,70.15l.45.09v-56.31l-.3-.06c-134.08-25.88-274.23-49.5-416.54-70.22Z"/>
      <path class="cls-1" d="M975.01,1249.65l-.43-.06v28.51l.32.05c142.32,20.71,282.45,44.33,416.51,70.21l.45.09v-28.51l-.3-.06c-134.05-25.88-274.2-49.5-416.54-70.22Z"/>
      <path class="cls-1" d="M627.89,1253.18l-.42-.05v28.53l.33.04c117.29,14.73,234.07,32.22,347.09,51.99l.44.08v-28.54l-.31-.05c-112.51-19.68-229.3-37.18-347.12-52Z"/>
      <path class="cls-1" d="M350.2,1272.94l-.41-.04v28.52l.34.04c93.24,9.46,186.66,21.5,277.66,35.78l.43.07v-28.53l-.32-.05c-91.01-14.28-184.44-26.32-277.7-35.78Z"/>
      <path class="cls-1" d="M139.23,1307.57l-.4-.03v28.52l.35.02c70.38,4.58,141.35,11.62,210.93,20.91l.42.06v-28.53l-.33-.04c-69.61-9.29-140.59-16.33-210.98-20.92Z"/>
      <path class="cls-1" d="M.38,1356.23h-.38v28.52h.38c46.24,0,92.94,2.31,138.8,6.86l.41.04v-28.53l-.34-.03c-45.88-4.55-92.6-6.86-138.87-6.86Z"/>
    </g>
  </g>
</svg>