<?xml version="1.0" encoding="UTF-8"?>
<svg id="Layer_2" data-name="Layer 2" xmlns="http://www.w3.org/2000/svg" viewBox="0 0 1003.02 1003.01" preserveAspectRatio="none">
  <defs>
    <style>
      .cls-1 {
        fill: #16161d;
      }
    </style>
  </defs>
  <g id="Graphic">
    <path class="cls-1" d="M1003.02,449.86h0l-.03-28.97v-29.21h-.14c-35.41,0-71.06,3.14-105.95,9.34l-5.01-28.39c36.48-6.49,73.75-9.78,110.77-9.78h.37v-29.34h0l-.03-28.93.02-28.96h0v-29.12h.01v-.25h0v-29.08h-.47c-45.26,0-91.01,4.03-135.98,11.98l-5.01-28.39c46.5-8.25,93.87-12.43,140.8-12.43h.66v-29.34h0v-29.08h0l-.02-29.01v-.12h0v-29.09s0-28.84,0-28.84V13.5s-.11,0-.11,0c-57.33,0-115.09,5.1-171.67,15.13L826.21.12l-.02-.12-.12.02c-58.1,10.27-115.75,25.75-171.35,46.03h0s-.12.04-.12.04l-.12.04h0c-55.45,20.19-109.47,45.39-160.59,74.88h0s-.11.06-.11.06l-.11.06h0c-51.3,29.57-100.18,63.74-145.29,101.56h0s-.1.08-.1.08l-.1.08h0c-45.19,37.82-87.39,79.95-125.44,125.24h0s-.08.1-.08.1l-.08.1h0c-37.99,45.31-72.16,94.2-101.55,145.3h0s-.06.11-.06.11l-.06.11h0c-29.32,50.87-54.48,104.94-74.79,160.7h0s-.04.12-.04.12l-.04.12h0C25.74,710.55,10.26,768.18.02,826.04l-.02.12,28.65,5.08h0s0,0,0,0c-10.04,56.44-15.11,114.19-15.09,171.62v.12h29.1s29.03.02,29.03.02h.25s28.95-.02,28.95-.02l28.97.02h.25s29.01-.02,29.01-.02h29.21s29.08,0,29.08,0v-.12c-.01-45.45,4.03-91.28,12.01-136.24l28.42,5h0c-7.71,43.25-11.6,87.4-11.59,131.24v.12h29.34s28.83,0,28.83,0h29.11s29.1.01,29.1.01h29.34s29.08,0,29.08,0v-.12c0-33.79,2.98-67.73,8.88-100.88l28.38,4.99h0c-5.64,31.71-8.47,63.97-8.43,95.89v.12h29.3s29.09-.01,29.09-.01h28.85s29.03.02,29.03.02h29.37s0-.11,0-.11c-.02-23.61,2.07-47.37,6.21-70.63l28.42,5h0s0,0,0,0c-3.88,21.66-5.84,43.74-5.82,65.61v.12h29.15s28.95,0,28.95,0h.25s28.84-.03,28.84-.03l29.09.02h.12v-.12c-.02-14.98,1.32-30.26,3.98-45.41l28.34,5.01h0s0,0,0,0c-2.37,13.37-3.57,26.96-3.57,40.41v.12h29.22s28.81-.02,28.81-.02h28.98v-.13c0-8.49.76-16.99,2.24-25.29l28.09,4.96c-1.21,6.79-1.82,13.63-1.8,20.33v.12l28.51.02h.25s27.86-.02,27.86-.02h.13v-.13c0-.6-.01-1.22.02-1.82.09-2.91.39-5.82.89-8.66l25.55,4.51.12.02.02-.12c.36-2.03.89-4.01,1.58-5.9l.04-.12-24.53-8.93c1.21-3.32,2.72-6.52,4.49-9.52l.06-.11-24.23-13.98c2.53-4.4,5.51-8.65,8.85-12.64l.08-.1-21.85-18.31c4.3-5.14,9.15-9.99,14.4-14.41l.1-.08-18.47-22.01c6.51-5.45,13.52-10.33,20.84-14.53l.11-.06-14.44-25.01c8.88-5.12,18.14-9.44,27.54-12.83l.12-.04-9.9-27.19c11.07-4.06,22.59-7.17,34.27-9.22l.12-.02-5.01-28.54c13.07-2.33,26.52-3.51,39.98-3.51h.5v-29.26s-.12,0-.12,0h-.37c-15.01,0-30.17,1.35-45.07,4.01l-5.01-28.39c16.42-2.91,33.02-4.38,49.35-4.38.37,0,.73,0,1.1,0h.13s-.01-29.3-.01-29.3v-29.08h-.38c-20.02,0-40.31,1.78-60.32,5.3l-4.99-28.34c21.59-3.82,43.55-5.76,65.28-5.76h.4l.02-29.04h0v-.12h0v-.13h0v-29.09h0v-29.05h-.14c-27.17,0-54.33,2.4-80.73,7.1l-5.01-28.39c28.07-4.98,56.67-7.5,85.05-7.5.24,0,.47,0,.71,0h.12l-.02-29.18.03-29.02h0v-.25ZM962.22,773.04c-13.27,2.35-26.41,5.89-39.06,10.52l-9.84-27c14.23-5.2,29.01-9.17,43.92-11.79l4.98,28.26ZM716.15,952.17c2.11-11.81,4.97-23.62,8.51-35.09,1.36-4.43,2.86-8.9,4.59-13.67l27.03,9.84h0s0,0,0,0c-1.69,4.66-3.28,9.45-4.73,14.24-2.91,9.75-5.29,19.73-7.08,29.68l-28.34-5.01ZM200.8,861.33c7.96-44.86,19.89-89.65,35.45-133.14l1.36-3.73,27.1,9.86h0s-1.55,4.27-1.55,4.27h0c-14.84,41.5-26.26,84.47-33.94,127.73l-28.42-5ZM836.02,57.3c-54.65,9.67-108.95,24.27-161.4,43.39l-9.85-27.08c54.05-19.69,109.98-34.73,166.24-44.7l5.01,28.39ZM871.39,257.83c-43,7.62-85.77,19.13-127.14,34.19l-9.85-27.08c42.71-15.58,87.11-27.52,131.97-35.5l5.01,28.39ZM901.68,429.68c-33.26,5.91-66.16,14.75-97.77,26.27l-9.85-27.08c33.41-12.17,67.93-21.44,102.63-27.57l4.98,28.37ZM852.76,824.18c-10.31,8.65-19.94,18.26-28.61,28.58l-21.99-18.5c9.6-11.48,20.4-22.27,32.12-32.08l18.48,22ZM778.15,735.26c-15.5,12.98-29.95,27.4-42.94,42.86l-22.06-18.52c14.21-16.91,29.85-32.52,46.49-46.38l18.5,22.04ZM312.13,423.11c33.6-40.05,70.96-77.36,111.03-110.91l18.52,22.09c-38.73,32.43-74.89,68.53-107.48,107.31l-22.07-18.49ZM468.09,553.98c26.07-31.03,54.99-59.89,85.95-85.79l18.52,22.09c-29.7,24.87-57.41,52.54-82.38,82.24l-22.09-18.54ZM601.77,666.16c19.47-23.2,41.14-44.84,64.41-64.32l18.56,22.1c-21.99,18.4-42.48,38.84-60.88,60.75l-22.09-18.54ZM740.87,549.32c-26.47,15.25-51.58,32.8-74.65,52.17l-18.52-22.09c24.57-20.55,51.07-39.07,78.76-55.03l14.41,24.95ZM653.61,398.2c-35.09,20.24-68.58,43.66-99.54,69.63l-18.56-22.1c32.34-27.07,67.23-51.45,103.72-72.47l14.38,24.94ZM551.84,221.89c-45.34,26.17-88.62,56.43-128.65,89.96l-18.52-22.09c41.26-34.59,85.93-65.81,132.76-92.82l14.41,24.95ZM247.22,566.43c25.15-43.72,54.42-85.6,87.01-124.49l22.11,18.58h0s0,0,0,0c-31.44,37.46-59.74,77.94-84.14,120.34l-24.98-14.44ZM423.55,668.22c19.35-33.61,41.78-65.7,66.66-95.36l22.12,18.55h0s0,0,0,0c-23.95,28.56-45.41,59.26-63.8,91.24l-24.98-14.44ZM574.64,755.47c14.27-24.74,30.84-48.44,49.25-70.43l22.1,18.5h0c-17.36,20.68-32.97,43-46.41,66.35l-24.95-14.42ZM700.49,828.15c10.12-17.55,21.81-34.26,34.75-49.68l22.05,18.52h0s0,0,0,0c-11.98,14.28-22.71,29.6-31.88,45.53l-24.93-14.38ZM801.03,886.18c6.77-11.73,14.56-22.85,23.16-33.07l22.01,18.43h0c-7.68,9.2-14.51,18.95-20.28,29l-24.89-14.36ZM871.61,775.74c-13.16,7.6-25.71,16.37-37.3,26.09l-18.49-22.08c12.99-10.86,26.92-20.59,41.39-28.92l14.39,24.9ZM813.52,675.14c-19.21,11.12-37.32,23.81-53.84,37.73l-18.52-22.09c17.94-15.08,37.45-28.72,57.97-40.54l14.39,24.9ZM813.63,483.4h0c-30.12,10.98-59.42,24.65-87.08,40.64l-14.4-24.98c29.08-16.78,59.9-31.17,91.61-42.78l9.87,27.12ZM753.98,319.43h0c-39.65,14.45-78.22,32.44-114.66,53.49l-14.43-24.99c37.82-21.83,77.93-40.53,119.21-55.59l9.88,27.09ZM684.34,128.13h0c-50.72,18.47-100.11,41.5-146.82,68.46l-14.4-24.98c48.26-27.84,99.18-51.59,151.35-70.61l9.87,27.12ZM210.35,714.28c16.81-46.18,37.65-90.95,61.94-133.07l24.96,14.39c-23.4,40.6-43.52,83.85-59.8,128.54l-27.1-9.86ZM401.68,783.92c12.69-34.93,28.48-68.88,46.95-100.92l24.95,14.42h0s0,0,0,0c-17.61,30.61-32.69,63.02-44.83,96.34l-27.07-9.85ZM565.56,843.57c9.23-25.35,20.71-50.02,34.12-73.33l24.99,14.4c-12.61,21.86-23.38,45-32.01,68.79l-27.1-9.87ZM702.08,893.25c6.35-17.41,14.23-34.36,23.44-50.39l24.92,14.41h0c-8.42,14.6-15.59,30.01-21.32,45.81l-27.04-9.84ZM811.09,932.93c3.97-10.98,8.99-21.76,14.93-32.04l24.83,14.34c-5.01,8.67-9.32,17.92-12.82,27.5l-26.93-9.8ZM903.07,729.1h0c-15.79,5.76-31.19,12.96-45.76,21.39l-14.38-24.94c16.07-9.28,33-17.18,50.31-23.49l9.83,27.03ZM863.37,619.98h0c-22.15,8.05-43.74,18.12-64.15,29.91l-14.41-24.95c22.05-12.72,45.16-23.48,68.7-32.01l9.86,27.04ZM892.39,962.52c2.29-6.36,5.17-12.53,8.56-18.34l24.48,14.14c-2.57,4.38-4.75,9.04-6.48,13.87l-26.56-9.67ZM876.16,929.58c4.26-7.34,9.15-14.3,14.53-20.69l21.82,18.32c-4.4,5.19-8.31,10.78-11.64,16.63l-24.7-14.26ZM890.65,908.53l-21.95-18.41c6.42-7.63,13.63-14.83,21.43-21.41l18.39,21.92c-6.54,5.51-12.55,11.52-17.87,17.89ZM871.74,846.43c8.87-7.44,18.61-14.27,28.97-20.29l14.33,24.84c-8.58,4.94-16.95,10.78-24.88,17.39l-18.42-21.94ZM886.43,800.94c11.76-6.77,24.07-12.51,36.58-17.06l9.81,26.99c-11.19,4.1-21.96,9.12-32.02,14.93l-14.37-24.86ZM401.35,896.68c5.68-32.08,14.04-64.05,24.86-95.02l.07-.21c.88-2.52,1.71-4.9,2.6-7.35l27.07,9.85h0s0,0,0,0c-.96,2.63-1.9,5.31-2.81,7.91l-.07.2c-10.14,29.21-18,59.37-23.36,89.65l-28.37-5.02h0ZM589.01,864.61c1.09-3.27,2.33-6.83,3.8-10.86l27.07,9.85h0c-1.25,3.44-2.51,7.08-3.97,11.42-6.16,18.69-11.01,37.85-14.4,56.95l-28.38-4.99c3.74-21.06,9.09-42.05,15.88-62.37ZM830.35,972.33c.72-4.27,1.68-8.73,2.86-13.26,1.43-5.53,3.1-10.92,4.95-16.01l26.9,9.79h0s0,0,0,0c-2.01,5.53-3.68,11.13-4.96,16.65-.6,2.58-1.14,5.2-1.59,7.78l-28.17-4.95h0s0,0,0,0ZM915.19,987.27c.89-5.09,2.2-10.06,3.91-14.76l26.02,9.47c-1.17,3.23-2.07,6.63-2.67,10.1l-27.26-4.81h0ZM947.1,687.31c-18.28,3.25-36.35,8.11-53.71,14.44l-9.86-27.04c19.07-6.95,38.77-12.26,58.56-15.79l5.01,28.39ZM926.95,572.88c-24.98,4.41-49.64,11.05-73.3,19.73l-9.87-27.12c25.38-9.25,51.67-16.31,78.15-21l5.01,28.39Z"/>
  </g>
</svg>