<?xml version="1.0" encoding="UTF-8"?>
<svg id="Layer_2" data-name="Layer 2" xmlns="http://www.w3.org/2000/svg" viewBox="0 0 1245.5 1247.8" preserveAspectRatio="none">
  <defs>
    <style>
      .cls-1 {
        fill: #16161d;
      }
    </style>
  </defs>
  <g id="Graphic">
    <g>
      <path class="cls-1" d="M1245.37,63.14c-40.07-23.21-81.97-44.39-124.52-62.97l-.38-.17v49.8h0c-40.43-17.66-82.2-33.29-124.15-46.46l-.36-.11v49.78h0c-40.7-12.76-82.47-23.52-124.16-31.98l-.33-.07v49.8h0c-40.98-8.3-82.76-14.59-124.18-18.69l-.3-.03v49.8h0c-40.96-4.05-82.66-6.11-123.95-6.12h0s-.27,0-.27,0h-.27c-41.29.01-82.99,2.07-123.95,6.12h0v-49.81l-.3.03c-41.43,4.1-83.21,10.39-124.19,18.69h0V20.97l-.33.07c-41.7,8.46-83.47,19.22-124.17,31.98h0V3.23l-.36.11c-41.96,13.17-83.73,28.8-124.16,46.46h0V0l-.38.17C82.11,18.74,40.22,39.93.14,63.14l-.14.08v174.93l.41-.24c39.94-23.13,81.68-44.25,124.08-62.77v49.8l.38-.17c40.42-17.67,82.18-33.31,124.13-46.5v49.78l.36-.11c40.68-12.77,82.44-23.53,124.14-32.01v49.74h.37c40.72-8.29,82.48-14.59,124.12-18.72v49.8l.3-.03c41.12-4.08,82.99-6.15,124.47-6.15h0c41.47,0,83.35,2.07,124.46,6.15l.3.03v-49.8c41.64,4.13,83.4,10.43,124.11,18.72h.37s0-24.84,0-24.84v-24.9c41.69,8.47,83.45,19.24,124.13,32.01l.36.11v-49.78c41.95,13.18,83.71,28.82,124.12,46.5l.38.17v-49.8c42.4,18.53,84.15,39.65,124.08,62.77l.41.24V63.22l-.14-.08Z"/>
      <path class="cls-1" d="M1120.85,249.16l-.38-.17v49.78h0c-40.25-17.58-82.02-33.21-124.15-46.46l-.36-.11v49.8h0c-40.69-12.76-82.46-23.52-124.16-31.98l-.33-.07v49.8h0c-40.98-8.3-82.76-14.59-124.18-18.69l-.3-.03v49.78h0c-40.96-4.05-82.66-6.11-123.95-6.12h0s-.27,0-.27,0h-.27c-41.29.01-82.99,2.07-123.95,6.12h0v-49.78l-.3.03c-41.43,4.1-83.21,10.39-124.19,18.69h0v-49.81l-.33.07c-41.7,8.46-83.48,19.22-124.17,31.98h0v-49.81l-.36.11c-42.14,13.25-83.91,28.88-124.16,46.46h0v-49.79l-.38.17c-42.55,18.58-84.45,39.77-124.52,62.97l-.14.08v150.02l.41-.24c39.94-23.13,81.69-44.25,124.08-62.77v49.78l.38-.17c40.25-17.6,82-33.24,124.13-46.49v49.8l.36-.11c40.68-12.77,82.45-23.54,124.14-32.01v49.8l.33-.07c40.97-8.31,82.74-14.61,124.16-18.72v49.8l.3-.03c41.11-4.08,82.98-6.15,124.47-6.15h0c41.48,0,83.36,2.07,124.46,6.15l.3.03v-49.8c41.41,4.11,83.19,10.4,124.16,18.72l.33.07v-49.8c41.68,8.47,83.45,19.24,124.13,32.01l.36.11v-49.8c42.12,13.26,83.88,28.9,124.12,46.49l.38.17v-49.78c42.4,18.53,84.14,39.65,124.08,62.77l.41.24v-150.02l-.14-.08c-40.07-23.2-81.96-44.39-124.52-62.97Z"/>
      <path class="cls-1" d="M1167.24,494.67h.02l-1.07-.52c-14.74-7.19-30-14.22-45.34-20.91l-.38-.17v49.8h0c-23.02-10.06-46.71-19.54-70.43-28.2h.04l-1.46-.53c-17.16-6.24-34.75-12.21-52.3-17.73l-.36-.11v49.8h0c-40.72-12.76-82.49-23.52-124.16-31.98l-.33-.07v49.78h0c-40.98-8.3-82.76-14.59-124.18-18.69l-.3-.03v49.8h0c-40.96-4.05-82.66-6.11-123.95-6.12h0s-.27,0-.27,0h-.27c-41.29.01-82.99,2.07-123.95,6.12h0v-49.81l-.3.03c-41.43,4.1-83.21,10.39-124.19,18.69h0v-49.79l-.33.07c-41.68,8.45-83.46,19.21-124.17,31.98h0v-49.81l-.36.11c-17.55,5.52-35.15,11.49-52.3,17.73l-1.46.53h.04c-23.72,8.66-47.4,18.14-70.43,28.21h0v-49.81l-.38.17c-15.36,6.7-30.61,13.73-45.34,20.91l-1.07.52h.02c-26.47,12.87-52.76,26.83-78.14,41.54l-.14.08v125.15l.41-.24c25.72-14.89,52.36-29.04,79.19-42.07,14.8-7.2,29.9-14.17,44.89-20.71v49.78l.38-.17c23.6-10.32,47.88-20.04,72.16-28.88h0l.05-.02c17.04-6.2,34.5-12.12,51.92-17.6v49.8l.36-.11c40.67-12.77,82.44-23.53,124.14-32.01v49.81l.33-.07c40.96-8.31,82.74-14.61,124.16-18.72v49.78l.3-.03c41.12-4.08,83-6.15,124.47-6.15h0c41.47,0,83.34,2.07,124.46,6.15l.3.03v-49.78c41.42,4.11,83.19,10.4,124.16,18.72l.33.07v-49.81c41.69,8.47,83.45,19.24,124.13,32.01l.36.11v-49.8c17.4,5.48,34.87,11.4,51.92,17.6,24.3,8.84,48.6,18.56,72.21,28.89l.38.17v-49.78c14.99,6.54,30.09,13.51,44.89,20.71,26.84,13.03,53.48,27.18,79.19,42.07l.41.24v-125.15l-.14-.08c-25.37-14.7-51.65-28.67-78.13-41.54Z"/>
      <path class="cls-1" d="M1120.85,672.43l-.38-.17v49.81h0c-40.42-17.66-82.18-33.29-124.15-46.46l-.36-.11v49.8h0c-40.7-12.76-82.47-23.52-124.16-31.98l-.33-.07v49.78h0c-40.75-8.27-82.53-14.57-124.18-18.69l-.3-.03v49.8h0c-40.96-4.05-82.66-6.11-123.95-6.12h0s-.27,0-.27,0h-.27c-41.29.01-82.99,2.07-123.95,6.12h0v-49.81l-.3.03c-41.65,4.12-83.43,10.42-124.19,18.7h0v-49.79l-.33.07c-41.7,8.46-83.47,19.22-124.17,31.98h0v-49.81l-.36.11c-41.97,13.17-83.74,28.81-124.16,46.47h0v-49.81l-.38.17c-42.55,18.58-84.44,39.76-124.52,62.97l-.14.08v100.24l.41-.24c39.94-23.13,81.69-44.25,124.08-62.77v49.78l.38-.17c40.23-17.59,81.99-33.23,124.13-46.5v49.8l.36-.11c40.67-12.77,82.44-23.53,124.14-32.01v49.8l.33-.07c40.97-8.31,82.74-14.61,124.16-18.72v49.78l.3-.03c41.12-4.08,83-6.15,124.47-6.15h0c41.47,0,83.34,2.07,124.46,6.15l.3.03v-49.78c41.42,4.11,83.19,10.41,124.16,18.72l.33.07v-49.8c41.69,8.47,83.45,19.24,124.13,32.01l.36.11v-49.8c42.13,13.26,83.89,28.9,124.12,46.5l.38.17v-49.78c42.4,18.53,84.14,39.65,124.08,62.77l.41.24v-100.24l-.14-.08c-40.07-23.21-81.97-44.39-124.52-62.97Z"/>
      <path class="cls-1" d="M1167.19,868.13h.02l-1.07-.52c-14.93-7.27-30.16-14.29-45.29-20.89l-.38-.17v49.8h0c-22.96-10.04-46.66-19.53-70.49-28.23h.03l-1.46-.53c-17.29-6.3-34.86-12.25-52.23-17.7l-.36-.11v49.8h0c-40.72-12.76-82.49-23.52-124.16-31.98l-.33-.07v49.78h0c-40.98-8.3-82.76-14.59-124.18-18.69l-.3-.03v49.8h0c-40.96-4.05-82.66-6.11-123.95-6.12h0s-.27,0-.27,0h-.27c-41.29.01-82.99,2.07-123.95,6.12h0v-49.81l-.3.03c-41.43,4.1-83.21,10.39-124.19,18.69h0v-49.79l-.33.07c-41.68,8.45-83.46,19.21-124.17,31.98h0v-49.81l-.36.11c-17.37,5.45-34.94,11.4-52.23,17.7l-1.46.53h.03c-23.84,8.7-47.55,18.19-70.5,28.23h0v-49.81l-.38.17c-15.12,6.59-30.36,13.62-45.29,20.89l-1.07.52h.02c-26.49,12.89-52.79,26.86-78.18,41.56l-.14.08v75.34l.41-.24c39.94-23.13,81.69-44.25,124.08-62.77v49.78l.38-.17c40.23-17.59,81.99-33.23,124.13-46.5v49.8l.36-.11c40.68-12.77,82.44-23.53,124.14-32.01v49.74h.37c40.71-8.29,82.47-14.59,124.12-18.72v49.8l.3-.03c41.13-4.08,83-6.15,124.47-6.15h0c41.46,0,83.33,2.07,124.46,6.15l.3.03v-49.8c41.65,4.14,83.41,10.43,124.11,18.72h.37s0-24.83,0-24.83v-24.9c41.68,8.47,83.45,19.24,124.13,32.01l.36.11v-49.8c42.13,13.26,83.89,28.9,124.12,46.5l.38.17v-49.78c42.4,18.53,84.14,39.65,124.08,62.77l.41.24v-75.34l-.14-.08c-25.39-14.7-51.69-28.67-78.18-41.56Z"/>
      <path class="cls-1" d="M1120.85,996.12l-.38-.17v49.81c-40.42-17.66-82.19-33.29-124.15-46.46l-.36-.11v49.81c-40.69-12.76-82.46-23.52-124.16-31.98l-.33-.07v49.79c-40.98-8.3-82.76-14.59-124.18-18.69l-.3-.03v49.81c-40.94-4.05-82.64-6.11-123.95-6.12h0s-.27,0-.27,0h-.27c-41.31.01-83.01,2.07-123.95,6.12v-49.81l-.3.03c-41.43,4.1-83.21,10.39-124.19,18.69v-49.79l-.33.07c-41.71,8.46-83.48,19.22-124.17,31.98v-49.81l-.36.11c-41.96,13.17-83.73,28.8-124.16,46.46v-49.81l-.38.17c-42.55,18.58-84.44,39.76-124.52,62.97l-.14.08v50.44l.41-.24c39.94-23.13,81.69-44.25,124.08-62.77v49.8l.38-.17c40.41-17.67,82.17-33.31,124.13-46.49v49.78l.36-.11c40.69-12.77,82.46-23.54,124.14-32.01v49.74h.37c40.73-8.3,82.49-14.59,124.12-18.72v49.8l.3-.03c41.13-4.08,83-6.15,124.47-6.15h0c41.46,0,83.33,2.07,124.46,6.15l.3.03v-49.8c41.63,4.13,83.39,10.43,124.11,18.72h.37s0-24.83,0-24.83v-24.9c41.67,8.47,83.44,19.23,124.13,32.01l.36.11v-49.78c41.95,13.18,83.71,28.82,124.12,46.49l.38.17v-49.8c42.4,18.53,84.14,39.65,124.08,62.77l.41.24v-50.44l-.14-.08c-40.07-23.21-81.97-44.39-124.52-62.97Z"/>
      <path class="cls-1" d="M1120.85,1120.63l-.38-.17v25.48l.17.07c42.53,18.57,84.41,39.75,124.46,62.94l.41.24v-25.51l-.14-.08c-40.07-23.21-81.97-44.39-124.52-62.97Z"/>
      <path class="cls-1" d="M996.31,1123.78l-.36-.11v25.48l.19.06c42.06,13.2,83.94,28.89,124.48,46.61l.38.17v-25.5l-.17-.07c-40.36-17.65-82.26-33.34-124.54-46.63Z"/>
      <path class="cls-1" d="M871.8,1141.49l-.33-.07v25.46l.22.04c41.8,8.48,83.68,19.27,124.46,32.08l.36.11v-25.48l-.19-.06c-40.81-12.81-82.7-23.6-124.52-32.09Z"/>
      <path class="cls-1" d="M747.28,1172.54l-.3-.03v25.45l.25.02c41.52,4.11,83.39,10.42,124.46,18.75l.33.07v-25.46l-.22-.04c-41.08-8.34-82.98-14.65-124.51-18.76Z"/>
      <path class="cls-1" d="M623.03,1216.17h0s-.27,0-.27,0h-.27c-41.39.01-83.2,2.08-124.26,6.15l-.25.02v25.45l.3-.03c41.13-4.08,83-6.15,124.47-6.15h0c41.46,0,83.33,2.07,124.46,6.15l.3.03v-25.45l-.25-.02c-41.06-4.07-82.86-6.14-124.25-6.15Z"/>
      <path class="cls-1" d="M125.04,1145.94v-25.48l-.38.17c-42.55,18.58-84.44,39.76-124.52,62.97l-.14.08v25.51l.41-.24c40.06-23.2,81.94-44.38,124.47-62.94l.17-.07Z"/>
      <path class="cls-1" d="M249.55,1149.14v-25.48l-.36.11c-42.27,13.29-84.18,28.98-124.54,46.63l-.17.07v25.5l.38-.17c40.54-17.72,82.42-33.41,124.48-46.61l.19-.06Z"/>
      <path class="cls-1" d="M374.05,1166.89v-25.46l-.33.07c-41.82,8.49-83.72,19.28-124.52,32.09l-.19.06v25.48l.36-.11c40.78-12.8,82.66-23.59,124.47-32.08l.22-.04Z"/>
      <path class="cls-1" d="M498.54,1197.96v-25.45l-.3.03c-41.54,4.11-83.44,10.42-124.52,18.76l-.22.04v25.46l.33-.07c41.07-8.33,82.94-14.64,124.47-18.75l.25-.02Z"/>
    </g>
  </g>
</svg>