<?xml version="1.0" encoding="UTF-8"?>
<svg id="Layer_2" data-name="Layer 2" xmlns="http://www.w3.org/2000/svg" viewBox="0 0 1080 1327.3" preserveAspectRatio="none">
  <defs>
    <style>
      .cls-1 {
        fill: #000;
      }
    </style>
  </defs>
  <g id="Over">
    <g>
      <polygon class="cls-1" points="785.83 1102.47 458.17 1021.81 458.17 1044.54 458.17 1067.26 785.83 1151.41 785.83 1175.87 1080 1240.11 1080 1188.57 785.83 1126.93 785.83 1102.47"/>
      <polygon class="cls-1" points="458.17 976.36 196.04 899.38 196.04 920 196.04 940.99 196.04 941.34 458.17 1021.81 458.17 999.09 458.17 976.36"/>
      <polygon class="cls-1" points="785.83 613.17 785.83 637.63 1080 673.12 1080 621.57 785.83 588.71 785.83 613.17"/>
      <polygon class="cls-1" points="785.83 980.13 458.17 908.21 458.17 930.91 458.17 953.64 785.83 1029.05 785.83 1004.59 785.83 980.13"/>
      <polygon class="cls-1" points="458.17 1112.71 458.17 1089.99 196.04 1004.31 196.04 1024.91 196.04 1045.88 196.04 1046.29 458.17 1135.44 458.17 1158.16 785.83 1249.27 785.83 1273.76 458.17 1180.89 196.04 1088.25 196.04 1067.29 196.04 1066.87 0 976.15 0 1014.65 196.04 1108.83 196.04 1129.82 196.04 1130.26 458.17 1226.36 458.17 1249.09 196.04 1151.23 196.04 1150.81 0 1053.16 0 1091.68 196.04 1192.8 196.04 1213.79 0 1110.96 0 1327.3 1080 1327.3 1080 1265.89 785.83 1200.33 458.17 1112.71"/>
      <polygon class="cls-1" points="785.83 931.19 785.83 955.67 1080 1008.16 1080 956.61 785.83 906.73 785.83 931.19"/>
      <polygon class="cls-1" points="785.83 784.41 785.83 808.87 1080 853.53 1080 801.97 785.83 759.93 785.83 784.41"/>
      <polygon class="cls-1" points="196.04 983.32 196.04 962.33 196.04 961.96 0 879.91 0 918.43 196.04 1003.92 196.04 983.32"/>
      <polygon class="cls-1" points="196.04 354.24 196.04 333.3 196.04 333.16 0 303.38 0 341.78 196.04 375.05 196.04 354.24"/>
      <polygon class="cls-1" points="196.04 144.79 196.04 123.85 196.04 123.8 0 111.52 0 149.88 196.04 165.67 196.04 144.79"/>
      <polygon class="cls-1" points="196.04 542.87 196.04 521.9 196.04 521.69 0 476.19 0 514.62 196.04 563.6 196.04 542.87"/>
      <polygon class="cls-1" points="196.04 710.57 196.04 689.62 196.04 689.35 0 629.91 0 668.35 196.04 731.28 196.04 710.57"/>
      <polygon class="cls-1" points="196.04 857.42 196.04 836.45 196.04 836.12 0 764.5 0 802.97 196.04 878.06 196.04 857.42"/>
      <polygon class="cls-1" points="785.83 1053.53 785.83 1077.99 1080 1137.02 1080 1085.47 785.83 1029.05 785.83 1053.53"/>
      <polygon class="cls-1" points="458.17 635.6 458.17 658.32 785.83 711.01 785.83 686.55 785.83 662.07 458.17 612.89 458.17 635.6"/>
      <polygon class="cls-1" points="785.83 417.5 785.83 441.96 1080 466.95 1080 415.4 785.83 393.04 785.83 417.5"/>
      <polygon class="cls-1" points="458.17 453.93 458.17 476.63 785.83 515.31 785.83 490.85 785.83 466.41 458.17 431.25 458.17 453.93"/>
      <polygon class="cls-1" points="458.17 249.63 458.17 272.34 785.83 295.2 785.83 270.74 785.83 246.28 458.17 226.93 458.17 249.63"/>
      <polygon class="cls-1" points="196.04 794.19 196.04 815.16 196.04 815.46 458.17 885.48 458.17 862.76 458.17 840.03 196.04 773.5 196.04 794.19"/>
      <polygon class="cls-1" points="458.17 15.65 458.17 22.68 458.17 45.38 785.83 50.65 785.83 26.22 785.83 1.76 458.17 0 458.17 15.65"/>
      <polygon class="cls-1" points="458.17 794.6 458.17 817.31 785.83 882.25 785.83 857.79 785.83 833.33 458.17 771.88 458.17 794.6"/>
      <polygon class="cls-1" points="458.17 90.76 458.17 68.06 196.04 61.03 196.04 81.93 196.04 102.88 196.04 102.92 458.17 113.47 458.17 90.76"/>
      <polygon class="cls-1" points="785.83 197.39 785.83 221.82 1080 235 1080 183.46 785.83 172.93 785.83 197.39"/>
      <polygon class="cls-1" points="458.17 703.73 458.17 681.02 196.04 626.69 196.04 647.43 196.04 668.38 196.04 668.63 458.17 726.45 458.17 703.73"/>
      <polygon class="cls-1" points="458.17 317.72 458.17 295.01 196.04 270.44 196.04 291.27 196.04 312.21 196.04 312.33 458.17 340.42 458.17 317.72"/>
      <polygon class="cls-1" points="458.17 522.06 458.17 499.34 196.04 459.02 196.04 479.78 196.04 500.75 196.04 500.93 458.17 544.76 458.17 522.06"/>
    </g>
  </g>
</svg>