<?xml version="1.0" encoding="UTF-8"?>
<svg id="Layer_2" data-name="Layer 2" xmlns="http://www.w3.org/2000/svg" viewBox="0 0 1080 1350" preserveAspectRatio="none">
  <defs>
    <style>
      .cls-1 {
        fill: #000;
      }
    </style>
  </defs>
  <g id="Over">
    <g>
      <path class="cls-1" d="M1073.4,279.75c2.2-.39,4.4-.76,6.6-1.14v-52.44c-5.2.85-10.4,1.73-15.59,2.65l9,50.93Z"/>
      <path class="cls-1" d="M968.99,1243.29c6.29-17.29,14-33.79,22.97-49.29l-44.54-25.73c-10.46,18.08-19.47,37.24-26.75,57.43l48.32,17.59Z"/>
      <path class="cls-1" d="M823.79,1190.44l-48.5-17.65c-2.95,8.1-5.72,16.27-8.25,24.53-6.43,20.84-11.47,41.78-15.19,62.65l50.84,8.99c3.17-17.68,7.37-35.39,12.62-52.98,2.6-8.64,5.42-17.13,8.48-25.53Z"/>
      <path class="cls-1" d="M954.97,1295.84l50.54,8.88c.81-4.67,1.77-9.35,2.87-14.05,2.38-10.28,5.38-20.2,8.88-29.81l-48.26-17.57c-3.39,9.3-6.36,18.96-8.89,28.72-2.08,7.95-3.81,15.88-5.14,23.83Z"/>
      <path class="cls-1" d="M768.67,1065.08c-16.29,28.33-30.37,58.42-41.89,90.06l48.5,17.65c10.41-28.77,23.2-56.07,38.09-81.85l-44.7-25.85Z"/>
      <path class="cls-1" d="M977.29,856.66l25.8,44.74c24.53-14.21,50.27-26.41,76.91-36.43v-15.12l-12.79-35.17c-31.19,11.35-61.26,25.43-89.92,41.98Z"/>
      <path class="cls-1" d="M890.39,328.91l17.67,48.58c55.7-20.32,113.24-35.85,171.94-46.4v-13.75l-6.6-37.58c-62.54,11.02-123.76,27.56-183.01,49.16Z"/>
      <path class="cls-1" d="M1067.21,814.67c4.24-1.55,8.51-3.04,12.79-4.49v-54.27c-10.25,3.16-20.41,6.57-30.48,10.24l17.69,48.52Z"/>
      <path class="cls-1" d="M996.54,620.56c27.3-10.03,55.16-18.47,83.46-25.32v-53.09c-34.4,7.78-68.19,17.73-101.17,29.76l17.71,48.66Z"/>
      <path class="cls-1" d="M904.77,1050.11l39.45,33.19c15.6-18.59,32.78-35.72,51.17-51.12l-33.15-39.46c-20.72,17.34-40,36.49-57.46,57.4Z"/>
      <path class="cls-1" d="M947.42,1168.28c10.61-18.5,22.82-35.81,36.3-51.91l-39.49-33.07c-15.43,18.31-29.29,38.08-41.47,59.21l44.66,25.77Z"/>
      <path class="cls-1" d="M962.24,992.71c20.85-17.5,43.18-33.09,66.67-46.64l-25.82-44.68c-26.14,15.03-50.86,32.34-74.02,51.71l33.17,39.6Z"/>
      <path class="cls-1" d="M587.98,784.36c-32.57,38.86-62.04,80.81-87.88,125.66l44.76,25.88c24.27-42.22,52.07-81.79,82.77-118.34l-39.65-33.19Z"/>
      <path class="cls-1" d="M1061.58,1111.06c5.97-4.98,12.12-9.73,18.42-14.26v-61.21c-18.11,10.55-35.35,22.56-51.47,36.11l33.06,39.36Z"/>
      <path class="cls-1" d="M1080,1034.56v-57.29c-8.59,4.2-17.04,8.68-25.34,13.46l25.34,43.83Z"/>
      <path class="cls-1" d="M1023.13,1149.47l39.37,33.02c5.52-6.61,11.37-12.89,17.5-18.87v-30.61l-18.42-21.96c-13.82,11.63-26.7,24.41-38.45,38.42Z"/>
      <path class="cls-1" d="M908.06,377.49c-56.54,20.68-111.23,46.19-163.39,76.29l25.83,44.82c49.5-28.62,101.49-52.86,155.26-72.45l-17.71-48.66Z"/>
      <path class="cls-1" d="M786.02,950.53c-23.04,27.44-43.81,57.06-62.08,88.76l44.72,25.79c16.68-29.01,35.81-56.17,56.93-81.32l-39.57-33.23Z"/>
      <path class="cls-1" d="M1080,1283.7v-37.18c-5.79,10.06-10.73,20.67-14.72,31.82l14.72,5.36Z"/>
      <path class="cls-1" d="M1036.39,1219.69l43.61,25.17v-47.68l-17.5-14.69c-9.69,11.5-18.44,23.95-26.11,37.2Z"/>
      <path class="cls-1" d="M0,0v50.94C17.92,33.56,36.16,16.57,54.73,0H0Z"/>
      <path class="cls-1" d="M899.76,722.46c-36.46,20.99-71.18,45.2-103.5,72.39l33.23,39.63c30.01-25.31,62.25-47.77,96.09-67.34l-25.82-44.68Z"/>
      <path class="cls-1" d="M862.68,874.02l-33.19-39.54c-29.94,24.93-57.72,52.68-83.04,82.83l39.57,33.23c23.39-27.85,49.09-53.44,76.66-76.52Z"/>
      <path class="cls-1" d="M996.54,620.56c-42.43,15.35-83.47,34.54-122.63,57.13l25.86,44.76c36.51-21.11,74.82-38.98,114.46-53.37l-17.69-48.52Z"/>
      <path class="cls-1" d="M696.55,676.02l-33.29-39.65c-41.34,34.58-79.83,72.91-114.91,114.73l39.63,33.25c33.13-39.47,69.48-75.66,108.57-108.34Z"/>
      <path class="cls-1" d="M191.93,1161.28l50.9,9.01c9.44-53.39,23.23-106.77,41.59-159.64,1.71-4.88,3.42-9.77,5.19-14.63l-48.56-17.68c-1.66,4.56-3.24,9.09-4.84,13.67-19.58,56.03-34.26,112.61-44.27,169.27Z"/>
      <path class="cls-1" d="M544.86,935.9c-23.68,41.14-44.13,84.82-60.89,130.86l48.62,17.7c15.67-43.24,34.86-84.18,57.11-122.72l-44.84-25.84Z"/>
      <path class="cls-1" d="M581.15,1102.13l-48.56-17.68c-2.36,6.48-4.66,12.99-6.84,19.54-12.32,36.85-21.71,74.02-28.3,111.18l50.92,8.95c6.02-33.91,14.54-67.78,25.65-101.47,2.31-6.91,4.66-13.74,7.13-20.52Z"/>
      <path class="cls-1" d="M770.5,498.59c-49.46,28.5-96.49,61.34-140.48,98.15l33.23,39.63c41.61-34.95,86.23-66.03,133.11-93.02l-25.86-44.76Z"/>
      <path class="cls-1" d="M463.79,398.65c55.49-46.56,114.93-88.08,177.38-124.08l-25.8-44.74c-65.1,37.49-126.99,80.7-184.88,129.17l33.29,39.65Z"/>
      <path class="cls-1" d="M0,538.12c34.45-53.69,72.03-104.68,112.43-152.8l-39.67-33.34c-25.33,30.22-49.62,61.52-72.76,93.87v92.27Z"/>
      <path class="cls-1" d="M784.28,37.34l17.67,48.58c73.36-26.73,149.13-47.21,226.52-60.92l-4.41-24.99h-121.35c-40.05,10.7-79.56,23.15-118.43,37.34Z"/>
      <path class="cls-1" d="M197.76,81.57l33.23,39.63C283.49,77.22,338.64,36.77,396.02,0h-92.5c-36.27,25.71-71.57,52.9-105.76,81.57Z"/>
      <path class="cls-1" d="M33.17,318.8l39.59,33.17c58.53-69.65,122.63-133.54,191.46-191.15l-33.23-39.63c-71.16,59.55-137.41,125.58-197.82,197.61Z"/>
      <path class="cls-1" d="M615.37,229.83c65.17-37.67,133.54-69.55,204.3-95.32l-17.73-48.6c-73.52,26.81-144.65,59.93-212.47,99.08l25.89,44.84Z"/>
      <path class="cls-1" d="M276.18,780.73c33.37-58.08,71.56-112.36,113.71-162.62l-39.69-33.28c-44.05,52.49-83.88,109.24-118.84,170l44.82,25.9Z"/>
      <path class="cls-1" d="M310.57,551.58l39.63,33.25c44.84-53.36,94.02-102.35,146.82-146.56l-33.23-39.63c-55.11,46.08-106.43,97.22-153.21,152.93Z"/>
      <path class="cls-1" d="M241.04,978.34c22-60.45,48.85-117.77,79.91-171.73l-44.76-25.88c-32.6,56.52-60.72,116.58-83.71,179.93l48.56,17.67Z"/>
      <path class="cls-1" d="M795.56,1349.98c-.04-26.8,2.34-53.87,7.12-81.02l50.84,8.99c-4.3,24.13-6.39,48.18-6.37,72.05l-51.59-.02Z"/>
      <path class="cls-1" d="M1052.67,1349.96c-.03-12.04,1.04-24.16,3.24-36.35l-50.4-8.89c-2.72,15.12-4.02,30.28-4.02,45.24h51.19Z"/>
      <path class="cls-1" d="M537.3,1350c-.03-41.75,3.58-83.81,11.08-125.88l50.98,8.97c-7.01,39.05-10.42,78.12-10.39,116.88l-51.67.02"/>
      <path class="cls-1" d="M226.98,1349.97c0-59.55,5.15-119.67,15.84-179.68l50.92,8.95c-10.15,57.01-15.1,114.15-15.03,170.73h-51.73Z"/>
    </g>
  </g>
</svg>