<?xml version="1.0" encoding="UTF-8"?>
<svg id="Layer_2" data-name="Layer 2" xmlns="http://www.w3.org/2000/svg" viewBox="0 0 737.44 1477.26" preserveAspectRatio="none">
  <defs>
    <style>
      .cls-1 {
        fill: #16161d;
      }
    </style>
  </defs>
  <g id="Graphic">
    <g>
      <path class="cls-1" d="M737.38,74.64C689.92,47.16,640.31,22.07,589.93.08l-.17-.08v58.98h0c-47.96-20.96-97.52-39.52-147.3-55.14l-.16-.05v58.96h0c-48.27-15.14-97.82-27.91-147.28-37.95l-.15-.03v58.98h0c-48.6-9.86-98.16-17.32-147.29-22.18h-.14s0,29.48,0,29.48v29.49h0c-48.67-4.82-98.23-7.27-147.31-7.27h-.12v206.67h.12c49.11,0,98.71,2.45,147.42,7.28h.14s0-29.48,0-29.48v-29.49c49.39,4.9,98.93,12.36,147.26,22.2h.18v-58.96c49.46,10.04,99.01,22.81,147.27,37.96l.16.05v-58.96c49.77,15.63,99.32,34.19,147.28,55.16l.17.08v-58.98c50.31,21.98,99.85,47.03,147.25,74.48l.19.11V74.68l-.06-.04Z"/>
      <path class="cls-1" d="M589.93,294.97l-.17-.08v58.96h0c-47.75-20.87-97.31-39.42-147.3-55.14l-.16-.05v58.98h0c-48.27-15.14-97.82-27.91-147.28-37.95l-.15-.03v58.98h0c-48.6-9.86-98.16-17.32-147.29-22.18h-.14s0,29.48,0,29.48v29.47h0c-48.67-4.82-98.23-7.27-147.31-7.27h-.12v177.2h.12c49.11,0,98.71,2.45,147.42,7.28h.14s0-7.28,0-7.28v-51.69c49.13,4.87,98.69,12.33,147.28,22.19l.15.03v-58.98c49.46,10.04,99.01,22.81,147.27,37.96l.16.05v-58.98c49.98,15.72,99.54,34.28,147.28,55.16l.17.08v-58.96c50.31,21.98,99.85,47.03,147.25,74.48l.19.11v-177.21l-.06-.04c-47.46-27.48-97.07-52.57-147.45-74.57Z"/>
      <path class="cls-1" d="M644.1,585.34h0l-.49-.24c-17.46-8.51-35.52-16.84-53.68-24.76l-.17-.08v58.98h0c-27.7-12.11-56.19-23.52-84.71-33.91h0l-.67-.24c-20.29-7.38-41.13-14.45-61.93-20.99l-.16-.05v58.98h0c-48.27-15.14-97.82-27.91-147.28-37.95l-.15-.03v58.96h0c-48.6-9.86-98.15-17.32-147.29-22.18h-.14s0,29.48,0,29.48v29.49h0c-48.67-4.82-98.23-7.27-147.31-7.27h-.12v147.68h.12c49.12,0,98.71,2.45,147.42,7.28h.14s0-29.45,0-29.45v-29.49c49.14,4.87,98.69,12.33,147.28,22.19l.15.03v-58.98c49.46,10.04,99.01,22.81,147.27,37.96l.16.05v-58.98c20.76,6.53,41.53,13.57,61.75,20.93,28.79,10.48,57.57,21.99,85.53,34.22l.17.08v-58.96c17.85,7.79,35.83,16.08,53.45,24.65,31.8,15.43,63.36,32.2,93.8,49.83l.19.11v-147.75l-.06-.04c-30.27-17.54-61.65-34.22-93.28-49.57Z"/>
      <path class="cls-1" d="M589.93,796.25l-.17-.08v58.98h0c-47.96-20.96-97.52-39.52-147.3-55.14l-.16-.05v58.98h0c-48.27-15.15-97.82-27.91-147.28-37.95l-.15-.03v58.96h0c-48.33-9.82-97.89-17.29-147.29-22.18h-.14s0,22.21,0,22.21v36.76h0c-48.67-4.82-98.23-7.27-147.31-7.27h-.12v118.19h.12c49.11,0,98.71,2.45,147.42,7.28h.14s0-7.28,0-7.28v-51.66c49.14,4.87,98.69,12.33,147.28,22.19l.15.03v-58.98h0c49.46,10.04,99,22.81,147.27,37.96l.16.05v-58.98c49.99,15.72,99.54,34.28,147.28,55.16l.17.08v-58.96h0c50.31,21.97,99.85,47.03,147.25,74.48l.19.11v-118.26l-.06-.04c-47.45-27.48-97.06-52.57-147.45-74.57Z"/>
      <path class="cls-1" d="M644.05,1027.64h0l-.49-.24c-17.67-8.6-35.72-16.92-53.63-24.73l-.17-.08v58.98h0c-27.61-12.09-56.13-23.5-84.79-33.93h0l-.67-.24c-20.44-7.45-41.25-14.5-61.85-20.96l-.16-.05v58.98h0c-48.27-15.15-97.82-27.91-147.28-37.95l-.15-.03v58.96h0c-48.6-9.85-98.15-17.32-147.29-22.18h-.14s0,29.48,0,29.48v29.49h0c-48.67-4.82-98.23-7.27-147.31-7.27h-.12v88.72h.12c49.12,0,98.71,2.45,147.42,7.28h.14s0-29.48,0-29.48v-29.49c49.4,4.9,98.93,12.36,147.26,22.2h.18v-58.96h0c49.45,10.04,99,22.81,147.27,37.96l.16.05v-58.98c49.99,15.72,99.54,34.28,147.28,55.16l.17.08v-58.96h0c50.31,21.97,99.85,47.03,147.25,74.48l.19.11v-88.76l-.06-.04c-30.29-17.54-61.69-34.22-93.33-49.6Z"/>
      <path class="cls-1" d="M589.93,1179.59l-.17-.08v58.98c-47.96-20.96-97.52-39.52-147.3-55.14l-.16-.05v58.98c-48.27-15.15-97.82-27.91-147.28-37.95l-.15-.03v58.96c-48.6-9.86-98.15-17.32-147.29-22.18h-.14s0,29.48,0,29.48v29.49c-48.67-4.82-98.23-7.27-147.31-7.27h-.12v59.23h.12c49.11,0,98.71,2.45,147.42,7.28h.14s0-29.48,0-29.48v-29.49c49.39,4.9,98.92,12.36,147.26,22.2h.18v-58.96c49.46,10.04,99.01,22.81,147.27,37.96l.16.05v-58.96c49.78,15.63,99.33,34.19,147.28,55.16l.17.08v-58.98c50.31,21.98,99.85,47.03,147.25,74.48l.19.11v-59.27l-.06-.04c-47.45-27.48-97.06-52.57-147.45-74.57Z"/>
      <path class="cls-1" d="M589.93,1327.05l-.17-.08v29.74l.08.03c50.37,22,99.97,47.08,147.42,74.56l.19.11v-29.75l-.06-.04c-47.45-27.48-97.06-52.57-147.45-74.57Z"/>
      <path class="cls-1" d="M442.46,1330.79l-.16-.05v29.75l.09.03c49.83,15.64,99.44,34.22,147.45,55.21l.17.08v-29.77l-.08-.03c-47.81-20.9-97.42-39.48-147.47-55.22Z"/>
      <path class="cls-1" d="M295.02,1351.78l-.15-.03v29.75l.1.02c49.5,10.05,99.1,22.83,147.42,37.99l.16.05v-29.75l-.09-.03c-48.31-15.17-97.92-27.95-147.45-38Z"/>
      <path class="cls-1" d="M147.57,1388.55h-.14s0,29.73,0,29.73h.11c49.18,4.88,98.78,12.35,147.42,22.22l.15.03v-29.75l-.1-.02c-48.64-9.87-98.25-17.34-147.44-22.21Z"/>
      <path class="cls-1" d="M.12,1440.22h-.12v29.74h.12c49.11,0,98.71,2.45,147.42,7.28h.14s0-7.28,0-7.28v-22.45h-.11c-48.71-4.84-98.32-7.29-147.45-7.29Z"/>
    </g>
  </g>
</svg>