<?xml version="1.0" encoding="UTF-8"?>
<svg id="Layer_2" data-name="Layer 2" xmlns="http://www.w3.org/2000/svg" viewBox="0 0 1023.26 1174.54">
  <defs>
    <style>
      .cls-1 {
        fill: #000;
      }
    </style>
  </defs>
  <g id="Layer_6" data-name="Layer 6">
    <g>
      <path class="cls-1" d="M929.51,799.81v60.85c-28.08,9.3-59.5,19.71-92.16,30.54v-67.63l-.5.13c-30.48,7.84-62.02,15.97-92.94,23.94l-.3.08v149.04l-43.03,17.42c-16.94,6.86-33.42,13.53-49.13,19.9v-81.31l-3.23,1.07c-35.02,11.6-66.09,21.88-89.73,29.72v-88.16l-.5.13c-4.4,1.14-8.55,2.21-12.41,3.2-21.58,5.57-46.34,5.57-67.94,0l-12.89-3.32v88.15l-29.91-9.91c-18.6-6.16-39.75-13.17-62.52-20.71l-.52-.17v81.31h0c-28.78-11.66-60.14-24.35-92.16-37.31v-74.52l-.27-.09c-30.83-10.22-62.28-20.64-92.68-30.69h0v-67.69l-40.75-10.51c-18.37-4.73-36-9.28-52.49-13.54l-.5-.13h0s-67.82-17.47-67.82-17.47l-25.13-6.47v54.77l92.96,30.79h0v121.6l93.74,44.85v-67.69h0c24.69,9.98,50.06,20.26,75.23,30.45l16.92,6.85v74.48l.23.11c29.72,14.23,58.87,28.17,85.93,41.11l6.86,3.28.17.08c36.3,17.38,68.51,32.79,92.79,44.4l.17.08c4.4,2.11,8.54,4.09,12.4,5.93,10.46,5,21.61,7.61,33.16,7.77h2.19c11.53-.16,22.68-2.77,33.13-7.77l12.63-6.05v-88.17l8.95-3.62c22.87-9.26,51.46-20.83,83.21-33.67v81.37l93.75-44.85v-74.49c16.43-6.65,33.04-13.37,49.56-20.06l42.58-17.24h0s.69-.28.69-.28l.11-.04h0s35.64-14.43,35.64-14.43c20.02-8.1,39.22-15.88,57.07-23.11l.25-.1v-60.79l71.53-23.69,21.43-7.1v-54.77l-93.45,24.07-.3.08Z"/>
      <path class="cls-1" d="M930.31,556.49h0s-.38-.01-.38-.01l-.41-.02h0c-28.2-1.04-59.75-2.2-92.54-3.42l-.41-.02v67.71c-19.1.69-38.61,1.41-58.11,2.13l-34.83,1.28v75.32l.44-.05c30.77-3.39,62.15-6.86,92.5-10.21h0s93.75-10.35,93.75-10.35v-60.79h0c39.43-1.45,72.22-2.65,92.57-3.4h.38v-54.76h-.38c-20.35-.77-53.15-1.97-92.57-3.42Z"/>
      <path class="cls-1" d="M930.08,191.59l-.57-.27v121.73c-28.09-9.3-59.5-19.71-92.16-30.54h0v-67.63l-.25-.1c-16.63-6.74-33.58-13.6-50.58-20.48l-42.36-17.15-.55-.22v149.9l93.24,24.03c25.55,6.59,50.36,12.98,73.4,18.91l20.05,5.17v-60.78l60.87,20.16,32.09,10.63v-108.76l-93.18-44.59Z"/>
      <path class="cls-1" d="M464.76,279.14l.5-.13c4.4-1.14,8.55-2.21,12.41-3.2,21.58-5.55,46.34-5.55,67.93,0l12.3,3.16.11.03c21.34,5.51,48.82,12.59,79.85,20.58l13.61,3.5v-163.46l-92.96-37.63V13.8l-.23-.11c-4.41-2.1-8.55-4.08-12.4-5.93-10.62-5.08-22.46-7.77-34.24-7.77s-23.63,2.69-34.23,7.77l-12.23,5.86-.17.08c-20.61,9.86-46.95,22.46-76.68,36.68l-16.51,7.9v82.19l.55-.22c36.12-14.62,68.17-27.6,92.41-37.41h0v87.31h0s-16.66,5.52-16.66,5.52c-21.59,7.15-47.54,15.74-76.02,25.18l-.27.09v82.13l92.96-23.94h0Z"/>
      <path class="cls-1" d="M459.31,631.56l5.45.2v88.14l4.03.45c3.05.34,5.96.66,8.73.97,10.84,1.2,22.47,1.8,34.11,1.8s23.27-.6,34.11-1.8c2.76-.3,5.68-.63,8.73-.97l3.24-.36h0l.15-.02.65-.07h0c24.26-2.68,56.39-6.23,92.6-10.22l.35-.04v-162.63c28.89,1.06,60.37,2.23,92.54,3.42l.41.02v-75.28l-.35-.04c-32.32-3.57-63.95-7.07-92.96-10.27l-.44-.05v81.38l-29.33-1.08c-24.05-.88-45.46-1.67-62.83-2.31h0v-88.16l-4.03-.45c-3.05-.34-5.96-.66-8.73-.97-21.68-2.38-46.55-2.38-68.22,0-2.76.3-5.68.63-8.73.97l-3.24.36h0s-.15.02-.15.02l-.65.07h0c-24.26,2.68-56.39,6.23-92.6,10.22l-.35.04v163.44h.38c33.54,1.23,63.59,2.35,87.12,3.22Z"/>
      <path class="cls-1" d="M92.96,678.85l.47.05.33.04h0s92.15,10.17,92.15,10.17h0s.35.04.35.04l.44.05h0c30.35,3.35,61.74,6.82,92.51,10.21l.44.05v-75.32l-34.51-1.27c-19.62-.72-39.24-1.44-58.45-2.14v-67.71l-.41.02c-32.95,1.22-64.64,2.39-92.94,3.43h-.38v60.8h0c-39.41-1.45-72.2-2.65-92.54-3.4l-.41-.02v54.74l92.96,10.26h0Z"/>
      <path class="cls-1" d="M92.96,253.37v60.79l93.46-30.96.27-.09h0c30.4-10.07,61.85-20.49,92.68-30.7l.27-.09v-75.39l-8,3.24c-28.34,11.48-57.09,23.12-84.96,34.4h0v-67.69l-93.51,44.73-.23.11h0L.23,236.08l-.23.11v54.81l92.96-37.63h0Z"/>
    </g>
  </g>
</svg>