<?xml version="1.0" encoding="UTF-8"?>
<svg id="Layer_2" data-name="Layer 2" xmlns="http://www.w3.org/2000/svg" viewBox="0 0 735.13 1474.77" preserveAspectRatio="none">
  <defs>
    <style>
      .cls-1 {
        fill: #000;
      }
    </style>
  </defs>
  <g id="Graphic">
    <g>
      <polygon class="cls-1" points="147.03 1253.5 147.03 1253.18 147.03 1231.52 1.37 1120.58 1.3 1120.53 0 1121.51 0 1141.12 0 1141.43 0 1161.04 1.11 1160.17 146.43 1274.69 146.43 1275.48 293.29 1391.2 293.49 1391.36 293.49 1367.43 147.03 1253.94 147.03 1253.5"/>
      <path class="cls-1" d="M587.7,0h-294.8v.34h-146.46v21.21L5.92,19.66l-5.92.08v177.79l5.17-.69,141.26,18.97v42.88L5.03,235.91h-.02s-5.01.8-5.01.8v157.9l4.34-1.15,142.09,38.13v42.87L4.22,432.5h-.04s-4.18,1.2-4.18,1.2v138.09l3.61-1.4,142.82,55.5v42.94L3.48,609.43l-.05-.02-3.43,1.4v118.28l2.93-1.44,143.5,71.1v42.93L2.84,766.72l-.06-.03-2.78,1.44v98.5l2.36-1.37,144.07,84.82v42.97L2.27,904.33l-.07-.04-2.21,1.35v78.85l1.87-1.25,144.57,96.64v42.99L1.78,1022.3l-.07-.05-1.71,1.18v59.14l1.45-1.05,144.98,106.57v22.39l146.46,109.59v.73l147.14,110.12.2.15v-25.88l-146.75-107.85v-24.37l-146.46-105.7v-43.01l145.86,101.39v24.3l147.09,104.21h0s.11.08.11.08l.14.1h0s147.26,104.33,147.26,104.33l.2.14v-27.85l-147.46-102.49h0v-25.57l-146.75-100.04v-46.94l146.5,95.99v25.56l147.46,98.57h0s.08.05.08.05l.17.12h0s147.24,98.44,147.24,98.44l.19.13v-29.79l-147.43-96.59v-27.52l-147.46-94.67v-50.84l147.21,90.58h0v27.52l147.49,92.72.19.12v-59.28l-147.43-88.76v-54.77l147.25,84.73.19.11v-88.74l-147.43-78.93h0v-54.78h0s147.25,74.91,147.25,74.91l.18.09v-118.23l-147.43-67.15h0v-54.79h0s147.26,63.15,147.26,63.15l.17.07v-147.71l-147.43-53.37h0v-54.77h0s147.27,49.36,147.27,49.36l.17.06v-177.2l-147.43-37.58v-54.78h0s147.28,33.59,147.28,33.59l.15.03v-206.68l-147.43-19.82v-54.76l147.29,15.82h.14s0-29.48,0-29.48V0h-147.43ZM147.03,1058.63v-42.67l145.86,91.7v46.89l-145.86-95.55v-.37ZM147.03,929.09v-43l145.86,80.05v46.88l-145.86-83.92ZM147.03,777.61v-42.99l145.86,66.43v46.89l-145.86-70.33ZM147.03,604.62v-42.97l145.86,50.85v46.87l-145.86-54.75ZM147.03,410.14v-42.95l145.86,33.28v46.85l-145.86-37.18ZM147.03,194.2v-42.91l145.86,13.72v46.83l-145.86-17.65ZM439.99,1124.08v50.83l-146.5-90.16v-46.92l146.5,86.25h0ZM439.99,996.01v25.56l-146.5-78.45v-46.93l146.5,74.54v25.28ZM439.99,817.12v25.56h0s-146.5-64.78-146.5-64.78v-46.92l146.5,60.87v25.27ZM439.99,612.78v25.54h0s-146.5-49.11-146.5-49.11v-46.9l146.5,45.17v25.3ZM439.99,382.92v25.54l-146.5-31.47v-46.88l146.5,27.53v25.28ZM439.99,127.63v25.54l-146.5-11.81v-46.89l146.5,7.87v25.29ZM587.45,1128.33v54.74l-147.21-84.69v-50.82l147.21,80.77h0ZM587.45,990.42v27.51h0s-147.21-72.93-147.21-72.93v-50.83l147.21,69.01v27.24ZM587.45,770.54v54.78l-147.21-59.17v-50.84l147.21,55.22h0ZM587.45,577.68v27.51l-147.21-43.44v-50.79h0s147.21,39.49,147.21,39.49v27.23ZM587.45,302.82v54.77h0s-147.21-25.68-147.21-25.68v-50.83h0s147.21,21.73,147.21,21.73h0ZM587.45,27.76v54.75h0s-147.21-5.92-147.21-5.92V25.79l147.21,1.97h0Z"/>
      <polygon class="cls-1" points="0 1199.94 0 1219.88 .88 1219.15 146.83 1339.99 147.03 1340.16 147.03 1318.17 .96 1199.17 0 1199.94"/>
    </g>
  </g>
</svg>