<?xml version="1.0" encoding="UTF-8"?>
<svg id="Layer_2" data-name="Layer 2" xmlns="http://www.w3.org/2000/svg" viewBox="0 0 1120.18 1122.23" preserveAspectRatio="none">
  <defs>
    <style>
      .cls-1 {
        fill: #000;
      }
    </style>
  </defs>
  <g id="Graphic">
    <g>
      <path class="cls-1" d="M783.68,0h-504.98v.26H110.67v16.13L4.65,14.96l-4.65.06v135.58l4.08-.55,106.58,14.31v32.29L4.01,179.47h-.04s-3.97.63-3.97.63v120.45l3.45-.92,107.22,28.77v32.27L3.4,329.03l-.07-.02-3.33.96v105.39l2.9-1.12,107.77,41.88v32.32L2.85,463.64l-.09-.04-2.76,1.13v90.33l2.38-1.17,108.28,53.66v32.29L2.38,583.31l-.11-.06-2.26,1.18v75.29l1.95-1.13,108.72,64v32.31L1.96,688l-.13-.08-1.83,1.12v60.35l1.57-1.05,109.1,72.92v32.31L1.59,777.75l-.14-.1-1.45,1v45.37l1.26-.91,109.41,80.42v17.6l167.91,83.64.13.06v.24l224.23,83.81.33.12v-19.98l-224.23-82.31-.1-.04v-18.23l-166.77-80.12v-32.42l166.42,77.01.12.06v18.2l224.07,79.28h0s.17.06.17.06l.33.11v-.02l280.1,79.39.31.09v-21.47l-280.42-77.97v-19.44l-224.24-76.35-.09-.03v-35.41l223.84,73.25h0v19.46l280.42,74.99h0s.19.05.19.05l.3.08h0s336.2,74.9,336.2,74.9l.3.07v-22.94l-336.5-73.48v-20.92l-280.42-72.02v-38.39l279.92,68.91h0v20.94l336.7,70.56.3.06v-45.38l-336.5-67.53v-41.38l336.21,64.48.29.06v-67.79l-336.5-60.05v-41.37h0s336.21,57,336.21,57l.29.05v-90.23l-336.5-51.09v-41.38h0s336.22,48.05,336.22,48.05l.28.04v-112.67l-336.5-40.6v-41.36h0s336.22,37.55,336.22,37.55l.27.03v-135.1l-336.5-28.59v-41.36h0s336.23,25.56,336.23,25.56l.27.02v-157.54l-336.5-15.08v-41.35h0s336.24,12.04,336.24,12.04h.26s0-22.43,0-22.43V0h-336.5ZM278.7,843.43v35.15l-166.54-72.63v-32.45l166.43,69.66.11.05v.22ZM278.7,735.71v35.16l-166.54-63.79v-32.41l166.44,60.81.1.04v.2ZM278.7,610.06v35.2l-166.54-53.46v-32.41l166.45,50.47.09.03v.17ZM278.7,466.53v35.23l-166.54-41.62v-32.4l166.47,38.63.07.02v.13ZM278.7,305.14v35.26l-166.54-28.26v-32.38l166.49,25.29h.05v.09ZM278.7,125.9v35.31l-166.54-13.42v-32.35l166.51,10.43h.03v.03ZM502.77,855.45v38.37l-223.84-68.8v-35.39l223.84,65.82h0ZM502.77,738.79v38.37l-223.76-59.85-.08-.02v-35.4l223.84,56.88h0ZM502.77,602.71v38.36l-223.77-49.41-.07-.02v-35.39l223.84,46.45h0ZM502.77,447.23v38.37l-223.78-37.46h-.06v-35.38l223.84,34.47h0ZM502.77,272.38v38.35l-223.8-24.01h-.04v-35.36l223.84,21.01h0ZM502.77,78.16v38.36l-223.81-9.01h-.03v-35.36l223.84,6.01h0ZM783.19,858.69v41.35l-279.92-64.43v-38.37l279.92,61.44h0ZM783.19,733.06v41.35l-279.92-55.48v-38.36h0s279.92,52.48,279.92,52.48h0ZM783.19,586.5v41.38l-279.92-45.01v-38.37h0s279.92,42,279.92,42h0ZM783.19,419.06v41.34l-279.92-33.04v-38.34h0s279.92,30.03,279.92,30.03h0ZM783.19,230.68v41.37l-279.92-19.53v-38.36h0s279.92,16.53,279.92,16.53h0ZM783.19,41.86v20.91l-279.92-4.5V19.92h0s279.92,1.5,279.92,1.5v20.44Z"/>
      <polygon class="cls-1" points="112.16 954.07 112.16 953.44 112.16 936.96 1.29 852.53 1.14 852.41 0 853.27 0 868.19 0 868.81 0 883.74 1 882.95 110.67 969.38 110.67 970.59 278.57 1058.66 278.93 1058.86 278.93 1040.33 112.16 954.3 112.16 954.07"/>
      <polygon class="cls-1" points="0 912.95 0 928.51 .82 927.83 111.75 1019.68 112.16 1020.01 112.16 1002.89 .88 912.23 0 912.95"/>
    </g>
  </g>
</svg>