<?xml version="1.0" encoding="UTF-8"?>
<svg id="Layer_2" data-name="Layer 2" xmlns="http://www.w3.org/2000/svg" viewBox="0 0 1072.95 1074.82" preserveAspectRatio="none">
  <defs>
    <style>
      .cls-1 {
        fill: #16161d;
      }
    </style>
  </defs>
  <g id="Graphic">
    <g>
      <path class="cls-1" d="M965.54,0h-215.06v.25h-107.43v15.46h0s-102.95-1.38-102.95-1.38l-4.34.06-4.35-.06-102.8,1.38h-.23s0,0,0,0V.25h-105.63v-.25H0v172.36l107.5-11.54v39.6h0S.21,214.84.21,214.84l-.21.03v150.88l107.5-24.5v39.61L.18,408.19l-.18.05v129.41l107.5-36h0v39.6h0S.16,580.06.16,580.06l-.16.06v107.93l107.5-46.06v39.6L.14,730.45l-.14.06v86.46l107.5-54.64h0v39.58L.13,859.35l-.13.07v64.99l107.5-61.8v39.57L.11,966.76l-.11.07v43.53l107.86-67.75.11-.07v-20.04h0s107.05-65.82,107.05-65.82v36.7h0s-107.41,68.9-107.41,68.9l-.11.07v20.05L.11,1052.69l-.11.07v22.06l107.5-71.81,107.89-72.05.11-.07v-18.62l105.36-68.98v33.88l-105.73,72.02-.1.07v18.63l-107.42,74.6-.1.07v20.65l107.52-76.11.38-.27.09-.07h0s107.16-75.85,107.16-75.85l.1-.07v-18.51l105.53-73.29.1-.07v30.96l-107.42,77.46-.1.07v18.61l-105.74,77.65-.1.07v19.22l107.63-80.48.09-.07v-1.4l105.53-78.9.09-.07v-15.78l106.3-78.06.96.7v.17l.12-.09.12.09v-.17l.96-.7,106.21,78.06v15.78l107.05,80.1.38.28h0s107.26,80.26,107.26,80.26l.38.28v-19.22l-107.64-79.11h0v-17.21l-107.05-77.26-.38-.27v-30.96l107.05,74.42.37.26h0v17.19l107.16,75.92h0s.21.15.21.15l.27.19h0s107.05,75.84,107.05,75.84l.37.27v-20.65l-107.43-74.67h0v-18.63l-107.27-73.13-.37-.25v-33.83l107.16,70.22v18.62l107.43,71.81h0s.15.1.15.1l.33.22h0s107.04,71.56,107.04,71.56l.37.25v-22.06l-107.41-70.37v-20.05l-107.43-68.97v-36.69l106.95,65.81h0v20.04l107.52,67.59.36.23v-43.53l-107.41-64.67v-39.57l107.05,61.6.36.2v-64.99l-107.41-57.5h0v-39.58h0s107.06,54.47,107.06,54.47l.34.18v-86.46l-107.41-48.92h0v-39.6h0s107.08,45.92,107.08,45.92l.33.14v-107.93l-107.41-38.88h0v-39.6h0s107.09,35.89,107.09,35.89l.31.11v-129.41l-107.41-27.38v-39.61h0s107.12,24.43,107.12,24.43l.29.06v-150.88l-107.41-14.44v-39.6l107.14,11.51.26.03V0h-107.41ZM215.02,781.63v18.62h0s-107.05,61.53-107.05,61.53v-39.54h0s107.05-58.68,107.05-58.68v18.07ZM215.02,669.91v18.61l-107.05,52.99v-39.56l107.05-50.14v18.1ZM215.02,521.48v36.73h0s-107.05,42.99-107.05,42.99v-39.59l107.05-40.12h0ZM215.02,390.68v18.61h0s-107.05,31.56-107.05,31.56v-39.57l107.05-28.69v18.1ZM215.02,223.23v18.61h0s-107.05,18.66-107.05,18.66v-39.61l107.05-15.79v18.13ZM215.02,19.08v36.73h0s-107.05,4.3-107.05,4.3V20.52l107.05-1.44h0ZM643.05,126.17v-15.71h0s107.17,10.07,107.17,10.07l.26.03v33.84l-107.16-12.97-.26-.03v-15.23ZM322.75,721.67v-18.23l105.51-57.85.12-.07h0v30.97h0s-105.63,60.73-105.63,60.73v-15.55ZM428.19,267.71l.19-.04v30.98l-105.63,26.9v-33.8l105.44-24.04ZM535.76,287.78l.12.03v-.06l3.07-.82,103.8,27.86.3.08h0v30.95l-104.15-30.73-.07-.02-3.07.89-3.08-.89-104.14,30.69-.17.05v-30.94h0s104.19-27.94,104.19-27.94l3.07.82v.06l.12-.03ZM535.76,416.87l.12.05v-.09l2.54-.99,104.31,40.53.32.13h0v30.98h0s-104.68-43.48-104.68-43.48l-.09-.04-2.52,1.03-2.53-1.03-104.71,43.46-.15.06h0v-30.98h0s104.72-40.66,104.72-40.66l2.54.99v.09l.12-.05ZM428.22,409.33l.16-.06h0v30.98l-105.63,39.61v-33.8l105.47-36.74ZM428.24,535.3l.14-.06h0v30.98l-105.63,50.89v-33.8l105.49-48ZM428.38,723.78v-30.97h0s105.63-62.14,105.63-62.14l1.63.95v.14l.12-.07.12.07v-.14l1.63-.95,105.18,61.92.36.21h0v30.97h0s-105.53-64.93-105.53-64.93l-.12-.08-1.63,1-1.63-1-105.64,64.95-.11.07h0ZM537.92,558.59l-.11-.06-2.05,1.06-2.05-1.06-105.2,54.87-.13.06v-30.96l105.22-52.09,2.05,1v.12l.12-.06.12.06v-.12l2.04-1,104.78,51.92.34.17v30.96l-105.13-54.88ZM643.05,676.49v-30.95h0s107.07,58.75,107.07,58.75l.35.19h0v33.82h0s-107.07-61.6-107.07-61.6l-.36-.2h0ZM643.39,566.38l-.34-.16v-30.97h0s107.09,48.77,107.09,48.77l.33.15h0v33.85h0s-107.09-51.63-107.09-51.63ZM643.37,440.37l-.32-.12v-30.97h0s107.11,37.33,107.11,37.33l.31.11h0v33.85h0s-107.11-40.2-107.11-40.2ZM643.35,298.72l-.3-.08v-30.98l107.14,24.45.29.06h0v33.85l-107.13-27.31ZM531.97,143.69l3.68.49v.03l.12-.02.12.02v-.03l3.67-.49,103.23,13.87.27.04v30.96l-103.57-16.69h-.04s-3.68.58-3.68.58l-3.65-.58h-.04s-103.5,16.65-103.5,16.65l-.2.03v-30.96l103.59-13.9ZM428.38,110.46h0v30.95l-105.63,12.77v-33.79l105.41-9.91.21-.02ZM215.5,93.45v-18.6l105.36-5.66v33.9l-105.36,8.49v-18.12ZM215.5,279.42v-18.6h0s105.36-19.78,105.36-19.78v33.89l-105.36,22.61v-18.12ZM215.5,464.97v-36.73l105.36-32.46v33.9l-105.36,35.29h0ZM215.5,595.73v-18.6l105.36-43.74v33.9l-105.36,46.55v-18.11ZM215.5,744.14v-36.71h0s105.36-53.57,105.36-53.57v33.9l-105.36,56.38h0ZM215.5,837.77v-18.62l105.36-61.98v33.88l-105.36,64.79v-18.07ZM322.75,840.23v-33.78l105.52-66.28.11-.07h0v30.98h0s-105.63,69.15-105.63,69.15ZM643.05,787.42v30.97l-105.88-73.6-.14-.09-1.27.88-1.27-.88-106.01,73.63-.1.07v-30.97h0s106-70.8,106-70.8l1.27.85v.16l.12-.08.12.08v-.16l1.27-.85,105.53,70.54.37.25h0ZM750.48,807.64v33.82l-107.06-70.13-.37-.24h0v-30.98h0s107.06,67.3,107.06,67.3l.36.23h0ZM857.64,819.15v36.69l-107.16-65.95v-33.83l107.16,63.09h0ZM857.64,725.52v18.62l-106.82-57.2-.35-.19v-33.85l107.16,54.53v18.09ZM857.64,595.22v18.62h0s-106.83-47.24-106.83-47.24l-.33-.15v-33.84h0s107.16,44.52,107.16,44.52v18.09ZM857.64,446.37v18.6h0s-106.85-35.82-106.85-35.82l-.31-.11v-33.85l107.16,33.04v18.12ZM857.64,278.94v18.6l-106.88-22.96-.29-.06v-33.84l107.16,20.14v18.12ZM857.64,92.97v18.6h0s-106.91-8.62-106.91-8.62l-.26-.02v-33.84h0s107.16,5.75,107.16,5.75v18.13ZM965.07,822.24v39.54l-106.95-61.53v-36.69l106.95,58.68h0ZM965.07,721.46v20.04h0s-106.95-52.99-106.95-52.99v-36.71l106.95,50.14v19.52ZM965.07,561.6v39.59l-106.95-42.99v-36.73l106.95,40.12h0ZM965.07,420.8v20.04l-106.95-31.56h0v-36.71h0s106.95,28.69,106.95,28.69v19.53ZM965.07,240.45v20.04l-106.95-18.65h0v-36.74h0s106.95,15.79,106.95,15.79v19.56ZM965.07,40.09v20.02l-106.95-4.3V19.08h0s106.95,1.43,106.95,1.43v19.57Z"/>
      <polygon class="cls-1" points="643.05 913.04 643.05 897.26 536.88 816.4 536.73 816.29 535.76 817.02 534.79 816.29 428.47 897.19 428.38 897.26 428.38 913.04 320.95 996.2 320.86 996.27 320.86 1014.08 428.29 929.51 428.38 929.44 428.38 929.43 534.92 845.54 535.64 846.1 535.64 846.29 535.76 846.2 535.88 846.29 535.88 846.1 536.6 845.54 642.67 929.13 643.05 929.43 643.05 929.44 750.1 1013.78 750.48 1014.08 750.48 996.27 643.43 913.33 643.05 913.04"/>
      <polygon class="cls-1" points="535.76 874.17 535.04 873.58 428.47 960.32 428.38 960.39 428.38 976.79 535.1 888.51 535.64 888.97 535.64 889.16 535.76 889.07 535.88 889.16 535.88 888.97 536.43 888.51 642.66 976.47 643.05 976.79 643.05 960.39 536.49 873.58 535.76 874.17"/>
    </g>
  </g>
</svg>