<?xml version="1.0" encoding="UTF-8"?>
<svg id="Layer_2" data-name="Layer 2" xmlns="http://www.w3.org/2000/svg" viewBox="0 0 568.86 694.53">
  <defs>
    <style>
      .cls-1 {
        fill: #f8f8ff;
      }
    </style>
  </defs>
  <g id="Layer_1-2" data-name="Layer 1">
    <g>
      <g>
        <polygon class="cls-1" points="37.5 299.9 37.5 243.2 284.43 222.12 531.36 243.2 531.36 299.9 284.43 320.98 37.5 299.9"/>
        <path class="cls-1" d="M268.67,3.58c9.96-4.77,21.55-4.77,31.53,0,46.49,22.24,182.15,87.15,220.78,105.64,6.35,3.04,10.38,9.44,10.38,16.47v48.34s-170.99-50.7-228.39-67.72c-12.1-3.59-24.98-3.59-37.08,0-57.4,17.02-228.39,67.72-228.39,67.72v-48.34c0-7.03,4.04-13.44,10.38-16.47C86.53,90.73,222.19,25.82,268.67,3.58"/>
        <path class="cls-1" d="M300.2,539.51c-9.97,4.77-21.56,4.77-31.53,0-46.49-22.24-182.15-87.15-220.79-105.63-6.34-3.04-10.38-9.45-10.38-16.48v-48.34s170.99,50.69,228.39,67.72c12.1,3.58,24.98,3.58,37.08,0,57.4-17.03,228.39-67.72,228.39-67.72v48.34c0,7.03-4.03,13.44-10.38,16.48-38.64,18.49-174.3,83.4-220.78,105.63"/>
      </g>
      <g>
        <polygon class="cls-1" points="0 604.63 0 693.26 68.63 693.26 68.63 677.31 18.36 677.31 18.36 656.17 62.47 656.17 62.47 640.85 18.36 640.85 18.36 620.59 66.41 620.59 66.41 604.63 0 604.63"/>
        <polygon class="cls-1" points="98.88 601.72 98.88 693.27 81.53 693.27 81.53 610.02 98.88 601.72"/>
        <path class="cls-1" d="M126.85,653.76h32.16c-.68-2.62-1.79-4.92-3.36-6.9-1.56-1.98-3.44-3.52-5.63-4.62-2.2-1.1-4.56-1.65-7.09-1.65-2.7,0-5.15.53-7.34,1.58-2.2,1.06-4.03,2.58-5.51,4.56-1.48,1.98-2.56,4.33-3.23,7.03h0ZM144.71,694.53c-6.58,0-12.56-1.54-17.92-4.62-5.36-3.08-9.61-7.17-12.73-12.28-3.12-5.1-4.68-10.86-4.68-17.28s1.5-12.09,4.49-17.28c3-5.19,7.07-9.31,12.22-12.35,5.15-3.04,10.84-4.56,17.09-4.56s11.96,1.54,16.9,4.62c4.94,3.08,8.82,7.28,11.65,12.6,2.83,5.32,4.24,11.39,4.24,18.23v4.56h-48.87c.76,2.62,2.03,4.98,3.8,7.09,1.77,2.11,3.93,3.74,6.46,4.88,2.53,1.14,5.27,1.71,8.23,1.71s5.57-.44,8.11-1.33c2.53-.89,4.68-2.17,6.45-3.86l11.39,10.38c-4.05,3.29-8.21,5.7-12.47,7.21-4.27,1.52-9.05,2.28-14.37,2.28h0Z"/>
        <path class="cls-1" d="M186.62,693.26v-65.96h17.34v5.06c4.73-4.22,10.47-6.33,17.22-6.33,4.31,0,8.14.87,11.52,2.6,3.38,1.73,6.16,4.16,8.36,7.28,2.7-3.21,5.91-5.65,9.62-7.34,3.71-1.69,7.81-2.53,12.28-2.53,4.89,0,9.22,1.12,12.98,3.36,3.76,2.24,6.71,5.32,8.86,9.24,2.15,3.92,3.23,8.46,3.23,13.61v41.02h-17.35v-38.36c0-4.31-1.12-7.7-3.35-10.19-2.24-2.49-5.25-3.74-9.05-3.74-2.62,0-5,.53-7.15,1.58-.25.12-.51.28-.79.47-2.78,1.9-4.35,5.13-4.34,8.5,0,.28,0,.53,0,.72v41.02h-17.34v-38.36c0-4.31-1.12-7.7-3.36-10.19-2.24-2.49-5.25-3.74-9.05-3.74-2.61,0-4.96.51-7.03,1.52h0c-3.22,1.59-5.26,4.86-5.26,8.45v42.32s-17.34,0-17.34,0Z"/>
        <path class="cls-1" d="M315.63,653.76h32.16c-.68-2.62-1.79-4.92-3.35-6.9-1.56-1.98-3.44-3.52-5.64-4.62-2.19-1.1-4.56-1.65-7.09-1.65-2.7,0-5.15.53-7.34,1.58-2.2,1.06-4.03,2.58-5.51,4.56-1.48,1.98-2.55,4.33-3.23,7.03h0ZM333.49,694.53c-6.58,0-12.56-1.54-17.92-4.62-5.36-3.08-9.61-7.17-12.73-12.28-3.12-5.1-4.68-10.86-4.68-17.28s1.5-12.09,4.5-17.28c3-5.19,7.07-9.31,12.22-12.35,5.15-3.04,10.84-4.56,17.09-4.56s11.97,1.54,16.9,4.62c4.94,3.08,8.82,7.28,11.65,12.6,2.83,5.32,4.24,11.39,4.24,18.23v4.56h-48.87c.76,2.62,2.03,4.98,3.8,7.09,1.77,2.11,3.93,3.74,6.46,4.88,2.53,1.14,5.27,1.71,8.23,1.71s5.57-.44,8.1-1.33c2.53-.89,4.68-2.17,6.46-3.86l11.39,10.38c-4.05,3.29-8.21,5.7-12.47,7.21-4.27,1.52-9.06,2.28-14.37,2.28h0Z"/>
        <path class="cls-1" d="M375.4,693.26v-65.96h17.34v5.44c5.07-4.47,11.27-6.71,18.61-6.71,5.07,0,9.56,1.12,13.49,3.36,3.92,2.24,6.98,5.32,9.18,9.24,2.2,3.92,3.29,8.46,3.29,13.61v41.02h-17.22v-38.36c0-4.31-1.25-7.7-3.74-10.19-2.49-2.49-5.85-3.74-10.07-3.74-2.95,0-5.57.57-7.85,1.71h0c-3.49,1.75-5.7,5.33-5.7,9.24v41.34h-17.34Z"/>
        <path class="cls-1" d="M479.73,694.28c-7.26,0-12.77-1.67-16.52-5-3.76-3.34-5.64-8.17-5.64-14.5v-33.04h-13.55v-14.43h13.55v-12.52l17.22-8.24v20.76h18.99v14.43h-18.99v29.37c0,3.04.7,5.21,2.09,6.52,1.39,1.31,3.74,1.96,7.03,1.96,1.77,0,3.35-.11,4.75-.32,1.39-.21,2.93-.57,4.62-1.08v14.18c-1.77.59-3.97,1.05-6.58,1.39-2.62.34-4.94.51-6.96.51h0Z"/>
        <path class="cls-1" d="M533.66,679.46c3.46,0,6.58-.86,9.37-2.59,2.79-1.73,4.98-4.03,6.58-6.9,1.6-2.87,2.41-6.12,2.41-9.75s-.82-6.75-2.47-9.62c-1.64-2.87-3.84-5.15-6.58-6.84-2.74-1.69-5.8-2.53-9.18-2.53s-6.58.84-9.37,2.53c-2.79,1.69-4.98,3.97-6.58,6.84-1.6,2.87-2.41,6.08-2.41,9.62s.8,6.88,2.41,9.75c1.6,2.87,3.77,5.17,6.52,6.9,2.74,1.73,5.84,2.59,9.31,2.59h0ZM533.66,694.53c-6.58,0-12.53-1.52-17.85-4.56-5.32-3.04-9.54-7.15-12.66-12.35-3.12-5.19-4.68-10.95-4.68-17.28s1.56-12.22,4.68-17.41c3.12-5.19,7.35-9.29,12.66-12.28,5.32-2.99,11.27-4.5,17.85-4.5s12.53,1.5,17.85,4.5c5.32,3,9.54,7.09,12.66,12.28,3.12,5.19,4.69,10.99,4.69,17.41s-1.54,12.09-4.62,17.28c-3.08,5.19-7.28,9.31-12.6,12.35-5.32,3.04-11.31,4.56-17.98,4.56h0Z"/>
      </g>
    </g>
  </g>
</svg>