<?xml version="1.0" encoding="UTF-8"?>
<svg id="Layer_2" data-name="Layer 2" xmlns="http://www.w3.org/2000/svg" viewBox="0 0 1314.9 218.92">
  <defs>
    <style>
      .cls-1 {
        fill: #16161d;
      }
    </style>
  </defs>
  <g id="Layer_1-2" data-name="Layer 1">
    <g>
      <g>
        <g>
          <path class="cls-1" d="M93.18,1.44c4.02-1.92,8.69-1.92,12.71,0,18.74,8.96,73.42,35.13,89,42.58,2.56,1.22,4.18,3.81,4.18,6.64v19.49s-68.92-20.44-92.06-27.3c-4.88-1.45-10.07-1.45-14.95,0C68.92,49.71,0,70.15,0,70.15v-19.49c0-2.83,1.63-5.42,4.18-6.64C19.76,36.57,74.44,10.41,93.18,1.44h0Z"/>
          <path class="cls-1" d="M105.89,217.47c-4.02,1.92-8.69,1.92-12.71,0-18.74-8.96-73.42-35.13-89-42.58C1.63,173.67,0,171.08,0,168.25v-19.48s68.92,20.43,92.06,27.3c4.88,1.44,10.07,1.44,14.95,0,23.14-6.86,92.06-27.3,92.06-27.3v19.48c0,2.83-1.63,5.42-4.18,6.64-15.57,7.45-70.26,33.62-89,42.58h0Z"/>
        </g>
        <polygon class="cls-1" points="0 98.03 0 120.89 99.54 129.38 199.07 120.89 199.07 98.03 99.54 89.53 0 98.03"/>
      </g>
      <polygon class="cls-1" points="308.53 32.85 308.53 189.64 429.94 189.64 429.94 161.42 341.01 161.42 341.01 124.01 419.04 124.01 419.04 96.91 341.01 96.91 341.01 61.07 426.01 61.07 426.01 32.85 308.53 32.85"/>
      <polygon class="cls-1" points="483.45 27.69 483.45 189.65 452.76 189.65 452.76 42.38 483.45 27.69"/>
      <path class="cls-1" d="M532.94,119.76h56.9c-1.2-4.63-3.17-8.7-5.94-12.21-2.77-3.51-6.08-6.23-9.96-8.17-3.88-1.94-8.07-2.91-12.55-2.91-4.78,0-9.11.93-12.99,2.8-3.89,1.87-7.13,4.56-9.74,8.06-2.62,3.51-4.52,7.66-5.71,12.43h0ZM564.53,191.88c-11.65,0-22.22-2.72-31.7-8.18-9.49-5.45-16.99-12.69-22.51-21.73-5.52-9.03-8.29-19.22-8.29-30.57s2.65-21.39,7.95-30.57c5.3-9.18,12.5-16.46,21.62-21.84,9.11-5.38,19.18-8.07,30.24-8.07s21.16,2.73,29.9,8.17c8.74,5.45,15.6,12.88,20.61,22.29,5,9.41,7.5,20.16,7.5,32.25v8.07h-86.46c1.34,4.63,3.58,8.81,6.72,12.54,3.14,3.74,6.94,6.61,11.43,8.63,4.47,2.02,9.33,3.02,14.56,3.02s9.85-.78,14.34-2.35c4.47-1.57,8.28-3.85,11.42-6.83l20.16,18.37c-7.16,5.82-14.53,10.08-22.06,12.76-7.55,2.69-16.01,4.04-25.42,4.04h0Z"/>
      <path class="cls-1" d="M638.67,189.64v-116.7h30.68v8.96c8.36-7.46,18.52-11.2,30.47-11.2,7.62,0,14.41,1.53,20.38,4.59,5.97,3.06,10.9,7.36,14.79,12.88,4.77-5.67,10.45-10,17.02-12.99,6.57-2.99,13.81-4.48,21.73-4.48,8.66,0,16.31,1.98,22.96,5.94,6.65,3.96,11.87,9.41,15.68,16.35,3.81,6.94,5.72,14.97,5.72,24.08v72.57h-30.69v-67.87c0-7.62-1.98-13.63-5.93-18.03-3.96-4.4-9.3-6.61-16.02-6.61-4.63,0-8.85.93-12.65,2.8-.44.22-.91.5-1.4.84-4.91,3.36-7.69,9.07-7.68,15.03,0,.49,0,.93,0,1.27v72.57h-30.68v-67.87c0-7.62-1.98-13.63-5.94-18.03-3.96-4.4-9.3-6.61-16.02-6.61-4.63,0-8.77.9-12.43,2.69h0c-5.69,2.8-9.3,8.6-9.3,14.94v74.87s-30.68,0-30.68,0Z"/>
      <path class="cls-1" d="M866.92,119.76h56.89c-1.2-4.63-3.17-8.7-5.93-12.21-2.77-3.51-6.09-6.23-9.97-8.17-3.88-1.94-8.07-2.91-12.54-2.91-4.78,0-9.11.93-12.99,2.8-3.89,1.87-7.14,4.56-9.74,8.06-2.61,3.51-4.52,7.66-5.71,12.43h0ZM898.5,191.88c-11.65,0-22.21-2.72-31.7-8.18-9.49-5.45-16.99-12.69-22.51-21.73-5.52-9.03-8.29-19.22-8.29-30.57s2.65-21.39,7.95-30.57c5.3-9.18,12.51-16.46,21.62-21.84,9.11-5.38,19.18-8.07,30.24-8.07s21.17,2.73,29.9,8.17c8.74,5.45,15.6,12.88,20.61,22.29,5,9.41,7.5,20.16,7.5,32.25v8.07h-86.46c1.35,4.63,3.59,8.81,6.72,12.54,3.13,3.74,6.94,6.61,11.42,8.63,4.48,2.02,9.33,3.02,14.56,3.02s9.86-.78,14.34-2.35c4.48-1.57,8.29-3.85,11.42-6.83l20.16,18.37c-7.17,5.82-14.53,10.08-22.06,12.76-7.55,2.69-16.02,4.04-25.42,4.04h0Z"/>
      <path class="cls-1" d="M972.64,189.64v-116.7h30.68v9.63c8.96-7.91,19.94-11.87,32.93-11.87,8.96,0,16.91,1.98,23.86,5.94,6.94,3.96,12.35,9.41,16.24,16.35,3.88,6.94,5.82,14.97,5.82,24.08v72.57h-30.46v-67.87c0-7.62-2.2-13.63-6.61-18.03-4.4-4.4-10.34-6.61-17.81-6.61-5.23,0-9.85,1.01-13.88,3.02h0c-6.18,3.1-10.09,9.43-10.09,16.35v73.13h-30.68Z"/>
      <path class="cls-1" d="M1157.21,191.44c-12.85,0-22.59-2.95-29.23-8.85-6.65-5.9-9.97-14.45-9.97-25.65v-58.46h-23.97v-25.54h23.97v-22.16l30.46-14.58v36.73h33.6v25.54h-33.6v51.96c0,5.38,1.23,9.22,3.69,11.53,2.47,2.32,6.61,3.47,12.44,3.47,3.13,0,5.93-.19,8.4-.56,2.46-.37,5.18-1.01,8.18-1.9v25.08c-3.14,1.05-7.02,1.86-11.65,2.47-4.63.6-8.74.9-12.32.9h0Z"/>
      <path class="cls-1" d="M1252.63,165.23c6.12,0,11.65-1.52,16.58-4.59,4.93-3.06,8.81-7.13,11.65-12.21,2.83-5.08,4.26-10.82,4.26-17.25s-1.46-11.94-4.37-17.02c-2.91-5.08-6.8-9.11-11.65-12.1-4.85-2.99-10.27-4.48-16.24-4.48s-11.65,1.49-16.57,4.48c-4.93,2.99-8.82,7.02-11.65,12.1-2.84,5.08-4.26,10.75-4.26,17.02s1.42,12.17,4.26,17.25c2.83,5.08,6.68,9.15,11.53,12.21,4.85,3.06,10.34,4.59,16.46,4.59h0ZM1252.63,191.88c-11.65,0-22.17-2.69-31.58-8.07-9.41-5.37-16.88-12.65-22.4-21.84-5.52-9.18-8.29-19.37-8.29-30.57s2.76-21.61,8.29-30.8c5.52-9.18,12.99-16.43,22.4-21.73,9.41-5.3,19.94-7.95,31.58-7.95s22.18,2.65,31.58,7.95c9.41,5.3,16.87,12.54,22.4,21.73,5.52,9.18,8.29,19.45,8.29,30.8s-2.73,21.39-8.18,30.57c-5.46,9.19-12.88,16.47-22.29,21.84-9.41,5.38-20.01,8.07-31.81,8.07h0Z"/>
    </g>
  </g>
</svg>