<?xml version="1.0" encoding="UTF-8" standalone="no"?>
<!DOCTYPE svg PUBLIC "-//W3C//DTD SVG 1.1//EN" "http://www.w3.org/Graphics/SVG/1.1/DTD/svg11.dtd">
<svg width="100%" height="100%" viewBox="0 0 1920 1080" version="1.1" xmlns="http://www.w3.org/2000/svg" xmlns:xlink="http://www.w3.org/1999/xlink" xml:space="preserve" xmlns:serif="http://www.serif.com/" style="fill-rule:evenodd;clip-rule:evenodd;stroke-linejoin:round;stroke-miterlimit:2;">
    <g>
        <g>
            <g>
                <g>
                    <g id="Base">
                        <path d="M952.4,943.1L331.7,584.8L331.7,547.2L952.4,905.5L952.4,943.1Z" style="fill-rule:nonzero;"/>
                        <path d="M952.4,905.5L331.7,547.2L952.4,188.8L1573,547.2L952.4,905.5Z" style="fill:white;fill-rule:nonzero;"/>
                        <path d="M952.4,943L1573,584.7L1573,547.2L952.4,905.5L952.4,943Z" style="fill:rgb(51,51,51);fill-rule:nonzero;"/>
                    </g>
                    <g id="ombra">
                        <path d="M1017.7,641.4L821.7,528.3L887,490.5L1083,603.7L1017.7,641.4Z" style="fill:rgb(230,230,230);fill-rule:nonzero;"/>
                    </g>
                    <g id="lock_00000127017684892634129150000006192282042554133930_">
                        <path d="M869.4,329.5C928.7,364 925.7,361.8 985.1,396.2C1008,409.5 1033.2,406.2 1050.4,396.2C1059.7,390.8 1065.5,384.5 1065.5,376.9L1065.5,560.6C1065.5,572.1 1059.7,579.4 1050.4,584.8C1033.1,594.8 1009.4,598.8 986.5,585.6C933.7,555.1 924.4,549.8 869.5,518C858.9,511.9 854.5,505 854.5,498.4L854.5,306.7C854.4,313.4 858.8,323.4 869.4,329.5Z" style="fill:rgb(255,166,0);fill-rule:nonzero;"/>
                        <path d="M864.2,288.8C887,275.6 910,277.4 932.8,290.7C992.1,325.2 991,324.1 1050.3,358.6C1073.2,371.9 1067.6,386.4 1050.3,396.3C1033,406.3 1007.8,409.6 985,396.3C925.7,361.8 928.6,364.1 869.3,329.6C850.7,318.7 850,297 864.2,288.8Z" style="fill:rgb(242,142,0);fill-rule:nonzero;"/>
                        <path d="M906.5,420.5C906.9,409.1 914.7,404.9 924.5,410.7C934.3,416.6 942.3,430.4 942.3,441.8C942.3,449.7 938.5,454.3 933,454.7C932.5,454.7 932.1,455.2 932.1,455.7L932.1,469.9C932.1,481.1 917.1,472.6 917.1,460.5L917.1,445.7C910.7,438.5 906.1,429 906.5,420.5Z" style="fill-rule:nonzero;"/>
                        <path d="M906.1,420.9C906.1,412 910.9,407.3 917.6,408.2C915.8,410.4 914.8,413.6 914.8,417.8C914.8,425.8 918.7,435 924.4,441.8C924.8,442.3 925,442.8 925,443.5L925,457.7C925,463.3 928.4,468.3 932,470.8C931.2,481.6 916.3,472.7 916.3,460.8L916.3,446.5C916.3,446 916.1,445.5 915.8,445.1C910,438.2 906.1,429 906.1,420.9Z" style="fill:rgb(242,142,0);fill-rule:nonzero;"/>
                        <path d="M879.2,247.3C879.2,232 887.5,209.2 908.9,196.2C920.4,189.2 942.6,183 971.1,192.9C997.8,202.2 1016.8,220 1030.4,256.9C1036,272 1040,288.4 1040,305.9C1040,323.8 1040.2,369 1040.2,369C1040.3,372.6 1037.9,376.3 1033.1,379C1023.6,384.5 1008.3,384.5 998.8,379C994.1,376.3 991.7,372.7 991.7,369.1C991.7,360.1 991.6,323.6 991.6,307C991.6,281.7 980.9,245.4 955.9,236.7C949.6,234.5 941.1,232.6 935.7,235.7C931.8,238 928.1,242.7 927.8,246.9L927.8,305.1C927.9,308.7 925.3,312.2 920.5,315C911,320.5 895.8,320.6 886.3,315.2C881.6,312.5 879.2,308.9 879.2,305.3C879.2,305.1 879.1,256.4 879.2,247.3Z" style="fill:rgb(137,140,138);fill-rule:nonzero;"/>
                    </g>
                </g>
            </g>
        </g>
    </g>
</svg>
