<?xml version="1.0" encoding="UTF-8" standalone="no"?>
<!DOCTYPE svg PUBLIC "-//W3C//DTD SVG 1.1//EN" "http://www.w3.org/Graphics/SVG/1.1/DTD/svg11.dtd">
<svg width="100%" height="100%" viewBox="0 0 1920 1080" version="1.1" xmlns="http://www.w3.org/2000/svg" xmlns:xlink="http://www.w3.org/1999/xlink" xml:space="preserve" xmlns:serif="http://www.serif.com/" style="fill-rule:evenodd;clip-rule:evenodd;stroke-linejoin:round;stroke-miterlimit:2;">
    <g>
        <g>
            <g id="Lucchetto">
                <path d="M936.6,840.9L936.6,641.4L887,643.6L887,655.8L899.2,677.1L887,676.7L887,688.1L889.8,693L887,709.5L887,728.6L889.8,731.7L893.5,746.9L893.5,758.4L887,759.8L887,784.3L895,794.9L894.5,804L887,803L887,812.1C867.6,810.2 854.2,822.2 854.2,845.1C854.2,876.9 880,917.6 911.8,936C943.6,954.4 969.4,943.5 969.4,911.7C969.4,888.8 956,861.3 936.6,840.9ZM911.8,923.5C906.2,920.2 901.6,913 901.6,907.4C901.6,901.8 906.2,899.8 911.8,903.1C917.4,906.4 922,913.6 922,919.2C922.1,924.8 917.5,926.8 911.8,923.5Z" style="fill:rgb(170,176,175);fill-rule:nonzero;"/>
                <path id="XMLID_00000041260354766346321430000011552573490927111832_" d="M1076.9,765.6L1076.9,456.1L778.9,352.9L778.9,662.4C778.9,672.4 783.9,682.5 793.8,688.2L972.6,791.4C1000.3,807.4 1034.3,807.4 1062,791.4C1071.9,785.6 1076.9,775.6 1076.9,765.6Z" style="fill:rgb(255,166,0);fill-rule:nonzero;"/>
                <path d="M793.8,327.1C773.9,338.6 773.9,367.2 793.8,378.7L972.6,481.9C1000.3,497.9 1034.3,497.9 1062,481.9C1081.8,470.4 1081.8,441.8 1062,430.4L883.2,327.2C855.5,311.1 821.4,311.1 793.8,327.1Z" style="fill:rgb(242,142,0);fill-rule:nonzero;"/>
                <path id="XMLID_00000182502421585608451480000015811282536406334387_" d="M937.4,181.7C912.8,167.5 883.4,167.5 858.8,181.7C834.2,195.9 819.5,221.4 819.5,249.8L819.5,352.9C819.5,359.6 827.9,364.8 838.5,364.8C849.2,364.8 857.5,359.6 857.5,352.9L857.5,249.8C857.5,235.1 865.1,222 877.8,214.7C890.5,207.4 905.7,207.4 918.4,214.7C967.7,243.1 998.3,296.1 998.3,353L998.3,456.1C998.3,462.8 1006.7,468 1017.3,468C1027.9,468 1036.3,462.8 1036.3,456.1L1036.3,353C1036.3,282.5 998.4,216.9 937.4,181.7Z" style="fill:rgb(107,108,105);fill-rule:nonzero;"/>
            </g>
        </g>
    </g>
</svg>
