<?xml version="1.0" encoding="UTF-8" standalone="no"?>
<!DOCTYPE svg PUBLIC "-//W3C//DTD SVG 1.1//EN" "http://www.w3.org/Graphics/SVG/1.1/DTD/svg11.dtd">
<svg width="100%" height="100%" viewBox="0 0 1920 1080" version="1.1" xmlns="http://www.w3.org/2000/svg" xmlns:xlink="http://www.w3.org/1999/xlink" xml:space="preserve" xmlns:serif="http://www.serif.com/" style="fill-rule:evenodd;clip-rule:evenodd;stroke-linejoin:round;stroke-miterlimit:2;">
    <g>
        <g>
            <g id="Ex-1_00000136388759817132876690000017206323990284555919_">
                <g>
                    <g>
                        <path d="M526.5,712.1C523.7,710.5 519.1,710.5 516.3,712.1C513.5,713.7 513.5,716.3 516.3,718C519.1,719.6 523.7,719.6 526.5,718C529.4,716.4 529.3,713.7 526.5,712.1" style="fill:rgb(246,164,22);fill-rule:nonzero;"/>
                        <path d="M555.3,695.5C552.5,693.9 547.9,693.9 545.1,695.5C542.3,697.1 542.3,699.7 545.1,701.4C547.9,703 552.5,703 555.3,701.4C558.1,699.8 558.1,697.2 555.3,695.5" style="fill:rgb(246,165,24);fill-rule:nonzero;"/>
                        <path d="M584,679C581.2,677.4 576.6,677.4 573.8,679C571,680.6 571,683.2 573.8,684.9C576.6,686.5 581.2,686.5 584,684.9C586.8,683.2 586.8,680.6 584,679" style="fill:rgb(246,166,27);fill-rule:nonzero;"/>
                        <path d="M612.7,662.4C609.9,660.8 605.3,660.8 602.5,662.4C599.7,664 599.7,666.6 602.5,668.3C605.3,669.9 609.9,669.9 612.7,668.3C615.5,666.6 615.5,664 612.7,662.4" style="fill:rgb(247,167,29);fill-rule:nonzero;"/>
                        <path d="M641.4,645.8C638.6,644.2 634,644.2 631.2,645.8C628.4,647.4 628.4,650 631.2,651.7C634,653.3 638.6,653.3 641.4,651.7C644.2,650 644.2,647.4 641.4,645.8" style="fill:rgb(247,168,31);fill-rule:nonzero;"/>
                        <path d="M670.1,629.2C667.3,627.6 662.7,627.6 659.9,629.2C657.1,630.8 657.1,633.4 659.9,635.1C662.7,636.7 667.3,636.7 670.1,635.1C673,633.5 673,630.8 670.1,629.2" style="fill:rgb(247,169,33);fill-rule:nonzero;"/>
                        <path d="M698.9,612.6C696.1,611 691.5,611 688.7,612.6C685.9,614.2 685.9,616.8 688.7,618.5C691.5,620.1 696.1,620.1 698.9,618.5C701.7,616.9 701.7,614.2 698.9,612.6" style="fill:rgb(247,170,36);fill-rule:nonzero;"/>
                        <path d="M727.6,596C724.8,594.4 720.2,594.4 717.4,596C714.6,597.6 714.6,600.2 717.4,601.9C720.2,603.5 724.8,603.5 727.6,601.9C730.4,600.3 730.4,597.7 727.6,596" style="fill:rgb(247,171,38);fill-rule:nonzero;"/>
                        <path d="M756.3,579.5C753.5,577.9 748.9,577.9 746.1,579.5C743.3,581.1 743.3,583.7 746.1,585.4C748.9,587 753.5,587 756.3,585.4C759.1,583.7 759.1,581.1 756.3,579.5" style="fill:rgb(247,172,40);fill-rule:nonzero;"/>
                        <path d="M785,562.9C782.2,561.3 777.6,561.3 774.8,562.9C772,564.5 772,567.1 774.8,568.8C777.6,570.4 782.2,570.4 785,568.8C787.9,567.1 787.8,564.5 785,562.9" style="fill:rgb(247,173,42);fill-rule:nonzero;"/>
                        <path d="M813.8,546.3C811,544.7 806.4,544.7 803.6,546.3C800.8,547.9 800.8,550.5 803.6,552.2C806.4,553.8 811,553.8 813.8,552.2C816.6,550.5 816.6,547.9 813.8,546.3" style="fill:rgb(248,174,44);fill-rule:nonzero;"/>
                        <path d="M842.5,529.7C839.7,528.1 835.1,528.1 832.3,529.7C829.5,531.3 829.5,533.9 832.3,535.6C835.1,537.2 839.7,537.2 842.5,535.6C845.3,534 845.3,531.3 842.5,529.7" style="fill:rgb(248,175,47);fill-rule:nonzero;"/>
                        <path d="M871.2,513.1C868.4,511.5 863.8,511.5 861,513.1C858.2,514.7 858.2,517.3 861,519C863.8,520.6 868.4,520.6 871.2,519C874,517.4 874,514.8 871.2,513.1" style="fill:rgb(248,176,49);fill-rule:nonzero;"/>
                        <path id="XMLID_00000076587202643029217260000008621048089215559332_" d="M899.9,496.6C897.1,495 892.5,495 889.7,496.6C886.9,498.2 886.9,500.8 889.7,502.5C892.5,504.1 897.1,504.1 899.9,502.5C902.8,500.8 902.7,498.2 899.9,496.6" style="fill:rgb(248,177,51);fill-rule:nonzero;"/>
                        <path d="M928.6,513.1C925.8,511.5 921.2,511.5 918.4,513.1C915.6,514.7 915.6,517.3 918.4,519C921.2,520.6 925.8,520.6 928.6,519C931.5,517.4 931.5,514.8 928.6,513.1" style="fill:rgb(248,175,47);fill-rule:nonzero;"/>
                        <path d="M957.4,529.7C954.6,528.1 950,528.1 947.2,529.7C944.4,531.3 944.4,533.9 947.2,535.6C950,537.2 954.6,537.2 957.4,535.6C960.2,534 960.2,531.3 957.4,529.7" style="fill:rgb(247,172,44);fill-rule:nonzero;"/>
                        <path d="M986.1,546.3C983.3,544.7 978.7,544.7 975.9,546.3C973.1,547.9 973.1,550.5 975.9,552.2C978.7,553.8 983.3,553.8 986.1,552.2C988.9,550.5 988.9,547.9 986.1,546.3" style="fill:rgb(247,170,40);fill-rule:nonzero;"/>
                        <path d="M1014.8,562.9C1012,561.3 1007.4,561.3 1004.6,562.9C1001.8,564.5 1001.8,567.1 1004.6,568.8C1007.4,570.4 1012,570.4 1014.8,568.8C1017.6,567.1 1017.6,564.5 1014.8,562.9" style="fill:rgb(246,168,36);fill-rule:nonzero;"/>
                        <path d="M1043.5,579.5C1040.7,577.9 1036.1,577.9 1033.3,579.5C1030.5,581.1 1030.5,583.7 1033.3,585.4C1036.1,587 1040.7,587 1043.5,585.4C1046.4,583.7 1046.4,581.1 1043.5,579.5" style="fill:rgb(246,166,33);fill-rule:nonzero;"/>
                        <path d="M1072.3,596C1069.5,594.4 1064.9,594.4 1062.1,596C1059.3,597.6 1059.3,600.2 1062.1,601.9C1064.9,603.6 1069.5,603.5 1072.3,601.9C1075.1,600.3 1075.1,597.7 1072.3,596" style="fill:rgb(245,163,29);fill-rule:nonzero;"/>
                        <path d="M1101,612.6C1098.2,611 1093.6,611 1090.8,612.6C1088,614.2 1088,616.8 1090.8,618.5C1093.6,620.1 1098.2,620.1 1101,618.5C1103.8,616.9 1103.8,614.2 1101,612.6" style="fill:rgb(245,161,26);fill-rule:nonzero;"/>
                        <path d="M1129.7,629.2C1126.9,627.6 1122.3,627.6 1119.5,629.2C1116.7,630.8 1116.7,633.4 1119.5,635.1C1122.3,636.7 1126.9,636.7 1129.7,635.1C1132.5,633.5 1132.5,630.8 1129.7,629.2" style="fill:rgb(245,159,22);fill-rule:nonzero;"/>
                        <path d="M1158.4,645.8C1155.6,644.2 1151,644.2 1148.2,645.8C1145.4,647.4 1145.4,650 1148.2,651.7C1151,653.4 1155.6,653.3 1158.4,651.7C1161.3,650 1161.2,647.4 1158.4,645.8" style="fill:rgb(244,156,18);fill-rule:nonzero;"/>
                        <path d="M1187.1,662.4C1184.3,660.8 1179.7,660.8 1176.9,662.4C1174.1,664 1174.1,666.6 1176.9,668.3C1179.7,669.9 1184.3,669.9 1187.1,668.3C1190,666.6 1190,664 1187.1,662.4" style="fill:rgb(244,154,15);fill-rule:nonzero;"/>
                        <path d="M1215.9,679C1213.1,677.4 1208.5,677.4 1205.7,679C1202.9,680.6 1202.9,683.2 1205.7,684.9C1208.5,686.5 1213.1,686.5 1215.9,684.9C1218.7,683.2 1218.7,680.6 1215.9,679" style="fill:rgb(243,152,11);fill-rule:nonzero;"/>
                        <path d="M1244.6,695.5C1241.8,693.9 1237.2,693.9 1234.4,695.5C1231.6,697.1 1231.6,699.7 1234.4,701.4C1237.2,703 1241.8,703 1244.6,701.4C1247.4,699.8 1247.4,697.2 1244.6,695.5" style="fill:rgb(243,150,7);fill-rule:nonzero;"/>
                        <path d="M1273.3,712.1C1270.5,710.5 1265.9,710.5 1263.1,712.1C1260.3,713.7 1260.3,716.3 1263.1,718C1265.9,719.6 1270.5,719.6 1273.3,718C1276.1,716.4 1276.1,713.7 1273.3,712.1" style="fill:rgb(242,147,4);fill-rule:nonzero;"/>
                        <path id="XMLID_00000018939499781073561720000007428227565300836783_" d="M1302,728.7C1299.2,727.1 1294.6,727.1 1291.8,728.7C1289,730.3 1289,732.9 1291.8,734.6C1294.6,736.2 1299.2,736.2 1302,734.6C1304.9,733 1304.9,730.3 1302,728.7" style="fill:rgb(242,145,0);fill-rule:nonzero;"/>
                        <path d="M1273.3,745.3C1270.5,743.7 1265.9,743.7 1263.1,745.3C1260.3,746.9 1260.3,749.5 1263.1,751.2C1265.9,752.8 1270.5,752.8 1273.3,751.2C1276.1,749.5 1276.1,746.9 1273.3,745.3" style="fill:rgb(242,147,4);fill-rule:nonzero;"/>
                        <path d="M1244.6,761.9C1241.8,760.3 1237.2,760.3 1234.4,761.9C1231.6,763.5 1231.6,766.1 1234.4,767.8C1237.2,769.4 1241.8,769.4 1244.6,767.8C1247.4,766.1 1247.4,763.5 1244.6,761.9" style="fill:rgb(243,150,7);fill-rule:nonzero;"/>
                        <path d="M1215.9,778.5C1213.1,776.9 1208.5,776.9 1205.7,778.5C1202.9,780.1 1202.9,782.7 1205.7,784.4C1208.5,786.1 1213.1,786 1215.9,784.4C1218.7,782.7 1218.7,780.1 1215.9,778.5" style="fill:rgb(243,152,11);fill-rule:nonzero;"/>
                        <path d="M1187.1,795C1184.3,793.4 1179.7,793.4 1176.9,795C1174.1,796.6 1174.1,799.2 1176.9,800.9C1179.7,802.5 1184.3,802.5 1187.1,800.9C1190,799.3 1190,796.7 1187.1,795" style="fill:rgb(244,154,15);fill-rule:nonzero;"/>
                        <path d="M1158.4,811.6C1155.6,810 1151,810 1148.2,811.6C1145.4,813.2 1145.4,815.8 1148.2,817.5C1151,819.1 1155.6,819.1 1158.4,817.5C1161.3,815.9 1161.2,813.2 1158.4,811.6" style="fill:rgb(244,156,18);fill-rule:nonzero;"/>
                        <path d="M1129.7,828.2C1126.9,826.6 1122.3,826.6 1119.5,828.2C1116.7,829.8 1116.7,832.4 1119.5,834.1C1122.3,835.7 1126.9,835.7 1129.7,834.1C1132.5,832.5 1132.5,829.8 1129.7,828.2" style="fill:rgb(245,159,22);fill-rule:nonzero;"/>
                        <path d="M1101,844.8C1098.2,843.2 1093.6,843.2 1090.8,844.8C1088,846.4 1088,849 1090.8,850.7C1093.6,852.3 1098.2,852.3 1101,850.7C1103.8,849 1103.8,846.4 1101,844.8" style="fill:rgb(245,161,26);fill-rule:nonzero;"/>
                        <path d="M1072.3,861.4C1069.5,859.8 1064.9,859.8 1062.1,861.4C1059.3,863 1059.3,865.6 1062.1,867.3C1064.9,868.9 1069.5,868.9 1072.3,867.3C1075.1,865.6 1075.1,863 1072.3,861.4" style="fill:rgb(245,163,29);fill-rule:nonzero;"/>
                        <path d="M1043.5,878C1040.7,876.4 1036.1,876.4 1033.3,878C1030.5,879.6 1030.5,882.2 1033.3,883.9C1036.1,885.5 1040.7,885.5 1043.5,883.9C1046.4,882.2 1046.4,879.6 1043.5,878" style="fill:rgb(246,166,33);fill-rule:nonzero;"/>
                        <path d="M1014.8,894.5C1012,892.9 1007.4,892.9 1004.6,894.5C1001.8,896.1 1001.8,898.7 1004.6,900.4C1007.4,902 1012,902 1014.8,900.4C1017.6,898.8 1017.6,896.2 1014.8,894.5" style="fill:rgb(246,168,36);fill-rule:nonzero;"/>
                        <path d="M986.1,911.1C983.3,909.5 978.7,909.5 975.9,911.1C973.1,912.7 973.1,915.3 975.9,917C978.7,918.6 983.3,918.6 986.1,917C988.9,915.4 988.9,912.7 986.1,911.1" style="fill:rgb(247,170,40);fill-rule:nonzero;"/>
                        <path d="M957.4,927.7C954.6,926.1 950,926.1 947.2,927.7C944.4,929.3 944.4,931.9 947.2,933.6C950,935.2 954.6,935.2 957.4,933.6C960.2,931.9 960.2,929.3 957.4,927.7" style="fill:rgb(247,172,44);fill-rule:nonzero;"/>
                        <path d="M928.6,944.3C925.8,942.7 921.2,942.7 918.4,944.3C915.6,945.9 915.6,948.5 918.4,950.2C921.2,951.8 925.8,951.8 928.6,950.2C931.5,948.5 931.5,945.9 928.6,944.3" style="fill:rgb(248,175,47);fill-rule:nonzero;"/>
                        <path id="XMLID_00000044140035741646785690000018423880840337679532_" d="M899.9,960.9C897.1,959.3 892.5,959.3 889.7,960.9C886.9,962.5 886.9,965.1 889.7,966.8C892.5,968.4 897.1,968.4 899.9,966.8C902.8,965.1 902.7,962.5 899.9,960.9" style="fill:rgb(248,177,51);fill-rule:nonzero;"/>
                        <path d="M871.2,944.3C868.4,942.7 863.8,942.7 861,944.3C858.2,945.9 858.2,948.5 861,950.2C863.8,951.8 868.4,951.8 871.2,950.2C874,948.5 874,945.9 871.2,944.3" style="fill:rgb(248,176,49);fill-rule:nonzero;"/>
                        <path d="M842.5,927.7C839.7,926.1 835.1,926.1 832.3,927.7C829.5,929.3 829.5,931.9 832.3,933.6C835.1,935.2 839.7,935.2 842.5,933.6C845.3,931.9 845.3,929.3 842.5,927.7" style="fill:rgb(248,175,47);fill-rule:nonzero;"/>
                        <path d="M813.8,911.1C811,909.5 806.4,909.5 803.6,911.1C800.8,912.7 800.8,915.3 803.6,917C806.4,918.6 811,918.6 813.8,917C816.6,915.4 816.6,912.7 813.8,911.1" style="fill:rgb(248,174,44);fill-rule:nonzero;"/>
                        <path d="M785,894.5C782.2,892.9 777.6,892.9 774.8,894.5C772,896.1 772,898.7 774.8,900.4C777.6,902 782.2,902 785,900.4C787.9,898.8 787.8,896.2 785,894.5" style="fill:rgb(247,173,42);fill-rule:nonzero;"/>
                        <path d="M756.3,878C753.5,876.4 748.9,876.4 746.1,878C743.3,879.6 743.3,882.2 746.1,883.9C748.9,885.6 753.5,885.5 756.3,883.9C759.1,882.2 759.1,879.6 756.3,878" style="fill:rgb(247,172,40);fill-rule:nonzero;"/>
                        <path d="M727.6,861.4C724.8,859.8 720.2,859.8 717.4,861.4C714.6,863 714.6,865.6 717.4,867.3C720.2,868.9 724.8,868.9 727.6,867.3C730.4,865.6 730.4,863 727.6,861.4" style="fill:rgb(247,171,38);fill-rule:nonzero;"/>
                        <path d="M698.9,844.8C696.1,843.2 691.5,843.2 688.7,844.8C685.9,846.4 685.9,849 688.7,850.7C691.5,852.4 696.1,852.3 698.9,850.7C701.7,849 701.7,846.4 698.9,844.8" style="fill:rgb(247,170,36);fill-rule:nonzero;"/>
                        <path d="M670.1,828.2C667.3,826.6 662.7,826.6 659.9,828.2C657.1,829.8 657.1,832.4 659.9,834.1C662.7,835.7 667.3,835.7 670.1,834.1C673,832.5 673,829.8 670.1,828.2" style="fill:rgb(247,169,33);fill-rule:nonzero;"/>
                        <path d="M641.4,811.6C638.6,810 634,810 631.2,811.6C628.4,813.2 628.4,815.8 631.2,817.5C634,819.1 638.6,819.1 641.4,817.5C644.2,815.9 644.2,813.2 641.4,811.6" style="fill:rgb(247,168,31);fill-rule:nonzero;"/>
                        <path d="M612.7,795C609.9,793.4 605.3,793.4 602.5,795C599.7,796.6 599.7,799.2 602.5,800.9C605.3,802.5 609.9,802.5 612.7,800.9C615.5,799.3 615.5,796.7 612.7,795" style="fill:rgb(247,167,29);fill-rule:nonzero;"/>
                        <path d="M584,778.5C581.2,776.9 576.6,776.9 573.8,778.5C571,780.1 571,782.7 573.8,784.4C576.6,786 581.2,786 584,784.4C586.8,782.7 586.8,780.1 584,778.5" style="fill:rgb(246,166,27);fill-rule:nonzero;"/>
                        <path d="M555.3,761.9C552.5,760.3 547.9,760.3 545.1,761.9C542.3,763.5 542.3,766.1 545.1,767.8C547.9,769.4 552.5,769.4 555.3,767.8C558.1,766.1 558.1,763.5 555.3,761.9" style="fill:rgb(246,165,24);fill-rule:nonzero;"/>
                        <path d="M526.5,745.3C523.7,743.7 519.1,743.7 516.3,745.3C513.5,746.9 513.5,749.5 516.3,751.2C519.1,752.8 523.7,752.8 526.5,751.2C529.4,749.5 529.3,746.9 526.5,745.3" style="fill:rgb(246,164,22);fill-rule:nonzero;"/>
                        <path id="XMLID_00000107557770468181093490000012320767929851191202_" d="M497.8,728.7C495,727.1 490.4,727.1 487.6,728.7C484.8,730.3 484.8,732.9 487.6,734.6C490.4,736.2 495,736.2 497.8,734.6C500.6,733 500.6,730.3 497.8,728.7" style="fill:rgb(246,163,20);fill-rule:nonzero;"/>
                    </g>
                    <g>
                        <path id="XMLID_00000088097372827508979480000011684932234362070439_" d="M894.8,673.6L708.1,781.4L894.8,889.2L1081.5,781.4L894.8,673.6Z" style="fill:rgb(87,87,86);fill-rule:nonzero;"/>
                        <path id="XMLID_00000168799792553225157340000012382617776400628377_" d="M708.1,516.1L708.1,731.6L894.8,839.4L894.8,623.9L708.1,516.1Z" style="fill:rgb(28,28,28);fill-rule:nonzero;"/>
                        <path id="XMLID_00000037682100013689662380000012662461159337763985_" d="M894.8,839.4L1081.5,731.6L1081.5,516.1L894.8,623.9L894.8,839.4Z" style="fill:rgb(51,51,51);fill-rule:nonzero;"/>
                        <path id="XMLID_00000080183836550906387170000018393709351899185569_" d="M708.1,565.8L708.1,570L894.8,677.7L1081.5,570L1081.5,565.8L894.8,673.6L708.1,565.8Z" style="fill:rgb(255,166,0);fill-rule:nonzero;"/>
                        <path id="XMLID_00000140719160391233708950000002574252858692372390_" d="M708.1,621.8L708.1,625.9L894.8,733.7L1081.5,625.9L1081.5,621.8L894.8,729.6L708.1,621.8Z" style="fill:rgb(255,166,0);fill-rule:nonzero;"/>
                        <path id="XMLID_00000169526884817676261340000015298898907448339602_" d="M708.1,677.7L708.1,681.9L894.8,789.7L1081.5,681.9L1081.5,677.7L894.8,785.5L708.1,677.7Z" style="fill:rgb(255,166,0);fill-rule:nonzero;"/>
                        <path id="XMLID_00000041277453456645327690000016139881308435563951_" d="M894.8,408.3L708.1,516.1L894.8,623.9L1081.5,516.1L894.8,408.3ZM894.8,615.6L722.5,516.1L894.8,416.6L1067.1,516.1L894.8,615.6Z" style="fill:rgb(87,87,87);fill-rule:nonzero;"/>
                        <path id="XMLID_00000015338952360552020390000013159611844709659065_" d="M894.8,615.6L722.5,516.1L894.8,416.6L894.8,615.6Z" style="fill:rgb(61,61,61);fill-rule:nonzero;"/>
                        <path id="XMLID_00000106131107419147712360000018330480071556297609_" d="M894.8,615.6L1067.2,516.1L894.8,416.6L894.8,615.6Z" style="fill:rgb(40,40,40);fill-rule:nonzero;"/>
                        <path id="XMLID_00000176032819373300889770000007511192452282656422_" d="M1067.2,516.1L894.8,615.6L722.5,516.1L722.5,240.2L1067.2,240.2L1067.2,516.1Z" style="fill:url(#_Linear1);fill-rule:nonzero;"/>
                        <g id="XMLID_00000135690698416929507200000005977797810221605053_">
                            <g id="XMLID_00000069355491818726115460000008324015713103697853_">
                                <g id="XMLID_00000061432423894384893630000005727648994464148888_" opacity="0.25">
                                    <path id="XMLID_00000149378685401902578090000004715729874489383556_" d="M597.6,720.7C587,714.6 570,714.6 559.5,720.7C549,726.8 549.1,736.6 559.6,742.7C570.2,748.8 587.2,748.8 597.7,742.7C608.2,736.6 608.2,726.7 597.6,720.7" style="fill:rgb(246,163,20);fill-rule:nonzero;"/>
                                </g>
                                <path id="XMLID_00000070841326473891003320000014628812045629795001_" d="M578.6,706.6L535.3,731.6L578.6,756.6L622,731.6L578.6,706.6Z" style="fill:none;fill-rule:nonzero;"/>
                            </g>
                            <g id="XMLID_00000134967427626095442990000002691526681953842311_">
                                <g id="XMLID_00000057837460171957622410000014325059389995141298_" opacity="0.5">
                                    <path id="XMLID_00000095307630262263864010000010812614336516974232_" d="M591.3,724.3C584.3,720.3 572.9,720.3 565.9,724.3C558.9,728.3 559,734.9 566,738.9C573,742.9 584.4,742.9 591.4,738.9C598.4,734.9 598.3,728.4 591.3,724.3" style="fill:rgb(246,163,20);fill-rule:nonzero;"/>
                                </g>
                                <path id="XMLID_00000099626730038455569560000012384474943169806253_" d="M578.6,714.3L548.7,731.6L578.6,749L608.6,731.6L578.6,714.3Z" style="fill:none;fill-rule:nonzero;"/>
                            </g>
                            <g id="XMLID_00000142896758614269447910000011227789219220083843_">
                                <g id="XMLID_00000093154901446348747930000002168210473673119624_">
                                    <path id="XMLID_00000093894738256692492730000003335154046316453253_" d="M585.7,727.6C581.8,725.3 575.5,725.3 571.6,727.6C567.7,729.8 567.7,733.5 571.7,735.7C575.6,738 581.9,738 585.8,735.7C589.6,733.5 589.6,729.8 585.7,727.6" style="fill:white;fill-rule:nonzero;"/>
                                </g>
                                <path id="XMLID_00000002343932204341037550000017810109054030333584_" d="M578.6,722L562,731.6L578.6,741.3L595.3,731.6L578.6,722Z" style="fill:none;fill-rule:nonzero;"/>
                            </g>
                            <path id="XMLID_00000084515399849776898890000007232485362546864525_" d="M588.6,557.5L568.6,557.5L568.6,731.6C568.6,733.1 569.6,734.5 571.6,735.7C575.5,738 581.8,738 585.7,735.7C587.6,734.6 588.6,733.1 588.6,731.6L588.6,557.5Z" style="fill:url(#_Linear2);fill-rule:nonzero;"/>
                        </g>
                        <g id="XMLID_00000183969661771250272110000008974384950592461726_">
                            <g id="XMLID_00000124127623426681415450000007544023599366370455_">
                                <g id="XMLID_00000067204889707820981020000003476490851005798552_" opacity="0.25">
                                    <path id="XMLID_00000062180005291718891200000000275470170005287062_" d="M1229.5,720.7C1218.9,714.6 1201.9,714.6 1191.4,720.7C1180.9,726.8 1181,736.6 1191.5,742.7C1202,748.8 1219.1,748.8 1229.6,742.7C1240.1,736.6 1240.1,726.7 1229.5,720.7" style="fill:rgb(246,163,20);fill-rule:nonzero;"/>
                                </g>
                                <path id="XMLID_00000177467940471541829540000015686342108678340798_" d="M1210.5,706.6L1167.2,731.6L1210.5,756.6L1253.9,731.6L1210.5,706.6Z" style="fill:none;fill-rule:nonzero;"/>
                            </g>
                            <g id="XMLID_00000132065766391953009910000004749379610063279254_">
                                <g id="XMLID_00000021807885892528316330000014540780106558914950_" opacity="0.5">
                                    <path id="XMLID_00000025418826050911528380000016444213704534469297_" d="M1223.2,724.3C1216.2,720.3 1204.8,720.3 1197.8,724.3C1190.8,728.3 1190.9,734.9 1197.9,738.9C1204.9,742.9 1216.3,742.9 1223.3,738.9C1230.3,734.9 1230.2,728.4 1223.2,724.3" style="fill:rgb(246,163,20);fill-rule:nonzero;"/>
                                </g>
                                <path id="XMLID_00000147911138013187107190000008768928319263964832_" d="M1210.5,714.3L1180.6,731.6L1210.5,749L1240.5,731.6L1210.5,714.3Z" style="fill:none;fill-rule:nonzero;"/>
                            </g>
                            <g id="XMLID_00000116945332098502548420000002522811046540589724_">
                                <g id="XMLID_00000053545981577866183680000006514340704219964558_">
                                    <path id="XMLID_00000005967184754676139980000016878842213354893753_" d="M1217.6,727.6C1213.7,725.3 1207.4,725.3 1203.5,727.6C1199.6,729.8 1199.6,733.5 1203.6,735.7C1207.5,738 1213.8,738 1217.7,735.7C1221.5,733.5 1221.5,729.8 1217.6,727.6" style="fill:white;fill-rule:nonzero;"/>
                                </g>
                                <path id="XMLID_00000006677825163089170930000018438201236621038758_" d="M1210.5,722L1193.9,731.6L1210.5,741.3L1227.2,731.6L1210.5,722Z" style="fill:none;fill-rule:nonzero;"/>
                            </g>
                            <path id="XMLID_00000084496167531184936330000005687054518282508944_" d="M1220.5,557.5L1200.5,557.5L1200.5,731.6C1200.5,733.1 1201.5,734.5 1203.5,735.7C1207.4,738 1213.7,738 1217.6,735.7C1219.5,734.6 1220.5,733.1 1220.5,731.6L1220.5,557.5Z" style="fill:url(#_Linear3);fill-rule:nonzero;"/>
                        </g>
                    </g>
                </g>
            </g>
            <g id="Logo">
                <path d="M936.3,509.2C935.2,509.5 934.1,510 933,510L928.8,510C925.1,509.4 921.5,508.6 917.8,507.8C914.3,507.1 910.8,506.4 907.2,505.7C903.7,505 900.3,504.2 896.8,503.6C892.9,502.8 889.1,502 885.2,501.3C881.9,500.7 878.6,499.8 875.2,499.2C870.9,498.5 866.8,497.4 862.5,496.6C859.2,496 855.8,495.2 852.5,494.5C848.5,493.6 844.5,492.8 840.5,492C837.3,491.3 834.1,490.6 830.9,490.1C826.3,489.3 821.7,488.1 817.1,487.4C814.6,487 812.1,486.3 809.5,485.7C805.8,484.9 802.2,484.3 798.5,483.5C796.6,483.1 794.6,482.8 792.7,482.3C790,481.5 787.2,481.4 784.5,480.6C780.9,479.6 777.4,478.2 774.7,475.4C772.7,473.4 771.5,470.7 770,468.3C766.9,463.4 763.9,458.4 760.9,453.4C756.6,446.2 752.2,439 747.9,431.7C745,427 742.1,422.3 739.3,417.5C735,410.3 730.6,403.1 726.3,395.9C725.5,394.6 724.8,393.3 724,392C723.3,391 723.2,389.9 723.2,388.7L723.2,339.9C723.2,339.4 723.2,338.9 723.1,338.4L723.1,320.5C725.7,323.9 727.7,327.5 729.9,331C736.8,342.3 743.6,353.6 750.5,364.9C758,377.3 765.4,389.7 773,402.1C774.2,404 775.8,405.5 777.8,406.5C781.1,408.1 784.5,409.3 788.2,410C795,411.2 801.8,412.7 808.5,414.1C814,415.2 819.6,416.4 825.1,417.5C833.5,419.2 842,420.9 850.4,422.7C858.8,424.4 867.3,426.1 875.7,427.9C883.7,429.5 891.7,431.3 899.8,432.9C907.7,434.5 915.5,436.1 923.3,437.7C927.1,438.5 930.9,439.3 934.9,438.5C936.1,438.3 935.9,439.1 935.9,439.8L935.9,507.8C935.7,508.3 935.4,509 936.3,509.2Z" style="fill:rgb(242,142,0);fill-rule:nonzero;"/>
                <path d="M777.1,318.3C777.1,309.7 777.1,301.1 777,292.5C777,290.9 777.2,289.2 776.8,287.5C776.6,286.9 776.8,285.9 777.2,285.3C781.4,288.2 785.6,290.9 789.8,293.9C794.4,297.2 799.2,300.2 803.7,303.5C807.5,306.3 811.7,308.7 815.6,311.5C819.7,314.5 824.1,317.3 828.3,320.1C832.7,323.1 837.1,326.2 841.5,329.2C844.5,331.3 847.5,333.4 850.5,335.4C854.2,337.8 857.7,340.5 861.5,342.8C863.8,344.3 866,346 868.3,347.5C872.8,350.6 877.5,353.2 882.5,355.4C888.8,358.2 895,361.4 901.2,364.5C907.2,367.5 913.2,370.4 919.2,373.3C925.9,376.5 932.5,379.8 939.2,383C945.1,385.8 950.9,388.8 956.9,391.6C960.6,393.3 964.2,395.3 968,397C970.7,398.2 973.3,399.6 976,400.9C979.9,402.7 983.6,404.9 987.6,406.5C989.1,407.1 989.5,408 989.5,409.6C989.4,431.9 989.4,454.2 989.4,476.6C989.4,477.2 989.1,477.8 989.7,478.3C988.3,478.8 987.2,477.9 986.2,477.3C980.2,474.2 974,471.3 968,468.3C965.5,467 962.9,465.7 960.3,464.7C960.1,464.6 959.9,464.6 959.7,464.8C959.7,464 959.6,463.3 959.6,462.5L959.6,426.3C959.6,425.5 959.6,424.7 958.5,424.4C955,423.3 951.5,422.1 948,421.1C945.5,420.4 943,419.4 940.4,418.8C937.2,418 934.1,416.7 930.9,415.7C927.4,414.6 923.8,413.5 920.3,412.4C916.6,411.2 912.8,409.9 909.1,408.9C905,407.8 900.9,406.3 896.8,405.1C892.7,403.8 888.6,402.5 884.5,401.2C880.9,400.1 877.4,398.9 873.8,397.8C869.4,396.4 865,395 860.6,393.7C854.9,391.9 849.1,390.1 843.4,388.3C840.2,387.3 837,386.3 833.8,385.4C830.5,384.5 827.3,383.2 824.3,381.7C820.5,379.8 817.2,376.9 814.3,373.7C808.2,367.1 802.1,360.6 796,354.1C790.2,348 784.5,341.8 778.7,335.7C777.5,334.5 776.9,333.4 777,331.5C777.3,327.2 776.8,322.8 777.3,318.5C777.4,318.6 777.5,318.1 777.1,318.3Z" style="fill:rgb(242,142,0);fill-rule:nonzero;"/>
                <path d="M830.6,285.2C831.5,285 831.1,284.3 831.1,283.9L831.1,255.6C831.1,255.1 830.9,254.6 831.4,254.2C831.9,254.6 832.5,254.7 833,254.9C837.8,256.4 842.7,257.9 847.5,259.4C853.9,261.4 860.2,263.3 866.6,265.3C871.8,266.9 876.9,268.6 882.1,270.2C887.8,272 893.6,273.7 899.3,275.5C904.3,277.1 909.3,278.8 914.3,280.3C919,281.7 923.6,283.2 928.3,284.6C932.7,285.9 937.1,287.5 941.6,288.8C947.9,290.7 954.3,292.6 960.6,294.8C966.3,296.7 971.3,299.9 975.4,304.4C981.9,311.3 988.4,318.2 994.8,325.1C1001.8,332.5 1008.8,339.9 1015.8,347.3C1024.7,356.7 1033.5,366 1042.4,375.4C1043.2,376.2 1043.6,377.1 1043.6,378.3C1043.6,382.2 1043.5,386 1043.5,389.9C1043.5,408.5 1043.5,427.1 1043.4,445.6C1043.4,446.2 1043.4,446.9 1043.1,447.5C1042.2,447.3 1041.7,446.5 1041.2,445.9C1040.1,444.6 1038.9,443.4 1037.7,442.2C1035.5,440 1033.5,437.6 1031.4,435.3C1029.4,433.2 1027.3,431.2 1025.4,429C1023.4,426.7 1021.1,424.6 1019.1,422.3C1017.6,420.6 1015.9,419.1 1014.3,417.5C1013.5,416.8 1013.7,415.8 1013.7,414.8C1013.7,408.3 1013.7,401.9 1013.8,395.4C1013.8,394.2 1013.4,393.5 1012.5,392.8C1010.3,391.3 1008.1,389.8 1005.9,388.3C997.4,382.4 988.7,376.7 980.2,370.8C972.6,365.5 964.9,360.3 957.2,355.1C953.9,352.9 950.6,350.7 947.4,348.5C943.5,345.8 939.6,343.1 935.7,340.4C932.8,338.4 929.8,336.5 926.9,334.5C924,332.6 921.2,330.6 918.4,328.6C914.4,325.9 909.9,324.2 905.6,322C899.5,318.9 893.2,316 887.1,313C881.4,310.2 875.7,307.5 870,304.7C864.8,302.2 859.5,299.9 854.4,297.2C849.5,294.6 844.4,292.3 839.4,289.9C836.4,288.1 833.5,286.7 830.6,285.2Z" style="fill:rgb(242,142,0);fill-rule:nonzero;"/>
                <path d="M777.1,318.3C777.6,318.1 777.5,318.5 777.5,318.7C777,323 777.6,327.4 777.2,331.7C777.1,333.5 777.7,334.7 778.9,335.9C784.7,342 790.5,348.2 796.2,354.3C802.3,360.8 808.4,367.3 814.5,373.9C817.4,377.1 820.7,379.9 824.5,381.9C827.5,383.4 830.7,384.7 834,385.6C837.2,386.5 840.4,387.5 843.6,388.5C849.3,390.3 855.1,392.1 860.8,393.9C865.2,395.3 869.6,396.7 874,398C877.6,399.1 881.2,400.2 884.7,401.4C888.8,402.7 892.9,404.1 897,405.3C901.1,406.6 905.1,408 909.3,409.1C913.1,410.1 916.8,411.5 920.5,412.6C924,413.7 927.6,414.8 931.1,415.9C934.3,416.9 937.4,418.2 940.6,419C943.2,419.6 945.6,420.6 948.2,421.3C951.7,422.3 955.2,423.5 958.7,424.6C959.7,424.9 959.8,425.7 959.8,426.5L959.8,462.7C959.8,463.5 959.8,464.2 959.9,465L959.9,494.8C959.9,495.7 959.5,496.3 958.8,496.7C954.1,499.5 949.4,502.3 944.6,505.1C942.2,506.5 939.7,507.8 937.2,509.2C937,509.3 936.8,509.2 936.6,509.3C935.8,509.1 936.1,508.4 936.1,507.9L936.1,439.9C936.1,439.2 936.3,438.4 935.1,438.6C931.2,439.4 927.4,438.6 923.5,437.8C915.7,436.2 907.8,434.6 900,433C892,431.4 883.9,429.7 875.9,428C867.5,426.3 859,424.6 850.6,422.8C842.2,421.1 833.7,419.4 825.3,417.6C819.8,416.5 814.2,415.3 808.7,414.2C801.9,412.8 795.2,411.3 788.4,410.1C784.7,409.4 781.3,408.2 778,406.6C776,405.6 774.4,404.1 773.2,402.2C765.7,389.8 758.2,377.4 750.7,365C743.9,353.7 737,342.4 730.1,331.1C728,327.6 725.9,324 723.3,320.6L723.3,338.5C723,338.1 723.2,337.7 723.2,337.3C723.2,331.5 723.2,325.7 723.1,319.9C723.1,317.4 724.2,315.6 726.1,314.3C728.9,312.5 731.9,311 734.8,309.3C738.5,307.1 742.4,305.4 745.9,302.8C747.2,301.9 747.6,302 748.4,303.4C748.9,304.2 749.7,304.5 750.3,305.2C753.9,309.1 757.5,312.9 761.1,316.8C765.9,321.9 770.8,327.1 775.6,332.2C776,332.6 776.3,333.3 776.9,333.1C777.4,332.9 777.1,332.2 777.1,331.7C777,327.2 777,322.8 777.1,318.3Z" style="fill:rgb(255,166,0);fill-rule:nonzero;"/>
                <path d="M1043.1,447.2C1043.3,446.6 1043.4,446 1043.4,445.3C1043.4,426.7 1043.4,408.1 1043.5,389.6C1043.5,385.7 1043.5,381.9 1043.6,378C1043.6,376.9 1043.3,376 1042.4,375.1C1033.5,365.8 1024.7,356.4 1015.8,347C1008.8,339.6 1001.8,332.2 994.8,324.8C988.3,317.9 981.8,311.1 975.4,304.1C971.3,299.7 966.3,296.5 960.6,294.5C954.3,292.4 948,290.5 941.6,288.5C937.2,287.2 932.8,285.6 928.3,284.3C923.6,282.9 919,281.4 914.3,280C909.3,278.5 904.3,276.8 899.3,275.2C893.6,273.4 887.8,271.7 882.1,269.9C876.9,268.3 871.8,266.6 866.6,265C860.3,263 853.9,261.1 847.5,259.1C842.7,257.6 837.8,256.1 833,254.6C832.4,254.4 831.8,254.3 831.4,253.9C834.9,251.3 838.7,249.5 842.4,247.3C845.6,245.4 848.9,243.7 852.1,241.8C855.1,240.1 858.3,239.8 861.7,240.1C864.9,240.4 868,241.5 871.1,242.1C875.9,242.9 880.8,243.8 885.6,244.9C888.1,245.5 890.6,246.1 893.1,246.5C897,247.1 900.9,248 904.8,248.7C910.8,249.8 916.9,251 922.9,252.4C929.1,253.8 935.4,254.8 941.7,256.2C948.2,257.6 954.7,258.7 961.1,260.2C967.8,261.7 974.6,262.8 981.3,264.3C983.8,264.8 986.3,265.2 988.7,265.9C991.7,266.8 994.8,266.7 997.8,267.7C1000.2,268.5 1002.8,268.5 1005.2,269.3C1010.1,270.8 1014.7,272.6 1017.5,277.3C1019.5,280.7 1021.6,284 1023.7,287.4C1027.4,293.4 1031.1,299.4 1034.8,305.3C1037.2,309.2 1039.4,313.1 1041.9,316.9C1045.8,322.9 1049.4,328.9 1053.2,335C1057.6,342.1 1062,349.2 1066.4,356.3C1067.3,357.8 1067.8,359.4 1067.8,361.2C1067.7,365.5 1067.8,369.9 1067.7,374.2C1067.3,392.7 1067.6,411.3 1067.5,429.8C1067.5,432.1 1066.5,433.8 1064.6,435C1059.7,437.9 1054.8,440.7 1049.9,443.6C1048.3,444.5 1046.7,445.5 1045.1,446.4C1044.4,446.9 1043.8,447.4 1043.1,447.2Z" style="fill:rgb(255,166,0);fill-rule:nonzero;"/>
                <path d="M830.6,285.2C833.5,286.7 836.4,288.1 839.3,289.6C844.3,292.1 849.3,294.4 854.3,296.9C859.4,299.5 864.7,301.9 869.9,304.4C875.6,307.1 881.3,309.9 887,312.7C893.2,315.7 899.4,318.6 905.5,321.7C909.8,323.9 914.3,325.5 918.3,328.3C921.1,330.3 924,332.3 926.8,334.2C929.7,336.2 932.7,338.1 935.6,340.1C939.5,342.8 943.4,345.5 947.3,348.2C950.6,350.4 953.9,352.6 957.1,354.8C964.8,360 972.5,365.2 980.1,370.5C988.6,376.4 997.3,382.1 1005.8,388C1008,389.5 1010.2,391 1012.4,392.5C1013.3,393.1 1013.8,393.9 1013.7,395.1C1013.6,401.6 1013.6,408 1013.6,414.5C1013.6,415.4 1013.4,416.4 1014.2,417.2C1013.6,417.5 1013.7,418.1 1013.7,418.5C1013.6,427 1013.7,435.4 1013.5,443.9C1013.4,446.1 1013.7,448.2 1013.6,450.3C1013.5,452.5 1013.6,454.7 1013.6,456.9C1013.6,459.1 1013.5,461.4 1013.6,463.6C1013.6,464.6 1013.2,465.1 1012.4,465.5C1009,467.4 1005.6,469.5 1002.2,471.4C997.9,473.7 994,476.5 989.6,478.5C989,478 989.3,477.4 989.3,476.8C989.3,454.5 989.3,432.2 989.4,409.8C989.4,408.2 989,407.3 987.5,406.7C983.5,405.1 979.8,402.9 975.9,401.1C973.2,399.9 970.6,398.4 967.9,397.2C964.1,395.5 960.5,393.5 956.8,391.8C950.9,389 945,386.1 939.1,383.2C932.4,380 925.8,376.7 919.1,373.5C913.1,370.6 907.1,367.7 901.1,364.7C894.9,361.6 888.7,358.5 882.4,355.6C877.4,353.4 872.7,350.7 868.2,347.7C865.9,346.1 863.8,344.4 861.4,343C857.6,340.7 854.1,338 850.4,335.6C847.3,333.6 844.4,331.4 841.4,329.4C837,326.3 832.6,323.3 828.2,320.3C824,317.4 819.6,314.7 815.5,311.7C811.6,308.9 807.5,306.5 803.6,303.7C799.1,300.3 794.3,297.4 789.7,294.1C785.6,291.1 781.3,288.4 777.1,285.5C777.8,284.5 778.9,284.1 779.9,283.5C785.5,280.3 791.1,277.1 796.6,273.9C797.9,273.1 799.4,272.4 800.7,271.6C801.2,271.3 801.6,271.5 802.1,271.7C804.7,272.8 807.2,274.2 809.7,275.4C815.8,278.3 821.8,281.2 827.9,284C828.9,284.3 829.7,285 830.6,285.2Z" style="fill:rgb(255,166,0);fill-rule:nonzero;"/>
            </g>
        </g>
    </g>
    <defs>
        <linearGradient id="_Linear1" x1="0" y1="0" x2="1" y2="0" gradientUnits="userSpaceOnUse" gradientTransform="matrix(2.29817e-14,-375.32,375.32,2.29817e-14,894.818,615.56)"><stop offset="0" style="stop-color:rgb(255,166,0);stop-opacity:0.8"/><stop offset="0" style="stop-color:rgb(255,166,0);stop-opacity:0.8"/><stop offset="1" style="stop-color:rgb(255,166,0);stop-opacity:0"/></linearGradient>
        <linearGradient id="_Linear2" x1="0" y1="0" x2="1" y2="0" gradientUnits="userSpaceOnUse" gradientTransform="matrix(1.10147e-14,-179.884,179.884,1.10147e-14,578.645,737.403)"><stop offset="0" style="stop-color:rgb(255,166,0);stop-opacity:0.8"/><stop offset="0" style="stop-color:rgb(255,166,0);stop-opacity:0.8"/><stop offset="1" style="stop-color:rgb(255,166,0);stop-opacity:0"/></linearGradient>
        <linearGradient id="_Linear3" x1="0" y1="0" x2="1" y2="0" gradientUnits="userSpaceOnUse" gradientTransform="matrix(1.10147e-14,-179.884,179.884,1.10147e-14,1210.54,737.403)"><stop offset="0" style="stop-color:rgb(255,166,0);stop-opacity:0.8"/><stop offset="0" style="stop-color:rgb(255,166,0);stop-opacity:0.8"/><stop offset="1" style="stop-color:rgb(255,166,0);stop-opacity:0"/></linearGradient>
    </defs>
</svg>
