<?xml version="1.0" encoding="UTF-8" standalone="no"?>
<!DOCTYPE svg PUBLIC "-//W3C//DTD SVG 1.1//EN" "http://www.w3.org/Graphics/SVG/1.1/DTD/svg11.dtd">
<svg width="100%" height="100%" viewBox="0 0 1920 1080" version="1.1" xmlns="http://www.w3.org/2000/svg" xmlns:xlink="http://www.w3.org/1999/xlink" xml:space="preserve" xmlns:serif="http://www.serif.com/" style="fill-rule:evenodd;clip-rule:evenodd;stroke-linejoin:round;stroke-miterlimit:2;">
    <g>
        <g>
            <path id="Ombra" d="M995.2,345.9L603.6,571.4L995.2,800.9L1386.9,571.4L995.2,345.9Z" style="fill:rgb(230,230,230);fill-rule:nonzero;"/>
            <g id="Text">
                <g>
                    <g>
                        <path d="M839.8,820.1C844.5,822.7 844.7,828.4 840.1,831C835.4,833.6 827.6,832.6 822.9,829.9L670.7,741.9L687.2,732.3L839.8,820.1Z" style="fill-rule:nonzero;"/>
                    </g>
                    <g>
                        <path d="M618,692.4L601.1,702L539.5,666.4C534.8,663.8 535,659.9 539.6,657.2C544.3,654.6 551.9,654.6 556.6,657.2L618,692.4Z" style="fill-rule:nonzero;"/>
                    </g>
                    <g>
                        <path d="M409.6,812.5L392.7,822.1L285.8,760.5C281.1,757.9 280.6,753.3 285.3,750.6C290,748 298,748.2 302.7,750.9L409.6,812.5Z" style="fill-rule:nonzero;"/>
                    </g>
                    <g>
                        <path d="M548.6,732.4L531.7,742L356.1,640.7C351.4,638.1 350.5,632.9 355.1,630.3C359.8,627.7 366.9,627.5 371.6,630.1L548.6,732.4Z" style="fill-rule:nonzero;"/>
                    </g>
                    <g>
                        <path d="M700.9,900.8C705.6,903.4 706.7,908.2 702,910.8C697.3,913.4 689.6,913.3 684.9,910.7L531.5,822.2L548,812.7L700.9,900.8Z" style="fill-rule:nonzero;"/>
                    </g>
                    <g>
                        <path d="M678.2,807C682.9,809.6 683.8,814.5 679.2,817.1C674.6,819.7 666.7,819.9 662,817.2L601.1,782L618,772.4L678.2,807Z" style="fill-rule:nonzero;"/>
                    </g>
                    <g>
                        <path d="M608.8,927.6C613.5,930.2 614.2,934.9 609.6,937.5C605,940.1 597.9,940.5 593.2,937.9L462.2,862.2L479,852.6L608.8,927.6Z" style="fill-rule:nonzero;"/>
                    </g>
                    <g>
                        <path d="M479,772.4L462.2,782.1L424.5,760.4C419.8,757.8 419.3,753.3 424,750.7C428.7,748.1 436.3,747.9 441,750.6L479,772.4Z" style="fill-rule:nonzero;"/>
                    </g>
                    <g>
                        <path d="M456.1,839L439,848.8L422.2,839.1L439.1,829.5L456.1,839Z" style="fill-rule:nonzero;"/>
                    </g>
                    <g>
                        <path d="M664.3,718.9L647.4,728.5L630.3,718.9L647.3,709.3L664.3,718.9Z" style="fill-rule:nonzero;"/>
                    </g>
                    <g>
                        <path d="M525.3,799.1L508.3,808.7L491.4,799.1L508.3,789.5L525.3,799.1Z" style="fill-rule:nonzero;"/>
                    </g>
                    <g>
                        <path d="M594.8,759.1L577.9,768.7L560.9,759.1L577.8,749.6L594.8,759.1Z" style="fill-rule:nonzero;"/>
                    </g>
                </g>
            </g>
            <g id="Base">
                <path d="M974.6,229.5L590.6,451.1L590.6,469.5L974.5,691.2L1358.4,469.5L1358.4,451.1L974.6,229.5Z" style="fill:rgb(230,230,230);fill-rule:nonzero;"/>
                <path d="M590.6,451.1L590.6,469.5L974.5,691.2L974.5,672.7L590.6,451.1Z" style="fill:rgb(137,140,138);fill-rule:nonzero;"/>
                <path d="M974.5,691.2L974.5,672.7L1358.4,451.1L1358.4,469.5L974.5,691.2Z" style="fill:rgb(170,176,175);fill-rule:nonzero;"/>
                <g>
                    <g>
                        <g>
                            <path d="M1165.6,340C1272.5,400.2 1273.6,498.8 1168.1,560.2C1062.6,621.6 890.4,622.5 783.5,562.3C676.6,502.1 675.5,403.5 781,342.1C886.5,280.7 1058.7,279.7 1165.6,340" style="fill:rgb(245,245,247);fill-rule:nonzero;"/>
                        </g>
                    </g>
                    <g>
                        <g>
                            <path d="M1112.3,371C1189.3,414.4 1190.1,485.5 1114.1,529.7C1038,573.9 913.9,574.6 836.8,531.2C759.8,487.8 759,416.7 835,372.5C911.1,328.2 1035.2,327.6 1112.3,371" style="fill:white;fill-rule:nonzero;"/>
                        </g>
                    </g>
                    <g>
                        <g>
                            <g>
                                <path d="M1059.2,402.5C1106.3,429.4 1106.5,472.9 1059.8,499.8C1013,526.7 936.9,526.7 889.9,499.8C842.8,472.9 842.6,429.4 889.3,402.5C936.1,375.6 1012.1,375.6 1059.2,402.5" style="fill:rgb(245,245,247);fill-rule:nonzero;"/>
                            </g>
                        </g>
                        <g>
                            <g>
                                <path d="M1007.6,432.1C1026,442.6 1026.1,459.6 1007.8,470.1C989.5,480.6 959.9,480.6 941.5,470.1C923.1,459.6 923,442.6 941.3,432.1C959.5,421.6 989.2,421.6 1007.6,432.1" style="fill:white;fill-rule:nonzero;"/>
                            </g>
                        </g>
                    </g>
                </g>
            </g>
            <g id="Logo">
                <path d="M1008.7,540.2C1007.8,540.5 1006.9,540.9 1005.9,540.9L1002.4,540.9C999.3,540.4 996.3,539.7 993.2,539.1C990.3,538.5 987.3,538 984.4,537.4C981.5,536.8 978.6,536.2 975.8,535.6C972.6,535 969.4,534.3 966.1,533.7C963.3,533.2 960.6,532.5 957.8,532C954.3,531.4 950.8,530.5 947.2,529.9C944.4,529.4 941.7,528.8 938.9,528.2C935.6,527.5 932.3,526.8 928.9,526.1C926.2,525.5 923.6,524.9 920.9,524.5C917,523.8 913.3,522.8 909.4,522.2C907.3,521.9 905.2,521.3 903.1,520.8C900.1,520.2 897,519.7 894,519C892.4,518.6 890.8,518.5 889.2,518C887,517.4 884.6,517.2 882.4,516.6C879.4,515.7 876.4,514.6 874.2,512.3C872.5,510.6 871.6,508.4 870.3,506.4C867.7,502.3 865.2,498.2 862.7,494C859.1,488 855.5,482 851.8,476C849.4,472.1 847,468.1 844.6,464.2C841,458.2 837.4,452.2 833.8,446.2C833.2,445.1 832.5,444 831.8,443C831.2,442.1 831.2,441.2 831.2,440.2L831.2,399.6C831.2,399.2 831.2,398.7 831.1,398.3L831.1,383.4C833.3,386.2 835,389.2 836.7,392.1C842.4,401.5 848.1,410.9 853.8,420.3C860,430.6 866.3,440.9 872.5,451.2C873.5,452.8 874.8,454 876.5,454.9C879.2,456.3 882.1,457.3 885.1,457.8C890.8,458.8 896.4,460.1 902,461.2C906.6,462.1 911.2,463.1 915.8,464C922.8,465.4 929.8,466.9 936.9,468.3C943.9,469.7 950.9,471.2 958,472.6C964.7,474 971.4,475.4 978.1,476.7C984.6,478 991.2,479.3 997.7,480.7C1000.9,481.4 1004,482.1 1007.3,481.4C1008.3,481.2 1008.1,481.9 1008.1,482.5L1008.1,539.2C1008.3,539.4 1008.1,540 1008.7,540.2Z" style="fill:rgb(242,142,0);fill-rule:nonzero;"/>
                <path d="M876.2,381.2C876.2,374 876.2,366.9 876.1,359.7C876.1,358.3 876.3,357 875.9,355.6C875.8,355.1 875.9,354.3 876.3,353.7C879.8,356.1 883.3,358.4 886.8,360.9C890.6,363.6 894.6,366.1 898.4,368.9C901.6,371.3 905.1,373.2 908.3,375.6C911.7,378.1 915.4,380.4 918.9,382.8C922.6,385.3 926.2,387.8 929.9,390.4C932.4,392.1 934.9,393.9 937.4,395.6C940.5,397.6 943.4,399.8 946.6,401.8C948.6,403 950.4,404.5 952.3,405.8C956,408.4 960,410.5 964.2,412.4C969.5,414.8 974.6,417.4 979.8,419.9C984.8,422.4 989.8,424.8 994.8,427.2C1000.4,429.9 1005.9,432.6 1011.4,435.3C1016.3,437.7 1021.2,440.1 1026.1,442.4C1029.2,443.9 1032.2,445.5 1035.3,446.9C1037.5,447.9 1039.7,449.1 1041.9,450.1C1045.1,451.6 1048.2,453.4 1051.5,454.8C1052.8,455.3 1053.1,456.1 1053.1,457.4C1053,476 1053,494.6 1053,513.2C1053,513.7 1052.7,514.2 1053.3,514.6C1052.2,515 1051.3,514.2 1050.4,513.8C1045.4,511.2 1040.3,508.8 1035.2,506.3C1033.1,505.2 1031,504.1 1028.8,503.3C1028.6,503.2 1028.5,503.2 1028.3,503.4C1028.3,502.8 1028.2,502.1 1028.2,501.5L1028.2,471.3C1028.2,470.6 1028.2,470 1027.3,469.7C1024.4,468.8 1021.5,467.8 1018.6,467C1016.5,466.4 1014.4,465.6 1012.3,465.1C1009.6,464.4 1007,463.4 1004.4,462.5C1001.5,461.6 998.5,460.7 995.6,459.8C992.5,458.8 989.4,457.7 986.2,456.9C982.8,456 979.4,454.8 976,453.7C972.6,452.7 969.2,451.5 965.8,450.4C962.8,449.5 959.8,448.5 956.9,447.6C953.2,446.4 949.6,445.3 945.9,444.2C941.1,442.7 936.3,441.2 931.5,439.7C928.9,438.9 926.2,438.1 923.5,437.3C920.8,436.5 918.1,435.5 915.6,434.2C912.4,432.6 909.7,430.2 907.2,427.6C902.1,422.1 897,416.7 891.9,411.3C887.1,406.2 882.3,401.1 877.5,396C876.5,395 876,394 876.1,392.5C876.4,388.9 875.9,385.3 876.3,381.7C876.5,381.4 876.5,381.1 876.2,381.2Z" style="fill:rgb(242,142,0);fill-rule:nonzero;"/>
                <path d="M920.8,353.6C921.5,353.5 921.2,352.9 921.2,352.5L921.2,328.9C921.2,328.5 921,328 921.4,327.7C921.8,328.1 922.3,328.2 922.7,328.3C926.7,329.6 930.7,330.8 934.8,332C940.1,333.6 945.4,335.3 950.7,336.9C955,338.2 959.3,339.7 963.6,341C968.4,342.5 973.2,343.9 977.9,345.4C982.1,346.7 986.2,348.2 990.4,349.4C994.3,350.5 998.1,351.8 1002,353C1005.7,354.1 1009.3,355.4 1013,356.5C1018.3,358.1 1023.6,359.7 1028.8,361.5C1033.6,363.1 1037.7,365.8 1041.2,369.5C1046.6,375.3 1052,381 1057.4,386.7C1063.2,392.9 1069.1,399 1074.9,405.2C1082.3,413 1089.6,420.8 1097,428.6C1097.7,429.3 1098,430 1098,431L1098,487.1C1098,487.6 1098,488.2 1097.8,488.7C1097.1,488.5 1096.7,487.9 1096.3,487.4C1095.4,486.3 1094.4,485.3 1093.4,484.3C1091.6,482.4 1089.9,480.5 1088.1,478.6C1086.4,476.8 1084.7,475.2 1083.1,473.4C1081.4,471.5 1079.5,469.7 1077.9,467.8C1076.7,466.4 1075.3,465.1 1073.9,463.8C1073.2,463.2 1073.4,462.4 1073.4,461.6C1073.4,456.2 1073.4,450.9 1073.5,445.5C1073.5,444.5 1073.1,443.9 1072.4,443.4C1070.6,442.1 1068.7,440.9 1066.9,439.6C1059.8,434.7 1052.6,430 1045.5,425C1039.2,420.6 1032.8,416.3 1026.4,411.9C1023.7,410.1 1020.9,408.3 1018.2,406.4C1014.9,404.2 1011.7,401.9 1008.5,399.7C1006.1,398 1003.6,396.4 1001.1,394.7C998.7,393.1 996.4,391.4 994,389.8C990.7,387.5 986.9,386.1 983.4,384.3C978.3,381.7 973.1,379.3 968,376.8C963.3,374.5 958.5,372.2 953.8,369.9C949.5,367.8 945.1,365.9 940.8,363.7C936.7,361.6 932.5,359.7 928.3,357.6C925.6,356.1 923.2,354.9 920.8,353.6Z" style="fill:rgb(242,142,0);fill-rule:nonzero;"/>
                <path d="M876.2,381.2C876.6,381 876.5,381.4 876.5,381.5C876,385.1 876.5,388.7 876.3,392.3C876.2,393.8 876.7,394.8 877.7,395.8C882.5,400.9 887.3,406 892.1,411.1C897.2,416.5 902.3,422 907.4,427.4C909.9,430.1 912.6,432.4 915.8,434C918.3,435.3 921,436.3 923.7,437.1C926.4,437.9 929,438.7 931.7,439.5C936.5,441 941.3,442.5 946.1,444C949.8,445.1 953.4,446.3 957.1,447.4C960.1,448.3 963.1,449.3 966,450.2C969.4,451.3 972.8,452.4 976.2,453.5C979.6,454.5 983,455.7 986.4,456.7C989.6,457.6 992.6,458.7 995.8,459.6C998.7,460.5 1001.7,461.4 1004.6,462.3C1007.2,463.1 1009.8,464.2 1012.5,464.9C1014.6,465.4 1016.7,466.2 1018.8,466.8C1021.7,467.6 1024.6,468.6 1027.5,469.5C1028.4,469.8 1028.4,470.4 1028.4,471.1L1028.4,501.3C1028.4,501.9 1028.4,502.6 1028.5,503.2L1028.5,528C1028.5,528.8 1028.2,529.2 1027.5,529.6C1023.6,531.9 1019.6,534.3 1015.7,536.6C1013.7,537.8 1011.6,538.9 1009.5,540C1009.4,540.1 1009.2,540 1009,540.1C1008.3,539.9 1008.6,539.4 1008.6,538.9L1008.6,482.2C1008.6,481.6 1008.8,480.9 1007.8,481.1C1004.5,481.8 1001.4,481.1 998.2,480.4C991.7,479.1 985.1,477.7 978.6,476.4C971.9,475.1 965.2,473.6 958.5,472.3C951.5,470.9 944.5,469.4 937.4,468C930.4,466.6 923.4,465.1 916.3,463.7C911.7,462.8 907.1,461.8 902.5,460.9C896.9,459.7 891.2,458.5 885.6,457.5C882.6,456.9 879.7,455.9 877,454.6C875.4,453.8 874,452.5 873,450.9C866.8,440.6 860.5,430.3 854.3,420C848.6,410.6 842.9,401.2 837.2,391.8C835.4,388.9 833.7,385.9 831.6,383.1L831.6,398C831.4,397.7 831.5,397.3 831.5,397C831.5,392.2 831.5,387.3 831.4,382.5C831.4,380.4 832.3,378.9 833.9,377.9C836.3,376.4 838.7,375.2 841.1,373.7C844.1,371.8 847.5,370.5 850.4,368.3C851.5,367.5 851.8,367.6 852.5,368.8C852.9,369.4 853.6,369.7 854,370.3C857,373.5 860,376.7 863,379.9C867,384.2 871,388.5 875.1,392.7C875.4,393 875.7,393.6 876.2,393.4C876.6,393.2 876.4,392.6 876.4,392.2C876.1,388.6 876.1,384.9 876.2,381.2Z" style="fill:rgb(255,166,0);fill-rule:nonzero;"/>
                <path d="M1097.7,488.5C1097.9,488 1097.9,487.5 1097.9,486.9L1097.9,430.8C1097.9,429.8 1097.6,429.1 1096.9,428.4C1089.5,420.6 1082.1,412.8 1074.8,405C1069,398.8 1063.1,392.7 1057.3,386.5C1051.9,380.8 1046.5,375.1 1041.1,369.3C1037.6,365.6 1033.5,362.9 1028.7,361.3C1023.5,359.5 1018.2,357.9 1012.9,356.3C1009.2,355.2 1005.6,353.9 1001.9,352.8C998,351.6 994.2,350.4 990.3,349.2C986.1,348 982,346.5 977.8,345.2C973,343.7 968.2,342.3 963.5,340.8C959.2,339.5 954.9,338 950.6,336.7C945.3,335 940,333.4 934.7,331.8C930.7,330.6 926.7,329.3 922.6,328.1C922.1,328 921.6,327.9 921.3,327.5C924.2,325.4 927.4,323.8 930.5,322C933.1,320.4 935.9,319 938.5,317.5C941,316.1 943.7,315.8 946.5,316.1C949.2,316.4 951.7,317.3 954.4,317.7C958.4,318.4 962.5,319.1 966.4,320.1C968.5,320.6 970.6,321.1 972.6,321.5C975.9,322 979.1,322.7 982.4,323.3C987.4,324.3 992.5,325.2 997.4,326.3C1002.6,327.5 1007.8,328.3 1013,329.5C1018.4,330.7 1023.8,331.6 1029.2,332.8C1034.8,334 1040.4,335 1046,336.2C1048,336.7 1050.1,336.9 1052.1,337.5C1054.6,338.2 1057.2,338.2 1059.7,339C1061.7,339.6 1063.8,339.7 1065.8,340.3C1069.8,341.5 1073.7,343.1 1076,347C1077.7,349.8 1079.4,352.6 1081.1,355.4C1084.2,360.4 1087.3,365.4 1090.4,370.3C1092.4,373.5 1094.2,376.8 1096.3,380C1099.5,385 1102.6,390 1105.7,395.1C1109.4,401 1113,406.9 1116.7,412.9C1117.5,414.2 1117.9,415.5 1117.9,417C1117.8,420.6 1117.9,424.2 1117.9,427.9C1117.6,443.3 1117.8,458.8 1117.7,474.2C1117.7,476.1 1116.9,477.6 1115.3,478.5C1111.3,480.9 1107.2,483.3 1103.1,485.6C1101.8,486.4 1100.4,487.2 1099.1,487.9C1098.8,488.3 1098.3,488.7 1097.7,488.5Z" style="fill:rgb(255,166,0);fill-rule:nonzero;"/>
                <path d="M920.8,353.6C923.2,354.9 925.6,356 928,357.2C932.1,359.3 936.4,361.2 940.5,363.3C944.8,365.5 949.2,367.5 953.5,369.5C958.2,371.8 963,374.1 967.7,376.4C972.9,378.9 978,381.3 983.1,383.9C986.7,385.7 990.4,387.1 993.7,389.4C996.1,391 998.4,392.7 1000.8,394.3C1003.2,396 1005.7,397.6 1008.2,399.3C1011.5,401.5 1014.7,403.8 1017.9,406C1020.6,407.9 1023.4,409.6 1026.1,411.5C1032.5,415.8 1038.9,420.1 1045.2,424.6C1052.3,429.6 1059.5,434.2 1066.6,439.2C1068.4,440.5 1070.3,441.7 1072.1,443C1072.9,443.5 1073.2,444.1 1073.2,445.1C1073.1,450.5 1073.1,455.8 1073.1,461.2C1073.1,462 1073,462.8 1073.6,463.4C1073.1,463.6 1073.2,464.1 1073.2,464.5C1073.1,471.6 1073.2,478.6 1073,485.6C1073,487.4 1073.2,489.2 1073.1,491C1073,492.8 1073.1,494.7 1073.1,496.5C1073.1,498.4 1073,500.2 1073.1,502.1C1073.1,502.9 1072.8,503.3 1072.1,503.7C1069.3,505.3 1066.5,507 1063.6,508.6C1060.1,510.5 1056.8,512.9 1053.1,514.5C1052.6,514.1 1052.8,513.6 1052.8,513.1C1052.8,494.5 1052.8,475.9 1052.9,457.3C1052.9,456 1052.6,455.2 1051.3,454.7C1048,453.3 1044.9,451.5 1041.7,450C1039.5,449 1037.3,447.8 1035.1,446.8C1032,445.4 1029,443.8 1025.9,442.3C1021,440 1016.1,437.5 1011.2,435.2C1005.6,432.5 1000.1,429.8 994.6,427.1C989.6,424.7 984.6,422.3 979.6,419.8C974.4,417.2 969.3,414.6 964,412.3C959.8,410.4 955.9,408.3 952.1,405.7C950.2,404.4 948.4,403 946.4,401.7C943.3,399.8 940.3,397.5 937.2,395.5C934.7,393.8 932.2,392 929.7,390.3C926,387.8 922.4,385.2 918.7,382.7C915.2,380.3 911.6,378 908.1,375.5C904.9,373.1 901.4,371.2 898.2,368.8C894.4,366 890.4,363.5 886.6,360.8C883.2,358.3 879.6,356 876.1,353.6C876.6,352.7 877.6,352.4 878.4,351.9C883,349.2 887.7,346.6 892.3,343.9C893.4,343.2 894.6,342.7 895.7,342C896.1,341.7 896.5,341.9 896.9,342.1C899.1,343 901.1,344.2 903.2,345.2C908.2,347.6 913.3,350 918.4,352.4C919.3,352.9 920,353.4 920.8,353.6Z" style="fill:rgb(255,166,0);fill-rule:nonzero;"/>
            </g>
            <g id="Elenco_x5F_Puntato">
                <g>
                    <path d="M1401.3,635.2C1402.3,635.8 1402.9,636.5 1402.8,637.3C1402.8,638.1 1402.3,638.9 1401.3,639.4C1400.3,640 1399,640.3 1397.6,640.3C1396.2,640.3 1394.9,640 1393.9,639.4C1392.9,638.8 1392.4,638.1 1392.4,637.3C1392.4,636.5 1393,635.7 1393.9,635.2C1394.9,634.6 1396.2,634.3 1397.6,634.3C1399,634.3 1400.3,634.6 1401.3,635.2Z" style="fill-rule:nonzero;"/>
                </g>
                <g>
                    <path d="M1327,784.2C1329.1,785.4 1329.1,787.3 1327,788.5C1325,789.7 1321.6,789.7 1319.6,788.5L1258.8,753.7C1256.7,752.5 1256.7,750.6 1258.8,749.4C1260.8,748.2 1264.2,748.2 1266.2,749.4L1327,784.2Z" style="fill-rule:nonzero;"/>
                </g>
                <g>
                    <path d="M1410.4,832.3C1412.5,833.5 1412.5,835.4 1410.4,836.6C1408.4,837.8 1405,837.8 1403,836.6L1342.2,801.8C1340.1,800.6 1340.1,798.7 1342.2,797.5C1344.2,796.3 1347.6,796.3 1349.6,797.5L1410.4,832.3Z" style="fill-rule:nonzero;"/>
                </g>
                <g>
                    <path d="M1243.8,832.3C1245.9,833.5 1245.9,835.4 1243.8,836.6C1241.8,837.8 1238.4,837.8 1236.4,836.6L1175.6,801.8C1173.5,800.6 1173.5,798.7 1175.6,797.5C1177.6,796.3 1181,796.3 1183,797.5L1243.8,832.3Z" style="fill-rule:nonzero;"/>
                </g>
                <g>
                    <path d="M1389.3,851.7C1391.4,852.9 1391.4,854.8 1389.3,856C1387.3,857.2 1383.9,857.2 1381.9,856L1231.1,769.8C1229,768.6 1229,766.7 1231.1,765.5C1233.1,764.3 1236.5,764.3 1238.5,765.5L1389.3,851.7Z" style="fill-rule:nonzero;"/>
                </g>
                <g>
                    <path d="M1390.8,884.6C1392.9,885.8 1392.9,887.7 1390.8,888.9C1388.8,890.1 1385.4,890.1 1383.4,888.9L1203.4,785.9C1201.3,784.7 1201.3,782.8 1203.4,781.6C1205.4,780.4 1208.8,780.4 1210.8,781.6L1390.8,884.6Z" style="fill-rule:nonzero;"/>
                </g>
                <g>
                    <path d="M1326,879.7C1328.1,880.9 1328.1,882.8 1326,884C1324,885.2 1320.6,885.2 1318.6,884L1257.8,849.2C1255.7,848 1255.7,846.1 1257.8,844.9C1259.8,843.7 1263.2,843.7 1265.2,844.9L1326,879.7Z" style="fill-rule:nonzero;"/>
                </g>
                <g>
                    <path d="M1601.2,909.2C1603.3,910.4 1603.3,912.3 1601.2,913.5C1599.2,914.7 1595.8,914.7 1593.8,913.5L1286.6,737.8C1284.5,736.6 1284.5,734.7 1286.6,733.5C1288.6,732.3 1292,732.3 1294,733.5L1601.2,909.2Z" style="fill-rule:nonzero;"/>
                </g>
                <g>
                    <path d="M1305.7,899.8C1307.8,901 1307.8,902.9 1305.7,904.1C1303.6,905.3 1300.3,905.3 1298.3,904.1L1147.5,817.9C1145.4,816.7 1145.4,814.8 1147.5,813.6C1149.5,812.4 1152.9,812.4 1154.9,813.6L1305.7,899.8Z" style="fill-rule:nonzero;"/>
                </g>
                <g>
                    <path d="M1566.8,921.8C1568.9,923 1568.9,924.9 1566.8,926.1C1564.8,927.3 1561.4,927.3 1559.4,926.1L1432.2,853.4C1430.1,852.2 1430.1,850.3 1432.2,849.1C1434.2,847.9 1437.6,847.9 1439.6,849.1L1566.8,921.8Z" style="fill-rule:nonzero;"/>
                </g>
                <g>
                    <path d="M1409.4,927.8C1411.5,929 1411.5,930.9 1409.4,932.1C1407.4,933.3 1404,933.3 1402,932.1L1341.2,897.3C1339.1,896.1 1339.1,894.2 1341.2,893C1343.2,891.8 1346.6,891.8 1348.6,893L1409.4,927.8Z" style="fill-rule:nonzero;"/>
                </g>
                <g>
                    <path d="M1376.5,974C1378.6,975.2 1378.6,977.1 1376.5,978.3C1374.5,979.5 1371.1,979.5 1369.1,978.3L1120.1,833.9C1118,832.7 1118,830.8 1120.1,829.6C1122.1,828.4 1125.5,828.4 1127.5,829.6L1376.5,974Z" style="fill-rule:nonzero;"/>
                </g>
                <g>
                    <path d="M1403.5,1019.6C1405.6,1020.8 1405.6,1022.7 1403.5,1023.9C1401.5,1025.1 1398.1,1025.1 1396.1,1023.9L1092.4,849.9C1090.3,848.7 1090.3,846.8 1092.4,845.6C1094.4,844.4 1097.8,844.4 1099.8,845.6L1403.5,1019.6Z" style="fill-rule:nonzero;"/>
                </g>
                <g>
                    <path d="M1500.3,787.7C1502.4,788.9 1502.4,790.8 1500.3,792C1498.3,793.2 1494.9,793.2 1492.9,792L1432.1,757.2C1430,756 1430,754.1 1432.1,752.9C1434.1,751.7 1437.5,751.7 1439.5,752.9L1500.3,787.7Z" style="fill-rule:nonzero;"/>
                </g>
                <g>
                    <path d="M1437.9,720.1C1440,721.3 1440,723.2 1437.9,724.4C1435.9,725.6 1432.5,725.6 1430.5,724.4L1369.7,689.6C1367.6,688.4 1367.6,686.5 1369.7,685.3C1371.7,684.1 1375.1,684.1 1377.1,685.3L1437.9,720.1Z" style="fill-rule:nonzero;"/>
                </g>
                <g>
                    <path d="M1410.2,736.2C1412.3,737.4 1412.3,739.3 1410.2,740.5C1408.2,741.7 1404.8,741.7 1402.8,740.5L1342,705.7C1339.9,704.5 1339.9,702.6 1342,701.4C1344,700.2 1347.4,700.2 1349.4,701.4L1410.2,736.2Z" style="fill-rule:nonzero;"/>
                </g>
                <g>
                    <path d="M1555.9,755.6C1558,756.8 1558,758.7 1555.9,759.9C1553.9,761.1 1550.5,761.1 1548.5,759.9L1397.7,673.7C1395.6,672.5 1395.6,670.6 1397.7,669.4C1399.7,668.2 1403.1,668.2 1405.1,669.4L1555.9,755.6Z" style="fill-rule:nonzero;"/>
                </g>
                <g>
                    <path d="M1472.5,803.8C1474.6,805 1474.6,806.9 1472.5,808.1C1470.5,809.3 1467.1,809.3 1465.1,808.1L1314.3,721.9C1312.2,720.7 1312.2,718.8 1314.3,717.6C1316.3,716.4 1319.7,716.4 1321.7,717.6L1472.5,803.8Z" style="fill-rule:nonzero;"/>
                </g>
                <g>
                    <path d="M1493.6,688.1C1495.7,689.3 1495.7,691.2 1493.6,692.4C1491.6,693.6 1488.2,693.6 1486.2,692.4L1425.4,657.6C1423.3,656.4 1423.3,654.5 1425.4,653.3C1427.4,652.1 1430.8,652.1 1432.8,653.3L1493.6,688.1Z" style="fill-rule:nonzero;"/>
                </g>
                <g>
                    <path d="M1583.6,739.5C1585.7,740.7 1585.7,742.6 1583.6,743.8C1581.6,745 1578.2,745 1576.2,743.8L1515.4,709C1513.3,707.8 1513.3,705.9 1515.4,704.7C1517.4,703.5 1520.8,703.5 1522.8,704.7L1583.6,739.5Z" style="fill-rule:nonzero;"/>
                </g>
                <g>
                    <path d="M1656.3,877.7C1658.4,878.9 1658.4,880.8 1656.3,882C1654.3,883.2 1650.9,883.2 1648.9,882L1521.7,809.3C1519.6,808.1 1519.6,806.2 1521.7,805C1523.7,803.8 1527.1,803.8 1529.1,805L1656.3,877.7Z" style="fill-rule:nonzero;"/>
                </g>
                <g>
                    <path d="M1740,829C1742.1,830.2 1742.1,832.1 1740,833.3C1738,834.5 1734.6,834.5 1732.6,833.3L1605.4,760.6C1603.3,759.4 1603.3,757.5 1605.4,756.3C1607.4,755.1 1610.8,755.1 1612.8,756.3L1740,829Z" style="fill-rule:nonzero;"/>
                </g>
                <g>
                    <path d="M1373.5,651.1C1374.5,651.7 1375.1,652.4 1375,653.2C1375,654 1374.5,654.8 1373.5,655.3C1372.5,655.9 1371.2,656.2 1369.8,656.2C1368.4,656.2 1367.1,655.9 1366.1,655.3C1365.1,654.7 1364.6,654 1364.6,653.2C1364.6,652.4 1365.2,651.6 1366.1,651.1C1367.1,650.5 1368.4,650.2 1369.8,650.2C1371.2,650.2 1372.5,650.5 1373.5,651.1Z" style="fill-rule:nonzero;"/>
                </g>
                <g>
                    <path d="M1345.8,667.2C1346.8,667.8 1347.3,668.5 1347.3,669.3C1347.3,670.1 1346.7,670.9 1345.8,671.4C1344.8,672 1343.5,672.3 1342.1,672.3C1340.7,672.3 1339.4,672 1338.4,671.4C1337.4,670.8 1336.9,670.1 1336.8,669.3C1336.8,668.5 1337.4,667.7 1338.3,667.2C1339.3,666.6 1340.6,666.3 1342,666.3C1343.4,666.4 1344.8,666.7 1345.8,667.2Z" style="fill-rule:nonzero;"/>
                </g>
                <g>
                    <path d="M1318,683.2C1319,683.8 1319.6,684.5 1319.6,685.3C1319.6,686.1 1319,686.9 1318.1,687.4C1317.1,688 1315.8,688.3 1314.4,688.3C1313,688.3 1311.7,688 1310.7,687.4C1309.7,686.8 1309.2,686.1 1309.2,685.3C1309.2,684.5 1309.8,683.7 1310.7,683.2C1311.7,682.6 1313,682.3 1314.4,682.3C1315.7,682.3 1317,682.7 1318,683.2Z" style="fill-rule:nonzero;"/>
                </g>
                <g>
                    <path d="M1290.2,699.3C1291.2,699.9 1291.8,700.6 1291.7,701.4C1291.7,702.2 1291.2,703 1290.2,703.5C1289.2,704.1 1287.9,704.4 1286.5,704.4C1285.1,704.4 1283.8,704.1 1282.8,703.5C1281.8,702.9 1281.3,702.2 1281.3,701.4C1281.3,700.6 1281.9,699.8 1282.8,699.3C1283.8,698.7 1285.1,698.4 1286.5,698.4C1287.9,698.4 1289.3,698.7 1290.2,699.3Z" style="fill-rule:nonzero;"/>
                </g>
                <g>
                    <path d="M1262.5,715.3C1263.5,715.9 1264.1,716.6 1264,717.4C1264,718.2 1263.5,719 1262.5,719.5C1261.5,720.1 1260.2,720.4 1258.8,720.4C1257.4,720.4 1256.1,720.1 1255.1,719.5C1254.1,718.9 1253.6,718.2 1253.5,717.4C1253.5,716.6 1254.1,715.8 1255,715.3C1256,714.7 1257.3,714.4 1258.7,714.4C1260.2,714.5 1261.5,714.8 1262.5,715.3Z" style="fill-rule:nonzero;"/>
                </g>
                <g>
                    <path d="M1234.7,731.4C1235.7,732 1236.2,732.7 1236.2,733.5C1236.2,734.3 1235.6,735.1 1234.7,735.6C1233.7,736.2 1232.4,736.5 1231,736.5C1229.6,736.5 1228.3,736.2 1227.3,735.6C1226.3,735 1225.8,734.3 1225.8,733.5C1225.8,732.7 1226.4,731.9 1227.3,731.4C1228.3,730.8 1229.6,730.5 1231,730.5C1232.4,730.5 1233.7,730.8 1234.7,731.4Z" style="fill-rule:nonzero;"/>
                </g>
                <g>
                    <path d="M1207,747.4C1208,748 1208.6,748.7 1208.5,749.5C1208.5,750.3 1208,751.1 1207,751.6C1206,752.2 1204.7,752.5 1203.3,752.5C1201.9,752.5 1200.6,752.2 1199.6,751.6C1198.6,751 1198.1,750.3 1198.1,749.5C1198.1,748.7 1198.7,747.9 1199.6,747.4C1200.6,746.8 1201.9,746.5 1203.3,746.5C1204.7,746.5 1206,746.8 1207,747.4Z" style="fill-rule:nonzero;"/>
                </g>
                <g>
                    <path d="M1179.2,763.4C1180.2,764 1180.8,764.7 1180.7,765.5C1180.7,766.3 1180.2,767.1 1179.2,767.6C1178.2,768.2 1176.9,768.5 1175.5,768.5C1174.1,768.5 1172.8,768.2 1171.8,767.6C1170.8,767 1170.3,766.3 1170.3,765.5C1170.3,764.7 1170.9,763.9 1171.8,763.4C1172.8,762.8 1174.1,762.5 1175.5,762.5C1176.9,762.5 1178.2,762.9 1179.2,763.4Z" style="fill-rule:nonzero;"/>
                </g>
                <g>
                    <path d="M1151.5,779.5C1152.5,780.1 1153,780.8 1153,781.6C1153,782.4 1152.4,783.2 1151.5,783.7C1150.5,784.3 1149.2,784.6 1147.8,784.6C1146.4,784.6 1145.1,784.3 1144.1,783.7C1143.1,783.1 1142.6,782.4 1142.5,781.6C1142.5,780.8 1143.1,780 1144,779.5C1145,778.9 1146.3,778.6 1147.7,778.6C1149.1,778.6 1150.5,778.9 1151.5,779.5Z" style="fill-rule:nonzero;"/>
                </g>
                <g>
                    <path d="M1123.7,795.5C1124.7,796.1 1125.3,796.8 1125.3,797.6C1125.3,798.4 1124.7,799.2 1123.8,799.7C1122.8,800.3 1121.5,800.6 1120.1,800.6C1118.7,800.6 1117.4,800.3 1116.4,799.7C1115.4,799.1 1114.9,798.4 1114.9,797.6C1114.9,796.8 1115.5,796 1116.4,795.5C1117.4,794.9 1118.7,794.6 1120.1,794.6C1121.3,794.6 1122.7,794.9 1123.7,795.5Z" style="fill-rule:nonzero;"/>
                </g>
                <g>
                    <path d="M1095.9,811.5C1096.9,812.1 1097.5,812.8 1097.4,813.6C1097.4,814.4 1096.9,815.2 1095.9,815.7C1094.9,816.3 1093.6,816.6 1092.2,816.6C1090.8,816.6 1089.5,816.3 1088.5,815.7C1087.5,815.1 1087,814.4 1087,813.6C1087,812.8 1087.6,812 1088.5,811.5C1089.5,810.9 1090.8,810.6 1092.2,810.6C1093.6,810.7 1094.9,811 1095.9,811.5Z" style="fill-rule:nonzero;"/>
                </g>
                <g>
                    <path d="M1068.2,827.6C1069.2,828.2 1069.7,828.9 1069.7,829.7C1069.7,830.5 1069.2,831.3 1068.2,831.8C1067.2,832.4 1065.9,832.7 1064.5,832.7C1063.1,832.7 1061.8,832.4 1060.8,831.8C1059.8,831.2 1059.3,830.5 1059.2,829.7C1059.2,828.9 1059.8,828.1 1060.7,827.6C1061.7,827 1063,826.7 1064.4,826.7C1065.8,826.7 1067.2,827 1068.2,827.6Z" style="fill-rule:nonzero;"/>
                </g>
            </g>
        </g>
    </g>
</svg>
