<?xml version="1.0" encoding="UTF-8" standalone="no"?>
<!DOCTYPE svg PUBLIC "-//W3C//DTD SVG 1.1//EN" "http://www.w3.org/Graphics/SVG/1.1/DTD/svg11.dtd">
<svg width="100%" height="100%" viewBox="0 0 1920 1080" version="1.1" xmlns="http://www.w3.org/2000/svg" xmlns:xlink="http://www.w3.org/1999/xlink" xml:space="preserve" xmlns:serif="http://www.serif.com/" style="fill-rule:evenodd;clip-rule:evenodd;stroke-linejoin:round;stroke-miterlimit:2;">
    <g>
        <g>
            <g id="Cloud">
                <g>
                    <g>
                        <path d="M936.4,911.6L732.2,793.2C727,790.2 727.6,784.9 733.7,781.4L816.3,733.7C822.4,730.2 831.5,729.8 836.8,732.9L1041,851.2C1046.2,854.2 1045.6,859.5 1039.5,863L956.9,910.7C950.8,914.2 941.7,914.6 936.4,911.6Z" style="fill:rgb(51,51,51);fill-rule:nonzero;"/>
                        <path d="M826.2,798.5L814.4,791.7C813.7,791.3 813.8,790.5 814.6,790.1L826,783.5C826.8,783 828.1,783 828.8,783.4L840.6,790.2C841.3,790.6 841.2,791.4 840.4,791.8L829,798.4C828.2,798.9 826.9,798.9 826.2,798.5Z" style="fill:rgb(108,109,106);fill-rule:nonzero;"/>
                        <path d="M865.7,821.2L853.9,814.4C853.2,814 853.3,813.2 854.1,812.8L865.5,806.2C866.3,805.7 867.6,805.7 868.3,806.1L880.1,812.9C880.8,813.3 880.7,814.1 879.9,814.5L868.5,821.1C867.7,821.6 866.4,821.7 865.7,821.2Z" style="fill:rgb(108,109,106);fill-rule:nonzero;"/>
                        <path d="M905.2,844L893.4,837.2C892.7,836.8 892.8,836 893.6,835.6L905,829C905.8,828.5 907.1,828.5 907.8,828.9L919.6,835.7C920.3,836.1 920.2,836.9 919.4,837.3L908,843.9C907.2,844.3 906,844.4 905.2,844Z" style="fill:rgb(108,109,106);fill-rule:nonzero;"/>
                        <path d="M944.8,866.7L933,859.9C932.3,859.5 932.4,858.7 933.2,858.3L944.6,851.7C945.4,851.2 946.7,851.2 947.4,851.6L959.2,858.4C959.9,858.8 959.8,859.6 959,860L947.6,866.6C946.8,867.1 945.5,867.1 944.8,866.7Z" style="fill:rgb(108,109,106);fill-rule:nonzero;"/>
                        <path d="M732.2,793.2L732.4,793.3C732.8,793 733.2,792.7 733.6,792.5L816.2,744.8C822.3,741.3 831.4,740.9 836.7,744L1040.7,862.3C1045.5,858.8 1045.8,854.1 1040.9,851.3L836.7,732.8C831.5,729.8 822.3,730.1 816.2,733.6L733.6,781.3C727.6,784.9 726.9,790.2 732.2,793.2Z" style="fill:rgb(108,109,106);fill-rule:nonzero;"/>
                    </g>
                    <g>
                        <path d="M827.5,791.4C825.3,791.4 823.5,789.6 823.5,787.4L823.5,620.8C823.5,618.6 825.3,616.8 827.5,616.8C829.7,616.8 831.5,618.6 831.5,620.8L831.5,787.3C831.5,789.6 829.7,791.4 827.5,791.4Z" style="fill:rgb(77,77,77);fill-rule:nonzero;"/>
                        <rect x="813" y="610.3" width="28.9" height="62.4" style="fill:rgb(51,51,51);"/>
                        <path d="M837.7,678.7C832.1,682 822.9,682 817.2,678.7C811.6,675.4 811.6,670.1 817.2,666.9C822.8,663.6 832,663.6 837.7,666.9C843.4,670.1 843.4,675.4 837.7,678.7Z" style="fill:rgb(51,51,51);fill-rule:nonzero;"/>
                        <rect x="804" y="523.3" width="46.9" height="97.9" style="fill:rgb(51,51,51);"/>
                        <path d="M813,620.6L813,641.7C821.5,645.6 833.4,645.6 841.9,641.7L841.9,620.6C833.5,616.7 821.5,616.7 813,620.6Z" style="fill:rgb(108,109,106);fill-rule:nonzero;"/>
                        <path d="M844.1,630.8C834.9,636.1 820.1,636.1 810.9,630.8C801.7,625.5 801.7,616.9 810.9,611.7C820.1,606.4 834.9,606.4 844.1,611.7C853.2,616.9 853.2,625.5 844.1,630.8Z" style="fill:rgb(51,51,51);fill-rule:nonzero;"/>
                    </g>
                    <g>
                        <path d="M867,815C864.8,815 863,813.2 863,811L863,644.4C863,642.2 864.8,640.4 867,640.4C869.2,640.4 871,642.2 871,644.4L871,810.9C871.1,813.2 869.3,815 867,815Z" style="fill:rgb(77,77,77);fill-rule:nonzero;"/>
                        <rect x="852.6" y="633.9" width="28.9" height="62.4" style="fill:rgb(51,51,51);"/>
                        <path d="M877.3,702.3C871.7,705.6 862.5,705.6 856.8,702.3C851.2,699 851.2,693.7 856.8,690.5C862.4,687.2 871.6,687.2 877.3,690.5C882.9,693.7 882.9,699 877.3,702.3Z" style="fill:rgb(51,51,51);fill-rule:nonzero;"/>
                        <rect x="843.6" y="546.9" width="46.9" height="97.9" style="fill:rgb(51,51,51);"/>
                        <path d="M852.6,644.2L852.6,665.3C861.1,669.2 873,669.2 881.5,665.3L881.5,644.2C873,640.3 861.1,640.3 852.6,644.2Z" style="fill:rgb(108,109,106);fill-rule:nonzero;"/>
                        <path d="M883.6,654.4C874.4,659.7 859.6,659.7 850.4,654.4C841.2,649.1 841.2,640.5 850.4,635.3C859.6,630 874.4,630 883.6,635.3C892.8,640.5 892.8,649.1 883.6,654.4Z" style="fill:rgb(51,51,51);fill-rule:nonzero;"/>
                    </g>
                    <g>
                        <path d="M906.6,838.6C904.4,838.6 902.6,836.8 902.6,834.6L902.6,668C902.6,665.8 904.4,664 906.6,664C908.8,664 910.6,665.8 910.6,668L910.6,834.5C910.6,836.8 908.8,838.6 906.6,838.6Z" style="fill:rgb(77,77,77);fill-rule:nonzero;"/>
                        <rect x="892.1" y="657.5" width="28.9" height="62.4" style="fill:rgb(51,51,51);"/>
                        <path d="M916.8,725.9C911.2,729.2 902,729.2 896.3,725.9C890.7,722.6 890.7,717.3 896.3,714.1C901.9,710.8 911.1,710.8 916.8,714.1C922.4,717.3 922.4,722.6 916.8,725.9Z" style="fill:rgb(51,51,51);fill-rule:nonzero;"/>
                        <rect x="883.1" y="570.5" width="46.9" height="97.9" style="fill:rgb(51,51,51);"/>
                        <path d="M892.1,667.8L892.1,688.9C900.6,692.8 912.5,692.8 921,688.9L921,667.8C912.5,663.9 900.6,663.9 892.1,667.8Z" style="fill:rgb(108,109,106);fill-rule:nonzero;"/>
                        <path d="M923.1,678C913.9,683.3 899.1,683.3 889.9,678C880.7,672.7 880.7,664.1 889.9,658.9C899.1,653.6 913.9,653.6 923.1,658.9C932.3,664.2 932.3,672.7 923.1,678Z" style="fill:rgb(51,51,51);fill-rule:nonzero;"/>
                    </g>
                    <g>
                        <path d="M946.1,862.2C943.9,862.2 942.1,860.4 942.1,858.2L942.1,691.6C942.1,689.4 943.9,687.6 946.1,687.6C948.3,687.6 950.1,689.4 950.1,691.6L950.1,858.1C950.2,860.4 948.3,862.2 946.1,862.2Z" style="fill:rgb(77,77,77);fill-rule:nonzero;"/>
                        <rect x="931.6" y="681.1" width="28.9" height="62.4" style="fill:rgb(51,51,51);"/>
                        <path d="M956.3,749.5C950.7,752.8 941.5,752.8 935.8,749.5C930.2,746.2 930.2,740.9 935.8,737.7C941.4,734.4 950.6,734.4 956.3,737.7C962,740.9 962,746.2 956.3,749.5Z" style="fill:rgb(51,51,51);fill-rule:nonzero;"/>
                        <rect x="922.7" y="594.1" width="46.9" height="97.9" style="fill:rgb(51,51,51);"/>
                        <path d="M931.6,691.4L931.6,712.5C940.1,716.4 952,716.4 960.5,712.5L960.5,691.4C952.1,687.5 940.1,687.5 931.6,691.4Z" style="fill:rgb(108,109,106);fill-rule:nonzero;"/>
                        <path d="M962.7,701.6C953.5,706.9 938.7,706.9 929.5,701.6C920.3,696.3 920.3,687.7 929.5,682.5C938.7,677.2 953.5,677.2 962.7,682.5C971.8,687.8 971.8,696.3 962.7,701.6Z" style="fill:rgb(51,51,51);fill-rule:nonzero;"/>
                    </g>
                    <g id="Cloud_00000106115860705107381810000007838575739761185433_">
                        <g>
                            <path d="M1123.2,779.3L1186.1,742.3L1126.2,667.6L1110.5,693.3L1123.2,779.3Z" style="fill:rgb(60,60,59);fill-rule:nonzero;"/>
                            <path d="M666.8,369.2L767.1,311.5C767.1,311.5 763.3,369.1 763.3,369.2C763.3,369.3 705.7,387.1 705.7,387.1L666.8,369.2Z" style="fill:rgb(60,60,59);fill-rule:nonzero;"/>
                            <path d="M1140.7,591.4C1133.1,587 1125.8,584.4 1119,583.4C1108.9,530.2 1071.9,473.8 1027.8,448.3C1014.5,440.6 1001.9,436.5 990.5,435.7C984.5,371.3 939.7,298 885.3,266.6C856.9,250.2 831.1,248.3 812.1,258.3L811.2,258.8C810.7,259.1 810.2,259.3 809.8,259.6L750.6,294.5L770.3,310C752.7,317.7 741.5,337.5 741.5,366.8C741.5,420.7 779.4,486.4 826.1,513.3L1140.9,738.1C1176,758.4 1204.4,741.9 1204.4,701.4C1204.2,660.9 1175.8,611.7 1140.7,591.4Z" style="fill:rgb(60,60,59);fill-rule:nonzero;"/>
                            <path d="M744.2,343L880,263.7C853.6,250 829.8,248.8 812,258.3L811.1,258.8C810.6,259.1 810.1,259.3 809.7,259.6L750.5,294.5L770.2,310C757.8,315.4 748.6,326.7 744.2,343Z" style="fill:rgb(60,60,59);fill-rule:nonzero;"/>
                            <path d="M995,576.4L1094.1,518.3C1077.1,488.9 1053.7,463.2 1027.8,448.3C1024.4,446.3 1021,444.6 1017.7,443.1L891.7,516.8L995,576.4Z" style="fill:rgb(60,60,59);fill-rule:nonzero;"/>
                            <path d="M1078.6,628C1071,623.6 1063.7,621 1056.9,620C1046.8,566.8 1009.8,510.4 965.7,484.9C952.4,477.2 939.8,473.1 928.4,472.3C922.4,407.9 877.6,334.6 823.2,303.2C764.7,269.4 717.3,296.8 717.3,364.4C717.3,366.7 717.4,369 717.5,371.3C674.7,351.5 641.3,373.8 641.3,424.5C641.3,478.4 679.2,544.1 725.9,571L1078.8,774.7C1113.9,795 1142.3,778.5 1142.3,738C1142.1,697.5 1113.7,648.3 1078.6,628Z" style="fill:rgb(255,166,0);fill-rule:nonzero;"/>
                            <g>
                                <path d="M717.3,371.2C717.2,368.9 717.1,366.6 717.1,364.3L717.1,364C693.5,354.8 673.1,358.8 660.4,373.6C674.3,362.2 694.5,360.6 717.3,371.2Z" style="fill:rgb(242,142,0);fill-rule:nonzero;"/>
                                <path d="M1083.7,623C1076.1,618.6 1068.8,616 1062,615C1051.9,561.8 1014.9,505.4 970.8,479.9C957.5,472.2 944.9,468.1 933.5,467.3C927.5,402.9 882.7,329.6 828.3,298.2C791.8,277.2 759.7,279.9 740.6,301.2C760,284.6 789.8,284 823.1,303.2C877.5,334.6 922.3,407.8 928.3,472.3C939.7,473.2 952.4,477.3 965.6,484.9C1009.7,510.4 1046.7,566.8 1056.8,620C1063.6,621.1 1070.9,623.6 1078.5,628C1113.6,648.3 1142,697.5 1142,738C1142,752.6 1138.3,764 1131.9,771.8C1141.4,764.5 1147.2,751.2 1147.2,733C1147.3,692.5 1118.8,643.2 1083.7,623Z" style="fill:rgb(242,142,0);fill-rule:nonzero;"/>
                            </g>
                            <g>
                                <path d="M709.9,387.3L736.4,399.6L735.1,370.4C735,368.3 734.9,366.3 734.9,364.3C734.9,338.2 742.8,319.3 757.1,311.1C771.4,302.9 791.7,305.5 814.3,318.5C862.9,346.5 905.2,414.8 910.7,473.9L912.1,488.8L927,489.9C936.2,490.6 946.2,494.1 956.8,500.2C995.4,522.5 1030.1,574.2 1039.5,623.2L1041.8,635.5L1054.1,637.4C1059,638.2 1064.3,640.2 1069.7,643.3C1099.3,660.4 1124.4,703.8 1124.4,738C1124.4,750.8 1120.8,760.2 1114.7,763.8C1108.5,767.4 1098.6,765.8 1087.5,759.3L734.6,555.6C693.6,531.9 658.9,471.8 658.9,424.4C658.9,405.8 664.4,391.6 674,385.5C677.9,383 682.7,381.7 688.1,381.7C694.5,381.8 701.9,383.6 709.9,387.3Z" style="fill-rule:nonzero;"/>
                            </g>
                        </g>
                        <g>
                            <path d="M922,569.3L874.7,482.8C872.7,479.1 869,476.9 866.9,478.2L819.3,508.8C817.3,510.1 818.9,514.9 822,516.8L844.5,530.1L844.4,570.2C844.4,573 846.2,576.3 848.4,577.6L886,599.7L885.9,608.5L895.2,603.8C896,603.4 896.6,602.4 896.6,600.9L896.7,560.8L907.8,567.4L912.4,579.1L921.8,574.4C923.1,573.6 923.3,571.6 922,569.3Z" style="fill:rgb(242,142,0);fill-rule:nonzero;"/>
                            <path d="M912.5,574.1L865.2,487.6C863.2,483.9 859.5,481.7 857.4,483L809.8,513.6C807.8,514.9 809.4,519.7 812.5,521.6L835,534.9L834.9,575C834.9,577.8 836.7,581.1 838.9,582.4L883,608.4C885.2,609.7 887.1,608.5 887.1,605.8L887.2,565.7L909.7,579C912.9,580.6 914.5,577.7 912.5,574.1Z" style="fill:rgb(255,166,0);fill-rule:nonzero;"/>
                        </g>
                    </g>
                    <path id="Button_00000128462429068795309700000016449773655338168994_" d="M823.1,661.9C823.1,664.8 821.1,665.9 818.6,664.5C816.1,663.1 814.1,659.6 814.1,656.7C814.1,653.8 816.1,652.7 818.6,654.1C821,655.6 823.1,659.1 823.1,661.9Z" style="fill:rgb(255,166,0);fill-rule:nonzero;"/>
                    <path id="Button_00000021108813354047786580000009444387491557373618_" d="M862.7,686C862.7,688.9 860.7,690 858.2,688.6C855.7,687.2 853.7,683.7 853.7,680.8C853.7,677.9 855.7,676.8 858.2,678.2C860.7,679.6 862.7,683.1 862.7,686Z" style="fill:rgb(255,166,0);fill-rule:nonzero;"/>
                    <path id="Button_00000003815120002588437430000006583953920429787308_" d="M902.4,715.8C902.4,718.7 900.4,719.8 897.9,718.4C895.4,717 893.4,713.5 893.4,710.6C893.4,707.7 895.4,706.6 897.9,708C900.4,709.4 902.4,712.9 902.4,715.8Z" style="fill:rgb(255,166,0);fill-rule:nonzero;"/>
                    <path id="Button" d="M942.1,739.8C942.1,742.7 940.1,743.8 937.6,742.4C935.1,741 933.1,737.5 933.1,734.6C933.1,731.7 935.1,730.6 937.6,732C940,733.5 942.1,737 942.1,739.8Z" style="fill:rgb(255,166,0);fill-rule:nonzero;"/>
                </g>
            </g>
        </g>
    </g>
</svg>
