<?xml version="1.0" encoding="UTF-8" standalone="no"?>
<!DOCTYPE svg PUBLIC "-//W3C//DTD SVG 1.1//EN" "http://www.w3.org/Graphics/SVG/1.1/DTD/svg11.dtd">
<svg width="100%" height="100%" viewBox="0 0 1920 1080" version="1.1" xmlns="http://www.w3.org/2000/svg" xmlns:xlink="http://www.w3.org/1999/xlink" xml:space="preserve" xmlns:serif="http://www.serif.com/" style="fill-rule:evenodd;clip-rule:evenodd;stroke-linejoin:round;stroke-miterlimit:2;">
    <g>
        <g>
            <path d="M720.6,672.6L803.1,625.3L1106.2,800.5L1023.7,847.9L720.6,672.6Z" style="fill:rgb(230,230,230);fill-rule:nonzero;"/>
            <g>
                <g>
                    <path d="M1213.4,610.9C1213.4,574.4 1187.8,530.1 1156.2,511.9C1149.3,507.9 1142.8,505.6 1136.7,504.7C1128.9,464 1103.7,421.1 1071.8,395.1C1071.6,394.9 1071.3,394.7 1071.1,394.6C1070.1,393.8 1069,392.9 1067.9,392.1C1067.5,391.8 1067.1,391.5 1066.8,391.2C1065.9,390.5 1064.9,389.8 1064,389.2C1063.6,388.9 1063.1,388.6 1062.7,388.3C1061.8,387.6 1060.8,387 1059.8,386.4C1059.4,386.1 1059,385.9 1058.6,385.6C1057.3,384.7 1055.9,383.9 1054.5,383.1C1042.6,376.2 1031.2,372.5 1020.9,371.7C1015.5,313.7 975.2,247.8 926.2,219.5C923.9,218.2 921.7,217 919.5,215.9C919.4,215.9 919.4,215.8 919.3,215.8C918.7,215.5 918.2,215.3 917.6,215C917.4,214.9 917.2,214.8 917,214.7C916.5,214.5 916,214.2 915.5,214C915.3,213.9 915,213.8 914.8,213.7C914.3,213.5 913.8,213.3 913.3,213.1C913,213 912.8,212.9 912.5,212.8C912,212.6 911.6,212.4 911.1,212.2C910.8,212.1 910.6,212 910.3,211.9C909.8,211.7 909.4,211.6 908.9,211.4C908.6,211.3 908.3,211.2 908.1,211.1C907.6,210.9 907.2,210.8 906.8,210.6C906.5,210.5 906.2,210.4 906,210.3C905.6,210.2 905.1,210 904.7,209.9C904.4,209.8 904.1,209.7 903.9,209.6C903.5,209.5 903,209.3 902.6,209.2C902.3,209.1 902,209 901.8,209C901.4,208.9 900.9,208.8 900.5,208.7C900.2,208.6 899.9,208.6 899.7,208.5C899.3,208.4 898.8,208.3 898.4,208.2C898.1,208.1 897.9,208.1 897.6,208C897.2,207.9 896.7,207.8 896.3,207.7C896,207.6 895.8,207.6 895.5,207.6C895.1,207.5 894.6,207.4 894.2,207.4C894,207.4 893.7,207.3 893.5,207.3C893.1,207.2 892.6,207.2 892.2,207.1C892,207.1 891.8,207.1 891.6,207C890,206.8 888.4,206.7 886.9,206.6L880.5,206.6C880.2,206.6 879.8,206.6 879.5,206.7C879.2,206.7 878.9,206.7 878.6,206.8C878.3,206.8 878,206.9 877.7,206.9C877.4,206.9 877.1,207 876.8,207C876.5,207 876.2,207.1 875.9,207.1C875.6,207.1 875.3,207.2 875,207.2C874.7,207.2 874.4,207.3 874.1,207.4C873.8,207.5 873.5,207.5 873.2,207.6C872.9,207.7 872.6,207.7 872.3,207.8C872,207.9 871.7,207.9 871.4,208C871.1,208.1 870.8,208.1 870.6,208.2C870.3,208.3 870,208.4 869.7,208.5C869.4,208.6 869.2,208.7 868.9,208.7C868.6,208.8 868.3,208.9 868,209C867.7,209.1 867.5,209.2 867.2,209.3C866.9,209.4 866.6,209.5 866.3,209.6C866.1,209.7 865.8,209.8 865.6,209.9C865.3,210 865,210.2 864.6,210.3C864.4,210.4 864.1,210.5 863.9,210.6C863.5,210.8 863.2,210.9 862.8,211.1C862.6,211.2 862.4,211.3 862.3,211.3C861.8,211.6 861.2,211.8 860.7,212.1L859.9,212.6C859.5,212.8 859,213.1 858.6,213.3L805,244.6L822.7,258.6C822.1,258.9 821.5,259.2 820.9,259.5C820.7,259.6 820.6,259.7 820.4,259.8C820.3,259.9 820.1,259.9 820,260L729.7,312L764.7,328.1C764.7,328.1 782.4,322.7 797.1,318.1C800.6,364.9 833.2,418.8 872.9,441.7L1132.5,627.1L1140.5,681.1L1196.6,648.1C1196.7,648.1 1196.7,648 1196.8,648L1197.1,647.8C1207.2,641.5 1213.4,628.8 1213.4,610.9Z" style="fill:rgb(242,142,0);fill-rule:nonzero;"/>
                    <path d="M1100.3,544.8C1093.4,540.8 1086.9,538.5 1080.8,537.6C1071.7,489.7 1038.4,438.9 998.7,416C986.8,409.1 975.4,405.4 965.1,404.6C959.7,346.6 919.4,280.7 870.4,252.4C817.7,222 775,246.6 775,307.5C775,309.6 775.1,311.6 775.2,313.7C736.7,295.8 706.6,316 706.6,361.6C706.6,410.2 740.7,469.2 782.7,493.5L1100.3,676.9C1131.9,695.1 1157.5,680.4 1157.5,643.9C1157.5,607.3 1131.9,563 1100.3,544.8Z" style="fill:rgb(255,166,0);fill-rule:nonzero;"/>
                </g>
            </g>
        </g>
    </g>
</svg>
