<?xml version="1.0" encoding="UTF-8" standalone="no"?>
<!DOCTYPE svg PUBLIC "-//W3C//DTD SVG 1.1//EN" "http://www.w3.org/Graphics/SVG/1.1/DTD/svg11.dtd">
<svg width="100%" height="100%" viewBox="0 0 1920 1080" version="1.1" xmlns="http://www.w3.org/2000/svg" xmlns:xlink="http://www.w3.org/1999/xlink" xml:space="preserve" xmlns:serif="http://www.serif.com/" style="fill-rule:evenodd;clip-rule:evenodd;stroke-linejoin:round;stroke-miterlimit:2;">
    <g>
        <g>
            <g>
                <g>
                    <g>
                        <path d="M946.5,426.1L514.3,675.6L514.3,342.9L946.5,93.4L946.5,426.1Z" style="fill:rgb(246,163,20);fill-rule:nonzero;"/>
                    </g>
                    <g>
                        <path d="M619.9,339.8L542.5,384.5L542.5,376L619.9,331.3L619.9,339.8Z" style="fill:white;"/>
                        <path d="M607,398.3L542.5,435.6L542.5,427L607,389.8L607,398.3Z" style="fill:white;"/>
                        <path d="M787.7,294L723.1,331.3L723.1,322.7L787.7,285.5L787.7,294Z" style="fill:white;"/>
                        <path d="M736.1,289.9L710.2,304.8L710.2,296.2L736.1,281.3L736.1,289.9Z" style="fill:white;"/>
                        <path d="M684.4,336.8L581.2,396.4L581.2,387.8L684.4,328.2L684.4,336.8Z" style="fill:white;"/>
                        <path d="M697.3,312.2L619.9,356.9L619.9,348.4L697.3,303.7L697.3,312.2Z" style="fill:white;"/>
                        <path d="M568.3,386.7L542.5,401.6L542.5,393.1L568.3,378.2L568.3,386.7Z" style="fill:white;"/>
                        <path d="M568.3,403.8L542.5,418.7L542.5,410.2L568.3,395.3L568.3,403.8Z" style="fill:white;"/>
                        <path d="M645.7,376L619.9,390.9L619.9,382.3L645.7,367.4L645.7,376Z" style="fill:white;"/>
                        <path d="M761.9,292.1L697.3,329.3L697.3,320.8L761.9,283.5L761.9,292.1Z" style="fill:white;"/>
                        <path d="M761.9,257.9L632.8,332.4L632.8,323.8L761.9,249.3L761.9,257.9Z" style="fill:white;"/>
                        <path d="M607,364.4L581.2,379.3L581.2,370.7L607,355.8L607,364.4Z" style="fill:white;"/>
                        <path d="M710.2,338.7L658.6,368.5L658.6,360L710.2,330.2L710.2,338.7Z" style="fill:white;"/>
                    </g>
                    <g>
                        <path d="M619.9,512.5L542.5,557.2L542.5,548.6L619.9,503.9L619.9,512.5Z" style="fill:white;"/>
                        <path d="M607,571L542.5,608.2L542.5,599.7L607,562.4L607,571Z" style="fill:white;"/>
                        <path d="M787.7,466.7L723.1,503.9L723.1,495.4L787.7,458.1L787.7,466.7Z" style="fill:white;"/>
                        <path d="M736.1,462.5L710.2,477.4L710.2,468.9L736.1,454L736.1,462.5Z" style="fill:white;"/>
                        <path d="M684.4,509.4L581.2,569L581.2,560.5L684.4,500.9L684.4,509.4Z" style="fill:white;"/>
                        <path d="M697.3,484.9L619.9,529.6L619.9,521L697.3,476.3L697.3,484.9Z" style="fill:white;"/>
                        <path d="M568.3,559.4L542.5,574.3L542.5,565.7L568.3,550.8L568.3,559.4Z" style="fill:white;"/>
                        <path d="M568.3,576.5L542.5,591.4L542.5,582.8L568.3,567.9L568.3,576.5Z" style="fill:white;"/>
                        <path d="M645.7,548.6L619.9,563.5L619.9,555L645.7,540.1L645.7,548.6Z" style="fill:white;"/>
                        <path d="M761.9,464.7L697.3,502L697.3,493.4L761.9,456.2L761.9,464.7Z" style="fill:white;"/>
                        <path d="M761.9,430.5L632.8,505L632.8,496.5L761.9,422L761.9,430.5Z" style="fill:white;"/>
                        <path d="M607,537L581.2,551.9L581.2,543.4L607,528.5L607,537Z" style="fill:white;"/>
                        <path d="M710.2,511.4L658.6,541.2L658.6,532.6L710.2,502.8L710.2,511.4Z" style="fill:white;"/>
                    </g>
                    <g>
                        <path d="M581.2,449.7L542.5,472.1L542.5,463.5L581.2,441.2L581.2,449.7Z" style="fill:white;"/>
                        <path d="M607,485.9L542.5,523.1L542.5,514.6L607,477.3L607,485.9Z" style="fill:white;"/>
                        <path d="M800.6,374.1L723.1,418.8L723.1,410.3L800.6,365.6L800.6,374.1Z" style="fill:white;"/>
                        <path d="M736,377.4L710.2,392.3L710.2,383.8L736,368.9L736,377.4Z" style="fill:white;"/>
                        <path d="M645.7,446.7L581.2,483.9L581.2,475.4L645.7,438.1L645.7,446.7Z" style="fill:white;"/>
                        <path d="M697.3,399.8L645.7,429.6L645.7,421L697.3,391.2L697.3,399.8Z" style="fill:white;"/>
                        <path d="M581.2,466.8L542.5,489.2L542.5,480.6L581.2,458.3L581.2,466.8Z" style="fill:white;"/>
                        <path d="M568.3,491.4L542.5,506.3L542.5,497.7L568.3,482.8L568.3,491.4Z" style="fill:white;"/>
                        <path d="M645.7,463.5L619.9,478.4L619.9,469.9L645.7,455L645.7,463.5Z" style="fill:white;"/>
                        <path d="M723.1,402L658.6,439.2L658.6,430.7L723.1,393.4L723.1,402Z" style="fill:white;"/>
                        <path d="M774.7,338L658.6,405L658.6,396.5L774.7,329.4L774.7,338Z" style="fill:white;"/>
                        <path d="M774.7,372.2L736,394.5L736,386L774.7,363.6L774.7,372.2Z" style="fill:white;"/>
                        <path d="M632.8,437L594.1,459.4L594.1,450.8L632.8,428.5L632.8,437Z" style="fill:white;"/>
                        <path d="M710.2,426.3L658.6,456.1L658.6,447.5L710.2,417.7L710.2,426.3Z" style="fill:white;"/>
                        <path d="M645.7,412.5L594.1,442.3L594.1,433.7L645.7,403.9L645.7,412.5Z" style="fill:white;"/>
                    </g>
                </g>
                <g>
                    <g>
                        <path d="M1042.5,537L610.3,786.5L610.3,453.8L1042.4,204.3L1042.5,537Z" style="fill:rgb(29,29,27);fill-rule:nonzero;"/>
                    </g>
                    <g>
                        <path d="M978.9,481.1C978.9,481.1 961.8,459.2 930.3,475.3C906.2,487.6 918.9,486.9 890,495.5C873,500.6 846.5,470.5 804.4,489C728.2,522.5 701.7,453 668.6,490.7L668.6,680.7L979,507.7L979,481.1L978.9,481.1Z" style="fill:rgb(246,163,20);fill-opacity:0.2;fill-rule:nonzero;"/>
                        <path d="M670.6,475.1L680.8,469.2C681.9,468.5 682.9,466.8 682.9,465.3C682.9,463.8 682,463.1 680.8,463.8L670.6,469.7C669.5,470.4 668.5,472.1 668.5,473.6C668.6,475.1 669.5,475.8 670.6,475.1Z" style="fill:white;fill-rule:nonzero;"/>
                        <path d="M756.2,632.4L766.4,626.5L766.5,626.5L774.1,622.1C775.2,621.4 776.2,622.1 776.2,623.7C776.2,625.2 775.3,627 774.1,627.6L763.9,633.5L763.8,633.5L756.2,637.9C755.1,638.6 754.1,637.9 754.1,636.4C754.2,634.8 755.1,633.1 756.2,632.4Z" style="fill:white;fill-rule:nonzero;"/>
                        <path d="M677.4,676L687.6,670.1L687.7,670.1L695.3,665.7C696.4,665 697.4,665.7 697.4,667.3C697.4,668.8 696.5,670.6 695.3,671.2L685.1,677.1L685,677.1L677.4,681.5C676.3,682.2 675.3,681.5 675.3,680C675.4,678.4 676.3,676.6 677.4,676Z" style="fill:white;fill-rule:nonzero;"/>
                        <path d="M835.4,589.4L845.6,583.5L845.7,583.5L853.3,579.1C854.4,578.4 855.4,579.1 855.4,580.7C855.4,582.2 854.5,584 853.3,584.6L843.1,590.5L843,590.5L835.4,594.9C834.3,595.6 833.3,594.9 833.3,593.4C833.4,591.9 834.3,590.1 835.4,589.4Z" style="fill:white;fill-rule:nonzero;"/>
                        <path d="M910.1,549.2L920.3,543.3L920.4,543.3L928,538.9C929.1,538.2 930.1,538.9 930.1,540.5C930.1,542 929.2,543.8 928,544.4L917.8,550.3L917.7,550.3L910.1,554.7C909,555.4 908,554.7 908,553.2C908.1,551.6 909,549.9 910.1,549.2Z" style="fill:white;fill-rule:nonzero;"/>
                        <path d="M747.3,426.9L757.5,421C758.6,420.3 759.6,418.6 759.6,417.1C759.6,415.6 758.7,414.9 757.5,415.6L747.3,421.5C746.2,422.2 745.2,423.9 745.2,425.4C745.3,426.8 746.2,427.5 747.3,426.9Z" style="fill:white;fill-rule:nonzero;"/>
                        <path d="M824,381.7L834.2,375.8C835.3,375.1 836.3,373.4 836.3,371.9C836.3,370.4 835.4,369.7 834.2,370.3L824,376.2C822.9,376.9 821.9,378.6 821.9,380.1C822,381.6 822.9,382.3 824,381.7Z" style="fill:white;fill-rule:nonzero;"/>
                        <path d="M899.6,341L909.8,335.1C910.9,334.4 911.9,332.7 911.9,331.2C911.9,329.7 911,329 909.8,329.6L899.6,335.5C898.5,336.2 897.5,337.9 897.5,339.4C897.6,340.9 898.5,341.6 899.6,341Z" style="fill:white;fill-rule:nonzero;"/>
                        <path d="M973.1,296.2L983.3,290.3C984.4,289.6 985.4,287.9 985.4,286.4C985.4,284.9 984.5,284.2 983.3,284.9L973.1,290.8C972,291.5 971,293.2 971,294.7C971,296.1 972,296.8 973.1,296.2Z" style="fill:white;fill-rule:nonzero;"/>
                        <path d="M983.8,509.4L994,503.5L994.1,503.5L1001.7,499.1C1002.8,498.4 1003.8,499.1 1003.8,500.7C1003.8,502.2 1002.9,504 1001.7,504.6L991.5,510.5L991.4,510.5L983.8,514.9C982.7,515.6 981.7,514.9 981.7,513.4C981.7,511.8 982.6,510 983.8,509.4Z" style="fill:white;fill-rule:nonzero;"/>
                    </g>
                </g>
                <g>
                    <path d="M1194.8,636.8C1191.2,634.7 1185.4,634.8 1181.8,636.8L820,836.8C818.4,837.7 819.4,847.2 819.3,848.4C819.1,849.9 820,851.4 822,852.5L1062,991C1065.6,993.1 1071.4,993.1 1075,991L1434.8,782.9C1436.7,781.8 1437.6,780.3 1437.5,778.9C1437.4,777.6 1438.6,768.6 1437,767.6L1194.8,636.8Z" style="fill:rgb(170,176,175);fill-rule:nonzero;"/>
                    <path d="M1194.8,626.2C1191.2,624.1 1185.4,624.1 1181.8,626.2L822,834.4C818.4,836.5 818.4,839.8 822,841.9L1062,980.5C1065.6,982.6 1071.4,982.6 1075,980.5L1434.8,772.4C1438.4,770.3 1438.4,767 1434.8,764.9L1194.8,626.2Z" style="fill:rgb(245,245,247);fill-rule:nonzero;"/>
                    <path d="M852.5,839.5L855.7,841.3L976,911C978.2,912.2 981.7,912.2 983.9,911L1313.1,720.7L1317,718.4C1319.2,717.2 1319.2,715.1 1317,713.9L1193.4,642.4C1191.2,641.1 1187.7,641.1 1185.5,642.4L852.5,834.9C850.3,836.1 850.3,838.2 852.5,839.5Z" style="fill:rgb(230,230,230);fill-rule:nonzero;"/>
                    <path d="M855.7,841.3L976,911C978.2,912.2 981.7,912.2 983.9,911L1313.1,720.7L1192.8,651C1190.6,649.7 1187.1,649.7 1184.9,651L855.7,841.3Z" style="fill:white;fill-rule:nonzero;"/>
                    <g>
                        <path d="M961.6,893.9L975.3,901.8L1291.3,719.1L1277.5,711.2L961.6,893.9Z" style="fill:rgb(137,140,138);fill-rule:nonzero;"/>
                        <path d="M940.5,881.5L954.3,889.4L1270.2,706.7L1256.4,698.8L940.5,881.5Z" style="fill:rgb(137,140,138);fill-rule:nonzero;"/>
                        <path d="M919.5,869.1L933.2,877L1249.1,694.3L1235.4,686.4L919.5,869.1Z" style="fill:rgb(137,140,138);fill-rule:nonzero;"/>
                        <path d="M898.4,856.7L912.2,864.6L1198.4,699.3L1184.6,691.4L898.4,856.7Z" style="fill:rgb(137,140,138);fill-rule:nonzero;"/>
                        <g>
                            <path d="M1165.4,674L1179.1,682L1202.6,668L1188.8,660L1165.4,674Z" style="fill:rgb(137,140,138);fill-rule:nonzero;"/>
                            <path d="M1190,687.3L1203.8,695.3L1227.3,681.3L1213.5,673.3L1190,687.3Z" style="fill:rgb(137,140,138);fill-rule:nonzero;"/>
                            <path d="M1136.4,691L1150.2,699L1173.6,685L1159.9,677L1136.4,691Z" style="fill:rgb(137,140,138);fill-rule:nonzero;"/>
                            <path d="M1107.4,708L1121.2,716L1144.6,702L1130.9,694L1107.4,708Z" style="fill:rgb(137,140,138);fill-rule:nonzero;"/>
                            <path d="M1078.4,725L1092.2,733L1115.7,719L1101.9,711L1078.4,725Z" style="fill:rgb(137,140,138);fill-rule:nonzero;"/>
                            <path d="M1049.4,742L1063.2,750L1086.7,735.9L1072.9,728L1049.4,742Z" style="fill:rgb(137,140,138);fill-rule:nonzero;"/>
                            <path d="M1020.4,759L1034.2,766.9L1057.7,752.9L1043.9,745L1020.4,759Z" style="fill:rgb(137,140,138);fill-rule:nonzero;"/>
                            <path d="M991.4,776L1005.2,783.9L1028.7,769.9L1014.9,762L991.4,776Z" style="fill:rgb(137,140,138);fill-rule:nonzero;"/>
                            <path d="M962.5,793L976.2,800.9L999.7,786.9L985.9,778.9L962.5,793Z" style="fill:rgb(137,140,138);fill-rule:nonzero;"/>
                            <path d="M933.5,810L947.2,817.9L970.7,803.9L956.9,795.9L933.5,810Z" style="fill:rgb(137,140,138);fill-rule:nonzero;"/>
                            <path d="M904.5,826.9L918.2,834.9L941.7,820.9L927.9,812.9L904.5,826.9Z" style="fill:rgb(137,140,138);fill-rule:nonzero;"/>
                            <path d="M875.5,843.9L889.2,851.9L912.7,837.9L898.9,829.9L875.5,843.9Z" style="fill:rgb(137,140,138);fill-rule:nonzero;"/>
                        </g>
                    </g>
                    <path d="M1185.8,337.6C1185.8,335.5 1174.6,331.7 1173.4,331C1172.2,330.3 1170.6,330.4 1168.8,331.4L809,539.6C805.4,541.7 802.5,546.7 802.5,550.8L803.3,825.5C803.3,827.6 804,829 805.2,829.7C806.4,830.4 816.6,836.9 818.4,835.9L1169.6,621.2C1173.2,619.1 1176.1,614.1 1176.1,610L1185.8,337.6Z" style="fill:rgb(170,176,175);fill-rule:nonzero;"/>
                    <path d="M1186.6,341.1C1186.6,337 1183.7,335.3 1180.1,337.4L820.2,545.6C816.6,547.7 813.7,552.7 813.7,556.8L814.5,831.5C814.5,835.6 817.4,837.3 821,835.2L1180.8,627.1C1184.4,625 1187.3,620 1187.3,615.9L1186.6,341.1Z" style="fill:rgb(230,230,230);fill-rule:nonzero;"/>
                    <path d="M827.3,804.1L1172.9,603.4L1172.9,356L827.3,556.7L827.3,804.1Z" style="fill:rgb(51,51,51);fill-rule:nonzero;"/>
                </g>
            </g>
        </g>
    </g>
</svg>
