<?xml version="1.0" encoding="UTF-8" standalone="no"?>
<!DOCTYPE svg PUBLIC "-//W3C//DTD SVG 1.1//EN" "http://www.w3.org/Graphics/SVG/1.1/DTD/svg11.dtd">
<svg width="100%" height="100%" viewBox="0 0 1920 1080" version="1.1" xmlns="http://www.w3.org/2000/svg" xmlns:xlink="http://www.w3.org/1999/xlink" xml:space="preserve" xmlns:serif="http://www.serif.com/" style="fill-rule:evenodd;clip-rule:evenodd;stroke-linejoin:round;stroke-miterlimit:2;">
    <g>
        <path d="M1622.44,619.69L1622.44,621.28C1622.32,624.67 1617.86,629.99 1617.82,630.03L1183.14,954.55C1164.81,968.02 1130.95,970.35 1107.42,959.67L948.15,887.4L929.06,901.45C910.73,914.96 876.87,917.25 853.32,906.61L641.62,810.48C626.32,803.53 619.22,792.79 621.2,782.38C622.24,776.84 625.88,771.4 632.26,766.7L651.39,752.65L645.63,750.02L238.33,565.18C223.03,558.23 215.91,547.51 217.89,537.08C218.95,531.54 222.59,526.08 228.99,521.4L235.01,516.94L240.65,512.78L640.92,217.91C659.25,204.42 693.11,202.13 716.64,212.79L1589.78,602.39L1595.44,604.92L1623.3,617.35L1622.42,619.7L1622.44,619.69Z" style="fill:rgb(170,176,175);fill-rule:nonzero;"/>
        <path d="M1627.76,620.32L1622.44,583.54L716.69,205.99C693.2,195.31 659.32,197.62 640.99,211.11L228.99,514.57C210.68,528.08 214.94,547.65 238.36,558.33L651.38,745.8L632.27,759.85C613.96,773.34 618.22,792.93 641.64,803.59L853.34,899.68C876.83,910.34 910.73,908.05 929.04,894.54L948.15,880.49L1107.44,952.76C1130.93,963.42 1164.81,961.11 1183.14,947.62L1627.76,620.31L1627.76,620.32Z" style="fill:rgb(245,245,247);fill-rule:nonzero;"/>
        <path d="M1615.76,583.28L1183.13,901.09C1174.94,907.11 1163.62,910.91 1151.51,912.31L1151.51,919.16C1163.55,917.75 1174.94,913.98 1183.13,907.94L1618.57,587.94C1619.86,587 1621.67,587.28 1622.61,588.57C1622.97,589.06 1623.16,589.65 1623.17,590.25L1623.33,617.31L1623.33,618.96C1623.35,621.84 1621.98,624.56 1619.66,626.27L1183.15,947.79C1174.94,953.81 1163.62,957.61 1151.51,959.01L1151.51,965.84C1163.55,964.45 1174.94,960.68 1183.13,954.64L1620.12,632.79C1625.45,628.88 1628.59,622.66 1628.59,616.05L1628.59,589.77C1628.62,585.34 1625.04,581.72 1620.61,581.7C1618.87,581.7 1617.17,582.25 1615.77,583.29L1615.76,583.28Z" style="fill:rgb(137,140,138);fill-rule:nonzero;"/>
        <path d="M237.9,527.64L1157.67,948.24L1157.67,916.59L1116.34,912.93L237.9,514.89L237.9,527.64Z" style="fill:rgb(255,166,0);fill-rule:nonzero;"/>
        <path d="M1605.22,594.32L1605.22,620.34L1157.67,948.24L1157.67,916.59L1174.55,909.88L1605.22,594.32Z" style="fill:rgb(242,142,0);fill-rule:nonzero;"/>
        <path d="M1628.61,589.76C1628.64,585.33 1625.08,581.7 1620.64,581.67C1618.88,581.66 1617.17,582.22 1615.76,583.28L1183.13,901.09C1164.82,914.58 1130.94,916.89 1107.43,906.23L238.35,511.74C226.41,506.32 219.48,498.61 217.93,490.56C215.92,500.92 223.05,511.64 238.35,518.56L1107.43,913.07C1130.92,923.73 1164.82,921.44 1183.13,907.93L1618.57,587.93C1619.86,586.99 1621.67,587.27 1622.61,588.56C1622.97,589.05 1623.16,589.64 1623.17,590.24L1623.33,617.3L1623.33,618.95C1623.35,621.83 1621.98,624.55 1619.66,626.26L1183.15,947.78C1164.82,961.27 1130.96,963.58 1107.45,952.92L948.18,880.65L929.05,894.7C910.74,908.21 876.86,910.5 853.35,899.84L641.65,803.63C629.61,798.19 622.76,790.5 621.19,782.45C619.18,792.81 626.33,803.53 641.63,810.55L853.33,906.66C876.82,917.32 910.72,915.03 929.05,901.52L948.16,887.47L1107.43,959.74C1130.92,970.42 1164.82,968.11 1183.13,954.62L1620.12,632.77C1625.45,628.86 1628.59,622.64 1628.59,616.03L1628.61,589.75L1628.61,589.76Z" style="fill:rgb(170,176,175);fill-rule:nonzero;"/>
        <path d="M1605.22,620.34L1618.55,627.07L1621.14,624.97C1622.89,622.57 1623.57,621.06 1623.32,615.44L1623.16,590.25L1623.16,590C1622.83,588.09 1621.31,586.89 1619.21,587.55L1618.56,587.94L1605.21,597.75L1605.21,620.34L1605.22,620.34Z" style="fill-rule:nonzero;"/>
        <path d="M639.7,166.14C656.34,153.86 678.33,151.56 697.15,160.12L1214.13,388.6L1624.76,582.9L1621.45,581.23L1621.93,581.45L1619.06,581.45L1183.13,901.11C1164.8,914.6 1130.94,916.91 1107.41,906.23L238.35,511.74C226.43,506.34 219.46,498.61 217.91,490.56C216.42,482.75 219.92,474.66 229.01,468.02L639.7,166.15L639.7,166.14Z" style="fill:rgb(230,230,230);fill-rule:nonzero;"/>
        <path d="M803.07,386.58L619.07,520.05C608.91,527.42 590.26,528.6 577.42,522.7L506.46,489.98C493.61,484.08 491.44,473.3 501.62,465.89L685.62,332.42C695.8,325.03 714.45,323.85 727.27,329.77L798.23,362.47C811.08,368.43 813.25,379.21 803.07,386.58Z" style="fill:white;fill-rule:nonzero;"/>
        <path d="M499.55,491.18C493.83,487.87 490.22,483.59 489.27,478.89C488.17,473.39 490.84,467.99 496.78,463.69L680.78,330.2C693.05,321.31 715.61,319.88 731.11,327.01L802.07,359.73C809.58,363.18 814.32,368.12 815.42,373.6C816.52,379.08 813.85,384.48 807.91,388.8L623.91,522.21C611.64,531.1 589.08,532.55 573.58,525.4L502.62,492.7C501.54,492.26 500.51,491.74 499.55,491.17L499.55,491.18ZM796.42,366.32C795.78,365.96 795.12,365.62 794.41,365.3L723.43,332.58C717.99,330.22 712.06,329.23 706.15,329.69C700.55,329.86 695.12,331.6 690.45,334.69L506.45,468.16C502.56,470.97 500.81,474.52 501.53,478.2C502.25,481.88 505.34,485.03 510.28,487.29L581.24,519.99C591.4,524.67 606.19,523.74 614.22,517.98L798.22,384.51C802.11,381.68 803.86,378.15 803.14,374.47C802.19,370.9 799.74,367.93 796.42,366.32Z" style="fill:rgb(255,165,0);fill-rule:nonzero;"/>
        <path d="M535.16,477.59L712.55,348.9L713.52,349.34L536.1,478.03L535.16,477.59Z" style="fill-rule:nonzero;"/>
        <path d="M562.76,490.3L740.15,361.62L741.1,362.07L563.7,490.74L562.76,490.3Z" style="fill-rule:nonzero;"/>
        <path d="M590.34,503.02L767.76,374.33L768.7,374.77L591.31,503.47L590.34,503.02Z" style="fill-rule:nonzero;"/>
    </g>
</svg>
