<?xml version="1.0" encoding="UTF-8" standalone="no"?>
<!DOCTYPE svg PUBLIC "-//W3C//DTD SVG 1.1//EN" "http://www.w3.org/Graphics/SVG/1.1/DTD/svg11.dtd">
<svg width="100%" height="100%" viewBox="0 0 1920 1080" version="1.1" xmlns="http://www.w3.org/2000/svg" xmlns:xlink="http://www.w3.org/1999/xlink" xml:space="preserve" xmlns:serif="http://www.serif.com/" style="fill-rule:evenodd;clip-rule:evenodd;stroke-linejoin:round;stroke-miterlimit:2;">
    <g>
        <path d="M818.93,899.03C816.9,899.03 814.81,899.03 812.77,898.83C799.4,898.07 786.38,894.31 774.67,887.82L698.77,844C685.56,836.36 677.9,825.8 677.9,814.99C677.9,805.68 683.45,797.38 693.48,791.53L1066.31,576.28C1075.36,571.06 1087.7,568.18 1101.04,568.18C1116.52,568.07 1131.78,571.9 1145.37,579.32L1221.22,623.21C1234.43,630.87 1242.09,641.44 1242.09,652.22C1242.09,661.53 1236.57,669.83 1226.48,675.68L853.63,890.93C844.63,896.15 832.28,899.03 818.92,899.03L818.93,899.03Z" style="fill:rgb(242,142,0);fill-rule:nonzero;"/>
        <path d="M902.73,768.33L1098.63,655.19C1117.38,644.38 1150.14,645.73 1171.8,658.23L1177.99,661.8L1236.21,632.48L1236.21,650.55C1236.21,657.42 1232.05,663.98 1223.55,668.89L850.79,884.2C832.04,895.03 799.28,893.66 777.62,881.16L701.77,837.34C689.93,830.52 683.85,821.76 683.85,813.46L683.85,795.37L902.73,768.34L902.73,768.33Z" style="fill:rgb(28,28,28);fill-rule:nonzero;"/>
        <path d="M1236.24,632.52L1236.24,650.61C1236.24,657.5 1232.08,664.06 1223.58,668.95L850.77,884.2C840.89,889.9 827.11,892.23 813.13,891.33L813.13,873.26C827.11,874.16 840.89,871.81 850.77,866.13L1223.58,650.88C1232.08,645.97 1236.24,639.41 1236.24,632.52Z" style="fill-rule:nonzero;"/>
        <path d="M902.73,768.33L1098.63,655.19C1117.38,644.38 1150.14,645.73 1171.8,658.23L1177.99,661.8L1236.21,632.48L1236.21,650.55C1236.21,657.42 1232.05,663.98 1223.55,668.89L850.79,884.2C832.04,895.03 799.28,893.66 777.62,881.16L701.77,837.34C689.93,830.52 683.85,821.76 683.85,813.46L683.85,795.37L902.73,768.34L902.73,768.33Z" style="fill:none;fill-rule:nonzero;"/>
        <path d="M1236.24,632.52C1236.24,639.41 1232.08,645.97 1223.58,650.88L850.77,866.13C840.89,871.81 827.11,874.16 813.13,873.26C800.68,872.57 788.55,869.09 777.63,863.09L701.76,819.27C689.9,812.45 683.86,803.66 683.86,795.39C683.86,788.5 688,781.94 696.49,777.03L1069.34,561.78C1088.09,550.97 1120.87,552.32 1142.51,564.82L1204.03,600.35L1218.4,608.65C1230.15,615.47 1236.23,624.26 1236.23,632.53L1236.24,632.52Z" style="fill:rgb(51,51,51);fill-rule:nonzero;"/>
        <path d="M902.26,706.69L1109.36,587.12C1123.32,579.06 1147.66,580.08 1163.77,589.32L1168.35,591.96L1211.65,570.21L1211.65,627.09C1211.65,632.22 1208.57,637.11 1202.25,640.74L842.63,848.22C828.67,856.28 804.33,855.26 788.22,846.02L718.97,806.03C710.17,800.95 705.65,794.43 705.65,788.27L705.65,731.33L902.26,706.7L902.26,706.69Z" style="fill:rgb(28,28,28);fill-rule:nonzero;"/>
        <path d="M1211.66,570.22L1211.66,627.1C1211.66,632.23 1208.58,637.12 1202.24,640.75L842.64,848.23C834.91,852.63 824.02,854.37 813.08,853.38L813.08,796.5C824.09,797.47 834.92,795.8 842.64,791.35L1202.17,583.76C1208.58,580.11 1211.66,575.24 1211.66,570.22Z" style="fill-rule:nonzero;"/>
        <path d="M902.26,706.69L1109.36,587.12C1123.32,579.06 1147.66,580.08 1163.77,589.32L1168.35,591.96L1211.65,570.21L1211.65,627.09C1211.65,632.22 1208.57,637.11 1202.25,640.74L842.63,848.22C828.67,856.28 804.33,855.26 788.22,846.02L718.97,806.03C710.17,800.95 705.65,794.43 705.65,788.27L705.65,731.33L902.26,706.7L902.26,706.69Z" style="fill:none;fill-rule:nonzero;"/>
        <path d="M1211.66,570.22C1211.66,575.33 1208.58,580.21 1202.26,583.87L842.64,791.35C828.68,799.38 804.34,798.39 788.23,789.15L718.98,749.18C710.18,744.1 705.66,737.58 705.66,731.39C705.66,726.28 708.74,721.4 715.06,717.76L1074.61,510.17C1088.57,502.11 1112.91,503.13 1129.02,512.37L1198.27,552.36C1207.14,557.42 1211.65,563.94 1211.65,570.21L1211.66,570.22Z" style="fill:rgb(51,51,51);fill-rule:nonzero;"/>
        <path d="M1181.39,563.78L1159.38,551.01C1154.14,547.99 1146.17,547.66 1141.77,550.28L784.7,756.33C780.3,758.95 780.74,763.53 785.98,766.54L807.99,779.31C813.21,782.33 821.2,782.66 825.6,780.04L1182.49,573.99C1187.2,571.37 1186.63,566.79 1181.39,563.78Z" style="fill:white;fill-rule:nonzero;"/>
        <path d="M1182.67,573.99L1172.24,580.02L825.78,780.04C821.25,782.66 813.32,782.24 808.17,779.29L795.5,771.98L736.08,737.66C730.84,734.64 730.27,730.07 734.8,727.47L1091.69,521.4C1096.22,518.8 1104.15,519.2 1109.3,522.15L1181.58,563.58C1186.82,566.6 1187.2,571.37 1182.66,573.99L1182.67,573.99Z" style="fill:rgb(28,28,28);fill-rule:nonzero;"/>
        <path d="M1172.23,580.02L825.77,780.04C820.61,783.01 812.66,782.21 807.5,779.26L745.23,742.97L1091.69,542.93C1096.22,540.33 1104.15,540.73 1109.3,543.68L1172.23,580.02Z" style="fill-rule:nonzero;"/>
        <g transform="matrix(0.504678,-0.863307,0.863307,0.504678,14.7,1311.23)">
            <ellipse cx="1150.03" cy="642.81" rx="17.3" ry="9.99" style="fill:white;"/>
        </g>
        <g transform="matrix(0.502567,-0.864538,0.864538,0.502567,46.07,1325.8)">
            <ellipse cx="1175.23" cy="622.86" rx="17.21" ry="9.94" style="fill:rgb(255,166,0);"/>
        </g>
        <path d="M1102.57,310.98L1044.7,393.37L1002.28,368.89C1001.11,351.41 994.84,338.54 985.11,331.18L1056.01,208.89C1083.81,226.85 1101.24,261.87 1102.56,310.98L1102.57,310.98Z" style="fill:rgb(0,106,201);fill-rule:nonzero;"/>
        <path d="M1098.43,233.36L1056.01,208.89L985.11,331.18L1027.53,355.68L1098.43,233.36Z" style="fill:rgb(0,72,2);fill-rule:nonzero;"/>
        <path d="M1048.53,204.62L1090.95,229.05L977.61,326.85C966.32,322.21 951.92,323.31 936.12,331.1L936.12,216.09C979.59,192.52 1018.97,189.76 1048.53,204.62Z" style="fill:rgb(87,177,84);fill-rule:nonzero;"/>
        <path d="M936.12,216.08L978.56,240.58L978.56,355.66L936.12,331.16L936.12,216.08Z" style="fill:rgb(0,149,59);fill-rule:nonzero;"/>
        <path d="M925.53,222.2L967.95,246.65L925.53,337.23C908.86,348.79 894.74,363.67 884.06,380.92L813.14,340.51C842.64,291.53 882.08,248.85 925.53,222.2Z" style="fill:rgb(250,184,58);fill-rule:nonzero;"/>
        <path d="M876.56,393.87C866.83,412.45 860.56,432.57 859.39,451.39L801.52,533.78L759.1,509.28C760.42,458.65 777.85,403.41 805.63,353.44L876.55,393.87L876.56,393.87Z" style="fill:rgb(234,81,89);fill-rule:nonzero;"/>
        <path d="M1145.01,335.47L1044.7,393.36C1043.53,375.91 1037.26,363.03 1027.53,355.68L1098.43,233.45C1126.25,251.26 1143.69,286.28 1145.01,335.47Z" style="fill:rgb(0,123,255);fill-rule:nonzero;"/>
        <path d="M1090.95,229.05L1020.05,351.41C1008.74,346.77 994.36,347.87 978.56,355.66L978.56,240.58C1022.01,217.01 1061.41,214.25 1090.95,229.05Z" style="fill:rgb(40,167,69);fill-rule:nonzero;"/>
        <path d="M967.95,246.66L967.95,361.78C952.17,372.24 937.79,387.73 926.48,405.43L855.56,365.02C885.12,316.04 924.5,273.32 967.95,246.67L967.95,246.66Z" style="fill:rgb(255,166,0);fill-rule:nonzero;"/>
        <path d="M918.97,418.35C909.24,436.93 902.97,457.05 901.8,475.87L801.52,533.76C802.84,483.13 820.27,427.89 848.05,377.92L918.97,418.35Z" style="fill:rgb(220,53,69);fill-rule:nonzero;"/>
        <path d="M1021.35,412.93C1021.35,443.42 999.82,480.55 973.26,495.89C946.69,511.23 925.17,498.95 925.17,468.46C925.17,437.97 946.7,400.84 973.26,385.5C974.51,384.77 975.77,384.11 977,383.52L1008.06,258.63L1010.09,258.06L993.89,378.92C1010.13,378.41 1021.36,390.94 1021.36,412.93L1021.35,412.93Z" style="fill:white;fill-rule:nonzero;"/>
    </g>
</svg>
