<?xml version="1.0" encoding="UTF-8" standalone="no"?>
<!DOCTYPE svg PUBLIC "-//W3C//DTD SVG 1.1//EN" "http://www.w3.org/Graphics/SVG/1.1/DTD/svg11.dtd">
<svg width="100%" height="100%" viewBox="0 0 1920 1080" version="1.1" xmlns="http://www.w3.org/2000/svg" xmlns:xlink="http://www.w3.org/1999/xlink" xml:space="preserve" xmlns:serif="http://www.serif.com/" style="fill-rule:evenodd;clip-rule:evenodd;stroke-miterlimit:10;">
    <g>
        <g>
            <g>
                <g>
                    <g>
                        <path d="M1274.1,300.5C1448.5,433 1449.2,647.5 1276.2,779.5C1103.2,911.6 820.2,911.6 645.8,779.5C471.4,647.4 470.7,432.5 643.8,300.4C816.9,168.3 1099.8,168.4 1274.1,300.5Z" style="fill:none;fill-rule:nonzero;stroke:black;stroke-width:1px;"/>
                        <path d="M1400,204.5C1644.3,390.1 1645.2,690.5 1402.9,875.5C1160.6,1060.5 764.1,1060.5 519.9,875.5C275.7,690.5 274.7,389.4 517.1,204.3C759.5,19.2 1155.8,19.5 1400,204.5Z" style="fill:none;fill-rule:nonzero;stroke:black;stroke-width:1px;"/>
                        <path d="M1534.3,102.2C1853.1,344.5 1854.3,736.5 1538.1,978C1221.9,1219.5 704.4,1219.5 385.7,978C67,736.5 65.6,343.5 382,102C698.3,-139.5 1215.6,-139.3 1534.3,102.2Z" style="fill:none;fill-rule:nonzero;stroke:black;stroke-width:1px;"/>
                        <path d="M1694.8,-20.2C2102.7,289.8 2104.3,791.3 1699.7,1100.3C1295.1,1409.2 633,1409.2 225.2,1100.3C-182.6,791.4 -184.3,288.5 220.5,-20.4C625.2,-329.3 1287,-329.1 1694.8,-20.2Z" style="fill:none;fill-rule:nonzero;stroke:black;stroke-width:1px;"/>
                    </g>
                </g>
            </g>
            <g>
                <path d="M1219.1,554.7L1219.8,556.9L1220.1,558L1220.8,560.2L1221.1,561.4L1221.8,563.6L1222.1,564.7L1222.8,566.9L1223.2,568.1L1223.9,570.3L1224.3,571.4L1225.7,575.8L1226,576.9C1216.4,546.4 1191.3,517.2 1150.5,493.7C1044.5,432.3 872.5,432.3 767.1,493.7C727.3,516.8 702.6,545.4 693.1,575.4L693.8,573.2L694.2,572L694.9,569.8L695.2,568.7L695.9,566.5L696.3,565.4L697.7,561L698.1,559.9L699.5,555.5L699.9,554.3L700.2,553.2C709.6,524 733.6,496.2 772.3,473.7C874.7,414.1 1042.2,414.1 1145.4,473.7C1185.4,496.7 1209.9,525 1219.1,554.7Z" style="fill-rule:nonzero;"/>
                <path d="M823.3,403.1C849.5,387.9 870.9,400.1 871,430.3C871.1,460.5 849.9,497.2 823.6,512.2C797.3,527.2 776,515.2 775.9,485C775.8,454.8 797.1,418.2 823.3,403.1Z" style="fill:rgb(255,170,5);fill-rule:nonzero;"/>
                <path d="M823.3,403.1C849.5,387.9 870.9,400.1 871,430.3C871.1,460.5 849.9,497.2 823.6,512.2C797.3,527.2 776,515.2 775.9,485C775.8,454.8 797.1,418.2 823.3,403.1Z" style="fill:rgb(255,170,5);fill-rule:nonzero;"/>
                <path d="M865.2,385.9L849.1,413.7C852.7,415.8 855,421.9 855,430.3C855,454.9 837,486.1 815.7,498.4C808.3,502.5 801.7,503.9 798,501.8L797.6,501.6L797.9,501.8L781.8,529.6C788,533.1 795.1,535 802.3,534.9C812.7,534.6 822.8,531.7 831.7,526.3C862.9,508.3 887.2,466.1 887.1,430.3C887.1,410 879.1,393.9 865.2,385.9Z" style="fill-rule:nonzero;"/>
                <path d="M1235,604.9L1230.9,617.2C1229.8,620.6 1228.7,623.9 1227.7,627.3C1218,657.4 1193.2,686.2 1153.1,709.5C1047,771.1 873.9,771.1 767.2,709.5C726.2,685.8 700.9,656.5 691.2,625.8L684.2,603.3C694.1,634.8 720.1,664.9 762.2,689.3C871.8,752.6 1049.5,752.6 1158.4,689.3C1199.6,665.4 1225.1,635.9 1235,604.9Z" style="fill:rgb(28,28,28);fill-rule:nonzero;"/>
                <path d="M1228.4,429.2L1229.1,431.4L1229.5,432.5L1230.2,434.7L1230.6,435.8L1231.3,438L1231.7,439.2L1232.4,441.4L1232.7,442.5L1233.4,444.7L1233.7,445.9L1234.4,448.1L1234.7,449.2L1235.4,451.4C1251.2,501.9 1225.7,555.9 1158.7,594.9C1049.8,658.2 872,658.2 762.5,594.9C694.3,555.5 668.3,500.7 684.7,449.8L685.4,447.6L685.8,446.4L686.5,444.2L686.8,443L687.5,440.8L687.9,439.7L691.4,428.7L691.7,427.5C675.8,477.2 701.1,530.5 767.5,568.9C874.3,630.3 1047.4,630.3 1153.4,568.9C1219,531.1 1243.9,478.4 1228.4,429.2Z" style="fill:rgb(255,166,0);fill-rule:nonzero;"/>
                <path d="M1152.3,346.2C1259.1,408 1259.5,508 1153.6,569.7C1047.7,631.4 874.4,631.3 767.7,569.7C661,508.1 660.5,407.8 766.5,346.2C872.5,284.6 1045.6,284.6 1152.3,346.2Z" style="fill:rgb(250,184,58);fill-rule:nonzero;"/>
                <path d="M1159.9,511.1C1169.7,498.7 1176,485.6 1178.6,472.3C1173.2,444.5 1152,417.5 1115.1,396.2C1086.8,380.5 1055.9,369.8 1024,364.5L1024.1,364.5C948.6,351.1 863.2,361.7 803.8,396.2C767.8,417.1 747.1,443.5 741.5,470.8C734.4,433.8 755.2,395.4 804,367.2C889.6,317.7 1029.1,317.4 1115.3,367.2C1182.5,406 1197.6,464 1159.9,511.1Z" style="fill:rgb(51,51,51);fill-rule:nonzero;"/>
                <path d="M1178.6,472.3C1176,485.6 1169.8,498.8 1159.9,511.1C1159.2,511.9 1158.6,512.7 1157.9,513.5C1157.6,513.9 1157.2,514.3 1156.9,514.7C1155.9,515.9 1154.8,517.1 1153.7,518.2C1143.9,528.7 1131.4,538.4 1116.2,547.3C1030.6,596.8 891,597.1 805,547.3C768.2,526 747.1,499.1 741.6,471.3C741.6,471.1 741.5,471 741.5,470.8C747.1,443.5 767.8,417.1 803.8,396.2C863.2,361.7 948.6,351.2 1024.1,364.5L1024,364.5C1056,369.7 1086.8,380.5 1115.1,396.2C1152,417.4 1173.2,444.4 1178.6,472.3Z" style="fill:rgb(28,28,28);fill-rule:nonzero;"/>
                <path d="M1240.2,481.3L1239.9,582.6C1239.9,623.9 1212.7,665.1 1158.6,696.5C1049.7,759.8 871.9,759.8 762.4,696.5C707.2,664.6 679.7,622.8 679.8,580.9L680.1,479.6C680.1,521.4 707.5,563.3 762.7,595.2C872.3,658.5 1050,658.5 1158.9,595.2C1212.8,563.8 1239.9,522.6 1240.2,481.3Z" style="fill:rgb(242,142,0);fill-rule:nonzero;"/>
                <path d="M981.6,475.5C980.9,472.5 978.9,469.9 976.1,468.7C967.9,464.5 958.1,464.5 949.9,468.7C949.4,469 949,469.3 948.6,469.6L922.4,464.9L839.1,450.2L817.6,446.4L838.4,451.3L919.2,470.3L944.7,476.3C944.9,479.7 947.1,482.8 950.3,484.1C958.5,488.3 968.3,488.3 976.5,484.1L976.8,484.1L1021.1,494.5L1027.5,484.1L981.6,475.5Z" style="fill-rule:nonzero;"/>
                <path d="M852.5,413.4C822.7,431 808,454 808.4,476.9L830.9,476.9C830.9,467.9 833.3,459 838,451.3L817.2,446.4L838.7,450.2C846.3,438.7 856.6,429.3 868.7,422.6C894.2,407.5 927.8,399.9 961.6,399.8L961.4,386.8C921.8,386.8 882.4,395.9 852.5,413.4" style="fill:rgb(255,146,176);fill-rule:nonzero;"/>
                <path d="M808.4,476.9C808.8,499.9 824.3,522.8 854.9,540.1C885.5,557.4 925.4,566.1 965.1,565.9L964.9,552.9C930.9,553.1 896.8,545.8 870.7,530.9C844.6,516 831.3,496.5 831,476.9L808.4,476.9" style="fill:rgb(255,170,5);fill-rule:nonzero;"/>
                <path d="M961.3,386.7L961.5,399.7C995.4,399.7 1029.4,406.9 1055.5,421.7C1081.6,436.6 1094.7,455.9 1095.2,475.4L1117.7,475.4C1117.2,452.6 1101.7,429.8 1071.3,412.5C1040.8,395.2 1001,386.6 961.3,386.7" style="fill:rgb(255,90,135);fill-rule:nonzero;"/>
                <path d="M808.4,476.9C808.8,499.9 824.3,522.8 854.9,540.1C885.5,557.4 925.4,566.1 965.1,565.9L964.9,552.9C930.9,553.1 896.8,545.8 870.7,530.9C844.6,516 831.3,496.5 831,476.9L808.4,476.9" style="fill:rgb(220,53,69);fill-rule:nonzero;"/>
                <path d="M852.5,413.4C822.7,431 808,454 808.4,476.9L830.9,476.9C830.9,467.9 833.3,459 838,451.3L838.7,450.2C846.3,438.7 856.6,429.3 868.7,422.6C894.2,407.5 927.8,399.9 961.6,399.8L961.4,386.8C921.8,386.8 882.4,395.9 852.5,413.4" style="fill:rgb(255,166,0);fill-rule:nonzero;"/>
                <path d="M961.3,386.7L961.5,399.7C995.4,399.7 1029.4,406.9 1055.5,421.7C1081.6,436.6 1094.7,455.9 1095.2,475.4L1117.7,475.4C1117.2,452.6 1101.7,429.8 1071.3,412.5C1040.8,395.2 1001,386.6 961.3,386.7" style="fill:rgb(40,167,69);fill-rule:nonzero;"/>
                <path d="M981.6,466.5C980.9,463.5 978.9,460.9 976.1,459.6C967.9,455.4 958.1,455.4 949.9,459.6L948.6,460.5L922.4,455.8L839.1,441.1L817.4,437.4L838.2,442.3L919.2,461.3L944.7,467.3C944.9,470.7 947.1,473.7 950.3,475.1C958.5,479.3 968.3,479.3 976.5,475.1L976.8,475.1L1021.1,485.5L1027.5,475.1L981.6,466.5Z" style="fill:white;fill-rule:nonzero;"/>
            </g>
        </g>
    </g>
</svg>
