<?xml version="1.0" encoding="UTF-8" standalone="no"?>
<!DOCTYPE svg PUBLIC "-//W3C//DTD SVG 1.1//EN" "http://www.w3.org/Graphics/SVG/1.1/DTD/svg11.dtd">
<svg width="100%" height="100%" viewBox="0 0 1920 1080" version="1.1" xmlns="http://www.w3.org/2000/svg" xmlns:xlink="http://www.w3.org/1999/xlink" xml:space="preserve" xmlns:serif="http://www.serif.com/" style="fill-rule:evenodd;clip-rule:evenodd;stroke-miterlimit:10;">
    <g>
        <g>
            <path d="M1015.8,919.6L1076.1,919.1L1381.5,766.4L1211.8,681.8L915,686L1015.8,919.6Z" style="fill:rgb(230,230,230);fill-rule:nonzero;"/>
            <path d="M610.1,616.8L1015.9,919.6L1321.3,766.9L1321.3,535.5L557.8,459.2L610.1,616.8Z" style="fill:rgb(255,166,0);fill-rule:nonzero;"/>
            <path d="M557.8,690.5L1015.9,919.6L1015.9,673L970.1,535.5L557.8,459.2L557.8,690.5Z" style="fill:rgb(250,184,58);fill-rule:nonzero;"/>
            <path d="M557.8,459.2L1015.9,685.8L1321.3,535.6C1321.3,535.6 1290.7,520.4 1260.2,505.1L863.2,306.5L557.8,459.2Z" style="fill:rgb(242,142,0);fill-rule:nonzero;"/>
            <path d="M1320,611.2L1014.6,764C1024.7,769 1035.7,771.9 1047,772.3L1352.4,619.7C1352.4,619.6 1334.2,619 1320,611.2Z" style="fill:rgb(242,142,0);fill-rule:nonzero;"/>
            <path d="M1321.3,697.8L1321.1,718.4L1101.4,828.6C1150.9,816.7 1358.7,714.1 1358.7,714.1C1358.7,714.1 1337.1,707.8 1321.3,697.8Z" style="fill-rule:nonzero;"/>
            <path d="M557.8,599.7L1010.3,825.7C995,831 995.6,838.9 995.6,838.9L538.6,616.9C538.5,616.8 542.2,604.5 557.8,599.7Z" style="fill-rule:nonzero;"/>
            <path d="M774.5,613.3L1015.9,734L1130.2,676.9L1006.5,756L774.5,613.3Z" style="fill:white;fill-rule:nonzero;"/>
            <g>
                <path d="M574.7,451.6C574.7,451.6 910.4,641.2 941,656.5C971.5,671.7 1003.2,685.8 1003.2,685.8L1315.4,509.9C1315.4,509.9 1290.9,520.3 1260.3,505C1243.6,496.7 1133.7,440 1037.2,390.2C1030.1,386.5 1014.7,369.9 1014.7,369.9C1014.7,369.9 994.1,368 983.7,362.7L885.7,312.1L574.7,451.6Z" style="fill:rgb(245,245,247);fill-rule:nonzero;"/>
                <g transform="matrix(0.8409,-0.4251,0.8873,0.4612,721.025,433.948)">
                    <g transform="matrix(34.6774,0,0,34.6774,0,0)">
                        <path d="M0.496,-0L0.098,-0L0.098,-0.714L0.496,-0.714L0.496,-0.64L0.181,-0.64L0.181,-0.41L0.477,-0.41L0.477,-0.337L0.181,-0.337L0.181,-0.074L0.496,-0.074L0.496,-0Z" style="fill-rule:nonzero;"/>
                    </g>
                    <g transform="matrix(34.6774,0,0,34.6774,19.2859,0)">
                        <rect x="0.086" y="-0.76" width="0.081" height="0.76" style="fill-rule:nonzero;"/>
                    </g>
                    <g transform="matrix(34.6774,0,0,34.6774,28.0569,0)">
                        <path d="M0.312,0.01C0.233,0.01 0.17,-0.014 0.125,-0.063C0.079,-0.111 0.056,-0.178 0.056,-0.263C0.056,-0.349 0.077,-0.418 0.12,-0.469C0.162,-0.52 0.219,-0.545 0.291,-0.545C0.358,-0.545 0.411,-0.523 0.45,-0.479C0.489,-0.435 0.509,-0.376 0.509,-0.304L0.509,-0.253L0.14,-0.253C0.142,-0.19 0.158,-0.142 0.188,-0.11C0.218,-0.077 0.26,-0.061 0.315,-0.061C0.373,-0.061 0.43,-0.073 0.486,-0.097L0.486,-0.025C0.457,-0.013 0.43,-0.004 0.405,0.002C0.379,0.007 0.348,0.01 0.312,0.01ZM0.29,-0.477C0.247,-0.477 0.213,-0.463 0.187,-0.435C0.162,-0.407 0.147,-0.368 0.142,-0.319L0.422,-0.319C0.422,-0.37 0.41,-0.409 0.388,-0.436C0.365,-0.463 0.332,-0.477 0.29,-0.477Z" style="fill-rule:nonzero;"/>
                    </g>
                    <g transform="matrix(34.6774,0,0,34.6774,47.5121,0)">
                        <path d="M0.768,-0L0.768,-0.348C0.768,-0.391 0.759,-0.423 0.741,-0.444C0.722,-0.465 0.694,-0.476 0.656,-0.476C0.605,-0.476 0.568,-0.462 0.544,-0.433C0.52,-0.404 0.508,-0.359 0.508,-0.299L0.508,-0L0.427,-0L0.427,-0.348C0.427,-0.391 0.418,-0.423 0.399,-0.444C0.381,-0.465 0.353,-0.476 0.314,-0.476C0.263,-0.476 0.226,-0.461 0.202,-0.43C0.179,-0.4 0.167,-0.35 0.167,-0.281L0.167,-0L0.086,-0L0.086,-0.535L0.152,-0.535L0.165,-0.462L0.169,-0.462C0.184,-0.488 0.206,-0.508 0.234,-0.523C0.261,-0.538 0.293,-0.545 0.327,-0.545C0.411,-0.545 0.465,-0.515 0.491,-0.454L0.495,-0.454C0.511,-0.482 0.534,-0.504 0.564,-0.521C0.595,-0.537 0.629,-0.545 0.668,-0.545C0.729,-0.545 0.774,-0.529 0.804,-0.498C0.834,-0.467 0.849,-0.417 0.849,-0.349L0.849,-0L0.768,-0Z" style="fill-rule:nonzero;"/>
                    </g>
                    <g transform="matrix(34.6774,0,0,34.6774,79.7682,0)">
                        <path d="M0.312,0.01C0.233,0.01 0.17,-0.014 0.125,-0.063C0.079,-0.111 0.056,-0.178 0.056,-0.263C0.056,-0.349 0.077,-0.418 0.12,-0.469C0.162,-0.52 0.219,-0.545 0.291,-0.545C0.358,-0.545 0.411,-0.523 0.45,-0.479C0.489,-0.435 0.509,-0.376 0.509,-0.304L0.509,-0.253L0.14,-0.253C0.142,-0.19 0.158,-0.142 0.188,-0.11C0.218,-0.077 0.26,-0.061 0.315,-0.061C0.373,-0.061 0.43,-0.073 0.486,-0.097L0.486,-0.025C0.457,-0.013 0.43,-0.004 0.405,0.002C0.379,0.007 0.348,0.01 0.312,0.01ZM0.29,-0.477C0.247,-0.477 0.213,-0.463 0.187,-0.435C0.162,-0.407 0.147,-0.368 0.142,-0.319L0.422,-0.319C0.422,-0.37 0.41,-0.409 0.388,-0.436C0.365,-0.463 0.332,-0.477 0.29,-0.477Z" style="fill-rule:nonzero;"/>
                    </g>
                    <g transform="matrix(34.6774,0,0,34.6774,99.2234,0)">
                        <path d="M0.452,-0L0.452,-0.346C0.452,-0.39 0.442,-0.422 0.422,-0.444C0.403,-0.465 0.371,-0.476 0.329,-0.476C0.273,-0.476 0.232,-0.461 0.206,-0.431C0.18,-0.4 0.167,-0.35 0.167,-0.281L0.167,-0L0.086,-0L0.086,-0.535L0.152,-0.535L0.165,-0.462L0.169,-0.462C0.186,-0.488 0.209,-0.509 0.239,-0.523C0.269,-0.538 0.302,-0.545 0.339,-0.545C0.403,-0.545 0.452,-0.529 0.484,-0.498C0.517,-0.467 0.533,-0.417 0.533,-0.349L0.533,-0L0.452,-0Z" style="fill-rule:nonzero;"/>
                    </g>
                    <g transform="matrix(34.6774,0,0,34.6774,120.507,0)">
                        <path d="M0.259,-0.057C0.273,-0.057 0.287,-0.058 0.3,-0.06C0.314,-0.062 0.324,-0.065 0.332,-0.067L0.332,-0.005C0.323,-0.001 0.31,0.003 0.293,0.006C0.276,0.008 0.261,0.01 0.247,0.01C0.144,0.01 0.092,-0.045 0.092,-0.154L0.092,-0.472L0.015,-0.472L0.015,-0.511L0.092,-0.545L0.126,-0.659L0.173,-0.659L0.173,-0.535L0.328,-0.535L0.328,-0.472L0.173,-0.472L0.173,-0.157C0.173,-0.125 0.181,-0.1 0.196,-0.083C0.211,-0.066 0.232,-0.057 0.259,-0.057Z" style="fill-rule:nonzero;"/>
                    </g>
                    <g transform="matrix(34.6774,0,0,34.6774,132.749,0)">
                        <path d="M0.548,-0.268C0.548,-0.181 0.526,-0.113 0.482,-0.064C0.438,-0.015 0.377,0.01 0.3,0.01C0.252,0.01 0.209,-0.001 0.172,-0.024C0.135,-0.046 0.107,-0.079 0.086,-0.121C0.066,-0.163 0.056,-0.212 0.056,-0.268C0.056,-0.355 0.078,-0.423 0.122,-0.472C0.165,-0.521 0.226,-0.545 0.303,-0.545C0.378,-0.545 0.438,-0.52 0.482,-0.47C0.526,-0.42 0.548,-0.353 0.548,-0.268ZM0.14,-0.268C0.14,-0.2 0.154,-0.148 0.181,-0.112C0.208,-0.076 0.249,-0.058 0.302,-0.058C0.355,-0.058 0.395,-0.076 0.423,-0.112C0.45,-0.147 0.464,-0.199 0.464,-0.268C0.464,-0.336 0.45,-0.388 0.423,-0.423C0.395,-0.458 0.354,-0.476 0.301,-0.476C0.248,-0.476 0.208,-0.459 0.181,-0.424C0.154,-0.389 0.14,-0.337 0.14,-0.268Z" style="fill-rule:nonzero;"/>
                    </g>
                </g>
                <path d="M846.4,547.3C842,547.3 837.7,545.7 834.3,542.8C819.4,531 810.8,519.2 809.5,508.7C809.5,508.3 809.7,507.9 810.2,507.9C810.6,507.9 811,508.1 811,508.5C812.2,518.6 820.6,530.1 835.2,541.6C836.7,542.9 838.4,543.9 840.2,544.6C846.4,546.9 851.9,545.4 853.5,543.4C858.9,536.8 856.6,528 846.9,518.5C846.6,518.2 846.6,517.8 846.9,517.5C847.2,517.2 847.6,517.2 847.9,517.5C852.5,521.1 857.6,524.1 863,526.3C861.7,524.2 859.8,522.5 857.6,521.3C856.8,520.9 855.9,520.5 855.2,520C854.9,519.8 854.8,519.3 855,519C855.2,518.7 855.6,518.6 855.9,518.7C856.7,519.1 857.6,519.5 858.3,520C867.4,524.3 882,525.6 887.4,523.2C889,522.7 890.3,521.4 890.8,519.8C891.4,517.6 890.3,514.6 887.7,510.7C887.5,510.4 887.5,509.9 887.9,509.7C888.1,509.6 888.4,509.5 888.6,509.6C893.4,511.4 898.7,510.8 899.9,509.5C900.4,508.7 900.7,507.8 900.7,506.9C900.7,505.9 901,504.9 901.4,504C902.9,501.5 907.5,500.4 912.3,499.2C913.4,498.9 914.5,498.7 915.5,498.4C919.5,497.3 921.9,495.9 922.3,494.5C922.4,493.5 922.1,492.6 921.3,491.9C921,491.6 921,491.1 921.3,490.9C921.6,490.7 922,490.6 922.2,490.8C926.3,493.7 934.9,493.2 936.1,491.6C936.5,491 936.8,490.3 936.9,489.6C937.3,487.2 939.3,485.3 941.8,485.2C943.6,485 945.3,484.9 947.1,485L950.4,485C953.9,484.9 956.2,483.9 956.6,482.4C956.9,480.9 955.7,478.8 951.3,476.5C951,476.3 950.8,476 951,475.6C951.1,475.3 951.5,475.1 951.8,475.1C964,477.5 972.5,475.1 977,468.1C977.3,467.8 977.7,467.7 978,468C978.3,468.2 978.3,468.6 978.2,468.9C973.7,475.8 965.9,478.5 954.9,477.1C957.3,479 958.3,480.9 958,482.7C957.5,484.9 954.7,486.3 950.5,486.5L947.1,486.5C945.4,486.4 943.7,486.5 942,486.7C940.1,486.7 938.5,488.2 938.3,490.1C938.1,491 937.7,491.8 937.3,492.5C935.8,494.7 928.5,495.1 923.7,493.3C923.8,493.8 923.8,494.4 923.7,494.9C923.1,496.9 920.5,498.6 915.8,499.8C914.8,500.1 913.7,500.4 912.6,500.6C908.3,501.6 903.8,502.7 902.6,504.7C902.3,505.4 902.1,506.2 902.1,507C902.1,508.3 901.7,509.5 901,510.5C899.5,512.1 894.8,512.8 890.1,511.6C892.2,515.1 892.9,517.9 892.3,520.1C891.6,522.1 890.1,523.7 888.1,524.4C883.3,526.5 871.9,525.9 862.8,523.1C864.1,524.2 864.8,525.7 864.9,527.4C864.9,527.6 864.8,527.9 864.6,528C864.4,528.1 864.1,528.1 863.9,528C860,526.4 856.2,524.5 852.6,522.3C858.9,530.5 859.8,538.3 854.9,544.3C853.5,546 850.4,547.4 846.4,547.3Z" style="fill-rule:nonzero;"/>
                <path d="M1024.5,463.7L1024.2,463.7C1012.8,458.4 1002,452.8 991.9,447.2L1001.1,456.4C1001.9,457.1 1002.3,458.2 1001.9,459.2C1001.6,459.8 1000.7,460.3 998.7,459.8C998.3,459.8 998,459.4 998,459C998.1,458.6 998.4,458.3 998.8,458.4L999,458.4C1000.1,458.7 1000.5,458.5 1000.5,458.4C1000.5,458.3 1000.5,457.9 999.9,457.4L987.1,444.4C986.9,444.1 986.9,443.7 987.1,443.4C987.3,443.1 987.7,443 988,443.2C999.1,449.6 1011.2,455.9 1024.1,462C1024,460.9 1021.7,459 1019.7,457.4C1017.3,455.5 1015.1,453.6 1014.5,451.9C1013.6,448.8 1017.7,447.5 1021.6,446.2C1024.2,445.4 1027.1,444.4 1027.5,443.2C1027.5,443.1 1027.7,442.7 1027.2,442C1026.8,441.5 1026.3,440.9 1025.8,440.5C1024.6,439.3 1023.4,438.1 1023.9,436.9C1024.2,436 1025.4,435.6 1026.5,435.2C1035.9,432.1 1044.7,427.7 1052.9,422.1C1053.2,421.9 1053.7,422 1053.9,422.3C1054.1,422.6 1054.1,423.1 1053.8,423.3C1045.5,428.9 1036.6,433.4 1027.1,436.5C1026.5,436.7 1025.5,437.1 1025.4,437.4C1025.3,437.7 1026.5,438.9 1026.9,439.4C1027.5,439.9 1028,440.5 1028.4,441.1C1029,441.8 1029.2,442.8 1028.9,443.6C1028.3,445.5 1025.2,446.5 1022,447.5C1018.8,448.5 1015.4,449.7 1015.8,451.4C1016.2,452.7 1018.4,454.5 1020.4,456.2C1023,458.3 1025.2,460.1 1025.3,461.8C1025.3,462.4 1025.2,462.9 1024.8,463.3C1024.9,463.5 1024.7,463.7 1024.5,463.7Z" style="fill-rule:nonzero;"/>
                <path d="M909.6,582C908.7,582 908,582 907.6,581.9C898.2,580.9 888.7,575.7 886.7,571.7C885.1,568.5 886.9,566 889.2,564.3L874.3,554.8C874,554.5 873.9,554.1 874.2,553.8C874.4,553.5 874.8,553.5 875.1,553.6L890.5,563.5C891.3,563 892,562.6 892.7,562.2C900,558.2 909.1,555 918.5,551.9C917.4,551.1 916.8,550 916.7,548.7C916.7,548 917.1,546.8 919.4,546.2C922.9,545.9 924.9,546.2 926,547.2C926.8,548 927.1,549.2 926.9,550.3C926.9,550.6 926.7,550.9 926.4,551L921.9,552.5C922.9,553 923.9,553.5 925,553.8C932.9,549.5 935.7,543 932.7,535.8C932.6,535.6 932.6,535.4 932.7,535.2C932.8,535 933,534.9 933.2,534.8C944.3,532.9 950.4,528.3 949.5,522.3C949.5,522 949.6,521.8 949.8,521.6C950,521.4 950.3,521.4 950.5,521.5L966.6,528.6C965.4,527 964.9,525.1 965.2,523.1C965.6,521.6 966.9,519.3 971.2,517.9C971.6,517.8 972,518.1 972.1,518.5C972.2,518.8 972,519.2 971.7,519.3C968.8,520.2 967.1,521.7 966.6,523.5C966.2,525.3 967.3,527.7 969.7,530.1C969.9,530.3 970,530.8 969.8,531C969.6,531.3 969.2,531.4 968.9,531.3L951,523.4C951,529.5 944.9,534.2 934.2,536.1C936.9,543.9 933.8,550.7 925.2,555.3C925,555.4 924.8,555.4 924.6,555.3C922.9,554.8 921.3,554 919.8,553.1C910.2,556.2 900.7,559.5 893.3,563.6L891.8,564.5L911.4,577.1C912.4,577.6 913.3,578.3 914,579.2C914.4,579.7 914.4,580.4 914.1,580.9C913.4,581.8 911.2,582 909.6,582ZM890.4,565.2C887.6,567.2 886.9,569 887.9,571.1C889.7,574.6 898.9,579.6 907.7,580.5C910.9,580.8 912.6,580.3 912.8,580L912.7,579.9C912,579.2 911.3,578.7 910.5,578.2L890.4,565.2ZM921.6,547.5C921,547.5 920.3,547.5 919.5,547.6C919,547.7 918,548 918,548.7C918,549.4 918.6,550.2 920,551.3L925.2,549.6C925.2,549.1 925.1,548.6 924.7,548.2C923.8,547.7 922.7,547.4 921.6,547.5Z" style="fill-rule:nonzero;"/>
                <path d="M1010.6,511.6L1010.3,511.5C1000.4,507 992.4,501.9 987.2,496.9C986.9,496.6 987,496.1 987.3,495.9C987.6,495.7 988,495.7 988.2,495.9C993.3,500.8 1001.1,505.7 1010.8,510.2C1011.6,510.2 1012.1,509.9 1012.3,509.7C1012.6,509.1 1011.9,507.9 1011.4,506.9C1010.2,504.9 1009.9,502.5 1010.6,500.3C1011.5,497.9 1014,495.9 1017.6,494.6L1018,494.6C1025.5,496.6 1031.2,495.2 1032.3,493.5C1033.5,491.5 1031.1,488.3 1029.2,485.8C1029,485.5 1029,485.2 1029.2,484.9C1029.4,484.7 1029.8,484.6 1030.1,484.7C1035,487.2 1042,487.1 1044.4,485.8C1045.4,485.2 1046.3,484.4 1046.9,483.5C1047.7,482.3 1048.9,481.3 1050.2,480.6C1052.3,479.8 1054.5,479.2 1056.8,478.9C1058.2,478.7 1059.6,478.4 1060.8,478.1C1063.5,477.4 1066,476.2 1068.3,474.7L1069.1,474.2C1079.7,467.9 1093.4,462.9 1109.9,459.3C1110.3,459.3 1110.7,459.6 1110.7,460C1110.7,460.3 1110.5,460.6 1110.2,460.8C1093.9,464.4 1080.3,469.3 1069.8,475.5L1069,476C1066.6,477.6 1063.9,478.8 1061.1,479.6C1059.8,479.9 1058.4,480.2 1057,480.4C1054.9,480.7 1052.8,481.2 1050.8,481.9C1049.7,482.5 1048.7,483.3 1048,484.3C1047.2,485.4 1046.2,486.3 1045,487C1042.5,488.3 1036.5,488.4 1031.7,486.9C1033.4,489.4 1034.7,492 1033.3,494.2C1031.6,497 1024.6,497.8 1017.6,496C1014.5,497.2 1012.4,498.8 1011.6,500.8C1011,502.6 1011.2,504.5 1012.2,506C1013,507.5 1013.9,509.1 1013.2,510.3C1012.9,511.2 1011.8,511.7 1010.6,511.6Z" style="fill-rule:nonzero;"/>
                <path d="M984.4,578.6C982.7,578.6 981,578.4 979.4,578C977.7,577.5 976.1,576.6 974.6,575.6C970.2,572.5 965.2,568.4 966,565.4C966.4,564 967.8,563.2 970.3,563C970.5,563 970.7,563 970.8,563.2C973.7,565.2 976.2,567.8 977.9,570.9C978.1,571.3 977.9,571.7 977.6,571.9C977.2,572.1 976.8,571.9 976.6,571.6C975,568.8 972.8,566.4 970.1,564.5C968.6,564.7 967.5,565.2 967.4,565.8C967,567.3 970.1,570.7 975.4,574.4C976.7,575.4 978.2,576.1 979.7,576.6C981.3,577 983,577.2 984.7,577.2C994.9,577.1 1001.7,574.4 1003.1,570C1003.9,567.3 1002.5,564 999.1,560.8C998,560.3 996.9,559.7 995.9,559C995.2,558.5 994.8,557.8 994.7,557C994.7,556.7 994.8,556.5 995.1,556.3C995.3,556.2 995.6,556.2 995.9,556.3C997.4,557.3 998.7,558.4 1000,559.5C1004.2,561.3 1008.7,562.2 1013.2,562C1015.4,561.7 1016.9,561 1017.5,560C1018,558.7 1017.8,557.2 1017.1,556C1016.7,555.1 1016.1,554.2 1015.6,553.3C1014.1,550.9 1012.7,548.4 1013.2,546.2C1013.3,546 1013.4,545.8 1013.6,545.7C1013.8,545.6 1014.1,545.6 1014.3,545.7C1018.8,548.4 1023.9,550.1 1029.1,550.9C1035.2,551.7 1037.6,550.2 1038.5,549.2C1039.3,548.4 1039.6,547.2 1039.4,546.1C1039.2,545.2 1038.9,544.3 1038.6,543.4C1037.7,540.7 1036.7,537.7 1039.3,535.7C1042.2,533.4 1048.5,533.1 1055.3,532.7C1061.3,532.4 1067.5,532 1070.3,530.2C1072.3,528.9 1072.1,526.9 1071.8,524.6C1071.7,523.7 1071.6,522.7 1071.6,521.7C1072,514.9 1081.8,510.6 1096.9,510.4C1097.3,510.4 1097.6,510.7 1097.6,511.1C1097.6,511.5 1097.3,511.8 1096.9,511.8C1082.8,512 1073.4,515.9 1073,521.7C1073,522.6 1073,523.5 1073.1,524.3C1073.4,526.7 1073.7,529.5 1070.9,531.3C1067.8,533.3 1061.7,533.6 1055.2,534C1049,534.3 1042.5,534.7 1040,536.7C1038.3,538 1038.8,539.9 1039.8,542.9C1040.1,543.9 1040.4,544.8 1040.6,545.8C1040.9,547.3 1040.4,548.9 1039.4,550.1C1038,551.5 1035.1,553.1 1028.7,552.2C1023.7,551.5 1018.9,549.9 1014.4,547.4C1014.9,549.2 1015.6,550.9 1016.7,552.4C1017.3,553.3 1017.8,554.2 1018.2,555.2C1019.2,556.8 1019.3,558.8 1018.6,560.5C1017.8,562 1016,563 1013.2,563.3C1009.4,563.5 1005.6,563 1002,561.8C1004.3,564.7 1005.2,567.6 1004.4,570.3C1002.9,575.4 995.6,578.4 984.6,578.5L984.4,578.6Z" style="fill-rule:nonzero;"/>
                <path d="M1016.5,617.8C1015.6,617.8 1014.7,617.7 1013.8,617.6C1011.8,617.2 1009.9,616.5 1008.1,615.6C999.4,611.2 993.8,604.6 993.2,597.8C993.2,597.4 993.4,597 993.8,597C994.2,597 994.6,597.3 994.6,597.7C995.2,603.9 1000.4,610.2 1008.7,614.3C1010.4,615.2 1012.2,615.8 1014,616.2C1019.5,617.1 1025.1,614.8 1028.3,610.2C1030.8,606.2 1031,601.2 1028.8,597.1C1026.6,595.3 1024.8,593.1 1023.6,590.5C1023.4,590.2 1023.6,589.7 1023.9,589.5C1024.2,589.3 1024.5,589.4 1024.8,589.6C1026.9,591.4 1028.7,593.7 1030,596.1C1030.8,596.8 1031.7,597.4 1032.6,598C1033.2,598.4 1033.9,598.8 1034.6,598.9C1036.1,599.1 1037.6,598.7 1038.9,597.9C1044.1,594.8 1047,590.3 1046.7,585.8C1046.7,585.4 1047,585 1047.4,585C1047.8,585 1048.1,585.2 1048.2,585.6C1048.2,586 1048.7,586.3 1049,586.4C1051,587.2 1053.2,587.2 1055.2,586.4C1057.3,585.2 1057.4,583.2 1057.4,581.2C1057.4,581 1057.5,580.7 1057.7,580.6C1057.9,580.5 1058.1,580.4 1058.4,580.5C1061.8,581.4 1065.4,581 1068.6,579.5C1071.8,578.1 1074.7,575.9 1076.8,573.2C1074.1,571.9 1071.8,569.9 1070.3,567.4C1068.8,564.8 1068.7,561.7 1070,559C1072.1,554.6 1077.2,551.1 1083.9,549.9C1084.2,549.8 1084.6,550 1084.7,550.3C1087.2,555.5 1084.9,560.8 1083,565.1C1081.9,567.7 1080.6,570.2 1079.1,572.6C1080.9,573.3 1082.9,573.8 1084.9,574C1088.1,574.2 1091.3,573.8 1094.4,573C1105.6,570.1 1113.6,563.2 1114.3,555.8C1114.5,554.2 1114.3,552.5 1113.7,551C1112.5,550.9 1111.3,550.6 1110.3,550.1C1109,549.6 1108,548.4 1107.7,547C1107.6,546 1108,544.9 1108.8,544.3C1109.1,544.1 1109.4,544.1 1109.7,544.3C1111.8,545.6 1113.5,547.5 1114.7,549.7C1116.3,549.7 1117.9,549.4 1119.5,548.7C1121.6,547.6 1123.3,546.1 1124.7,544.2C1125.2,543.5 1125.8,543.1 1126.5,542.8C1127.7,542.5 1128.9,542.5 1130.1,542.8L1131.3,543C1133.6,543.3 1136,542.6 1137.8,541.1C1139,539.9 1139.8,538.4 1140.1,536.7C1140.2,536 1140.6,535.3 1141.2,535C1141.9,534.7 1142.7,534.5 1143.5,534.5L1143.8,534.5C1147.2,534 1150.5,532.8 1153.4,530.9L1156.4,529.2C1160.6,526.7 1165,524.2 1169.1,521.6C1169.4,521.4 1169.9,521.5 1170.1,521.8C1170.3,522.1 1170.2,522.6 1169.9,522.8C1165.8,525.4 1161.4,527.9 1157.1,530.4L1154.1,532.1C1151,534.1 1147.5,535.4 1143.9,535.9L1143.6,535.9C1143,535.9 1142.4,536 1141.9,536.2C1141.7,536.3 1141.6,536.5 1141.5,537C1141.2,539 1140.2,540.7 1138.8,542.1C1136.6,543.8 1133.9,544.6 1131.2,544.3L1129.9,544.1C1128.9,543.9 1128,543.8 1127,544C1126.5,544.2 1126.1,544.5 1125.8,544.9C1124.3,547 1122.4,548.7 1120.1,549.8C1118.6,550.4 1117,550.8 1115.3,550.9C1115.8,552.5 1116,554.1 1115.8,555.8C1115,563.9 1106.8,571.2 1094.8,574.3C1091.5,575.2 1088.2,575.6 1084.8,575.4C1082.5,575.2 1080.3,574.7 1078.2,573.9C1075.9,577 1072.8,579.5 1069.2,581C1066,582.5 1062.4,582.9 1058.9,582.3C1059,584.5 1057.9,586.7 1055.9,587.8C1053.4,588.9 1050.6,588.9 1048.2,587.8L1048.1,587.7C1047.6,592.1 1044.6,596.2 1039.6,599.2C1038,600.2 1036.1,600.7 1034.3,600.4C1033.4,600.2 1032.5,599.8 1031.8,599.3L1031.1,598.8C1032.4,602.9 1031.9,607.3 1029.6,611C1026.5,615.2 1021.6,617.8 1016.5,617.8ZM1083.6,551.4C1077.8,552.6 1073.2,555.7 1071.4,559.6C1070.3,561.8 1070.4,564.5 1071.6,566.6C1073.1,569 1075.2,570.8 1077.8,572C1079.3,569.6 1080.6,567.1 1081.7,564.5C1083.4,560.6 1085.5,555.8 1083.6,551.4ZM1109.3,545.6C1109.1,545.9 1109,546.3 1109,546.6C1109.2,547.5 1109.9,548.3 1110.8,548.6C1111.4,548.9 1112.1,549.1 1112.8,549.2C1112,547.8 1110.8,546.5 1109.3,545.6Z" style="fill-rule:nonzero;"/>
            </g>
            <path d="M557.8,582L1014.6,806.4" style="fill:none;fill-rule:nonzero;stroke:black;stroke-width:1px;"/>
            <path d="M557.8,651.1L797.9,769" style="fill:none;fill-rule:nonzero;stroke:black;stroke-width:1px;"/>
            <path d="M774.5,779.8L1014.5,897.7" style="fill:none;fill-rule:nonzero;stroke:black;stroke-width:1px;"/>
            <path d="M557.8,552.2L704.9,624.5" style="fill:none;fill-rule:nonzero;stroke:black;stroke-width:1px;"/>
            <path d="M557.8,489.3L852.2,633.9" style="fill:none;fill-rule:nonzero;stroke:black;stroke-width:1px;"/>
            <path d="M1017.5,848.6L1321.3,696.7" style="fill:none;fill-rule:nonzero;stroke:black;stroke-width:1px;"/>
            <path d="M1015.4,806.7L1153.2,737.8" style="fill:none;fill-rule:nonzero;stroke:black;stroke-width:1px;"/>
            <path d="M1183.5,638.4L1321.3,569.5" style="fill:none;fill-rule:nonzero;stroke:black;stroke-width:1px;"/>
            <path d="M1017.5,701.8L1321.3,549.9" style="fill:none;fill-rule:nonzero;stroke:black;stroke-width:1px;"/>
            <g>
                <path d="M1177.6,455.8L1166.9,494.4L1168.5,522.2L1170.5,522.9L1185.6,498.7L1194.4,463.2L1177.6,455.8Z" style="fill:rgb(38,38,38);fill-rule:nonzero;"/>
                <path d="M1184.7,467L1169.2,522.4L1168.5,522.2L1168,512.2L1180.8,465.9L1184.7,467Z" style="fill:rgb(128,128,128);fill-rule:nonzero;"/>
                <g>
                    <path d="M1215.3,388.8L1194.1,474.7C1194,475.2 1193.2,475.5 1191.6,475.5C1187.7,475.6 1180.7,474.1 1175.8,472.2C1172.9,471 1171.4,469.9 1171.6,469.2L1192.8,383.3C1192.6,384 1194.1,385.1 1197,386.3C1201.8,388.3 1208.9,389.8 1212.8,389.6C1214.4,389.5 1215.2,389.2 1215.3,388.8Z" style="fill:rgb(77,77,77);fill-rule:nonzero;"/>
                    <path d="M1211.2,385.8C1216,387.8 1216.8,389.5 1212.9,389.6C1209,389.7 1202,388.2 1197.1,386.3C1192.3,384.3 1191.5,382.6 1195.4,382.5C1199.3,382.4 1206.3,383.8 1211.2,385.8Z" style="fill:rgb(77,77,77);fill-rule:nonzero;"/>
                </g>
                <g>
                    <path d="M1244.5,289.9L1214.9,409.8C1214.7,410.4 1213.6,410.8 1211.5,410.9C1206.1,411.1 1196.3,409 1189.5,406.2C1185.4,404.5 1183.4,403 1183.7,402L1213.3,282.1C1213.1,283.1 1215.1,284.6 1219.1,286.3C1225.8,289 1235.7,291.1 1241.1,291C1243.2,290.9 1244.4,290.5 1244.5,289.9Z" style="fill:rgb(38,38,38);fill-rule:nonzero;"/>
                    <path d="M1238.7,285.7C1245.4,288.4 1246.5,290.8 1241.1,291C1235.7,291.2 1225.9,289.1 1219.1,286.3C1212.4,283.6 1211.3,281.2 1216.7,281C1222.1,280.9 1232,283 1238.7,285.7Z" style="fill:rgb(77,77,77);fill-rule:nonzero;"/>
                </g>
                <g>
                    <path d="M1275.5,170.1L1243,301.6C1242.8,302.3 1241.6,302.8 1239.3,302.8C1233.4,303 1222.6,300.7 1215.2,297.7C1210.7,295.9 1208.5,294.2 1208.8,293.1L1241.2,161.6C1240.9,162.7 1243.1,164.4 1247.6,166.2C1255,169.2 1265.8,171.5 1271.7,171.3C1274.1,171.3 1275.3,170.8 1275.5,170.1Z" style="fill:rgb(77,77,77);fill-rule:nonzero;"/>
                    <g>
                        <path d="M1244,165.8C1243.1,165.4 1242.2,165.2 1241.3,165.4L1235.8,166C1236.7,165.9 1237.6,166 1238.5,166.4C1241.8,167.9 1243.7,172.5 1242.7,176.6L1221.8,263.8C1221.1,266.8 1219.1,268.8 1216.8,269L1222.3,268.4C1224.6,268.1 1226.6,266.2 1227.3,263.2L1248.2,176C1249.1,172 1247.3,167.3 1244,165.8Z" style="fill:rgb(38,38,38);fill-rule:nonzero;"/>
                        <path d="M1238.5,166.5C1241.8,168 1243.7,172.6 1242.7,176.8L1221.8,264C1220.8,268.2 1217.3,270.3 1214,268.8C1210.7,267.3 1208.8,262.7 1209.8,258.5L1230.7,171.3C1231.7,167.1 1235.2,164.9 1238.5,166.5Z" style="fill:rgb(128,128,128);fill-rule:nonzero;"/>
                    </g>
                    <path d="M1269.1,165.6C1276.5,168.6 1277.7,171.2 1271.8,171.4C1265.9,171.6 1255.1,169.3 1247.7,166.3C1240.3,163.3 1239.1,160.7 1245,160.5C1250.9,160.3 1261.7,162.6 1269.1,165.6Z" style="fill:rgb(38,38,38);fill-rule:nonzero;"/>
                </g>
            </g>
        </g>
    </g>
</svg>
