<?xml version="1.0" encoding="UTF-8" standalone="no"?>
<!DOCTYPE svg PUBLIC "-//W3C//DTD SVG 1.1//EN" "http://www.w3.org/Graphics/SVG/1.1/DTD/svg11.dtd">
<svg width="100%" height="100%" viewBox="0 0 1920 1080" version="1.1" xmlns="http://www.w3.org/2000/svg" xmlns:xlink="http://www.w3.org/1999/xlink" xml:space="preserve" xmlns:serif="http://www.serif.com/" style="fill-rule:evenodd;clip-rule:evenodd;stroke-linejoin:round;stroke-miterlimit:2;">
    <g>
        <g>
            <g>
                <path d="M1133.17,283.2L401.2,705.8L214.39,597.95L946.36,175.35L1133.17,283.2Z" style="fill:rgb(51,51,51);fill-rule:nonzero;"/>
                <path d="M214.39,597.95L214.39,717.04L401.2,824.89L401.2,705.8L214.39,597.95Z" style="fill:rgb(28,28,28);fill-rule:nonzero;"/>
                <path d="M401.2,705.8L1133.17,283.2L1133.17,402.29L401.2,824.89L401.2,705.8Z" style="fill-rule:nonzero;"/>
                <g>
                    <path d="M382.63,600.35L331.56,629.84L331.56,626.8L277.62,575.89L328.69,546.41L382.63,597.32L382.63,600.35Z" style="fill:rgb(220,53,69);fill-rule:nonzero;"/>
                    <path d="M331.56,626.8L382.63,597.32L436.58,628.46L385.51,657.95L331.56,626.8Z" style="fill:rgb(234,81,89);fill-rule:nonzero;"/>
                    <path d="M331.56,629.84L331.56,626.8L277.62,575.89L277.62,598.69L331.56,629.84Z" style="fill:rgb(186,22,49);fill-rule:nonzero;"/>
                </g>
                <g>
                    <path d="M1054.42,282.73C1052.44,293.08 1045.48,303.15 1033.49,311.68C1031.38,313.15 1029.12,314.61 1026.73,315.98C1025.54,316.67 1024.34,317.34 1023.11,317.97C1021.85,318.62 1020.57,319.28 1019.26,319.88C1017.7,320.62 1016.1,321.32 1014.47,321.97C976.77,337.52 924.05,335.51 890.23,315.98C874.09,306.66 864.85,294.87 862.54,282.72C859.78,268.29 866.76,253.37 883.47,241.49C885.58,240 887.82,238.58 890.23,237.19C892.62,235.8 895.12,234.49 897.7,233.29C935.6,215.51 991.42,216.8 1026.72,237.19C1048.28,249.63 1057.52,266.5 1054.41,282.74L1054.42,282.73Z" style="fill:rgb(137,140,138);fill-rule:nonzero;"/>
                    <g>
                        <path d="M1054.42,282.73C1052.44,293.08 1045.48,303.15 1033.49,311.68C1031.38,313.15 1029.12,314.61 1026.73,315.98C1025.54,316.67 1024.34,317.34 1023.11,317.97C1021.85,318.62 1020.57,319.28 1019.26,319.88C1017.7,320.62 1016.1,321.32 1014.47,321.97C976.77,337.52 924.05,335.51 890.23,315.98C874.09,306.66 864.85,294.87 862.54,282.72C864.52,272.39 871.5,262.3 883.47,253.79C885.58,252.3 887.82,250.86 890.23,249.47C892.62,248.08 895.12,246.79 897.7,245.57C935.6,227.79 991.42,229.08 1026.72,249.47C1042.86,258.8 1052.1,270.58 1054.41,282.73L1054.42,282.73Z" style="fill:rgb(170,176,175);fill-rule:nonzero;"/>
                        <g>
                            <path d="M922.67,309.54C927.2,312.15 927.2,316.39 922.67,319C918.14,321.61 910.81,321.61 906.28,319C901.75,316.39 901.75,312.15 906.28,309.54C910.81,306.93 918.14,306.93 922.67,309.54Z" style="fill:rgb(107,108,105);fill-rule:nonzero;"/>
                            <path d="M1010.69,258.73C1015.22,261.34 1015.22,265.58 1010.69,268.19C1006.16,270.8 998.83,270.8 994.3,268.19C989.77,265.58 989.77,261.34 994.3,258.73C998.83,256.12 1006.16,256.12 1010.69,258.73Z" style="fill:rgb(107,108,105);fill-rule:nonzero;"/>
                        </g>
                        <g>
                            <path d="M897.71,245.57L908.94,252.06L894.72,260.27L883.49,253.78C885.59,252.29 887.83,250.86 890.24,249.47C892.63,248.09 895.14,246.79 897.71,245.57Z" style="fill:white;fill-rule:nonzero;"/>
                            <path d="M1023.11,317.97C1021.85,318.62 1020.57,319.28 1019.26,319.88C1017.7,320.62 1016.1,321.32 1014.47,321.97L1022.25,317.48L1023.1,317.97L1023.11,317.97Z" style="fill:rgb(220,226,229);fill-rule:nonzero;"/>
                        </g>
                    </g>
                </g>
                <path d="M385.51,664.33C384.93,664.33 384.35,664.18 383.84,663.88L275.95,601.59C274.35,600.66 273.8,598.62 274.72,597.02C275.64,595.42 277.69,594.87 279.29,595.79L385.51,657.11L434.9,628.59C436.5,627.66 438.55,628.21 439.47,629.82C440.39,631.42 439.85,633.47 438.24,634.39L387.17,663.87C386.65,664.17 386.07,664.32 385.5,664.32L385.51,664.33Z" style="fill:white;fill-rule:nonzero;"/>
                <g>
                    <path d="M601.41,540.15L601.41,463.94L407.04,463.94L407.04,540.15L407.06,540.15C406.89,554.64 416.37,569.15 435.51,580.21C473.47,602.12 535.01,602.12 572.96,580.21C592.11,569.16 601.58,554.64 601.41,540.15Z" style="fill:rgb(255,166,0);fill-rule:nonzero;"/>
                    <path d="M595.09,444.01L595.11,444.01L594.78,443.54C594.44,443.04 594.09,442.54 593.72,442.04L580.51,423.3L571.12,423.3C533.64,402.73 474.81,402.73 437.34,423.3L427.95,423.3L414.88,441.85C414.42,442.47 413.98,443.1 413.56,443.73L413.35,444.02L413.36,444.02C400.23,464.03 407.59,487.5 435.5,503.61C473.46,525.52 535,525.52 572.95,503.61C600.87,487.49 608.22,464.01 595.08,444L595.09,444.01Z" style="fill:rgb(242,142,0);fill-rule:nonzero;"/>
                    <ellipse cx="504.23" cy="423.3" rx="76.28" ry="44.04" style="fill:rgb(250,184,58);"/>
                    <path d="M547.87,417.78L547.87,374.57L460.6,374.57L460.6,417.78C460.6,424.23 464.86,430.67 473.38,435.59C490.42,445.43 518.05,445.43 535.09,435.59C543.61,430.67 547.87,424.22 547.87,417.77L547.87,417.78Z" style="fill:rgb(255,166,0);fill-rule:nonzero;"/>
                    <ellipse cx="504.23" cy="374.57" rx="43.63" ry="25.19" style="fill:rgb(250,184,58);"/>
                    <path d="M519.28,365.89C527.59,370.69 527.59,378.47 519.28,383.27C510.97,388.07 497.49,388.07 489.18,383.27C480.87,378.47 480.87,370.69 489.18,365.89C497.49,361.09 510.97,361.09 519.28,365.89Z" style="fill:rgb(242,142,0);fill-rule:nonzero;"/>
                </g>
                <g>
                    <path d="M828.54,409.38L828.54,333.17L634.17,333.17L634.17,409.38L634.19,409.38C634.02,423.87 643.5,438.38 662.64,449.44C700.6,471.35 762.14,471.35 800.09,449.44C819.24,438.39 828.71,423.87 828.54,409.38Z" style="fill:rgb(255,166,0);fill-rule:nonzero;"/>
                    <path d="M822.22,313.23L822.24,313.23L821.91,312.76C821.57,312.26 821.22,311.76 820.86,311.26L807.65,292.52L798.26,292.52C760.78,271.95 701.95,271.95 664.48,292.52L655.09,292.52L642.02,311.07C641.56,311.69 641.12,312.32 640.7,312.95L640.49,313.24L640.5,313.24C627.37,333.25 634.73,356.72 662.64,372.83C700.6,394.74 762.14,394.74 800.09,372.83C828.01,356.71 835.36,333.23 822.22,313.22L822.22,313.23Z" style="fill:rgb(242,142,0);fill-rule:nonzero;"/>
                    <ellipse cx="731.36" cy="292.53" rx="76.28" ry="44.04" style="fill:rgb(250,184,58);"/>
                    <path d="M775,287.01L775,243.8L687.73,243.8L687.73,287.01C687.73,293.46 691.99,299.9 700.51,304.82C717.55,314.66 745.18,314.66 762.22,304.82C770.74,299.9 775,293.45 775,287L775,287.01Z" style="fill:rgb(255,166,0);fill-rule:nonzero;"/>
                    <ellipse cx="731.36" cy="243.8" rx="43.63" ry="25.19" style="fill:rgb(250,184,58);"/>
                    <path d="M746.41,235.11C754.72,239.91 754.72,247.69 746.41,252.49C738.1,257.29 724.62,257.29 716.31,252.49C708,247.69 708,239.91 716.31,235.11C724.62,230.31 738.1,230.31 746.41,235.11Z" style="fill:rgb(242,142,0);fill-rule:nonzero;"/>
                </g>
            </g>
            <path d="M1243.61,891.84C1159.12,891.84 1074.64,870.8 997.62,828.73C934.59,794.29 895.66,728.29 896.01,656.47L898.01,249.93C898.22,207.84 873.82,168.89 835.86,150.71C814.2,140.33 789.13,141.78 768.81,154.58C748.49,167.38 736.36,189.36 736.36,213.38L736.36,239.4C736.36,242.28 734.03,244.61 731.15,244.61C728.27,244.61 725.94,242.28 725.94,239.4L725.94,213.38C725.94,185.76 739.89,160.48 763.26,145.76C786.64,131.04 815.46,129.38 840.37,141.3C881.95,161.21 908.67,203.87 908.45,249.98L906.45,656.52C906.11,724.5 942.97,786.98 1002.63,819.57C1153.53,902 1333.7,902 1484.6,819.57L2104.24,460.68C2131.67,445.7 2164.42,445.7 2191.85,460.68L2221.64,473.38C2246.66,487.03 2275.93,486.89 2300.37,473.23L2528.39,343.52C2530.9,342.1 2534.08,342.97 2535.5,345.48C2536.92,347.98 2536.05,351.16 2533.55,352.59L2305.5,482.32C2277.86,497.75 2244.83,497.9 2217.1,482.76L2187.31,470.06C2162.56,456.56 2133.55,456.56 2109.25,469.84L1489.61,828.73C1412.6,870.8 1328.11,891.84 1243.62,891.84L1243.61,891.84Z" style="fill:rgb(230,230,230);fill-rule:nonzero;"/>
            <path d="M1698.81,1333.95C1696.99,1333.95 1695.21,1333.03 1694.18,1331.37C1692.61,1328.81 1693.4,1325.47 1695.95,1323.89L1795.34,1262.59C1842.75,1233.35 1870.47,1182.64 1869.49,1126.96C1868.52,1071.27 1839.04,1021.56 1790.64,993.99L1696.39,940.31C1647,912.17 1586.19,913.12 1537.69,942.75L1498.07,966.96C1362.18,1049.99 1190.34,1055.3 1049.58,980.8L876.72,889.32C766.83,831.16 698.56,717.8 698.56,593.46C698.56,500.92 654.43,412.45 580.51,356.77L535.42,322.81C530.44,319.06 524.13,318.48 518.56,321.27C512.98,324.05 509.65,329.43 509.65,335.67L509.65,374.57C509.65,377.57 507.22,380 504.22,380C501.22,380 498.79,377.57 498.79,374.57L498.79,335.67C498.79,325.38 504.51,316.15 513.71,311.55C522.91,306.97 533.74,307.95 541.95,314.14L587.04,348.1C663.67,405.82 709.42,497.54 709.42,593.47C709.42,713.77 775.47,823.46 881.8,879.73L1054.66,971.21C1192.04,1043.91 1359.77,1038.74 1492.41,957.7L1532.03,933.49C1583.91,901.8 1648.94,900.79 1701.77,930.88L1796.02,984.56C1847.79,1014.05 1879.32,1067.21 1880.36,1126.77C1881.4,1186.33 1851.75,1240.56 1801.05,1271.84L1701.66,1333.14C1700.77,1333.69 1699.79,1333.95 1698.82,1333.95L1698.81,1333.95Z" style="fill:rgb(230,230,230);fill-rule:nonzero;"/>
        </g>
    </g>
</svg>
