<?xml version="1.0" encoding="UTF-8" standalone="no"?>
<!DOCTYPE svg PUBLIC "-//W3C//DTD SVG 1.1//EN" "http://www.w3.org/Graphics/SVG/1.1/DTD/svg11.dtd">
<svg width="100%" height="100%" viewBox="0 0 1920 1080" version="1.1" xmlns="http://www.w3.org/2000/svg" xmlns:xlink="http://www.w3.org/1999/xlink" xml:space="preserve" xmlns:serif="http://www.serif.com/" style="fill-rule:evenodd;clip-rule:evenodd;stroke-linecap:round;stroke-linejoin:round;">
    <g>
        <g>
            <g id="Base">
                <path d="M427.3,603.8L866.9,350.2L1463.4,694.4L1023.8,948L427.3,603.8Z" style="fill:rgb(236,236,236);fill-rule:nonzero;"/>
                <path d="M1023.8,966.1L1023.8,948L1463.4,694.4L1463.4,712.5L1023.8,966.1Z" style="fill-rule:nonzero;"/>
                <path d="M1023.8,948L427.3,603.8L427.6,622.1L1023.8,966.1L1023.8,948Z" style="fill:rgb(108,109,106);fill-rule:nonzero;"/>
            </g>
            <g id="Mouse">
                <g transform="matrix(0.9568,-0.2907,0.2907,0.9568,-195.66,324.457)">
                    <ellipse cx="994.2" cy="820.8" rx="58.3" ry="26.3" style="fill:rgb(29,29,27);"/>
                </g>
                <path d="M932.5,836C933.1,849.2 957.2,854.6 986.4,848.2C1015.6,841.8 1038.8,825.9 1038.2,812.7C1037.6,799.5 1014.5,783.5 985.3,789.9C956.1,796.3 931.9,822.8 932.5,836Z" style="fill:rgb(238,233,229);fill-rule:nonzero;stroke:black;stroke-width:0.5px;"/>
                <path d="M1022.3,833.7C1022.3,833.7 1023.1,795.3 980.7,791.2" style="fill:none;fill-rule:nonzero;stroke:black;stroke-width:0.5px;"/>
                <path d="M1025.2,795.7C1025.2,795.7 1011.5,792.8 1000.5,796.5" style="fill:none;fill-rule:nonzero;stroke:black;stroke-width:0.5px;"/>
            </g>
            <g id="Keyboard">
                <path d="M1008.2,757.8L1024,748.7L1008.2,739.7L1008.2,757.8Z" style="fill:rgb(29,29,27);fill-rule:nonzero;"/>
                <path d="M898.3,821.2L898.3,812.2L1008.2,730.6L1008.2,757.8L898.3,821.2Z" style="fill:rgb(187,182,178);fill-rule:nonzero;"/>
                <path d="M898.3,812.2L647.1,667.2L647.1,676.3L898.3,821.2L898.3,812.2Z" style="fill:rgb(211,207,204);fill-rule:nonzero;"/>
                <path d="M757,585.7L1008.2,730.6L898.3,812.2L647.1,667.2L757,585.7Z" style="fill:white;fill-rule:nonzero;"/>
                <g>
                    <g>
                        <path d="M951.5,725L928.5,742L897,723.9L920,706.9L951.5,725Z" style="fill:rgb(238,233,229);fill-rule:nonzero;"/>
                        <path d="M928.5,742L905.7,758.9L874.2,740.9L897,723.9L928.5,742Z" style="fill:rgb(238,233,229);fill-rule:nonzero;"/>
                        <path d="M920,706.9L897,723.9L865.6,705.8L888.5,688.8L920,706.9Z" style="fill:rgb(238,233,229);fill-rule:nonzero;"/>
                        <path d="M905.7,758.9L882.8,775.9L851.3,757.8L874.2,740.9L905.7,758.9Z" style="fill:rgb(238,233,229);fill-rule:nonzero;"/>
                        <path d="M897,723.9L874.2,740.9L842.7,722.8L865.6,705.8L897,723.9Z" style="fill:rgb(238,233,229);fill-rule:nonzero;"/>
                        <path d="M888.5,688.8L865.6,705.8L834.1,687.7L857,670.7L888.5,688.8Z" style="fill:rgb(238,233,229);fill-rule:nonzero;"/>
                        <path d="M874.2,740.9L851.3,757.8L819.8,739.8L842.7,722.8L874.2,740.9Z" style="fill:rgb(238,233,229);fill-rule:nonzero;"/>
                        <path d="M865.6,705.8L842.7,722.8L811.2,704.7L834.1,687.7L865.6,705.8Z" style="fill:rgb(238,233,229);fill-rule:nonzero;"/>
                        <path d="M857,670.7L834.1,687.7L802.6,669.6L825.5,652.7L857,670.7Z" style="fill:rgb(238,233,229);fill-rule:nonzero;"/>
                        <path d="M842.7,722.8L819.8,739.8L788.3,721.7L811.2,704.7L842.7,722.8Z" style="fill:rgb(238,233,229);fill-rule:nonzero;"/>
                        <path d="M834.1,687.7L811.2,704.7L779.7,686.6L802.6,669.6L834.1,687.7Z" style="fill:rgb(238,233,229);fill-rule:nonzero;"/>
                        <path d="M825.5,652.7L802.6,669.6L771.1,651.6L794,634.6L825.5,652.7Z" style="fill:rgb(238,233,229);fill-rule:nonzero;"/>
                        <path d="M811.2,704.7L788.3,721.7L756.8,703.6L779.7,686.6L811.2,704.7Z" style="fill:rgb(238,233,229);fill-rule:nonzero;"/>
                        <path d="M802.6,669.6L779.7,686.6L748.2,668.5L771.1,651.6L802.6,669.6Z" style="fill:rgb(238,233,229);fill-rule:nonzero;"/>
                        <path d="M794,634.6L771.1,651.6L739.7,633.5L762.5,616.5L794,634.6Z" style="fill:rgb(238,233,229);fill-rule:nonzero;"/>
                        <path d="M779.7,686.6L756.8,703.6L725.3,685.5L748.2,668.5L779.7,686.6Z" style="fill:rgb(238,233,229);fill-rule:nonzero;"/>
                        <path d="M771.1,651.6L748.2,668.5L716.7,650.5L739.7,633.5L771.1,651.6Z" style="fill:rgb(238,233,229);fill-rule:nonzero;"/>
                        <path d="M748.2,668.5L725.3,685.5L693.8,667.4L716.7,650.5L748.2,668.5Z" style="fill:rgb(238,233,229);fill-rule:nonzero;"/>
                    </g>
                    <g>
                        <path d="M693.8,667.4L716.7,650.5L739.7,633.5L762.5,616.5" style="fill:none;fill-rule:nonzero;stroke:black;stroke-width:0.5px;"/>
                        <path d="M725.3,685.5L748.2,668.5L771.1,651.6L794,634.6" style="fill:none;fill-rule:nonzero;stroke:black;stroke-width:0.5px;"/>
                        <path d="M756.8,703.6L802.6,669.6L825.5,652.7" style="fill:none;fill-rule:nonzero;stroke:black;stroke-width:0.5px;"/>
                        <path d="M788.3,721.7L857,670.7" style="fill:none;fill-rule:nonzero;stroke:black;stroke-width:0.5px;"/>
                        <path d="M819.8,739.8L888.5,688.8" style="fill:none;fill-rule:nonzero;stroke:black;stroke-width:0.5px;"/>
                        <path d="M851.3,757.8L874.2,740.9L897,723.9L920,706.9" style="fill:none;fill-rule:nonzero;stroke:black;stroke-width:0.5px;"/>
                        <path d="M882.8,775.9L905.7,758.9L928.5,742L951.5,725" style="fill:none;fill-rule:nonzero;stroke:black;stroke-width:0.5px;"/>
                        <path d="M693.8,667.4L819.8,739.8L851.3,757.8L882.8,775.9" style="fill:none;fill-rule:nonzero;stroke:black;stroke-width:0.5px;"/>
                        <path d="M716.7,650.5L748.2,668.5L874.2,740.9L905.7,758.9" style="fill:none;fill-rule:nonzero;stroke:black;stroke-width:0.5px;"/>
                        <path d="M739.7,633.5L771.1,651.6L802.6,669.6L865.6,705.8L897,723.9L928.5,742" style="fill:none;fill-rule:nonzero;stroke:black;stroke-width:0.5px;"/>
                        <path d="M762.5,616.5L825.5,652.7L857,670.7L951.5,725" style="fill:none;fill-rule:nonzero;stroke:black;stroke-width:0.5px;"/>
                    </g>
                </g>
            </g>
            <g id="HD">
                <path d="M1008.2,498.4L939.2,458.6L934.5,461.3L929.7,458.6L835.5,512.9L835.5,530.8L914,576.1L1008.2,521.8L1008.2,503.9L1003.4,501.1L1008.2,498.4Z" style="fill:none;fill-rule:nonzero;"/>
                <g>
                    <path d="M835.5,530.8L914,576.1L1008.2,521.8L929.7,476.5L835.5,530.8Z" style="fill:rgb(105,189,234);fill-rule:nonzero;"/>
                    <path d="M835.5,512.9L914,558.2L1008.2,503.9L929.7,458.6L835.5,512.9Z" style="fill:white;fill-rule:nonzero;"/>
                    <path d="M870.2,498.4L939.4,538.1L1008.2,498.4L939.2,458.6L870.2,498.4Z" style="fill:rgb(255,166,0);fill-rule:nonzero;"/>
                    <path d="M914,576.1L914,558.2L870.2,533L835.5,512.9L835.5,530.8L914,576.1Z" style="fill:rgb(211,207,204);fill-rule:nonzero;"/>
                    <path d="M914,576.1L914,558.2L1008.2,503.9L1008.2,521.8L914,576.1Z" style="fill:rgb(187,182,178);fill-rule:nonzero;"/>
                    <g>
                        <path d="M902,558.4C902,556.8 902.6,555.7 903.7,555.2C901,554.2 898.9,555.5 898.9,558.4C898.9,561.8 901.6,566.1 905,568.1C906.8,569.1 908.3,569.3 909.5,568.7C909.1,568.5 908.6,568.4 908.2,568.1C904.7,566.1 902,561.8 902,558.4Z" style="fill:rgb(110,110,110);fill-rule:nonzero;"/>
                        <path d="M911.1,565.5C911.1,562.1 908.4,557.8 905,555.8C904.5,555.5 904.1,555.3 903.7,555.2C902.7,555.7 902,556.8 902,558.4C902,561.8 904.7,566.1 908.1,568.1C908.6,568.4 909,568.6 909.4,568.7C910.5,568.2 911.1,567.1 911.1,565.5Z" style="fill:rgb(255,166,0);fill-rule:nonzero;"/>
                    </g>
                </g>
            </g>
            <g id="PC">
                <path d="M992.6,423L914.8,467.3L851.8,431.6L819.8,450L882.4,486.1L898,477L976.9,522.5L976.6,540.3L1039.5,576.8L1008.2,594.5L1039.2,613.3L1071,595L1155.8,644.1L1149.7,647.7L1194.4,673.5L1200.5,670L1228,685.9L1337.7,622.2L992.6,423Z" style="fill:rgb(217,217,217);fill-opacity:0.5;fill-rule:nonzero;"/>
                <g>
                    <path d="M1039.2,594.5L1094.6,626.5C1098,628.5 1098,633.4 1094.6,635.4L1048.7,661.9C1042.8,665.3 1035.5,665.3 1029.6,661.9L921.6,599.2C918.2,597.2 918.2,592.3 921.6,590.3L967.2,564C973.1,560.6 980.3,560.6 986.2,564L1039.2,594.5Z" style="fill:rgb(28,28,28);fill-rule:nonzero;"/>
                    <path d="M1039.2,613.1L1039.2,467.9L1008.2,449.8L1008.2,594.3L1039.2,613.1Z" style="fill:rgb(29,29,27);fill-rule:nonzero;"/>
                    <path d="M1039.2,573.6L1039.2,467.9L1008.2,449.8L1008.2,537.1" style="fill:rgb(60,60,59);fill-rule:nonzero;"/>
                    <g>
                        <path d="M1234.8,345.1L840.5,117.5C838.9,116.6 837.2,116.4 835.6,116.8L835.5,116.8C834.2,117.1 833,117.9 832.1,118.7L818.7,126.1C818.2,126.3 817.7,126.6 817.3,126.9L816.7,127.2L816.7,127.3C815.4,128.5 814.5,130.2 814.5,132.3L815.6,406.8C815.6,408.1 816,409.4 816.8,410.4L816.8,410.6L816.9,410.5C817.4,411.3 818.1,412 819,412.5L970,499.6L1237.4,347.7C1236.8,346.7 1236,345.7 1234.8,345.1Z" style="fill:rgb(87,87,86);fill-rule:nonzero;"/>
                        <path d="M970,499.6L1019.6,528.2L1212.5,640.3C1215.2,641.8 1218.2,641.3 1220.3,639.5L1234.4,631.3L1234.4,631C1236.6,629.9 1238.2,627.7 1238.2,624.9L1238.2,351.1C1238.2,349.9 1237.9,348.8 1237.4,347.8L970,499.6Z" style="fill:rgb(60,60,59);fill-rule:nonzero;"/>
                    </g>
                    <path d="M815.5,406.7C815.5,409.1 816.8,411.3 818.8,412.5L1019.6,528.3L1212.6,640.4C1217,643 1222.6,639.8 1222.6,634.6L1222.6,360C1222.6,357.6 1221.3,355.4 1219.3,354.2L824.5,126.4C820,123.8 814.5,127.1 814.5,132.2L815.5,406.7Z" style="fill:rgb(29,29,27);fill-rule:nonzero;"/>
                    <g>
                        <g>
                            <path d="M836.3,396.4L835.3,155.1C835.3,153.8 835.7,152.6 836.4,151.6C833.1,151.5 829.9,154 830,157.7L831,399C831,400.4 831.5,401.8 832.4,402.9L837.6,400C836.7,399 836.3,397.8 836.3,396.4Z" style="fill:rgb(187,182,178);fill-rule:nonzero;"/>
                            <path d="M1203,612.3L1024.8,508.8L839.4,401.8C838.7,401.4 838.1,400.8 837.6,400.1L832.4,403C832.9,403.6 833.4,404.1 834.1,404.5L1019.5,511.5L1197.7,615C1200.7,616.7 1204.1,615.6 1205.9,613.1C1204.9,613 1203.9,612.8 1203,612.3Z" style="fill:rgb(238,233,229);fill-rule:nonzero;"/>
                        </g>
                        <path d="M1206.9,368.1C1206.9,365.9 1205.7,363.9 1203.8,362.8L839.2,152.4C838.3,151.9 837.3,151.6 836.4,151.6C835.7,152.6 835.3,153.7 835.3,155.1L836.3,396.4C836.3,398.6 837.5,400.6 839.4,401.7L1024.8,508.7L1203,612.2C1203.9,612.7 1204.9,613 1205.8,613C1206.5,612 1206.9,610.9 1206.9,609.5L1206.9,368.1Z" style="fill:white;fill-rule:nonzero;"/>
                    </g>
                    <g>
                        <path d="M1025.7,450L1025.7,403.2L1014.1,403.7L1014.1,406.6L1017,411.6L1014.1,411.5L1014.1,414.2L1014.8,415.3L1014.1,419.2L1014.1,423.7L1014.8,424.4L1015.7,428L1015.7,430.7L1014.2,431L1014.2,436.8L1016.1,439.3L1016,441.4L1014.2,441.2L1014.2,443.3C1009.7,442.8 1006.5,445.7 1006.5,451C1006.5,458.5 1012.5,468 1020,472.3C1027.5,476.6 1033.5,474.1 1033.5,466.6C1033.4,461.3 1030.3,454.9 1025.7,450ZM1019.9,469.4C1018.6,468.6 1017.5,466.9 1017.5,465.6C1017.5,464.3 1018.6,463.8 1019.9,464.6C1021.2,465.4 1022.3,467.1 1022.3,468.4C1022.3,469.7 1021.2,470.2 1019.9,469.4Z" style="fill:rgb(131,160,180);fill-rule:nonzero;"/>
                        <g>
                            <path d="M1058.6,432.4L1058.6,359.8L988.7,335.6L988.7,408.2C988.7,410.6 989.9,412.9 992.2,414.2L1034.2,438.4C1040.7,442.2 1048.7,442.1 1055.2,438.4C1057.5,437.1 1058.6,434.7 1058.6,432.4Z" style="fill:rgb(249,190,0);fill-rule:nonzero;"/>
                            <path d="M992.2,329.5C987.5,332.2 987.5,338.9 992.2,341.6L1034.2,365.8C1040.7,369.6 1048.7,369.5 1055.2,365.8C1059.9,363.1 1059.9,356.4 1055.2,353.7L1013.2,329.5C1006.7,325.8 998.7,325.8 992.2,329.5Z" style="fill:rgb(255,166,0);fill-rule:nonzero;"/>
                            <path d="M1025.9,295.4C1020.1,292.1 1013.2,292.1 1007.4,295.4C1001.6,298.7 998.2,304.7 998.2,311.4L998.2,335.6C998.2,337.2 1000.2,338.4 1002.7,338.4C1005.2,338.4 1007.2,337.2 1007.2,335.6L1007.2,311.4C1007.2,308 1009,304.9 1012,303.2C1015,301.5 1018.5,301.5 1021.5,303.2C1033.1,309.9 1040.2,322.3 1040.2,335.7L1040.2,359.9C1040.2,361.5 1042.2,362.7 1044.7,362.7C1047.2,362.7 1049.2,361.5 1049.2,359.9L1049.2,335.7C1049.1,319 1040.2,303.6 1025.9,295.4Z" style="fill:rgb(131,160,180);fill-rule:nonzero;"/>
                        </g>
                    </g>
                    <g>
                        <g transform="matrix(0.7992,-0.6011,0.6011,0.7992,67.2094,545.96)">
                            <ellipse cx="850.6" cy="172.4" rx="4.6" ry="8.1" style="fill:rgb(235,96,90);"/>
                        </g>
                        <g transform="matrix(0.7992,-0.6011,0.6011,0.7992,64.5374,559.068)">
                            <ellipse cx="868.9" cy="183" rx="4.6" ry="8.1" style="fill:rgb(249,190,0);"/>
                        </g>
                        <g transform="matrix(0.7992,-0.6011,0.6011,0.7992,61.8662,572.171)">
                            <ellipse cx="887.2" cy="193.5" rx="4.6" ry="8.1" style="fill:rgb(77,174,68);"/>
                        </g>
                    </g>
                </g>
            </g>
            <g id="Cup">
                <ellipse cx="1131.4" cy="762" rx="41.1" ry="22.2" style="fill:rgb(29,29,27);"/>
                <g>
                    <path d="M1084.2,695.8L1084.2,760.8C1084.2,772.7 1102.6,782.4 1125.3,782.4C1148,782.4 1166.4,772.7 1166.4,760.8L1166.4,695.8L1084.2,695.8Z" style="fill:rgb(249,190,0);fill-rule:nonzero;"/>
                    <g>
                        <ellipse cx="1125.3" cy="695.8" rx="41.1" ry="21.6" style="fill:rgb(255,166,0);"/>
                        <g>
                            <g>
                                <ellipse cx="1125.3" cy="723.4" rx="41.1" ry="22.2" style="fill:rgb(29,29,27);"/>
                                <ellipse cx="1125.3" cy="810.6" rx="41.1" ry="22.2"/>
                            </g>
                        </g>
                    </g>
                    <g>
                        <path d="M1166.4,701.7L1166.4,710.4C1177,710.4 1185.5,719 1185.5,729.5C1185.5,740 1176.9,748.6 1166.4,748.6L1166.4,757.3C1181.7,757.3 1194.2,744.9 1194.2,729.5C1194.2,714.1 1181.8,701.6 1166.4,701.7Z" style="fill:rgb(249,190,0);fill-rule:nonzero;"/>
                        <g>
                            <g>
                                <clipPath id="_clip1">
                                    <path d="M1166.4,701.7L1166.4,710.4C1177,710.4 1185.5,719 1185.5,729.5C1185.5,740 1176.9,748.6 1166.4,748.6L1166.4,757.3C1181.7,757.3 1194.2,744.9 1194.2,729.5C1194.2,714.1 1181.8,701.6 1166.4,701.7Z"/>
                                </clipPath>
                                <g clip-path="url(#_clip1)">
                                    <rect x="1163.3" y="698.5" width="9.3" height="62.1" style="fill:rgb(194,132,13);"/>
                                </g>
                            </g>
                        </g>
                    </g>
                    <g id="Full-logo">
                        <path id="Top" d="M1124.3,732.2C1125,731.9 1125.7,731.9 1126.4,732.2C1129.5,733.7 1138.4,738 1141,739.2C1141.4,739.4 1141.7,739.8 1141.7,740.3L1141.7,743.5C1141.7,743.5 1130.4,740.2 1126.6,739C1125.8,738.8 1124.9,738.8 1124.2,739C1120.4,740.1 1109.1,743.5 1109.1,743.5L1109.1,740.3C1109.1,739.8 1109.4,739.4 1109.8,739.2C1112.3,737.9 1121.2,733.7 1124.3,732.2Z" style="fill:white;"/>
                        <path id="Bottom" d="M1126.3,767.5C1125.6,767.8 1124.9,767.8 1124.2,767.5C1121.1,766 1112.2,761.7 1109.6,760.5C1109.2,760.3 1108.9,759.9 1108.9,759.4L1108.9,756.2C1108.9,756.2 1120.2,759.5 1124,760.7C1124.8,760.9 1125.7,760.9 1126.4,760.7C1130.2,759.6 1141.5,756.2 1141.5,756.2L1141.5,759.4C1141.5,759.9 1141.2,760.3 1140.8,760.5C1138.4,761.8 1129.4,766.1 1126.3,767.5Z" style="fill:white;"/>
                        <g id="Mid">
                            <path d="M1109,751.7L1109,748L1125.3,746.6L1141.6,748L1141.6,751.7L1125.3,753.1L1109,751.7Z" style="fill:white;"/>
                        </g>
                    </g>
                </g>
            </g>
            <g id="Plant">
                <g>
                    <path d="M740.6,406.5C731,404 719.4,402.6 706.9,402.6C694.4,402.6 682.9,404 673.2,406.5L643.3,406.5L651,527.2C652.5,537.8 677.5,545.9 706.9,545.9C736.3,545.9 761.3,537.7 762.8,527.2L770.5,406.5L740.6,406.5Z" style="fill-rule:nonzero;"/>
                    <path d="M770.8,404.5C768.9,418.2 740.3,428.8 707,428.8C673.6,428.8 645.1,418.3 643.2,404.5C641.2,389.9 669.7,377.3 707,377.3C744.3,377.4 772.8,389.9 770.8,404.5Z" style="fill:rgb(108,109,106);fill-rule:nonzero;"/>
                    <g>
                        <path d="M706.9,388.5C733.2,388.5 754.1,395.9 757.4,405.3C757.6,404.8 757.7,404.3 757.8,403.8C759.4,392.8 736.7,383.3 707,383.3C677.3,383.3 654.5,392.8 656.2,403.8C656.3,404.3 656.4,404.8 656.6,405.3C659.7,395.9 680.6,388.5 706.9,388.5Z" style="fill:rgb(87,87,86);fill-rule:nonzero;"/>
                        <path d="M706.9,422.1C732.2,422.1 754,414.9 757.4,405.3C754.1,395.9 733.3,388.5 706.9,388.5C680.5,388.5 659.7,395.9 656.4,405.3C659.8,414.9 681.6,422.1 706.9,422.1Z" style="fill:rgb(60,60,59);fill-rule:nonzero;"/>
                    </g>
                </g>
                <path d="M685.6,399.1C684.4,393.7 682.8,388.4 680.8,383.1C678.8,377.7 676,373.1 673.5,368.1C670.3,361.7 668.2,354.5 666.3,347.7C663.9,339.2 660.8,331.4 659,322.7C655.4,305.5 649.3,289.1 646.5,271.6C643.8,255.1 641.7,237.9 637.3,221.7C632.8,205 629.9,189.1 630.8,171.8C631.8,151.4 631.9,131.2 631.9,110.8C636.4,118.6 638.3,129.7 640.4,138.2C645.3,158 650.2,178 654.3,198C659,220.9 662.9,244.1 667,267.1C670.1,284.5 674.7,302.2 676.9,319.7C678.2,330 680.3,340.5 681,350.8C681.6,359.3 681.7,367.7 683.4,376C684.3,380.2 685.8,384.2 686.8,388.3C687.8,392.3 688.2,397.2 690.3,400.5" style="fill:rgb(242,142,0);fill-rule:nonzero;"/>
                <path d="M666.4,399.9C664.5,397.5 664.1,393.8 662.9,390.7C658.8,380.1 651.7,371 647.4,360.5C643.9,351.8 639.6,343.9 634.1,336.2C630,330.4 627.3,324.2 623.7,318.1C620.3,312.3 616.7,307.5 613.8,301.4C610.5,294.4 606.5,287.8 602.6,281.1C599.5,275.8 597.1,268.9 593.2,264.2C607.5,272.4 620.1,283.8 630,296.9C642.7,313.7 648.9,334.1 660.4,351.6C666.9,361.4 671.7,371.1 672.3,382.9C672.5,387.1 670.6,399 673.7,401" style="fill:rgb(255,166,0);fill-rule:nonzero;"/>
                <path d="M671,406.2C668,398.7 668.2,388.3 666.8,380.2C664.1,364.3 658.9,348.8 653,333.8C649,323.5 645.1,313.1 640.5,303C634.7,290.2 632.5,277 628.9,263.5C623.7,243.7 620.4,223.4 615,203.6C613.5,198 611.9,192.3 610.8,186.6C614.3,188.3 618.7,195.4 620.7,199C625,206.9 629.7,214.6 633.6,222.8C644.5,245.6 654.9,269.9 662.2,294C665.4,304.6 667,315.2 668.2,325.9C669.2,334.7 672.4,343.9 674,352.7C676.1,364.4 676.1,374.8 676.1,386.4C676.1,390.9 677.7,401.5 678.2,405.9" style="fill:rgb(250,184,58);fill-rule:nonzero;"/>
                <path d="M692.5,393C693.8,358.7 684.3,324.7 680.7,290.9C678,265.6 677.9,237.9 682.3,212.8C685,197.6 683.8,183.7 683.3,168.4C682.9,154.9 685.8,141.8 686.5,128.4C686.9,120.8 686.5,113.2 686.5,105.7C686.5,101 686.7,96.1 687.8,91.6C688.6,101.2 691.4,110.1 693.8,119.4C698.1,135.9 700.6,152.8 703.4,169.6C706.9,190.5 706.4,212.3 707.1,233.5C707.6,249.8 706.8,265.4 704.5,281.6C701.1,304.9 698.5,327.4 698.5,351C698.5,364.2 696.1,380.2 699.4,393" style="fill:rgb(242,142,0);fill-rule:nonzero;"/>
                <path d="M708.8,394.9C708.8,376.7 710.5,358.9 711.3,340.8C712.2,321.6 711.2,302.8 713.7,283.6C715.4,270.6 717.7,257.7 719.8,244.7C724.8,214.8 728.2,184.5 731.7,154.3C733.8,136.3 738.3,118.1 739.1,100C739.6,88.4 744.1,77.6 746.7,66.5C747.6,62.5 748.5,58.3 749.8,54.4C751.3,66.9 754,79.3 755.3,92C757.5,113.9 757.7,135.7 756.8,157.6C756,176.8 753.9,195.8 752.5,215C751.2,232.9 747.2,251.3 743.1,268.8C739.1,285.9 734.8,302.9 730.8,320C727.9,332.4 724.3,344.8 722.2,357.3C720.1,369.7 715.8,384.5 716.7,397.1" style="fill:rgb(242,142,0);fill-rule:nonzero;"/>
                <path d="M717.8,390.1C717.5,390.4 717.3,390.7 717.1,391.1C717.2,380.4 720.3,368.9 721.7,358.2C723.8,342.2 724.3,326.3 729.8,310.8C734.1,298.7 734.8,286.1 738.8,274.1C743.4,260.5 747,246.5 753.1,233.3C761,216.3 769,200.6 772.8,182.6C774.5,174.7 775,164.2 778.7,157C788.3,177.4 783.4,203.7 779.2,224.9C774.3,250.2 765.1,274.7 760,300C756.1,319.6 746.9,338.1 738,356.4C732.3,368.1 728,380 723.5,392" style="fill:rgb(255,166,0);fill-rule:nonzero;"/>
                <path d="M746,400.9C745.6,393.6 749.3,385.8 752.8,379.7C760.3,366.5 768,353.7 775.2,340.3C786.5,319.2 798.7,298.7 814.4,280.7C820.4,273.9 824.7,266.1 830.8,259.3C834.8,254.9 838.8,250.7 842.1,245.8C844.4,242.4 847.8,239 849,235.3C835.2,248.9 814.9,255.8 800.2,268.7C786.5,280.7 778.3,296.8 766.9,310.6C759.7,319.3 754.6,326.2 751.4,337.3C749.1,345.3 743,352.9 741.6,361.1C739.6,373.1 735.6,388.5 734.6,400.6" style="fill:rgb(255,166,0);fill-rule:nonzero;"/>
                <path d="M723.8,409.1C722.7,397.7 728.2,385.9 731.2,375.2C734.5,363.5 735.8,351.5 739,339.7C741.3,331.3 741.3,322.3 743.2,313.8C745.8,302.1 755.2,290.5 758.2,278.9C763.1,259.7 776.4,241.3 786.4,224.4C790.8,217 797.4,211.1 801.9,203.7C806.4,196.4 810.5,188.9 815,181.6C821.5,171.1 827.2,158.4 835.1,149C832.9,151.2 833.5,154.7 833.2,157.8C832.6,164.4 831.3,171 829.6,177.4C826.5,189.4 825.1,201.3 821.3,213.2C817.4,225.2 813,236.7 807.1,247.9C798.8,263.7 787.7,277.6 779.1,293.5C768.8,312.6 761,332.6 752.7,352.7C748.5,362.8 743.3,373.2 740.3,383.7C738.1,391.3 734.1,401.9 734.8,409.9" style="fill:rgb(250,184,58);fill-rule:nonzero;"/>
                <path d="M688.9,409.6C676.1,386.5 676.4,359.8 670.8,335.7C664.1,306.2 658.2,276.5 653.7,246.8C650.6,226.5 650.3,205.4 649.4,185C648.9,174.2 647.4,163.6 648.8,152.9C654.9,160.5 656.1,172 659.3,180.4C662.5,188.9 666.1,197.3 668.9,205.9C675.2,225.2 680.1,244.7 689.6,263.5C709.4,302.6 695.3,345.9 699.1,386.2C699.8,393.8 701.1,401.1 701.1,408.7" style="fill:rgb(255,166,0);fill-rule:nonzero;"/>
                <path d="M697.2,414.4C695.3,405.2 696.6,391.3 696.6,382C696.6,357.1 701.8,331.8 698.4,307.1C696.4,292.5 697.6,277.4 697.7,262.7C697.7,256.6 700.2,250.8 700.8,244.8C701.5,237.8 701.2,231.2 703.3,224.2C709,205 716.4,185.7 720.1,166.1C720.9,161.7 721.7,157.3 722.6,153C723.2,149.9 725.9,146.9 725.8,143.8C728,149.1 727.2,156.7 728.1,162.5C729.7,174.2 731.3,185.7 733.5,197.3C736.2,211.9 740.1,226.6 740.9,241.4C742.2,265.3 740.7,288.2 731.5,311.2C718.4,344.2 709.1,381.3 711.2,416C710.6,416.9 710.9,415.9 710.6,415.5" style="fill:rgb(250,184,58);fill-rule:nonzero;"/>
            </g>
        </g>
    </g>
</svg>
