<?xml version="1.0" encoding="UTF-8" standalone="no"?>
<!DOCTYPE svg PUBLIC "-//W3C//DTD SVG 1.1//EN" "http://www.w3.org/Graphics/SVG/1.1/DTD/svg11.dtd">
<svg width="100%" height="100%" viewBox="0 0 1920 1080" version="1.1" xmlns="http://www.w3.org/2000/svg" xmlns:xlink="http://www.w3.org/1999/xlink" xml:space="preserve" xmlns:serif="http://www.serif.com/" style="fill-rule:evenodd;clip-rule:evenodd;stroke-linejoin:round;stroke-miterlimit:2;">
    <g>
        <g>
            <g>
                <g>
                    <path d="M429.6,404.3L313,337L429.5,269.7L546.1,337L429.6,404.3ZM323.2,337L429.6,398.4L536,337L429.6,275.6L323.2,337Z" style="fill:white;fill-rule:nonzero;"/>
                    <path d="M506.3,314.8L429.6,359.1L429.6,270.6L506.3,226.3L506.3,314.8Z" style="fill-rule:nonzero;"/>
                    <path d="M429.6,270.6L352.9,226.3L429.6,182L506.3,226.3L429.6,270.6Z" style="fill:rgb(51,51,51);fill-rule:nonzero;"/>
                    <path d="M429.6,359.1L352.9,314.8L352.9,226.3L429.6,270.6L429.6,359.1Z" style="fill:rgb(28,28,28);fill-rule:nonzero;"/>
                </g>
                <path d="M402,311.3L380.5,298.9L380.5,274.1L402,286.5L402,311.3Z" style="fill:rgb(40,167,69);fill-rule:nonzero;"/>
            </g>
            <path d="M938.5,946.2L937.2,945.5L501.7,692.9L688.2,585.2L689.5,585.9L1125,838.5L938.5,946.2ZM511.7,693L938.5,940.4L1115,838.5L688.1,591.1L511.7,693Z" style="fill:white;fill-rule:nonzero;"/>
            <g>
                <path d="M1539.7,921.9L1413.8,849.2L1539.7,776.5L1665.6,849.2L1539.7,921.9ZM1423.9,849.2L1539.6,916L1655.3,849.2L1539.6,782.4L1423.9,849.2Z" style="fill:white;fill-rule:nonzero;"/>
                <g>
                    <path d="M1650.6,821.8L1650.6,788.6L1576.1,788.6L1550.3,773.7C1544.4,770.3 1534.1,770.7 1527.2,774.7L1503.2,788.6L1428.6,788.6L1428.6,822.8C1428.4,825.1 1429.7,827.3 1432.6,829L1528.9,884.6C1534.8,888 1545.1,887.6 1552,883.6L1645,829.9C1649,827.5 1650.9,824.5 1650.6,821.8Z" style="fill-rule:nonzero;"/>
                    <path d="M1539.7,771.4C1535.4,771.5 1530.9,772.6 1527.3,774.6L1503.3,788.5L1428.7,788.5L1428.7,822.7C1428.5,825 1429.8,827.2 1432.7,828.9L1529,884.5C1531.8,886.1 1535.7,886.9 1539.7,886.8L1539.7,771.4Z" style="fill:rgb(28,28,28);fill-rule:nonzero;"/>
                    <path d="M1529,850.3L1432.7,794.7C1426.8,791.3 1427.5,785.3 1434.4,781.4L1527.4,727.7C1534.2,723.8 1544.5,723.3 1550.5,726.7L1646.8,782.3C1652.7,785.7 1652,791.7 1645.1,795.6L1552.1,849.3C1545.2,853.3 1534.9,853.8 1529,850.3Z" style="fill:rgb(51,51,51);fill-rule:nonzero;"/>
                    <g>
                        <path d="M1615.2,830.6C1615.2,833.1 1613.5,836.1 1611.3,837.3C1609.2,838.5 1607.4,837.5 1607.4,835.1C1607.4,832.6 1609.1,829.6 1611.3,828.4C1613.5,827.1 1615.2,828.1 1615.2,830.6Z" style="fill:white;fill-rule:nonzero;"/>
                        <path d="M1627.7,823.3C1627.7,825.8 1626,828.8 1623.8,830C1621.7,831.2 1619.9,830.2 1619.9,827.8C1619.9,825.3 1621.6,822.3 1623.8,821.1C1626,819.8 1627.7,820.9 1627.7,823.3Z" style="fill:rgb(255,166,0);fill-rule:nonzero;"/>
                        <path d="M1640.2,816.1C1640.2,818.6 1638.5,821.6 1636.3,822.8C1634.2,824 1632.4,823 1632.4,820.6C1632.4,818.2 1634.1,815.1 1636.3,813.9C1638.5,812.6 1640.2,813.6 1640.2,816.1Z" style="fill:white;fill-rule:nonzero;"/>
                    </g>
                    <g>
                        <path d="M1534.7,815.9L1489.6,789.9C1486.8,788.3 1487.2,785.5 1490.4,783.7L1533.9,758.6C1537.1,756.8 1541.9,756.6 1544.7,758.2L1589.8,784.2C1592.6,785.8 1592.2,788.6 1589,790.4L1545.5,815.5C1542.3,817.3 1537.4,817.5 1534.7,815.9Z" style="fill:rgb(255,166,0);fill-rule:nonzero;"/>
                        <path d="M1539,794.1L1532.8,790.5C1532.4,790.3 1532.5,789.9 1532.9,789.6L1538.9,786.1C1539.3,785.8 1540,785.8 1540.4,786L1546.6,789.6C1547,789.8 1546.9,790.2 1546.5,790.5L1540.5,794C1540,794.3 1539.4,794.3 1539,794.1Z" style="fill:white;fill-rule:nonzero;"/>
                        <path d="M1489.6,789.9L1489.7,790C1489.9,789.8 1490.1,789.7 1490.3,789.6L1533.8,764.5C1537,762.7 1541.8,762.5 1544.6,764.1L1589.5,790C1592,788.2 1592.2,785.7 1589.6,784.2L1544.5,758.2C1541.7,756.6 1536.9,756.8 1533.7,758.6L1490.2,783.7C1487.2,785.5 1486.8,788.3 1489.6,789.9Z" style="fill:rgb(242,142,0);fill-rule:nonzero;"/>
                    </g>
                </g>
                <path d="M1492.2,891.1C1485.6,894.9 1475,894.9 1468.4,891.1C1461.8,887.3 1461.8,881.1 1468.4,877.3C1475,873.5 1485.6,873.5 1492.2,877.3C1498.8,881.1 1498.8,887.3 1492.2,891.1Z" style="fill:white;fill-rule:nonzero;"/>
            </g>
            <path d="M1920.4,110.4L935.5,687.7L938,692L1920.4,116.2L1920.4,110.4Z" style="fill:white;fill-rule:nonzero;"/>
            <path d="M276.6,1080L722.2,818.8C720.5,817.8 718.8,816.9 717.1,815.9L266.6,1080L276.6,1080Z" style="fill:white;fill-rule:nonzero;"/>
            <g>
                <g>
                    <g>
                        <g>
                            <path d="M910.3,767L910.3,751.2L905.6,751.2C901.4,743.9 894.3,737.1 884.3,731.3C849.6,711.3 793.4,711.3 758.7,731.3C748.7,737.1 741.6,743.9 737.4,751.2L732.7,751.2L732.7,766.9C732.6,780.1 741.3,793.2 758.7,803.3C793.4,823.3 849.6,823.3 884.3,803.3C901.6,793.2 910.3,780.1 910.3,767Z" style="fill-rule:nonzero;"/>
                            <ellipse cx="821.5" cy="751.2" rx="88.8" ry="51.3" style="fill:rgb(51,51,51);"/>
                            <path d="M884.3,787.4C849.6,807.4 793.4,807.4 758.7,787.4C742.1,777.8 733.5,765.3 732.8,752.8C732.1,766.5 740.6,780.3 758.7,790.7C793.4,810.7 849.6,810.7 884.3,790.7C902.4,780.3 910.9,766.5 910.2,752.8C909.5,765.4 900.9,777.8 884.3,787.4Z" style="fill:rgb(28,28,28);fill-rule:nonzero;"/>
                        </g>
                    </g>
                    <g>
                        <g>
                            <g>
                                <path d="M878.4,752.2C874.7,754.4 869,754.6 865.8,752.8L811.7,721.8C810.2,721 809.5,719.9 809.5,718.7L809.4,607.5L881.4,637.8L881.5,747.9L881.5,748.5C881.3,749.8 880.3,751.2 878.4,752.2Z" style="fill:rgb(28,28,28);fill-rule:nonzero;"/>
                                <path d="M881.4,637.7L881.5,747.8L881.5,748.4C881.3,749.7 880.3,751.1 878.4,752.2C876.6,753.2 874.4,753.8 872.2,754L871.9,633.7L881.4,637.7Z" style="fill-rule:nonzero;"/>
                                <path d="M879.2,634.3L825.1,603.3C821.9,601.4 816.2,601.7 812.5,603.9C808.8,606.1 808.4,609.3 811.6,611.2L865.7,642.2C868.9,644.1 874.6,643.8 878.3,641.6C882,639.4 882.4,636.1 879.2,634.3Z" style="fill:rgb(23,61,122);fill-rule:nonzero;"/>
                                <path d="M865.7,642.9L811.6,611.9C810.1,611 809.4,609.9 809.4,608.7C809.6,609.6 810.3,610.5 811.5,611.2L865.6,642.2C868.8,644.1 874.5,643.8 878.2,641.6C880.2,640.4 881.3,638.9 881.3,637.5C881.7,639.1 880.7,640.9 878.3,642.3C874.6,644.5 869,644.7 865.7,642.9Z" style="fill:white;fill-rule:nonzero;"/>
                            </g>
                        </g>
                    </g>
                </g>
                <g>
                    <path d="M1126.9,417.6L599.8,113.3C595,110.5 590.5,110.3 587.1,112.3L570.6,121.8L580.6,123.2C580.4,124.7 580.2,126.3 580.2,128L580.2,492C580.2,506.3 588.9,523 599.7,529.2L1126,833L1123.3,843.9L1139.5,834.5C1143.6,832.1 1146.3,826.6 1146.3,818.8L1146.3,454.9C1146.4,440.5 1137.7,423.9 1126.9,417.6Z" style="fill:rgb(28,28,28);fill-rule:nonzero;"/>
                    <path d="M1110.2,843.2L583.1,538.9C572.3,532.7 563.6,516 563.6,501.7L563.6,137.7C563.6,123.4 572.3,116.8 583.1,123L1110.2,427.3C1121,433.5 1129.7,450.2 1129.7,464.5L1129.7,828.4C1129.7,842.8 1121,849.4 1110.2,843.2Z" style="fill:rgb(51,51,51);fill-rule:nonzero;"/>
                    <path d="M1111.9,831.1L581.5,524.9C577.7,522.7 574.6,516.8 574.6,511.7L574.6,140.3C574.6,135.2 577.7,132.9 581.5,135.1L1111.9,441.3C1115.7,443.5 1118.8,449.4 1118.8,454.5L1118.8,826C1118.7,831 1115.7,833.3 1111.9,831.1Z" style="fill:rgb(44,165,255);fill-rule:nonzero;"/>
                </g>
            </g>
            <path d="M1047.1,893.3C1040.5,897.1 1029.9,897.1 1023.3,893.3C1016.7,889.5 1016.7,883.3 1023.3,879.5C1029.9,875.7 1040.5,875.7 1047.1,879.5C1053.7,883.4 1053.7,889.5 1047.1,893.3Z" style="fill:white;fill-rule:nonzero;"/>
            <path d="M1364.8,955.3L1256.1,891L1147.2,953.9L1145.9,953.2L1033.9,888.6L1036.4,884.2L1147.2,948L1256.1,885.1L1364.8,949.4L1477.1,884.9L1479.7,889.3L1364.8,955.3Z" style="fill:white;fill-rule:nonzero;"/>
            <g>
                <g>
                    <path d="M1342.2,738.3L1225.7,671L1342.2,603.7L1458.7,671L1342.2,738.3ZM1235.8,671L1342.2,732.4L1448.6,671L1342.2,609.6L1235.8,671Z" style="fill:white;fill-rule:nonzero;"/>
                    <path d="M1418.9,648.8L1342.2,693.1L1342.2,604.6L1418.9,560.3L1418.9,648.8Z" style="fill-rule:nonzero;"/>
                    <path d="M1342.2,604.6L1265.6,560.3L1342.2,516L1418.9,560.3L1342.2,604.6Z" style="fill:rgb(51,51,51);fill-rule:nonzero;"/>
                    <path d="M1342.2,693.1L1265.6,648.8L1265.6,560.3L1342.2,604.6L1342.2,693.1Z" style="fill:rgb(28,28,28);fill-rule:nonzero;"/>
                </g>
                <path d="M1314.6,645.3L1293.2,632.9L1293.2,608.1L1314.6,620.5L1314.6,645.3Z" style="fill:rgb(0,123,255);fill-rule:nonzero;"/>
            </g>
        </g>
    </g>
</svg>
