<?xml version="1.0" encoding="UTF-8" standalone="no"?>
<!DOCTYPE svg PUBLIC "-//W3C//DTD SVG 1.1//EN" "http://www.w3.org/Graphics/SVG/1.1/DTD/svg11.dtd">
<svg width="100%" height="100%" viewBox="0 0 1920 1080" version="1.1" xmlns="http://www.w3.org/2000/svg" xmlns:xlink="http://www.w3.org/1999/xlink" xml:space="preserve" xmlns:serif="http://www.serif.com/" style="fill-rule:evenodd;clip-rule:evenodd;stroke-linejoin:round;stroke-miterlimit:2;">
    <g>
        <g>
            <g>
                <path d="M998,1028L1432.4,777.4L842.9,437.2L408.5,687.9L998,1028Z" style="fill:rgb(169,176,174);fill-rule:nonzero;"/>
                <path id="XMLID_00000172431051565746683380000004959506262131070613_" d="M408.5,580.3L842.9,329.7L1432.4,669.8L998,920.4L408.5,580.3Z" style="fill:rgb(236,236,236);fill-rule:nonzero;"/>
                <path d="M998,938.3L998,920.4L1432.4,669.8L1432.4,687.7L998,938.3Z" style="fill-rule:nonzero;"/>
                <path d="M998,920.4L408.5,580.3L408.9,598.4L998,938.3L998,920.4Z" style="fill:rgb(108,109,106);fill-rule:nonzero;"/>
            </g>
            <g>
                <g>
                    <path d="M1113.7,595.5C1111.9,595.5 1110.1,595 1108.6,594.1L1063.1,566.5L1065,563.4L1110.5,591C1112.5,592.2 1115,592.2 1117,591L1169.6,560.6C1170.4,560.1 1170.9,559.3 1170.9,558.4C1170.9,557.5 1170.4,556.7 1169.6,556.2L1103.3,518.1L1105,514.9L1171.3,553C1173.3,554.1 1174.5,556.1 1174.5,558.3C1174.5,560.6 1173.4,562.6 1171.4,563.7L1118.8,594.1C1117.2,595.1 1115.5,595.5 1113.7,595.5Z" style="fill:rgb(169,176,174);fill-rule:nonzero;"/>
                    <path d="M595.8,649.5C594.4,649.5 593,649.1 591.7,648.4L548.3,623.4C547,622.6 546.2,621.3 546.2,619.7C546.2,618.2 547,616.8 548.3,616L680.4,537.1C686.7,533.4 694.6,533.5 700.9,537.1L826.7,609.8L824.9,612.9L699.1,540.2C693.9,537.2 687.5,537.2 682.3,540.2L550.2,619.1C549.9,619.3 549.9,619.5 549.9,619.6C549.9,619.7 549.9,620 550.2,620.1L593.6,645.1C595.1,646 597,645.9 598.4,645L627.9,625.8L629.9,628.8L600.4,648C598.9,649 597.4,649.5 595.8,649.5Z" style="fill:rgb(169,176,174);fill-rule:nonzero;"/>
                    <path d="M662,687.2C659.9,687.2 657.8,686.7 655.9,685.6L614.5,661.5C613.2,660.8 612.5,659.4 612.5,658C612.5,656.6 613.3,655.2 614.5,654.5L653.9,629.6L655.7,632.7L616.3,657.6C616.1,657.7 616.1,657.9 616.1,658C616.1,658.1 616.1,658.3 616.3,658.4L657.7,682.5C660.3,684 663.6,684 666.3,682.5L736.1,642.5C739.9,640.4 744.6,640.4 748.3,642.6L803.8,674.7C806.5,676.3 809.8,676.3 812.4,674.7L856,644L857.8,647.1L814.2,677.8C810.4,680 805.7,680 801.9,677.8L746.4,645.8C743.8,644.3 740.5,644.2 737.8,645.8L668,685.8C666.2,686.7 664.1,687.2 662,687.2Z" style="fill:rgb(169,176,174);fill-rule:nonzero;"/>
                    <path d="M997.3,864.4C995.1,864.4 992.9,863.9 991,862.8L869.4,793C867.6,792 866.5,790.1 866.5,788.1C866.5,786 867.6,784.2 869.4,783.2L923.2,752.1C924.1,751.6 924.2,750.8 924.2,750.4C924.2,750.1 924.1,749.2 923.2,748.7L861.7,714.1C860,713.1 859,711.4 858.9,709.4C858.9,707.4 859.8,705.6 861.5,704.6L901.4,674.9L903.3,678L863.4,707.7C862.6,708.2 862.5,709 862.5,709.4C862.5,709.7 862.6,710.5 863.5,711L925,745.6C926.8,746.6 927.8,748.4 927.8,750.4C927.8,752.4 926.7,754.2 925,755.2L871.2,786.3C870.3,786.8 870.2,787.7 870.2,788.1C870.2,788.5 870.3,789.3 871.2,789.9L992.8,859.7C995.7,861.3 999.3,861.3 1002.2,859.5L1052.3,827.4C1052.7,827.2 1052.7,826.8 1052.7,826.6C1052.7,826.4 1052.7,826.1 1052.3,825.8L1010.4,799.5L1014,797.5L1054.1,822.7C1055.5,823.5 1056.3,825 1056.3,826.5C1056.3,828.1 1055.5,829.5 1054.2,830.4L1004.1,862.5C1001.9,863.7 999.6,864.4 997.3,864.4Z" style="fill:rgb(169,176,174);fill-rule:nonzero;"/>
                </g>
                <g>
                    <g>
                        <g>
                            <path d="M1142.4,521.3L1142.4,495.7L1085.1,495.7L1065.3,484.3C1060.8,481.7 1052.8,482 1047.6,485L1029.1,495.7L971.7,495.7L971.7,522C971.6,523.8 972.6,525.5 974.7,526.8L1048.8,569.6C1053.3,572.2 1061.3,571.9 1066.5,568.9L1138.1,527.6C1141.1,525.7 1142.6,523.4 1142.4,521.3Z" style="fill:rgb(255,166,0);fill-rule:nonzero;"/>
                            <path d="M1057,482.5C1053.7,482.6 1050.2,483.4 1047.5,485L1029,495.7L971.6,495.7L971.6,522C971.5,523.8 972.5,525.5 974.6,526.8L1048.7,569.6C1050.9,570.9 1053.9,571.4 1056.9,571.4L1056.9,482.5L1057,482.5Z" style="fill:rgb(255,166,0);fill-rule:nonzero;"/>
                            <path d="M978.1,495.7L971.6,495.7L971.6,522C971.5,523.8 972.5,525.5 974.6,526.8L978,528.8L978,495.7L978.1,495.7Z" style="fill-opacity:0.15;fill-rule:nonzero;"/>
                            <path d="M1048.7,543.3L974.6,500.5C970.1,497.9 970.6,493.3 975.9,490.3L1047.5,449C1052.8,446 1060.7,445.6 1065.2,448.3L1139.3,491.1C1143.8,493.7 1143.3,498.3 1138,501.3L1066.4,542.6C1061.2,545.6 1053.3,545.9 1048.7,543.3Z" style="fill:rgb(249,190,0);fill-rule:nonzero;"/>
                            <g>
                                <path d="M1115.1,528.1C1115.1,530 1113.8,532.3 1112.1,533.3C1110.4,534.3 1109.1,533.5 1109.1,531.6C1109.1,529.7 1110.4,527.4 1112.1,526.4C1113.8,525.4 1115.1,526.2 1115.1,528.1Z" style="fill:white;fill-rule:nonzero;"/>
                                <path d="M1124.8,522.5C1124.8,524.4 1123.5,526.7 1121.8,527.7C1120.1,528.7 1118.8,527.9 1118.8,526C1118.8,524.1 1120.1,521.8 1121.8,520.8C1123.4,519.8 1124.8,520.6 1124.8,522.5Z" style="fill:white;fill-rule:nonzero;"/>
                                <path d="M1134.4,517C1134.4,518.9 1133.1,521.2 1131.4,522.2C1129.7,523.2 1128.4,522.4 1128.4,520.5C1128.4,518.6 1129.7,516.3 1131.4,515.3C1133,514.3 1134.4,515 1134.4,517Z" style="fill:rgb(0,123,255);fill-rule:nonzero;"/>
                            </g>
                        </g>
                        <g>
                            <path d="M1142.4,480.5L1142.4,454.9L1085.1,454.9L1065.3,443.5C1060.8,440.9 1052.8,441.2 1047.6,444.2L1029.1,454.9L971.7,454.9L971.7,481.2C971.6,483 972.6,484.7 974.7,486L1048.8,528.8C1053.3,531.4 1061.3,531.1 1066.5,528.1L1138.1,486.8C1141.1,484.8 1142.6,482.6 1142.4,480.5Z" style="fill:rgb(255,166,0);fill-rule:nonzero;"/>
                            <path d="M1057,441.6C1053.7,441.7 1050.2,442.5 1047.5,444.1L1029,454.8L971.6,454.8L971.6,481.1C971.5,482.9 972.5,484.6 974.6,485.9L1048.7,528.7C1050.9,530 1053.9,530.5 1056.9,530.5L1056.9,441.6L1057,441.6Z" style="fill:rgb(255,166,0);fill-rule:nonzero;"/>
                            <path d="M978.1,454.8L971.6,454.8L971.6,481.1C971.5,482.9 972.5,484.6 974.6,485.9L978,487.9L978,454.8L978.1,454.8Z" style="fill-opacity:0.15;fill-rule:nonzero;"/>
                            <path d="M1048.7,502.4L974.6,459.6C970.1,457 970.6,452.4 975.9,449.4L1047.5,408.1C1052.8,405.1 1060.7,404.7 1065.2,407.4L1139.3,450.2C1143.8,452.8 1143.3,457.4 1138,460.4L1066.4,501.7C1061.2,504.7 1053.3,505.1 1048.7,502.4Z" style="fill:rgb(249,190,0);fill-rule:nonzero;"/>
                            <g>
                                <path d="M1115.1,487.2C1115.1,489.1 1113.8,491.4 1112.1,492.4C1110.4,493.4 1109.1,492.6 1109.1,490.7C1109.1,488.8 1110.4,486.5 1112.1,485.5C1113.8,484.5 1115.1,485.3 1115.1,487.2Z" style="fill:rgb(0,123,255);fill-rule:nonzero;"/>
                                <path d="M1124.8,481.6C1124.8,483.5 1123.5,485.8 1121.8,486.8C1120.1,487.8 1118.8,487 1118.8,485.1C1118.8,483.2 1120.1,480.9 1121.8,479.9C1123.4,479 1124.8,479.7 1124.8,481.6Z" style="fill:white;fill-rule:nonzero;"/>
                                <path d="M1134.4,476.1C1134.4,478 1133.1,480.3 1131.4,481.3C1129.7,482.3 1128.4,481.5 1128.4,479.6C1128.4,477.7 1129.7,475.4 1131.4,474.4C1133,473.4 1134.4,474.2 1134.4,476.1Z" style="fill:white;fill-rule:nonzero;"/>
                            </g>
                        </g>
                        <g>
                            <path d="M1142.4,439.6L1142.4,414L1085.1,414L1065.3,402.6C1060.8,400 1052.8,400.3 1047.6,403.3L1029,414L971.6,414L971.6,440.3C971.5,442.1 972.5,443.8 974.6,445.1L1048.7,487.9C1053.2,490.5 1061.2,490.2 1066.4,487.2L1138,445.9C1141.1,444 1142.6,441.7 1142.4,439.6Z" style="fill:rgb(255,166,0);fill-rule:nonzero;"/>
                            <path d="M1057,400.8C1053.7,400.9 1050.2,401.7 1047.5,403.3L1029,414L971.6,414L971.6,440.3C971.5,442.1 972.5,443.8 974.6,445.1L1048.7,487.9C1050.9,489.2 1053.9,489.7 1056.9,489.7L1056.9,400.8L1057,400.8Z" style="fill:rgb(255,166,0);fill-rule:nonzero;"/>
                            <path d="M978.1,413.9L971.6,413.9L971.6,440.2C971.5,442 972.5,443.7 974.6,445L978,447L978,413.9L978.1,413.9Z" style="fill-opacity:0.15;fill-rule:nonzero;"/>
                            <path d="M1048.7,461.6L974.6,418.8C970.1,416.2 970.6,411.6 975.9,408.6L1047.5,367.3C1052.8,364.3 1060.7,363.9 1065.2,366.6L1139.3,409.4C1143.8,412 1143.3,416.6 1138,419.6L1066.4,460.9C1061.2,463.9 1053.3,464.2 1048.7,461.6Z" style="fill:rgb(249,190,0);fill-rule:nonzero;"/>
                            <g>
                                <path d="M1115.1,446.3C1115.1,448.2 1113.8,450.5 1112.1,451.5C1110.4,452.5 1109.1,451.7 1109.1,449.8C1109.1,447.9 1110.4,445.6 1112.1,444.6C1113.8,443.6 1115.1,444.4 1115.1,446.3Z" style="fill:rgb(0,123,255);fill-rule:nonzero;"/>
                                <path d="M1124.8,440.8C1124.8,442.7 1123.5,445 1121.8,446C1120.1,447 1118.8,446.2 1118.8,444.3C1118.8,442.4 1120.1,440.1 1121.8,439.1C1123.4,438.1 1124.8,438.9 1124.8,440.8Z" style="fill:white;fill-rule:nonzero;"/>
                                <path d="M1134.4,435.2C1134.4,437.1 1133.1,439.4 1131.4,440.4C1129.7,441.4 1128.4,440.6 1128.4,438.7C1128.4,436.8 1129.7,434.5 1131.4,433.5C1133,432.5 1134.4,433.3 1134.4,435.2Z" style="fill:white;fill-rule:nonzero;"/>
                            </g>
                            <g>
                                <path d="M1053.1,435L1018.4,415C1016.3,413.8 1016.5,411.6 1019,410.2L1052.5,390.9C1055,389.5 1058.7,389.3 1060.8,390.6L1095.5,410.6C1097.6,411.8 1097.4,414 1094.9,415.4L1061.4,434.7C1059,436.1 1055.3,436.3 1053.1,435Z" style="fill:rgb(51,51,51);fill-rule:nonzero;"/>
                                <path d="M1056.4,418.3L1051.6,415.5C1051.3,415.3 1051.3,415 1051.7,414.8L1056.3,412.1C1056.6,411.9 1057.2,411.9 1057.4,412.1L1062.2,414.9C1062.5,415.1 1062.5,415.4 1062.1,415.6L1057.5,418.3C1057.3,418.4 1056.7,418.4 1056.4,418.3Z" style="fill:rgb(108,109,106);fill-rule:nonzero;"/>
                                <path d="M1018.4,415C1018.7,414.9 1018.8,414.8 1019,414.7L1052.5,395.4C1055,394 1058.7,393.8 1060.8,395.1L1095.4,415.1C1097.4,413.7 1097.5,411.8 1095.5,410.6L1060.8,390.6C1058.7,389.4 1055,389.5 1052.5,390.9L1019,410.2C1016.6,411.6 1016.3,413.8 1018.4,415Z" style="fill:rgb(108,109,106);fill-rule:nonzero;"/>
                            </g>
                        </g>
                    </g>
                </g>
                <g>
                    <g>
                        <path d="M741.2,593.5L741.2,567.6L683.2,567.6L663.2,556C658.6,553.3 650.6,553.7 645.3,556.7L626.6,567.5L568.6,567.5L568.6,594.1C568.5,595.9 569.5,597.6 571.7,598.9L646.6,642.2C651.2,644.9 659.2,644.5 664.5,641.5L736.8,599.7C739.9,597.9 741.4,595.6 741.2,593.5Z" style="fill:rgb(255,166,0);fill-rule:nonzero;"/>
                        <path d="M654.9,554.2C651.5,554.3 648,555.1 645.3,556.7L626.6,567.5L568.6,567.5L568.6,594.1C568.5,595.9 569.5,597.6 571.7,598.9L646.6,642.2C648.8,643.5 651.8,644.1 654.9,644L654.9,554.2Z" style="fill:rgb(255,166,0);fill-rule:nonzero;"/>
                        <path d="M646.6,615.7L571.7,572.4C567.1,569.7 567.7,565.1 573,562L645.3,520.2C650.6,517.1 658.6,516.8 663.2,519.5L738.1,562.8C742.7,565.5 742.1,570.1 736.8,573.2L664.5,615C659.2,618 651.2,618.3 646.6,615.7Z" style="fill:rgb(249,190,0);fill-rule:nonzero;"/>
                        <g>
                            <path d="M713.6,600.3C713.6,602.2 712.2,604.6 710.6,605.5C708.9,606.5 707.6,605.7 707.6,603.8C707.6,601.9 709,599.5 710.6,598.6C712.3,597.6 713.6,598.3 713.6,600.3Z" style="fill:rgb(0,123,255);fill-rule:nonzero;"/>
                            <path d="M723.4,594.7C723.4,596.6 722,599 720.4,599.9C718.7,600.9 717.4,600.1 717.4,598.2C717.4,596.3 718.8,593.9 720.4,593C722,591.9 723.4,592.7 723.4,594.7Z" style="fill:white;fill-rule:nonzero;"/>
                            <path d="M733.1,589C733.1,590.9 731.7,593.3 730.1,594.2C728.4,595.2 727.1,594.4 727.1,592.5C727.1,590.6 728.5,588.2 730.1,587.3C731.8,586.3 733.1,587.1 733.1,589Z" style="fill:white;fill-rule:nonzero;"/>
                        </g>
                    </g>
                    <g>
                        <path d="M741.2,552.1L741.2,526.2L683.2,526.2L663.2,514.6C658.6,511.9 650.6,512.3 645.3,515.3L626.6,526.1L568.6,526.1L568.6,552.7C568.5,554.5 569.5,556.2 571.7,557.5L646.6,600.8C651.2,603.5 659.2,603.1 664.5,600.1L736.8,558.3C739.9,556.6 741.4,554.3 741.2,552.1Z" style="fill:rgb(255,166,0);fill-rule:nonzero;"/>
                        <path d="M654.9,512.9C651.5,513 648,513.8 645.3,515.4L626.6,526.2L568.6,526.2L568.6,552.8C568.5,554.6 569.5,556.3 571.7,557.6L646.6,600.9C648.8,602.2 651.8,602.8 654.9,602.7L654.9,512.9Z" style="fill:rgb(255,166,0);fill-rule:nonzero;"/>
                        <path d="M646.6,574.4L571.7,531.1C567.1,528.4 567.7,523.8 573,520.7L645.3,478.9C650.6,475.8 658.6,475.5 663.2,478.2L738.1,521.5C742.7,524.2 742.1,528.8 736.8,531.9L664.5,573.7C659.2,576.7 651.2,577 646.6,574.4Z" style="fill:rgb(249,190,0);fill-rule:nonzero;"/>
                        <g>
                            <path d="M713.6,559C713.6,560.9 712.2,563.3 710.6,564.2C709,565.1 707.6,564.4 707.6,562.5C707.6,560.6 709,558.2 710.6,557.3C712.3,556.2 713.6,557 713.6,559Z" style="fill:white;fill-rule:nonzero;"/>
                            <path d="M723.4,553.3C723.4,555.2 722,557.6 720.4,558.5C718.7,559.5 717.4,558.7 717.4,556.8C717.4,554.9 718.8,552.5 720.4,551.6C722,550.6 723.4,551.4 723.4,553.3Z" style="fill:white;fill-rule:nonzero;"/>
                            <path d="M733.1,547.7C733.1,549.6 731.7,552 730.1,552.9C728.4,553.9 727.1,553.1 727.1,551.2C727.1,549.3 728.5,546.9 730.1,546C731.8,545 733.1,545.8 733.1,547.7Z" style="fill:rgb(0,123,255);fill-rule:nonzero;"/>
                        </g>
                    </g>
                    <g>
                        <path d="M741.2,510.8L741.2,485L683.2,485L663.2,473.4C658.6,470.7 650.6,471.1 645.3,474.1L626.6,484.9L568.6,484.9L568.6,511.5C568.5,513.3 569.5,515 571.7,516.3L646.6,559.6C651.2,562.3 659.2,561.9 664.5,558.9L736.8,517.1C739.9,515.3 741.4,513 741.2,510.8Z" style="fill:rgb(255,166,0);fill-rule:nonzero;"/>
                        <path d="M654.9,471.6C651.5,471.7 648,472.5 645.3,474.1L626.6,484.9L568.6,484.9L568.6,511.5C568.5,513.3 569.5,515 571.7,516.3L646.6,559.6C648.8,560.9 651.8,561.5 654.9,561.4L654.9,471.6Z" style="fill:rgb(255,166,0);fill-rule:nonzero;"/>
                        <path d="M646.6,533L571.7,489.7C567.1,487 567.7,482.4 573,479.3L645.3,437.5C650.6,434.4 658.6,434.1 663.2,436.8L738.1,480.1C742.7,482.8 742.1,487.4 736.8,490.5L664.5,532.3C659.2,535.4 651.2,535.7 646.6,533Z" style="fill:rgb(249,190,0);fill-rule:nonzero;"/>
                        <g>
                            <path d="M713.6,517.7C713.6,519.6 712.2,522 710.6,522.9C708.9,523.9 707.6,523.1 707.6,521.2C707.6,519.3 709,516.9 710.6,516C712.3,514.9 713.6,515.7 713.6,517.7Z" style="fill:white;fill-rule:nonzero;"/>
                            <path d="M723.4,512C723.4,513.9 722,516.3 720.4,517.2C718.7,518.2 717.4,517.4 717.4,515.5C717.4,513.6 718.8,511.2 720.4,510.3C722,509.3 723.4,510.1 723.4,512Z" style="fill:rgb(0,123,255);fill-rule:nonzero;"/>
                            <path d="M733.1,506.4C733.1,508.3 731.7,510.7 730.1,511.6C728.4,512.6 727.1,511.8 727.1,509.9C727.1,508 728.5,505.6 730.1,504.7C731.8,503.7 733.1,504.5 733.1,506.4Z" style="fill:white;fill-rule:nonzero;"/>
                        </g>
                        <g>
                            <path d="M651,506.2L615.9,486C613.7,484.8 614,482.6 616.5,481.2L650.4,461.7C652.9,460.3 656.6,460.1 658.8,461.4L693.9,481.6C696.1,482.8 695.8,485 693.3,486.4L659.4,505.9C656.9,507.3 653.1,507.5 651,506.2Z" style="fill:rgb(51,51,51);fill-rule:nonzero;"/>
                            <path d="M654.3,489.3L649.4,486.5C649.1,486.3 649.1,486 649.5,485.8L654.2,483.1C654.5,482.9 655.1,482.9 655.4,483.1L660.3,485.9C660.6,486.1 660.6,486.4 660.2,486.6L655.5,489.3C655.2,489.4 654.6,489.4 654.3,489.3Z" style="fill:rgb(108,109,106);fill-rule:nonzero;"/>
                            <path d="M615.9,486C616.2,485.9 616.3,485.8 616.5,485.7L650.4,466.2C652.9,464.8 656.6,464.6 658.8,465.9L693.8,486.1C695.8,484.7 695.9,482.7 693.9,481.6L658.8,461.4C656.6,460.2 652.9,460.3 650.4,461.7L616.5,481.2C614,482.6 613.8,484.7 615.9,486Z" style="fill:rgb(108,109,106);fill-rule:nonzero;"/>
                        </g>
                    </g>
                    <g>
                        <path d="M641.7,540.6C641.7,541.9 640.8,542.4 639.7,541.8C638.6,541.2 637.7,539.6 637.7,538.3C637.7,537 638.6,536.5 639.7,537.1C640.8,537.7 641.7,539.3 641.7,540.6Z" style="fill:rgb(51,51,51);fill-rule:nonzero;"/>
                        <path d="M635.4,537C635.4,538.3 634.5,538.8 633.4,538.2C632.3,537.6 631.4,536 631.4,534.7C631.4,533.4 632.3,532.9 633.4,533.5C634.5,534.1 635.4,535.7 635.4,537Z" style="fill:rgb(51,51,51);fill-rule:nonzero;"/>
                        <path d="M641.7,548.2C641.7,549.5 640.8,550 639.7,549.4C638.6,548.8 637.7,547.2 637.7,545.9C637.7,544.6 638.6,544.1 639.7,544.7C640.8,545.3 641.7,546.9 641.7,548.2Z" style="fill:rgb(51,51,51);fill-rule:nonzero;"/>
                        <path d="M635.4,544.6C635.4,545.9 634.5,546.4 633.4,545.8C632.3,545.2 631.4,543.6 631.4,542.3C631.4,541 632.3,540.5 633.4,541.1C634.5,541.7 635.4,543.3 635.4,544.6Z" style="fill:rgb(51,51,51);fill-rule:nonzero;"/>
                    </g>
                    <g>
                        <path d="M641.7,581.7C641.7,583 640.8,583.5 639.7,582.9C638.6,582.3 637.7,580.7 637.7,579.4C637.7,578.1 638.6,577.6 639.7,578.2C640.8,578.8 641.7,580.4 641.7,581.7Z" style="fill:rgb(51,51,51);fill-rule:nonzero;"/>
                        <path d="M635.4,578.1C635.4,579.4 634.5,579.9 633.4,579.3C632.3,578.7 631.4,577.1 631.4,575.8C631.4,574.5 632.3,574 633.4,574.6C634.5,575.2 635.4,576.8 635.4,578.1Z" style="fill:rgb(51,51,51);fill-rule:nonzero;"/>
                        <path d="M641.7,589.3C641.7,590.6 640.8,591.1 639.7,590.5C638.6,589.9 637.7,588.3 637.7,587C637.7,585.7 638.6,585.2 639.7,585.8C640.8,586.4 641.7,588 641.7,589.3Z" style="fill:rgb(51,51,51);fill-rule:nonzero;"/>
                        <path d="M635.4,585.7C635.4,587 634.5,587.5 633.4,586.9C632.3,586.3 631.4,584.7 631.4,583.4C631.4,582.1 632.3,581.6 633.4,582.2C634.5,582.8 635.4,584.4 635.4,585.7Z" style="fill:rgb(51,51,51);fill-rule:nonzero;"/>
                    </g>
                    <g>
                        <path d="M641.7,622.8C641.7,624.1 640.8,624.6 639.7,624C638.6,623.4 637.7,621.8 637.7,620.5C637.7,619.2 638.6,618.7 639.7,619.3C640.8,619.9 641.7,621.5 641.7,622.8Z" style="fill:rgb(51,51,51);fill-rule:nonzero;"/>
                        <path d="M635.4,619.2C635.4,620.5 634.5,621 633.4,620.4C632.3,619.8 631.4,618.2 631.4,616.9C631.4,615.6 632.3,615.1 633.4,615.7C634.5,616.3 635.4,617.9 635.4,619.2Z" style="fill:rgb(51,51,51);fill-rule:nonzero;"/>
                        <path d="M641.7,630.4C641.7,631.7 640.8,632.2 639.7,631.6C638.6,631 637.7,629.4 637.7,628.1C637.7,626.8 638.6,626.3 639.7,626.9C640.8,627.6 641.7,629.1 641.7,630.4Z" style="fill:rgb(51,51,51);fill-rule:nonzero;"/>
                        <path d="M635.4,626.8C635.4,628.1 634.5,628.6 633.4,628C632.3,627.4 631.4,625.8 631.4,624.5C631.4,623.2 632.3,622.7 633.4,623.3C634.5,623.9 635.4,625.5 635.4,626.8Z" style="fill:rgb(51,51,51);fill-rule:nonzero;"/>
                    </g>
                </g>
                <g>
                    <g>
                        <g>
                            <g>
                                <path d="M1021.6,630.8L1021.6,331.6L902.7,300.5L880.8,287.9C875.8,285 867,285.4 861.2,288.7L840.8,300.5L777.4,300.5L796,589.2C795.9,591.2 797,593.1 799.4,594.5L918.1,684.1C923.1,687 931.9,686.6 937.7,683.3L1016.8,637.6C1020.2,635.7 1021.8,633.1 1021.6,630.8Z" style="fill:rgb(153,153,153);fill-rule:nonzero;"/>
                                <path d="M871.6,285.9C867.9,286 864.1,286.9 861.1,288.7L840.7,300.5L777.3,300.5L777.3,600.5C777.2,602.5 778.3,604.4 780.7,605.8L918.2,684.2C920.6,685.6 923.9,686.2 927.3,686.1L928.7,384.2L871.6,285.9Z" style="fill:rgb(153,153,153);fill-rule:nonzero;"/>
                                <path d="M919.3,684.7C923.6,686.6 1016.5,632.8 1021.5,630.8L1021.5,331.6L919.3,380.6L919.3,684.7Z" style="fill:rgb(108,109,106);fill-rule:nonzero;"/>
                                <path d="M918.1,384.2L780.6,305.8C775.6,302.9 776.2,297.8 782,294.5L861.1,248.8C866.9,245.4 875.7,245.1 880.7,248L1018.2,326.4C1023.2,329.3 1022.6,334.4 1016.8,337.7L937.7,383.4C931.9,386.7 923.1,387.1 918.1,384.2Z" style="fill:rgb(236,236,236);fill-rule:nonzero;"/>
                                <path d="M1016.8,332.1L937.7,377.8C931.9,381.2 923.1,381.5 918.1,378.6L780.6,300.2C779.5,299.6 778.7,298.8 778.1,298C776.4,300.8 777.2,303.8 780.6,305.8L918.1,384.2C923.1,387.1 931.9,386.7 937.7,383.4L1016.8,337.7C1021.3,335.1 1022.7,331.5 1020.7,328.6C1019.9,329.8 1018.6,331.1 1016.8,332.1Z" style="fill:white;fill-rule:nonzero;"/>
                                <g>
                                    <path d="M922,352.4L830.5,299.3C828.1,297.9 828.4,295.6 831.2,294L868.2,272.6C870.9,271 875,270.9 877.4,272.2L968.9,325.3C971.3,326.7 971,329 968.2,330.6L931.2,352C928.4,353.6 924.3,353.7 922,352.4Z" style="fill:rgb(51,51,51);fill-rule:nonzero;"/>
                                    <g>
                                        <path d="M872.6,301.7L867.3,298.6C867,298.4 867,298.1 867.4,297.9L872.5,294.9C872.9,294.7 873.4,294.7 873.8,294.8L879.1,297.9C879.4,298.1 879.4,298.4 879,298.6L873.9,301.6C873.4,301.9 872.9,301.9 872.6,301.7Z" style="fill:rgb(108,109,106);fill-rule:nonzero;"/>
                                        <path d="M890.3,311.9L885,308.8C884.7,308.6 884.7,308.3 885.1,308.1L890.2,305.1C890.6,304.9 891.1,304.9 891.5,305L896.8,308.1C897.1,308.3 897.1,308.6 896.7,308.8L891.6,311.8C891.2,312.1 890.6,312.1 890.3,311.9Z" style="fill:rgb(108,109,106);fill-rule:nonzero;"/>
                                        <path d="M908,322.1L902.7,319C902.4,318.8 902.4,318.5 902.8,318.3L907.9,315.3C908.3,315.1 908.8,315.1 909.2,315.2L914.5,318.3C914.8,318.5 914.8,318.8 914.4,319L909.3,322C908.9,322.3 908.3,322.3 908,322.1Z" style="fill:rgb(108,109,106);fill-rule:nonzero;"/>
                                        <path d="M925.7,332.3L920.4,329.2C920.1,329 920.1,328.7 920.5,328.5L925.6,325.5C926,325.3 926.5,325.3 926.9,325.4L932.2,328.5C932.5,328.7 932.5,329 932.1,329.2L927,332.2C926.6,332.4 926,332.5 925.7,332.3Z" style="fill:rgb(108,109,106);fill-rule:nonzero;"/>
                                    </g>
                                    <path d="M830.4,299.3L830.5,299.4C830.7,299.3 830.8,299.1 831.1,299L868.1,277.6C870.8,276 874.9,275.9 877.3,277.2L968.7,330.2C970.9,328.6 971,326.5 968.8,325.3L877.3,272.2C874.9,270.8 870.8,271 868.1,272.6L831.1,294C828.4,295.6 828.1,298 830.4,299.3Z" style="fill:rgb(108,109,106);fill-rule:nonzero;"/>
                                </g>
                            </g>
                            <g>
                                <path d="M953.1,443.4L1005.1,413.6C1008,411.9 1010.4,407.4 1010.4,403.5L1010.4,384.9C1010.4,381 1008,379.2 1005.1,380.9L953.1,410.7C950.2,412.4 947.8,416.9 947.8,420.8L947.8,439.4C947.8,443.3 950.2,445.1 953.1,443.4Z" style="fill:rgb(51,51,51);fill-rule:nonzero;"/>
                                <path d="M1007.8,380.3C1008.6,381.1 1009.1,382.4 1009.1,384.2L1009.1,402.8C1009.1,406.7 1006.7,411.2 1003.8,412.9L951.8,442.7C950.9,443.2 950,443.4 949.2,443.3C950.2,444.2 951.6,444.4 953.2,443.4L1005.2,413.6C1008.1,411.9 1010.5,407.4 1010.5,403.5L1010.5,384.9C1010.5,382.2 1009.4,380.6 1007.8,380.3Z" style="fill:rgb(108,109,106);fill-rule:nonzero;"/>
                                <g>
                                    <path d="M968.8,423.2L973.6,420.4C974.2,420 974.8,419 974.8,418.2L974.8,413.1C974.8,412.2 974.3,411.9 973.6,412.2L968.8,415C968.2,415.4 967.6,416.4 967.6,417.2L967.6,422.3C967.6,423.2 968.2,423.6 968.8,423.2Z" style="fill:rgb(108,109,106);fill-rule:nonzero;"/>
                                    <path d="M984.8,414L989.6,411.2C990.2,410.8 990.8,409.8 990.8,409L990.8,403.9C990.8,403 990.3,402.7 989.6,403L984.8,405.8C984.2,406.2 983.6,407.2 983.6,408L983.6,413.1C983.6,414 984.1,414.4 984.8,414Z" style="fill:rgb(108,109,106);fill-rule:nonzero;"/>
                                </g>
                            </g>
                            <g>
                                <path d="M953.1,577.9L1005.1,548.1C1008,546.4 1010.4,541.9 1010.4,538L1010.4,519.4C1010.4,515.5 1008,513.7 1005.1,515.4L953.1,545.2C950.2,546.9 947.8,551.4 947.8,555.3L947.8,573.9C947.8,577.8 950.2,579.6 953.1,577.9Z" style="fill:rgb(51,51,51);fill-rule:nonzero;"/>
                                <path d="M1007.8,514.8C1008.6,515.6 1009.1,516.9 1009.1,518.7L1009.1,537.3C1009.1,541.2 1006.7,545.7 1003.8,547.4L951.8,577.2C950.9,577.7 950,577.9 949.2,577.8C950.2,578.7 951.6,578.9 953.2,577.9L1005.2,548.1C1008.1,546.4 1010.5,541.9 1010.5,538L1010.5,519.4C1010.5,516.7 1009.4,515.1 1007.8,514.8Z" style="fill:rgb(108,109,106);fill-rule:nonzero;"/>
                                <g>
                                    <path d="M968.8,557.7L973.6,554.9C974.2,554.5 974.8,553.5 974.8,552.7L974.8,547.6C974.8,546.7 974.3,546.4 973.6,546.7L968.8,549.5C968.2,549.9 967.6,550.9 967.6,551.7L967.6,556.8C967.6,557.7 968.2,558.1 968.8,557.7Z" style="fill:rgb(108,109,106);fill-rule:nonzero;"/>
                                    <path d="M984.8,548.5L989.6,545.7C990.2,545.3 990.8,544.3 990.8,543.5L990.8,538.4C990.8,537.5 990.3,537.2 989.6,537.5L984.8,540.3C984.2,540.7 983.6,541.7 983.6,542.5L983.6,547.6C983.6,548.5 984.1,548.9 984.8,548.5Z" style="fill:rgb(108,109,106);fill-rule:nonzero;"/>
                                </g>
                            </g>
                            <g>
                                <path d="M953.1,645.2L1005.1,615.4C1008,613.7 1010.4,609.2 1010.4,605.3L1010.4,586.7C1010.4,582.8 1008,581 1005.1,582.7L953.1,612.5C950.2,614.2 947.8,618.7 947.8,622.6L947.8,641.2C947.8,645.1 950.2,646.9 953.1,645.2Z" style="fill:rgb(51,51,51);fill-rule:nonzero;"/>
                                <path d="M1007.8,582.1C1008.6,582.9 1009.1,584.2 1009.1,586L1009.1,604.6C1009.1,608.5 1006.7,613 1003.8,614.7L951.8,644.5C950.9,645 950,645.2 949.2,645.1C950.2,646 951.6,646.2 953.2,645.2L1005.2,615.4C1008.1,613.7 1010.5,609.2 1010.5,605.3L1010.5,586.7C1010.5,584 1009.4,582.3 1007.8,582.1Z" style="fill:rgb(108,109,106);fill-rule:nonzero;"/>
                                <g>
                                    <path d="M968.8,625L973.6,622.2C974.2,621.8 974.8,620.8 974.8,620L974.8,614.9C974.8,614 974.3,613.7 973.6,614L968.8,616.8C968.2,617.2 967.6,618.2 967.6,619L967.6,624.1C967.6,624.9 968.2,625.3 968.8,625Z" style="fill:white;fill-rule:nonzero;"/>
                                    <path d="M984.8,615.8L989.6,613C990.2,612.6 990.8,611.6 990.8,610.8L990.8,605.7C990.8,604.8 990.3,604.5 989.6,604.8L984.8,607.6C984.2,608 983.6,609 983.6,609.8L983.6,614.9C983.6,615.7 984.1,616.1 984.8,615.8Z" style="fill:rgb(57,108,170);fill-rule:nonzero;"/>
                                </g>
                            </g>
                            <g>
                                <path d="M953.1,510.7L1005.1,480.9C1008,479.2 1010.4,474.7 1010.4,470.8L1010.4,452.2C1010.4,448.3 1008,446.5 1005.1,448.2L953.1,478C950.2,479.7 947.8,484.2 947.8,488.1L947.8,506.7C947.8,510.6 950.2,512.4 953.1,510.7Z" style="fill:rgb(51,51,51);fill-rule:nonzero;"/>
                                <path d="M1007.8,447.6C1008.6,448.4 1009.1,449.7 1009.1,451.5L1009.1,470.1C1009.1,474 1006.7,478.5 1003.8,480.2L951.8,510C950.9,510.5 950,510.7 949.2,510.6C950.2,511.5 951.6,511.7 953.2,510.7L1005.2,480.9C1008.1,479.2 1010.5,474.7 1010.5,470.8L1010.5,452.2C1010.5,449.5 1009.4,447.9 1007.8,447.6Z" style="fill:rgb(108,109,106);fill-rule:nonzero;"/>
                                <g>
                                    <path d="M968.8,490.5L973.6,487.7C974.2,487.3 974.8,486.3 974.8,485.5L974.8,480.4C974.8,479.5 974.3,479.2 973.6,479.5L968.8,482.3C968.2,482.7 967.6,483.7 967.6,484.5L967.6,489.6C967.6,490.5 968.2,490.8 968.8,490.5Z" style="fill:rgb(108,109,106);fill-rule:nonzero;"/>
                                    <path d="M984.8,481.3L989.6,478.5C990.2,478.1 990.8,477.1 990.8,476.3L990.8,471.2C990.8,470.3 990.3,470 989.6,470.3L984.8,473.1C984.2,473.5 983.6,474.5 983.6,475.3L983.6,480.4C983.6,481.2 984.1,481.6 984.8,481.3Z" style="fill:rgb(108,109,106);fill-rule:nonzero;"/>
                                </g>
                            </g>
                        </g>
                        <g>
                            <path d="M908.1,424.4L788,355.1C785.3,353.5 783.1,349.4 783.1,345.8L783.1,322.9C783.1,319.3 785.3,317.7 788,319.2L908.1,388.5C910.8,390.1 913,394.2 913,397.8L913,420.7C912.9,424.3 910.8,425.9 908.1,424.4Z" style="fill:rgb(108,109,106);fill-rule:nonzero;"/>
                            <path d="M904.6,416.4L791.4,351C790,350.2 788.9,348.1 788.9,346.3L788.9,329.1C788.9,327.3 790,326.4 791.4,327.2L904.6,392.5C906,393.3 907.1,395.4 907.1,397.2L907.1,414.4C907.1,416.3 906,417.2 904.6,416.4Z" style="fill:rgb(51,51,51);fill-rule:nonzero;"/>
                            <path d="M815,355.9L798.1,346.1C796.8,345.3 795.7,343.3 795.7,341.5C795.7,339.7 796.8,338.9 798.1,339.7L815,349.5C816.3,350.3 817.4,352.3 817.4,354.1C817.4,355.9 816.4,356.7 815,355.9Z" style="fill:rgb(255,166,0);fill-rule:nonzero;"/>
                            <path d="M829.4,361C829.4,362.8 828.2,363.5 826.6,362.6C825.1,361.7 823.8,359.6 823.8,357.8C823.8,356 825,355.3 826.6,356.2C828.2,357.1 829.4,359.3 829.4,361Z" style="fill:white;fill-rule:nonzero;"/>
                            <path d="M839.2,366.7C839.2,368.5 838,369.2 836.4,368.3C834.8,367.4 833.6,365.3 833.6,363.5C833.6,361.7 834.8,361 836.4,361.9C837.9,362.8 839.2,364.9 839.2,366.7Z" style="fill:white;fill-rule:nonzero;"/>
                            <path d="M849,372.3C849,374.1 847.8,374.8 846.2,373.9C844.7,373 843.4,370.9 843.4,369.1C843.4,367.3 844.6,366.6 846.2,367.5C847.7,368.4 849,370.6 849,372.3Z" style="fill:rgb(40,167,69);fill-rule:nonzero;"/>
                            <path d="M858.7,378C858.7,379.8 857.5,380.5 855.9,379.6C854.4,378.7 853.1,376.6 853.1,374.8C853.1,373 854.3,372.3 855.9,373.2C857.5,374.1 858.7,376.2 858.7,378Z" style="fill:white;fill-rule:nonzero;"/>
                            <path d="M899.9,406.8L894.2,403.5C893.4,403 892.7,401.7 892.7,400.6L892.7,394.6C892.7,393.5 893.4,392.9 894.2,393.4L899.9,396.7C900.7,397.2 901.4,398.5 901.4,399.6L901.4,405.6C901.4,406.7 900.7,407.3 899.9,406.8Z" style="fill:rgb(255,166,0);fill-rule:nonzero;"/>
                        </g>
                        <g>
                            <path d="M788,395.4C785.3,393.8 783.1,389.7 783.1,386.1L783.1,363.2C783.1,359.6 785.3,358 788,359.5L908.1,428.8C910.8,430.4 913,434.5 913,438.1L913,461C913,464.6 910.8,466.2 908.1,464.7" style="fill:rgb(108,109,106);fill-rule:nonzero;"/>
                            <path d="M904.6,456.7L791.4,391.4C790,390.6 788.9,388.5 788.9,386.7L788.9,369.5C788.9,367.7 790,366.8 791.4,367.6L904.6,432.9C906,433.7 907.1,435.8 907.1,437.6L907.1,454.8C907.1,456.7 906,457.5 904.6,456.7Z" style="fill:rgb(51,51,51);fill-rule:nonzero;"/>
                            <path d="M815,396.3L798.1,386.5C796.8,385.7 795.7,383.7 795.7,381.9C795.7,380.1 796.8,379.3 798.1,380.1L815,389.9C816.3,390.7 817.4,392.7 817.4,394.5C817.4,396.3 816.4,397.1 815,396.3Z" style="fill:rgb(255,166,0);fill-rule:nonzero;"/>
                            <path d="M829.4,401.4C829.4,403.2 828.2,403.9 826.6,403C825.1,402.1 823.8,400 823.8,398.2C823.8,396.4 825,395.7 826.6,396.6C828.2,397.5 829.4,399.7 829.4,401.4Z" style="fill:rgb(40,167,69);fill-rule:nonzero;"/>
                            <path d="M839.2,407.1C839.2,408.9 838,409.6 836.4,408.7C834.9,407.8 833.6,405.7 833.6,403.9C833.6,402.1 834.8,401.4 836.4,402.3C837.9,403.2 839.2,405.3 839.2,407.1Z" style="fill:white;fill-rule:nonzero;"/>
                            <path d="M849,412.7C849,414.5 847.8,415.2 846.2,414.3C844.7,413.4 843.4,411.3 843.4,409.5C843.4,407.7 844.6,407 846.2,407.9C847.7,408.8 849,410.9 849,412.7Z" style="fill:rgb(87,177,84);fill-rule:nonzero;"/>
                            <path d="M858.7,418.3C858.7,420.1 857.5,420.8 855.9,419.9C854.4,419 853.1,416.9 853.1,415.1C853.1,413.3 854.3,412.6 855.9,413.5C857.5,414.4 858.7,416.6 858.7,418.3Z" style="fill:white;fill-rule:nonzero;"/>
                            <path d="M899.9,447.2L894.2,443.9C893.4,443.4 892.7,442.1 892.7,441L892.7,435C892.7,433.9 893.4,433.3 894.2,433.8L899.9,437.1C900.7,437.6 901.4,438.9 901.4,440L901.4,446C901.4,447.1 900.7,447.6 899.9,447.2Z" style="fill:rgb(255,166,0);fill-rule:nonzero;"/>
                        </g>
                        <g>
                            <path d="M788,435.8C785.3,434.2 783.1,430.1 783.1,426.5L783.1,403.6C783.1,400 785.3,398.4 788,399.9L908.1,469.2C910.8,470.8 913,474.9 913,478.5L913,501.4C913,505 910.8,506.6 908.1,505.1" style="fill:rgb(108,109,106);fill-rule:nonzero;"/>
                            <path d="M904.6,497.1L791.4,431.8C790,431 788.9,428.9 788.9,427.1L788.9,409.9C788.9,408.1 790,407.2 791.4,408L904.6,473.3C906,474.1 907.1,476.2 907.1,478L907.1,495.2C907.1,497.1 906,497.9 904.6,497.1Z" style="fill:rgb(51,51,51);fill-rule:nonzero;"/>
                            <path d="M815,436.7L798.1,426.9C796.8,426.1 795.7,424.1 795.7,422.3C795.7,420.5 796.8,419.7 798.1,420.5L815,430.3C816.3,431.1 817.4,433.1 817.4,434.9C817.4,436.6 816.4,437.4 815,436.7Z" style="fill:rgb(255,166,0);fill-rule:nonzero;"/>
                            <path d="M829.4,441.8C829.4,443.6 828.2,444.3 826.6,443.4C825.1,442.5 823.8,440.4 823.8,438.6C823.8,436.8 825,436.1 826.6,437C828.2,437.9 829.4,440 829.4,441.8Z" style="fill:white;fill-rule:nonzero;"/>
                            <path d="M839.2,447.4C839.2,449.2 838,449.9 836.4,449C834.9,448.1 833.6,446 833.6,444.2C833.6,442.4 834.8,441.7 836.4,442.6C837.9,443.5 839.2,445.7 839.2,447.4Z" style="fill:rgb(220,53,69);fill-rule:nonzero;"/>
                            <path d="M849,453.1C849,454.9 847.8,455.6 846.2,454.7C844.7,453.8 843.4,451.7 843.4,449.9C843.4,448.1 844.6,447.4 846.2,448.3C847.8,449.2 849,451.3 849,453.1Z" style="fill:white;fill-rule:nonzero;"/>
                            <path d="M858.7,458.7C858.7,460.5 857.5,461.2 855.9,460.3C854.4,459.4 853.1,457.3 853.1,455.5C853.1,453.7 854.3,453 855.9,453.9C857.5,454.8 858.7,456.9 858.7,458.7Z" style="fill:rgb(234,81,89);fill-rule:nonzero;"/>
                            <path d="M899.9,487.5L894.2,484.2C893.4,483.7 892.7,482.4 892.7,481.3L892.7,475.3C892.7,474.2 893.4,473.6 894.2,474.1L899.9,477.4C900.7,477.9 901.4,479.2 901.4,480.3L901.4,486.3C901.4,487.5 900.7,488 899.9,487.5Z" style="fill:rgb(255,166,0);fill-rule:nonzero;"/>
                        </g>
                        <g>
                            <path d="M788,476.2C785.3,474.6 783.1,470.5 783.1,466.9L783.1,444C783.1,440.4 785.3,438.8 788,440.3L908.1,509.6C910.8,511.2 913,515.3 913,518.9L913,541.8C913,545.4 910.8,547 908.1,545.5" style="fill:rgb(108,109,106);fill-rule:nonzero;"/>
                            <path d="M904.6,537.5L791.4,472.2C790,471.4 788.9,469.3 788.9,467.5L788.9,450.3C788.9,448.5 790,447.6 791.4,448.4L904.6,513.7C906,514.5 907.1,516.6 907.1,518.4L907.1,535.6C907.1,537.4 906,538.3 904.6,537.5Z" style="fill:rgb(51,51,51);fill-rule:nonzero;"/>
                            <path d="M815,477.1L798.1,467.3C796.8,466.5 795.7,464.5 795.7,462.7C795.7,460.9 796.8,460.1 798.1,460.9L815,470.7C816.3,471.5 817.4,473.5 817.4,475.3C817.4,477 816.4,477.8 815,477.1Z" style="fill:rgb(255,166,0);fill-rule:nonzero;"/>
                            <path d="M829.4,482.2C829.4,484 828.2,484.7 826.6,483.8C825.1,482.9 823.8,480.8 823.8,479C823.8,477.2 825,476.5 826.6,477.4C828.2,478.3 829.4,480.4 829.4,482.2Z" style="fill:rgb(186,22,49);fill-rule:nonzero;"/>
                            <path d="M839.2,487.8C839.2,489.6 838,490.3 836.4,489.4C834.9,488.5 833.6,486.4 833.6,484.6C833.6,482.8 834.8,482.1 836.4,483C837.9,483.9 839.2,486 839.2,487.8Z" style="fill:rgb(220,53,69);fill-rule:nonzero;"/>
                            <path d="M849,493.5C849,495.3 847.8,496 846.2,495.1C844.7,494.2 843.4,492.1 843.4,490.3C843.4,488.5 844.6,487.8 846.2,488.7C847.7,489.5 849,491.7 849,493.5Z" style="fill:white;fill-rule:nonzero;"/>
                            <path d="M858.7,499.1C858.7,500.9 857.5,501.6 855.9,500.7C854.4,499.8 853.1,497.7 853.1,495.9C853.1,494.1 854.3,493.4 855.9,494.3C857.5,495.2 858.7,497.3 858.7,499.1Z" style="fill:rgb(234,81,89);fill-rule:nonzero;"/>
                            <path d="M899.9,527.9L894.2,524.6C893.4,524.1 892.7,522.8 892.7,521.7L892.7,515.7C892.7,514.6 893.4,514 894.2,514.5L899.9,517.8C900.7,518.3 901.4,519.6 901.4,520.7L901.4,526.7C901.4,527.9 900.7,528.4 899.9,527.9Z" style="fill:rgb(255,166,0);fill-rule:nonzero;"/>
                        </g>
                        <g>
                            <path d="M908.1,550C910.8,551.6 913,555.7 913,559.3L913,582.2C913,585.8 910.8,587.4 908.1,585.9L788,516.6C785.3,515 783.1,510.9 783.1,507.3L783.1,484.4C783.1,480.8 785.3,479.2 788,480.7" style="fill:rgb(108,109,106);fill-rule:nonzero;"/>
                            <path d="M904.6,577.9L791.4,512.6C790,511.8 788.9,509.7 788.9,507.9L788.9,490.7C788.9,488.9 790,488 791.4,488.8L904.6,554.1C906,554.9 907.1,557 907.1,558.8L907.1,576C907.1,577.8 906,578.7 904.6,577.9Z" style="fill:rgb(51,51,51);fill-rule:nonzero;"/>
                            <path d="M815,517.4L798.1,507.6C796.8,506.8 795.7,504.8 795.7,503C795.7,501.2 796.8,500.4 798.1,501.2L815,511C816.3,511.8 817.4,513.8 817.4,515.6C817.4,517.4 816.4,518.2 815,517.4Z" style="fill:rgb(255,166,0);fill-rule:nonzero;"/>
                            <path d="M829.4,522.5C829.4,524.3 828.2,525 826.6,524.1C825.1,523.2 823.8,521.1 823.8,519.3C823.8,517.5 825,516.8 826.6,517.7C828.2,518.6 829.4,520.8 829.4,522.5Z" style="fill:rgb(40,167,69);fill-rule:nonzero;"/>
                            <path d="M839.2,528.2C839.2,530 838,530.7 836.4,529.8C834.9,528.9 833.6,526.8 833.6,525C833.6,523.2 834.8,522.5 836.4,523.4C837.9,524.3 839.2,526.4 839.2,528.2Z" style="fill:white;fill-rule:nonzero;"/>
                            <path d="M849,533.8C849,535.6 847.8,536.3 846.2,535.4C844.6,534.5 843.4,532.4 843.4,530.6C843.4,528.8 844.6,528.1 846.2,529C847.7,529.9 849,532.1 849,533.8Z" style="fill:white;fill-rule:nonzero;"/>
                            <path d="M858.7,539.5C858.7,541.3 857.5,542 855.9,541.1C854.4,540.2 853.1,538.1 853.1,536.3C853.1,534.5 854.3,533.8 855.9,534.7C857.5,535.6 858.7,537.7 858.7,539.5Z" style="fill:white;fill-rule:nonzero;"/>
                            <path d="M899.9,568.3L894.2,565C893.4,564.5 892.7,563.2 892.7,562.1L892.7,556.1C892.7,555 893.4,554.4 894.2,554.9L899.9,558.2C900.7,558.7 901.4,560 901.4,561.1L901.4,567.1C901.4,568.2 900.7,568.8 899.9,568.3Z" style="fill:rgb(255,166,0);fill-rule:nonzero;"/>
                        </g>
                        <g>
                            <path d="M908.1,590.4C910.8,592 913,596.1 913,599.7L913,622.6C913,626.2 910.8,627.8 908.1,626.3L788,556.9C785.3,555.3 783.1,551.2 783.1,547.6L783.1,524.7C783.1,521.1 785.3,519.5 788,521" style="fill:rgb(108,109,106);fill-rule:nonzero;"/>
                            <path d="M904.6,618.2L791.4,552.9C790,552.1 788.9,550 788.9,548.2L788.9,531C788.9,529.2 790,528.3 791.4,529.1L904.6,594.4C906,595.2 907.1,597.3 907.1,599.1L907.1,616.3C907.1,618.2 906,619 904.6,618.2Z" style="fill:rgb(51,51,51);fill-rule:nonzero;"/>
                            <path d="M815,557.8L798.1,548C796.8,547.2 795.7,545.2 795.7,543.4C795.7,541.6 796.8,540.8 798.1,541.6L815,551.4C816.3,552.2 817.4,554.2 817.4,556C817.4,557.8 816.4,558.6 815,557.8Z" style="fill:rgb(255,166,0);fill-rule:nonzero;"/>
                            <path d="M829.4,562.9C829.4,564.7 828.2,565.4 826.6,564.5C825.1,563.6 823.8,561.5 823.8,559.7C823.8,557.9 825,557.2 826.6,558.1C828.2,559 829.4,561.2 829.4,562.9Z" style="fill:rgb(40,167,69);fill-rule:nonzero;"/>
                            <path d="M839.2,568.6C839.2,570.4 838,571.1 836.4,570.2C834.8,569.3 833.6,567.2 833.6,565.4C833.6,563.6 834.8,562.9 836.4,563.8C837.9,564.7 839.2,566.8 839.2,568.6Z" style="fill:rgb(87,177,84);fill-rule:nonzero;"/>
                            <path d="M849,574.2C849,576 847.8,576.7 846.2,575.8C844.7,574.9 843.4,572.8 843.4,571C843.4,569.2 844.6,568.5 846.2,569.4C847.7,570.3 849,572.4 849,574.2Z" style="fill:white;fill-rule:nonzero;"/>
                            <path d="M858.7,579.8C858.7,581.6 857.5,582.3 855.9,581.4C854.4,580.5 853.1,578.4 853.1,576.6C853.1,574.8 854.3,574.1 855.9,575C857.5,575.9 858.7,578.1 858.7,579.8Z" style="fill:rgb(0,149,59);fill-rule:nonzero;"/>
                            <path d="M899.9,608.7L894.2,605.4C893.4,604.9 892.7,603.6 892.7,602.5L892.7,596.5C892.7,595.4 893.4,594.8 894.2,595.3L899.9,598.6C900.7,599.1 901.4,600.4 901.4,601.5L901.4,607.5C901.4,608.6 900.7,609.1 899.9,608.7Z" style="fill:rgb(255,166,0);fill-rule:nonzero;"/>
                        </g>
                        <g>
                            <path d="M908.1,666.6L788,597.3C785.3,595.7 783.1,591.6 783.1,588L783.1,565.1C783.1,561.5 785.3,559.9 788,561.4L908.1,630.7C910.8,632.3 913,636.4 913,640L913,663C912.9,666.5 910.8,668.2 908.1,666.6Z" style="fill:rgb(108,109,106);fill-rule:nonzero;"/>
                            <path d="M904.6,658.6L791.4,593.3C790,592.5 788.9,590.4 788.9,588.6L788.9,571.4C788.9,569.6 790,568.7 791.4,569.5L904.6,634.8C906,635.6 907.1,637.7 907.1,639.5L907.1,656.7C907.1,658.6 906,659.4 904.6,658.6Z" style="fill:rgb(51,51,51);fill-rule:nonzero;"/>
                            <path d="M815,598.2L798.1,588.4C796.8,587.6 795.7,585.6 795.7,583.8C795.7,582 796.8,581.2 798.1,582L815,591.8C816.3,592.6 817.4,594.6 817.4,596.4C817.4,598.1 816.4,599 815,598.2Z" style="fill:rgb(255,166,0);fill-rule:nonzero;"/>
                            <path d="M829.4,603.3C829.4,605.1 828.2,605.8 826.6,604.9C825.1,604 823.8,601.9 823.8,600.1C823.8,598.3 825,597.6 826.6,598.5C828.2,599.4 829.4,601.5 829.4,603.3Z" style="fill:white;fill-rule:nonzero;"/>
                            <path d="M839.2,608.9C839.2,610.7 838,611.4 836.4,610.5C834.9,609.6 833.6,607.5 833.6,605.7C833.6,603.9 834.8,603.2 836.4,604.1C837.9,605 839.2,607.2 839.2,608.9Z" style="fill:rgb(40,167,69);fill-rule:nonzero;"/>
                            <path d="M849,614.6C849,616.4 847.8,617.1 846.2,616.2C844.7,615.3 843.4,613.2 843.4,611.4C843.4,609.6 844.6,608.9 846.2,609.8C847.7,610.7 849,612.8 849,614.6Z" style="fill:white;fill-rule:nonzero;"/>
                            <path d="M858.7,620.2C858.7,622 857.5,622.7 855.9,621.8C854.4,620.9 853.1,618.8 853.1,617C853.1,615.2 854.3,614.5 855.9,615.4C857.5,616.3 858.7,618.4 858.7,620.2Z" style="fill:rgb(87,177,84);fill-rule:nonzero;"/>
                            <path d="M899.9,649L894.2,645.7C893.4,645.2 892.7,643.9 892.7,642.8L892.7,636.8C892.7,635.7 893.4,635.1 894.2,635.6L899.9,638.9C900.7,639.4 901.4,640.7 901.4,641.8L901.4,647.8C901.4,649 900.7,649.5 899.9,649Z" style="fill:rgb(255,166,0);fill-rule:nonzero;"/>
                        </g>
                    </g>
                    <g>
                        <path d="M873.2,298.5C872.2,298.5 871.4,297.7 871.4,296.7L871.4,222.1C871.4,221.1 872.2,220.3 873.2,220.3C874.2,220.3 875,221.1 875,222.1L875,296.7C875,297.7 874.2,298.5 873.2,298.5Z" style="fill:rgb(77,77,77);fill-rule:nonzero;"/>
                        <g>
                            <g>
                                <rect x="866.7" y="217.4" width="13" height="28" style="fill:rgb(51,51,51);"/>
                                <path d="M877.7,248C875.2,249.5 871.1,249.5 868.5,248C866,246.5 866,244.2 868.5,242.7C871,241.2 875.1,241.2 877.7,242.7C880.3,244.2 880.3,246.5 877.7,248Z" style="fill:rgb(51,51,51);fill-rule:nonzero;"/>
                            </g>
                            <g>
                                <rect x="862.6" y="178.4" width="21" height="43.9" style="fill:rgb(51,51,51);"/>
                                <path d="M866.7,222L866.7,231.5C870.5,233.2 875.9,233.2 879.7,231.5L879.7,222C875.8,220.2 870.5,220.2 866.7,222Z" style="fill:rgb(108,109,106);fill-rule:nonzero;"/>
                                <path d="M880.6,226.5C876.5,228.9 869.8,228.9 865.7,226.5C861.6,224.1 861.6,220.3 865.7,217.9C869.8,215.5 876.5,215.5 880.6,217.9C884.7,220.3 884.7,224.2 880.6,226.5Z" style="fill:rgb(51,51,51);fill-rule:nonzero;"/>
                            </g>
                        </g>
                    </g>
                    <g>
                        <path d="M890.9,309.1C889.9,309.1 889.1,308.3 889.1,307.3L889.1,232.7C889.1,231.7 889.9,230.9 890.9,230.9C891.9,230.9 892.7,231.7 892.7,232.7L892.7,307.3C892.7,308.3 891.9,309.1 890.9,309.1Z" style="fill:rgb(77,77,77);fill-rule:nonzero;"/>
                        <g>
                            <g>
                                <rect x="884.4" y="227.9" width="13" height="28" style="fill:rgb(51,51,51);"/>
                                <path d="M895.5,258.6C893,260.1 888.9,260.1 886.3,258.6C883.8,257.1 883.8,254.8 886.3,253.3C888.8,251.8 892.9,251.8 895.5,253.3C898,254.7 898,257.1 895.5,258.6Z" style="fill:rgb(51,51,51);fill-rule:nonzero;"/>
                            </g>
                            <g>
                                <rect x="880.4" y="188.9" width="21" height="43.9" style="fill:rgb(51,51,51);"/>
                                <path d="M884.4,232.6L884.4,242.1C888.2,243.8 893.6,243.8 897.4,242.1L897.4,232.6C893.5,230.8 888.2,230.8 884.4,232.6Z" style="fill:rgb(108,109,106);fill-rule:nonzero;"/>
                                <path d="M898.3,237.1C894.2,239.5 887.5,239.5 883.4,237.1C879.3,234.7 879.3,230.9 883.4,228.5C887.5,226.1 894.2,226.1 898.3,228.5C902.4,230.9 902.4,234.8 898.3,237.1Z" style="fill:rgb(51,51,51);fill-rule:nonzero;"/>
                            </g>
                        </g>
                    </g>
                    <g>
                        <path d="M908.6,319.7C907.6,319.7 906.8,318.9 906.8,317.9L906.8,243.3C906.8,242.3 907.6,241.5 908.6,241.5C909.6,241.5 910.4,242.3 910.4,243.3L910.4,317.9C910.4,318.9 909.6,319.7 908.6,319.7Z" style="fill:rgb(77,77,77);fill-rule:nonzero;"/>
                        <g>
                            <g>
                                <rect x="902.1" y="238.5" width="13" height="28" style="fill:rgb(51,51,51);"/>
                                <path d="M913.2,269.2C910.7,270.7 906.6,270.7 904,269.2C901.5,267.7 901.5,265.4 904,263.9C906.5,262.4 910.6,262.4 913.2,263.9C915.7,265.3 915.7,267.7 913.2,269.2Z" style="fill:rgb(51,51,51);fill-rule:nonzero;"/>
                            </g>
                            <g>
                                <rect x="898.1" y="199.5" width="21" height="43.9" style="fill:rgb(51,51,51);"/>
                                <path d="M902.1,243.1L902.1,252.6C905.9,254.3 911.3,254.3 915.1,252.6L915.1,243.1C911.3,241.4 905.9,241.4 902.1,243.1Z" style="fill:rgb(108,109,106);fill-rule:nonzero;"/>
                                <path d="M916,247.7C911.9,250.1 905.2,250.1 901.1,247.7C897,245.3 897,241.5 901.1,239.1C905.2,236.7 911.9,236.7 916,239.1C920.1,241.5 920.1,245.3 916,247.7Z" style="fill:rgb(51,51,51);fill-rule:nonzero;"/>
                            </g>
                        </g>
                    </g>
                    <g>
                        <path d="M926.3,330.3C925.3,330.3 924.5,329.5 924.5,328.5L924.5,253.9C924.5,252.9 925.3,252.1 926.3,252.1C927.3,252.1 928.1,252.9 928.1,253.9L928.1,328.5C928.1,329.4 927.3,330.3 926.3,330.3Z" style="fill:rgb(77,77,77);fill-rule:nonzero;"/>
                        <g>
                            <g>
                                <rect x="919.8" y="249.1" width="13" height="28" style="fill:rgb(51,51,51);"/>
                                <path d="M930.9,279.7C928.4,281.2 924.3,281.2 921.7,279.7C919.2,278.2 919.2,275.9 921.7,274.4C924.2,272.9 928.3,272.9 930.9,274.4C933.4,275.9 933.4,278.3 930.9,279.7Z" style="fill:rgb(51,51,51);fill-rule:nonzero;"/>
                            </g>
                            <g>
                                <rect x="915.8" y="210.1" width="21" height="43.9" style="fill:rgb(51,51,51);"/>
                                <path d="M919.8,253.7L919.8,263.2C923.6,264.9 929,264.9 932.8,263.2L932.8,253.7C929,252 923.6,252 919.8,253.7Z" style="fill:rgb(108,109,106);fill-rule:nonzero;"/>
                                <path d="M933.7,258.3C929.6,260.7 922.9,260.7 918.8,258.3C914.7,255.9 914.7,252.1 918.8,249.7C922.9,247.3 929.6,247.3 933.7,249.7C937.8,252.1 937.8,255.9 933.7,258.3Z" style="fill:rgb(51,51,51);fill-rule:nonzero;"/>
                            </g>
                        </g>
                    </g>
                    <g>
                        <g>
                            <path d="M1005.7,293.1L1033.9,276.5L1007,243L1000,254.5L1005.7,293.1Z" style="fill:rgb(60,60,59);fill-rule:nonzero;"/>
                            <path d="M801.1,109.3L846.1,83.4C846.1,83.4 844.4,109.2 844.4,109.3C844.4,109.4 818.6,117.3 818.6,117.3L801.1,109.3Z" style="fill:rgb(60,60,59);fill-rule:nonzero;"/>
                            <path d="M1013.5,208.9C1010.1,206.9 1006.8,205.8 1003.8,205.3C999.3,181.5 982.7,156.2 962.9,144.8C957,141.4 951.3,139.5 946.2,139.1C943.5,110.2 923.4,77.4 899,63.3C886.3,55.9 874.7,55.1 866.2,59.6L865.8,59.8C865.6,59.9 865.4,60 865.2,60.2L838.7,75.9L847.5,82.9C839.6,86.4 834.6,95.2 834.6,108.3C834.6,132.5 851.6,161.9 872.5,174L1013.6,274.7C1029.3,283.8 1042.1,276.4 1042.1,258.3C1042,240 1029.2,218 1013.5,208.9Z" style="fill:rgb(60,60,59);fill-rule:nonzero;"/>
                            <path d="M835.8,97.6L896.7,62C884.9,55.8 874.2,55.3 866.2,59.6L865.8,59.8C865.6,59.9 865.4,60 865.2,60.2L838.7,75.9L847.5,82.9C841.9,85.2 837.8,90.3 835.8,97.6Z" style="fill:rgb(60,60,59);fill-rule:nonzero;"/>
                            <path d="M948.2,202.2L992.6,176.1C985,162.9 974.5,151.4 962.9,144.7C961.4,143.8 959.8,143 958.4,142.4L901.9,175.4L948.2,202.2Z" style="fill:rgb(60,60,59);fill-rule:nonzero;"/>
                            <path d="M985.7,225.3C982.3,223.3 979,222.2 976,221.7C971.5,197.9 954.9,172.6 935.1,161.2C929.2,157.8 923.5,155.9 918.4,155.5C915.7,126.6 895.6,93.8 871.2,79.7C845,64.6 823.7,76.8 823.7,107.1C823.7,108.1 823.7,109.2 823.8,110.2C804.6,101.3 789.6,111.3 789.6,134C789.6,158.2 806.6,187.6 827.5,199.7L985.7,291C1001.4,300.1 1014.2,292.7 1014.2,274.6C1014.2,256.4 1001.4,234.4 985.7,225.3Z" style="fill:rgb(255,166,0);fill-rule:nonzero;"/>
                            <g>
                                <path d="M823.8,110.2C823.8,109.2 823.7,108.1 823.7,107.1L823.7,107C813.1,102.9 804,104.7 798.3,111.3C804.5,106.2 813.5,105.5 823.8,110.2Z" style="fill:rgb(249,190,0);fill-rule:nonzero;"/>
                                <path d="M988,223C984.6,221 981.3,219.9 978.3,219.4C973.8,195.6 957.2,170.3 937.4,158.9C931.5,155.5 925.8,153.6 920.7,153.2C918,124.3 897.9,91.5 873.5,77.4C857.2,68 842.8,69.2 834.2,78.8C842.9,71.4 856.2,71.1 871.2,79.7C895.6,93.8 915.7,126.6 918.4,155.5C923.5,155.9 929.2,157.7 935.1,161.2C954.9,172.6 971.4,197.9 976,221.7C979,222.2 982.3,223.3 985.7,225.3C1001.4,234.4 1014.2,256.5 1014.2,274.6C1014.2,281.2 1012.5,286.3 1009.7,289.7C1014,286.4 1016.6,280.5 1016.6,272.3C1016.5,254.2 1003.7,232.1 988,223Z" style="fill:rgb(249,190,0);fill-rule:nonzero;"/>
                            </g>
                            <g>
                                <path d="M820.4,117.4L832.3,122.9L831.7,109.8C831.7,108.9 831.6,108 831.6,107.1C831.6,95.4 835.1,86.9 841.5,83.2C847.9,79.5 857,80.7 867.1,86.5C888.9,99.1 907.8,129.7 910.3,156.1L910.9,162.8L917.6,163.3C921.7,163.6 926.2,165.2 931,167.9C948.3,177.9 963.9,201.1 968,223L969,228.5L974.5,229.4C976.7,229.7 979.1,230.6 981.5,232C994.8,239.7 1006,259.1 1006,274.4C1006,280.1 1004.4,284.3 1001.6,285.9C998.8,287.5 994.4,286.8 989.4,283.9L831.2,192.6C812.8,182 797.3,155.1 797.3,133.8C797.3,125.5 799.8,119.1 804,116.4C805.8,115.3 807.9,114.7 810.3,114.7C813.5,114.9 816.9,115.8 820.4,117.4Z" style="fill-rule:nonzero;"/>
                            </g>
                        </g>
                        <g>
                            <path d="M886.8,160.2L890.9,158.1L891,160.3L886.8,160.2Z" style="fill:rgb(87,147,206);fill-rule:nonzero;"/>
                            <g>
                                <path d="M880.8,176.5L880.7,199.4C880.7,200.6 881.5,202.1 882.5,202.7L899.4,212.6L899.4,216.5L903.6,214.4C904,214.2 904.2,213.8 904.2,213.1L904.3,190.2L880.8,176.5Z" style="fill:rgb(218,146,21);fill-rule:nonzero;"/>
                                <path d="M915.5,199L894.3,160.2C893.4,158.5 891.7,157.6 890.8,158.2L869.5,171.9C868.6,172.5 869.3,174.7 870.7,175.5L892.5,188.3L909.2,198.1L911.3,203.4L915.5,201.3C916,200.9 916.1,200 915.5,199Z" style="fill:rgb(218,146,21);fill-rule:nonzero;"/>
                            </g>
                            <path d="M911.3,201.1L890.1,162.3C889.2,160.6 887.5,159.7 886.6,160.3L865.3,174C864.4,174.6 865.1,176.8 866.5,177.6L876.6,183.5L876.5,201.5C876.5,202.7 877.3,204.2 878.3,204.8L898.1,216.4C899.1,217 899.9,216.5 899.9,215.2L900,197.2L910.1,203.1C911.4,204.1 912.2,202.8 911.3,201.1Z" style="fill:rgb(255,166,0);fill-rule:nonzero;"/>
                        </g>
                    </g>
                    <path d="M871.2,240.5C871.2,241.8 870.3,242.3 869.2,241.7C868.1,241.1 867.2,239.5 867.2,238.2C867.2,236.9 868.1,236.4 869.2,237C870.3,237.6 871.2,239.2 871.2,240.5Z" style="fill:rgb(255,166,0);fill-rule:nonzero;"/>
                    <path d="M888.9,251.3C888.9,252.6 888,253.1 886.9,252.5C885.8,251.9 884.9,250.3 884.9,249C884.9,247.7 885.8,247.2 886.9,247.8C888,248.4 888.9,250 888.9,251.3Z" style="fill:rgb(255,166,0);fill-rule:nonzero;"/>
                    <path d="M906.7,264.6C906.7,265.9 905.8,266.4 904.7,265.8C903.6,265.2 902.7,263.6 902.7,262.3C902.7,261 903.6,260.5 904.7,261.1C905.8,261.8 906.7,263.3 906.7,264.6Z" style="fill:rgb(255,166,0);fill-rule:nonzero;"/>
                    <path d="M924.5,275.4C924.5,276.7 923.6,277.2 922.5,276.6C921.4,276 920.5,274.4 920.5,273.1C920.5,271.8 921.4,271.3 922.5,271.9C923.6,272.6 924.5,274.1 924.5,275.4Z" style="fill:rgb(255,166,0);fill-rule:nonzero;"/>
                    <path d="M972.4,621.7L970,621.7L970,486.5L985.9,477.3L985.9,410.8L988.4,410.8L988.4,478.7L972.4,487.9L972.4,621.7Z" style="fill:white;fill-rule:nonzero;"/>
                </g>
                <g>
                    <g>
                        <path d="M1070.8,761.5L1070.8,736L1013.5,736L993.7,724.6C989.2,722 981.2,722.3 976,725.3L957.5,736L900.1,736L900.1,762.3C900,764.1 901,765.8 903.1,767.1L977.2,809.9C981.7,812.5 989.7,812.2 994.9,809.2L1066.5,767.9C1069.5,765.9 1071,763.6 1070.8,761.5Z" style="fill:rgb(255,166,0);fill-rule:nonzero;"/>
                        <path d="M985.4,722.7C982.1,722.8 978.6,723.6 975.9,725.2L957.4,735.9L900,735.9L900,762.2C899.9,764 900.9,765.7 903,767L977.1,809.8C979.3,811.1 982.3,811.6 985.3,811.6L985.3,722.7L985.4,722.7Z" style="fill:rgb(255,166,0);fill-rule:nonzero;"/>
                        <path d="M977.2,783.5L903.1,740.7C898.6,738.1 899.1,733.5 904.4,730.5L976,689.2C981.3,686.2 989.2,685.8 993.7,688.5L1067.8,731.3C1072.3,733.9 1071.8,738.5 1066.5,741.5L994.9,782.8C989.7,785.8 981.7,786.1 977.2,783.5Z" style="fill:rgb(249,190,0);fill-rule:nonzero;"/>
                        <g>
                            <path d="M1043.6,768.3C1043.6,770.2 1042.3,772.5 1040.6,773.5C1038.9,774.5 1037.6,773.7 1037.6,771.8C1037.6,769.9 1038.9,767.6 1040.6,766.6C1042.3,765.6 1043.6,766.4 1043.6,768.3Z" style="fill:white;fill-rule:nonzero;"/>
                            <path d="M1053.2,762.7C1053.2,764.6 1051.9,766.9 1050.2,767.9C1048.5,768.9 1047.2,768.1 1047.2,766.2C1047.2,764.3 1048.5,762 1050.2,761C1051.8,760 1053.2,760.8 1053.2,762.7Z" style="fill:white;fill-rule:nonzero;"/>
                            <path d="M1062.8,757.2C1062.8,759.1 1061.5,761.4 1059.8,762.4C1058.1,763.4 1056.8,762.6 1056.8,760.7C1056.8,758.8 1058.1,756.5 1059.8,755.5C1061.5,754.5 1062.8,755.2 1062.8,757.2Z" style="fill:rgb(0,123,255);fill-rule:nonzero;"/>
                        </g>
                    </g>
                    <g>
                        <path d="M1070.8,720.7L1070.8,695.1L1013.5,695.1L993.7,683.7C989.2,681.1 981.2,681.4 976,684.4L957.4,695L900,695L900,721.3C899.9,723.1 900.9,724.8 903,726.1L977.1,768.9C981.6,771.5 989.6,771.2 994.8,768.2L1066.4,726.9C1069.5,725 1071,722.8 1070.8,720.7Z" style="fill:rgb(255,166,0);fill-rule:nonzero;"/>
                        <path d="M985.4,681.9C982.1,682 978.6,682.8 975.9,684.4L957.4,695L900,695L900,721.3C899.9,723.1 900.9,724.8 903,726.1L977.1,768.9C979.3,770.2 982.3,770.7 985.3,770.7L985.3,681.9L985.4,681.9Z" style="fill:rgb(255,166,0);fill-rule:nonzero;"/>
                        <path d="M977.2,742.6L903.1,699.8C898.6,697.2 899.1,692.6 904.4,689.6L976,648.3C981.3,645.3 989.2,644.9 993.7,647.6L1067.8,690.4C1072.3,693 1071.8,697.6 1066.5,700.6L994.9,741.9C989.7,744.9 981.7,745.3 977.2,742.6Z" style="fill:rgb(249,190,0);fill-rule:nonzero;"/>
                        <g>
                            <path d="M1043.6,727.4C1043.6,729.3 1042.3,731.6 1040.6,732.6C1038.9,733.6 1037.6,732.8 1037.6,730.9C1037.6,729 1038.9,726.7 1040.6,725.7C1042.2,724.7 1043.6,725.5 1043.6,727.4Z" style="fill:rgb(0,123,255);fill-rule:nonzero;"/>
                            <path d="M1053.2,721.8C1053.2,723.7 1051.9,726 1050.2,727C1048.5,728 1047.2,727.2 1047.2,725.3C1047.2,723.4 1048.5,721.1 1050.2,720.1C1051.8,719.2 1053.2,719.9 1053.2,721.8Z" style="fill:white;fill-rule:nonzero;"/>
                            <path d="M1062.8,716.3C1062.8,718.2 1061.5,720.5 1059.8,721.5C1058.1,722.5 1056.8,721.7 1056.8,719.8C1056.8,717.9 1058.1,715.6 1059.8,714.6C1061.5,713.6 1062.8,714.4 1062.8,716.3Z" style="fill:white;fill-rule:nonzero;"/>
                        </g>
                    </g>
                    <g>
                        <path d="M1070.8,679.8L1070.8,654.2L1013.5,654.2L993.7,642.8C989.2,640.2 981.2,640.5 976,643.5L957.5,654.2L900.1,654.2L900.1,680.5C900,682.3 901,684 903.1,685.3L977.2,728.1C981.7,730.7 989.7,730.4 994.9,727.4L1066.5,686.1C1069.5,684.2 1071,681.9 1070.8,679.8Z" style="fill:rgb(255,166,0);fill-rule:nonzero;"/>
                        <path d="M985.4,641C982.1,641.1 978.6,641.9 975.9,643.5L957.4,654.2L900,654.2L900,680.5C899.9,682.3 900.9,684 903,685.3L977.1,728.1C979.3,729.4 982.3,729.9 985.3,729.9L985.3,641L985.4,641Z" style="fill:rgb(255,166,0);fill-rule:nonzero;"/>
                        <path d="M977.2,701.8L903.1,659C898.6,656.4 899.1,651.8 904.4,648.8L976,607.5C981.3,604.5 989.2,604.1 993.7,606.8L1067.8,649.6C1072.3,652.2 1071.8,656.8 1066.5,659.8L994.9,701C989.7,704.1 981.7,704.4 977.2,701.8Z" style="fill:rgb(249,190,0);fill-rule:nonzero;"/>
                        <g>
                            <path d="M1043.6,686.5C1043.6,688.4 1042.3,690.7 1040.6,691.7C1038.9,692.7 1037.6,691.9 1037.6,690C1037.6,688.1 1038.9,685.8 1040.6,684.8C1042.2,683.9 1043.6,684.6 1043.6,686.5Z" style="fill:white;fill-rule:nonzero;"/>
                            <path d="M1053.2,681C1053.2,682.9 1051.9,685.2 1050.2,686.2C1048.5,687.2 1047.2,686.4 1047.2,684.5C1047.2,682.6 1048.5,680.3 1050.2,679.3C1051.8,678.3 1053.2,679.1 1053.2,681Z" style="fill:rgb(0,123,255);fill-rule:nonzero;"/>
                            <path d="M1062.8,675.4C1062.8,677.3 1061.5,679.6 1059.8,680.6C1058.1,681.6 1056.8,680.8 1056.8,678.9C1056.8,677 1058.1,674.7 1059.8,673.7C1061.5,672.7 1062.8,673.5 1062.8,675.4Z" style="fill:white;fill-rule:nonzero;"/>
                        </g>
                        <g>
                            <path d="M981.6,675.2L946.9,655.2C944.8,654 945,651.8 947.5,650.4L981,631.1C983.5,629.7 987.2,629.5 989.3,630.8L1024,650.8C1026.1,652 1025.9,654.2 1023.4,655.6L989.9,674.9C987.4,676.3 983.7,676.5 981.6,675.2Z" style="fill:rgb(51,51,51);fill-rule:nonzero;"/>
                            <path d="M984.9,658.5L980.1,655.7C979.8,655.5 979.8,655.2 980.2,655L984.8,652.3C985.1,652.1 985.7,652.1 985.9,652.3L990.7,655.1C991,655.3 991,655.6 990.6,655.8L986,658.5C985.7,658.6 985.2,658.6 984.9,658.5Z" style="fill:white;fill-rule:nonzero;"/>
                            <path d="M946.9,655.2C947.2,655.1 947.3,655 947.5,654.9L981,635.6C983.5,634.2 987.2,634 989.3,635.3L1023.9,655.3C1025.9,653.9 1026,652 1024,650.8L989.3,630.8C987.2,629.6 983.5,629.7 981,631.1L947.5,650.4C945,651.8 944.7,654 946.9,655.2Z" style="fill:rgb(108,109,106);fill-rule:nonzero;"/>
                        </g>
                    </g>
                </g>
            </g>
        </g>
    </g>
</svg>
