<?xml version="1.0" encoding="UTF-8" standalone="no"?>
<!DOCTYPE svg PUBLIC "-//W3C//DTD SVG 1.1//EN" "http://www.w3.org/Graphics/SVG/1.1/DTD/svg11.dtd">
<svg width="100%" height="100%" viewBox="0 0 1920 1080" version="1.1" xmlns="http://www.w3.org/2000/svg" xmlns:xlink="http://www.w3.org/1999/xlink" xml:space="preserve" xmlns:serif="http://www.serif.com/" style="fill-rule:evenodd;clip-rule:evenodd;stroke-linejoin:round;stroke-miterlimit:2;">
    <g>
        <g>
            <g>
                <g>
                    <g>
                        <g>
                            <path d="M712.7,900.9L673.8,878.3C666.4,874 661.7,864.8 661.7,851.7L700.6,874.3C700.7,887.4 705.3,896.6 712.7,900.9Z" style="fill:rgb(137,140,138);fill-rule:nonzero;"/>
                        </g>
                    </g>
                    <g>
                        <g>
                            <path d="M1111.8,162.2L1072.9,139.6C1084.4,132.9 1094.9,132.3 1102.4,136.7L1141.3,159.3C1133.7,154.9 1123.3,155.6 1111.8,162.2Z" style="fill:rgb(170,176,175);fill-rule:nonzero;"/>
                        </g>
                    </g>
                    <g>
                        <path d="M700.6,874.3L661.7,851.7L660.5,425.4L699.4,448L700.6,874.3Z" style="fill:rgb(137,140,138);fill-rule:nonzero;"/>
                    </g>
                    <g>
                        <path d="M740.8,376.4L701.9,353.8L1072.8,139.6L1111.8,162.2L740.8,376.4Z" style="fill:rgb(170,176,175);fill-rule:nonzero;"/>
                    </g>
                    <g>
                        <g>
                            <path d="M699.4,448L660.5,425.4C660.4,399.1 678.9,367 701.8,353.8L740.7,376.4C717.9,389.6 699.3,421.7 699.4,448Z" style="fill:rgb(137,140,138);fill-rule:nonzero;"/>
                        </g>
                    </g>
                    <g>
                        <path d="M1111.8,162.2C1134.7,149 1153.3,159.6 1153.4,185.9L1154.6,612.2C1154.7,638.5 1136.2,670.6 1113.3,683.8L742.2,898C719.3,911.2 700.7,900.6 700.6,874.3L699.4,448C699.3,421.7 717.8,389.6 740.7,376.4L1111.8,162.2Z" style="fill:rgb(245,245,247);fill-rule:nonzero;"/>
                    </g>
                </g>
            </g>
            <g>
                <path d="M887.9,315.2C902.3,306.9 913.2,303.4 913.2,332C913.2,358.9 902.9,368.4 887.9,377C872.9,385.7 862.6,388.9 862.6,361.1C862.6,332.5 873.9,323.3 887.9,315.2ZM887.9,362.5C895.1,358.4 897,354.2 897,341.3C897,327.1 895.5,325.3 887.9,329.7C880.6,333.9 878.8,336.9 878.8,351.8C878.8,364.6 879.8,367.2 887.9,362.5Z" style="fill:rgb(87,177,84);fill-rule:nonzero;"/>
                <path d="M919,297.7L935.4,288.3L952.8,309.4L952.8,278.2L969,268.9L969,330L952.8,339.3L935.3,319L935.3,349.4L919,358.8L919,297.7Z" style="fill:rgb(87,177,84);fill-rule:nonzero;"/>
            </g>
            <g>
                <path d="M932.1,715C946.5,706.7 957.4,703.2 957.4,731.8C957.4,758.7 947.1,768.2 932.1,776.8C917.1,785.5 906.8,788.7 906.8,760.9C906.8,732.3 918.1,723.1 932.1,715ZM932.1,762.3C939.3,758.2 941.2,754.1 941.2,741.1C941.2,726.9 939.7,725.1 932.1,729.5C924.8,733.7 923,736.7 923,751.6C923,764.3 923.9,767 932.1,762.3Z" style="fill:rgb(220,53,69);fill-rule:nonzero;"/>
                <path d="M961.1,713.2C961.1,701.8 969.6,693.7 976.6,689.7C976.6,689.7 994.1,679.6 1003.9,675.3L1003.9,688.9L981.6,701.8C977.3,704.3 977.3,706.7 977.3,709L977.3,712.7L999.7,700.7L999.7,714L977.3,727.7L977.3,750.4L961.1,759.7L961.1,713.2Z" style="fill:rgb(220,53,69);fill-rule:nonzero;"/>
                <path d="M1008.4,685.8C1008.4,674.4 1016.9,666.3 1023.9,662.3C1023.9,662.3 1041.4,652.2 1051.2,647.9L1051.2,661.5L1028.9,674.4C1024.6,676.9 1024.6,679.3 1024.6,681.6L1024.6,685.3L1047,673.3L1047,686.7L1024.6,700.4L1024.6,723L1008.4,732.3L1008.4,685.8Z" style="fill:rgb(220,53,69);fill-rule:nonzero;"/>
            </g>
            <g>
                <g>
                    <g>
                        <g>
                            <path d="M988.6,693.5L891.9,676.7L891.5,532.5L920.4,549.3L988.6,693.5Z" style="fill:rgb(170,176,175);fill-rule:nonzero;"/>
                        </g>
                        <g>
                            <path d="M920.4,549.3L891.5,532.5L959.3,493.4L988.2,510.2L920.4,549.3Z" style="fill:rgb(169,169,171);fill-rule:nonzero;"/>
                        </g>
                        <g>
                            <path d="M988.2,510.2L1056.4,654.4L988.6,693.5L920.4,549.3L988.2,510.2Z" style="fill:rgb(230,230,230);fill-rule:nonzero;"/>
                        </g>
                    </g>
                </g>
                <g>
                    <g>
                        <g>
                            <path d="M920.4,550.1L891.5,533.4L891.1,389.2L920,405.9L920.4,550.1Z" style="fill:rgb(170,176,175);fill-rule:nonzero;"/>
                        </g>
                        <g>
                            <path d="M920,405.9L891.1,389.2L958.9,350L987.8,366.8L920,405.9Z" style="fill:rgb(230,230,230);fill-rule:nonzero;"/>
                        </g>
                        <g>
                            <path d="M987.8,366.8L988.2,511L920.4,550.1L920,405.9L987.8,366.8Z" style="fill:white;fill-rule:nonzero;"/>
                        </g>
                    </g>
                </g>
            </g>
        </g>
    </g>
</svg>
