<?xml version="1.0" encoding="UTF-8" standalone="no"?>
<!DOCTYPE svg PUBLIC "-//W3C//DTD SVG 1.1//EN" "http://www.w3.org/Graphics/SVG/1.1/DTD/svg11.dtd">
<svg width="100%" height="100%" viewBox="0 0 1920 1080" version="1.1" xmlns="http://www.w3.org/2000/svg" xmlns:xlink="http://www.w3.org/1999/xlink" xml:space="preserve" xmlns:serif="http://www.serif.com/" style="fill-rule:evenodd;clip-rule:evenodd;stroke-linejoin:round;stroke-miterlimit:2;">
    <g>
        <g>
            <g>
                <g>
                    <path d="M1048.8,209L999.9,180.8C997.4,184.1 996.1,187 995.5,188.8C995.4,189.4 995.2,189.9 995,190.5L995,190.6C993.5,194.6 990.1,198.4 984.7,201.5C969.9,210 945.9,210 931.1,201.5C916.3,193 916.3,179.1 931.1,170.6C936.5,167.5 943.1,165.5 950,164.7L950.1,164.7C951.1,164.6 952.1,164.5 953,164.4C956,164.1 961,163.3 966.8,161.9L966.8,153.4L952,150.8L952.5,153.6L905.8,126.6L844.7,161.9C842.2,158.6 840.9,155.7 840.3,153.9C840.2,153.3 840,152.8 839.8,152.2L839.8,152.1C838.3,148.1 834.9,144.3 829.5,141.2C814.7,132.7 790.7,132.7 775.9,141.2C772.5,143.2 769.9,145.4 768.1,147.8L764.8,147.8L764.8,156.7C764.8,162.3 768.5,167.9 775.9,172.2C781.3,175.3 787.9,177.3 794.8,178.1L794.9,178.1C795.9,178.2 796.9,178.3 797.8,178.4C800.8,178.7 805.8,179.5 811.6,180.9L762,209.5L750.5,207.6L750.5,216.2L811.6,251.5C805.8,252.9 800.9,253.7 797.9,254C796.9,254.1 795.9,254.2 795,254.3L794.9,254.3C788,255.1 781.4,257.1 776,260.2C761.2,268.7 761.2,282.6 776,291.1C790.8,299.6 814.8,299.6 829.6,291.1C835,288 838.4,284.2 839.8,280.2L839.8,280.1C840,279.5 840.2,279 840.3,278.4C840.9,276.7 842.1,273.8 844.6,270.5L905.7,305.8L1060.9,216.2L1060.9,207.6L1048.8,209Z" style="fill:rgb(242,142,0);fill-rule:nonzero;"/>
                    <path d="M1061,207.6L999.9,172.3C997.4,175.6 996.1,178.5 995.5,180.3C995.4,180.9 995.2,181.4 995,182L995,182.1C993.5,186.1 990.1,189.9 984.7,193C969.9,201.5 945.9,201.5 931.1,193C916.3,184.5 916.3,170.6 931.1,162.1C936.5,159 943.1,157 950,156.2L950.1,156.2C951.1,156.1 952.1,156 953,155.9C956,155.6 961,154.8 966.8,153.4L905.8,118L844.7,153.3C842.2,150 840.9,147.1 840.3,145.3C840.2,144.7 840,144.2 839.8,143.6L839.8,143.5C838.3,139.5 834.9,135.7 829.5,132.6C814.7,124.1 790.7,124.1 775.9,132.6C761.1,141.1 761.1,155 775.9,163.5C781.3,166.6 787.9,168.6 794.8,169.4L794.9,169.4C795.9,169.5 796.9,169.6 797.8,169.7C800.8,170 805.8,170.8 811.6,172.2L750.5,207.5L811.6,242.8C805.8,244.2 800.9,245 797.9,245.3C796.9,245.4 795.9,245.5 795,245.6L794.9,245.6C788,246.4 781.4,248.4 776,251.5C761.2,260 761.2,273.9 776,282.4C790.8,291 814.8,291 829.6,282.4C835,279.3 838.4,275.5 839.8,271.5L839.8,271.4C840,270.8 840.2,270.3 840.3,269.7C840.9,268 842.1,265.1 844.6,261.8L905.7,297.1L1061,207.6Z" style="fill:rgb(246,163,24);fill-rule:nonzero;"/>
                </g>
            </g>
            <g>
                <path d="M1339.3,639.5L1192.8,554.9L1131.7,590.2C1129.2,586.9 1127.9,584 1127.3,582.2C1127.2,581.6 1127,581.1 1126.8,580.5L1126.8,580.4C1125.3,576.4 1121.9,572.6 1116.6,569.5C1101.8,560.9 1077.8,560.9 1063,569.5C1059.4,571.5 1056.8,573.9 1054.9,576.4L1051.9,576.4L1051.9,584.9C1051.9,590.5 1055.6,596.1 1063,600.4C1068.4,603.5 1075,605.5 1081.9,606.3L1081.8,606.3L1082,606.3C1083,606.4 1084,606.5 1084.9,606.6C1087.9,606.9 1092.9,607.7 1098.7,609.1L1046.5,639.3L1037.6,635.9L1037.6,644.4L1098.7,679.7C1092.9,681.1 1087.9,681.9 1084.9,682.2C1083.9,682.3 1082.9,682.4 1082,682.5L1081.9,682.5C1075,683.3 1068.4,685.3 1063,688.4C1059.4,690.5 1056.7,692.9 1054.9,695.4L1051.9,695.4L1051.9,704.1C1052,709.6 1055.7,715.1 1063,719.3C1077.8,727.8 1101.8,727.8 1116.6,719.3C1122,716.2 1125.4,712.4 1126.8,708.4L1126.8,708.3C1127,707.7 1127.2,707.2 1127.3,706.6C1127.9,704.9 1129.1,702 1131.7,698.6L1192.8,733.9L1348,644.3L1348,635.8L1339.3,639.5Z" style="fill:rgb(242,142,0);fill-rule:nonzero;"/>
                <path d="M1180.5,727L1131.6,698.8C1129.1,702.1 1127.8,705 1127.2,706.8C1127.1,707.4 1126.9,707.9 1126.7,708.5L1126.7,708.6C1125.2,712.6 1121.8,716.4 1116.5,719.5C1101.7,728 1077.7,728 1062.9,719.5C1048.1,711 1048.1,697.1 1062.9,688.6C1068.3,685.5 1074.9,683.5 1081.8,682.7L1081.9,682.7C1082.9,682.6 1083.9,682.5 1084.8,682.4C1087.8,682.1 1092.8,681.3 1098.6,679.9L1098.6,671.4L1083.8,668.8L1084.3,671.6L1037.6,644.6L976.5,679.9C974,676.5 972.7,673.7 972.1,671.9C972,671.3 971.8,670.8 971.6,670.2L971.6,670.1C970.1,666.1 966.7,662.3 961.3,659.2C946.5,650.7 922.5,650.7 907.7,659.2C904.3,661.2 901.7,663.4 899.9,665.8L896.6,665.8L896.6,674.7C896.6,680.3 900.3,685.9 907.7,690.1C913.1,693.2 919.7,695.2 926.6,696L926.8,696C927.8,696.1 928.8,696.2 929.7,696.3C932.7,696.6 937.7,697.4 943.5,698.8L894,727.4L882.4,725.5L882.4,734L943.5,769.3C937.7,770.7 932.7,771.5 929.8,771.8C928.8,771.9 927.8,772 926.9,772.1L926.7,772.1C919.8,772.9 913.2,774.9 907.8,778C893,786.5 893,800.4 907.8,808.9C922.6,817.4 946.6,817.4 961.4,808.9C966.8,805.8 970.2,802 971.6,798L971.6,797.9C971.8,797.3 972,796.8 972.1,796.2C972.7,794.5 973.9,791.6 976.4,788.3L1037.5,823.6L1192.7,734L1192.7,725.5L1180.5,727Z" style="fill:rgb(187,182,178);fill-rule:nonzero;"/>
                <path d="M1192.8,725.5L1131.7,690.2C1129.2,693.5 1127.9,696.4 1127.3,698.2C1127.2,698.8 1127,699.3 1126.8,699.9L1126.8,700C1125.3,704 1121.9,707.8 1116.6,710.9C1101.8,719.4 1077.8,719.4 1063,710.9C1048.2,702.3 1048.2,688.5 1063,679.9C1068.4,676.8 1075,674.8 1081.9,674L1082,674C1083,673.9 1084,673.8 1084.9,673.7C1087.9,673.4 1092.9,672.6 1098.7,671.2L1037.6,635.9L976.5,671.2C974,667.9 972.7,665 972.1,663.2C972,662.6 971.8,662.1 971.6,661.5L971.6,661.4C970.1,657.4 966.7,653.6 961.3,650.5C946.5,642 922.5,642 907.7,650.5C892.9,659 892.9,672.9 907.7,681.5C913.1,684.6 919.7,686.6 926.6,687.4L926.8,687.4C927.8,687.5 928.8,687.6 929.7,687.7C932.7,688 937.7,688.8 943.5,690.2L882.4,725.5L943.5,760.8C937.7,762.3 932.7,763 929.8,763.3C928.8,763.4 927.8,763.5 926.9,763.6L926.7,763.6C919.8,764.4 913.2,766.4 907.8,769.5C893,778 893,791.9 907.8,800.4C922.6,809 946.6,809 961.4,800.4C966.8,797.3 970.2,793.5 971.6,789.5L971.6,789.4C971.8,788.8 972,788.3 972.1,787.7C972.7,786 973.9,783.1 976.4,779.8L1037.5,815.1L1192.8,725.5Z" style="fill:rgb(236,236,236);fill-rule:nonzero;"/>
                <path d="M1348,635.9L1192.8,546.3L1131.7,581.6C1129.2,578.3 1127.9,575.4 1127.3,573.6C1127.2,573 1127,572.5 1126.8,571.9L1126.8,571.8C1125.3,567.8 1121.9,564 1116.6,560.9C1101.8,552.4 1077.8,552.4 1063,560.9C1048.2,569.5 1048.2,583.3 1063,591.8C1068.4,594.9 1075,596.9 1081.9,597.7L1081.8,597.7L1082,597.7C1083,597.8 1084,597.9 1084.9,598C1087.9,598.3 1092.9,599.1 1098.7,600.5L1037.6,635.8L1098.7,671.1C1092.9,672.5 1087.9,673.3 1084.9,673.6C1083.9,673.7 1082.9,673.8 1082,673.9L1081.9,673.9C1075,674.8 1068.4,676.7 1063,679.8C1048.2,688.3 1048.2,702.2 1063,710.8C1077.8,719.3 1101.8,719.3 1116.6,710.8C1122,707.7 1125.4,703.9 1126.8,699.9L1126.8,699.8C1127,699.2 1127.2,698.7 1127.3,698.1C1127.9,696.4 1129.1,693.5 1131.7,690.1L1192.8,725.4L1348,635.9Z" style="fill:rgb(255,166,0);fill-rule:nonzero;"/>
            </g>
            <g>
                <path d="M933.7,868.5L884.8,840.3C882.3,843.6 881,846.5 880.4,848.3C880.3,848.9 880.1,849.4 879.9,850L879.9,850.1C878.4,854.1 875,857.9 869.6,861C854.8,869.5 830.8,869.5 816,861C801.2,852.5 801.2,838.6 816,830.1C821.4,827 828,825 834.9,824.2L835,824.2C836,824.1 837,824 837.9,823.9C840.9,823.6 845.9,822.8 851.7,821.4L851.7,812.9L836.9,810.3L837.4,813.1L790.7,786.1L729.6,821.4C727.1,818.1 725.8,815.2 725.2,813.4C725.1,812.8 724.9,812.3 724.7,811.7L724.7,811.6C723.2,807.6 719.8,803.8 714.5,800.7C699.7,792.2 675.7,792.2 660.9,800.7C657.5,802.7 654.9,804.9 653.1,807.3L649.8,807.3L649.8,816.2C649.8,821.8 653.5,827.4 660.9,831.6C666.3,834.7 672.9,836.7 679.8,837.5L679.9,837.5C680.9,837.6 681.9,837.7 682.8,837.8C685.8,838.1 690.8,838.9 696.6,840.3L647,868.9L635.5,867L635.5,875.5L696.6,910.8C690.8,912.2 685.9,913 682.9,913.3C681.9,913.4 680.9,913.5 680,913.6L679.9,913.6C673,914.4 666.4,916.4 661,919.5C646.2,928.1 646.2,941.9 661,950.4C675.8,958.9 699.8,958.9 714.6,950.4C720,947.3 723.4,943.5 724.9,939.5L724.9,939.4C725.1,938.8 725.2,938.3 725.4,937.7C726,936 727.2,933.1 729.7,929.8L790.8,965.1L946,875.5L946,867L933.7,868.5Z" style="fill:rgb(108,109,106);fill-rule:nonzero;"/>
                <path d="M945.9,867L884.8,831.7C882.3,835 881,837.9 880.4,839.6C880.3,840.2 880.1,840.7 879.9,841.3L879.9,841.4C878.4,845.4 875,849.2 869.6,852.3C854.8,860.8 830.8,860.8 816,852.3C801.2,843.8 801.2,829.9 816,821.4C821.4,818.3 828,816.3 834.9,815.5L835,815.5C836,815.4 837,815.3 837.9,815.2C840.9,814.9 845.9,814.1 851.7,812.7L790.6,777.4L729.5,812.7C727,809.4 725.7,806.5 725.1,804.7C725,804.1 724.8,803.6 724.6,803L724.6,802.9C723.1,798.9 719.7,795.1 714.4,792C699.6,783.5 675.6,783.5 660.8,792C646,800.5 646,814.4 660.8,822.9C666.2,826 672.8,828 679.7,828.8L679.8,828.8C680.8,828.9 681.8,829 682.7,829.1C685.7,829.4 690.7,830.2 696.5,831.6L635.6,867L696.7,902.3C690.9,903.7 686,904.5 683,904.8C682,904.9 681,905 680.1,905.1L680,905.1C673.1,905.9 666.5,907.9 661.1,911C646.3,919.5 646.3,933.4 661.1,941.9C675.9,950.4 699.9,950.4 714.7,941.9C720.1,938.8 723.5,935 725,931L725,930.9C725.2,930.3 725.3,929.8 725.5,929.2C726.1,927.5 727.3,924.6 729.8,921.3L790.9,956.6L945.9,867Z" style="fill:rgb(137,140,138);fill-rule:nonzero;"/>
            </g>
            <g>
                <path d="M584.3,534L633.2,505.8C635.7,509.1 637,512 637.5,513.7C637.6,514.3 637.8,514.8 638,515.4L638,515.5C639.5,519.5 642.9,523.3 648.3,526.4C663.1,534.9 687.1,534.9 701.9,526.4C716.7,517.9 716.7,504 701.9,495.5C696.5,492.4 689.9,490.4 683,489.6L682.9,489.6C681.9,489.5 680.9,489.4 680,489.3C677,489 672,488.2 666.2,486.8L666.2,478.3L681,475.7L680.5,478.5L727.2,451.5L788.3,486.8C790.8,483.5 792.1,480.6 792.6,478.8C792.7,478.2 792.9,477.7 793.1,477.1L793.1,477C794.6,473 798,469.2 803.3,466.1C818.1,457.6 842.1,457.6 856.9,466.1C860.3,468.1 862.8,470.3 864.7,472.7L868,472.7L868,481.6C868,487.2 864.3,492.8 856.9,497C851.5,500.1 844.9,502.1 838,502.9L837.9,502.9C836.9,503 836,503.1 835,503.2C832,503.5 827,504.3 821.2,505.7L870.8,534.3L882.3,532.4L882.3,540.9L821.2,576.2C827,577.6 831.9,578.4 834.9,578.7C835.9,578.8 836.8,578.9 837.8,579L838,579L837.9,579C844.8,579.8 851.4,581.8 856.8,584.9C871.6,593.4 871.6,607.3 856.8,615.8C842,624.3 818,624.3 803.2,615.8C797.8,612.7 794.4,608.9 792.9,604.9L792.9,604.8C792.7,604.2 792.5,603.7 792.4,603.1C791.8,601.4 790.6,598.5 788.1,595.2L727,630.5L572,541.1L572,532.6L584.3,534Z" style="fill:rgb(108,109,106);fill-rule:nonzero;"/>
                <path d="M572,532.5L633.1,497.2C635.6,500.5 636.9,503.4 637.4,505.2C637.5,505.8 637.7,506.3 637.9,506.9L637.9,507C639.4,511 642.8,514.8 648.2,517.9C663,526.4 687,526.4 701.8,517.9C716.6,509.4 716.6,495.5 701.8,487C696.4,483.9 689.8,481.9 682.9,481.1L682.8,481.1C681.8,481 680.8,480.9 679.9,480.8C676.9,480.5 671.9,479.7 666.1,478.3L727.2,443L788.3,478.3C790.8,475 792.1,472.1 792.6,470.3C792.7,469.7 792.9,469.2 793.1,468.6L793.1,468.5C794.6,464.5 798,460.7 803.3,457.6C818.1,449.1 842.1,449.1 856.9,457.6C871.7,466.1 871.7,480 856.9,488.5C851.5,491.6 844.9,493.6 838,494.4L837.9,494.4C836.9,494.5 836,494.6 835,494.7C832,495 827,495.8 821.2,497.2L882.3,532.5L821.2,567.8C827,569.2 831.9,570 834.9,570.3C835.9,570.4 836.8,570.5 837.8,570.6L838,570.6L837.9,570.6C844.8,571.4 851.4,573.4 856.8,576.5C871.6,585 871.6,598.9 856.8,607.4C842,615.9 818,615.9 803.2,607.4C797.8,604.3 794.4,600.5 792.9,596.5L792.9,596.4C792.7,595.8 792.5,595.3 792.4,594.7C791.8,593 790.6,590.1 788.1,586.8L727,622.1L572,532.5Z" style="fill:rgb(29,29,27);fill-rule:nonzero;"/>
            </g>
            <g>
                <g>
                    <path d="M1235.5,411.3L1236.5,410.1L1230.6,406.7C1225.8,404.1 1219.2,404.5 1211.9,408.7C1206.5,411.8 1201.5,416.5 1197.3,422.1L1197.2,422.2C1196.6,423 1196.1,423.8 1195.5,424.6C1193.7,427 1190.6,431 1186.5,435.2L1186.5,374.2L1192.5,367.1L1186.5,363.6L1031.3,453.2L1031.3,523.8C1027.1,524.3 1024,524 1022.2,523.6C1021.6,523.4 1021.1,523.3 1020.5,523.2L1020.4,523.2C1016.2,522.5 1011.2,523.5 1005.8,526.6C991,535.1 979,555.9 979,573C979,581.2 981.8,587.1 986.3,590L992.2,593.4L992.8,592.1C996.6,592.3 1001.1,591.2 1005.8,588.5C1011.2,585.4 1016.2,580.7 1020.4,575.1L1020.5,575C1021.1,574.2 1021.6,573.4 1022.2,572.6C1024,570.2 1027.1,566.2 1031.3,561.9L1031.3,561.8L1031.3,632.4L1037.3,635.9L1040.9,626.9L1092.4,597.2C1090.8,593.4 1088.9,590.8 1087.7,589.5C1087.3,589.1 1086.9,588.7 1086.5,588.2L1086.4,588.1C1083.7,584.8 1082.1,580 1082.1,573.8C1082.1,556.7 1094.1,535.9 1108.9,527.4C1123.7,518.8 1135.7,525.8 1135.7,542.9C1135.7,549.1 1134.1,555.8 1131.4,562.2C1131.4,562.2 1131.4,562.3 1131.3,562.3C1130.9,563.2 1130.5,564.1 1130.1,565C1128.9,567.8 1127,572.4 1125.4,578.2L1131.4,581.7L1138.6,570.6L1186.4,543L1186.4,473.5C1190.5,473 1193.6,473.4 1195.4,473.7C1196,473.9 1196.5,474 1197.1,474.1L1197.2,474.1C1201.4,474.8 1206.4,473.8 1211.8,470.7C1226.6,462.2 1238.6,441.4 1238.6,424.3C1238.7,418.8 1237.6,414.5 1235.5,411.3Z" style="fill:rgb(108,109,106);fill-rule:nonzero;"/>
                    <path d="M1093.8,592.9C1095,594.3 1096.9,596.8 1098.5,600.6L1037.4,635.9L1037.4,565.3L1037.4,565.4C1033.2,569.7 1030.1,573.6 1028.3,576.1C1027.7,576.9 1027.2,577.7 1026.6,578.5C1026.6,578.6 1026.5,578.6 1026.5,578.6C1022.3,584.2 1017.3,588.9 1011.9,592C997.1,600.5 985.1,593.6 985.1,576.5C985.1,559.4 997.1,538.6 1011.9,530.1C1017.3,527 1022.3,526 1026.5,526.7L1026.6,526.7C1027.2,526.8 1027.8,527 1028.3,527.1C1030.1,527.5 1033.2,527.8 1037.4,527.3L1037.4,456.7L1192.6,367.1L1192.6,438.7C1196.7,434.4 1199.8,430.5 1201.6,428.1C1202.2,427.3 1202.7,426.5 1203.3,425.7C1203.3,425.6 1203.4,425.6 1203.4,425.6C1207.6,420 1212.6,415.3 1218,412.2C1232.8,403.7 1244.8,410.6 1244.8,427.7C1244.8,444.8 1232.8,465.6 1218,474.1C1212.6,477.2 1207.6,478.2 1203.4,477.5L1203.3,477.5C1202.7,477.4 1202.2,477.2 1201.6,477.1C1199.8,476.7 1196.7,476.4 1192.6,476.9L1192.6,546.4L1131.5,581.7C1133.2,576 1135,571.3 1136.2,568.5C1136.6,567.6 1137,566.7 1137.4,565.8C1137.4,565.7 1137.5,565.7 1137.5,565.7C1140.2,559.3 1141.8,552.6 1141.8,546.4C1141.8,529.3 1129.8,522.4 1115,530.9C1100.2,539.4 1088.2,560.2 1088.2,577.3C1088.2,583.5 1089.8,588.4 1092.5,591.6C1092.5,591.6 1092.6,591.6 1092.6,591.7C1093,592.1 1093.4,592.5 1093.8,592.9Z" style="fill:rgb(29,29,27);fill-rule:nonzero;"/>
                </g>
            </g>
        </g>
    </g>
</svg>
