<?xml version="1.0" encoding="UTF-8" standalone="no"?>
<!DOCTYPE svg PUBLIC "-//W3C//DTD SVG 1.1//EN" "http://www.w3.org/Graphics/SVG/1.1/DTD/svg11.dtd">
<svg width="100%" height="100%" viewBox="0 0 1920 1080" version="1.1" xmlns="http://www.w3.org/2000/svg" xmlns:xlink="http://www.w3.org/1999/xlink" xml:space="preserve" xmlns:serif="http://www.serif.com/" style="fill-rule:evenodd;clip-rule:evenodd;stroke-miterlimit:10;">
    <g>
        <g>
            <g>
                <g>
                    <path d="M1943.2,1209.6L1971.9,1193.6L1971.9,674C1971.9,594.3 1929.2,520.7 1859.9,481.1L1857.6,479.8L1239.6,121.2C1152.6,70.7 1045.3,70.6 958.2,120.8L958,121L732.6,251L732.5,251C662.9,291.3 620,365.6 620,446.1L620,966.9L649,983.2L986.9,787.2C1055.4,746.8 1140.4,746.5 1209.1,786.5L1210.8,787.5L1943.2,1209.6Z" style="fill:white;fill-rule:nonzero;"/>
                    <g>
                        <path d="M1943.2,689.2L1943.2,690.6L1943.2,689.2C1943.7,609.2 1901.5,534.9 1832.5,494.4L1211.6,137.3L1211.6,788.6L1943.3,1209.6L1943.3,689.2L1943.2,689.2Z" style="fill:rgb(243,235,223);fill-rule:nonzero;"/>
                        <g>
                            <path d="M1046.2,643L986.3,677.6L986.3,787.5C1021.1,767.3 1060.1,757.2 1099,757.4L1099,628.6C1080.8,628.8 1062.6,633.5 1046.2,643Z" style="fill:rgb(250,189,0);fill-rule:nonzero;"/>
                            <path d="M986.2,398L987,397.6C1021.7,377.8 1060.3,367.9 1098.9,368L1098.9,105.5C1061.3,105.5 1023.7,115.3 990.2,135L986.2,137.3L986.2,398Z" style="fill:rgb(51,51,51);fill-rule:nonzero;"/>
                            <path d="M986.4,677.6L928.6,711.1C895.3,730.4 854.1,730.4 820.8,711.2L649,612.1L649,983.2L985.5,788C985.8,787.8 986,787.7 986.3,787.6L986.3,677.6L986.4,677.6Z" style="fill:rgb(170,176,175);fill-rule:nonzero;"/>
                            <path d="M986.4,398L986.4,137.4L763.3,268.7L762.6,269.1C692.6,308.5 649.3,382.6 649.3,463L649,592.8L872.7,463L986.4,398Z" style="fill:rgb(245,245,247);fill-rule:nonzero;"/>
                            <path d="M1153.2,642.9C1136.4,633.2 1117.7,628.5 1099,628.6L1099,757.4C1137.6,757.6 1176.1,767.7 1210.5,788L1210.7,788.1L1211.5,788.6L1211.5,676.6L1153.2,642.9Z" style="fill-rule:nonzero;"/>
                            <path d="M1210.8,398L1211.6,398.5L1211.6,137.2L1206.3,134.2C1173.1,115.1 1136.1,105.5 1099.1,105.5L1099.1,368C1137.6,368 1176.2,378.1 1210.8,398Z" style="fill-rule:nonzero;"/>
                            <path d="M1664.4,937.9L1211.5,676.6L1211.5,788.6L1943.2,1209.6L1943.2,838.4L1773.1,937.6C1739.5,957.2 1698.1,957.3 1664.4,937.9Z" style="fill:rgb(170,176,175);fill-rule:nonzero;"/>
                            <path d="M1832.5,494.4L1211.6,137.3L1211.6,398.5L1323.5,463.1L1943.3,819.3L1943.3,689.2C1943.7,609.1 1901.5,534.9 1832.5,494.4Z" style="fill:rgb(245,245,247);fill-rule:nonzero;"/>
                        </g>
                    </g>
                    <path d="M1323.4,463L1210.7,398C1141.5,358.1 1056.4,357.9 987,397.6L986.8,397.7L872.7,463L648.9,592.9L648.9,612.1L820.7,711.2C854.1,730.5 895.2,730.4 928.5,711.1L1046.2,643C1079.3,623.9 1120.1,623.8 1153.2,642.9L1664.4,937.8C1698.1,957.2 1739.5,957.1 1773.1,937.6L1943.2,838.4L1943.2,819.2L1323.4,463Z" style="fill:rgb(107,108,105);fill-rule:nonzero;"/>
                    <path d="M1323.4,463L1210.7,398C1141.5,358.1 1056.4,357.9 987,397.6L986.8,397.7L872.7,463L648.9,592.9L820.7,692C854.1,711.3 895.2,711.2 928.5,691.9L1046.2,623.8C1079.3,604.7 1120.1,604.6 1153.2,623.7L1664.4,918.6C1698,938 1739.5,937.9 1773.1,918.4L1943.2,819.2L1323.4,463Z" style="fill:white;fill-rule:nonzero;"/>
                    <g>
                        <path d="M620,934.8L620,966.9L648.9,982.3L648.9,951.5L620,934.8Z" style="fill:rgb(107,108,105);fill-rule:nonzero;"/>
                        <path d="M986.4,756.3L986.3,787.5L986.8,787.2L986.9,787.1C1021.6,767.1 1060.3,757.2 1099,757.4L1099,726C1060.2,726 1021.3,736.1 986.4,756.3Z" style="fill:rgb(28,28,28);fill-rule:nonzero;"/>
                        <path d="M985.6,756.8L648.9,951.5L648.9,982.3L986.4,787.5L986.4,756.3L985.6,756.8Z" style="fill:rgb(107,108,105);fill-rule:nonzero;"/>
                        <path d="M1211.5,756.2L1211.5,787.9L1943.2,1209.6L1943.2,1179.3L1211.5,756.2Z" style="fill:rgb(107,108,105);fill-rule:nonzero;"/>
                        <path d="M1099,726L1099,757.4C1137.6,757.6 1176.1,767.8 1210.5,788L1210.7,787.5L1211.5,788L1211.5,756.3C1176.7,736.1 1137.9,726 1099,726Z" style="fill:rgb(28,28,28);fill-rule:nonzero;"/>
                    </g>
                    <path d="M1799.6,522.7L1789.9,580.1L1845.4,613.1L1855.1,556L1799.6,522.7Z" style="fill:rgb(87,177,84);fill-rule:nonzero;"/>
                    <path d="M1825.1,577.7L1815.4,635.2L1870.9,668.1L1880.6,611.1L1825.1,577.7Z" style="fill:rgb(44,165,255);fill-rule:nonzero;"/>
                    <path d="M1792.5,604.9L1782.8,662.4L1838.3,695.3L1848,638.3L1792.5,604.9Z" style="fill:rgb(250,184,58);fill-rule:nonzero;"/>
                    <path d="M825.9,291.7L835.6,349.2L780,382.2L770.3,325.1L825.9,291.7Z" style="fill:rgb(250,184,58);fill-rule:nonzero;"/>
                    <path d="M858.5,312.2L868.2,369.7L812.7,402.6L803,345.6L858.5,312.2Z" style="fill:rgb(87,177,84);fill-rule:nonzero;"/>
                    <path d="M763.4,378L773.1,435.5L717.5,468.4L707.8,411.4L763.4,378Z" style="fill:rgb(44,165,255);fill-rule:nonzero;"/>
                    <g>
                        <g>
                            <path d="M1274.2,304.9L1176.9,361.1L1176.9,510.9L1274.2,454.7L1274.2,304.9Z" style="fill:rgb(210,200,177);fill-rule:nonzero;"/>
                            <path d="M1144.4,342.4L1144.4,492.2L1176.9,510.9L1176.9,361.1L1144.4,342.4Z" style="fill:rgb(250,189,0);fill-rule:nonzero;"/>
                            <path d="M1289.1,296.3L1257.1,277.1L1144.4,342.4L1176.9,361.1L1289.1,296.3Z" style="fill:rgb(250,189,0);fill-rule:nonzero;"/>
                        </g>
                        <g>
                            <path d="M1176.9,510.9L1289.1,446.1L1289.1,296.3L1209.3,342.3L1176.9,435.2L1176.9,510.9Z" style="fill:rgb(96,96,96);fill-rule:nonzero;"/>
                            <path d="M1144.4,417.2L1144.4,492.1L1176.9,510.8L1176.9,435.1L1144.4,417.2ZM1160.6,474.7C1154.7,471.3 1149.9,463.8 1149.9,457.9C1149.9,452 1154.7,450 1160.6,453.4C1166.5,456.8 1171.3,464.3 1171.3,470.2C1171.3,476.1 1166.5,478.1 1160.6,474.7Z" style="fill-rule:nonzero;"/>
                        </g>
                    </g>
                    <g>
                        <g>
                            <path d="M1306.6,324L1209.3,380.2L1209.3,530L1306.6,473.8L1306.6,324Z" style="fill:rgb(250,189,0);fill-rule:nonzero;"/>
                            <path d="M1176.9,361.5L1176.9,511.3L1209.3,530L1209.3,380.2L1176.9,361.5Z" style="fill:rgb(242,142,0);fill-rule:nonzero;"/>
                            <path d="M1321.6,315.4L1289.5,296.2L1176.9,361.5L1209.3,380.2L1321.6,315.4Z" style="fill:rgb(242,142,0);fill-rule:nonzero;"/>
                        </g>
                        <g>
                            <path d="M1209.3,530L1321.6,465.2L1321.6,315.4L1241.8,361.4L1209.3,454.3L1209.3,530Z" style="fill:rgb(96,96,96);fill-rule:nonzero;"/>
                            <path d="M1176.9,436.3L1176.9,511.2L1209.4,529.9L1209.4,454.2L1176.9,436.3ZM1193.1,493.8C1187.2,490.4 1182.4,482.9 1182.4,477C1182.4,471.1 1187.2,469.1 1193.1,472.5C1199,475.9 1203.8,483.4 1203.8,489.3C1203.8,495.2 1199,497.2 1193.1,493.8Z" style="fill-rule:nonzero;"/>
                        </g>
                    </g>
                    <g>
                        <g>
                            <path d="M1339.1,343.1L1241.8,399.4L1241.8,549.1L1339.1,493L1339.1,343.1Z" style="fill:rgb(250,189,0);fill-rule:nonzero;"/>
                            <path d="M1209.3,380.6L1209.3,530.4L1241.8,549.1L1241.8,399.4L1209.3,380.6Z" style="fill:rgb(250,189,0);fill-rule:nonzero;"/>
                            <path d="M1354.1,334.5L1322,315.4L1209.3,380.6L1241.8,399.4L1354.1,334.5Z" style="fill:rgb(250,189,0);fill-rule:nonzero;"/>
                        </g>
                        <g>
                            <path d="M1241.8,549.1L1354.1,484.3L1354.1,334.5L1274.2,380.6L1241.8,473.4L1241.8,549.1Z" style="fill-rule:nonzero;"/>
                            <path d="M1209.3,455.5L1209.3,530.4L1241.8,549.1L1241.8,473.4L1209.3,455.5ZM1225.5,513C1219.6,509.6 1214.8,502.1 1214.8,496.2C1214.8,490.3 1219.6,488.3 1225.5,491.7C1231.4,495.1 1236.2,502.6 1236.2,508.5C1236.2,514.4 1231.4,516.4 1225.5,513Z" style="fill-rule:nonzero;"/>
                        </g>
                    </g>
                </g>
                <g>
                    <g>
                        <g>
                            <path d="M931.6,761.9L968.6,794.4C968.6,794.4 971.4,802.1 966.9,806.4C962.4,810.7 951,810.4 944.5,806.4C944.7,815.2 941.6,864.6 941.6,864.6C941.6,864.6 940.7,880.2 925.3,874.1C920.6,878.8 909.7,880.7 909.7,866.8C903.3,866.3 897.3,865.6 897.8,851.9C890.5,850.2 884.8,850 883.9,835.6C883,821.2 879.2,793 879.2,793L931.6,761.9Z" style="fill:white;fill-rule:nonzero;"/>
                            <path d="M925.3,874.1L924.3,823.9" style="fill:none;fill-rule:nonzero;"/>
                            <path d="M909.7,866.7L909,819.7" style="fill:none;fill-rule:nonzero;"/>
                            <path d="M897.8,851.8L896,815.4" style="fill:none;fill-rule:nonzero;"/>
                        </g>
                        <path d="M913.3,486.5C880.9,506.6 808,593.4 777.1,633.5C755.1,662.1 765.9,691.1 773.9,705.4C776.8,710.6 780.6,715.2 785,719.2L876.7,801.9C876.7,801.9 893.7,802.5 909.5,792.1C925.3,781.7 934.4,754.9 934.4,754.9L855.6,674.5L938.8,600.7" style="fill:rgb(255,166,0);fill-rule:nonzero;"/>
                        <path d="M927.1,747.4C927.1,747.4 913,794.5 868.5,794.5" style="fill:none;fill-rule:nonzero;"/>
                        <path d="M924.8,774.9L916.2,768.5" style="fill:none;fill-rule:nonzero;"/>
                        <path d="M901.9,796.3L894.7,788.1" style="fill:none;fill-rule:nonzero;"/>
                    </g>
                    <g>
                        <path d="M1133.4,1285.2L1120.9,763.8L892,763.8L866.8,1014.2L874.3,1286.9C907.4,1294.9 930.4,1292.6 944.2,1289L960.1,1008.4L999.8,849.5L1060.8,1290C1076,1293.2 1099.9,1294.3 1133.4,1285.2Z" style="fill:rgb(0,106,201);fill-rule:nonzero;"/>
                    </g>
                    <g>
                        <path d="M940.6,318.5C940.6,318.5 870.6,461.3 972.7,463.6L1037.5,463.6L1037.5,318.5L940.6,318.5Z" style="fill:rgb(234,81,89);fill-rule:nonzero;"/>
                        <g>
                            <path d="M1059.8,403.6C1059.8,403.6 1099.4,323.9 1039.6,303.6C1030.8,300.6 1020,298.9 1006.5,298.9C1006.5,298.9 959.8,295.5 947.5,324.2C947.5,324.2 907.9,403.9 967.7,424.2C969.1,424.7 970.6,425.1 972.1,425.5L972.2,425.5L972.2,480.5C992.4,491 1016.4,491.1 1036.7,480.7L1037.1,480.5L1037.1,425.6C1048.9,425.6 1059.8,403.6 1059.8,403.6Z" style="fill:white;fill-rule:nonzero;"/>
                            <path d="M972.2,439C994,439 1000.8,428.9 1000.8,428.9C989.5,428.9 980.1,427.7 972.2,425.6" style="fill-opacity:0.07;fill-rule:nonzero;"/>
                        </g>
                        <path d="M939.9,305.4C937.6,318 940.5,326.2 966.9,331.9C1019.8,346.6 1036.2,335.7 1036.2,414.7L1036.2,418.6C1036.2,446.2 1021.2,461.1 1038.9,469L1093.7,499.6C1093.7,499.6 1104.6,373 1076.1,320.6C1047.3,267.4 948.5,258.6 939.9,305.4Z" style="fill:rgb(234,81,89);fill-rule:nonzero;"/>
                        <path d="M1028.3,371C1037.5,371 1045,378.5 1045,387.7C1045,396.9 1037.5,404.4 1028.3,404.4" style="fill:white;fill-rule:nonzero;"/>
                    </g>
                    <path d="M979.4,463.6L1033.6,463.6C1033.6,463.6 1079.7,466.3 1103.8,489.5L1103.7,562L1103.7,642.7L1121,763.8C1121,763.8 1061.8,775.2 1006.5,775.2C951.2,775.2 892,763.8 892,763.8L909.3,642.7L909.3,562L909.2,489.5C933.3,466.3 979.4,463.6 979.4,463.6Z" style="fill:rgb(255,166,0);fill-rule:nonzero;"/>
                    <g>
                        <g>
                            <path d="M1082,761.9L1045,794.4C1045,794.4 1042.2,802.1 1046.7,806.4C1051.2,810.7 1062.6,810.4 1069.1,806.4C1068.9,815.2 1072,864.6 1072,864.6C1072,864.6 1072.9,880.2 1088.3,874.1C1093,878.8 1103.9,880.7 1103.9,866.8C1110.3,866.3 1116.3,865.6 1115.8,851.9C1123.1,850.2 1128.8,850 1129.7,835.6C1130.6,821.2 1134.4,793 1134.4,793L1082,761.9Z" style="fill:white;fill-rule:nonzero;"/>
                            <path d="M1088.3,874.1L1089.2,823.9" style="fill:none;fill-rule:nonzero;"/>
                            <path d="M1103.9,866.7L1104.6,819.7" style="fill:none;fill-rule:nonzero;"/>
                            <path d="M1115.8,851.8L1117.6,815.4" style="fill:none;fill-rule:nonzero;"/>
                        </g>
                        <path d="M1100.3,486.5C1132.7,506.6 1205.6,593.4 1236.5,633.5C1258.5,662.1 1247.7,691.1 1239.7,705.4C1236.8,710.6 1233,715.2 1228.6,719.2L1136.9,801.9C1136.9,801.9 1119.9,802.5 1104.1,792.1C1088.3,781.7 1079.2,754.9 1079.2,754.9L1158,674.5L1074.8,600.7" style="fill:rgb(255,166,0);fill-rule:nonzero;"/>
                        <path d="M1178.6,671.9L1158,674.4L1169.5,684.5" style="fill:none;fill-rule:nonzero;"/>
                        <path d="M1086.5,747.4C1086.5,747.4 1100.6,794.5 1145.1,794.5" style="fill:none;fill-rule:nonzero;"/>
                        <path d="M1088.8,774.9L1097.3,768.5" style="fill:none;fill-rule:nonzero;"/>
                        <path d="M1111.7,796.3L1118.9,788.1" style="fill:none;fill-rule:nonzero;"/>
                    </g>
                </g>
                <g>
                    <path d="M1006.6,366.1L1036.7,366.1" style="fill:none;fill-rule:nonzero;stroke:black;stroke-width:0.5px;"/>
                    <ellipse cx="987.6" cy="370.1" rx="19" ry="22.2" style="fill:white;fill-opacity:0.5;"/>
                    <ellipse cx="948.3" cy="364.4" rx="19" ry="22.2" style="fill:white;fill-opacity:0.5;"/>
                    <ellipse cx="987.6" cy="370.1" rx="19" ry="22.2" style="fill:none;stroke:black;stroke-width:0.5px;"/>
                    <ellipse cx="948.3" cy="364.4" rx="19" ry="22.2" style="fill:none;stroke:black;stroke-width:0.5px;"/>
                </g>
            </g>
        </g>
    </g>
</svg>
