<?xml version="1.0" encoding="UTF-8" standalone="no"?>
<!DOCTYPE svg PUBLIC "-//W3C//DTD SVG 1.1//EN" "http://www.w3.org/Graphics/SVG/1.1/DTD/svg11.dtd">
<svg width="100%" height="100%" viewBox="0 0 1920 1080" version="1.1" xmlns="http://www.w3.org/2000/svg" xmlns:xlink="http://www.w3.org/1999/xlink" xml:space="preserve" xmlns:serif="http://www.serif.com/" style="fill-rule:evenodd;clip-rule:evenodd;stroke-linejoin:round;stroke-miterlimit:2;">
    <g>
        <g>
            <g>
                <g>
                    <path d="M777.9,251.5C777.9,251.5 784.9,244.4 787.7,240.9C787.1,225.5 793.2,202.5 793.9,187.6C794,185.4 784.3,174.7 784.3,174.7L789.7,164.3L811,170.8C811,170.8 811.3,183.1 809.4,188.7C809.5,190.6 811.5,245.6 810.3,250.4C809.1,255.2 790,280.8 790,280.8L777.9,271.3L777.9,251.5Z" style="fill:white;fill-rule:nonzero;"/>
                    <path d="M741.1,284.3C749,272.5 766.4,259.3 775.1,250.2C783.7,241.1 796.6,275 790.9,284.3C785.2,293.6 773.5,303.5 762.4,337.7C758.8,340.3 734.3,323.3 734.3,323.3C734.3,323.3 733.2,296.1 741.1,284.3Z" style="fill:rgb(30,86,147);fill-rule:nonzero;"/>
                    <path d="M629.8,578.5C628.1,580.8 625.5,583.2 621.4,585.6C617.1,588.1 613.5,589 613.5,589L607.3,597.3L611.1,611.4L621.6,621.5L630.8,618.9C630.8,618.9 632.8,617.1 635.2,612.5C638.5,606.4 642,601.5 645.3,597.6L629.8,578.5Z" style="fill-rule:nonzero;"/>
                    <path d="M645.2,597.7C651.8,589.7 657.2,586 657.2,586L648.7,571.9C648.7,571.9 643.4,557.6 638.1,563.6C633.5,568.8 633.4,573.6 629.8,578.6C629.8,578.6 625,584.2 631.2,593.3C637.8,603.1 645.2,597.7 645.2,597.7Z" style="fill:white;fill-rule:nonzero;"/>
                    <path d="M744.1,631.9C744.3,638.2 744,645.5 742.7,654.2C742.2,657.5 744,669.1 744,669.1L753.7,672.8L765.4,663C765.4,663 765.8,664.3 766.1,658.4C766.6,648.5 767.3,640 768.1,632.8L744.1,631.9Z" style="fill-rule:nonzero;"/>
                    <path d="M768.2,632.8C769.9,617.8 771.9,608.6 772.2,603.9C772.7,596.9 755.7,595.3 755.7,595.3C755.7,595.3 742.2,594.6 741.7,603.9C741.3,610.2 743.8,618.7 744.2,631.9C744.2,631.9 744.6,637.4 755.5,637.7C767.6,638 768.2,632.8 768.2,632.8Z" style="fill:white;fill-rule:nonzero;"/>
                    <path d="M759,435.9C774.6,488.4 782,563.1 780.2,572.3C778.4,581.5 779.2,594.1 779.2,600.5C779.3,612.1 736,610.9 736.2,598.9C736.4,586.8 740.5,571.5 741.1,567.3C741.7,563.1 712.1,476.8 712.1,476.8L715.3,451.4C715.2,451.3 757.8,435 759,435.9Z" style="fill-rule:nonzero;"/>
                    <path d="M668.9,456.2C668.9,456.2 665.8,465 665.2,478C664.6,491 654.8,547 654.8,547C654.8,547 645,552.6 639.1,557.9C630.2,565.9 651.1,598.6 662.3,588.8C675.3,577.5 678.6,575.8 683.9,570.6C689.3,565.4 718,484.5 718,484.5C718,484.5 745.5,474.6 758.8,441.5C759.7,434.5 756.1,431.7 756.1,431.7L680.5,440.2L668.9,456.2Z" style="fill-rule:nonzero;"/>
                    <path d="M700.2,287.4C699.6,294.6 696.3,301.5 696.3,301.5L692.6,310.9L697.2,322.9L709.7,331L731,331L741.1,322.6L741.1,306.2L727.3,287.4L707.1,282.6C707.1,282.6 705,285.2 700.2,287.4Z" style="fill:rgb(236,236,236);fill-rule:nonzero;"/>
                    <path d="M734.3,306.9C736,314 729.7,324.7 729.7,324.7C729.7,324.7 706.7,325.8 700.6,317.7C694.5,309.6 696.4,301.5 696.4,301.5C696.4,301.5 688.6,308.2 673.8,321C668.2,330.8 662.4,366.6 662.4,366.6C662.4,366.6 673.5,397.3 674,411.7C674.5,426.1 667.2,445.4 666.4,454C665.7,462.6 675.2,471.1 695.2,470.4C715.3,469.7 761.4,448 761.5,435.9C761.7,384.8 765.6,364.1 766.1,346.7C766.6,329.3 761.3,318.3 761.3,318.3C761.3,318.3 759.4,301.3 744.4,295.3C744.3,295.4 732.6,299.8 734.3,306.9Z" style="fill:rgb(0,123,255);fill-rule:nonzero;"/>
                    <path d="M747.2,253.1C747.2,253.1 752.4,272.2 752.4,273.4C752.4,274.6 749.3,278.4 749.3,278.4C749.3,278.4 751.6,283.1 751.1,285.8C749.5,295.6 747.2,307.9 746,310.5C744.8,313.1 738.9,315.7 735.4,315.6C731.9,315.5 713,305.4 711.1,303C709.2,300.5 709.1,295.2 709.1,293.5C703,292.8 700.1,287.3 700.1,287.3C700.1,287.3 696.1,277.7 696.3,274.8L711.2,265.7L742.3,259.4L747.2,253.1Z" style="fill:white;fill-rule:nonzero;"/>
                    <path d="M703.8,274.7C706.3,274.8 708.3,280.9 709.7,280.7C711.1,280.6 711.7,277.2 717.8,274.5C719.9,273.6 719.8,268.4 722,267.2C724.2,266 737.8,267 743.3,264.1C761.2,254.5 731.9,226.9 709.4,240.2C686.8,253.5 695.1,276.4 695.7,278.9C696.3,281.4 699.6,287.1 699.6,287.1C699.6,287.1 700.4,288.1 700.1,286.7C699.3,283.1 696.4,274.5 703.8,274.7Z" style="fill-rule:nonzero;"/>
                    <path d="M783.2,673.5C786.2,675.5 793.8,678.6 795.7,679C797.6,679.4 800,684.5 799.4,686.2C798.8,687.9 794.5,690.8 791.6,691.7C788.6,692.7 776.9,693.3 773.3,692.5C769.6,691.7 766.3,686 761.8,684.4C757.3,682.8 741.9,680.5 741.4,675.8C741.2,673.9 741,669.1 741,669.1C741,669.1 780.1,671.5 783.2,673.5Z" style="fill:rgb(230,218,176);fill-rule:nonzero;"/>
                    <path d="M740.6,657.9C741,655.6 742.3,653.1 742.7,654.2C743.6,656.8 745.7,664 749,665.6C753.7,667.9 763.1,655.2 767.8,659.2C768.7,659.9 779.7,669.2 782.7,671.2C785.7,673.2 793.4,676.3 795.2,676.7C797.1,677.1 799.5,682.2 798.8,683.9C798.2,685.6 793.9,688.5 791,689.4C788.1,690.4 776.3,691 772.7,690.2C769,689.4 765.7,683.7 761.2,682.1C756.7,680.5 741.3,678.2 740.8,673.5C740.2,668.7 740.2,660.2 740.6,657.9Z" style="fill:rgb(246,163,24);fill-rule:nonzero;"/>
                    <path d="M615.6,632.1C615.6,632.1 638.3,636.4 639.3,638.9C640.6,642.1 640.9,647.3 638.7,647.7C636.4,648.1 617.7,651.7 613.2,644.5C608.2,636.6 605.2,627.6 604.7,612.6C601.9,603.2 599.9,594.9 601.8,592.1C602.5,591.2 603.9,590 605.6,589C607.8,587.8 615.6,632.1 615.6,632.1Z" style="fill:rgb(230,218,176);fill-rule:nonzero;"/>
                    <path d="M621.4,585.6C621.4,585.6 613.1,592.4 613.6,599C614.1,605.5 618.7,612.7 623.6,613.9C628.6,615.1 635.1,612.6 635.1,612.6C635.1,612.6 634.1,622.6 634.9,627C635.8,631.4 639.9,634.9 640.9,637.4C642.2,640.6 642.5,645.8 640.3,646.2C638,646.6 619.3,650.2 614.8,642.9C609.8,635 606.8,626 606.3,611C603.5,601.5 601.5,593.3 603.5,590.5C605,588.4 610.1,585.4 614.5,584.9C615.9,584.8 621.4,585.6 621.4,585.6Z" style="fill:rgb(246,163,24);fill-rule:nonzero;"/>
                </g>
                <g>
                    <path d="M897.3,176.9L854.9,152.4C852.7,155.3 851.6,157.8 851.1,159.3C851,159.8 850.9,160.3 850.7,160.8L850.7,160.9C849.4,164.4 846.5,167.7 841.8,170.4C828.9,177.8 808.1,177.8 795.3,170.4C782.4,163 782.4,151 795.3,143.5C800,140.8 805.7,139.1 811.7,138.4L811.8,138.4C812.7,138.3 813.5,138.2 814.3,138.2C816.9,137.9 821.2,137.3 826.3,136L826.3,128.6L813.4,126.3L813.8,128.8L773.2,105.4L720.2,136C718,133.1 716.9,130.6 716.4,129.1C716.3,128.6 716.2,128.1 716,127.6L716,127.5C714.7,124 711.8,120.7 707.1,118C694.2,110.6 673.4,110.6 660.6,118C657.7,119.7 655.4,121.6 653.8,123.7L650.9,123.7L650.9,131.4C650.9,136.3 654.1,141.1 660.5,144.8C665.2,147.5 670.9,149.2 676.9,149.9L677,149.9C677.8,150 678.7,150.1 679.5,150.1C682.1,150.4 686.4,151 691.5,152.3L648.5,177.1L638.5,175.5L638.5,182.9L691.5,213.5C686.5,214.7 682.2,215.4 679.6,215.7C678.7,215.8 677.9,215.8 677,215.9L676.9,215.9C670.9,216.6 665.2,218.3 660.5,221C647.6,228.4 647.6,240.4 660.5,247.9C673.3,255.3 694.2,255.3 707,247.9C711.7,245.2 714.6,241.9 715.9,238.4L715.9,238.3C716.1,237.8 716.2,237.3 716.3,236.8C716.8,235.3 717.9,232.8 720.1,229.9L773.1,260.5L907.9,183L907.9,175.6L897.3,176.9Z" style="fill:rgb(242,142,0);fill-rule:nonzero;"/>
                    <path d="M907.9,175.6L854.9,145C852.7,147.9 851.6,150.4 851.1,151.9C851,152.4 850.9,152.9 850.7,153.4L850.7,153.5C849.4,157 846.5,160.3 841.8,163C828.9,170.4 808.1,170.4 795.3,163C782.4,155.6 782.4,143.6 795.3,136.1C800,133.4 805.7,131.7 811.7,131L811.8,131C812.7,130.9 813.5,130.8 814.3,130.8C816.9,130.5 821.2,129.9 826.3,128.6L773.3,98L720.3,128.6C718.1,125.7 717,123.2 716.5,121.7C716.4,121.2 716.3,120.7 716.1,120.2L716.1,120.1C714.8,116.6 711.9,113.3 707.2,110.6C694.3,103.2 673.5,103.2 660.7,110.6C647.9,118 647.9,130 660.7,137.5C665.4,140.2 671.1,141.9 677.1,142.6L677.2,142.6C678,142.7 678.9,142.8 679.7,142.8C682.3,143.1 686.6,143.7 691.7,145L638.7,175.6L691.7,206.2C686.7,207.4 682.4,208.1 679.8,208.4C678.9,208.5 678.1,208.5 677.2,208.6L677.1,208.6C671.1,209.3 665.4,211 660.7,213.7C647.8,221.1 647.8,233.1 660.7,240.6C673.5,248 694.4,248 707.2,240.6C711.9,237.9 714.8,234.6 716.1,231.1L716.1,231C716.3,230.5 716.4,230 716.5,229.5C717,228 718.1,225.5 720.3,222.6L773.3,253.2L907.9,175.6Z" style="fill:rgb(246,163,24);fill-rule:nonzero;"/>
                </g>
                <g>
                    <path d="M641.9,348.4C641.9,348.4 638.5,344.5 641.9,336L649.3,334.3L660.6,346.4L651.1,354.1L641.9,348.4Z" style="fill:rgb(23,70,102);fill-rule:nonzero;"/>
                    <path d="M658.9,220C654.3,220 643.6,223.4 642.6,228.1C641.6,232.8 652.7,256.9 652.7,256.9C652.7,256.9 637.3,284.6 633.8,295.5C630.4,306.4 630.4,327.9 634.4,331.7C638.4,335.5 650.7,347.3 656.3,352.7L666.6,350.7L667.5,326.8L659.7,317.6L665,261.9C665,261.9 670.5,258.3 670.2,253.3C669.9,248.3 666.5,242.6 666.5,242.6C666.5,242.6 669.4,231.8 669.9,228.4C670.3,225.1 663.5,220 658.9,220Z" style="fill:white;fill-rule:nonzero;"/>
                    <path d="M659.7,317.7C659.7,317.7 663.7,321.5 663,328.9C660.6,351.8 649.1,352 644.7,350C644.7,350 651.4,354.8 662.3,366.5C670.6,375.5 688.6,365.1 690.2,347.6C691.8,330.1 683,323 675.9,321.4C668.6,319.8 659.7,317.7 659.7,317.7Z" style="fill:rgb(30,86,147);fill-rule:nonzero;"/>
                    <path d="M782.5,161.1C781.4,156.5 787.9,152.3 792.1,150.1C796.2,147.9 810.1,160.1 811.1,162.3C812.1,164.5 811.5,168 811.5,168L806.5,167.1C806.5,167.1 803.2,169.4 799.4,169.2C795.7,169 783.4,165.1 782.5,161.1Z" style="fill:white;fill-rule:nonzero;"/>
                </g>
            </g>
            <g>
                <g>
                    <path d="M1055.3,367.3C1059,361 1061.5,356.7 1061.5,356.7L1063.8,329.3C1063.8,329.3 1051.4,327.6 1052.4,329.3C1049.6,334.9 1045.8,344.9 1041.8,355.5L1055.3,367.3Z" style="fill:rgb(186,22,49);fill-rule:nonzero;"/>
                    <path d="M1041.8,355.4C1036.4,369.5 1030.8,384.6 1027.2,391.3C1025.8,394 1016.6,404.7 1015.9,409.5C1015.2,414.4 1017.8,433.5 1024,432.6C1030.2,431.7 1030.6,416.1 1030.6,416.1C1030.6,416.1 1037.5,406.2 1038.9,402.6C1040.3,398.9 1039.3,396.5 1039.1,393.9C1044.8,384.9 1050.8,374.7 1055.2,367.2C1055.2,367.2 1057.5,363.3 1052.4,356.8C1046.5,349.3 1041.8,355.4 1041.8,355.4Z" style="fill:white;fill-rule:nonzero;"/>
                    <path d="M1064.8,257.7C1064.8,257.7 1057.4,258.7 1054.6,267C1051.8,275.3 1054,297.9 1054,297.9L1069.4,287.6L1064.8,257.7Z" style="fill:rgb(186,22,49);fill-rule:nonzero;"/>
                    <path d="M1151.5,566.7C1151.5,566.7 1147.2,583 1146.1,584.6C1145,586.2 1139.6,589 1138.6,590.7C1137.6,592.4 1137.5,597.7 1139.9,598.4C1154.5,602.7 1163.4,597.4 1166.4,590.6C1169.3,583.9 1176,567.5 1177,554C1177.4,548.8 1167.7,548.3 1167.7,548.3L1157.6,554.9L1151.5,566.7Z" style="fill:white;fill-rule:nonzero;"/>
                    <path d="M1057.3,601.2C1047.1,613.4 1034,621.6 1031.5,623.4C1029.1,625.2 1029.4,631.9 1030.9,634.1C1032.5,636.3 1045.8,633.9 1050.5,631.2C1055.1,628.5 1058.5,623 1062.9,621C1067.4,619 1077.8,619.2 1079.8,615.7C1081.8,612.2 1078.3,598.6 1078.3,598.6C1078.3,598.6 1062.8,599.2 1057.3,601.2Z" style="fill:white;fill-rule:nonzero;"/>
                    <path d="M1057.4,380.1C1047.4,435.7 1056,485.1 1053.3,502.7C1052.6,507.3 1057.2,518.6 1057.3,529.3C1057.6,559.4 1059.8,587.1 1057.3,599.2C1055.1,609.8 1078.2,607.7 1078.5,597.3C1078.9,582.6 1088.8,544.4 1088.2,534.5C1087.5,524.6 1081.3,516.8 1080.9,510C1080.5,503.2 1093.3,458.9 1094.1,444.2C1094.9,429.5 1098.3,412.7 1098.3,412.7L1075.8,380C1075.8,380.1 1063.5,373.9 1057.4,380.1Z" style="fill:rgb(18,18,20);fill-rule:nonzero;"/>
                    <path d="M1057.3,379.7C1066.5,423.5 1087.2,427.1 1090.4,428.9C1096.3,460.8 1109.3,513.1 1121.7,518C1134.1,523 1145.8,546.1 1150.8,565.5C1154.7,575.1 1175.4,560.6 1167.4,547.8C1156.2,530 1164,509.9 1136.3,495.7C1136.5,487.9 1138.4,413.1 1136.3,402.6C1134.2,392.1 1122.9,381.2 1122.9,381.2C1122.9,381.2 1063.1,374.6 1057.3,379.7Z" style="fill:rgb(48,48,51);fill-rule:nonzero;"/>
                    <rect x="1075.1" y="254.1" width="33.7" height="37.4" style="fill:rgb(236,236,236);"/>
                    <path d="M1135.1,290.3C1135.1,290.3 1126.9,283.6 1117.8,270.2C1115.1,269.7 1110.9,269 1110.9,269C1110.9,269 1102.9,279.2 1084.2,286.9C1078.4,276.8 1081.8,265.8 1081.8,265.8C1081.8,265.8 1075,260.3 1069.6,262.1C1055.9,266.1 1055.9,285.3 1055.9,285.3C1055.9,285.3 1044.2,311.1 1044.4,319.5C1044.6,327.9 1052.8,333.9 1056.4,336.4C1057.3,341.6 1057.8,370.7 1057.1,378.3C1056.1,388.7 1094.6,401.2 1113.2,394.8C1120.6,392.3 1125.8,384.8 1122.8,381.2C1119.5,377.3 1117.3,372.5 1116.9,367.4C1116.1,357.7 1130.7,335.9 1136,319.5C1137,317 1135.1,290.3 1135.1,290.3Z" style="fill:rgb(220,53,69);fill-rule:nonzero;"/>
                    <path d="M1063.6,238C1059.2,247.8 1063.2,261.5 1058.7,272.9C1058.7,272.9 1076.2,270.3 1080.1,256.6L1063.6,238Z" style="fill:rgb(48,48,51);fill-rule:nonzero;"/>
                    <path d="M1062.8,229C1062.8,229 1062.2,231.9 1063.3,236.3C1062.6,249.6 1065.5,259 1065.7,264.6C1065.9,270.2 1075.7,271.5 1079.8,270C1083.9,268.5 1095.2,264.2 1101.6,255.3L1100.3,230.2L1090,219.3L1070.8,214.4L1060.7,221.7L1062.8,229Z" style="fill:white;fill-rule:nonzero;"/>
                    <path d="M1077.2,223.7C1078.2,224.5 1087.2,221 1090.2,233.6C1093.5,247.8 1103,272.4 1095.4,286.1C1112.1,286.7 1120.1,272.1 1120.1,272.1C1120.7,274.9 1122.7,275.6 1122.7,275.6C1122.7,275.6 1131.7,267 1129.3,242.4C1127.4,223.1 1112.5,198 1107.8,200.4C1101.6,190 1086.1,193.2 1079,198.6C1066.4,208 1063.3,214.4 1061.1,217.5C1057.6,222.5 1062.8,229.1 1062.8,229.1C1062.8,229.1 1062.5,222.4 1064.9,221.1C1067.3,219.8 1072.6,219.7 1077.2,223.7Z" style="fill-rule:nonzero;"/>
                    <path d="M1083.4,345.5C1083.4,345.5 1101.2,354.1 1106.2,333.6C1098.8,346.5 1083.4,345.5 1083.4,345.5Z" style="fill:rgb(171,24,58);fill-rule:nonzero;"/>
                </g>
                <g>
                    <path d="M1243.3,307.7L1244.2,306.7L1239.1,303.8C1234.9,301.5 1229.2,301.9 1222.9,305.5C1218.2,308.2 1213.9,312.3 1210.2,317.1C1210.2,317.1 1210.2,317.2 1210.1,317.2C1209.6,317.9 1209.1,318.6 1208.6,319.3C1207,321.4 1204.4,324.8 1200.8,328.5L1200.8,275.6L1206,269.4L1200.8,266.4L1066.1,344.2L1066.1,405.5C1062.5,405.9 1059.8,405.6 1058.2,405.3C1057.7,405.2 1057.3,405 1056.7,404.9L1056.6,404.9C1053,404.3 1048.6,405.2 1044,407.9C1031.1,415.3 1020.7,433.3 1020.7,448.2C1020.7,455.3 1023.1,460.4 1027.1,463L1032.2,466L1032.7,464.9C1036,465.1 1039.9,464.1 1044,461.8C1048.7,459.1 1053,455 1056.6,450.2L1056.7,450.1C1057.2,449.4 1057.7,448.7 1058.2,448C1059.8,445.9 1062.5,442.5 1066.1,438.7L1066.1,500L1071.3,503L1074.4,495.2L1119.1,469.4C1117.7,466.1 1116.1,463.9 1115,462.7C1114.6,462.4 1114.3,462 1113.9,461.6L1113.8,461.6C1111.4,458.8 1110.1,454.5 1110.1,449.2C1110.1,434.4 1120.5,416.3 1133.4,408.9C1146.3,401.5 1156.7,407.5 1156.7,422.3C1156.7,427.7 1155.3,433.5 1153,439.1C1153,439.1 1153,439.2 1152.9,439.2C1152.6,440 1152.2,440.8 1151.8,441.5C1150.7,443.9 1149.1,448 1147.7,453L1152.9,456L1159.2,446.4L1200.7,422.4L1200.7,362C1204.3,361.6 1207,361.9 1208.5,362.2C1209,362.4 1209.5,362.5 1210,362.6L1210.1,362.6C1213.8,363.2 1218.1,362.3 1222.8,359.6C1235.6,352.2 1246.1,334.1 1246.1,319.3C1246.1,314.2 1245.1,310.5 1243.3,307.7Z" style="fill:rgb(187,182,178);fill-rule:nonzero;"/>
                    <path d="M1120.3,465.4C1121.3,466.6 1123,468.8 1124.4,472.1L1071.4,502.7L1071.4,441.4C1067.8,445.1 1065.1,448.6 1063.5,450.7C1063,451.4 1062.5,452.1 1062,452.8L1061.9,452.9C1058.2,457.7 1053.9,461.8 1049.3,464.5C1036.4,471.9 1026,465.9 1026,451.1C1026,436.3 1036.4,418.2 1049.3,410.8C1054,408.1 1058.3,407.2 1061.9,407.8L1062,407.8C1062.5,407.9 1063,408 1063.5,408.2C1065.1,408.5 1067.8,408.8 1071.4,408.4L1071.4,347.1L1206.1,269.3L1206.1,331.4C1209.7,327.7 1212.4,324.3 1213.9,322.2C1214.4,321.5 1214.9,320.8 1215.4,320.1L1215.5,320C1219.1,315.2 1223.5,311.1 1228.1,308.4C1241,301 1251.4,307 1251.4,321.8C1251.4,336.6 1241,354.7 1228.1,362.1C1223.4,364.8 1219.1,365.7 1215.5,365.1L1215.4,365.1C1214.9,365 1214.4,364.9 1213.9,364.7C1212.3,364.4 1209.6,364.1 1206.1,364.5L1206.1,425L1153,455.6C1154.4,450.6 1156,446.5 1157.1,444.1C1157.5,443.3 1157.8,442.6 1158.2,441.8L1158.3,441.7C1160.7,436.1 1162,430.3 1162,424.9C1162,410.1 1151.6,404 1138.7,411.5C1125.9,418.9 1115.4,437 1115.4,451.8C1115.4,457.2 1116.8,461.4 1119.2,464.2L1119.3,464.3C1119.5,464.7 1119.9,465 1120.3,465.4Z" style="fill:rgb(236,236,236);fill-rule:nonzero;"/>
                </g>
                <g>
                    <path d="M1153.4,403.6C1152.1,404.6 1147.2,402.8 1144.1,402.8C1141.1,402.9 1131.3,401.9 1130.6,404.3C1129.9,406.8 1141.2,407.6 1141.2,410.1C1133.2,413.9 1129.3,419.1 1129.3,419.1C1134.6,421.2 1140.2,423.4 1144.1,422.7C1150.3,421.6 1162.3,410.7 1162.3,410.7L1159.5,404.8C1159.6,404.9 1154.7,402.6 1153.4,403.6Z" style="fill:white;fill-rule:nonzero;"/>
                    <path d="M1163.8,372.6C1160.9,381.9 1158.6,391.6 1153.4,403.6C1151.5,408.1 1160.9,412.8 1162.4,410.8C1168.7,402.1 1177.4,391.4 1184,381.2L1163.8,372.6Z" style="fill:white;fill-rule:nonzero;"/>
                    <path d="M1183.9,381.1C1190,371.6 1194.3,362.4 1193.3,355.5C1181.9,340.8 1158.3,310.5 1153.2,304.2C1148.2,297.9 1135.5,279.5 1119.6,287.5C1102.5,296.2 1126.3,318.3 1126.3,318.3C1126.3,318.3 1160.9,349.7 1168.5,360C1166.6,364.2 1165.1,368.3 1163.8,372.5C1163.8,372.5 1163.7,379.4 1171.9,381.9C1180,384.5 1183.9,381.1 1183.9,381.1Z" style="fill:rgb(186,22,49);fill-rule:nonzero;"/>
                </g>
            </g>
            <g>
                <g>
                    <path d="M1068.9,705.5L1067.5,705.1C1066.8,702.4 1065.4,699.6 1063.2,696.7C1054,685 1034.7,677.3 1020,679.5C1014.7,680.3 1010.7,682.2 1008.2,685L1008.2,685.1C1007.9,685.5 1007.6,685.9 1007.3,686.3C1006.3,687.5 1004.3,689.4 1001.2,691.3L963.3,643.2L902.7,652C901.8,648.5 901.7,645.8 901.8,644.2C901.9,643.7 901.9,643.2 902,642.7L902,642.6C902.1,638.9 900.6,634.7 897.3,630.5C888.1,618.9 868.8,611.1 854.1,613.3C839.4,615.4 835,626.6 844.1,638.2C847.4,642.4 852.1,646.1 857.4,649.1C857.4,649.1 857.5,649.1 857.5,649.2C858.2,649.6 859,650 859.8,650.4C862.1,651.6 865.9,653.8 870.1,656.9L809.5,665.7L847.4,713.8C850.5,711.9 852.4,710 853.5,708.8C853.8,708.4 854.1,708 854.4,707.6L854.5,707.5C857,704.7 860.9,702.8 866.3,702C881,699.9 900.3,707.6 909.5,719.3C918.7,730.9 914.2,742.1 899.5,744.2C894.2,745 888.2,744.4 882.4,742.9L882.3,742.9C881.5,742.7 869.1,734.2 869.1,734.2L867.8,739.7L905.7,787.8L966.3,779L967.5,773.5C967.5,773.5 954.4,771.8 953.7,771.4L953.6,771.3C948.3,768.4 943.6,764.7 940.2,760.4C931,748.7 935.5,737.6 950.2,735.5C964.9,733.4 984.2,741.1 993.4,752.8C996.7,757 998.2,761.2 998.1,764.9L998.1,765C998.1,765.5 998,766 997.9,766.5C997.8,768.1 997.9,770.8 998.9,774.3L1059.5,765.5L1060.7,760L1053.9,758.5L1021.6,717.5C1026.7,718.2 1031,719.2 1033.5,719.9C1034.3,720.1 1035.1,720.4 1035.9,720.6L1036,720.6C1041.9,722.1 1047.8,722.7 1053.1,721.9C1061.7,720.7 1066.7,716.3 1067.7,710.7L1068.9,705.5Z" style="fill:rgb(108,109,106);fill-rule:nonzero;"/>
                    <path d="M999.1,760.7C999,762.3 999.1,765 1000,768.5L1060.6,759.7L1022.7,711.6C1027.9,712.3 1032.1,713.3 1034.6,714C1035.4,714.2 1036.2,714.5 1037,714.7L1037.1,714.7C1043,716.2 1048.9,716.8 1054.2,716C1068.9,713.9 1073.3,702.7 1064.2,691.1C1055,679.4 1035.7,671.7 1021,673.9C1015.7,674.7 1011.7,676.6 1009.2,679.4L1009.2,679.5C1008.9,679.9 1008.6,680.3 1008.3,680.7C1007.3,681.9 1005.3,683.8 1002.2,685.7L964.3,637.6L903.7,646.4C902.8,642.9 902.7,640.2 902.8,638.6C902.9,638.1 902.9,637.6 903,637.1L903,637C903.1,633.3 901.6,629.1 898.2,624.9C889,613.3 869.7,605.5 855,607.7C840.3,609.8 835.9,621 845,632.6C848.3,636.8 853,640.5 858.3,643.5C858.3,643.5 858.4,643.5 858.4,643.6C859.1,644 859.9,644.4 860.7,644.8C863,646 866.8,648.2 871,651.3L810.4,660.1L848.3,708.3C851.4,706.4 853.3,704.5 854.4,703.3C854.7,702.9 855,702.5 855.3,702.1L855.3,702C857.8,699.2 861.7,697.3 867.1,696.5C881.8,694.4 901.1,702.1 910.3,713.8C919.5,725.4 915,736.6 900.3,738.7C895,739.5 889,738.9 883.2,737.4L883.1,737.4C882.3,737.2 881.5,736.9 880.6,736.7C878.1,736 873.8,735 868.7,734.3L868.6,734.3L906.5,782.4L967.1,773.6C962.9,770.6 959.1,768.4 956.8,767.1C956.1,766.7 955.3,766.3 954.5,765.9L954.4,765.8C949.1,762.9 944.4,759.2 941.1,754.9C931.9,743.2 936.4,732.1 951.1,730C965.8,727.9 985.1,735.6 994.3,747.3C997.6,751.5 999.2,755.7 999,759.4L999,759.5C999.2,759.7 999.2,760.2 999.1,760.7Z" style="fill:rgb(29,29,27);fill-rule:nonzero;"/>
                </g>
                <g>
                    <path d="M863.8,770.5C865.3,771.2 867.4,773 867.5,774.1C867.5,774.5 867.6,775.2 867.6,775.2C867.6,775.2 865.3,783.4 860.2,786.5C855.1,789.6 849.3,790.8 846,792.5C842.8,794.3 838.8,800.3 837.1,801.6L831.5,788.8C831.5,788.9 864.3,785.4 863.8,770.5Z" style="fill:rgb(83,83,89);fill-rule:nonzero;"/>
                    <path d="M846.8,768.4C852.3,769.3 863.3,768.3 865.4,769.3C867.5,770.3 867.5,774.2 867.5,774.2C867.5,774.2 865.1,782.4 860.1,785.5C855,788.6 849.1,789.8 845.9,791.5C842.7,793.3 838.7,799.2 837,800.6L824.3,775.9C824.3,775.8 841.3,767.5 846.8,768.4Z" style="fill:white;fill-rule:nonzero;"/>
                    <path d="M851.9,699.9C851.9,699.9 855.1,703.5 854.5,710.3C853.9,717.2 849.9,757.1 849.8,768.2C849.6,779.3 822.4,782.5 822.3,774.4C822.1,766.3 822.3,704.2 822.3,704.2L837.9,697.5L851.9,699.9Z" style="fill-rule:nonzero;"/>
                    <path d="M753.1,842.6C753.1,842.6 744.8,846.1 749.6,863.4C754.4,880.7 763.8,879.9 763.8,879.9L774.1,875.1L777,859.5L770.2,841.9L760,841.9L753.1,842.6Z" style="fill:rgb(23,70,102);fill-rule:nonzero;"/>
                    <path d="M752.4,844L766.4,840.9L774.1,851L773,863.9L762.2,867.9L753.9,865L750.5,851L752.4,844Z" style="fill:rgb(48,48,51);fill-rule:nonzero;"/>
                    <path d="M736.9,851.7C740.6,847.1 748,844.5 749.8,844C751.7,843.5 756.7,844 757.3,847C757.8,850 756.6,855.2 757.4,859.2C758.1,863.1 762.7,865 762.2,867.8C761.8,870.6 756,878.5 755.4,883.6C754.9,888.7 755.8,895.6 756.6,897.4C757.4,899.2 755.2,901.8 755.2,901.8L748.8,898.1L739.6,885.6L742.8,871.8L738,855C738,855 736.6,851.9 736.9,851.7Z" style="fill:white;fill-rule:nonzero;"/>
                    <path d="M823.5,742.3C839.9,783.9 849.1,830.4 848.4,836.6C847.7,842.8 842.1,854.3 834.5,856.4C826.9,858.5 799.4,866.9 763.8,879.8C773.2,875.1 774.1,842.1 753.1,842.6C780.5,837.2 806.4,827.9 806.4,827.9C806.4,827.9 796.1,809.8 782.2,789.5C769,783.9 741.4,749 739.9,742.2C738.4,735.4 739.9,724.2 739.9,724.2L762.1,713.9L800.2,728.9C800.2,728.9 820.3,731.3 823.5,742.3Z" style="fill-rule:nonzero;"/>
                    <path d="M795,599.9C778.8,611.6 782.3,625.5 787.5,636.5C790.9,643.8 830.7,625.2 828.6,616.3C826.6,607.4 815.8,584.7 795,599.9Z" style="fill:rgb(0,149,59);fill-rule:nonzero;"/>
                    <path d="M920.3,586.5C922.3,607.4 908.9,614.8 908.9,614.8C908.9,614.8 906.3,618.7 902.9,621.9C899.5,625.1 879.9,636 879.9,636L857.8,626.6L845.9,601.4C845.9,601.4 862,597.9 867.5,587.1C872.6,584.7 888.3,566.7 888.3,566.7L913.5,571.5C913.5,571.5 920.4,583.8 920.3,586.5Z" style="fill:white;fill-rule:nonzero;"/>
                    <path d="M878,630.8C884.4,620.8 890.7,612.9 890.7,612.9" style="fill:rgb(199,164,150);fill-rule:nonzero;"/>
                    <path d="M867,585.9C867.2,589.7 875.6,584.1 888.3,598.8C890.2,600.9 897.4,600.7 900.5,599.9C903.7,599 907.7,594.9 909.3,598.8C910.9,602.6 906.9,606.2 905.2,607.4C903.6,608.5 904.9,612.6 906.8,611C908.6,609.5 916.6,603.1 918,599.6C919.3,596.1 918.3,585.1 918.3,585.1C918.3,585.1 921.9,588.2 921.9,586.4C921.9,578.1 914.3,560.1 894.3,562C874.2,563.8 866.8,583 867,585.9Z" style="fill-rule:nonzero;"/>
                    <path d="M950.2,728.4C948.4,726.5 939.1,727.3 939.1,727.3C939.1,727.3 936.1,723.1 933.7,723.1C931.8,723.1 926.4,726.2 924.1,727.5C914.5,716.4 912.6,705.7 904.8,698.3C903.8,693.3 901.7,685.7 901.7,685.7L875.4,700C875.4,700 881.7,712.9 884.3,718.2C892.6,732.1 910.7,738.3 918.9,741.6C918.9,741.6 921.6,746.2 924.7,747C927.9,747.8 935.5,747.4 937.2,747.3C939.1,752.2 939.7,752.5 939.7,752.5C939.7,752.5 952,746 952.8,740.9C953.8,735.9 951.9,730.3 950.2,728.4Z" style="fill:white;fill-rule:nonzero;"/>
                    <path d="M881.4,632.9C881.4,632.9 877,626 875.4,621.3C873.7,616.6 855.1,600.1 844.6,601.4C836.7,600.7 821.5,597.2 815.8,597.2C802.4,597.2 790.4,605.8 780.1,627.2C769.8,648.6 740.9,707.4 737.5,718.6C735.5,725.1 759.1,754.8 783.1,758.5C807.1,762.1 826.2,749.7 825.9,739.7C825.6,729.7 828.5,726.6 833.2,718.9C837.9,711.3 872.3,688.5 872.3,688.5L881.4,632.9Z" style="fill:rgb(40,167,69);fill-rule:nonzero;"/>
                    <path d="M870.6,634.9C853,644.3 859.4,662.4 864.6,673.4C868,680.7 870.3,685 872.3,698C874.2,711 906.3,694.3 903.7,684.1C901,673.9 900.3,665.8 898.3,656.9C896.2,648.1 888.2,625.4 870.6,634.9Z" style="fill:rgb(0,149,59);fill-rule:nonzero;"/>
                    <path d="M834.5,840.4C820.8,830.7 806.4,827.9 806.4,827.9" style="fill:none;fill-rule:nonzero;"/>
                    <path d="M739.6,851C735.9,850.3 734.3,855.2 735.7,859.8C737.1,864.4 737.4,868.6 737.6,872.6C737.8,876.6 733.9,881.8 735,886.6C736.7,894.3 749.4,902.1 755.2,901.8C755.7,901.1 751.1,898.8 750.7,893.8C750.2,888.8 748.6,871.4 748.6,871.4C748.6,871.4 747.9,866.2 746.7,861.4C745.7,857.5 743.4,851.7 739.6,851Z" style="fill:rgb(83,83,89);fill-rule:nonzero;"/>
                </g>
            </g>
            <g>
                <path d="M1220.5,856L1093.3,782.6L1040.3,813.2C1038.1,810.3 1037,807.8 1036.5,806.3C1036.4,805.8 1036.3,805.3 1036.1,804.8L1036.1,804.7C1034.8,801.2 1031.9,797.9 1027.2,795.2C1014.3,787.8 993.5,787.8 980.7,795.2C977.6,797 975.3,799 973.7,801.2L971,801.2L971,808.6C971,813.5 974.2,818.4 980.6,822.1C985.3,824.8 991,826.5 997,827.2L997.1,827.2C997.9,827.3 998.8,827.4 999.6,827.4C1002.2,827.7 1006.5,828.3 1011.6,829.6L966.2,855.8L958.5,852.8L958.5,860.2L1011.5,890.8C1006.5,892.1 1002.1,892.7 999.5,893C998.7,893.1 997.8,893.1 997,893.2L996.9,893.2C990.9,893.9 985.2,895.6 980.5,898.3C977.4,900.1 975,902.2 973.4,904.4L971,904.4L971,912C971.1,916.8 974.3,921.5 980.6,925.2C993.4,932.6 1014.3,932.6 1027.1,925.2C1031.8,922.5 1034.7,919.2 1036,915.7L1036,915.6C1036.2,915.1 1036.3,914.6 1036.4,914.1C1036.9,912.6 1038,910.1 1040.2,907.2L1093.2,937.8L1227.9,860L1227.9,852.6L1220.5,856Z" style="fill:rgb(242,142,0);fill-rule:nonzero;"/>
                <path d="M1082.7,932L1040.3,907.5C1038.1,910.4 1037,912.9 1036.5,914.4C1036.4,914.9 1036.3,915.4 1036.1,915.9L1036.1,916C1034.8,919.5 1031.9,922.8 1027.2,925.5C1014.3,932.9 993.5,932.9 980.7,925.5C967.8,918.1 967.8,906.1 980.7,898.6C985.4,895.9 991.1,894.2 997.1,893.5L997.2,893.5C998,893.4 998.9,893.3 999.7,893.3C1002.3,893 1006.6,892.4 1011.7,891.1L1011.7,883.7L998.8,881.4L999.2,883.9L958.6,860.5L905.6,891.1C903.4,888.2 902.3,885.7 901.8,884.2C901.7,883.7 901.6,883.2 901.4,882.7L901.4,882.6C900.1,879.1 897.2,875.8 892.5,873.1C879.7,865.7 858.8,865.7 846,873.1C843,874.8 840.8,876.7 839.2,878.8L836.3,878.8L836.3,886.5C836.3,891.4 839.5,896.2 845.9,899.9C850.6,902.6 856.3,904.3 862.3,905L862.4,905C863.2,905.1 864.1,905.2 864.9,905.2C867.5,905.5 871.8,906.1 876.9,907.4L833.9,932.3L823.9,930.7L823.9,938.1L876.9,968.7C871.9,970 867.6,970.6 865,970.9C864.2,971 863.3,971 862.5,971.1L862.4,971.1C856.4,971.8 850.7,973.5 846,976.2C833.1,983.6 833.1,995.6 846,1003.1C858.8,1010.5 879.7,1010.5 892.5,1003.1C897.2,1000.4 900.1,997.1 901.4,993.6L901.4,993.5C901.6,993 901.7,992.5 901.8,992C902.3,990.5 903.4,988 905.6,985.1L958.6,1015.7L1093.3,937.9L1093.3,930.5L1082.7,932Z" style="fill:rgb(187,182,178);fill-rule:nonzero;"/>
                <path d="M1228,852.9L1093.3,775.1L1040.3,805.7C1038.1,802.8 1037,800.3 1036.5,798.8C1036.4,798.3 1036.3,797.8 1036.1,797.3L1036.1,797.2C1034.8,793.7 1031.9,790.4 1027.2,787.7C1014.3,780.3 993.5,780.3 980.7,787.7C967.8,795.1 967.8,807.2 980.7,814.6C985.4,817.3 991.1,819 997.1,819.7L997.2,819.7C998,819.8 998.9,819.9 999.7,819.9C1002.3,820.2 1006.6,820.8 1011.7,822.1L958.6,852.7L1011.6,883.3C1006.6,884.6 1002.2,885.2 999.6,885.5C998.8,885.6 997.9,885.6 997.1,885.7L997,885.7C991,886.4 985.3,888.1 980.6,890.8C967.7,898.2 967.7,910.2 980.6,917.7C993.4,925.1 1014.3,925.1 1027.1,917.7C1031.8,915 1034.7,911.7 1036,908.2L1036,908.1C1036.2,907.6 1036.3,907.1 1036.4,906.6C1036.9,905.1 1038,902.6 1040.2,899.7L1093.2,930.3L1228,852.9Z" style="fill:rgb(255,166,0);fill-rule:nonzero;"/>
                <path d="M1093.3,930.7L1040.3,900.1C1038.1,903 1037,905.5 1036.5,907C1036.4,907.5 1036.3,908 1036.1,908.5L1036.1,908.6C1034.8,912.1 1031.9,915.4 1027.2,918.1C1014.3,925.5 993.5,925.5 980.7,918.1C967.8,910.7 967.8,898.6 980.7,891.2C985.4,888.5 991.1,886.8 997.1,886.1L997.2,886.1C998,886 998.9,885.9 999.7,885.9C1002.3,885.6 1006.6,885 1011.7,883.7L958.7,853.1L905.7,883.7C903.5,880.8 902.4,878.3 901.9,876.8C901.8,876.3 901.7,875.8 901.5,875.3L901.5,875.2C900.2,871.7 897.3,868.4 892.6,865.7C879.8,858.3 858.9,858.3 846.1,865.7C833.2,873.1 833.2,885.2 846.1,892.6C850.8,895.3 856.5,897 862.5,897.7L862.6,897.7C863.4,897.8 864.3,897.9 865.1,897.9C867.7,898.2 872,898.8 877.1,900.1L824,930.7L877,961.3C872,962.6 867.7,963.2 865.1,963.5C864.3,963.6 863.4,963.6 862.6,963.7L862.5,963.7C856.5,964.4 850.8,966.1 846.1,968.8C833.2,976.2 833.2,988.2 846.1,995.7C858.9,1003.1 879.8,1003.1 892.6,995.7C897.3,993 900.2,989.7 901.5,986.2L901.5,986.1C901.7,985.6 901.8,985.1 901.9,984.6C902.4,983.1 903.5,980.6 905.7,977.7L958.7,1008.3L1093.3,930.7Z" style="fill:white;fill-rule:nonzero;"/>
            </g>
            <g>
                <path d="M1468.9,642.5L1426.5,618C1424.3,620.9 1423.2,623.4 1422.7,624.9C1422.6,625.4 1422.5,625.9 1422.3,626.4L1422.3,626.5C1421,630 1418.1,633.3 1413.4,636C1400.5,643.4 1379.7,643.4 1366.9,636C1354,628.6 1354,616.6 1366.9,609.1C1371.6,606.4 1377.3,604.7 1383.3,604L1383.4,604C1384.2,603.9 1385.1,603.8 1385.9,603.8C1388.5,603.5 1392.8,602.9 1397.9,601.6L1397.9,594L1385,591.7L1385.4,594.2L1344.8,570.8L1291.8,601.4C1289.6,598.5 1288.5,596 1288,594.5C1287.9,594 1287.8,593.5 1287.6,593L1287.6,592.9C1286.3,589.4 1283.4,586.1 1278.7,583.4C1265.8,576 1245,576 1232.2,583.4C1229.3,585.1 1227,587 1225.4,589.1L1222.5,589.1L1222.5,596.8C1222.5,601.7 1225.7,606.5 1232.1,610.2C1236.8,612.9 1242.5,614.6 1248.5,615.3L1248.6,615.3C1249.4,615.4 1250.3,615.5 1251.1,615.5C1253.7,615.8 1258,616.4 1263.1,617.7L1220.1,642.5L1210.1,640.9L1210.1,648.3L1263.1,678.9C1258.1,680.1 1253.8,680.8 1251.2,681.1C1250.4,681.2 1249.5,681.2 1248.7,681.3L1248.6,681.3C1242.6,682 1236.9,683.7 1232.2,686.4C1219.3,693.8 1219.3,705.8 1232.2,713.3C1245,720.7 1265.9,720.7 1278.7,713.3C1283.4,710.6 1286.3,707.3 1287.6,703.8L1287.6,703.7C1287.8,703.2 1287.9,702.7 1288,702.2C1288.5,700.7 1289.6,698.2 1291.8,695.3L1344.8,725.9L1479.5,648.1L1479.5,640.7L1468.9,642.5Z" style="fill:rgb(108,109,106);fill-rule:nonzero;"/>
                <path d="M1479.5,641.2L1426.5,610.6C1424.3,613.5 1423.2,616 1422.7,617.5C1422.6,618 1422.5,618.5 1422.3,619L1422.3,619.1C1421,622.6 1418.1,625.9 1413.4,628.6C1400.5,636 1379.7,636 1366.9,628.6C1354,621.2 1354,609.2 1366.9,601.7C1371.6,599 1377.3,597.3 1383.3,596.6L1383.4,596.6C1384.2,596.5 1385.1,596.4 1385.9,596.4C1388.5,596.1 1392.8,595.5 1397.9,594.2L1344.8,563.6L1291.8,594.2C1289.6,591.3 1288.5,588.8 1288,587.3C1287.9,586.8 1287.8,586.3 1287.6,585.8L1287.6,585.7C1286.3,582.2 1283.4,578.9 1278.7,576.2C1265.8,568.8 1245,568.8 1232.2,576.2C1219.3,583.6 1219.4,595.6 1232.2,603.1C1236.9,605.8 1242.6,607.5 1248.6,608.2L1248.7,608.2C1249.5,608.3 1250.4,608.4 1251.2,608.4C1253.8,608.7 1258.1,609.3 1263.2,610.6L1210.2,641.2L1263.2,671.8C1258.2,673 1253.9,673.7 1251.3,674C1250.5,674.1 1249.6,674.1 1248.8,674.2L1248.7,674.2C1242.7,674.9 1237,676.6 1232.3,679.3C1219.4,686.7 1219.4,698.7 1232.3,706.2C1245.1,713.6 1266,713.6 1278.8,706.2C1283.5,703.5 1286.4,700.2 1287.7,696.7L1287.7,696.6C1287.9,696.1 1288,695.6 1288.1,695.1C1288.6,693.6 1289.7,691.1 1291.9,688.2L1344.9,718.8L1479.5,641.2Z" style="fill:rgb(137,140,138);fill-rule:nonzero;"/>
            </g>
            <g>
                <path d="M453.2,825.5L495.6,801C497.8,803.9 498.9,806.4 499.4,807.9C499.5,808.4 499.6,808.9 499.8,809.4L499.8,809.5C501.1,813 504,816.3 508.7,819C521.5,826.4 542.4,826.4 555.2,819C568,811.6 568,799.6 555.2,792.1C550.5,789.4 544.8,787.7 538.8,787L538.7,787C537.8,786.9 537,786.8 536.2,786.8C533.6,786.5 529.3,785.9 524.2,784.6L524.2,777L537.1,774.7L536.7,777.2L577.3,753.8L630.4,784.4C632.6,781.5 633.7,779 634.2,777.5C634.3,777 634.4,776.5 634.6,776L634.6,775.9C635.9,772.4 638.8,769.1 643.5,766.4C656.4,759 677.2,759 690,766.4C692.9,768.1 695.2,770 696.8,772.1L699.7,772.1L699.7,779.8C699.7,784.7 696.5,789.5 690.1,793.2C685.4,795.9 679.7,797.6 673.7,798.3L673.6,798.3C672.8,798.4 671.9,798.5 671.1,798.5C668.5,798.8 664.1,799.4 659.1,800.7L702.1,825.5L712.1,823.9L712.1,831.3L659.1,861.9C664.1,863.1 668.4,863.8 671,864.1C671.9,864.2 672.7,864.2 673.5,864.3L673.6,864.3C679.6,865 685.3,866.7 690,869.4C702.8,876.8 702.8,888.8 690,896.3C677.2,903.7 656.3,903.7 643.5,896.3C638.8,893.6 635.9,890.3 634.6,886.8L634.6,886.7C634.4,886.2 634.3,885.7 634.2,885.2C633.7,883.7 632.6,881.2 630.4,878.3L577.4,908.9L442.7,831.1L442.7,823.7L453.2,825.5Z" style="fill:rgb(108,109,106);fill-rule:nonzero;"/>
                <path d="M442.6,824.2L495.6,793.6C497.8,796.5 498.9,799 499.4,800.5C499.5,801 499.6,801.5 499.8,802L499.8,802.1C501.1,805.6 504,808.9 508.7,811.6C521.5,819 542.4,819 555.2,811.6C568,804.2 568,792.2 555.2,784.7C550.5,782 544.8,780.3 538.8,779.6L538.7,779.6C537.8,779.5 537,779.4 536.2,779.4C533.6,779.1 529.3,778.5 524.2,777.2L577.2,746.6L630.3,777.2C632.5,774.3 633.6,771.8 634.1,770.3C634.2,769.8 634.3,769.3 634.5,768.8L634.5,768.7C635.8,765.2 638.7,761.9 643.4,759.2C656.3,751.8 677.1,751.8 689.9,759.2C702.7,766.6 702.7,778.6 689.9,786.1C685.2,788.8 679.5,790.5 673.5,791.2L673.4,791.2C672.6,791.3 671.7,791.4 670.9,791.4C668.3,791.7 663.9,792.3 658.9,793.6L711.9,824.2L658.9,854.8C663.9,856 668.2,856.7 670.8,857C671.7,857.1 672.5,857.1 673.3,857.2L673.4,857.2C679.4,857.9 685.1,859.6 689.8,862.3C702.6,869.7 702.6,881.7 689.8,889.2C677,896.6 656.1,896.6 643.3,889.2C638.6,886.5 635.7,883.2 634.4,879.7L634.4,879.6C634.2,879.1 634.1,878.6 634,878.1C633.5,876.6 632.4,874.1 630.2,871.2L577.2,901.8L442.6,824.2Z" style="fill:rgb(29,29,27);fill-rule:nonzero;"/>
            </g>
        </g>
    </g>
</svg>
