<?xml version="1.0" encoding="UTF-8" standalone="no"?>
<!DOCTYPE svg PUBLIC "-//W3C//DTD SVG 1.1//EN" "http://www.w3.org/Graphics/SVG/1.1/DTD/svg11.dtd">
<svg width="100%" height="100%" viewBox="0 0 1920 1080" version="1.1" xmlns="http://www.w3.org/2000/svg" xmlns:xlink="http://www.w3.org/1999/xlink" xml:space="preserve" xmlns:serif="http://www.serif.com/" style="fill-rule:evenodd;clip-rule:evenodd;stroke-miterlimit:10;">
    <g>
        <g>
            <g id="Cerchi">
                <path d="M1150,684.7C1257.6,749.5 1253.9,852.7 1141.7,915.3C1029.5,977.8 851.4,976 743.8,911.3C636.2,846.5 639.9,743.3 752,680.8C864.2,618.1 1042.4,619.9 1150,684.7Z" style="fill:none;fill-rule:nonzero;stroke:white;stroke-width:1px;"/>
                <path d="M1266.3,619.9C1435.5,721.8 1429.7,884.1 1253.3,982.5C1076.9,1080.9 796.7,1078 627.4,976.2C458.2,874.3 464,712 640.4,613.6C816.9,515.1 1097.1,518 1266.3,619.9Z" style="fill:none;fill-rule:nonzero;stroke:white;stroke-width:1px;"/>
                <path d="M1386.7,552.7C1619.7,693 1611.7,916.5 1368.8,1052C1125.9,1187.5 740.1,1183.5 507,1043.3C274.1,903 282.1,679.5 525,544C767.9,408.5 1153.7,412.4 1386.7,552.7Z" style="fill:none;fill-rule:nonzero;stroke:white;stroke-width:1px;"/>
                <path d="M1513.6,482C1813.8,662.7 1803.5,950.7 1490.6,1125.2C1177.7,1299.7 680.6,1294.7 380.4,1113.9C80.2,933.2 90.5,645.2 403.4,470.7C716.3,296.2 1213.3,301.3 1513.6,482Z" style="fill:none;fill-rule:nonzero;stroke:white;stroke-width:1px;"/>
                <path d="M1657.9,401.5C2034.6,628.3 2021.7,989.6 1629,1208.6C1236.4,1427.6 612.7,1421.3 235.9,1194.5C-140.8,967.8 -127.9,606.4 264.8,387.4C657.5,168.4 1281.2,174.7 1657.9,401.5Z" style="fill:none;fill-rule:nonzero;stroke:white;stroke-width:1px;"/>
                <path d="M1041,745.5C1090.8,775.5 1089.1,823.3 1037.2,852.3C985.2,881.3 902.7,880.4 852.9,850.4C803.1,820.4 804.8,772.6 856.7,743.6C908.6,714.7 991.2,715.5 1041,745.5Z" style="fill:none;fill-rule:nonzero;stroke:white;stroke-width:1px;"/>
            </g>
            <g id="Lampadina">
                <g>
                    <g>
                        <path d="M975,806.4L918.8,806.4L919.1,771.2L975.2,771.2L975,806.4Z" style="fill:rgb(8,25,41);fill-rule:nonzero;"/>
                        <g>
                            <path d="M980.3,779.4C998,790 997.4,807 979,817.3C960.6,827.6 931.2,827.3 913.5,816.6C895.8,805.9 896.4,789 914.9,778.7C933.3,768.4 962.6,768.7 980.3,779.4Z" style="fill:rgb(242,142,0);fill-rule:nonzero;"/>
                        </g>
                    </g>
                    <g>
                        <g>
                            <path d="M1002.4,735.3C1031.6,752.9 1030.6,780.9 1000.2,797.8C969.8,814.8 921.4,814.3 892.2,796.7C863,779.1 864,751.1 894.4,734.2C924.9,717.3 973.2,717.8 1002.4,735.3Z" style="fill:rgb(107,108,105);fill-rule:nonzero;"/>
                        </g>
                        <g>
                            <path d="M890.6,789.3C882.8,784.6 878.8,780.4 877.1,778.6C874.8,776.2 873,773.6 873,773.6C871,770.6 870.2,769.3 869,766.7C868.1,764.7 867.2,762.2 866.7,759.8C866,756.9 866,755 865.9,752.9C865.9,751.9 866,749 866.2,747.7C866.8,744.3 867.1,743.3 867.9,740.8C868.5,739.1 870.3,734.4 874.6,729C878.8,723.7 883.8,720 885.3,718.9C889.3,716.1 899.9,708.5 919.4,704.1C926.8,702.4 934.8,701.4 943,701.1C945.6,701 949.7,700.9 954.7,701.2C959.4,701.5 961.4,701.7 966.2,702.3C966.2,702.3 971.3,703 977.3,704.4C982,705.5 983.9,706.2 987.9,707.5C991.6,708.7 994.3,710 997.9,711.7C999.8,712.6 1002.2,714 1004,715C1003.5,714.7 1003,714.5 1002.4,714.4C1000.2,713.9 997.2,714.6 993.8,716.4C969.1,701.6 928.3,701.1 902.6,715.5C876.9,729.8 876.1,753.5 900.7,768.3C925.3,783.1 966.2,783.6 991.9,769.2C1017.6,754.9 1018.4,731.2 993.8,716.4C997.1,714.5 1000.2,713.9 1002.4,714.4C1003,714.5 1003.5,714.7 1004,715C1005.8,716.1 1008.2,717.7 1009.9,719C1011.6,720.3 1014,722.2 1016.4,724.6C1017.1,725.3 1019.3,727.6 1020.9,729.7C1022.4,731.8 1023.6,733.4 1025.2,736.7C1026.1,738.5 1028.2,743.2 1028.7,749.1C1028.9,752 1028.8,754.2 1028.7,755C1028.3,758.4 1027.7,760.6 1027.3,761.9C1026.5,764.3 1026,765.6 1024.4,768.8C1023.1,771.2 1021.3,773.6 1020.8,774.4C1018.2,777.9 1014,782 1010.3,784.7C1007.1,787 1002.8,790.2 993.8,794.2C990,795.9 983.8,798.2 975.3,800.2C945.8,807 912.6,802.7 890.6,789.3Z" style="fill:rgb(137,140,138);fill-rule:nonzero;"/>
                        </g>
                        <g>
                            <path d="M890.5,767.3C882.7,762.6 878.7,758.4 877,756.7C874.7,754.3 872.9,751.7 872.9,751.7C870.9,748.8 870.1,747.4 868.9,744.8C868,742.8 867.1,740.3 866.6,737.9C865.9,735 865.9,733.1 865.8,731C865.8,730.1 865.9,727.2 866.1,725.8C866.7,722.4 867,721.4 867.8,718.9C868.3,717.5 869.2,715.3 871.1,712C871.8,710.8 873.1,708.9 875.2,706.4C879.5,701.2 884.7,697.5 886.9,696C890.5,693.5 896.4,690.2 900.9,688.3C903,687.4 905.8,686.3 907.9,685.6C913.4,683.8 914.7,683.4 919.4,682.3C926.8,680.6 934.8,679.6 943,679.3C943.9,679.3 949,679.1 954.7,679.4C959.4,679.7 961.4,679.9 966.2,680.5C966.2,680.5 971.3,681.2 977.3,682.6C982,683.7 983.9,684.4 987.9,685.7C991.6,686.9 994.3,688.2 997.9,689.9C999.8,690.8 1002.2,692.2 1004,693.2C1003.5,692.9 1003,692.7 1002.4,692.6C1000.2,692.1 997.2,692.8 993.8,694.6C969.1,679.8 928.3,679.3 902.6,693.7C876.9,708 876.1,731.7 900.7,746.5C925.4,761.3 966.2,761.8 991.9,747.4C1017.6,733.1 1018.4,709.4 993.8,694.6C997.1,692.7 1000.2,692.1 1002.4,692.6C1003,692.7 1003.5,692.9 1004,693.2C1005.8,694.3 1008.2,695.9 1009.9,697.2C1011.7,698.6 1014.1,700.4 1016.4,702.8C1022,708.5 1024.1,712.7 1025.2,714.9C1026.1,716.7 1028.2,721.4 1028.7,727.3C1028.9,730.2 1028.8,732.4 1028.7,733.2C1028.3,736.6 1027.7,738.8 1027.3,740.1C1026.5,742.5 1026,743.8 1024.4,747C1023.1,749.4 1021.3,751.8 1020.8,752.6C1018.2,756 1014,760.2 1010.3,762.9C1007.1,765.2 1002.8,768.4 993.8,772.4C990,774.1 983.8,776.4 975.3,778.4C945.8,785 912.6,780.7 890.5,767.3Z" style="fill:rgb(137,140,138);fill-rule:nonzero;"/>
                        </g>
                        <g>
                            <path d="M890.5,745.3C882.7,740.6 878.7,736.4 877,734.7C874.7,732.3 872.9,729.7 872.9,729.7C870.9,726.7 870.1,725.4 868.9,722.8C868,720.8 867.1,718.3 866.6,715.9C865.9,713 865.9,711.1 865.8,709C865.8,708.1 865.9,705.2 866.1,703.8C866.7,700.4 867,699.4 867.8,696.9C868.3,695.5 869.2,693.3 871.1,690C871.8,688.8 873,686.9 875.1,684.4C879.4,679.1 884.5,675.5 886.7,674C890.4,671.4 896.2,668.2 900.8,666.3C907.3,663.6 912.6,661.8 919.3,660.3C926.7,658.6 934.7,657.6 942.9,657.3C945.5,657.2 949.6,657.1 954.6,657.4C959.3,657.7 961.3,657.9 966.1,658.5C966.2,658.5 971.2,659.2 977.2,660.6C981.9,661.7 983.8,662.4 987.8,663.7C991.5,664.9 994.2,666.2 997.8,667.9C999.7,668.8 1002.1,670.2 1003.9,671.2C1003.4,670.9 1002.9,670.7 1002.3,670.6C1000.1,670.1 997.1,670.8 993.7,672.6C969,657.8 928.2,657.3 902.5,671.7C876.8,686 876,709.7 900.6,724.5C925.3,739.3 966.1,739.8 991.8,725.4C1017.5,711.1 1018.3,687.4 993.7,672.6C997,670.7 1000.1,670.1 1002.3,670.6C1002.9,670.7 1003.4,670.9 1003.9,671.2C1005.7,672.3 1008.1,673.9 1009.8,675.2C1011.7,676.6 1014,678.4 1016.4,680.9C1022,686.6 1024,690.8 1025.2,693C1026.1,694.8 1028.2,699.5 1028.6,705.4C1028.8,708.3 1028.7,710.5 1028.6,711.3C1028.2,714.7 1027.6,716.9 1027.2,718.2C1026.2,721.1 1024.9,725 1020.6,730.7C1018,734.1 1013.8,738.3 1010.1,741C1006.9,743.3 1002.6,746.5 993.6,750.5C989.8,752.2 983.6,754.5 975.1,756.5C945.7,763 912.5,758.7 890.5,745.3Z" style="fill:rgb(255,166,0);fill-rule:nonzero;"/>
                        </g>
                        <g>
                            <path d="M890.4,723.3C882.6,718.6 878.6,714.4 876.9,712.7C874.6,710.3 872.8,707.7 872.8,707.7C870.8,704.7 870,703.4 868.8,700.8C867.9,698.8 867,696.3 866.5,693.9C865.8,691 865.8,689.1 865.7,687C865.7,686.1 865.8,683.2 866,681.8C866.6,678.4 866.9,677.4 867.7,674.9C868.2,673.5 869.1,671.3 871,668C871.7,666.8 872.9,664.9 875,662.4C879.3,657.1 884.4,653.5 886.6,652C890.3,649.4 896.1,646.2 900.7,644.3C907.2,641.6 912.5,639.8 919.2,638.3C926.6,636.6 934.6,635.6 942.8,635.3C945.4,635.2 949.5,635.1 954.5,635.4C959.2,635.7 961.2,635.9 966,636.5C966.1,636.5 971.1,637.2 977.1,638.6C981.8,639.7 983.7,640.4 987.7,641.7C991.4,642.9 994.1,644.2 997.7,645.9C999.6,646.8 1002,648.2 1003.8,649.2C1003.3,648.9 1002.8,648.7 1002.2,648.6C1000,648.1 997,648.8 993.6,650.6C968.9,635.8 928.1,635.3 902.4,649.7C876.7,664 875.9,687.7 900.5,702.5C925.2,717.3 966,717.8 991.7,703.4C1017.4,689.1 1018.2,665.4 993.6,650.6C996.9,648.7 1000,648.1 1002.2,648.6C1002.8,648.7 1003.3,648.9 1003.8,649.2C1003.8,649.2 1009.5,652.5 1014.2,656.8C1016.6,659 1019.3,661.7 1022.2,666C1025.3,670.6 1027.5,676.2 1028.2,681.2C1028.5,683.4 1029.4,690 1026.3,698.2C1023.5,705.6 1018.7,711 1016,713.6C1014.8,714.8 1013.2,716.3 1009.9,718.8C1008.1,720.2 1005.7,721.8 1003.8,722.9C1001.1,724.6 995.9,727.3 991,729.2C980.6,733.3 969.2,735.9 957.2,736.8C948.2,737.5 942,737.1 939.6,737C931.3,736.5 925.1,735.5 922.2,734.9C919.1,734.3 915,733.2 911.9,732.4C910.2,731.9 908,731.2 906.4,730.6C903.2,729.6 897,727.3 890.4,723.3Z" style="fill:rgb(255,166,0);fill-rule:nonzero;"/>
                        </g>
                        <path d="M1000.2,769.8C969.8,786.8 921.4,786.3 892.2,768.7C879.6,761.1 872.6,751.6 871.2,741.9C869.4,754.1 876.4,766.7 892.2,776.2C921.4,793.8 969.7,794.3 1000.2,777.3C1017.5,767.7 1025.3,754.4 1023.4,741.6C1021.9,751.9 1014.1,762 1000.2,769.8Z" style="fill:rgb(107,108,105);fill-rule:nonzero;"/>
                        <path d="M1000.2,747.3C969.8,764.3 921.4,763.8 892.2,746.2C879.6,738.6 872.6,729.1 871.2,719.4C869.4,731.6 876.4,744.2 892.2,753.7C921.4,771.3 969.7,771.8 1000.2,754.8C1017.5,745.2 1025.3,731.9 1023.4,719.1C1021.9,729.4 1014.1,739.5 1000.2,747.3Z" style="fill:rgb(242,142,0);fill-rule:nonzero;"/>
                        <path d="M1000.2,725.8C969.8,742.8 921.4,742.3 892.2,724.7C879.6,717.1 872.6,707.6 871.2,697.9C869.4,710.1 876.4,722.7 892.2,732.2C921.4,749.8 969.7,750.3 1000.2,733.3C1017.5,723.7 1025.3,710.4 1023.4,697.6C1021.9,707.9 1014.1,718 1000.2,725.8Z" style="fill:rgb(242,142,0);fill-rule:nonzero;"/>
                        <path d="M1000.2,704.4C985.3,712.7 966.1,715 947,715C927,715 907.2,712.2 892.3,703.3C879.7,695.7 872.7,686.2 871.3,676.5C869.5,688.7 876.5,701.3 892.3,710.8C921.5,728.4 969.8,728.9 1000.3,711.9C1017.6,702.3 1025.4,689 1023.5,676.2C1021.9,686.5 1014.1,696.6 1000.2,704.4Z" style="fill:rgb(242,142,0);fill-rule:nonzero;"/>
                    </g>
                </g>
                <g>
                    <g>
                        <path d="M866.3,750.7C852.4,742.1 845.8,735.5 843.7,733.3C833.4,722.9 829.7,716.8 825.1,709C823.1,705.7 820.9,701 819.5,697.3C817.8,693 816,687 814.8,682.5C814.2,680.4 812.4,672.6 812.3,660.5C812.4,679.9 824.8,699.3 849.9,714.4C901.5,745.5 986.9,746.3 1040.7,716.3C1068.4,700.9 1082.3,680.3 1082.2,659.7C1082,664.4 1081.7,670.7 1081,675.4C1080.4,679.5 1079.2,684.8 1078,688.7C1073.4,703.3 1067.4,712.8 1064.2,717.3C1060,723.1 1053.5,732 1040.4,742.2C1027.3,752.4 1014.4,757.8 1009.6,759.9C988.6,768.8 961.7,773.1 937.7,771.6C931,771.2 917.1,770.3 898.9,764.9C882.1,760.1 869.7,752.8 866.3,750.7Z" style="fill:rgb(107,108,105);fill-rule:nonzero;"/>
                    </g>
                    <g>
                        <path d="M986.7,486.4C1007.8,499.1 1007.1,519.3 985.1,531.6C963.1,543.9 928.1,543.5 907,530.8C885.9,518.1 886.6,497.9 908.6,485.6C930.6,473.4 965.6,473.7 986.7,486.4Z" style="fill:rgb(137,140,138);fill-rule:nonzero;"/>
                    </g>
                    <g>
                        <path d="M870,481C886.4,472.1 898.7,468.7 909.8,466C918.1,464 933.4,461.7 949,461.9C978.4,462.3 1005,469.4 1028,483.1C1017.5,476.8 1002.9,477.4 986.7,486.4C965.6,473.7 930.6,473.3 908.6,485.6C886.6,497.9 885.9,518.1 907,530.8C928.1,543.5 963.1,543.9 985.1,531.6C1007.1,519.3 1007.8,499.1 986.7,486.4C1002.9,477.4 1017.5,476.8 1028,483.1C1032.1,485.8 1037.5,489.5 1041.5,492.4C1043.9,494.2 1046.9,496.8 1049,498.9C1055.1,505 1060.9,510.7 1068.3,523C1074.9,533.9 1077.7,544.4 1079.1,549.4C1080.1,552.9 1080.9,557.7 1081.3,561.3C1081.7,564.8 1082,569.6 1082,573.2C1082.1,593.8 1068.2,614.4 1040.5,629.8C986.7,659.8 901.3,658.9 849.7,627.9C824.7,612.8 812.2,593.4 812.1,574C812.3,569.3 812.6,563 813.3,558.3C813.9,554.2 815.3,548.9 816.4,545C818.1,538.8 822.6,528.6 826,523.1C829.7,517.2 834.7,509.2 844.7,499.6C855.1,489.6 865.8,483.3 870,481Z" style="fill:rgb(230,230,230);fill-rule:nonzero;"/>
                    </g>
                    <g>
                        <path d="M812.3,660.6L812.1,574C812.2,593.4 824.6,612.8 849.7,627.9C901.3,659 986.7,659.8 1040.5,629.8C1068.2,614.4 1082.1,593.8 1082,573.2L1082.2,659.8C1082.3,680.4 1068.4,701 1040.7,716.4C986.9,746.4 901.5,745.5 849.9,714.5C824.9,699.5 812.4,680 812.3,660.6Z" style="fill:rgb(170,176,175);fill-rule:nonzero;"/>
                    </g>
                </g>
                <g>
                    <g>
                        <g>
                            <path d="M928.8,536.2L961.9,517L962.5,182.2L929.5,201.4L928.8,536.2Z" style="fill:rgb(255,166,0);fill-rule:nonzero;"/>
                        </g>
                        <g>
                            <g>
                                <path d="M929.5,201.4L962.6,182.2C962.6,170.5 966.8,162.2 973.5,158.3L940.4,177.5C933.6,181.4 929.5,189.7 929.5,201.4Z" style="fill:rgb(255,166,0);fill-rule:nonzero;"/>
                            </g>
                        </g>
                        <g>
                            <path d="M1038.1,599.3L1071.2,580.1L1071.9,245.3L1038.8,264.5L1038.1,599.3Z" style="fill:rgb(255,166,0);fill-rule:nonzero;"/>
                        </g>
                        <g>
                            <g>
                                <path d="M966.9,140L1000,120.8C980,109.2 961.8,108.2 948.7,115.8L915.6,135C928.7,127.4 946.9,128.4 966.9,140Z" style="fill:rgb(250,184,58);fill-rule:nonzero;"/>
                            </g>
                        </g>
                        <g>
                            <g>
                                <path d="M1038.8,264.5L1071.9,245.3C1072,199.6 1039.8,143.7 1000,120.8L966.9,140C1006.7,163 1038.9,218.8 1038.8,264.5Z" style="fill:rgb(250,184,58);fill-rule:nonzero;"/>
                            </g>
                        </g>
                        <g>
                            <path d="M966.9,140C927.1,117 894.7,135.5 894.5,181.2L893.9,516L928.8,536.2L929.5,201.4C929.6,177.8 946.3,168.3 966.8,180.1C987.3,191.9 1004,220.7 1003.9,244.3L1003.2,579.1L1038.1,599.3L1038.8,264.5C1038.9,218.8 1006.7,163 966.9,140Z" style="fill:rgb(242,142,0);fill-rule:nonzero;"/>
                        </g>
                    </g>
                </g>
                <g>
                    <g>
                        <g>
                            <path d="M859.4,579.6L892.4,560.4L893.1,225.6L860,244.8L859.4,579.6Z" style="fill:rgb(255,166,0);fill-rule:nonzero;"/>
                        </g>
                        <g>
                            <g>
                                <path d="M860,244.8L893.1,225.6C893.1,213.9 897.3,205.6 904,201.7L870.9,220.9C864.2,224.8 860.1,233.1 860,244.8Z" style="fill:rgb(255,166,0);fill-rule:nonzero;"/>
                            </g>
                        </g>
                        <g>
                            <path d="M968.7,642.7L1001.8,623.5L1002.5,288.7L969.4,307.9L968.7,642.7Z" style="fill:rgb(255,166,0);fill-rule:nonzero;"/>
                        </g>
                        <g>
                            <g>
                                <path d="M897.5,183.4L930.6,164.2C910.6,152.6 892.4,151.6 879.3,159.2L846.2,178.4C859.3,170.8 877.5,171.8 897.5,183.4Z" style="fill:rgb(250,184,58);fill-rule:nonzero;"/>
                            </g>
                        </g>
                        <g>
                            <g>
                                <path d="M969.4,307.9L1002.5,288.7C1002.6,243 970.4,187.1 930.6,164.2L897.5,183.4C937.3,206.4 969.5,262.2 969.4,307.9Z" style="fill:rgb(250,184,58);fill-rule:nonzero;"/>
                            </g>
                        </g>
                        <g>
                            <path d="M897.5,183.4C857.7,160.4 825.3,178.9 825.1,224.6L824.4,559.4L859.3,579.6L860,244.8C860.1,221.2 876.8,211.7 897.3,223.5C917.8,235.3 934.5,264.1 934.4,287.7L933.7,622.5L968.6,642.7L969.3,307.9C969.5,262.2 937.3,206.4 897.5,183.4Z" style="fill:rgb(242,142,0);fill-rule:nonzero;"/>
                        </g>
                    </g>
                </g>
            </g>
        </g>
    </g>
</svg>
