<?xml version="1.0" encoding="UTF-8" standalone="no"?>
<!DOCTYPE svg PUBLIC "-//W3C//DTD SVG 1.1//EN" "http://www.w3.org/Graphics/SVG/1.1/DTD/svg11.dtd">
<svg width="100%" height="100%" viewBox="0 0 1920 1080" version="1.1" xmlns="http://www.w3.org/2000/svg" xmlns:xlink="http://www.w3.org/1999/xlink" xml:space="preserve" xmlns:serif="http://www.serif.com/" style="fill-rule:evenodd;clip-rule:evenodd;stroke-linejoin:round;stroke-miterlimit:2;">
    <g>
        <g>
            <g>
                <g>
                    <path d="M996.6,870.3L923.4,870.3L923.7,824.4L996.9,824.4L996.6,870.3Z" style="fill:rgb(8,25,41);fill-rule:nonzero;"/>
                    <g>
                        <path d="M986.4,855.6C1000.4,864 999.9,877.4 985.3,885.6C970.7,893.7 947.6,893.5 933.6,885.1C919.6,876.7 920.1,863.3 934.7,855.1C949.2,846.9 972.4,847.1 986.4,855.6Z" style="fill:rgb(250,184,58);fill-rule:nonzero;"/>
                    </g>
                </g>
                <g>
                    <g>
                        <g>
                            <path d="M1032.3,777.6C1070.3,800.5 1069,837 1029.4,859.1C989.7,881.2 926.7,880.6 888.7,857.7C850.7,834.8 852,798.3 891.6,776.2C931.2,754.1 994.2,754.7 1032.3,777.6Z" style="fill:rgb(242,142,0);fill-rule:nonzero;"/>
                        </g>
                        <g>
                            <path d="M886.5,848C876.3,841.8 871.2,836.4 868.9,834.1C866,831 863.6,827.6 863.5,827.6C860.9,823.7 859.9,822.1 858.2,818.6C857,816 855.9,812.7 855.1,809.6C854.2,805.9 854.1,803.3 854,800.6C853.9,799.3 854.1,795.5 854.4,793.8C855.2,789.3 855.5,788.1 856.7,784.8C857.5,782.5 859.9,776.5 865.5,769.5C871,762.6 877.5,757.7 879.4,756.4C884.6,752.7 898.4,742.9 923.8,737.1C933.5,734.9 943.8,733.6 954.5,733.2C957.9,733.1 963.3,733 969.8,733.4C976,733.7 978.6,734.1 984.8,734.9C984.9,734.9 991.4,735.8 999.3,737.7C1005.4,739.2 1007.9,740 1013.1,741.8C1017.9,743.4 1021.5,745.1 1026.1,747.2C1028.6,748.4 1031.7,750.2 1034.1,751.5C1033.5,751.1 1032.8,750.9 1032,750.7C1029.1,750.1 1025.2,750.9 1020.8,753.4C988.7,734.1 935.5,733.5 902,752.2C868.5,770.9 867.4,801.7 899.5,821C931.6,840.3 984.8,840.9 1018.3,822.2C1051.8,803.5 1052.9,772.7 1020.8,753.4C1025.1,751 1029.1,750.1 1032,750.7C1032.8,750.9 1033.5,751.1 1034.1,751.5C1036.4,753 1039.6,755 1041.8,756.7C1044.1,758.5 1047.2,760.9 1050.3,764C1051.3,765 1054.1,767.9 1056.1,770.6C1058.1,773.3 1059.6,775.4 1061.8,779.8C1063,782.1 1065.7,788.3 1066.3,795.9C1066.6,799.7 1066.4,802.6 1066.3,803.6C1065.8,808.1 1065,810.9 1064.5,812.6C1063.4,815.7 1062.9,817.5 1060.7,821.6C1059,824.8 1056.7,827.9 1056,828.9C1052.6,833.4 1047.1,838.8 1042.3,842.3C1038.2,845.3 1032.5,849.5 1020.8,854.7C1015.9,856.9 1007.8,860 996.7,862.5C958.5,871.1 915.3,865.4 886.5,848Z" style="fill:rgb(255,166,0);fill-rule:nonzero;"/>
                        </g>
                        <g>
                            <path d="M886.5,819.3C876.4,813.1 871.2,807.7 869,805.4C866.1,802.3 863.7,798.9 863.6,798.9C861,795.1 860,793.3 858.3,789.9C857.1,787.3 856,784 855.2,780.9C854.3,777.2 854.2,774.6 854.1,771.9C854.1,770.8 854.2,767 854.5,765.1C855.3,760.6 855.6,759.4 856.8,756.1C857.4,754.3 858.6,751.3 861.1,747.1C862,745.6 863.6,743 866.4,739.7C872,732.9 878.7,728.1 881.6,726.1C886.3,722.8 893.9,718.6 899.9,716.1C902.6,715 906.2,713.5 909,712.6C916.1,710.3 917.8,709.8 924,708.4C933.7,706.2 944,704.9 954.7,704.5C955.9,704.5 962.5,704.2 970,704.7C976.2,705 978.8,705.4 985,706.2C985.1,706.2 991.6,707.1 999.5,709C1005.6,710.5 1008.1,711.4 1013.3,713.1C1018.1,714.7 1021.7,716.4 1026.3,718.5C1028.8,719.7 1031.9,721.5 1034.3,722.8C1033.7,722.4 1033,722.2 1032.2,722C1029.3,721.4 1025.4,722.2 1021,724.7C988.9,705.4 935.7,704.8 902.2,723.5C868.7,742.2 867.6,773 899.7,792.3C931.8,811.6 985,812.2 1018.5,793.5C1052,774.8 1053.1,744 1021,724.7C1025.3,722.3 1029.3,721.4 1032.2,722C1033,722.2 1033.7,722.4 1034.3,722.8C1036.6,724.3 1039.8,726.3 1042,728C1044.3,729.8 1047.4,732.2 1050.5,735.3C1057.8,742.8 1060.5,748.2 1061.9,751.1C1063,753.4 1065.8,759.6 1066.4,767.2C1066.7,771 1066.5,773.9 1066.4,774.9C1065.9,779.4 1065.1,782.3 1064.6,783.9C1063.5,787 1063,788.8 1060.8,792.9C1059.1,796.1 1056.8,799.2 1056.1,800.2C1052.7,804.7 1047.2,810.1 1042.4,813.6C1038.3,816.6 1032.6,820.8 1020.9,826C1016,828.2 1007.8,831.3 996.8,833.8C958.4,842.4 915.2,836.7 886.5,819.3Z" style="fill:rgb(255,166,0);fill-rule:nonzero;"/>
                        </g>
                        <g>
                            <path d="M886.4,790.7C876.3,784.5 871.1,779.1 868.9,776.8C866,773.7 863.6,770.3 863.5,770.3C860.9,766.4 859.9,764.8 858.2,761.3C857,758.7 855.9,755.4 855.1,752.3C854.2,748.6 854.1,746 854,743.3C854,742.2 854.1,738.4 854.4,736.5C855.2,732 855.5,730.8 856.6,727.5C857.2,725.7 858.4,722.7 860.9,718.5C861.8,717 863.4,714.5 866.2,711.2C871.9,704.4 878.5,699.6 881.4,697.6C886.2,694.2 893.7,690.1 899.8,687.5C908.3,683.9 915.2,681.7 923.9,679.7C933.6,677.5 943.9,676.2 954.6,675.8C958,675.7 963.4,675.6 969.9,676C976.1,676.3 978.7,676.7 984.9,677.5C985,677.5 991.5,678.4 999.4,680.3C1005.5,681.8 1008,682.6 1013.2,684.4C1018,686 1021.6,687.7 1026.2,689.8C1028.7,691 1031.8,692.8 1034.2,694.1C1033.6,693.7 1032.9,693.5 1032.1,693.3C1029.2,692.7 1025.3,693.5 1020.9,695.9C988.8,676.6 935.6,676 902.1,694.7C868.6,713.4 867.5,744.2 899.6,763.5C931.7,782.8 984.9,783.4 1018.4,764.7C1051.9,746 1053,715.2 1020.9,695.9C1025.2,693.5 1029.2,692.6 1032.1,693.3C1032.9,693.5 1033.6,693.7 1034.2,694.1C1036.5,695.6 1039.7,697.6 1041.9,699.3C1044.3,701.2 1047.4,703.5 1050.5,706.7C1057.8,714.1 1060.5,719.6 1061.9,722.5C1063,724.8 1065.8,731 1066.4,738.6C1066.7,742.4 1066.5,745.2 1066.4,746.3C1065.9,750.8 1065.1,753.7 1064.6,755.3C1063.3,759 1061.6,764.1 1056,771.5C1052.6,776 1047.1,781.4 1042.3,784.9C1038.2,787.9 1032.5,792.1 1020.8,797.3C1015.9,799.5 1007.7,802.6 996.7,805.1C958.4,813.8 915.1,808.1 886.4,790.7Z" style="fill:rgb(255,166,0);fill-rule:nonzero;"/>
                        </g>
                        <g>
                            <path d="M886.3,762C876.2,755.8 871,750.4 868.8,748.1C865.9,745 863.5,741.6 863.4,741.6C860.8,737.7 859.8,736.1 858.1,732.6C856.9,730 855.8,726.7 855,723.6C854.1,719.9 854,717.3 853.9,714.6C853.9,713.5 854,709.7 854.3,707.8C855.1,703.3 855.4,702.1 856.5,698.8C857.1,697 858.3,694 860.8,689.8C861.7,688.3 863.3,685.8 866.1,682.5C871.8,675.7 878.4,670.9 881.3,668.9C886.1,665.5 893.6,661.4 899.6,658.8C908.1,655.2 915,653 923.7,651C933.4,648.8 943.7,647.5 954.4,647.1C957.8,647 963.2,646.9 969.7,647.3C975.9,647.6 978.5,648 984.7,648.8C984.8,648.8 991.3,649.7 999.2,651.6C1005.3,653.1 1007.8,653.9 1013,655.7C1017.8,657.3 1021.4,659 1026,661.1C1028.5,662.3 1031.6,664.1 1034,665.4C1033.4,665 1032.7,664.8 1031.9,664.6C1029,664 1025.1,664.8 1020.7,667.2C988.6,647.9 935.4,647.3 901.9,666C868.4,684.7 867.3,715.5 899.4,734.8C931.5,754.1 984.7,754.7 1018.2,736C1051.7,717.3 1052.8,686.5 1020.7,667.2C1025,664.8 1029,663.9 1031.9,664.6C1032.7,664.8 1033.4,665 1034,665.4C1034,665.4 1041.4,669.7 1047.5,675.3C1050.7,678.2 1054.1,681.7 1058,687.3C1062.1,693.3 1065,700.5 1065.9,707.1C1066.3,709.9 1067.5,718.5 1063.4,729.2C1059.8,738.8 1053.5,745.9 1050,749.3C1048.4,750.9 1046.4,752.8 1042.1,756.1C1039.8,757.9 1036.6,760 1034.1,761.5C1030.6,763.7 1023.8,767.2 1017.5,769.7C1003.9,775.1 989.1,778.5 973.4,779.7C961.7,780.6 953.5,780.1 950.5,780C939.7,779.4 931.6,778 927.8,777.2C923.7,776.4 918.4,775 914.4,773.9C912.2,773.3 909.4,772.4 907.2,771.6C902.9,770.2 894.9,767.2 886.3,762Z" style="fill:rgb(255,166,0);fill-rule:nonzero;"/>
                        </g>
                        <path d="M1029.3,822.5C989.6,844.6 926.6,844 888.6,821.1C872.2,811.2 863.1,798.8 861.3,786.1C859,802 868.1,818.4 888.6,830.8C926.6,853.7 989.6,854.3 1029.3,832.2C1051.8,819.6 1062,802.4 1059.5,785.7C1057.6,799.2 1047.5,812.4 1029.3,822.5Z" style="fill:rgb(242,142,0);fill-rule:nonzero;"/>
                        <path d="M1029.3,793.3C989.6,815.4 926.6,814.8 888.6,791.9C872.2,782 863.1,769.6 861.3,756.9C859,772.8 868.1,789.2 888.6,801.6C926.6,824.5 989.6,825.1 1029.3,803C1051.8,790.4 1062,773.2 1059.5,756.5C1057.6,769.9 1047.5,783.1 1029.3,793.3Z" style="fill:rgb(242,142,0);fill-rule:nonzero;"/>
                        <path d="M1029.3,765.2C989.6,787.3 926.6,786.7 888.6,763.8C872.2,753.9 863.1,741.5 861.3,728.8C859,744.7 868.1,761.1 888.6,773.5C926.6,796.4 989.6,797 1029.3,774.9C1051.8,762.3 1062,745.1 1059.5,728.4C1057.6,741.8 1047.5,755 1029.3,765.2Z" style="fill:rgb(242,142,0);fill-rule:nonzero;"/>
                        <path d="M1029.3,737.3C1009.9,748.1 984.9,751.2 959.9,751.2C933.9,751.2 908,747.6 888.6,735.9C872.2,726 863.1,713.6 861.3,700.9C859,716.8 868.1,733.2 888.6,745.6C926.6,768.5 989.6,769.1 1029.3,747C1051.8,734.4 1062,717.2 1059.5,700.5C1057.6,714 1047.5,727.2 1029.3,737.3Z" style="fill:rgb(242,142,0);fill-rule:nonzero;"/>
                    </g>
                </g>
                <g>
                    <g>
                        <path d="M1034.8,650.6C1074.3,674.4 1072.9,712.4 1031.8,735.4C990.7,758.4 925.3,757.7 885.8,733.9C846.3,710.1 847.7,672.1 888.8,649.1C929.9,626.2 995.3,626.8 1034.8,650.6Z" style="fill:rgb(230,230,230);fill-rule:nonzero;"/>
                    </g>
                    <path d="M1182.7,393.2C1172.7,272.6 1082.1,188.1 960.7,188.1L959.1,188.1C837.7,188.1 747.1,272.6 737.1,393.2C732.2,452.3 731.5,504.8 828.7,618.9C849,642.7 855,667.5 857.3,695.6C858.5,710.9 868.7,748.2 958.5,754C1034.2,751.5 1061.9,711 1063.2,695.6C1065.5,667.5 1071.5,642.7 1091.8,618.9C1189,504.9 1187.6,452.4 1182.7,393.2Z" style="fill:rgb(245,245,247);fill-opacity:0.87;fill-rule:nonzero;"/>
                </g>
                <path d="M888,387.4C873.7,429.8 836.5,455.6 804.9,445C773.3,434.4 759.3,391.3 773.6,348.9C787.9,306.5 825.1,280.7 856.7,291.3C888.3,301.9 902.3,345 888,387.4Z" style="fill:white;fill-rule:nonzero;"/>
                <path d="M931.1,275.9C939.5,290.1 937.7,306.7 927.1,313C916.5,319.2 901.1,312.7 892.7,298.5C884.3,284.3 886.1,267.7 896.7,261.4C907.4,255.2 922.8,261.7 931.1,275.9Z" style="fill:white;fill-rule:nonzero;"/>
                <path d="M1069.9,417.2L1069.2,417.6L1069.2,416.6C1062.1,420.7 1058.4,426.8 1055.4,431.7C1052.6,436.2 1050.6,439.5 1046.2,442.1C1041.8,444.6 1039.8,443.7 1037,442.3C1034,440.9 1030.2,439.1 1023.1,443.3C1016,447.4 1012.3,453.5 1009.3,458.4C1006.6,462.9 1004.5,466.2 1000.1,468.8C995.7,471.3 993.7,470.4 990.9,469C987.9,467.6 984.1,465.8 977,469.9C969.9,474 966.2,480.1 963.2,485C960.5,489.5 958.4,492.8 954,495.4C949.6,497.9 947.6,497 944.8,495.6C941.8,494.2 938,492.4 930.9,496.5C923.8,500.6 920,506.7 917.1,511.6C914.3,516.1 912.3,519.4 907.9,522C903.4,524.6 901.5,523.6 898.7,522.2C895.7,520.8 891.9,519 884.8,523.2L884.8,524.1C883,525.8 882.5,529.7 883.7,533.1L950.8,715.9C950.9,716.1 950.9,716.2 951,716.3L951,754L958.5,754L958.5,713.3C958.4,712.2 958.2,711 957.8,709.9L891.7,529.9C892.5,530.1 893.2,530.4 894,530.8C897,532.2 900.8,534 907.9,529.8C915,525.7 918.7,519.6 921.7,514.7C924.4,510.2 926.4,506.9 930.9,504.3C935.3,501.8 937.3,502.8 940.1,504.1C943.1,505.5 946.9,507.3 954,503.2C961.1,499.1 964.8,493 967.8,488.1C970.5,483.6 972.6,480.3 977,477.7C981.4,475.2 983.4,476.1 986.2,477.5C989.2,478.9 993,480.7 1000.1,476.6C1007.2,472.5 1011,466.4 1013.9,461.5C1016.7,457 1018.7,453.7 1023.1,451.1C1027.6,448.5 1029.5,449.5 1032.4,450.8C1035.4,452.2 1039.2,454 1046.3,449.9C1053.4,445.8 1057.2,439.7 1060.2,434.8C1061.4,432.9 1062.4,431.3 1063.5,429.8L998.3,686.6C997.7,688.8 997.6,690.6 997.7,692L997.7,748.5L1005.2,746.6L1005.2,684.7C1005.2,684.6 1005.3,684.5 1005.3,684.4L1071.2,424.8C1072.4,420 1071.8,416.5 1069.9,417.2Z" style="fill:rgb(137,140,138);fill-rule:nonzero;"/>
            </g>
        </g>
    </g>
</svg>
