<?xml version="1.0" encoding="UTF-8" standalone="no"?>
<!DOCTYPE svg PUBLIC "-//W3C//DTD SVG 1.1//EN" "http://www.w3.org/Graphics/SVG/1.1/DTD/svg11.dtd">
<svg width="100%" height="100%" viewBox="0 0 1920 1080" version="1.1" xmlns="http://www.w3.org/2000/svg" xmlns:xlink="http://www.w3.org/1999/xlink" xml:space="preserve" xmlns:serif="http://www.serif.com/" style="fill-rule:evenodd;clip-rule:evenodd;stroke-linejoin:round;stroke-miterlimit:2;">
    <g>
        <g>
            <g>
                <g>
                    <g>
                        <g>
                            <g>
                                <path d="M899.5,551.9L881.4,541.4C888.3,537.4 893.9,527.7 893.8,519.8L911.9,530.3C912,538.2 906.4,547.9 899.5,551.9Z" style="fill:rgb(152,152,152);fill-rule:nonzero;"/>
                            </g>
                        </g>
                        <g>
                            <path d="M630.9,707L612.8,696.5L881.4,541.4L899.5,551.9L630.9,707Z" style="fill:rgb(142,142,142);fill-rule:nonzero;"/>
                        </g>
                        <g>
                            <path d="M911.9,530.3L893.9,519.8L893,211.1L911.1,221.6L911.9,530.3Z" style="fill:rgb(133,133,133);fill-rule:nonzero;"/>
                        </g>
                        <g>
                            <g>
                                <path d="M622,707.8L603.9,697.3C606.2,698.6 609.3,698.4 612.8,696.4L630.9,706.9C627.4,708.9 624.3,709.1 622,707.8Z" style="fill:rgb(152,152,152);fill-rule:nonzero;"/>
                            </g>
                        </g>
                        <g>
                            <path d="M630.4,692.8L612.4,682.3L881.4,527.5L899.5,537.9L630.4,692.8Z" style="fill:rgb(124,125,126);fill-rule:nonzero;"/>
                        </g>
                        <g>
                            <path d="M899.5,537.9L881.4,527.5L880.9,218.1L899,228.6L899.5,537.9Z" style="fill:rgb(117,117,118);fill-rule:nonzero;"/>
                        </g>
                        <g>
                            <g>
                                <path d="M911.1,221.6L893,211.1C893,207.2 891.6,204.4 889.3,203.1L907.4,213.6C909.7,214.9 911.1,217.7 911.1,221.6Z" style="fill:rgb(152,152,152);fill-rule:nonzero;"/>
                            </g>
                        </g>
                        <g>
                            <g>
                                <path d="M622,707.8L603.9,697.3C601.7,696 600.3,693.2 600.2,689.3L618.3,699.8C618.3,703.7 619.7,706.5 622,707.8Z" style="fill:rgb(133,134,135);fill-rule:nonzero;"/>
                            </g>
                        </g>
                        <g>
                            <g>
                                <path d="M898.5,214.5L880.5,204C884,202 887.1,201.8 889.4,203.1L907.5,213.6C905.1,212.3 902,212.5 898.5,214.5Z" style="fill:rgb(133,134,135);fill-rule:nonzero;"/>
                            </g>
                        </g>
                        <g>
                            <g>
                                <path d="M613.4,722.5L595.3,712C590.9,709.4 588.2,704 588.1,696.3L606.2,706.8C606.2,714.5 609,719.9 613.4,722.5Z" style="fill:rgb(28,28,28);fill-rule:nonzero;"/>
                            </g>
                        </g>
                        <g>
                            <g>
                                <path d="M898.5,200.6L880.4,190.1C887.2,186.2 893.4,185.8 897.8,188.4L915.9,198.9C911.5,196.4 905.3,196.7 898.5,200.6Z" style="fill:rgb(28,28,28);fill-rule:nonzero;"/>
                            </g>
                        </g>
                        <g>
                            <path d="M630.4,692.8L629.9,383.5L899,228.6L899.8,537.3L630.4,692.8Z" style="fill:rgb(245,245,247);fill-rule:nonzero;"/>
                        </g>
                        <g>
                            <path d="M630.4,692.8L612.4,682.3L611.9,373L629.9,383.5L630.4,692.8Z" style="fill:rgb(133,133,133);fill-rule:nonzero;"/>
                        </g>
                        <g>
                            <path d="M629.9,383.5L611.9,373L880.9,218.1L899,228.6L629.9,383.5Z" style="fill:rgb(142,142,142);fill-rule:nonzero;"/>
                        </g>
                        <g>
                            <path d="M618.3,699.8L600.3,689.3L599.4,380.6L617.5,391.1L618.3,699.8Z" style="fill:rgb(117,117,118);fill-rule:nonzero;"/>
                        </g>
                        <g>
                            <path d="M629.9,369.6L611.8,359.1L880.5,204L898.5,214.5L629.9,369.6Z" style="fill:rgb(124,125,126);fill-rule:nonzero;"/>
                        </g>
                        <g>
                            <g>
                                <path d="M617.5,391.1L599.4,380.6C599.4,372.7 605,363 611.8,359L629.9,369.5C623,373.5 617.4,383.2 617.5,391.1Z" style="fill:rgb(133,134,135);fill-rule:nonzero;"/>
                            </g>
                        </g>
                        <g>
                            <g>
                                <path d="M898.5,214.5C905.4,210.5 911,213.7 911,221.6L911.9,530.3C911.9,538.2 906.3,547.9 899.5,551.9L630.9,707C624,711 618.4,707.8 618.4,699.9L617.5,391.2C617.5,383.3 623.1,373.6 629.9,369.6L898.5,214.5ZM899.5,537.9L899,228.6L630,383.5L630.5,692.8L899.5,537.9Z" style="fill:rgb(213,214,216);fill-rule:nonzero;"/>
                            </g>
                        </g>
                        <g>
                            <path d="M606.2,706.8L588.2,696.3L587.3,387.6L605.4,398.1L606.2,706.8Z" style="fill:rgb(28,28,28);fill-rule:nonzero;"/>
                        </g>
                        <g>
                            <path d="M629.9,355.7L611.8,345.2L880.4,190.1L898.5,200.6L629.9,355.7Z" style="fill:rgb(28,28,28);fill-rule:nonzero;"/>
                        </g>
                        <g>
                            <path d="M898.5,200.6C912,192.8 923.1,199.1 923.1,214.6L924,523.3C924,538.8 913,557.9 899.5,565.7L630.9,720.8C617.4,728.6 606.3,722.3 606.2,706.8L605.3,398.1C605.3,382.6 616.3,363.5 629.8,355.7L898.5,200.6ZM911.9,530.3L911,221.6C911,213.7 905.3,210.5 898.5,214.5L629.9,369.6C623,373.6 617.4,383.3 617.5,391.2L618.4,699.9C618.4,707.8 624.1,711 630.9,707L899.5,551.9C906.4,547.9 912,538.2 911.9,530.3Z" style="fill:rgb(51,51,51);fill-rule:nonzero;"/>
                        </g>
                        <g>
                            <g>
                                <path d="M605.4,398.1L587.3,387.6C587.3,372.1 598.3,353 611.8,345.2L629.9,355.7C616.3,363.5 605.3,382.6 605.4,398.1Z" style="fill:rgb(28,28,28);fill-rule:nonzero;"/>
                            </g>
                        </g>
                    </g>
                </g>
                <g>
                    <g transform="matrix(0.6011,-0.7992,0.7992,0.6011,-56.0699,799.45)">
                        <ellipse cx="772.8" cy="455.9" rx="143.1" ry="81" style="fill:white;"/>
                    </g>
                    <g transform="matrix(0.6011,-0.7992,0.7992,0.6011,-56.7648,802.258)">
                        <ellipse cx="775.3" cy="458" rx="143.1" ry="81" style="fill:rgb(213,214,216);"/>
                    </g>
                    <path d="M848.7,337C862.5,347.1 870.8,364.9 870.8,389.4C870.8,448.9 822.6,524.9 763.2,559.2C734.8,575.6 709,579.4 689.7,572.5C709.4,586.9 740.3,585.8 775.3,565.6C834.8,531.3 882.9,455.3 882.9,395.8C882.9,364.8 869.7,344.6 848.7,337Z" style="fill:rgb(181,182,184);fill-rule:nonzero;"/>
                    <path d="M738.5,479.2C738.5,470.2 731.2,467.1 722.2,472.3C713.2,477.5 705.9,489 705.9,498C705.9,507 713.2,510.1 722.2,504.9C731.2,499.7 738.5,488.2 738.5,479.2Z" style="fill:rgb(51,51,51);fill-rule:nonzero;"/>
                    <path d="M844.6,418C844.6,409 837.3,405.9 828.3,411.1C819.3,416.3 812,427.8 812,436.8C812,445.8 819.3,448.9 828.3,443.7C837.3,438.5 844.6,427 844.6,418Z" style="fill:rgb(51,51,51);fill-rule:nonzero;"/>
                    <path d="M730.1,469.9C731.6,471.5 732.5,473.8 732.5,476.9C732.5,485.9 725.2,497.4 716.2,502.6C713.3,504.3 710.7,505 708.3,505C711.1,508.1 716.3,508.4 722.3,504.9C731.3,499.7 738.6,488.2 738.6,479.2C738.5,473 735.1,469.7 730.1,469.9Z" style="fill-rule:nonzero;"/>
                    <path d="M836.2,408.6C837.7,410.2 838.6,412.5 838.6,415.6C838.6,424.6 831.3,436.1 822.3,441.3C819.4,443 816.8,443.7 814.4,443.7C817.2,446.8 822.4,447.1 828.4,443.6C837.4,438.4 844.7,426.9 844.7,417.9C844.6,411.8 841.2,408.5 836.2,408.6Z" style="fill-rule:nonzero;"/>
                </g>
            </g>
            <g>
                <path d="M806.2,615C809.6,609.3 816.9,607.4 822.6,610.8L921,668.9C926.7,672.3 928.6,679.6 925.2,685.3C921.8,691 914.5,692.9 908.8,689.5L810.4,631.4C804.8,628.1 802.9,620.7 806.2,615Z" style="fill-rule:nonzero;"/>
                <path d="M925.7,543.8C929.1,538.1 936.4,536.2 942.1,539.6L1040.5,597.7C1046.2,601.1 1048.1,608.4 1044.7,614.1C1041.3,619.8 1034,621.7 1028.3,618.3L929.9,560.2C924.2,556.9 922.3,549.5 925.7,543.8Z" style="fill-rule:nonzero;"/>
                <g>
                    <g>
                        <path d="M800,676.4L800.2,727.1L865.9,765.3L865.8,714.6L800,676.4Z" style="fill:rgb(28,28,28);fill-rule:nonzero;"/>
                    </g>
                    <g>
                        <path d="M865.8,714.6L865.9,765.3L1091.1,635.3L1090.9,584.6L865.8,714.6Z" style="fill:rgb(104,105,106);fill-rule:nonzero;"/>
                    </g>
                    <g>
                        <path d="M800,676.4L865.8,714.6L1090.9,584.6L1025.2,546.4L800,676.4Z" style="fill:rgb(51,51,51);fill-rule:nonzero;"/>
                    </g>
                </g>
                <g>
                    <g>
                        <path d="M1084.8,618.3L1085,669L1091.1,635.3L1090.9,584.6L1084.8,618.3Z" style="fill-rule:nonzero;"/>
                    </g>
                    <g>
                        <path d="M1084.5,620L1084.7,670.7L1085,669L1084.8,618.3L1084.5,620Z" style="fill:rgb(62,63,63);fill-rule:nonzero;"/>
                    </g>
                    <g>
                        <path d="M1138.6,650.7L1138.8,701.4L1139.7,700.8L1139.6,650.1L1138.6,650.7Z" style="fill:rgb(104,105,106);fill-rule:nonzero;"/>
                    </g>
                    <g>
                        <path d="M1139.3,703.2L1139.4,753.9L1160.6,741.7L1160.4,691L1139.3,703.2Z" style="fill:rgb(28,28,28);fill-rule:nonzero;"/>
                    </g>
                    <g>
                        <path d="M926.9,711L927,761.7L1084.7,670.7L1084.5,620L926.9,711Z" style="fill:rgb(62,63,63);fill-rule:nonzero;"/>
                    </g>
                    <g>
                        <path d="M924,711.2L924.2,761.9L927,761.7L926.9,711L924,711.2Z" style="fill:rgb(64,65,65);fill-rule:nonzero;"/>
                    </g>
                    <g>
                        <path d="M865.8,714.6L865.9,765.3L924.2,761.9L924,711.2L865.8,714.6Z" style="fill-rule:nonzero;"/>
                    </g>
                    <g>
                        <path d="M865.8,714.6L924,711.2L926.9,711L1084.5,620L1084.8,618.3L1090.9,584.6L865.8,714.6Z" style="fill:rgb(28,28,28);fill-rule:nonzero;"/>
                    </g>
                    <g>
                        <path d="M979.6,742.5L979.8,793.2L1138.8,701.4L1138.6,650.7L979.6,742.5Z" style="fill:rgb(104,105,106);fill-rule:nonzero;"/>
                    </g>
                    <g>
                        <path d="M978.7,743L978.9,793.7L979.8,793.2L979.6,742.5L978.7,743Z" style="fill:rgb(104,105,106);fill-rule:nonzero;"/>
                    </g>
                    <g>
                        <path d="M924,711.2L924.2,761.9L978.9,793.7L978.7,743L924,711.2Z" style="fill:rgb(28,28,28);fill-rule:nonzero;"/>
                    </g>
                    <g>
                        <path d="M1084.8,618.3L1084.5,620L926.9,711L924,711.2L978.7,743L979.6,742.5L1138.6,650.7L1139.6,650.1L1084.8,618.3Z" style="fill:rgb(51,51,51);fill-rule:nonzero;"/>
                    </g>
                    <g>
                        <path d="M1070.3,743L1070.5,793.7L1139.4,753.9L1139.3,703.2L1070.3,743Z" style="fill:rgb(62,63,63);fill-rule:nonzero;"/>
                    </g>
                    <g>
                        <path d="M1049.1,755.2L1049.3,805.9L1070.5,793.7L1070.3,743L1049.1,755.2Z" style="fill:rgb(28,28,28);fill-rule:nonzero;"/>
                    </g>
                    <g>
                        <path d="M978.7,742.7L978.8,793.4L1049.3,805.9L1049.1,755.2L978.7,742.7Z" style="fill-rule:nonzero;"/>
                    </g>
                    <g>
                        <path d="M978.7,743L1049.1,755.2L1070.3,743L1139.3,703.2L1160.4,691L1138.6,650.7L978.7,743Z" style="fill:rgb(28,28,28);fill-rule:nonzero;"/>
                    </g>
                </g>
                <g>
                    <g>
                        <path d="M1070.3,743L1070.5,793.7L1088.3,804L1088.2,753.4L1070.3,743Z" style="fill:rgb(242,142,0);fill-rule:nonzero;"/>
                    </g>
                    <g>
                        <path d="M1088.2,753.4L1088.3,804L1157.2,764.3L1157.1,713.6L1088.2,753.4Z" style="fill:rgb(255,166,0);fill-rule:nonzero;"/>
                    </g>
                    <g>
                        <path d="M1070.3,743L1088.2,753.4L1157.1,713.6L1139.3,703.2L1070.3,743Z" style="fill:rgb(250,184,58);fill-rule:nonzero;"/>
                    </g>
                </g>
                <path d="M1719.1,1083.2L1143,748.4L1104.9,771.5L1690.4,1111.8L1719.1,1083.2Z" style="fill:rgb(28,28,28);fill-rule:nonzero;"/>
            </g>
        </g>
    </g>
</svg>
