<?xml version="1.0" encoding="UTF-8" standalone="no"?>
<!DOCTYPE svg PUBLIC "-//W3C//DTD SVG 1.1//EN" "http://www.w3.org/Graphics/SVG/1.1/DTD/svg11.dtd">
<svg width="100%" height="100%" viewBox="0 0 1920 1080" version="1.1" xmlns="http://www.w3.org/2000/svg" xmlns:xlink="http://www.w3.org/1999/xlink" xml:space="preserve" xmlns:serif="http://www.serif.com/" style="fill-rule:evenodd;clip-rule:evenodd;stroke-linejoin:round;stroke-miterlimit:2;">
    <g>
        <g>
            <g>
                <g>
                    <g>
                        <path d="M1167,117.8L1167,120.9L1153.3,172.2L1153.3,169.2L1167,117.8Z" style="fill:rgb(242,142,0);fill-rule:nonzero;"/>
                    </g>
                    <g>
                        <path d="M865.5,119.8L865.5,122.9L851.8,174.2L851.8,171.2L865.5,119.8Z" style="fill:rgb(242,142,0);fill-rule:nonzero;"/>
                    </g>
                    <g>
                        <path d="M1064.7,177.3L1064.7,180.3L1023.7,134L1023.7,131L1064.7,177.3Z" style="fill:rgb(242,142,0);fill-rule:nonzero;"/>
                    </g>
                    <g>
                        <path d="M763.2,179.3L763.2,182.3L722.2,136L722.2,133L763.2,179.3Z" style="fill:rgb(242,142,0);fill-rule:nonzero;"/>
                    </g>
                    <g>
                        <path d="M1233.4,192.8L1233.4,195.8L1144.8,203.9L1144.8,200.9L1233.4,192.8Z" style="fill:rgb(242,142,0);fill-rule:nonzero;"/>
                    </g>
                    <g>
                        <path d="M931.9,194.8L931.9,197.8L843.3,205.9L843.3,202.9L931.9,194.8Z" style="fill:rgb(242,142,0);fill-rule:nonzero;"/>
                    </g>
                    <g>
                        <path d="M1090.1,205.9L1090.1,209L1001.5,217.1L1001.5,214.1L1090.1,205.9Z" style="fill:rgb(242,142,0);fill-rule:nonzero;"/>
                    </g>
                    <g>
                        <path d="M788.5,207.9L788.5,210.9L700,219.1L700,216L788.5,207.9Z" style="fill:rgb(242,142,0);fill-rule:nonzero;"/>
                    </g>
                    <g>
                        <path d="M1167,117.8L1153.3,169.2L1233.4,192.8L1144.8,200.9L1131.1,252.2L1090.1,205.9L1001.5,214.1L1064.7,177.3L1023.7,131L1103.8,154.6L1167,117.8Z" style="fill:rgb(242,142,0);fill-rule:nonzero;"/>
                    </g>
                    <g>
                        <path d="M1144.8,200.9L1144.8,203.9L1131.1,255.3L1131.1,252.2L1144.8,200.9Z" style="fill:rgb(242,142,0);fill-rule:nonzero;"/>
                    </g>
                    <g>
                        <path d="M1131.1,252.2L1131.1,255.3L1090.1,209L1090.1,205.9L1131.1,252.2Z" style="fill:rgb(242,142,0);fill-rule:nonzero;"/>
                    </g>
                    <g>
                        <path d="M843.3,202.9L843.3,205.9L829.5,257.2L829.5,254.2L843.3,202.9Z" style="fill:rgb(242,142,0);fill-rule:nonzero;"/>
                    </g>
                    <g>
                        <path d="M865.5,119.8L851.8,171.2L931.9,194.8L843.3,202.9L829.5,254.2L788.5,207.9L700,216L763.2,179.3L722.2,133L802.3,156.6L865.5,119.8Z" style="fill:rgb(242,142,0);fill-rule:nonzero;"/>
                    </g>
                    <g>
                        <path d="M829.5,254.2L829.5,257.2L788.5,210.9L788.5,207.9L829.5,254.2Z" style="fill:rgb(242,142,0);fill-rule:nonzero;"/>
                    </g>
                </g>
                <g>
                    <g>
                        <path d="M1369.7,274.9L1369.7,277.9L1355.3,226.6L1355.3,223.5L1369.7,274.9Z" style="fill:rgb(242,142,0);fill-rule:nonzero;"/>
                    </g>
                    <g>
                        <path d="M1498.8,236.7L1498.8,239.7L1458.3,286L1458.3,283L1498.8,236.7Z" style="fill:rgb(242,142,0);fill-rule:nonzero;"/>
                    </g>
                    <g>
                        <path d="M1378.5,306.6L1378.5,309.6L1289.9,301.5L1289.9,298.5L1378.5,306.6Z" style="fill:rgb(242,142,0);fill-rule:nonzero;"/>
                    </g>
                    <g>
                        <path d="M1522,319.8L1522,322.8L1433.3,314.7L1433.3,311.6L1522,319.8Z" style="fill:rgb(242,142,0);fill-rule:nonzero;"/>
                    </g>
                    <g>
                        <path d="M1498.8,236.7L1458.3,283L1522,319.8L1433.3,311.6L1392.9,358L1378.5,306.6L1289.9,298.5L1369.7,274.9L1355.3,223.5L1419,260.3L1498.8,236.7Z" style="fill:rgb(242,142,0);fill-rule:nonzero;"/>
                    </g>
                    <g>
                        <path d="M1433.3,311.6L1433.3,314.7L1392.8,361L1392.9,358L1433.3,311.6Z" style="fill:rgb(242,142,0);fill-rule:nonzero;"/>
                    </g>
                    <g>
                        <path d="M1392.9,358L1392.8,361L1378.5,309.6L1378.5,306.6L1392.9,358Z" style="fill:rgb(242,142,0);fill-rule:nonzero;"/>
                    </g>
                </g>
                <g>
                    <g>
                        <path d="M1546.8,450.6L1546.8,453.6L1532.5,402.2L1532.5,399.2L1546.8,450.6Z" style="fill:rgb(242,142,0);fill-rule:nonzero;"/>
                    </g>
                    <g>
                        <path d="M1676,412.4L1676,415.4L1635.5,461.7L1635.5,458.7L1676,412.4Z" style="fill:rgb(242,142,0);fill-rule:nonzero;"/>
                    </g>
                    <g>
                        <path d="M1555.7,482.3L1555.7,485.3L1467,477.2L1467,474.2L1555.7,482.3Z" style="fill:rgb(242,142,0);fill-rule:nonzero;"/>
                    </g>
                    <g>
                        <path d="M1699.1,495.4L1699.1,498.4L1610.5,490.3L1610.5,487.3L1699.1,495.4Z" style="fill:rgb(242,142,0);fill-rule:nonzero;"/>
                    </g>
                    <g>
                        <path d="M1676,412.4L1635.5,458.7L1699.1,495.4L1610.5,487.3L1570,533.6L1555.7,482.3L1467,474.2L1546.8,450.6L1532.5,399.2L1596.2,436L1676,412.4Z" style="fill:rgb(242,142,0);fill-rule:nonzero;"/>
                    </g>
                    <g>
                        <path d="M1610.5,487.3L1610.5,490.3L1570,536.6L1570,533.6L1610.5,487.3Z" style="fill:rgb(242,142,0);fill-rule:nonzero;"/>
                    </g>
                    <g>
                        <path d="M1570,533.6L1570,536.6L1555.7,485.3L1555.7,482.3L1570,533.6Z" style="fill:rgb(242,142,0);fill-rule:nonzero;"/>
                    </g>
                    <g>
                        <path d="M1551.2,625.2L1551.2,628.2L1536.9,576.9L1536.9,573.9L1551.2,625.2Z" style="fill:rgb(242,142,0);fill-rule:nonzero;"/>
                    </g>
                    <g>
                        <path d="M1680.3,587L1680.3,590.1L1639.9,636.4L1639.9,633.3L1680.3,587Z" style="fill:rgb(242,142,0);fill-rule:nonzero;"/>
                    </g>
                    <g>
                        <path d="M1560.1,656.9L1560.1,660L1471.4,651.8L1471.4,648.8L1560.1,656.9Z" style="fill:rgb(242,142,0);fill-rule:nonzero;"/>
                    </g>
                    <g>
                        <path d="M1703.5,670.1L1703.5,673.1L1614.9,665L1614.9,662L1703.5,670.1Z" style="fill:rgb(242,142,0);fill-rule:nonzero;"/>
                    </g>
                    <g>
                        <path d="M1614.9,662L1614.9,665L1574.4,711.3L1574.4,708.3L1614.9,662Z" style="fill:rgb(242,142,0);fill-rule:nonzero;"/>
                    </g>
                    <g>
                        <path d="M1574.4,708.3L1574.4,711.3L1560.1,660L1560.1,656.9L1574.4,708.3Z" style="fill:rgb(242,142,0);fill-rule:nonzero;"/>
                    </g>
                    <g>
                        <path d="M1680.3,587L1639.9,633.3L1703.5,670.1L1614.9,662L1574.4,708.3L1560.1,656.9L1471.4,648.8L1551.2,625.2L1536.9,573.9L1600.6,610.6L1680.3,587Z" style="fill:rgb(242,142,0);fill-rule:nonzero;"/>
                    </g>
                </g>
                <g>
                    <g>
                        <path d="M1394.8,796.5L1394.8,799.6L1380.5,748.2L1380.5,745.2L1394.8,796.5Z" style="fill:rgb(242,142,0);fill-rule:nonzero;"/>
                    </g>
                    <g>
                        <path d="M1524,758.3L1524,761.4L1483.5,807.7L1483.5,804.7L1524,758.3Z" style="fill:rgb(242,142,0);fill-rule:nonzero;"/>
                    </g>
                    <g>
                        <path d="M1403.7,828.3L1403.7,831.3L1315,823.2L1315,820.2L1403.7,828.3Z" style="fill:rgb(242,142,0);fill-rule:nonzero;"/>
                    </g>
                    <g>
                        <path d="M1547.1,841.4L1547.1,844.4L1458.5,836.3L1458.5,833.3L1547.1,841.4Z" style="fill:rgb(242,142,0);fill-rule:nonzero;"/>
                    </g>
                    <g>
                        <path d="M1524,758.3L1483.5,804.7L1547.1,841.4L1458.5,833.3L1418,879.6L1403.7,828.3L1315,820.2L1394.8,796.5L1380.5,745.2L1444.2,782L1524,758.3Z" style="fill:rgb(242,142,0);fill-rule:nonzero;"/>
                    </g>
                    <g>
                        <path d="M1458.5,833.3L1458.5,836.3L1418,882.6L1418,879.6L1458.5,833.3Z" style="fill:rgb(242,142,0);fill-rule:nonzero;"/>
                    </g>
                    <g>
                        <path d="M1418,879.6L1418,882.6L1403.7,831.3L1403.7,828.3L1418,879.6Z" style="fill:rgb(242,142,0);fill-rule:nonzero;"/>
                    </g>
                </g>
                <g>
                    <g>
                        <path d="M469,262L469,265L454.7,213.7L454.8,210.7L469,262Z" style="fill:rgb(242,142,0);fill-rule:nonzero;"/>
                    </g>
                    <g>
                        <path d="M598.2,223.8L598.2,226.8L557.7,273.2L557.7,270.1L598.2,223.8Z" style="fill:rgb(242,142,0);fill-rule:nonzero;"/>
                    </g>
                    <g>
                        <path d="M477.9,293.7L477.9,296.8L389.2,288.6L389.2,285.6L477.9,293.7Z" style="fill:rgb(242,142,0);fill-rule:nonzero;"/>
                    </g>
                    <g>
                        <path d="M621.4,306.9L621.4,309.9L532.7,301.8L532.7,298.8L621.4,306.9Z" style="fill:rgb(242,142,0);fill-rule:nonzero;"/>
                    </g>
                    <g>
                        <path d="M598.2,223.8L557.7,270.1L621.4,306.9L532.7,298.8L492.2,345.1L477.9,293.7L389.2,285.6L469,262L454.8,210.7L518.4,247.4L598.2,223.8Z" style="fill:rgb(242,142,0);fill-rule:nonzero;"/>
                    </g>
                    <g>
                        <path d="M532.7,298.8L532.7,301.8L492.2,348.1L492.2,345.1L532.7,298.8Z" style="fill:rgb(242,142,0);fill-rule:nonzero;"/>
                    </g>
                    <g>
                        <path d="M492.2,345.1L492.2,348.1L477.9,296.8L477.9,293.7L492.2,345.1Z" style="fill:rgb(242,142,0);fill-rule:nonzero;"/>
                    </g>
                </g>
                <g>
                    <g>
                        <path d="M280.1,463.6L280.1,466.7L216.5,429.9L216.5,426.9L280.1,463.6Z" style="fill:rgb(242,142,0);fill-rule:nonzero;"/>
                    </g>
                    <g>
                        <path d="M448.6,448.2L448.6,451.2L368.8,474.8L368.8,471.8L448.6,448.2Z" style="fill:rgb(242,142,0);fill-rule:nonzero;"/>
                    </g>
                    <g>
                        <path d="M319.5,486.4L319.5,489.4L239.7,513L239.7,509.9L319.5,486.4Z" style="fill:rgb(242,142,0);fill-rule:nonzero;"/>
                    </g>
                    <g>
                        <path d="M345.6,388.7L359.9,440L448.6,448.2L368.8,471.8L383.1,523.1L319.5,486.4L239.7,509.9L280.1,463.6L216.5,426.9L305.1,435L345.6,388.7Z" style="fill:rgb(242,142,0);fill-rule:nonzero;"/>
                    </g>
                    <g>
                        <path d="M383.1,523.1L383.1,526.1L319.5,489.4L319.5,486.4L383.1,523.1Z" style="fill:rgb(242,142,0);fill-rule:nonzero;"/>
                    </g>
                    <g>
                        <path d="M284.5,638.3L284.5,641.3L220.9,604.6L220.9,601.6L284.5,638.3Z" style="fill:rgb(242,142,0);fill-rule:nonzero;"/>
                    </g>
                    <g>
                        <path d="M453,622.8L453,625.9L373.2,649.5L373.2,646.4L453,622.8Z" style="fill:rgb(242,142,0);fill-rule:nonzero;"/>
                    </g>
                    <g>
                        <path d="M323.9,661L323.9,664L244.1,687.6L244.1,684.6L323.9,661Z" style="fill:rgb(242,142,0);fill-rule:nonzero;"/>
                    </g>
                    <g>
                        <path d="M453,622.8L373.2,646.4L387.5,697.8L323.9,661L244.1,684.6L284.5,638.3L220.9,601.6L309.6,609.7L350,563.4L364.3,614.7L453,622.8Z" style="fill:rgb(242,142,0);fill-rule:nonzero;"/>
                    </g>
                    <g>
                        <path d="M387.5,697.8L387.5,700.8L323.9,664L323.9,661L387.5,697.8Z" style="fill:rgb(242,142,0);fill-rule:nonzero;"/>
                    </g>
                </g>
                <g>
                    <g>
                        <path d="M452.8,807.7L452.8,810.8L438.4,759.4L438.4,756.4L452.8,807.7Z" style="fill:rgb(242,142,0);fill-rule:nonzero;"/>
                    </g>
                    <g>
                        <path d="M581.9,769.6L581.9,772.6L541.4,818.9L541.4,815.9L581.9,769.6Z" style="fill:rgb(242,142,0);fill-rule:nonzero;"/>
                    </g>
                    <g>
                        <path d="M461.7,839.5L461.6,842.5L373,834.4L373,831.3L461.7,839.5Z" style="fill:rgb(242,142,0);fill-rule:nonzero;"/>
                    </g>
                    <g>
                        <path d="M605.1,852.6L605.1,855.7L516.4,847.5L516.4,844.5L605.1,852.6Z" style="fill:rgb(242,142,0);fill-rule:nonzero;"/>
                    </g>
                    <g>
                        <path d="M581.9,769.6L541.4,815.9L605.1,852.6L516.4,844.5L476,890.8L461.7,839.5L373,831.3L452.8,807.7L438.4,756.4L502.1,793.2L581.9,769.6Z" style="fill:rgb(242,142,0);fill-rule:nonzero;"/>
                    </g>
                    <g>
                        <path d="M516.4,844.5L516.4,847.5L476,893.8L476,890.8L516.4,844.5Z" style="fill:rgb(242,142,0);fill-rule:nonzero;"/>
                    </g>
                    <g>
                        <path d="M476,890.8L476,893.8L461.6,842.5L461.7,839.5L476,890.8Z" style="fill:rgb(242,142,0);fill-rule:nonzero;"/>
                    </g>
                </g>
                <g>
                    <g>
                        <path d="M1220,880.9L1220,884L1156.8,920.7L1156.8,917.7L1220,880.9Z" style="fill:rgb(242,142,0);fill-rule:nonzero;"/>
                    </g>
                    <g>
                        <path d="M918.5,882.9L918.5,885.9L855.3,922.7L855.3,919.7L918.5,882.9Z" style="fill:rgb(242,142,0);fill-rule:nonzero;"/>
                    </g>
                    <g>
                        <path d="M1068.2,925.8L1068.2,928.8L988.2,905.2L988.2,902.2L1068.2,925.8Z" style="fill:rgb(242,142,0);fill-rule:nonzero;"/>
                    </g>
                    <g>
                        <path d="M766.7,927.8L766.7,930.8L686.7,907.2L686.7,904.2L766.7,927.8Z" style="fill:rgb(242,142,0);fill-rule:nonzero;"/>
                    </g>
                    <g>
                        <path d="M1197.8,964L1197.8,967L1117.7,943.4L1117.7,940.4L1197.8,964Z" style="fill:rgb(242,142,0);fill-rule:nonzero;"/>
                    </g>
                    <g>
                        <path d="M896.3,966L896.3,969L816.2,945.4L816.2,942.4L896.3,966Z" style="fill:rgb(242,142,0);fill-rule:nonzero;"/>
                    </g>
                    <g>
                        <path d="M1220,880.9L1156.8,917.7L1197.8,964L1117.7,940.4L1054.5,977.1L1068.2,925.8L988.2,902.2L1076.7,894.1L1090.5,842.8L1131.5,889.1L1220,880.9Z" style="fill:rgb(242,142,0);fill-rule:nonzero;"/>
                    </g>
                    <g>
                        <path d="M1117.7,940.4L1117.7,943.4L1054.5,980.2L1054.5,977.1L1117.7,940.4Z" style="fill:rgb(242,142,0);fill-rule:nonzero;"/>
                    </g>
                    <g>
                        <path d="M816.2,942.4L816.2,945.4L753,982.2L753,979.1L816.2,942.4Z" style="fill:rgb(242,142,0);fill-rule:nonzero;"/>
                    </g>
                    <g>
                        <path d="M918.5,882.9L855.3,919.7L896.3,966L816.2,942.4L753,979.1L766.7,927.8L686.7,904.2L775.2,896.1L789,844.7L830,891.1L918.5,882.9Z" style="fill:rgb(242,142,0);fill-rule:nonzero;"/>
                    </g>
                </g>
            </g>
            <g>
                <g>
                    <g>
                        <path d="M1343.7,495.5L933.6,720.9L628.2,568.2L628.2,532.1L1391.7,455.8L1343.7,495.5Z" style="fill:rgb(230,230,230);fill-rule:nonzero;"/>
                        <path d="M1391.7,491.8L933.6,720.9L933.6,669.5L979.4,532.1L1391.7,455.8L1391.7,491.8Z" style="fill:rgb(245,245,247);fill-rule:nonzero;"/>
                        <path d="M1391.7,455.8L933.6,682.3L628.2,532.1C628.2,532.1 658.8,516.9 689.3,501.6L1086.3,303L1391.7,455.8Z" style="fill:rgb(170,176,175);fill-rule:nonzero;"/>
                        <g>
                            <path d="M1374.8,448.2C1374.8,448.2 1039.1,637.8 1008.5,653.1C978,668.3 946.3,682.4 946.3,682.4L634.2,506.5C634.2,506.5 658.7,516.9 689.3,501.6C706,493.3 815.9,436.6 912.4,386.8C919.5,383.1 934.9,366.5 934.9,366.5C934.9,366.5 955.5,364.6 965.9,359.3L1063.9,308.7L1374.8,448.2Z" style="fill:white;fill-rule:nonzero;"/>
                        </g>
                    </g>
                    <g>
                        <path d="M978.4,559.5C979.5,559.5 980.7,559.6 981.9,559.9C982.3,560 982.7,560.1 983,560.3C983.8,560.9 984.3,562 983.3,563.1C981.2,565.7 976,567 966.9,567.3C958.9,567.6 950.9,567.6 942.9,567.3C933.8,568.6 924.6,569.8 915.3,570.8C915.3,572.3 914.3,573.7 913.5,574.8L913.3,575.2C910.3,579.6 910,583.4 912.5,586.5C915.1,589.7 920.9,592.3 927.7,593.4C930.9,593.9 934.3,594.1 937.6,593.9C936.6,593.4 936,592.9 935.6,592.3C935.1,591.5 935.1,590.7 935.6,589.9C936.9,587.9 941.3,587.4 942.2,587.3C945.6,587 948.8,587.5 950.8,588.5C952.3,589.3 953,590.4 952.8,591.6C952.6,593 951.2,594.2 949,594.8C948,595.1 947.1,595.3 946,595.5C945.9,596 945.5,596.4 945,596.8C944.7,597 944.6,597.2 944.6,597.3C944.6,597.4 944.8,597.5 945.2,597.7L946,598C948.2,598.7 950.7,599.5 951.8,600.9C952.3,601.4 952.5,601.9 952.6,602.3C952.8,602.8 952.9,602.9 954.2,603.3C955.2,603.6 956.5,603.7 957.8,603.8C963.1,604 968.1,603 973,602L976.1,601.4C984.3,599.9 993,599 1001.8,598.7C1005.4,598.6 1008,598.7 1009.1,600C1009.6,600.6 1009.7,601.3 1009.4,602.1C1008.8,603.5 1006.2,604.2 1001.5,605.1L1001,605.2C995.9,606.2 990.5,606.5 985.3,606.9L981.4,607.2C972.5,607.9 964.9,609 958,610.5C955,611.2 952,612 949.1,612.8C954.8,613.2 960.5,613.3 966.2,613.2L966.3,616C960.4,616.1 954.5,615.9 948.7,615.5C946.5,615.4 944.4,615.1 942.6,614.5C939.1,615.5 935.5,616.4 931.7,617.2C925.7,618.4 921,618.7 916.9,618C915,617.7 913.6,617.2 912.7,616.5C911.8,615.8 911.3,614.9 911.5,613.9C911.8,611.9 914.5,610.5 915.6,609.9C920.8,607.5 928.2,606.3 935.3,606.7C936.8,606.8 938.5,607 939.8,607.6C941.4,608.3 941.8,609.4 942.2,610.2C942.4,610.7 942.6,611 942.8,611.2C942.8,611.2 942.9,611.2 942.9,611.3C943.6,611.1 944.3,610.9 944.9,610.7C948.8,609.6 952.9,608.4 957.2,607.5C964.2,605.9 972,604.8 981.1,604.1L985,603.8C990.1,603.4 995.4,603.1 1000.3,602.1L1000.8,602C1002.6,601.7 1003.9,601.4 1004.9,601.1C1004.2,601.1 1003.3,601 1001.9,601.1C993.3,601.4 984.9,602.3 976.8,603.7L973.8,604.3C968.7,605.3 963.4,606.3 957.7,606.1C956,606.1 954.5,605.9 953.2,605.5C950.5,604.8 949.8,603.8 949.4,602.7C949.3,602.4 949.2,602.3 949.1,602.1C948.5,601.4 946.2,600.7 944.7,600.2L943.8,599.9C942.3,599.4 941.3,598.5 941.1,597.3C941,596.8 941.1,596.3 941.3,595.8C936.5,596.3 931.4,596.3 926.8,595.5C919,594.3 912.6,591.3 909.5,587.5C906.3,583.5 906.5,578.6 910.2,573.2L910.5,572.8C911.1,571.9 911.6,571.2 911.8,570.5C904,571.2 896.2,571.8 888.2,572C880.2,572.2 870,572.1 861.9,569.4C860.3,568.9 859.3,567.9 859,566.8C858.8,565.8 859.2,564.9 860.1,564.2C861.6,563 864,562.5 866.4,562.1C879.4,560 894.4,560.6 906.5,563.9C910.4,564.9 912.7,566 914,567.4C918.5,566.9 923,566.4 927.4,565.9C925.2,565.7 923,565.6 920.7,565.4L921,562.6C928.1,563.2 935.2,563.6 942.3,563.9C946.1,563.3 949.9,562.8 953.7,562.2C960.8,561.1 967.9,560.1 974.9,559.1C976.2,559.6 977.2,559.5 978.4,559.5ZM979.4,562.3C978.3,562.2 977.1,562.3 975.8,562.5C970.9,563.2 966,563.9 961.1,564.6C963,564.6 964.8,564.5 966.7,564.5C974.1,564.2 977.7,563.2 979.4,562.3ZM909.5,568.5C908.6,568.1 907.4,567.7 905.7,567.2C894.1,564.1 879.8,563.4 867.3,565.5C865.6,565.8 863.5,566.2 862.6,566.9C862.5,566.9 862.7,567.2 863.3,567.4C870.9,569.9 881.2,570 888.3,569.8C895.4,569.6 902.4,569.1 909.5,568.5ZM944.4,593.1C945.6,592.9 946.7,592.6 947.9,592.3C949,592 949.4,591.6 949.4,591.4C949.4,591.4 949.3,591.2 948.9,591C947.6,590.3 945,590 942.5,590.2C940.6,590.4 939.2,590.9 938.7,591.2C939.1,591.5 940.2,592.1 943.6,592.9C943.8,592.8 944.1,592.9 944.4,593.1ZM939.7,612.6C939.5,612.2 939.3,611.9 939.2,611.6C938.9,611 938.8,610.7 938.3,610.5C937.5,610.1 936.2,610 935.2,610C928.7,609.6 922,610.7 917.3,612.8C915.5,613.6 914.9,614.4 914.9,614.6C915.2,614.9 915.9,615.2 917.6,615.5C921.2,616.1 925.4,615.8 931,614.7C934,614 936.9,613.3 939.7,612.6Z" style="fill:rgb(28,28,28);fill-rule:nonzero;"/>
                    </g>
                    <g>
                        <path d="M1248.4,430.1L1062.6,342.6C1061.4,342.1 1061.6,341.1 1062.9,340.4C1064.2,339.7 1066.2,339.6 1067.4,340.2L1253.2,427.7C1254.4,428.2 1254.2,429.2 1252.9,429.9C1251.6,430.6 1249.6,430.7 1248.4,430.1Z" style="fill:rgb(28,28,28);fill-rule:nonzero;"/>
                        <path d="M1144.2,396.1L1046.7,350.2C1045.8,349.8 1045.9,349 1046.9,348.5L1047.9,348C1048.9,347.5 1050.5,347.4 1051.4,347.8L1148.9,393.7C1149.8,394.1 1149.7,394.9 1148.7,395.4L1147.7,395.9C1146.7,396.4 1145.2,396.5 1144.2,396.1Z" style="fill:rgb(28,28,28);fill-rule:nonzero;"/>
                        <path d="M1186.9,461.2L1001.1,373.7C999.9,373.2 1000.1,372.2 1001.4,371.5C1002.7,370.8 1004.7,370.7 1005.9,371.3L1191.7,458.8C1192.9,459.3 1192.7,460.3 1191.4,461C1190.1,461.6 1188.1,461.7 1186.9,461.2Z" style="fill:rgb(28,28,28);fill-rule:nonzero;"/>
                        <path d="M1156.2,476.7L970.4,389.2C969.2,388.7 969.4,387.7 970.7,387C972,386.3 974,386.2 975.2,386.8L1161,474.3C1162.2,474.8 1162,475.8 1160.7,476.5C1159.3,477.2 1157.3,477.3 1156.2,476.7Z" style="fill:rgb(28,28,28);fill-rule:nonzero;"/>
                        <path d="M1140.8,484.5L955,397C953.8,396.5 954,395.5 955.3,394.8C956.6,394.1 958.6,394 959.8,394.6L1145.6,482.1C1146.8,482.6 1146.6,483.6 1145.3,484.3C1144,484.9 1142,485 1140.8,484.5Z" style="fill:rgb(28,28,28);fill-rule:nonzero;"/>
                        <path d="M1082.8,427.1L985.3,381.2C984.4,380.8 984.5,380 985.5,379.5L986.5,379C987.5,378.5 989.1,378.4 990,378.8L1087.5,424.7C1088.4,425.1 1088.3,425.9 1087.3,426.4L1086.3,426.9C1085.2,427.5 1083.7,427.5 1082.8,427.1Z" style="fill:rgb(28,28,28);fill-rule:nonzero;"/>
                        <path d="M1199.9,437.3L1031.8,358.1C1030.6,357.6 1030.8,356.6 1032.1,355.9C1033.4,355.2 1035.4,355.1 1036.6,355.7L1204.7,434.9C1205.9,435.4 1205.7,436.4 1204.4,437.1C1203.1,437.7 1201.1,437.8 1199.9,437.3Z" style="fill:rgb(28,28,28);fill-rule:nonzero;"/>
                        <path d="M1121.4,415.3L1016.1,365.7C1015.2,365.3 1015.3,364.5 1016.3,363.9L1017.2,363.5C1018.3,363 1019.9,362.9 1020.9,363.3L1126.2,412.9C1127.1,413.3 1127,414.1 1126,414.7L1125.1,415.1C1124,415.7 1122.4,415.8 1121.4,415.3Z" style="fill:rgb(28,28,28);fill-rule:nonzero;"/>
                        <path d="M1036.6,450.4L939.1,404.5C938.2,404.1 938.3,403.3 939.3,402.8L940.3,402.3C941.3,401.8 942.9,401.7 943.8,402.1L1041.3,448C1042.2,448.4 1042.1,449.2 1041.1,449.7L1040.1,450.2C1039.1,450.8 1037.5,450.8 1036.6,450.4Z" style="fill:rgb(28,28,28);fill-rule:nonzero;"/>
                        <path d="M1079.3,515.6L893.5,428C892.3,427.5 892.5,426.5 893.8,425.8C895.1,425.1 897.1,425 898.3,425.6L1084.1,513.1C1085.3,513.6 1085.1,514.6 1083.8,515.3C1082.5,516 1080.5,516.1 1079.3,515.6Z" style="fill:rgb(28,28,28);fill-rule:nonzero;"/>
                        <path d="M1048.6,531.1L862.8,443.6C861.6,443.1 861.8,442.1 863.1,441.4C864.4,440.7 866.4,440.6 867.6,441.2L1053.4,528.7C1054.6,529.2 1054.4,530.2 1053.1,530.9C1051.7,531.5 1049.7,531.6 1048.6,531.1Z" style="fill:rgb(28,28,28);fill-rule:nonzero;"/>
                        <path d="M1033.2,538.9L847.4,451.4C846.2,450.9 846.4,449.9 847.7,449.2C849,448.5 851,448.4 852.2,449L1038,536.5C1039.2,537 1039,538 1037.7,538.7C1036.4,539.3 1034.4,539.4 1033.2,538.9Z" style="fill:rgb(28,28,28);fill-rule:nonzero;"/>
                        <path d="M975.2,481.5L877.7,435.6C876.8,435.2 876.9,434.4 877.9,433.9L878.9,433.4C879.9,432.9 881.5,432.8 882.4,433.2L979.9,479.1C980.8,479.5 980.7,480.3 979.7,480.8L978.7,481.3C977.6,481.8 976.1,481.9 975.2,481.5Z" style="fill:rgb(28,28,28);fill-rule:nonzero;"/>
                        <path d="M1092.3,491.7L924.2,412.5C923,412 923.2,411 924.5,410.3C925.8,409.6 927.8,409.5 929,410.1L1097.1,489.3C1098.3,489.8 1098.1,490.8 1096.8,491.5C1095.5,492.1 1093.5,492.2 1092.3,491.7Z" style="fill:rgb(28,28,28);fill-rule:nonzero;"/>
                        <path d="M1013.8,469.7L908.5,420.1C907.6,419.7 907.7,418.9 908.7,418.3L909.6,417.9C910.7,417.4 912.3,417.3 913.3,417.7L1018.6,467.3C1019.5,467.7 1019.4,468.5 1018.4,469.1L1017.5,469.5C1016.4,470 1014.8,470.1 1013.8,469.7Z" style="fill:rgb(28,28,28);fill-rule:nonzero;"/>
                    </g>
                    <g>
                        <g>
                            <path d="M757.1,538.1C782.4,550.4 823.3,550.5 848.4,538.2C873.5,525.9 873.4,506 848.1,493.6C822.8,481.3 781.9,481.2 756.8,493.5C731.7,505.8 731.8,525.8 757.1,538.1ZM843.5,496C866.2,507.1 866.3,525 843.7,536C821.1,547 784.4,546.9 761.7,535.9C739,524.8 738.9,506.9 761.4,495.9C784.1,484.8 820.8,484.9 843.5,496Z" style="fill:rgb(0,123,255);fill-rule:nonzero;"/>
                            <path d="M767.3,533.1C786.9,542.7 818.7,542.7 838.2,533.2C857.7,523.7 857.6,508.2 838,498.6C818.4,489 786.6,489 767.1,498.5C747.5,508.1 747.6,523.6 767.3,533.1ZM830.8,502.1C846.5,509.8 846.5,522.1 831,529.7C815.4,537.3 790.1,537.3 774.4,529.6C758.7,521.9 758.6,509.6 774.2,502C789.8,494.4 815.1,494.5 830.8,502.1Z" style="fill:rgb(0,123,255);fill-rule:nonzero;"/>
                            <g>
                                <g>
                                    <path d="M805.9,514.5L822,522L818,523.6L799,517.2L782.9,509.7L786.9,508.1L805.9,514.5Z" style="fill:rgb(0,123,255);fill-rule:nonzero;"/>
                                </g>
                                <g>
                                    <path d="M813.1,525.6L809.7,527C809.2,527.2 808.5,527.3 807.8,527.2C803.8,526.6 789.5,524.6 784.7,524C784.2,523.9 783.7,523.8 783.3,523.7C782.9,523.6 782.6,523.4 782.4,523.2C780.7,521.3 775.6,515.6 774.2,514C774,513.7 774.1,513.4 774.6,513.2L778,511.8C778.4,512.1 786.6,518 789.4,520.1C789.7,520.3 790.1,520.5 790.5,520.7C790.9,520.9 791.5,521 792,521.1C797.4,522.2 812.3,525.4 813.1,525.6Z" style="fill:rgb(0,123,255);fill-rule:nonzero;"/>
                                </g>
                                <g>
                                    <path d="M821.6,508.2C822,508.4 822.3,508.5 822.5,508.7C824.2,510.6 829.3,516.3 830.7,517.9C830.9,518.2 830.8,518.5 830.3,518.7L826.9,520.1C826.5,519.8 818.3,513.9 815.4,511.8C815.1,511.6 814.7,511.4 814.3,511.2C813.9,511 813.3,510.9 812.8,510.8C807.5,509.7 792.6,506.4 791.8,506.3L795.2,504.9C795.7,504.7 796.4,504.6 797.1,504.7C801.2,505.3 815.4,507.3 820.2,507.9C820.8,507.9 821.2,508.1 821.6,508.2Z" style="fill:rgb(0,123,255);fill-rule:nonzero;"/>
                                </g>
                            </g>
                        </g>
                    </g>
                </g>
            </g>
            <g>
                <path d="M580.6,745.8L480.2,687.9C478.1,686.7 478.4,684.6 480.8,683.3L546.1,645.6C548.5,644.2 552.1,644.1 554.1,645.3L654.5,703.2C656.6,704.4 656.3,706.5 653.9,707.8L588.6,745.5C586.2,746.8 582.6,747 580.6,745.8Z" style="fill:rgb(255,166,0);fill-rule:nonzero;"/>
                <g>
                    <g>
                        <path d="M642.8,698.4L633.9,642L578,674.5L586.9,730.9C587.4,734.2 586.5,736.6 584.8,737.6L640.7,705.1C642.4,704.1 643.3,701.7 642.8,698.4Z" style="fill:rgb(28,28,28);fill-rule:nonzero;"/>
                        <path d="M626.5,630.7L566.2,595.9C564.1,594.7 562.2,594.6 560.8,595.4L504.9,627.9C506.3,627.1 508.2,627.2 510.3,628.4L570.6,663.2C574.2,665.3 577.3,670 578,674.5L633.9,642C633.2,637.5 630.1,632.8 626.5,630.7Z" style="fill:rgb(137,140,138);fill-rule:nonzero;"/>
                        <g>
                            <path d="M570.6,663.2C574.2,665.3 577.3,670 578,674.5L586.9,730.9C587.8,736.9 584.2,739.9 579.4,737.1L501,691.8C496.2,689 492.6,681.9 493.6,677L502.8,631C503.5,627.3 506.7,626.2 510.3,628.3L570.6,663.2Z" style="fill:rgb(64,64,64);fill-rule:nonzero;"/>
                        </g>
                    </g>
                </g>
                <g>
                    <g>
                        <g>
                            <g>
                                <path d="M609.2,614.1L609.2,625.2C609.2,631.1 605.3,636.9 597.6,641.4C582.1,650.4 556.9,650.4 541.2,641.4C533.3,636.9 529.4,630.9 529.4,625L529.4,613.9C529.4,619.8 533.3,625.8 541.2,630.3C556.8,639.3 582,639.3 597.6,630.3C605.4,625.8 609.2,619.9 609.2,614.1Z" style="fill:rgb(26,26,26);fill-rule:nonzero;"/>
                            </g>
                            <g>
                                <path d="M597.5,597.6C613.1,606.6 613.2,621.2 597.7,630.2C582.2,639.2 557,639.2 541.3,630.2C525.6,621.2 525.6,606.6 541.1,597.6C556.6,588.6 581.9,588.6 597.5,597.6Z" style="fill:rgb(51,51,51);fill-rule:nonzero;"/>
                            </g>
                        </g>
                    </g>
                </g>
                <g>
                    <g>
                        <g>
                            <g>
                                <path d="M612.6,609.2L612.6,615.2C612.6,621.6 608.4,627.9 600,632.8C583.2,642.6 555.8,642.6 538.8,632.8C530.3,627.9 526,621.4 526,615L526,609C526,615.5 530.2,621.9 538.8,626.8C555.7,636.6 583.1,636.6 600,626.8C608.4,622 612.6,615.6 612.6,609.2Z" style="fill:rgb(38,38,38);fill-rule:nonzero;"/>
                            </g>
                            <g>
                                <path d="M599.9,591.4C616.8,601.2 616.9,617 600.1,626.8C583.3,636.6 555.9,636.6 538.9,626.8C522,617 521.9,601.2 538.7,591.4C555.5,581.6 582.9,581.6 599.9,591.4Z" style="fill:rgb(137,140,138);fill-rule:nonzero;"/>
                            </g>
                        </g>
                    </g>
                </g>
                <g>
                    <g>
                        <g>
                            <g>
                                <path d="M609.2,596.5L609.2,607.6C609.2,613.5 605.3,619.3 597.6,623.8C582.1,632.8 556.9,632.8 541.2,623.8C533.3,619.3 529.4,613.3 529.4,607.4L529.4,596.3C529.4,602.2 533.3,608.2 541.2,612.7C556.8,621.7 582,621.7 597.6,612.7C605.4,608.3 609.2,602.4 609.2,596.5Z" style="fill:rgb(38,38,38);fill-rule:nonzero;"/>
                            </g>
                            <g>
                                <path d="M597.5,580.1C613.1,589.1 613.2,603.7 597.7,612.7C582.2,621.7 557,621.7 541.3,612.7C525.7,603.7 525.6,589.1 541.1,580.1C556.6,571.1 581.9,571.1 597.5,580.1Z" style="fill:rgb(137,140,138);fill-rule:nonzero;"/>
                            </g>
                            <g>
                                <path d="M590.3,584.3C601.9,591 602,601.9 590.4,608.6C578.9,615.3 560.1,615.3 548.5,608.6C536.9,601.9 536.8,591 548.4,584.3C559.9,577.6 578.7,577.6 590.3,584.3Z" style="fill-rule:nonzero;"/>
                            </g>
                            <path d="M543.7,604.9C545,603.6 546.5,602.4 548.4,601.3C559.9,594.6 578.7,594.6 590.3,601.3C592.2,602.4 593.8,603.7 595.1,605C601.6,598.4 600,589.9 590.3,584.3C578.7,577.6 559.9,577.6 548.4,584.3C538.8,589.9 537.2,598.3 543.7,604.9Z" style="fill:rgb(38,38,38);fill-rule:nonzero;"/>
                        </g>
                    </g>
                </g>
            </g>
            <g>
                <g>
                    <g transform="matrix(0.00542093,-1,1,0.00542093,592.102,2001.96)">
                        <ellipse cx="1302.5" cy="703.3" rx="34.9" ry="60.5" style="fill:rgb(255,166,0);"/>
                    </g>
                    <g transform="matrix(0.00542315,-1,1,0.00542315,600.587,1993.52)">
                        <ellipse cx="1302.5" cy="694.8" rx="30.2" ry="52.4" style="fill:rgb(38,38,38);"/>
                    </g>
                    <g transform="matrix(0.00542093,-1,1,0.00542093,611.448,1982.72)">
                        <ellipse cx="1302.5" cy="684" rx="34.9" ry="60.5" style="fill:rgb(28,28,28);"/>
                    </g>
                    <path d="M1334.6,698.4C1317,708.6 1288.3,708.5 1270.6,698.3C1252.9,688.1 1252.8,671.5 1270.4,661.3C1288,651.1 1316.7,651.2 1334.4,661.4C1352.1,671.6 1352.2,688.2 1334.6,698.4Z" style="fill:rgb(107,108,105);fill-rule:nonzero;"/>
                    <path d="M1270.4,667.5C1288,657.3 1316.7,657.4 1334.4,667.6C1341.9,671.9 1346.3,677.4 1347.4,683.1C1349,675.4 1344.7,667.3 1334.4,661.4C1316.7,651.2 1288,651.1 1270.4,661.3C1260.3,667.2 1256,675.1 1257.6,682.8C1258.7,677.2 1263,671.8 1270.4,667.5Z" style="fill:rgb(51,51,51);fill-rule:nonzero;"/>
                </g>
                <g>
                    <path d="M1322.1,638.4C1311.3,644.6 1293.9,644.6 1283,638.3C1272.2,632.1 1272.1,622 1282.9,615.7C1293.7,609.5 1311.1,609.5 1322,615.8C1332.8,622.1 1332.8,632.2 1322.1,638.4Z" style="fill:rgb(204,204,204);fill-rule:nonzero;"/>
                    <path d="M1329.5,679.8L1328.7,677.6C1323,662.3 1323.3,645.3 1329.5,630.2L1296,631.1L1275.5,630.2C1281.8,645.3 1282.1,662.3 1276.3,677.6L1275.5,679.8C1273.7,684.9 1276.2,690.4 1283.1,694.3C1293.9,700.5 1311.4,700.6 1322.2,694.4C1328.9,690.5 1331.4,684.9 1329.5,679.8Z" style="fill-rule:nonzero;"/>
                </g>
                <g>
                    <path d="M1341,631.9L1336.5,614L1328.7,619C1313.8,611.1 1290.9,611.1 1276.1,618.9L1268.5,614L1264,631.9C1262.1,638.8 1265.8,646.1 1275,651.4C1290.3,660.2 1315,660.3 1330.2,651.5C1339.4,646.2 1343,638.8 1341,631.9Z" style="fill:rgb(38,38,38);fill-rule:nonzero;"/>
                    <path d="M1326.7,629.8C1313.4,637.5 1291.8,637.4 1278.4,629.7C1265,622 1264.9,609.5 1278.2,601.8C1291.5,594.1 1313.1,594.2 1326.5,601.9C1340,609.6 1340,622.1 1326.7,629.8Z" style="fill:rgb(107,108,105);fill-rule:nonzero;"/>
                    <path d="M1322,623.2C1311.3,629.4 1293.9,629.3 1283.1,623.1C1272.3,616.9 1272.3,606.8 1283,600.6C1293.7,594.4 1311.1,594.5 1321.9,600.7C1332.6,606.9 1332.7,617 1322,623.2Z" style="fill:rgb(28,28,28);fill-rule:nonzero;"/>
                </g>
            </g>
            <g>
                <g transform="matrix(0.00542342,-1,1,0.00542342,397.736,1941.12)">
                    <ellipse cx="1174.7" cy="770.6" rx="34.9" ry="60.5" style="fill:rgb(255,166,0);"/>
                </g>
                <path d="M1218,703.9C1194,690 1155.1,689.9 1131.2,703.7C1116.7,712.1 1111,723.7 1114.2,734.6L1121.2,762.4C1122.3,769.5 1127.4,776.4 1136.8,781.8C1157.8,793.9 1191.9,794 1212.8,781.9C1222,776.6 1227.1,769.8 1228.2,762.8L1235.3,734.6C1238.3,723.7 1232.5,712.2 1218,703.9Z" style="fill:rgb(28,28,28);fill-rule:nonzero;"/>
                <g transform="matrix(0.00542008,-1,1,0.00542008,439.522,1899.56)">
                    <ellipse cx="1174.7" cy="728.8" rx="33.3" ry="57.7" style="fill:rgb(107,108,105);"/>
                </g>
                <g transform="matrix(0.00542159,-1,1,0.00542159,439.52,1899.56)">
                    <ellipse cx="1174.7" cy="728.8" rx="30.1" ry="52.2" style="fill:rgb(0,123,255);"/>
                </g>
                <path d="M1137.7,713.8C1158,702.1 1191.1,702.1 1211.5,713.9C1220.3,719 1225.4,725.5 1226.6,732.1C1228.2,723.3 1223.2,714.2 1211.5,707.5C1191,695.7 1158,695.6 1137.7,707.4C1126.2,714.1 1121.2,723.1 1122.8,731.8C1124,725.3 1128.9,718.9 1137.7,713.8Z" style="fill:rgb(51,51,51);fill-rule:nonzero;"/>
            </g>
        </g>
    </g>
</svg>
