<?xml version="1.0" encoding="UTF-8" standalone="no"?>
<!DOCTYPE svg PUBLIC "-//W3C//DTD SVG 1.1//EN" "http://www.w3.org/Graphics/SVG/1.1/DTD/svg11.dtd">
<svg width="100%" height="100%" viewBox="0 0 1920 1080" version="1.1" xmlns="http://www.w3.org/2000/svg" xmlns:xlink="http://www.w3.org/1999/xlink" xml:space="preserve" xmlns:serif="http://www.serif.com/" style="fill-rule:evenodd;clip-rule:evenodd;stroke-miterlimit:10;">
    <g>
        <g>
            <path d="M946.8,148.2C852.3,189 670.7,108.2 661.2,103.9L660,505C659.5,684.6 886.2,944 944.4,997.5C1002.7,1011.3 1230.1,1014 1230.6,834.4L1231.7,433.3C1222.2,426.5 1040.7,297.7 946.8,148.2Z" style="fill:none;fill-rule:nonzero;stroke:black;stroke-width:1px;"/>
            <g>
                <g>
                    <g>
                        <path d="M927,207.4C925.2,208.2 923.3,208.9 921.4,209.6C921,209.7 920.7,209.9 920.3,210C918,210.8 915.7,211.5 913.3,212.2C913,212.3 912.6,212.4 912.3,212.5C909.9,213.1 907.5,213.7 905,214.2C904.6,214.3 904.2,214.4 903.9,214.4C901.7,214.8 899.4,215.2 897.1,215.5C896.7,215.6 896.3,215.6 895.9,215.7C893.5,216 891.1,216.3 888.7,216.5C888.5,216.5 888.3,216.5 888,216.6C885.6,216.8 883.1,217 880.6,217.1L880.1,217.1C877.6,217.2 875.1,217.3 872.5,217.3L871.3,217.3C868.7,217.3 866,217.3 863.4,217.2L862.1,217.2C859.5,217.1 856.8,217 854.2,216.8C853.8,216.8 853.4,216.7 852.9,216.7C850,216.5 847,216.2 844.1,215.9C843.7,215.9 843.3,215.8 842.9,215.8C840,215.5 837,215.1 834,214.7C833.6,214.6 833.2,214.6 832.8,214.5C829.4,214 826.1,213.5 822.7,213C822.4,213 822.2,212.9 821.9,212.9C818.3,212.3 814.7,211.6 811.1,210.9C806.9,210.1 802.9,209.2 798.9,208.3C798.6,208.2 798.3,208.2 798,208.1C794,207.2 790.1,206.3 786.2,205.3C785.9,205.2 785.5,205.1 785.2,205C783.4,204.5 781.6,204.1 779.8,203.6C779.3,203.5 778.8,203.3 778.4,203.2C776.4,202.7 774.3,202.1 772.3,201.5C772,201.4 771.6,201.3 771.3,201.2C769.5,200.7 767.8,200.2 766.1,199.7C765.6,199.6 765.2,199.4 764.7,199.3C762.7,198.7 760.8,198.1 758.8,197.6C758.5,197.5 758.3,197.4 758,197.4C755.6,196.7 753.3,196 751,195.2C750.9,195.2 750.7,195.1 750.6,195.1C748.3,194.4 746,193.6 743.8,192.9C743.5,192.8 743.1,192.7 742.8,192.6C740.7,191.9 738.6,191.2 736.5,190.5C736.1,190.4 735.8,190.3 735.4,190.1C733.4,189.4 731.4,188.7 729.4,188C728.9,187.8 728.4,187.7 728,187.5C727.2,187.2 726.4,186.9 725.6,186.7C725.1,186.5 724.5,186.3 724,186.1C723.3,185.8 722.5,185.6 721.8,185.3C721.3,185.1 720.8,184.9 720.3,184.7C719.6,184.4 718.8,184.2 718.1,183.9C717.6,183.7 717.2,183.5 716.7,183.4C716,183.1 715.2,182.9 714.5,182.6C714.1,182.4 713.7,182.3 713.2,182.1C712.4,181.8 711.7,181.5 711,181.2C710.6,181.1 710.3,180.9 709.9,180.8C709.1,180.5 708.4,180.2 707.6,179.9C707.3,179.8 707,179.7 706.7,179.6C705.7,179.2 704.7,178.8 703.7,178.4C702.6,178 701.7,177.6 700.8,177.3C700.7,177.3 700.6,177.2 700.4,177.2C699.4,176.8 698.4,176.4 697.4,176C697.1,175.9 696.9,175.8 696.6,175.7C695.6,175.3 694.6,174.9 693.7,174.5C692.6,174 691.8,173.7 691,173.4C690.8,173.3 690.6,173.2 690.4,173.1C689.6,172.8 688.9,172.4 688.2,172.2C687.5,171.9 686.9,171.6 686.3,171.4C686.2,171.3 686,171.3 685.9,171.2C684.8,170.7 683.9,170.3 683.2,170C682.7,169.8 682.5,169.7 682.3,169.6L626.8,201.9C627,202 627.2,202.1 627.5,202.2C628.3,202.6 629.2,203 630.4,203.5C630.5,203.6 630.7,203.6 630.8,203.7C631.4,204 632,204.2 632.7,204.5C633.4,204.8 634.2,205.1 635,205.5C635.2,205.6 635.4,205.7 635.6,205.8C636.3,206.1 637.1,206.4 638,206.8C639.2,207.3 640.2,207.7 641.2,208.1C641.5,208.2 641.7,208.3 642,208.4C643,208.8 643.9,209.2 645,209.6C646.2,210.1 647.1,210.5 648,210.8C649.1,211.3 650.2,211.6 651.2,212C651.5,212.1 651.8,212.2 652.1,212.3C652.9,212.6 653.6,212.9 654.4,213.2C654.8,213.3 655.1,213.5 655.5,213.6C656.2,213.9 657,214.2 657.7,214.5C658.1,214.7 658.5,214.8 659,215C659.7,215.3 660.4,215.5 661.2,215.8C661.7,216 662.1,216.1 662.6,216.3C663.3,216.6 664,216.8 664.8,217.1C665.3,217.3 665.8,217.5 666.3,217.7C667,218 667.8,218.2 668.5,218.5C669,218.7 669.5,218.9 670.1,219.1C670.9,219.4 671.7,219.7 672.5,219.9C672.9,220 673.2,220.2 673.6,220.3C675.9,221.1 677.9,221.8 679.9,222.5C680.3,222.6 680.6,222.7 681,222.9C683.1,223.6 685.1,224.3 687.3,225C687.6,225.1 688,225.2 688.3,225.3C690.5,226 692.8,226.8 695.1,227.5C695.2,227.5 695.4,227.6 695.5,227.6C697.8,228.3 700.1,229 702.5,229.8C702.7,229.9 702.8,229.9 703,230C705.2,230.7 707.1,231.2 709.1,231.8C709.6,231.9 710,232.1 710.5,232.2C712.2,232.7 714,233.2 715.7,233.7C716,233.8 716.4,233.9 716.7,234C718.7,234.6 720.8,235.1 722.8,235.7C723.3,235.8 723.8,236 724.2,236.1C726,236.6 727.8,237 729.6,237.5C729.9,237.6 730.1,237.6 730.4,237.7C734.5,238.7 738.4,239.7 742.4,240.5C742.7,240.6 743,240.6 743.3,240.7C747.3,241.6 751.3,242.4 755.3,243.2C759,243.9 762.6,244.6 766.2,245.2C766.5,245.2 766.7,245.3 767,245.3C770.4,245.9 773.7,246.4 777.1,246.8C777.3,246.8 777.5,246.9 777.7,246.9C777.9,246.9 778.1,246.9 778.3,247C781.3,247.4 784.2,247.8 787.2,248.1C787.6,248.1 788,248.2 788.4,248.2C791.3,248.5 794.3,248.8 797.2,249C797.4,249 797.6,249 797.8,249.1L798.4,249.1C801.1,249.3 803.7,249.4 806.3,249.5L807.6,249.5C810.3,249.6 812.9,249.6 815.5,249.6L816.7,249.6C819.2,249.6 821.8,249.5 824.3,249.4L824.8,249.4C827.3,249.3 829.7,249.1 832.2,248.9L832.7,248.9C835.3,248.7 837.7,248.4 840.1,248.1C840.5,248 840.9,248 841.3,247.9C843.6,247.6 845.9,247.2 848.1,246.8C848.3,246.8 848.5,246.7 848.7,246.7C848.9,246.7 849.1,246.6 849.2,246.6C851.7,246.1 854.1,245.5 856.5,244.9C856.8,244.8 857.2,244.7 857.5,244.6C859.9,243.9 862.2,243.2 864.5,242.4C864.6,242.3 864.8,242.3 864.9,242.3C865.1,242.2 865.3,242.1 865.6,242C867.5,241.3 869.4,240.6 871.2,239.8L927,207.4Z" style="fill:rgb(250,184,58);fill-rule:nonzero;"/>
                    </g>
                    <g>
                        <path d="M1115,483.3L1114,826L1114,827.3C1114,829 1113.9,830.8 1113.9,832.5C1113.9,833.2 1113.8,833.8 1113.8,834.5C1113.7,835.9 1113.6,837.3 1113.5,838.7C1113.5,839.3 1113.4,840 1113.3,840.6C1113.2,842.2 1113,843.9 1112.8,845.4C1112.8,845.7 1112.7,846 1112.7,846.4C1112.4,848.6 1112.1,850.7 1111.7,852.8C1111.6,853.3 1111.5,853.8 1111.4,854.3C1111,856.5 1110.6,858.7 1110.1,860.8C1109.6,863 1109,865.1 1108.4,867.2C1108.3,867.7 1108.1,868.2 1108,868.7C1107.7,869.6 1107.5,870.5 1107.2,871.3C1107,871.9 1106.8,872.6 1106.6,873.2C1106.3,874.1 1106,875 1105.7,875.8C1105.5,876.4 1105.3,876.9 1105.1,877.5C1104.6,878.7 1104.2,879.8 1103.7,881C1103.6,881.3 1103.5,881.6 1103.3,881.9C1102.7,883.3 1102.1,884.7 1101.4,886.1C1101.3,886.3 1101.2,886.5 1101.1,886.6C1100.2,888.5 1099.2,890.4 1098.2,892.3C1098.1,892.5 1098,892.7 1097.8,893C1096.8,894.9 1095.7,896.7 1094.6,898.4C1094.4,898.7 1094.2,899 1094,899.3C1092.8,901.2 1091.5,903.1 1090.1,904.9C1089.9,905.2 1089.7,905.5 1089.5,905.7C1088.1,907.5 1086.7,909.3 1085.3,911C1085.1,911.3 1084.9,911.5 1084.6,911.8C1083.1,913.5 1081.6,915.2 1080.1,916.8C1079.9,917 1079.6,917.3 1079.4,917.5C1077.8,919.1 1076.2,920.7 1074.5,922.2C1074.3,922.4 1074.1,922.6 1073.8,922.8C1072.1,924.3 1070.4,925.8 1068.6,927.3C1068.4,927.5 1068.2,927.6 1068,927.8C1066.2,929.3 1064.3,930.7 1062.5,932.1C1062.3,932.2 1062.2,932.3 1062,932.4C1060.1,933.8 1058.1,935.2 1056.1,936.5C1053.7,938 1051.6,939.3 1049.5,940.6L1105,908.3C1107.2,907 1109.3,905.7 1111.4,904.4C1113.7,902.9 1115.7,901.6 1117.6,900.2C1117.8,900.1 1117.9,900 1118.1,899.9C1120,898.5 1121.8,897.1 1123.6,895.6C1123.8,895.4 1124,895.3 1124.2,895.1C1126,893.6 1127.7,892.1 1129.4,890.6C1129.6,890.4 1129.8,890.2 1130.1,890C1131.8,888.5 1133.4,886.9 1135,885.3C1135.2,885.1 1135.5,884.8 1135.7,884.6C1137.3,883 1138.8,881.3 1140.2,879.6C1140.4,879.3 1140.6,879.1 1140.9,878.8C1142.4,877.1 1143.8,875.3 1145.1,873.5C1145.3,873.2 1145.5,872.9 1145.7,872.7C1147,870.9 1148.3,869 1149.6,867C1149.7,866.9 1149.8,866.7 1149.9,866.6C1150,866.4 1150.1,866.2 1150.2,866.1C1151.3,864.3 1152.4,862.5 1153.4,860.7C1153.5,860.5 1153.6,860.3 1153.8,860C1154.8,858.2 1155.8,856.3 1156.7,854.3C1156.8,854.2 1156.8,854.1 1156.9,853.9C1157.6,852.3 1158.3,850.9 1158.9,849.5C1159,849.2 1159.1,848.9 1159.3,848.6C1159.8,847.5 1160.3,846.3 1160.7,845.1C1160.7,845 1160.8,844.8 1160.9,844.7C1161.1,844.3 1161.2,843.8 1161.4,843.4C1161.7,842.5 1162,841.7 1162.3,840.8C1162.5,840.2 1162.7,839.5 1162.9,838.9C1163.2,838 1163.5,837.2 1163.7,836.3C1163.8,836 1163.9,835.8 1163.9,835.5C1164,835.3 1164,835 1164.1,834.7C1164.7,832.6 1165.3,830.5 1165.8,828.3C1166.3,826.2 1166.7,824 1167.1,821.8C1167.1,821.5 1167.2,821.3 1167.3,821C1167.3,820.8 1167.4,820.5 1167.4,820.3C1167.8,818.2 1168.1,816.1 1168.4,813.9C1168.5,813.5 1168.5,813.2 1168.5,812.9C1168.7,811.3 1168.9,809.7 1169,808.1C1169,807.8 1169.1,807.6 1169.1,807.4C1169.1,807 1169.1,806.6 1169.2,806.2C1169.3,804.8 1169.4,803.4 1169.5,802C1169.5,801.6 1169.6,801.2 1169.6,800.8L1169.6,800C1169.7,798.3 1169.7,796.6 1169.7,794.8L1169.7,793.5L1170.7,450.8L1115,483.3Z" style="fill:rgb(250,184,58);fill-rule:nonzero;"/>
                    </g>
                    <g>
                        <path d="M1170.5,451.1C1170.4,451 1170.2,450.9 1170,450.7C1169.7,450.5 1169.5,450.3 1169.3,450.2C1168.8,449.9 1168.2,449.4 1167.5,448.9C1167.1,448.6 1166.8,448.4 1166.5,448.2C1166.3,448.1 1166.1,447.9 1165.9,447.8C1165.7,447.7 1165.5,447.5 1165.2,447.3C1164.9,447.1 1164.6,446.9 1164.3,446.7C1164.1,446.6 1163.9,446.4 1163.8,446.3C1163.4,446 1163,445.8 1162.6,445.5C1162.4,445.4 1162.2,445.2 1162.1,445.1C1161.7,444.8 1161.2,444.5 1160.7,444.1C1159.7,443.4 1159,442.8 1158.2,442.2C1158,442 1157.7,441.8 1157.5,441.7C1156.8,441.2 1156,440.6 1155.3,440C1155.1,439.8 1154.8,439.7 1154.6,439.5C1153.6,438.8 1152.6,438 1151.5,437.2C1151.3,437.1 1151.1,436.9 1150.9,436.7C1150,436 1149.1,435.3 1148.2,434.6C1147.9,434.3 1147.5,434.1 1147.2,433.8C1146.3,433.1 1145.3,432.3 1144.3,431.6C1144,431.4 1143.8,431.2 1143.5,431C1142.3,430.1 1141,429.1 1139.8,428.1C1139.5,427.9 1139.1,427.6 1138.8,427.3C1137.8,426.5 1136.8,425.7 1135.7,424.9C1135.3,424.6 1134.9,424.2 1134.4,423.9C1133.2,422.9 1131.9,421.9 1130.6,420.9C1130.5,420.8 1130.3,420.7 1130.2,420.6C1127.7,418.6 1125.1,416.5 1122.4,414.4C1122.3,414.3 1122.1,414.2 1122,414.1C1119.4,412 1116.8,409.9 1114.1,407.7C1113.8,407.5 1113.6,407.3 1113.3,407C1110.7,404.9 1108,402.6 1105.3,400.4C1105,400.1 1104.7,399.9 1104.4,399.6C1101.7,397.3 1098.9,395 1096.1,392.6C1095.8,392.3 1095.4,392 1095.1,391.7C1092.8,389.7 1090.4,387.7 1088,385.6C1087.6,385.3 1087.2,384.9 1086.8,384.6C1084.4,382.5 1081.9,380.3 1079.4,378.2C1079,377.9 1078.7,377.5 1078.3,377.2C1075.8,375 1073.2,372.7 1070.6,370.3C1070.3,370.1 1070.1,369.8 1069.8,369.6C1067.1,367.1 1064.3,364.7 1061.6,362.1C1059.2,359.9 1056.9,357.8 1054.6,355.6C1054.1,355.2 1053.7,354.7 1053.2,354.3C1050.9,352.2 1048.6,350 1046.3,347.8C1045.9,347.4 1045.4,347 1045,346.6C1042.8,344.5 1040.7,342.5 1038.5,340.3C1038.2,340 1037.9,339.7 1037.6,339.5C1035.3,337.2 1032.9,334.9 1030.6,332.6C1030.1,332.1 1029.6,331.6 1029,331.1C1026.8,328.9 1024.6,326.7 1022.3,324.4C1020,322.1 1017.9,319.9 1015.7,317.6C1015.2,317 1014.6,316.5 1014.1,315.9C1011.9,313.6 1009.7,311.3 1007.5,309C1005.1,306.5 1003,304.2 1000.9,302C1000.5,301.6 1000.1,301.1 999.7,300.7C994.9,295.5 990.1,290.2 985.4,284.8C985.2,284.5 984.9,284.3 984.7,284C980,278.6 975.3,273 970.7,267.5C970.4,267.2 970.2,266.9 969.9,266.6C968.1,264.4 966.3,262.2 964.6,260C964.4,259.7 964.1,259.4 963.9,259.1C962.4,257.2 960.9,255.3 959.3,253.3C958.7,252.6 958.2,251.9 957.6,251.2C956.4,249.6 955.2,248.1 954,246.5C953.4,245.8 952.9,245 952.3,244.3C951,242.5 949.7,240.8 948.4,239C948,238.5 947.7,238 947.3,237.5C945.7,235.3 944,233 942.4,230.7C942,230.1 941.6,229.5 941.2,228.9C940,227.2 938.8,225.5 937.6,223.7C937.1,222.9 936.6,222.2 936,221.4C934.9,219.8 933.8,218.1 932.7,216.5C932.2,215.8 931.8,215.1 931.3,214.4C929.8,212.1 928.3,209.8 926.8,207.5L871.3,239.8C872.8,242.1 874.2,244.4 875.8,246.7C876.3,247.4 876.7,248.1 877.2,248.8C878.3,250.4 879.4,252.1 880.5,253.7C881,254.5 881.5,255.2 882.1,256C883.3,257.7 884.5,259.4 885.7,261.2C886.1,261.8 886.5,262.4 886.9,263C888.5,265.3 890.1,267.5 891.8,269.8C892.2,270.3 892.5,270.8 892.9,271.3C894.2,273.1 895.5,274.9 896.8,276.6C897.4,277.3 897.9,278.1 898.5,278.8C899.7,280.4 900.9,281.9 902.1,283.5C902.7,284.2 903.2,284.9 903.8,285.6C905.3,287.5 906.8,289.5 908.4,291.4C908.6,291.7 908.9,292 909.1,292.3C910.9,294.5 912.6,296.7 914.4,298.9C914.5,299.1 914.7,299.3 914.8,299.4C914.9,299.5 915,299.7 915.1,299.8C919.7,305.4 924.4,310.9 929.1,316.3C929.3,316.6 929.6,316.8 929.8,317.1C934.5,322.5 939.3,327.8 944.1,333C944.2,333.1 944.3,333.3 944.5,333.4C944.8,333.7 945.1,334 945.4,334.3C947.5,336.6 949.6,338.8 951.7,341.1C954.2,343.7 956.4,346 958.6,348.3C959.1,348.9 959.7,349.4 960.2,350C962.4,352.3 964.6,354.5 966.8,356.7L975.1,365C977.4,367.3 979.8,369.6 982.1,371.9C982.4,372.2 982.7,372.5 983,372.7C985.2,374.8 987.3,376.9 989.5,379C989.9,379.4 990.4,379.8 990.8,380.2C993.1,382.4 995.4,384.5 997.7,386.7C998.2,387.1 998.7,387.6 999.1,388C1001.4,390.1 1003.7,392.3 1006,394.4C1008.9,397.1 1011.7,399.6 1014.4,402C1014.7,402.2 1014.9,402.5 1015.2,402.7C1017.8,405 1020.4,407.3 1022.9,409.5C1023.3,409.8 1023.7,410.2 1024.1,410.5C1026.6,412.7 1029,414.8 1031.4,416.9C1031.8,417.3 1032.2,417.6 1032.6,418C1035,420.1 1037.4,422.1 1039.7,424.1C1039.9,424.2 1040,424.4 1040.2,424.5C1040.4,424.7 1040.6,424.8 1040.8,425C1043.6,427.4 1046.4,429.7 1049.1,432C1049.4,432.3 1049.7,432.5 1050.1,432.8C1052.8,435.1 1055.5,437.3 1058.1,439.4C1058.4,439.6 1058.6,439.8 1058.9,440.1C1061.6,442.3 1064.2,444.5 1066.8,446.5C1066.9,446.6 1067,446.7 1067.2,446.8C1069.9,449 1072.5,451 1075,453C1075.2,453.1 1075.3,453.2 1075.4,453.3C1076.7,454.3 1078,455.3 1079.2,456.3C1079.6,456.6 1080,456.9 1080.4,457.3C1081.4,458.1 1082.5,458.9 1083.5,459.7C1083.8,460 1084.2,460.2 1084.5,460.5C1085.8,461.5 1087,462.5 1088.3,463.4C1088.6,463.6 1088.8,463.8 1089,464C1090,464.8 1091,465.5 1091.9,466.2C1092.2,466.5 1092.6,466.7 1092.9,466.9C1093.8,467.6 1094.7,468.3 1095.5,468.9C1095.7,469.1 1096,469.3 1096.2,469.4C1097.2,470.2 1098.3,470.9 1099.2,471.7C1099.5,471.9 1099.7,472.1 1100,472.3C1100.7,472.9 1101.5,473.4 1102.1,473.9C1102.4,474.1 1102.6,474.3 1102.9,474.5C1103.6,475 1104.4,475.6 1105,476.1C1105.8,476.7 1106.2,477 1106.5,477.2C1106.7,477.4 1107,477.6 1107.2,477.7C1107.6,478 1107.9,478.2 1108.2,478.5C1108.4,478.7 1108.7,478.8 1108.9,479C1109.2,479.2 1109.5,479.4 1109.7,479.6C1109.9,479.8 1110.2,479.9 1110.4,480.1C1110.7,480.3 1111,480.5 1111.2,480.7C1111.3,480.8 1111.5,480.9 1111.6,481C1111.9,481.2 1112.2,481.4 1112.4,481.6C1113.7,482.6 1114.4,483.1 1114.8,483.3C1115,483.3 1170.5,451.1 1170.5,451.1Z" style="fill:rgb(255,166,0);fill-rule:nonzero;"/>
                    </g>
                    <g>
                        <path d="M871.5,239.7C790.8,274.6 635.7,205.5 627.5,201.9L626.5,544.6C626.1,698 819.7,919.7 869.4,965.3C919.2,977.1 1113.5,979.4 1113.9,825.9L1114.9,483.2C1106.8,477.5 951.7,367.5 871.5,239.7Z" style="fill:rgb(242,142,0);fill-rule:nonzero;"/>
                    </g>
                </g>
                <g>
                    <path d="M856,338.9C790,367.4 663.2,311 656.6,308L655.8,588C655.4,713.5 813.7,894.6 854.4,932C895.1,941.6 1053.9,943.5 1054.3,818.1L1055,538C1048.3,533.3 921.6,443.3 856,338.9Z" style="fill-rule:nonzero;"/>
                    <g>
                        <path d="M855.7,304.1C854.2,304.7 852.7,305.3 851.1,305.9C850.8,306 850.5,306.1 850.2,306.2C848.3,306.8 846.4,307.4 844.5,308C844.2,308.1 843.9,308.2 843.6,308.2C841.7,308.7 839.7,309.2 837.7,309.6C837.4,309.7 837.1,309.7 836.8,309.8C835,310.2 833.1,310.5 831.2,310.7C830.9,310.7 830.6,310.8 830.3,310.8C828.4,311.1 826.4,311.3 824.4,311.5L823.9,311.5C821.9,311.7 819.9,311.8 817.9,311.9L817.4,311.9C815.4,312 813.3,312 811.2,312L810.2,312C808.1,312 805.9,312 803.7,311.9L802.7,311.9C800.5,311.8 798.4,311.7 796.2,311.6C795.9,311.6 795.5,311.6 795.2,311.5C792.8,311.3 790.4,311.1 788,310.9C787.7,310.9 787.3,310.8 787,310.8C784.6,310.5 782.2,310.3 779.8,309.9C779.5,309.9 779.2,309.8 778.9,309.8C776.1,309.4 773.4,309 770.6,308.5C770.4,308.5 770.2,308.4 769.9,308.4C767,307.9 764,307.4 761.1,306.8C757.7,306.1 754.4,305.4 751.2,304.7C750.9,304.6 750.7,304.6 750.4,304.5C747.2,303.8 744,303 740.8,302.2C740.7,302.2 740.5,302.1 740.4,302.1C736.7,301.2 733,300.2 729.3,299.2C725.3,298.1 721.7,297.1 718.3,296C718.1,295.9 717.9,295.9 717.7,295.8C715.8,295.2 713.9,294.6 712,294C709.8,293.3 707.9,292.7 706.1,292.1C705.8,292 705.6,291.9 705.3,291.8C703.6,291.2 701.8,290.6 700.2,290.1C699.9,290 699.6,289.9 699.3,289.8C697.6,289.2 696,288.7 694.4,288.1C694,288 693.6,287.8 693.1,287.7C692.5,287.5 691.9,287.3 691.3,287C690.8,286.8 690.4,286.7 690,286.5C689.4,286.3 688.8,286.1 688.2,285.9C687.8,285.7 687.3,285.6 686.9,285.4C686.3,285.2 685.8,285 685.2,284.8C684.8,284.6 684.4,284.5 684,284.3C683.4,284.1 682.9,283.9 682.3,283.7C681.9,283.6 681.5,283.4 681.1,283.3C680.5,283.1 680,282.9 679.4,282.7C679.1,282.6 678.7,282.4 678.4,282.3C677.8,282.1 677.2,281.9 676.7,281.6C676.4,281.5 676.1,281.4 675.8,281.3C675,281 674.2,280.7 673.4,280.3C672.4,279.9 671.8,279.6 671.1,279.4C670.9,279.3 670.8,279.3 670.6,279.2C669.8,278.9 669.1,278.6 668.3,278.3C668.1,278.2 667.8,278.1 667.6,278C666.8,277.7 666,277.3 665.3,277C664.3,276.6 663.7,276.3 663.1,276.1C662.9,276 662.8,276 662.6,275.9C662,275.6 661.3,275.4 660.8,275.1C660.2,274.8 659.7,274.6 659.2,274.4C658.4,274.1 658,273.9 657.6,273.7C657.2,273.5 656.9,273.4 656.6,273.3C656.2,273.1 656,273 655.9,273L600.4,305.3C600.5,305.4 600.7,305.5 601,305.6C601.4,305.8 601.7,305.9 602,306C602.5,306.2 602.9,306.4 603.3,306.6C603.4,306.7 603.5,306.7 603.7,306.8C604.1,307 604.6,307.2 605.1,307.4C605.8,307.7 606.4,308 607.1,308.2C607.3,308.3 607.4,308.3 607.6,308.4C608.2,308.7 608.8,308.9 609.5,309.2C610.5,309.6 611.3,309.9 612.1,310.3C612.3,310.4 612.6,310.5 612.8,310.6C613.5,310.9 614.3,311.2 615.1,311.5C616.2,312 616.9,312.2 617.6,312.5C618.6,312.9 619.5,313.2 620.3,313.6C620.6,313.7 620.9,313.8 621.2,314C621.7,314.2 622.3,314.4 622.9,314.6C623.2,314.7 623.6,314.9 623.9,315C624.5,315.2 625,315.4 625.6,315.6C626,315.7 626.4,315.9 626.8,316C627.4,316.2 627.9,316.4 628.5,316.6C628.9,316.8 629.3,316.9 629.7,317.1C630.3,317.3 630.8,317.5 631.4,317.7C631.8,317.9 632.3,318 632.7,318.2C633.3,318.4 633.9,318.6 634.5,318.8C634.9,319 635.4,319.1 635.8,319.3C636.4,319.5 637,319.7 637.6,320C637.9,320.1 638.2,320.2 638.6,320.3C640.5,321 642.1,321.5 643.8,322.1C644.1,322.2 644.4,322.3 644.7,322.4C646.4,323 648.1,323.5 649.8,324.1C650.1,324.2 650.3,324.3 650.6,324.4C652.4,325 654.3,325.6 656.2,326.2C658.4,326.9 660.3,327.5 662.2,328.1C662.3,328.1 662.5,328.2 662.6,328.2C666.2,329.3 669.8,330.3 673.4,331.3C677.4,332.4 681.1,333.4 684.8,334.3C688.4,335.2 691.6,336 694.8,336.7C695.1,336.8 695.3,336.8 695.6,336.9C698.9,337.6 702.1,338.3 705.4,339C708.4,339.6 711.4,340.1 714.3,340.6C714.5,340.6 714.7,340.7 715,340.7C717.8,341.2 720.5,341.6 723.3,342C723.4,342 723.6,342 723.8,342.1C724,342.1 724.1,342.1 724.3,342.2C726.7,342.5 729.1,342.8 731.5,343.1C731.8,343.1 732.2,343.2 732.5,343.2C734.9,343.4 737.3,343.7 739.7,343.8L740.7,343.8C742.9,343.9 745.1,344.1 747.2,344.1L748.2,344.1C750.4,344.2 752.5,344.2 754.7,344.2L755.7,344.2C757.8,344.2 759.8,344.1 761.9,344.1L762.4,344.1C764.4,344 766.5,343.9 768.4,343.7C770.9,343.5 772.9,343.2 774.8,343C775.1,343 775.4,342.9 775.7,342.9C777.6,342.6 779.4,342.3 781.3,342C781.5,342 781.6,341.9 781.8,341.9C781.9,341.9 782.1,341.8 782.2,341.8C784.2,341.4 786.2,340.9 788.1,340.4C788.4,340.3 788.7,340.2 788.9,340.2C790.8,339.7 792.7,339.1 794.6,338.4C795.2,338.2 795.3,338.1 795.5,338.1C797,337.5 798.6,337 800.1,336.3L855.7,304.1Z" style="fill:rgb(51,51,51);fill-rule:nonzero;"/>
                    </g>
                    <g>
                        <path d="M999.5,535.8L998.7,816.3C998.7,818.9 998.6,821.5 998.4,824.1C998.4,824.7 998.3,825.3 998.3,825.8C998.1,828.3 997.9,830.7 997.6,833C997.6,833.3 997.5,833.5 997.5,833.8C997.2,835.9 996.9,838 996.5,840C996.4,840.8 996.2,841.5 996,842.3C995.7,843.9 995.3,845.4 994.9,847C994.7,847.8 994.5,848.5 994.3,849.3C994,850.4 993.6,851.6 993.3,852.7C992.9,854.1 992.4,855.5 991.9,856.9C991.5,857.9 991.2,858.9 990.8,859.8C990.2,861.3 989.6,862.7 989,864.1C988.5,865.1 988,866.2 987.5,867.2C987.1,868 986.7,868.7 986.3,869.5C985.7,870.7 985,871.8 984.3,873C983.9,873.7 983.5,874.4 983,875.1C982.4,876.1 981.7,877.1 981,878.1C980.4,878.9 979.9,879.8 979.3,880.6C978.6,881.6 977.9,882.5 977.1,883.4C976.5,884.2 975.9,885 975.3,885.7C974.5,886.6 973.7,887.5 972.9,888.4C972.3,889.1 971.6,889.8 971,890.5C970.2,891.4 969.3,892.2 968.4,893C967.7,893.7 967.1,894.3 966.4,895C965.5,895.8 964.6,896.6 963.6,897.4C962.9,898 962.3,898.6 961.6,899.2C960.6,900 959.6,900.8 958.5,901.6C957.8,902.1 957.2,902.6 956.5,903.1C955.3,904 954.1,904.8 952.9,905.6C952.3,906 951.8,906.4 951.2,906.8C949.4,908 947.6,909.1 945.7,910.2L1001.2,877.9C1003.1,876.8 1004.9,875.7 1006.7,874.5C1007.3,874.1 1007.9,873.7 1008.5,873.3C1009.7,872.5 1010.9,871.7 1012,870.9C1012.7,870.4 1013.3,869.9 1014,869.3C1015,868.5 1016,867.8 1017,866.9C1017.7,866.3 1018.4,865.7 1019.1,865.1C1020,864.3 1021,863.5 1021.9,862.7C1022.6,862.1 1023.3,861.4 1023.9,860.7C1024.8,859.9 1025.6,859 1026.4,858.2C1027.1,857.5 1027.7,856.8 1028.4,856C1029.2,855.1 1030,854.3 1030.7,853.3C1031.3,852.5 1031.9,851.8 1032.5,851C1033.2,850.1 1034,849.2 1034.7,848.2C1035.3,847.4 1035.9,846.5 1036.4,845.7C1036.9,845 1037.4,844.3 1037.9,843.6C1038.1,843.3 1038.3,843 1038.4,842.7C1038.8,842 1039.2,841.3 1039.7,840.6C1040.4,839.5 1041,838.3 1041.6,837.1C1042,836.3 1042.4,835.6 1042.8,834.8C1043.1,834.3 1043.4,833.8 1043.6,833.2C1043.8,832.7 1044,832.2 1044.2,831.7C1044.8,830.3 1045.5,828.8 1046,827.4C1046.2,826.8 1046.5,826.3 1046.7,825.7C1046.9,825.3 1047,824.9 1047.1,824.4C1047.6,823 1048.1,821.6 1048.5,820.2C1048.7,819.5 1049,818.8 1049.2,818.1C1049.3,817.7 1049.4,817.3 1049.5,816.8C1049.7,816.1 1049.9,815.3 1050.1,814.5C1050.3,813.7 1050.5,813 1050.7,812.2C1050.9,811.4 1051,810.6 1051.2,809.8C1051.4,809 1051.5,808.3 1051.7,807.5C1051.8,807.1 1051.9,806.6 1052,806.2C1052.3,804.6 1052.5,802.9 1052.7,801.3C1052.7,801 1052.8,800.8 1052.8,800.5C1053,798.6 1053.2,796.9 1053.4,795.1C1053.5,794.5 1053.5,793.9 1053.5,793.3C1053.5,792.7 1053.6,792.1 1053.6,791.6C1053.6,791 1053.7,790.4 1053.7,789.8C1053.8,788 1053.8,786.1 1053.8,784.2C1053.8,783.9 1054.6,503.4 1054.6,503.4L999.5,535.8Z" style="fill:rgb(51,51,51);fill-rule:nonzero;"/>
                    </g>
                    <g>
                        <path d="M993.2,531.2C993.5,531.4 993.7,531.6 993.9,531.7C994.1,531.9 994.4,532 994.6,532.2C994.8,532.3 994.9,532.4 995.1,532.5C995.4,532.7 995.6,532.9 995.9,533.1C996.1,533.2 996.2,533.3 996.4,533.5C996.6,533.6 996.8,533.8 997,533.9C997.1,534 997.3,534.1 997.4,534.2C998,534.7 998.6,535 999,535.3C999.3,535.5 999.5,535.7 999.7,535.8L1055.2,503.5C1054.9,503.3 1054.5,503 1053.8,502.5C1053.6,502.3 1053.4,502.2 1053.1,502C1052.6,501.7 1052.1,501.3 1051.5,500.8C1051.3,500.7 1051.2,500.6 1051,500.4C1050.8,500.2 1050.5,500.1 1050.3,499.9C1050.1,499.7 1049.9,499.6 1049.6,499.4C1049.4,499.2 1049.1,499.1 1048.9,498.9C1048.7,498.7 1048.5,498.6 1048.2,498.4C1047.9,498.2 1047.6,498 1047.3,497.8C1047.2,497.7 1047.1,497.6 1047,497.6C1046.4,497.2 1045.9,496.8 1045.2,496.3C1045,496.1 1044.8,496 1044.5,495.8C1043.9,495.4 1043.3,494.9 1042.7,494.5C1042.5,494.4 1042.3,494.2 1042.1,494.1C1041.3,493.5 1040.5,492.9 1039.6,492.2C1039.4,492.1 1039.2,491.9 1039,491.8C1038.3,491.3 1037.6,490.7 1036.8,490.2C1036.5,490 1036.2,489.8 1035.9,489.5C1035.1,488.9 1034.3,488.3 1033.5,487.7C1033.3,487.6 1033.1,487.4 1032.9,487.3C1031.9,486.5 1030.9,485.7 1029.8,484.9C1029.5,484.7 1029.3,484.5 1029,484.3C1028.2,483.7 1027.4,483 1026.5,482.4C1026.1,482.1 1025.8,481.8 1025.4,481.6C1024.4,480.8 1023.5,480.1 1022.5,479.3C1022.3,479.2 1022.2,479 1022,478.9C1020,477.3 1017.8,475.6 1015.6,473.8C1015.5,473.7 1015.4,473.6 1015.3,473.5C1013.2,471.8 1011.1,470.1 1008.9,468.3C1008.7,468.1 1008.5,467.9 1008.2,467.8C1006.1,466 1003.9,464.2 1001.7,462.4C1001.4,462.2 1001.2,462 1000.9,461.7C998.7,459.8 996.4,457.9 994.1,455.9C993.8,455.7 993.6,455.5 993.3,455.2C991.4,453.6 989.4,451.9 987.4,450.2C987.1,449.9 986.7,449.6 986.4,449.3C984.4,447.6 982.4,445.8 980.4,444C980.1,443.7 979.8,443.4 979.5,443.2C977.4,441.4 975.3,439.5 973.2,437.6C973,437.4 972.8,437.2 972.6,437C970.4,435 968.1,432.9 965.8,430.9C963.8,429.1 962,427.4 960.1,425.6C959.7,425.2 959.3,424.9 958.9,424.5C957,422.8 955.2,421 953.3,419.2C953,418.9 952.6,418.5 952.3,418.2C950.5,416.5 948.7,414.8 946.9,413C946.7,412.8 946.5,412.6 946.2,412.4C944.3,410.5 942.4,408.7 940.4,406.8C940.1,406.5 939.8,406.2 939.5,405.9C935.6,402.1 931.8,398.2 928,394.2C927.8,394 927.6,393.8 927.3,393.5C923.5,389.5 919.6,385.5 915.8,381.3C915.6,381.1 915.4,380.8 915.2,380.6C911.3,376.3 907.4,372 903.5,367.6C903.3,367.4 903.1,367.2 902.9,367C899,362.5 895.2,358 891.4,353.5C891.2,353.3 891.1,353.1 890.9,352.9C887.8,349.2 884.8,345.4 881.9,341.6C881.7,341.3 881.5,341.1 881.3,340.8C878.4,337 875.5,333.2 872.7,329.4C872.6,329.3 872.5,329.1 872.4,329C869.6,325.1 866.8,321.2 864.1,317.3C863.9,317 863.7,316.7 863.5,316.4C860.8,312.4 858.2,308.4 855.7,304.4L800.2,336.7C802.7,340.7 805.3,344.7 808,348.7C808.2,349 808.4,349.3 808.6,349.6C811.3,353.5 814,357.4 816.8,361.3C816.9,361.4 817,361.6 817.1,361.7C819.9,365.5 822.7,369.3 825.7,373.1C825.9,373.4 826.1,373.7 826.3,373.9C829.2,377.7 832.2,381.4 835.3,385.1C835.6,385.5 835.7,385.6 835.8,385.7C839.6,390.3 843.4,394.8 847.3,399.2C847.5,399.4 847.7,399.6 847.9,399.9C851.8,404.3 855.7,408.7 859.6,412.9L860.3,413.6C864.1,417.7 867.9,421.8 871.8,425.7C872,425.9 872.3,426.2 872.5,426.4C876.3,430.4 880.2,434.3 884,438.1C884.1,438.2 884.2,438.3 884.3,438.4C884.5,438.6 884.7,438.8 885,439C886.9,440.9 888.8,442.8 890.7,444.6C890.9,444.8 891.1,445 891.4,445.2C893.2,446.9 895,448.7 896.8,450.4C897.1,450.7 897.5,451.1 897.8,451.4C899.7,453.2 901.6,455 903.4,456.7C903.8,457.1 904.2,457.5 904.6,457.8C906.5,459.6 908.4,461.3 910.2,463C912.6,465.2 914.8,467.2 917,469.2C917.2,469.4 917.4,469.6 917.6,469.8C919.7,471.7 921.8,473.6 923.9,475.4C924.2,475.7 924.5,476 924.9,476.2C926.9,478 928.9,479.7 930.9,481.4C931.2,481.7 931.6,482 931.9,482.3C933.9,484 935.8,485.7 937.7,487.3C937.8,487.4 938,487.5 938.1,487.6C938.3,487.7 938.4,487.9 938.6,488C940.9,490 943.2,491.9 945.4,493.7C945.7,493.9 946,494.2 946.2,494.4C948.4,496.3 950.6,498 952.7,499.8C952.9,500 953.1,500.2 953.4,500.3C955.6,502.1 957.8,503.9 959.8,505.5C959.9,505.6 960,505.7 960.1,505.8C962.3,507.6 964.4,509.3 966.5,510.9C966.7,511.1 966.9,511.2 967,511.3C968,512.1 969,512.9 969.9,513.6C970.3,513.9 970.6,514.2 971,514.4C971.8,515.1 972.7,515.7 973.5,516.3C973.8,516.5 974,516.7 974.3,516.9C975.3,517.7 976.4,518.5 977.4,519.3C977.6,519.5 977.8,519.6 978,519.8C978.8,520.4 979.6,521 980.3,521.6C980.6,521.8 980.9,522 981.2,522.3C981.9,522.8 982.6,523.4 983.3,523.9C983.5,524.1 983.7,524.2 983.9,524.4C984.8,525 985.6,525.7 986.4,526.3C986.6,526.5 986.8,526.6 987,526.7C987.6,527.2 988.2,527.6 988.8,528C989,528.2 989.2,528.3 989.5,528.5C990.1,529 990.7,529.4 991.3,529.8C991.9,530.3 992.2,530.5 992.5,530.7C992.7,530.9 993,531 993.2,531.2Z" style="fill-rule:nonzero;"/>
                    </g>
                    <g>
                        <path d="M800.2,336.3C734.1,364.8 607.1,308.3 600.4,305.3L599.6,585.8C599.2,711.4 757.8,892.9 798.5,930.3C839.3,939.9 998.3,941.8 998.7,816.2L999.5,535.7C992.8,531 865.9,440.9 800.2,336.3Z" style="fill:rgb(28,28,28);fill-rule:nonzero;"/>
                    </g>
                </g>
            </g>
            <g>
                <g>
                    <path d="M843.6,609.5L840.5,607.7L840.6,579.2C840.7,556.5 824.7,528.9 805,517.5L798,513.5C778.3,502.1 762.2,511.3 762.2,533.9L762.1,562.4L758.4,560.3C744.1,552.1 732.5,558.7 732.5,575.1L732.2,672.9C732.2,689.3 743.7,709.3 758,717.5L843.1,766.6C857.4,774.8 869,768.2 869,751.8L869.3,654C869.4,637.8 857.8,617.8 843.6,609.5ZM822.2,597.2L780.5,573.1L780.6,549.2C780.6,535.9 790,530.6 801.5,537.3C813,543.9 822.3,560.1 822.3,573.3L822.2,597.2Z" style="fill-rule:nonzero;"/>
                </g>
                <g>
                    <path d="M792.9,662.4L737.4,694.7L755.9,705.4L811.4,673.1L792.9,662.4Z" style="fill:rgb(35,31,32);fill-rule:nonzero;"/>
                </g>
                <g>
                    <path d="M795,638.1C794.4,637.3 793.8,636.5 793.3,635.7C793.1,635.4 792.9,635.2 792.8,634.9C792.3,634.1 791.9,633.3 791.4,632.5C791.3,632.3 791.1,632.1 791,631.8C790.9,631.6 790.8,631.5 790.8,631.3C790.5,630.6 790.2,630 789.9,629.3C789.5,628.3 789.2,627.6 789,626.8C788.7,625.9 788.5,625.1 788.3,624.3C788.1,623.4 788,622.6 787.9,621.8C787.8,620.9 787.8,620.1 787.8,619.3C787.8,618.7 787.8,618.2 787.9,617.7C788,617.1 788,616.6 788.1,616.2C788.2,615.6 788.3,615.2 788.4,614.8C788.6,614.2 788.7,613.9 788.9,613.5C789.1,613 789.3,612.7 789.5,612.3C789.8,611.8 790.1,611.4 790.5,611.1C791.2,610.5 791.6,610.2 792,609.9L736.5,642.2C736.1,642.5 735.7,642.8 735.3,643.1C734.7,643.7 734.3,644.1 734,644.6C733.8,644.9 733.6,645.3 733.4,645.6C733.2,646 733.1,646.2 733.1,646.4C732.8,647.4 732.7,647.7 732.7,647.9C732.5,648.8 732.5,649.1 732.5,649.3L732.5,649.7C732.5,650.2 732.4,650.5 732.4,650.7L732.4,652.8C732.4,653 732.4,653.3 732.5,653.5C732.6,654.5 732.6,654.7 732.7,655C732.7,655.3 732.8,655.5 732.8,655.8C732.8,656 732.9,656.2 732.9,656.4C733,656.9 733.1,657.2 733.1,657.4C733.2,657.7 733.2,658 733.3,658.3C733.4,658.5 733.4,658.7 733.5,658.9C733.7,659.6 733.8,659.9 733.9,660.2C734,660.6 734.2,660.9 734.3,661.3C734.6,661.9 734.7,662.3 734.8,662.6C734.9,662.9 735.1,663.2 735.3,663.6C735.4,663.8 735.4,663.9 735.5,664.1C735.7,664.5 735.8,664.6 735.9,664.8C736.3,665.6 736.8,666.4 737.3,667.1C737.5,667.4 737.6,667.6 737.8,667.9C738.4,668.7 738.9,669.5 739.5,670.3C739.8,670.7 737.8,690.7 737.8,690.7L737.4,694.6L792.9,662.3L793.3,658.4L795.3,638.4C795.2,638.3 795.1,638.2 795,638.1Z" style="fill-rule:nonzero;"/>
                </g>
                <g>
                    <path d="M759.8,524.6C759.5,524.4 759.3,524.3 759,524.1C758.6,523.9 758.3,523.7 757.9,523.6C757.7,523.5 757.4,523.4 757.2,523.3C756.5,523 756.1,522.8 755.8,522.7C755.4,522.6 755.1,522.4 754.8,522.3C754.2,522.1 754,522 753.8,522C753.4,521.9 753.1,521.8 752.7,521.7C752.5,521.7 752.4,521.6 752.2,521.6C751.3,521.4 750.9,521.3 750.5,521.3C750.3,521.3 750,521.3 749.8,521.2C748.9,521.1 748.5,521.1 748.1,521.1L746.8,521.1C746.3,521.1 745.8,521.2 745.3,521.3C744.5,521.5 744,521.6 743.5,521.8C742.7,522.1 742,522.4 741.4,522.8L686,555.1C686.6,554.7 687.3,554.4 688,554.2C688.5,554 689,553.9 689.6,553.7C690.5,553.5 691.2,553.4 691.9,553.4L694.3,553.4C695.2,553.5 695.9,553.6 696.7,553.8C697.7,554 698.4,554.2 699.2,554.5C700.2,554.8 701,555.2 701.8,555.5C702.8,556 703.7,556.4 704.5,556.9L708.2,559L763.7,526.7L759.8,524.6Z" style="fill:rgb(242,142,0);fill-rule:nonzero;"/>
                </g>
                <g>
                    <path d="M781.8,537.3L726.3,569.6L768.1,593.7L823.6,561.4L781.8,537.3Z" style="fill:rgb(35,31,32);fill-rule:nonzero;"/>
                </g>
                <g>
                    <path d="M782,510.9C782.1,510.2 782.2,509.6 782.3,509C782.5,508.1 782.6,507.6 782.8,507C783.1,506.2 783.3,505.7 783.5,505.2C783.8,504.5 784.1,504 784.4,503.5C784.8,502.8 785.3,502.2 785.8,501.7C785.9,501.6 786.1,501.4 786.2,501.3C786.7,500.8 787.3,500.3 788,500L732.5,532.3C731.9,532.7 731.3,533.1 730.7,533.6C730.6,533.7 730.4,533.8 730.3,534C729.8,534.5 729.3,535.1 728.9,535.8C728.6,536.3 728.3,536.7 728.1,537.3C727.9,537.8 727.7,538.2 727.6,538.5C727.5,538.7 727.5,538.8 727.4,539C727.1,539.9 727,540.3 726.9,540.6C726.9,540.7 726.8,540.9 726.8,541C726.6,542 726.6,542.3 726.5,542.6C726.5,542.8 726.5,543 726.4,543.2C726.3,544 726.3,544.3 726.3,544.6L726.3,545.6C726.3,545.7 726.2,569.6 726.2,569.6L781.7,537.3L781.8,513.4C781.8,512.6 781.8,511.8 781.9,511.1C782,511.1 782,511 782,510.9Z" style="fill-rule:nonzero;"/>
                </g>
                <g>
                    <path d="M870.5,716.2L870.8,618.4L870.8,617.2C870.8,616.8 870.8,616.4 870.7,616L870.7,615.4C870.7,615 870.7,614.9 870.6,614.7C870.6,614.3 870.5,613.9 870.5,613.4C870.4,613 870.4,612.5 870.3,612.1C870.2,611.6 870.2,611.2 870.1,610.8C870,610.3 869.9,609.9 869.8,609.4C869.8,609.3 869.7,609.1 869.7,609C869.6,608.5 869.5,608.2 869.5,608C869.4,607.5 869.2,607 869.1,606.5C869,606.3 869,606.1 868.9,605.9C868.9,605.8 868.8,605.6 868.8,605.5C868.7,605.3 868.7,605.1 868.6,604.9C868.4,604.3 868.2,603.7 868,603.2C867.9,603.1 867.9,602.9 867.8,602.8C867.7,602.6 867.7,602.4 867.6,602.2C867.5,601.9 867.4,601.5 867.2,601.2C867,600.7 866.8,600.3 866.6,599.8C866.5,599.6 866.4,599.4 866.3,599.1C865.9,598.3 865.7,597.7 865.4,597.2C865.2,596.8 865,596.4 864.8,596C864.4,595.2 864,594.5 863.6,593.8C863.4,593.5 863.3,593.2 863.1,593C862.5,592 861.9,591 861.3,590.1C861.2,589.9 861.1,589.8 860.9,589.6C860.4,588.8 859.9,588.1 859.3,587.3C859.1,587 858.8,586.7 858.6,586.4C858.2,585.9 857.8,585.4 857.4,584.9C856.9,584.4 856.6,584 856.3,583.7C855.9,583.3 855.6,582.9 855.2,582.5C854.8,582.1 854.6,581.9 854.5,581.7C854.2,581.4 853.9,581.1 853.6,580.7L852.4,579.5C851.7,578.9 851.3,578.5 850.8,578.1C850.6,577.9 850.4,577.7 850.2,577.6C849.8,577.3 849.7,577.2 849.6,577.1C849.2,576.8 848.8,576.5 848.4,576.2C848.1,576 847.8,575.8 847.5,575.6C846.9,575.2 846.5,574.9 846.1,574.7C845.7,574.5 845.4,574.2 845,574C844.7,573.9 841.7,572.1 841.7,572.1L786.2,604.4L789.3,606.2C790.2,606.7 791,607.3 791.9,607.8C792.8,608.5 793.6,609.1 794.4,609.7C795.4,610.5 796.2,611.2 796.9,611.8L799.5,614.4C799.9,614.9 800.4,615.4 800.8,615.9C801.1,616.3 801.4,616.6 801.7,617C802.2,617.6 802.6,618.1 803,618.7C803.2,619 803.5,619.3 803.7,619.6C804.2,620.3 804.8,621.1 805.3,621.9C805.4,622.1 805.5,622.2 805.7,622.4C806.3,623.3 806.9,624.3 807.5,625.3C807.7,625.6 807.8,625.9 808,626.1C808.4,626.8 808.8,627.5 809.2,628.3C809.4,628.7 809.6,629.1 809.8,629.5C810.1,630.1 810.4,630.8 810.7,631.4C810.8,631.6 810.9,631.8 811,632.1C811.3,632.9 811.7,633.7 812,634.5C812.1,634.7 812.1,634.9 812.2,635.1C812.5,636 812.9,637 813.1,637.9C813.1,638 813.2,638.2 813.2,638.3C813.5,639.3 813.7,640.2 814,641.2C814.3,642.5 814.5,643.5 814.7,644.6C814.9,645.7 815,646.7 815.1,647.7C815.2,649 815.2,650 815.2,650.9L814.9,748.7C814.9,749.7 814.8,750.6 814.8,751.5C814.7,752.6 814.6,753.4 814.4,754.2C814.2,755.3 814,756 813.8,756.7C813.8,756.8 813.7,757 813.7,757.1C813.5,757.7 813.2,758.4 813,758.9C812.6,759.8 812.3,760.4 811.9,761C811.4,761.7 811.1,762.1 810.7,762.5C810.6,762.6 810.4,762.8 810.3,762.9C810,763.2 809.7,763.5 809.3,763.8C809.2,763.9 809,764 808.9,764.2C808.4,764.6 807.9,764.9 807.4,765.2L862.9,732.9C863.4,732.6 863.9,732.2 864.4,731.9C864.5,731.8 864.7,731.7 864.8,731.5C865.1,731.2 865.5,730.9 865.8,730.6C865.9,730.5 866.1,730.3 866.2,730.2C866.6,729.8 866.9,729.3 867.2,728.9C867.7,728.1 868.1,727.5 868.4,726.9C868.7,726.2 868.9,725.8 869,725.4C869.1,725.2 869.1,725 869.2,724.8C869.2,724.7 869.3,724.5 869.3,724.4C869.5,723.6 869.7,723.2 869.8,722.7C869.8,722.5 869.9,722.4 869.9,722.2C870,721.7 870,721.6 870.1,721.4C870.2,721 870.2,720.6 870.3,720.2C870.3,720 870.3,719.7 870.4,719.5C870.5,718.6 870.5,718.2 870.5,717.7C870.4,717.1 870.5,716.7 870.5,716.2Z" style="fill:rgb(250,184,58);fill-rule:nonzero;"/>
                </g>
                <g>
                    <path d="M789.4,606L786.3,604.2L786.4,575.7C786.5,553 770.5,525.4 750.8,514L743.8,510C724.1,498.6 708,507.8 708,530.4L708,559L704.3,556.9C690,548.7 678.4,555.3 678.4,571.7L678.1,669.5C678.1,685.9 689.6,705.9 703.9,714.1L789,763.2C803.3,771.4 814.9,764.8 814.9,748.4L815.2,650.6C815.3,634.3 803.7,614.3 789.4,606ZM753.7,678.7L755.9,705.3L737.4,694.6L737.8,690.7L739.8,670.7C735.3,665.3 732.2,658 732.2,651.6C732.2,642.4 738.8,638.6 746.8,643.3C748.8,644.4 750.7,646 752.4,647.8C757.7,653.4 761.4,661.4 761.3,668.4C761.3,674.8 758.2,678.5 753.7,678.7ZM768.1,593.7L726.4,569.6L726.5,545.7C726.5,532.4 735.9,527.1 747.4,533.8C758.9,540.4 768.2,556.6 768.2,569.8L768.1,593.7Z" style="fill:rgb(242,142,0);fill-rule:nonzero;"/>
                </g>
                <g>
                    <path d="M842,541.9C842,541.3 842,540.8 841.9,540.2C841.9,539.9 841.9,539.7 841.8,539.4C841.8,538.8 841.7,538.6 841.7,538.4C841.6,537.8 841.6,537.2 841.5,536.6C841.4,536 841.3,535.4 841.2,534.8C841.1,534.1 841,533.6 840.9,533C840.8,532.4 840.6,531.7 840.5,531.1C840.5,530.9 840.4,530.7 840.4,530.6C840.4,530.5 840.3,530.3 840.3,530.2C840.2,529.9 840.1,529.5 840.1,529.2C839.9,528.5 839.7,527.8 839.5,527.1C839.4,526.8 839.3,526.5 839.3,526.3C839.2,526.1 839.2,525.9 839.1,525.7C839,525.4 838.9,525.1 838.8,524.8C838.5,524 838.3,523.2 838,522.4C837.9,522.2 837.8,522 837.8,521.8C837.7,521.5 837.6,521.3 837.5,521C837.3,520.5 837.2,520.1 837,519.6C836.7,519 836.5,518.3 836.2,517.7C836.1,517.4 835.9,517.1 835.8,516.8C835.7,516.7 835.7,516.5 835.6,516.4C835.3,515.6 834.9,514.9 834.5,514.1C834.2,513.5 834,513 833.7,512.4C833.1,511.3 832.6,510.4 832.1,509.5C831.9,509.1 831.7,508.7 831.4,508.3C830.6,506.9 829.8,505.6 828.9,504.3C828.7,504 828.5,503.8 828.4,503.5C827.7,502.5 827,501.4 826.3,500.4C826,499.9 825.6,499.5 825.3,499.1C824.8,498.4 824.2,497.7 823.7,497C823.1,496.3 822.6,495.8 822.2,495.3C821.7,494.7 821.2,494.2 820.7,493.6L819.7,492.6C819.3,492.2 818.9,491.7 818.4,491.3C818,490.9 817.6,490.5 817.2,490.1C817,490 816.9,489.8 816.7,489.6C816.6,489.5 816.5,489.4 816.4,489.3C815.8,488.7 815.2,488.2 814.5,487.7C814.2,487.4 813.9,487.2 813.6,487C813.5,486.9 813.4,486.8 813.2,486.7C813.1,486.6 812.9,486.5 812.8,486.4C812.3,486 811.7,485.6 811.2,485.2C810.8,484.9 810.4,484.6 810,484.3C809.1,483.7 808.6,483.3 808.1,483C807.6,482.7 807.1,482.4 806.6,482.1C806.5,482 806.4,482 806.2,481.9L799.2,477.9C798.8,477.7 798.4,477.5 798.1,477.3C797.6,477 797.1,476.8 796.6,476.5C796.3,476.3 796,476.2 795.7,476.1C794.7,475.6 794.2,475.4 793.8,475.3C793.3,475.1 792.8,474.9 792.4,474.8C791.6,474.5 791.3,474.4 791,474.3C790.5,474.2 790,474 789.5,473.9C789.3,473.8 789,473.8 788.8,473.7C788.3,473.6 788.2,473.6 788,473.5C787.5,473.4 787,473.3 786.4,473.2C786.1,473.2 785.8,473.1 785.5,473.1C784.3,473 783.7,473 783.2,473L781.3,473C780.6,473.1 779.9,473.2 779.2,473.3C779,473.3 778.9,473.4 778.7,473.4C778,473.6 777.3,473.7 776.7,474C775.6,474.4 774.7,474.8 773.8,475.3L718.3,507.6C719.2,507.1 720.1,506.7 721,506.3C721.7,506 722.4,505.8 723.2,505.7C723.4,505.7 723.5,505.6 723.6,505.6C724.5,505.4 725.4,505.3 726.3,505.3L726.9,505.3C727.8,505.3 728.7,505.3 729.6,505.4C730.9,505.5 731.9,505.7 732.9,505.9C734.2,506.2 735.3,506.5 736.3,506.8C737.6,507.3 738.8,507.7 739.9,508.2C741.3,508.8 742.5,509.5 743.7,510.1L750.7,514.1C751.9,514.8 753.1,515.6 754.3,516.4C755.6,517.3 756.7,518.1 757.8,519C757.9,519.1 758.1,519.2 758.2,519.3C759.2,520.1 760.2,521 761.2,522C761.4,522.1 761.5,522.3 761.7,522.5C762.5,523.3 763.4,524.1 764.2,525C764.4,525.2 764.7,525.5 764.9,525.7C765.5,526.4 766.1,527.1 766.7,527.7C767.1,528.2 767.6,528.7 768,529.2C768.6,530 769.2,530.8 769.8,531.5C770.1,531.9 770.5,532.4 770.8,532.8C771.5,533.8 772.3,534.9 773,535.9C773.2,536.1 773.3,536.4 773.5,536.6C774.4,537.9 775.2,539.2 776,540.6C776.2,541 776.4,541.4 776.7,541.8C777.2,542.8 777.8,543.7 778.3,544.7C778.6,545.2 778.8,545.8 779.1,546.4C779.5,547.3 779.9,548.1 780.3,549C780.4,549.3 780.6,549.6 780.7,549.9C781.2,551 781.6,552.1 782,553.2C782.1,553.5 782.2,553.7 782.3,554C782.8,555.3 783.2,556.6 783.6,557.8C783.7,558 783.7,558.2 783.8,558.4C784.2,559.7 784.5,561 784.9,562.4C784.9,562.5 785,562.7 785,562.8C785.3,564.2 785.6,565.6 785.8,567C786,568.5 786.2,569.9 786.3,571.2C786.4,572.9 786.5,574.3 786.5,575.7L786.4,604.2L841.9,571.9L842,543.4L842,541.9Z" style="fill:rgb(255,166,0);fill-rule:nonzero;"/>
                </g>
            </g>
        </g>
    </g>
</svg>
