<?xml version="1.0" encoding="UTF-8" standalone="no"?>
<!DOCTYPE svg PUBLIC "-//W3C//DTD SVG 1.1//EN" "http://www.w3.org/Graphics/SVG/1.1/DTD/svg11.dtd">
<svg width="100%" height="100%" viewBox="0 0 1920 1080" version="1.1" xmlns="http://www.w3.org/2000/svg" xmlns:xlink="http://www.w3.org/1999/xlink" xml:space="preserve" xmlns:serif="http://www.serif.com/" style="fill-rule:evenodd;clip-rule:evenodd;stroke-miterlimit:10;">
    <g>
        <g>
            <g>
                <path d="M1164.6,67.7L1027.7,149.8" style="fill:none;fill-rule:nonzero;stroke:white;stroke-width:1px;"/>
                <path d="M514.9,188.1L760.9,344.8" style="fill:none;fill-rule:nonzero;stroke:white;stroke-width:1px;"/>
                <path d="M106.5,-46.7L352.5,110.1" style="fill:none;fill-rule:nonzero;stroke:white;stroke-width:1px;"/>
                <path d="M206.5,626.8L600.9,873.3L455.1,960.5" style="fill:none;fill-rule:nonzero;stroke:white;stroke-width:1px;"/>
                <path d="M-19.8,144.8L374.5,391.3L228.7,478.5" style="fill:none;fill-rule:nonzero;stroke:white;stroke-width:1px;"/>
                <path d="M523.3,999.9L717.9,878.9" style="fill:none;fill-rule:nonzero;stroke:rgb(230,230,230);stroke-width:1px;"/>
                <path d="M962.2,862.6L1215.2,1016.5L1155.6,1055.7" style="fill:none;fill-rule:nonzero;stroke:rgb(230,230,230);stroke-width:1px;"/>
                <path d="M1536,798L1394.4,711.6L1049.5,915.7" style="fill:none;fill-rule:nonzero;stroke:white;stroke-width:1px;"/>
                <path d="M1325.6,63.9L1619,234.4" style="fill:none;fill-rule:nonzero;stroke:white;stroke-width:1px;"/>
                <path d="M1516.6,384L1358.9,476.9L1782.6,723L1711.2,765.4" style="fill:none;fill-rule:nonzero;stroke:white;stroke-width:1px;"/>
                <path d="M1651.2,732.6C1650,732.6 1648.9,732.8 1648,733.3L1420,864.9C1419.7,865.1 1419.2,865.4 1419.2,865.9C1419.2,866.3 1419.6,866.9 1420.7,867.6L1557.7,946.7C1559.9,948 1563.4,948.1 1565.2,947.1L1793.2,815.5C1793.5,815.3 1794,815 1794,814.5C1794,814.1 1793.6,813.5 1792.5,812.8L1655.5,733.7C1654.3,732.9 1652.7,732.6 1651.2,732.6Z" style="fill:none;fill-rule:nonzero;stroke:white;stroke-width:1px;"/>
                <path d="M1588.1,423.4C1586.1,423.4 1584,422.9 1582.3,421.9L1445.3,342.8C1443.4,341.7 1442.4,340.2 1442.4,338.6C1442.4,337.2 1443.2,335.9 1444.7,335.1L1672.7,203.5C1675.4,201.9 1680,202.1 1683.2,203.9L1820.2,283C1822.1,284.1 1823.1,285.6 1823.1,287.2C1823.1,288.6 1822.3,289.9 1820.8,290.7L1592.8,422.3C1591.5,423 1589.8,423.4 1588.1,423.4Z" style="fill:none;fill-rule:nonzero;stroke:white;stroke-width:1px;"/>
                <path d="M1242.1,110.5C1240.1,110.5 1238,110 1236.3,109L1099.3,29.9C1097.4,28.8 1096.4,27.3 1096.4,25.7C1096.4,24.3 1097.2,23 1098.7,22.2L1326.7,-109.4C1329.4,-111 1334,-110.8 1337.2,-109L1474.2,-29.9C1476.1,-28.8 1477.1,-27.3 1477.1,-25.7C1477.1,-24.3 1476.3,-23 1474.8,-22.2L1246.8,109.4C1245.5,110.2 1243.8,110.5 1242.1,110.5Z" style="fill:none;fill-rule:nonzero;stroke:white;stroke-width:1px;"/>
                <path d="M1018.9,1251.2C1016.9,1251.2 1014.8,1250.7 1013.1,1249.7L876.1,1170.6C874.2,1169.5 873.2,1168 873.2,1166.4C873.2,1165 874,1163.7 875.5,1162.9L1103.5,1031.3C1106.3,1029.7 1110.8,1029.9 1114,1031.7L1251,1110.8C1252.9,1111.9 1253.9,1113.4 1253.9,1115C1253.9,1116.4 1253.1,1117.7 1251.6,1118.5L1023.6,1250.1C1022.3,1250.8 1020.7,1251.2 1018.9,1251.2Z" style="fill:none;fill-rule:nonzero;stroke:white;stroke-width:1px;"/>
                <path d="M389.4,258.9C387.4,258.9 385.3,258.4 383.6,257.4L246.6,178.3C244.7,177.2 243.7,175.7 243.7,174.1C243.7,172.7 244.5,171.4 246,170.6L473.9,39C476.6,37.4 481.2,37.6 484.4,39.4L621.4,118.5C623.3,119.6 624.3,121.1 624.3,122.7C624.3,124.1 623.5,125.4 622,126.2L394,257.8C392.8,258.5 391.1,258.9 389.4,258.9Z" style="fill:none;fill-rule:nonzero;stroke:white;stroke-width:1px;"/>
                <path d="M105.8,683.3C103.8,683.3 101.7,682.8 100,681.8L-37,602.7C-38.9,601.6 -39.9,600.1 -39.9,598.5C-39.9,597.1 -39.1,595.8 -37.6,595L190.4,463.4C193.1,461.8 197.7,462 200.9,463.8L337.9,542.9C339.8,544 340.8,545.5 340.8,547.1C340.8,548.5 340,549.8 338.5,550.6L110.5,682.2C109.1,683 107.5,683.3 105.8,683.3Z" style="fill:none;fill-rule:nonzero;stroke:white;stroke-width:1px;"/>
                <path d="M326.3,1160.5C324.3,1160.5 322.2,1160 320.5,1159L183.5,1079.9C181.6,1078.8 180.6,1077.3 180.6,1075.7C180.6,1074.3 181.4,1073 182.9,1072.2L410.9,940.6C413.6,939 418.2,939.2 421.4,941L558.4,1020.1C560.3,1021.2 561.3,1022.7 561.3,1024.3C561.3,1025.7 560.5,1027 559,1027.8L331,1159.4C329.7,1160.2 328,1160.5 326.3,1160.5Z" style="fill:none;fill-rule:nonzero;stroke:white;stroke-width:1px;"/>
                <g>
                    <g>
                        <g>
                            <g>
                                <path d="M903.6,278.5L881.5,278.5C884.8,271.1 886.8,266.5 886.8,266.5L1106.7,180.7L1106.7,548.3C1106.6,549 1106.2,549.6 1105.4,550.1L904.9,665.9C904.5,666.1 904.1,666.3 903.6,666.4L903.6,278.5Z" style="fill:rgb(255,166,0);fill-rule:nonzero;"/>
                            </g>
                            <path d="M774.5,226L901,298.2L901,519.2L901.1,519.2L901.1,666.8L901,666.8C899.6,666.7 898.1,666.4 896.9,665.7L776.5,596C775.3,595.3 774.6,594.4 774.6,593.5L774.5,226Z" style="fill:rgb(255,166,0);fill-rule:nonzero;"/>
                            <path d="M910.1,187.7L910.1,663L904.9,666C903.9,666.6 902.6,666.8 901.1,666.8C899.6,666.8 899.6,665.9 898.4,665.2L897.3,664.8L898.5,608.4L898.5,520L895.9,187.7L910.1,187.7Z" style="fill-rule:nonzero;"/>
                            <path d="M895.9,609.1L895.9,295.2L901.1,298.2L901.1,519.2L901.2,519.2L901.2,666.8L901.1,666.8C900.8,666.8 900.5,666.8 900.2,666.7L900,666.7C899.3,666.6 898.7,666.4 898.1,666.2L898,666.2C897.7,666.1 897.4,665.9 897.1,665.7L896,665.1L896,609.1L895.9,609.1Z" style="fill-rule:nonzero;"/>
                            <path d="M1096.8,200.9L920.1,303L920.1,646.6L1096.8,544.6L1096.8,200.9Z" style="fill:rgb(28,28,28);fill-rule:nonzero;"/>
                            <path d="M904.9,298.5L1105.4,182.7C1107.4,181.5 1107.2,179.5 1104.8,178.1L984.3,108.5C982,107.1 978.4,107 976.4,108.2L775.9,224.1C773.9,225.3 774.1,227.3 776.5,228.7L897,298.2C899.3,299.6 902.9,299.7 904.9,298.5Z" style="fill-rule:nonzero;"/>
                            <path d="M978.4,120.7L1074.7,176.3L1084,174.6L1084,181.7L902.9,286.3L811.2,224L978.4,120.7Z" style="fill:rgb(28,28,28);fill-rule:nonzero;"/>
                            <path d="M797.2,218.2L797.2,225.3L902.9,286.3L902.9,279.2L797.2,218.2Z" style="fill:rgb(28,28,28);fill-rule:nonzero;"/>
                            <path d="M902.9,279.2L1084,174.6L978.4,113.6L797.2,218.2L902.9,279.2Z" style="fill:rgb(51,51,51);fill-rule:nonzero;"/>
                            <g>
                                <g>
                                    <g>
                                        <path d="M1016.4,167L1019.3,165.3L1019.1,164L992.3,148.4L988.6,150.1L989.3,151.3L1016.4,167Z" style="fill:rgb(255,166,0);fill-rule:nonzero;"/>
                                        <path d="M992.2,149.6L989.3,151.3L987.4,150.2L992.2,147.5L1021.2,164.2L1019.3,165.3L992.2,149.6Z" style="fill-rule:nonzero;"/>
                                    </g>
                                    <g>
                                        <path d="M1007.7,172L1010.5,170.4L1010.3,169L983.5,153.4L979.8,155.2L980.5,156.3L1007.7,172Z" style="fill:rgb(255,166,0);fill-rule:nonzero;"/>
                                        <path d="M983.4,154.7L980.5,156.3L978.7,155.3L983.4,152.5L1012.4,169.3L1010.5,170.4L983.4,154.7Z" style="fill-rule:nonzero;"/>
                                    </g>
                                    <g>
                                        <path d="M998.9,177.1L1001.8,175.4L1001.6,174L974.8,158.5L971.1,160.2L971.8,161.4L998.9,177.1Z" style="fill:rgb(255,166,0);fill-rule:nonzero;"/>
                                        <path d="M974.6,159.7L971.8,161.4L969.9,160.3L974.6,157.6L1003.6,174.3L1001.8,175.4L974.6,159.7Z" style="fill-rule:nonzero;"/>
                                    </g>
                                    <g>
                                        <path d="M990.1,182.1L993,180.4L992.8,179.1L966,163.5L962.3,165.3L963,166.4L990.1,182.1Z" style="fill:rgb(255,166,0);fill-rule:nonzero;"/>
                                        <path d="M965.9,164.8L963,166.4L961.1,165.4L965.9,162.6L994.9,179.4L993,180.4L965.9,164.8Z" style="fill-rule:nonzero;"/>
                                    </g>
                                </g>
                                <g>
                                    <g>
                                        <path d="M964.5,197L967.4,195.3L967.2,194L940.4,178.4L936.7,180.2L937.4,181.3L964.5,197Z" style="fill:rgb(255,166,0);fill-rule:nonzero;"/>
                                        <path d="M940.3,179.6L937.4,181.3L935.5,180.2L940.3,177.5L969.3,194.2L967.4,195.3L940.3,179.6Z" style="fill-rule:nonzero;"/>
                                    </g>
                                    <g>
                                        <path d="M955.8,202L958.7,200.4L958.4,199L931.6,183.4L927.9,185.2L928.6,186.4L955.8,202Z" style="fill:rgb(255,166,0);fill-rule:nonzero;"/>
                                        <path d="M931.5,184.7L928.6,186.4L926.8,185.3L931.5,182.5L960.5,199.3L958.6,200.4L931.5,184.7Z" style="fill-rule:nonzero;"/>
                                    </g>
                                    <g>
                                        <path d="M947,207.1L949.9,205.4L949.7,204.1L922.9,188.5L919.2,190.2L919.9,191.4L947,207.1Z" style="fill:rgb(255,166,0);fill-rule:nonzero;"/>
                                        <path d="M922.7,189.7L919.9,191.4L918,190.3L922.7,187.6L951.7,204.3L949.9,205.4L922.7,189.7Z" style="fill-rule:nonzero;"/>
                                    </g>
                                    <g>
                                        <path d="M938.2,212.1L941.1,210.4L940.9,209.1L914.1,193.5L910.4,195.3L911.1,196.4L938.2,212.1Z" style="fill:rgb(255,166,0);fill-rule:nonzero;"/>
                                        <path d="M914,194.8L911.1,196.4L909.2,195.4L914,192.6L943,209.4L941.1,210.4L914,194.8Z" style="fill-rule:nonzero;"/>
                                    </g>
                                </g>
                                <g>
                                    <g>
                                        <path d="M912.6,227L915.5,225.3L915.3,224L888.5,208.4L884.8,210.2L885.5,211.3L912.6,227Z" style="fill:rgb(255,166,0);fill-rule:nonzero;"/>
                                        <path d="M888.4,209.7L885.5,211.3L883.6,210.2L888.4,207.5L917.4,224.3L915.5,225.3L888.4,209.7Z" style="fill-rule:nonzero;"/>
                                    </g>
                                    <g>
                                        <path d="M903.9,232L906.8,230.4L906.5,229L879.7,213.4L876,215.2L876.7,216.4L903.9,232Z" style="fill:rgb(255,166,0);fill-rule:nonzero;"/>
                                        <path d="M879.6,214.7L876.7,216.4L874.9,215.3L879.6,212.6L908.6,229.3L906.7,230.4L879.6,214.7Z" style="fill-rule:nonzero;"/>
                                    </g>
                                    <g>
                                        <path d="M895.1,237.1L898,235.4L897.8,234.1L871,218.5L867.3,220.3L868,221.4L895.1,237.1Z" style="fill:rgb(255,166,0);fill-rule:nonzero;"/>
                                        <path d="M870.8,219.7L868,221.4L866.1,220.3L870.8,217.6L899.8,234.3L898,235.4L870.8,219.7Z" style="fill-rule:nonzero;"/>
                                    </g>
                                    <g>
                                        <path d="M886.3,242.1L889.2,240.5L889,239.1L862.2,223.5L858.5,225.3L859.2,226.4L886.3,242.1Z" style="fill:rgb(255,166,0);fill-rule:nonzero;"/>
                                        <path d="M862.1,224.8L859.2,226.4L857.3,225.4L862.1,222.6L891.1,239.4L889.2,240.5L862.1,224.8Z" style="fill-rule:nonzero;"/>
                                    </g>
                                </g>
                            </g>
                        </g>
                        <path d="M877,522.7C876.4,522.7 875.8,522.5 875.3,522.2L793,474.7C790.8,473.4 789.4,471 789.4,468.4L789.4,354.6C789.4,353.4 790,352.3 791.1,351.7C792.2,351.1 793.4,351.1 794.5,351.7L876.8,399.2C879,400.5 880.4,402.9 880.4,405.5L880.4,519.3C880.4,520.5 879.8,521.6 878.7,522.2C878.2,522.5 877.6,522.7 877,522.7ZM792.8,353.1C792.5,353.1 792.3,353.2 792.1,353.3C791.6,353.6 791.4,354 791.4,354.6L791.4,468.4C791.4,470.3 792.4,472.1 794.1,473L876.4,520.5C876.9,520.8 877.4,520.8 877.9,520.5C878.4,520.2 878.6,519.8 878.6,519.2L878.6,405.4C878.6,403.5 877.6,401.7 875.9,400.8L793.6,353.3C793.3,353.2 793.1,353.1 792.8,353.1Z" style="fill:rgb(73,85,191);fill-opacity:0.51;fill-rule:nonzero;"/>
                    </g>
                    <g>
                        <path d="M915.3,647.8C915.3,645.5 916.9,642.8 918.9,641.6C919.9,641 920.8,641 921.4,641.4L923.9,642.9C923.3,642.5 922.4,642.6 921.4,643.2C919.4,644.3 917.8,647.1 917.8,649.4C917.8,650.5 918.2,651.3 918.8,651.7L916.3,650.3C915.7,649.7 915.3,648.9 915.3,647.8Z" style="fill:url(#_Linear1);fill-rule:nonzero;"/>
                        <path d="M918.8,649.8C919,649.7 919.3,649.5 919.5,649.3C919.8,649.9 920.5,650 921.3,649.5C922.4,648.8 923.4,647.3 923.4,645.9C923.4,645 922.9,644.5 922.3,644.4C922.4,644.1 922.4,643.8 922.4,643.5C922.4,643.2 922.4,643 922.3,642.7L923.9,642.6C924.6,643 925,643.8 925,644.9C925,647.2 923.4,649.9 921.4,651.1C920.4,651.7 919.5,651.7 918.8,651.3L918.1,650C918.3,650.1 918.6,650 918.8,649.8Z" style="fill:rgb(28,28,28);fill-rule:nonzero;"/>
                        <path d="M917.8,649.2C917.8,646.9 919.4,644.2 921.4,643C922.4,642.4 923.3,642.4 923.9,642.7L922.3,642.8C922.3,643 922.4,643.3 922.4,643.6C922.4,643.9 922.4,644.2 922.3,644.5C922,644.5 921.7,644.6 921.4,644.8C920.3,645.5 919.3,647 919.3,648.4C919.3,648.8 919.4,649.1 919.5,649.3C919.3,649.5 919,649.7 918.8,649.8C918.5,650 918.3,650.1 918,650.1L918.7,651.4C918.2,651.1 917.8,650.3 917.8,649.2Z" style="fill:url(#_Linear2);fill-rule:nonzero;"/>
                        <path d="M917.8,649.2C917.8,646.9 919.4,644.2 921.4,643C922.4,642.4 923.3,642.4 923.9,642.7L922.3,642.8C922.3,643 922.4,643.3 922.4,643.6C922.4,643.9 922.4,644.2 922.3,644.5C922,644.5 921.7,644.6 921.4,644.8C920.3,645.5 919.3,647 919.3,648.4C919.3,648.8 919.4,649.1 919.5,649.3C919.3,649.5 919,649.7 918.8,649.8C918.5,650 918.3,650.1 918,650.1L918.7,651.4C918.2,651.1 917.8,650.3 917.8,649.2Z" style="fill:rgb(28,28,28);fill-rule:nonzero;"/>
                        <path d="M923.4,646C923.4,647.3 922.5,648.9 921.3,649.6C920.5,650.1 919.8,649.9 919.5,649.4C920.9,648.3 922,646.4 922.3,644.6C923,644.6 923.4,645.1 923.4,646Z" style="fill:rgb(255,166,0);fill-rule:nonzero;"/>
                        <path d="M919.6,649.3C919.5,649.1 919.4,648.7 919.4,648.4C919.4,647.1 920.3,645.5 921.5,644.8C921.8,644.6 922.2,644.5 922.4,644.5C922,646.3 921,648.2 919.6,649.3Z" style="fill:rgb(255,166,0);fill-rule:nonzero;"/>
                        <path d="M1095.6,540.1C1096.6,539.5 1097.5,539.5 1098.1,539.9L1100.6,541.4C1100,541 1099.1,541.1 1098.1,541.7C1096.1,542.8 1094.5,545.6 1094.5,547.9C1094.5,549 1094.9,549.8 1095.5,550.2L1093,548.8C1092.3,548.4 1091.9,547.6 1091.9,546.5C1092,544 1093.6,541.3 1095.6,540.1Z" style="fill:url(#_Linear3);fill-rule:nonzero;"/>
                        <path d="M1095.6,548.4C1095.8,548.3 1096.1,548.1 1096.3,547.9C1096.6,548.5 1097.3,548.6 1098.1,548.1C1099.2,547.4 1100.2,545.9 1100.2,544.5C1100.2,543.6 1099.7,543.1 1099.1,543C1099.2,542.7 1099.2,542.4 1099.2,542.1C1099.2,541.8 1099.2,541.6 1099.1,541.3L1100.7,541.2C1101.4,541.6 1101.8,542.4 1101.8,543.5C1101.8,545.8 1100.2,548.5 1098.2,549.7C1097.2,550.3 1096.3,550.3 1095.6,549.9L1094.9,548.6C1095,548.6 1095.3,548.5 1095.6,548.4Z" style="fill:rgb(28,28,28);fill-rule:nonzero;"/>
                        <path d="M1094.5,547.8C1094.5,545.5 1096.1,542.8 1098.1,541.6C1099.1,541 1100,541 1100.6,541.3L1099,541.4C1099,541.6 1099.1,541.9 1099.1,542.2C1099.1,542.5 1099.1,542.8 1099,543.1C1098.7,543.1 1098.4,543.2 1098.1,543.4C1097,544.1 1096,545.6 1096,547C1096,547.4 1096.1,547.7 1096.2,547.9C1096,548.1 1095.7,548.3 1095.5,548.4C1095.2,548.6 1095,548.7 1094.7,548.7L1095.4,550C1094.9,549.7 1094.5,548.9 1094.5,547.8Z" style="fill:url(#_Linear4);fill-rule:nonzero;"/>
                        <path d="M1094.5,547.8C1094.5,545.5 1096.1,542.8 1098.1,541.6C1099.1,541 1100,541 1100.6,541.3L1099,541.4C1099,541.6 1099.1,541.9 1099.1,542.2C1099.1,542.5 1099.1,542.8 1099,543.1C1098.7,543.1 1098.4,543.2 1098.1,543.4C1097,544.1 1096,545.6 1096,547C1096,547.4 1096.1,547.7 1096.2,547.9C1096,548.1 1095.7,548.3 1095.5,548.4C1095.2,548.6 1095,548.7 1094.7,548.7L1095.4,550C1094.9,549.7 1094.5,548.9 1094.5,547.8Z" style="fill:rgb(28,28,28);fill-rule:nonzero;"/>
                        <path d="M1100.2,544.6C1100.2,545.9 1099.3,547.5 1098.1,548.2C1097.3,548.7 1096.6,548.5 1096.3,548C1097.7,546.9 1098.8,545 1099.1,543.2C1099.7,543.1 1100.2,543.6 1100.2,544.6Z" style="fill:rgb(255,166,0);fill-rule:nonzero;"/>
                        <path d="M1096.3,547.9C1096.2,547.7 1096.1,547.3 1096.1,547C1096.1,545.7 1097,544.1 1098.2,543.4C1098.5,543.2 1098.9,543.1 1099.1,543.1C1098.7,544.9 1097.7,546.7 1096.3,547.9Z" style="fill:rgb(255,166,0);fill-rule:nonzero;"/>
                    </g>
                </g>
                <g>
                    <g>
                        <g>
                            <g>
                                <path d="M630,436.6L607.9,436.6C611.2,429.2 613.2,424.6 613.2,424.6L833.1,338.8L833.1,706.4C833,707.1 832.6,707.7 831.8,708.2L631.2,824C630.8,824.2 630.4,824.4 629.9,824.5L629.9,436.6L630,436.6Z" style="fill:rgb(51,51,51);fill-rule:nonzero;"/>
                            </g>
                            <path d="M500.9,384.1L627.4,456.3L627.4,677.3L627.5,677.3L627.5,824.9L627.4,824.9C626,824.8 624.5,824.5 623.3,823.8L502.8,754.2C501.6,753.5 500.9,752.6 500.9,751.7L500.9,384.1Z" style="fill:rgb(51,51,51);fill-rule:nonzero;"/>
                            <path d="M636.5,345.8L636.5,821L631.3,824C630.3,824.6 629,824.8 627.5,824.8C626,824.8 626,823.9 624.8,823.2L623.7,822.8L624.9,766.4L624.9,678.1L622.3,345.8L636.5,345.8Z" style="fill:rgb(242,142,0);fill-rule:nonzero;"/>
                            <path d="M622.2,767.2L622.2,453.3L627.4,456.3L627.4,677.3L627.5,677.3L627.5,824.9L627.4,824.9C627.1,824.9 626.8,824.9 626.5,824.8L626.3,824.8C625.6,824.7 625,824.5 624.4,824.3L624.3,824.3C624,824.2 623.7,824 623.4,823.8L622.3,823.2L622.3,767.2L622.2,767.2Z" style="fill:rgb(242,142,0);fill-rule:nonzero;"/>
                            <path d="M631.2,456.6L831.7,340.8C833.7,339.6 833.5,337.6 831.1,336.2L710.6,266.6C708.3,265.2 704.7,265.1 702.7,266.3L502.2,382.2C500.2,383.4 500.4,385.4 502.8,386.8L623.3,456.4C625.7,457.7 629.2,457.8 631.2,456.6Z" style="fill:rgb(255,166,0);fill-rule:nonzero;"/>
                            <path d="M704.7,278.6L801,334.3L810.4,332.5L810.4,339.6L629.2,444.2L537.5,381.9L704.7,278.6Z" style="fill:rgb(242,142,0);fill-rule:nonzero;"/>
                            <path d="M523.6,376.1L523.6,383.2L629.2,444.2L629.2,437.1L523.6,376.1Z" style="fill:rgb(242,142,0);fill-rule:nonzero;"/>
                            <path d="M629.2,437.1L810.4,332.5L704.7,271.5L523.6,376.1L629.2,437.1Z" style="fill:rgb(250,184,58);fill-rule:nonzero;"/>
                            <g>
                                <g>
                                    <g>
                                        <path d="M742.8,324.9L745.6,323.2L745.4,321.9L718.6,306.3L714.9,308.1L715.6,309.2L742.8,324.9Z" style="fill:rgb(28,28,28);fill-rule:nonzero;"/>
                                        <path d="M718.5,307.6L715.6,309.2L713.8,308.1L718.5,305.4L747.5,322.2L745.6,323.2L718.5,307.6Z" style="fill-rule:nonzero;"/>
                                    </g>
                                    <g>
                                        <path d="M734,329.9L736.9,328.3L736.6,326.9L709.9,311.3L706.2,313.1L706.9,314.3L734,329.9Z" style="fill:rgb(28,28,28);fill-rule:nonzero;"/>
                                        <path d="M709.7,312.6L706.9,314.3L705,313.2L709.7,310.5L738.7,327.2L736.9,328.3L709.7,312.6Z" style="fill-rule:nonzero;"/>
                                    </g>
                                    <g>
                                        <path d="M725.2,335L728.1,333.3L727.9,332L701.1,316.4L697.4,318.1L698.1,319.3L725.2,335Z" style="fill:rgb(28,28,28);fill-rule:nonzero;"/>
                                        <path d="M701,317.6L698.1,319.3L696.2,318.2L701,315.5L730,332.2L728.1,333.3L701,317.6Z" style="fill-rule:nonzero;"/>
                                    </g>
                                    <g>
                                        <path d="M716.5,340L719.4,338.4L719.1,337L692.4,321.4L688.6,323.2L689.3,324.3L716.5,340Z" style="fill:rgb(28,28,28);fill-rule:nonzero;"/>
                                        <path d="M692.2,322.7L689.3,324.3L687.5,323.3L692.2,320.5L721.2,337.3L719.4,338.4L692.2,322.7Z" style="fill-rule:nonzero;"/>
                                    </g>
                                </g>
                                <g>
                                    <g>
                                        <path d="M690.9,354.9L693.7,353.2L693.5,351.9L666.7,336.3L663,338.1L663.7,339.2L690.9,354.9Z" style="fill:rgb(28,28,28);fill-rule:nonzero;"/>
                                        <path d="M666.6,337.6L663.7,339.2L661.9,338.2L666.6,335.4L695.6,352.2L693.7,353.2L666.6,337.6Z" style="fill-rule:nonzero;"/>
                                    </g>
                                    <g>
                                        <path d="M682.1,359.9L685,358.3L684.8,356.9L658,341.3L654.3,343.1L655,344.3L682.1,359.9Z" style="fill:rgb(28,28,28);fill-rule:nonzero;"/>
                                        <path d="M657.8,342.6L655,344.3L653.1,343.2L657.8,340.5L686.8,357.2L685,358.3L657.8,342.6Z" style="fill-rule:nonzero;"/>
                                    </g>
                                    <g>
                                        <path d="M673.3,365L676.2,363.3L676,362L649.2,346.4L645.5,348.2L646.2,349.3L673.3,365Z" style="fill:rgb(28,28,28);fill-rule:nonzero;"/>
                                        <path d="M649.1,347.6L646.2,349.3L644.3,348.2L649.1,345.5L678.1,362.2L676.2,363.3L649.1,347.6Z" style="fill-rule:nonzero;"/>
                                    </g>
                                    <g>
                                        <path d="M664.6,370L667.5,368.4L667.2,367L640.5,351.4L636.7,353.2L637.4,354.4L664.6,370Z" style="fill:rgb(28,28,28);fill-rule:nonzero;"/>
                                        <path d="M640.3,352.7L637.4,354.4L635.6,353.3L640.3,350.5L669.3,367.3L667.5,368.4L640.3,352.7Z" style="fill-rule:nonzero;"/>
                                    </g>
                                </g>
                                <g>
                                    <g>
                                        <path d="M639,384.9L641.9,383.2L641.6,381.9L614.8,366.3L611.1,368.1L611.8,369.2L639,384.9Z" style="fill:rgb(28,28,28);fill-rule:nonzero;"/>
                                        <path d="M614.7,367.6L611.8,369.2L610,368.2L614.7,365.4L643.7,382.2L641.8,383.2L614.7,367.6Z" style="fill-rule:nonzero;"/>
                                    </g>
                                    <g>
                                        <path d="M630.2,390L633.1,388.3L632.9,386.9L606.1,371.4L602.4,373.1L603.1,374.3L630.2,390Z" style="fill:rgb(28,28,28);fill-rule:nonzero;"/>
                                        <path d="M605.9,372.6L603.1,374.3L601.2,373.2L605.9,370.5L634.9,387.2L633.1,388.3L605.9,372.6Z" style="fill-rule:nonzero;"/>
                                    </g>
                                    <g>
                                        <path d="M621.4,395L624.3,393.3L624.1,392L597.3,376.4L593.6,378.2L594.3,379.3L621.4,395Z" style="fill:rgb(28,28,28);fill-rule:nonzero;"/>
                                        <path d="M597.2,377.7L594.3,379.3L592.4,378.2L597.2,375.5L626.2,392.3L624.3,393.3L597.2,377.7Z" style="fill-rule:nonzero;"/>
                                    </g>
                                    <g>
                                        <path d="M612.7,400L615.6,398.4L615.3,397L588.6,381.4L584.8,383.2L585.5,384.4L612.7,400Z" style="fill:rgb(28,28,28);fill-rule:nonzero;"/>
                                        <path d="M588.4,382.7L585.5,384.4L583.7,383.3L588.4,380.6L617.4,397.3L615.6,398.4L588.4,382.7Z" style="fill-rule:nonzero;"/>
                                    </g>
                                </g>
                            </g>
                        </g>
                        <path d="M603.3,680.8C602.7,680.8 602.1,680.6 601.6,680.3L519.3,632.8C517.1,631.5 515.7,629.1 515.7,626.5L515.7,512.7C515.7,511.5 516.3,510.4 517.4,509.8C518.5,509.2 519.7,509.2 520.8,509.8L603.1,557.3C605.3,558.6 606.7,561 606.7,563.6L606.7,677.5C606.7,678.7 606.1,679.8 605,680.4C604.5,680.6 603.9,680.8 603.3,680.8ZM519.1,511.2C518.8,511.2 518.6,511.3 518.4,511.4C517.9,511.7 517.7,512.1 517.7,512.7L517.7,626.5C517.7,628.4 518.7,630.2 520.4,631.1L602.7,678.6C603.2,678.9 603.7,678.9 604.2,678.6C604.7,678.3 604.9,677.9 604.9,677.3L604.9,563.5C604.9,561.6 603.9,559.8 602.2,558.9L519.9,511.4C519.6,511.3 519.4,511.2 519.1,511.2Z" style="fill:rgb(255,166,0);fill-rule:nonzero;"/>
                    </g>
                    <g>
                        <path d="M821.9,698.2C822.9,697.6 823.8,697.6 824.4,698L826.9,699.5C826.3,699.1 825.4,699.2 824.4,699.8C822.4,700.9 820.8,703.7 820.8,706C820.8,707.1 821.2,707.9 821.8,708.3L819.3,706.9C818.6,706.5 818.2,705.7 818.2,704.6C818.3,702.1 819.9,699.4 821.9,698.2Z" style="fill:url(#_Linear5);fill-rule:nonzero;"/>
                        <path d="M821.9,706.5C822.1,706.4 822.4,706.2 822.6,706C822.9,706.6 823.6,706.7 824.4,706.2C825.5,705.5 826.5,704 826.5,702.6C826.5,701.7 826,701.2 825.4,701.1C825.5,700.8 825.5,700.5 825.5,700.2C825.5,699.9 825.5,699.7 825.4,699.4L827,699.3C827.7,699.7 828.1,700.5 828.1,701.6C828.1,703.9 826.5,706.6 824.5,707.8C823.5,708.4 822.6,708.4 821.9,708L821.2,706.7C821.4,706.7 821.6,706.6 821.9,706.5Z" style="fill:rgb(28,28,28);fill-rule:nonzero;"/>
                        <path d="M820.9,705.9C820.9,703.6 822.5,700.9 824.5,699.7C825.5,699.1 826.4,699.1 827,699.4L825.4,699.5C825.4,699.7 825.5,700 825.5,700.3C825.5,700.6 825.5,700.9 825.4,701.2C825.1,701.2 824.8,701.3 824.5,701.5C823.4,702.2 822.4,703.7 822.4,705.1C822.4,705.5 822.5,705.8 822.6,706C822.4,706.2 822.1,706.4 821.9,706.5C821.6,706.7 821.4,706.8 821.1,706.8L821.8,708.1C821.2,707.8 820.9,707 820.9,705.9Z" style="fill:url(#_Linear6);fill-rule:nonzero;"/>
                        <path d="M820.9,705.9C820.9,703.6 822.5,700.9 824.5,699.7C825.5,699.1 826.4,699.1 827,699.4L825.4,699.5C825.4,699.7 825.5,700 825.5,700.3C825.5,700.6 825.5,700.9 825.4,701.2C825.1,701.2 824.8,701.3 824.5,701.5C823.4,702.2 822.4,703.7 822.4,705.1C822.4,705.5 822.5,705.8 822.6,706C822.4,706.2 822.1,706.4 821.9,706.5C821.6,706.7 821.4,706.8 821.1,706.8L821.8,708.1C821.2,707.8 820.9,707 820.9,705.9Z" style="fill:rgb(28,28,28);fill-rule:nonzero;"/>
                        <path d="M826.5,702.6C826.5,703.9 825.6,705.5 824.4,706.2C823.6,706.7 822.9,706.5 822.6,706C824,704.9 825.1,703 825.4,701.2C826,701.2 826.5,701.7 826.5,702.6Z" style="fill:rgb(255,166,0);fill-rule:nonzero;"/>
                        <path d="M822.6,706C822.5,705.8 822.4,705.4 822.4,705.1C822.4,703.8 823.3,702.2 824.5,701.5C824.8,701.3 825.2,701.2 825.4,701.2C825.1,703 824,704.8 822.6,706Z" style="fill:rgb(255,166,0);fill-rule:nonzero;"/>
                    </g>
                </g>
                <g>
                    <g>
                        <g>
                            <g>
                                <path d="M1106.8,395.8L1084.7,395.8C1088,388.4 1090,383.8 1090,383.8L1309.9,298L1309.9,665.6C1309.8,666.3 1309.4,666.9 1308.6,667.4L1108.1,783.2C1107.7,783.4 1107.3,783.6 1106.8,783.7L1106.8,395.8Z" style="fill:rgb(51,51,51);fill-rule:nonzero;"/>
                            </g>
                            <path d="M977.7,343.3L1104.2,415.5L1104.2,636.5L1104.3,636.5L1104.3,784L1104.2,784C1102.8,783.9 1101.3,783.6 1100.1,782.9L979.6,713.3C978.4,712.6 977.7,711.7 977.7,710.8L977.7,343.3Z" style="fill:rgb(51,51,51);fill-rule:nonzero;"/>
                            <path d="M1113.3,305L1113.3,780.3L1108.1,783.3C1107.1,783.9 1105.8,784.1 1104.3,784.1C1102.8,784.1 1102.8,783.2 1101.6,782.5L1100.5,782.1L1101.7,725.7L1101.7,637.4L1099,305L1113.3,305Z" style="fill:rgb(242,142,0);fill-rule:nonzero;"/>
                            <path d="M1099,726.4L1099,412.5L1104.2,415.5L1104.2,636.5L1104.3,636.5L1104.3,784L1104.2,784C1103.9,784 1103.6,784 1103.3,783.9L1103.1,783.9C1102.4,783.8 1101.8,783.6 1101.2,783.4L1101.1,783.4C1100.8,783.3 1100.5,783.1 1100.2,783L1099.1,782.4L1099.1,726.4L1099,726.4Z" style="fill:rgb(242,142,0);fill-rule:nonzero;"/>
                            <path d="M1108.1,415.8L1308.6,300C1310.6,298.8 1310.4,296.8 1308,295.4L1187.5,225.8C1185.2,224.4 1181.6,224.3 1179.6,225.5L979.1,341.4C977.1,342.6 977.3,344.6 979.7,346L1100.2,415.6C1102.5,416.9 1106,417 1108.1,415.8Z" style="fill:rgb(255,166,0);fill-rule:nonzero;"/>
                            <path d="M1181.5,238.3L1277.9,293.9L1287.2,292.2L1287.2,299.3L1106.1,403.9L1014.3,341.6L1181.5,238.3Z" style="fill:rgb(242,142,0);fill-rule:nonzero;"/>
                            <path d="M1000.4,335.8L1000.4,342.9L1106.1,403.9L1106.1,396.8L1000.4,335.8Z" style="fill:rgb(242,142,0);fill-rule:nonzero;"/>
                            <path d="M1106.1,396.8L1287.2,292.2L1181.5,231.2L1000.4,335.8L1106.1,396.8Z" style="fill:rgb(250,184,58);fill-rule:nonzero;"/>
                            <g>
                                <g>
                                    <g>
                                        <path d="M1219.6,284.6L1222.5,282.9L1222.2,281.6L1195.5,266L1191.8,267.8L1192.5,268.9L1219.6,284.6Z" style="fill:rgb(28,28,28);fill-rule:nonzero;"/>
                                        <path d="M1195.3,267.2L1192.5,268.9L1190.6,267.8L1195.3,265.1L1224.3,281.8L1222.5,282.9L1195.3,267.2Z" style="fill-rule:nonzero;"/>
                                    </g>
                                    <g>
                                        <path d="M1210.8,289.6L1213.7,288L1213.5,286.6L1186.7,271L1183,272.8L1183.7,274L1210.8,289.6Z" style="fill:rgb(28,28,28);fill-rule:nonzero;"/>
                                        <path d="M1186.6,272.3L1183.7,274L1181.8,272.9L1186.6,270.1L1215.6,286.9L1213.7,288L1186.6,272.3Z" style="fill-rule:nonzero;"/>
                                    </g>
                                    <g>
                                        <path d="M1202.1,294.7L1205,293L1204.7,291.6L1178,276.1L1174.2,277.8L1174.9,279L1202.1,294.7Z" style="fill:rgb(28,28,28);fill-rule:nonzero;"/>
                                        <path d="M1177.8,277.3L1174.9,279L1173.1,277.9L1177.8,275.2L1206.8,291.9L1205,293L1177.8,277.3Z" style="fill-rule:nonzero;"/>
                                    </g>
                                    <g>
                                        <path d="M1193.3,299.7L1196.2,298L1196,296.7L1169.2,281.1L1165.5,282.9L1166.2,284L1193.3,299.7Z" style="fill:rgb(28,28,28);fill-rule:nonzero;"/>
                                        <path d="M1169.1,282.4L1166.2,284L1164.3,283L1169.1,280.2L1198.1,297L1196.2,298L1169.1,282.4Z" style="fill-rule:nonzero;"/>
                                    </g>
                                </g>
                                <g>
                                    <g>
                                        <path d="M1167.7,314.6L1170.6,312.9L1170.3,311.6L1143.6,296L1139.9,297.8L1140.6,298.9L1167.7,314.6Z" style="fill:rgb(28,28,28);fill-rule:nonzero;"/>
                                        <path d="M1143.4,297.3L1140.6,298.9L1138.7,297.8L1143.4,295.1L1172.4,311.9L1170.6,312.9L1143.4,297.3Z" style="fill-rule:nonzero;"/>
                                    </g>
                                    <g>
                                        <path d="M1158.9,319.6L1161.8,318L1161.6,316.6L1134.8,301L1131.1,302.8L1131.8,304L1158.9,319.6Z" style="fill:rgb(28,28,28);fill-rule:nonzero;"/>
                                        <path d="M1134.7,302.3L1131.8,304L1129.9,302.9L1134.7,300.2L1163.7,316.9L1161.8,318L1134.7,302.3Z" style="fill-rule:nonzero;"/>
                                    </g>
                                    <g>
                                        <path d="M1150.2,324.7L1153.1,323L1152.8,321.7L1126.1,306.1L1122.3,307.8L1123,309L1150.2,324.7Z" style="fill:rgb(28,28,28);fill-rule:nonzero;"/>
                                        <path d="M1125.9,307.3L1123,309L1121.2,307.9L1125.9,305.2L1154.9,321.9L1153.1,323L1125.9,307.3Z" style="fill-rule:nonzero;"/>
                                    </g>
                                    <g>
                                        <path d="M1141.4,329.7L1144.3,328.1L1144.1,326.7L1117.3,311.1L1113.6,312.9L1114.3,314L1141.4,329.7Z" style="fill:rgb(28,28,28);fill-rule:nonzero;"/>
                                        <path d="M1117.2,312.4L1114.3,314L1112.4,313L1117.2,310.2L1146.2,327L1144.3,328.1L1117.2,312.4Z" style="fill-rule:nonzero;"/>
                                    </g>
                                </g>
                                <g>
                                    <g>
                                        <path d="M1115.8,344.6L1118.7,342.9L1118.5,341.6L1091.7,326L1088,327.8L1088.7,328.9L1115.8,344.6Z" style="fill:rgb(28,28,28);fill-rule:nonzero;"/>
                                        <path d="M1091.5,327.3L1088.7,328.9L1086.8,327.9L1091.5,325.1L1120.5,341.9L1118.7,342.9L1091.5,327.3Z" style="fill-rule:nonzero;"/>
                                    </g>
                                    <g>
                                        <path d="M1107,349.6L1109.9,348L1109.7,346.6L1082.9,331L1079.2,332.8L1079.9,334L1107,349.6Z" style="fill:rgb(28,28,28);fill-rule:nonzero;"/>
                                        <path d="M1082.8,332.3L1079.9,334L1078,332.9L1082.8,330.2L1111.8,346.9L1109.9,348L1082.8,332.3Z" style="fill-rule:nonzero;"/>
                                    </g>
                                    <g>
                                        <path d="M1098.3,354.7L1101.2,353L1100.9,351.7L1074.2,336.1L1070.4,337.9L1071.1,339L1098.3,354.7Z" style="fill:rgb(28,28,28);fill-rule:nonzero;"/>
                                        <path d="M1074,337.3L1071.1,339L1069.3,337.9L1074,335.2L1103,351.9L1101.2,353L1074,337.3Z" style="fill-rule:nonzero;"/>
                                    </g>
                                    <g>
                                        <path d="M1089.5,359.7L1092.4,358.1L1092.2,356.7L1065.4,341.1L1061.7,342.9L1062.4,344.1L1089.5,359.7Z" style="fill:rgb(28,28,28);fill-rule:nonzero;"/>
                                        <path d="M1065.3,342.4L1062.4,344.1L1060.5,343L1065.3,340.2L1094.3,357L1092.4,358.1L1065.3,342.4Z" style="fill-rule:nonzero;"/>
                                    </g>
                                </g>
                            </g>
                        </g>
                        <path d="M1080.2,640C1079.6,640 1079,639.8 1078.5,639.5L996.2,592C994,590.7 992.6,588.3 992.6,585.7L992.6,471.9C992.6,470.7 993.2,469.6 994.3,469C995.4,468.4 996.6,468.4 997.7,469L1080,516.5C1082.2,517.8 1083.6,520.2 1083.6,522.8L1083.6,636.7C1083.6,637.9 1083,639 1081.9,639.6C1081.3,639.8 1080.7,640 1080.2,640ZM997.2,590.4L1079.5,637.9C1080,638.2 1080.5,638.2 1081,637.9C1081.5,637.6 1081.7,637.2 1081.7,636.6L1081.7,522.7C1081.7,520.8 1080.7,519 1079,518.1L996.7,470.6C996.3,470.3 995.7,470.3 995.2,470.6C994.7,470.9 994.5,471.3 994.5,471.9L994.5,585.8C994.5,587.6 995.5,589.4 997.2,590.4Z" style="fill:rgb(242,142,0);fill-rule:nonzero;"/>
                    </g>
                </g>
                <g>
                    <g>
                        <g>
                            <path d="M835,924.1L1035.5,808.3C1037.5,807.1 1037.3,805.1 1034.9,803.7L914.4,734.1C912.1,732.7 908.5,732.6 906.5,733.8L706,849.6C704,850.8 704.2,852.8 706.6,854.2L827.1,923.8C829.4,925.1 832.9,925.3 835,924.1Z" style="fill-rule:nonzero;"/>
                            <path d="M826.2,939.5C824.2,939.5 822.1,939 820.4,938L683.4,858.9C681.5,857.8 680.5,856.3 680.5,854.7C680.5,853.3 681.3,852 682.8,851.2L910.8,719.6C913.5,718 918.1,718.2 921.3,720L1058.3,799.1C1060.2,800.2 1061.2,801.7 1061.2,803.3C1061.2,804.7 1060.4,806 1058.9,806.8L830.9,938.4C829.5,939.1 827.9,939.5 826.2,939.5Z" style="fill:none;fill-rule:nonzero;stroke:white;stroke-width:1px;"/>
                            <g>
                                <path d="M833.7,504.8L811.6,504.8C814.9,497.4 816.9,492.8 816.9,492.8L1036.8,407L1036.8,774.6C1036.7,775.3 1036.3,775.9 1035.5,776.4L835,892.2C834.6,892.4 834.2,892.6 833.7,892.7L833.7,504.8Z" style="fill:rgb(255,166,0);fill-rule:nonzero;"/>
                            </g>
                            <path d="M704.6,452.2L831.1,524.4L831.1,745.4L831.2,745.4L831.2,893L831.1,893C829.7,892.9 828.2,892.6 827,891.9L706.5,822.3C705.3,821.6 704.6,820.7 704.6,819.8L704.6,452.2Z" style="fill:rgb(255,166,0);fill-rule:nonzero;"/>
                            <path d="M840.2,414L840.2,889.3L835,892.3C834,892.9 832.7,893.1 831.2,893.1C829.7,893.1 829.7,892.2 828.5,891.5L827.4,891.1L828.6,834.7L828.6,746.4L825.9,414L840.2,414Z" style="fill-rule:nonzero;"/>
                            <path d="M825.9,835.4L825.9,521.5L831.1,524.5L831.1,745.5L831.2,745.5L831.2,893L831.1,893C830.8,893 830.5,893 830.2,892.9L830,892.9C829.3,892.8 828.7,892.6 828.1,892.4L828,892.4C827.7,892.3 827.4,892.1 827.1,892L826,891.4L826,835.4L825.9,835.4Z" style="fill-rule:nonzero;"/>
                            <path d="M1026.9,427.2L850.2,529.2L850.2,872.8L1026.9,770.8L1026.9,427.2Z" style="fill:rgb(28,28,28);fill-rule:nonzero;"/>
                            <g>
                                <g>
                                    <path d="M994.2,514.5L1015.6,502.2L1015.6,497.5L994.2,509.8L994.2,514.5Z" style="fill:rgb(0,123,255);fill-rule:nonzero;"/>
                                    <path d="M983.2,520.9L990.9,516.4L990.9,511.7L983.2,516.2L983.2,520.9Z" style="fill:rgb(0,123,255);fill-rule:nonzero;"/>
                                    <path d="M974.7,525.8L979.9,522.8L979.9,518.1L974.7,521.1L974.7,525.8Z" style="fill:rgb(0,123,255);fill-rule:nonzero;"/>
                                    <path d="M1003.9,519.7L1015.6,512.9L1015.6,508.2L1003.9,515L1003.9,519.7Z" style="fill:rgb(0,123,255);fill-rule:nonzero;"/>
                                    <path d="M986.4,529.8L1000.7,521.5L1000.7,516.8L986.4,525.1L986.4,529.8Z" style="fill:rgb(0,123,255);fill-rule:nonzero;"/>
                                    <path d="M977.8,534.7L983.1,531.7L983.1,527L977.8,530L977.8,534.7Z" style="fill:rgb(0,123,255);fill-rule:nonzero;"/>
                                    <path d="M969.7,539.4L975,536.4L975,531.7L969.7,534.7L969.7,539.4Z" style="fill:rgb(0,123,255);fill-rule:nonzero;"/>
                                    <path d="M1007.2,528.5L1015.6,523.7L1015.6,519L1007.2,523.8L1007.2,528.5Z" style="fill:rgb(0,123,255);fill-rule:nonzero;"/>
                                    <path d="M1001,532.1L1003.9,530.4L1003.9,525.7L1001,527.4L1001,532.1Z" style="fill:rgb(0,123,255);fill-rule:nonzero;"/>
                                    <path d="M992.5,537L997.7,534L997.7,529.3L992.5,532.3L992.5,537Z" style="fill:rgb(0,123,255);fill-rule:nonzero;"/>
                                    <path d="M984.4,552.4L1015.6,534.4L1015.6,529.7L984.4,547.7L984.4,552.4Z" style="fill:rgb(0,123,255);fill-rule:nonzero;"/>
                                    <path d="M973.4,558.8L981.2,554.3L981.2,549.6L973.4,554.1L973.4,558.8Z" style="fill:rgb(0,123,255);fill-rule:nonzero;"/>
                                    <path d="M1007.2,550L1015.6,545.2L1015.6,540.5L1007.2,545.3L1007.2,550Z" style="fill:rgb(0,123,255);fill-rule:nonzero;"/>
                                    <path d="M987.3,561.5L1003.9,551.9L1003.9,547.2L987.3,556.8L987.3,561.5Z" style="fill:white;fill-rule:nonzero;"/>
                                    <path d="M978.8,566.4L984.1,563.4L984.1,558.7L978.8,561.7L978.8,566.4Z" style="fill:rgb(0,123,255);fill-rule:nonzero;"/>
                                    <path d="M998.3,565.9L1015.6,555.9L1015.6,551.2L998.3,561.2L998.3,565.9Z" style="fill:rgb(0,123,255);fill-rule:nonzero;"/>
                                    <path d="M982.6,575L995.1,567.8L995.1,563.1L982.6,570.3L982.6,575Z" style="fill:rgb(0,123,255);fill-rule:nonzero;"/>
                                    <path d="M970.8,581.8L979.3,576.9L979.3,572.2L970.8,577.1L970.8,581.8Z" style="fill:rgb(0,123,255);fill-rule:nonzero;"/>
                                    <path d="M1009.8,570L1015.6,566.7L1015.6,562L1009.8,565.3L1009.8,570Z" style="fill:rgb(0,123,255);fill-rule:nonzero;"/>
                                    <path d="M998.8,576.4L1006.5,571.9L1006.5,567.2L998.8,571.7L998.8,576.4Z" style="fill:rgb(0,123,255);fill-rule:nonzero;"/>
                                    <path d="M983.1,585.4L995.5,578.3L995.5,573.6L983.1,580.7L983.1,585.4Z" style="fill:rgb(0,123,255);fill-rule:nonzero;"/>
                                    <path d="M997.7,587.7L1015.6,577.4L1015.6,572.7L997.7,583L997.7,587.7Z" style="fill:rgb(0,123,255);fill-rule:nonzero;"/>
                                    <path d="M977.7,599.3L994.5,589.6L994.5,584.9L977.7,594.6L977.7,599.3Z" style="fill:rgb(0,123,255);fill-rule:nonzero;"/>
                                    <path d="M969.2,604.2L974.4,601.2L974.4,596.5L969.2,599.5L969.2,604.2Z" style="fill:rgb(0,123,255);fill-rule:nonzero;"/>
                                    <path d="M961,608.9L966.3,605.9L966.3,601.2L961,604.2L961,608.9Z" style="fill:rgb(0,123,255);fill-rule:nonzero;"/>
                                    <path d="M1004.9,594.4L1015.6,588.2L1015.6,583.5L1004.9,589.6L1004.9,594.4Z" style="fill:rgb(0,123,255);fill-rule:nonzero;"/>
                                    <path d="M960.1,534.2L945.2,542.8L945.2,538.1L960.1,529.5L960.1,534.2Z" style="fill:rgb(0,123,255);fill-rule:nonzero;"/>
                                    <path d="M956.9,546.8L945.2,553.6L945.2,548.8L956.9,542.1L956.9,546.8Z" style="fill:rgb(0,123,255);fill-rule:nonzero;"/>
                                    <path d="M953.7,559.4L945.2,564.3L945.2,559.6L953.7,554.7L953.7,559.4Z" style="fill:rgb(0,123,255);fill-rule:nonzero;"/>
                                    <path d="M957.5,568L945.2,575.1L945.2,570.3L957.5,563.3L957.5,568Z" style="fill:rgb(0,123,255);fill-rule:nonzero;"/>
                                    <path d="M953.7,580.9L945.2,585.8L945.2,581.1L953.7,576.2L953.7,580.9Z" style="fill:rgb(0,123,255);fill-rule:nonzero;"/>
                                    <path d="M955.9,590.4L945.2,596.6L945.2,591.8L955.9,585.7L955.9,590.4Z" style="fill:white;fill-rule:nonzero;"/>
                                    <path d="M951.1,603.9L945.2,607.3L945.2,602.6L951.1,599.2L951.1,603.9Z" style="fill:rgb(0,123,255);fill-rule:nonzero;"/>
                                    <path d="M956.5,611.5L945.2,618.1L945.2,613.3L956.5,606.8L956.5,611.5Z" style="fill:rgb(0,123,255);fill-rule:nonzero;"/>
                                    <path d="M955.9,622.6L945.2,628.8L945.2,624.1L955.9,617.9L955.9,622.6Z" style="fill:rgb(0,123,255);fill-rule:nonzero;"/>
                                    <path d="M997.1,598.9L1001.6,596.2L1001.6,591.5L997.1,594.2L997.1,598.9Z" style="fill:rgb(0,123,255);fill-rule:nonzero;"/>
                                    <path d="M983.5,606.7L993.8,600.8L993.8,596.1L983.5,602L983.5,606.7Z" style="fill:rgb(0,123,255);fill-rule:nonzero;"/>
                                </g>
                                <g>
                                    <path d="M911.1,562.3L932.5,550L932.5,545.3L911.1,557.6L911.1,562.3Z" style="fill:rgb(0,123,255);fill-rule:nonzero;"/>
                                    <path d="M900.1,568.7L907.8,564.2L907.8,559.5L900.1,564L900.1,568.7Z" style="fill:rgb(0,123,255);fill-rule:nonzero;"/>
                                    <path d="M891.6,573.6L896.8,570.6L896.8,565.9L891.6,568.9L891.6,573.6Z" style="fill:rgb(0,123,255);fill-rule:nonzero;"/>
                                    <path d="M920.8,567.4L932.5,560.7L932.5,556L920.8,562.7L920.8,567.4Z" style="fill:white;fill-rule:nonzero;"/>
                                    <path d="M903.3,577.6L917.6,569.3L917.6,564.6L903.3,572.9L903.3,577.6Z" style="fill:rgb(0,123,255);fill-rule:nonzero;"/>
                                    <path d="M894.7,582.5L900,579.5L900,574.8L894.7,577.8L894.7,582.5Z" style="fill:white;fill-rule:nonzero;"/>
                                    <path d="M886.6,587.2L891.9,584.2L891.9,579.5L886.6,582.5L886.6,587.2Z" style="fill:rgb(0,123,255);fill-rule:nonzero;"/>
                                    <path d="M924.1,576.3L932.5,571.5L932.5,566.8L924.1,571.6L924.1,576.3Z" style="fill:rgb(0,123,255);fill-rule:nonzero;"/>
                                    <path d="M917.9,579.9L920.8,578.2L920.8,573.5L917.9,575.2L917.9,579.9Z" style="fill:rgb(0,123,255);fill-rule:nonzero;"/>
                                    <path d="M909.4,584.8L914.6,581.8L914.6,577.1L909.4,580.1L909.4,584.8Z" style="fill:rgb(0,123,255);fill-rule:nonzero;"/>
                                    <path d="M901.3,600.2L932.5,582.2L932.5,577.5L901.3,595.5L901.3,600.2Z" style="fill:rgb(0,123,255);fill-rule:nonzero;"/>
                                    <path d="M890.3,606.6L898.1,602.1L898.1,597.4L890.3,601.8L890.3,606.6Z" style="fill:rgb(0,123,255);fill-rule:nonzero;"/>
                                    <path d="M924.1,597.8L932.5,593L932.5,588.3L924.1,593.1L924.1,597.8Z" style="fill:rgb(0,123,255);fill-rule:nonzero;"/>
                                    <path d="M904.2,609.3L920.8,599.7L920.8,595L904.2,604.6L904.2,609.3Z" style="fill:rgb(0,123,255);fill-rule:nonzero;"/>
                                    <path d="M895.7,614.2L901,611.2L901,606.5L895.7,609.5L895.7,614.2Z" style="fill:rgb(0,123,255);fill-rule:nonzero;"/>
                                    <path d="M915.2,613.7L932.5,603.7L932.5,599L915.2,609L915.2,613.7Z" style="fill:white;fill-rule:nonzero;"/>
                                    <path d="M899.5,622.8L912,615.6L912,610.9L899.5,618.1L899.5,622.8Z" style="fill:rgb(0,123,255);fill-rule:nonzero;"/>
                                    <path d="M887.7,629.6L896.2,624.7L896.2,620L887.7,624.9L887.7,629.6Z" style="fill:rgb(0,123,255);fill-rule:nonzero;"/>
                                    <path d="M926.7,617.8L932.5,614.5L932.5,609.8L926.7,613.1L926.7,617.8Z" style="fill:rgb(0,123,255);fill-rule:nonzero;"/>
                                    <path d="M915.7,624.2L923.4,619.7L923.4,615L915.7,619.5L915.7,624.2Z" style="fill:rgb(0,123,255);fill-rule:nonzero;"/>
                                    <path d="M900,633.2L912.4,626.1L912.4,621.4L900,628.5L900,633.2Z" style="fill:rgb(0,123,255);fill-rule:nonzero;"/>
                                    <path d="M914.6,635.5L932.5,625.2L932.5,620.5L914.6,630.8L914.6,635.5Z" style="fill:rgb(0,123,255);fill-rule:nonzero;"/>
                                    <path d="M894.6,647.1L911.4,637.4L911.4,632.7L894.6,642.4L894.6,647.1Z" style="fill:white;fill-rule:nonzero;"/>
                                    <path d="M886.1,652L891.3,649L891.3,644.3L886.1,647.3L886.1,652Z" style="fill:rgb(0,123,255);fill-rule:nonzero;"/>
                                    <path d="M877.9,656.7L883.2,653.7L883.2,649L877.9,652L877.9,656.7Z" style="fill:white;fill-rule:nonzero;"/>
                                    <path d="M921.8,642.1L932.5,636L932.5,631.3L921.8,637.4L921.8,642.1Z" style="fill:rgb(0,123,255);fill-rule:nonzero;"/>
                                    <path d="M877,582L862.1,590.6L862.1,585.9L877,577.3L877,582Z" style="fill:rgb(0,123,255);fill-rule:nonzero;"/>
                                    <path d="M873.8,594.6L862.1,601.3L862.1,596.6L873.8,589.9L873.8,594.6Z" style="fill:white;fill-rule:nonzero;"/>
                                    <path d="M870.6,607.2L862.1,612.1L862.1,607.4L870.6,602.5L870.6,607.2Z" style="fill:rgb(0,123,255);fill-rule:nonzero;"/>
                                    <path d="M874.4,615.7L862.1,622.8L862.1,618.1L874.4,611L874.4,615.7Z" style="fill:rgb(0,123,255);fill-rule:nonzero;"/>
                                    <path d="M870.6,628.7L862.1,633.6L862.1,628.9L870.6,624L870.6,628.7Z" style="fill:white;fill-rule:nonzero;"/>
                                    <path d="M872.8,638.2L862.1,644.3L862.1,639.6L872.8,633.5L872.8,638.2Z" style="fill:rgb(0,123,255);fill-rule:nonzero;"/>
                                    <path d="M868,651.7L862.1,655.1L862.1,650.4L868,647L868,651.7Z" style="fill:rgb(0,123,255);fill-rule:nonzero;"/>
                                    <path d="M873.4,659.3L862.1,665.8L862.1,661.1L873.4,654.6L873.4,659.3Z" style="fill:rgb(0,123,255);fill-rule:nonzero;"/>
                                    <path d="M872.8,670.4L862.1,676.6L862.1,671.9L872.8,665.7L872.8,670.4Z" style="fill:rgb(0,123,255);fill-rule:nonzero;"/>
                                    <path d="M914,646.7L918.5,644L918.5,639.3L914,642L914,646.7Z" style="fill:rgb(0,123,255);fill-rule:nonzero;"/>
                                    <path d="M900.4,654.5L910.7,648.6L910.7,643.8L900.4,649.8L900.4,654.5Z" style="fill:rgb(0,123,255);fill-rule:nonzero;"/>
                                </g>
                                <g>
                                    <path d="M994.2,611.3L1015.6,599L1015.6,594.3L994.2,606.6L994.2,611.3Z" style="fill:white;fill-rule:nonzero;"/>
                                    <path d="M983.2,617.7L990.9,613.2L990.9,608.5L983.2,613L983.2,617.7Z" style="fill:rgb(0,123,255);fill-rule:nonzero;"/>
                                    <path d="M974.7,622.6L979.9,619.6L979.9,614.9L974.7,617.9L974.7,622.6Z" style="fill:rgb(0,123,255);fill-rule:nonzero;"/>
                                    <path d="M1003.9,616.5L1015.6,609.7L1015.6,605L1003.9,611.8L1003.9,616.5Z" style="fill:rgb(0,123,255);fill-rule:nonzero;"/>
                                    <path d="M986.4,626.6L1000.7,618.4L1000.7,613.7L986.4,621.9L986.4,626.6Z" style="fill:rgb(0,123,255);fill-rule:nonzero;"/>
                                    <path d="M977.8,631.5L983.1,628.5L983.1,623.8L977.8,626.8L977.8,631.5Z" style="fill:rgb(0,123,255);fill-rule:nonzero;"/>
                                    <path d="M969.7,636.2L975,633.2L975,628.5L969.7,631.5L969.7,636.2Z" style="fill:rgb(0,123,255);fill-rule:nonzero;"/>
                                    <path d="M1007.2,625.4L1015.6,620.5L1015.6,615.8L1007.2,620.6L1007.2,625.4Z" style="fill:rgb(0,123,255);fill-rule:nonzero;"/>
                                    <path d="M1001,628.9L1003.9,627.2L1003.9,622.5L1001,624.2L1001,628.9Z" style="fill:rgb(0,123,255);fill-rule:nonzero;"/>
                                    <path d="M992.5,633.8L997.7,630.8L997.7,626.1L992.5,629.1L992.5,633.8Z" style="fill:rgb(0,123,255);fill-rule:nonzero;"/>
                                    <path d="M984.4,649.2L1015.6,631.2L1015.6,626.5L984.4,644.5L984.4,649.2Z" style="fill:rgb(0,123,255);fill-rule:nonzero;"/>
                                    <path d="M973.4,655.6L981.2,651.1L981.2,646.4L973.4,650.9L973.4,655.6Z" style="fill:rgb(0,123,255);fill-rule:nonzero;"/>
                                    <path d="M1007.2,646.9L1015.6,642L1015.6,637.3L1007.2,642.1L1007.2,646.9Z" style="fill:rgb(0,123,255);fill-rule:nonzero;"/>
                                    <path d="M987.3,658.3L1003.9,648.7L1003.9,644L987.3,653.6L987.3,658.3Z" style="fill:rgb(0,123,255);fill-rule:nonzero;"/>
                                    <path d="M978.8,663.2L984.1,660.2L984.1,655.5L978.8,658.5L978.8,663.2Z" style="fill:rgb(0,123,255);fill-rule:nonzero;"/>
                                    <path d="M998.3,662.7L1015.6,652.7L1015.6,648L998.3,658L998.3,662.7Z" style="fill:rgb(0,123,255);fill-rule:nonzero;"/>
                                    <path d="M982.6,671.8L995.1,664.6L995.1,659.9L982.6,667.1L982.6,671.8Z" style="fill:white;fill-rule:nonzero;"/>
                                    <path d="M970.8,678.6L979.3,673.7L979.3,669L970.8,673.9L970.8,678.6Z" style="fill:rgb(0,123,255);fill-rule:nonzero;"/>
                                    <path d="M1009.8,666.8L1015.6,663.5L1015.6,658.8L1009.8,662.1L1009.8,666.8Z" style="fill:rgb(0,123,255);fill-rule:nonzero;"/>
                                    <path d="M998.8,673.2L1006.5,668.7L1006.5,664L998.8,668.5L998.8,673.2Z" style="fill:rgb(0,123,255);fill-rule:nonzero;"/>
                                    <path d="M983.1,682.3L995.5,675.1L995.5,670.4L983.1,677.6L983.1,682.3Z" style="fill:rgb(0,123,255);fill-rule:nonzero;"/>
                                    <path d="M997.7,684.6L1015.6,674.2L1015.6,669.5L997.7,679.8L997.7,684.6Z" style="fill:rgb(0,123,255);fill-rule:nonzero;"/>
                                    <path d="M977.7,696.1L994.5,686.4L994.5,681.7L977.7,691.4L977.7,696.1Z" style="fill:white;fill-rule:nonzero;"/>
                                    <path d="M969.2,701L974.4,698L974.4,693.3L969.2,696.3L969.2,701Z" style="fill:rgb(0,123,255);fill-rule:nonzero;"/>
                                    <path d="M961,705.8L966.3,702.7L966.3,698L961,701L961,705.8Z" style="fill:rgb(0,123,255);fill-rule:nonzero;"/>
                                    <path d="M1004.9,691.2L1015.6,685L1015.6,680.3L1004.9,686.5L1004.9,691.2Z" style="fill:rgb(0,123,255);fill-rule:nonzero;"/>
                                    <path d="M960.1,631L945.2,639.6L945.2,634.9L960.1,626.3L960.1,631Z" style="fill:rgb(0,123,255);fill-rule:nonzero;"/>
                                    <path d="M956.9,643.6L945.2,650.4L945.2,645.7L956.9,638.9L956.9,643.6Z" style="fill:rgb(0,123,255);fill-rule:nonzero;"/>
                                    <path d="M953.7,656.2L945.2,661.1L945.2,656.4L953.7,651.5L953.7,656.2Z" style="fill:rgb(0,123,255);fill-rule:nonzero;"/>
                                    <path d="M957.5,664.8L945.2,671.9L945.2,667.2L957.5,660.1L957.5,664.8Z" style="fill:white;fill-rule:nonzero;"/>
                                    <path d="M953.7,677.7L945.2,682.6L945.2,677.9L953.7,673L953.7,677.7Z" style="fill:rgb(0,123,255);fill-rule:nonzero;"/>
                                    <path d="M955.9,687.2L945.2,693.4L945.2,688.7L955.9,682.5L955.9,687.2Z" style="fill:rgb(0,123,255);fill-rule:nonzero;"/>
                                    <path d="M951.1,700.7L945.2,704.1L945.2,699.4L951.1,696L951.1,700.7Z" style="fill:white;fill-rule:nonzero;"/>
                                    <path d="M956.5,708.3L945.2,714.9L945.2,710.2L956.5,703.6L956.5,708.3Z" style="fill:rgb(0,123,255);fill-rule:nonzero;"/>
                                    <path d="M955.9,719.4L945.2,725.6L945.2,720.9L955.9,714.7L955.9,719.4Z" style="fill:rgb(0,123,255);fill-rule:nonzero;"/>
                                    <path d="M997.1,695.7L1001.6,693.1L1001.6,688.3L997.1,691L997.1,695.7Z" style="fill:rgb(0,123,255);fill-rule:nonzero;"/>
                                    <path d="M983.5,703.5L993.8,697.6L993.8,692.9L983.5,698.8L983.5,703.5Z" style="fill:rgb(0,123,255);fill-rule:nonzero;"/>
                                    <path d="M975.1,739.7L992.4,729.7L992.4,725L975.1,734.9L975.1,739.7Z" style="fill:white;fill-rule:nonzero;"/>
                                    <path d="M963.2,746.5L970,742.6L970,737.9L963.2,741.8L963.2,746.5Z" style="fill:white;fill-rule:nonzero;"/>
                                </g>
                                <g>
                                    <path d="M911.1,659.1L932.5,646.8L932.5,642.1L911.1,654.4L911.1,659.1Z" style="fill:rgb(0,123,255);fill-rule:nonzero;"/>
                                    <path d="M900.1,665.5L907.8,661L907.8,656.3L900.1,660.8L900.1,665.5Z" style="fill:rgb(0,123,255);fill-rule:nonzero;"/>
                                    <path d="M891.6,670.4L896.8,667.4L896.8,662.7L891.6,665.7L891.6,670.4Z" style="fill:rgb(0,123,255);fill-rule:nonzero;"/>
                                    <path d="M920.8,664.3L932.5,657.5L932.5,652.8L920.8,659.6L920.8,664.3Z" style="fill:rgb(0,123,255);fill-rule:nonzero;"/>
                                    <path d="M903.3,674.4L917.6,666.1L917.6,661.4L903.3,669.7L903.3,674.4Z" style="fill:rgb(0,123,255);fill-rule:nonzero;"/>
                                    <path d="M894.7,679.3L900,676.3L900,671.6L894.7,674.6L894.7,679.3Z" style="fill:rgb(0,123,255);fill-rule:nonzero;"/>
                                    <path d="M886.6,684L891.9,681L891.9,676.3L886.6,679.3L886.6,684Z" style="fill:rgb(0,123,255);fill-rule:nonzero;"/>
                                    <path d="M924.1,673.1L932.5,668.3L932.5,663.6L924.1,668.4L924.1,673.1Z" style="fill:rgb(0,123,255);fill-rule:nonzero;"/>
                                    <path d="M917.9,676.7L920.8,675L920.8,670.3L917.9,672L917.9,676.7Z" style="fill:rgb(0,123,255);fill-rule:nonzero;"/>
                                    <path d="M909.4,681.6L914.6,678.6L914.6,673.9L909.4,676.9L909.4,681.6Z" style="fill:rgb(0,123,255);fill-rule:nonzero;"/>
                                    <path d="M901.3,697L932.5,679L932.5,674.3L901.3,692.3L901.3,697Z" style="fill:white;fill-rule:nonzero;"/>
                                    <path d="M890.3,703.4L898.1,698.9L898.1,694.2L890.3,698.7L890.3,703.4Z" style="fill:rgb(0,123,255);fill-rule:nonzero;"/>
                                    <path d="M924.1,694.6L932.5,689.8L932.5,685.1L924.1,689.9L924.1,694.6Z" style="fill:rgb(0,123,255);fill-rule:nonzero;"/>
                                    <path d="M904.2,706.1L920.8,696.5L920.8,691.8L904.2,701.4L904.2,706.1Z" style="fill:rgb(0,123,255);fill-rule:nonzero;"/>
                                    <path d="M895.7,711L901,708L901,703.3L895.7,706.3L895.7,711Z" style="fill:rgb(0,123,255);fill-rule:nonzero;"/>
                                    <path d="M915.2,710.5L932.5,700.5L932.5,695.8L915.2,705.8L915.2,710.5Z" style="fill:rgb(0,123,255);fill-rule:nonzero;"/>
                                    <path d="M899.5,719.6L912,712.4L912,707.7L899.5,714.9L899.5,719.6Z" style="fill:white;fill-rule:nonzero;"/>
                                    <path d="M887.7,726.4L896.2,721.5L896.2,716.8L887.7,721.7L887.7,726.4Z" style="fill:rgb(0,123,255);fill-rule:nonzero;"/>
                                    <path d="M926.7,714.6L932.5,711.3L932.5,706.6L926.7,709.9L926.7,714.6Z" style="fill:rgb(0,123,255);fill-rule:nonzero;"/>
                                    <path d="M915.7,721L923.4,716.5L923.4,711.8L915.7,716.3L915.7,721Z" style="fill:rgb(0,123,255);fill-rule:nonzero;"/>
                                    <path d="M900,730.1L912.4,722.9L912.4,718.2L900,725.3L900,730.1Z" style="fill:rgb(0,123,255);fill-rule:nonzero;"/>
                                    <path d="M914.6,732.3L932.5,722L932.5,717.3L914.6,727.6L914.6,732.3Z" style="fill:rgb(0,123,255);fill-rule:nonzero;"/>
                                    <path d="M894.6,743.9L911.4,734.2L911.4,729.5L894.6,739.2L894.6,743.9Z" style="fill:rgb(0,123,255);fill-rule:nonzero;"/>
                                    <path d="M886.1,748.8L891.3,745.8L891.3,741.1L886.1,744.1L886.1,748.8Z" style="fill:white;fill-rule:nonzero;"/>
                                    <path d="M877.9,753.5L883.2,750.5L883.2,745.8L877.9,748.8L877.9,753.5Z" style="fill:white;fill-rule:nonzero;"/>
                                    <path d="M921.8,739L932.5,732.8L932.5,728.1L921.8,734.2L921.8,739Z" style="fill:rgb(0,123,255);fill-rule:nonzero;"/>
                                    <path d="M877,678.8L862.1,687.4L862.1,682.7L877,674.1L877,678.8Z" style="fill:rgb(0,123,255);fill-rule:nonzero;"/>
                                    <path d="M873.8,691.4L862.1,698.2L862.1,693.4L873.8,686.7L873.8,691.4Z" style="fill:white;fill-rule:nonzero;"/>
                                    <path d="M870.6,704L862.1,708.9L862.1,704.2L870.6,699.3L870.6,704Z" style="fill:rgb(0,123,255);fill-rule:nonzero;"/>
                                    <path d="M874.4,712.6L862.1,719.7L862.1,714.9L874.4,707.9L874.4,712.6Z" style="fill:rgb(0,123,255);fill-rule:nonzero;"/>
                                    <path d="M870.6,725.5L862.1,730.4L862.1,725.7L870.6,720.8L870.6,725.5Z" style="fill:rgb(0,123,255);fill-rule:nonzero;"/>
                                    <path d="M872.8,735L862.1,741.2L862.1,736.4L872.8,730.3L872.8,735Z" style="fill:white;fill-rule:nonzero;"/>
                                    <path d="M868,748.5L862.1,751.9L862.1,747.2L868,743.8L868,748.5Z" style="fill:rgb(0,123,255);fill-rule:nonzero;"/>
                                    <path d="M873.4,756.1L862.1,762.7L862.1,757.9L873.4,751.4L873.4,756.1Z" style="fill:white;fill-rule:nonzero;"/>
                                    <path d="M872.8,767.2L862.1,773.4L862.1,768.7L872.8,762.5L872.8,767.2Z" style="fill:rgb(0,123,255);fill-rule:nonzero;"/>
                                    <path d="M914,743.5L918.5,740.8L918.5,736.1L914,738.8L914,743.5Z" style="fill:white;fill-rule:nonzero;"/>
                                    <path d="M900.4,751.3L910.7,745.4L910.7,740.7L900.4,746.6L900.4,751.3Z" style="fill:rgb(0,123,255);fill-rule:nonzero;"/>
                                    <path d="M892,787.4L909.3,777.5L909.3,772.7L892,782.7L892,787.4Z" style="fill:rgb(0,123,255);fill-rule:nonzero;"/>
                                    <path d="M880.1,794.3L886.9,790.4L886.9,785.6L880.1,789.6L880.1,794.3Z" style="fill:rgb(0,123,255);fill-rule:nonzero;"/>
                                </g>
                            </g>
                            <path d="M835,524.8L1035.5,409C1037.5,407.8 1037.3,405.8 1034.9,404.4L914.4,334.8C912.1,333.4 908.5,333.3 906.5,334.5L706,450.3C704,451.5 704.2,453.5 706.6,454.9L827.1,524.5C829.4,525.8 832.9,525.9 835,524.8Z" style="fill-rule:nonzero;"/>
                            <path d="M908.5,346.9L1004.8,402.5L1014.1,400.7L1014.1,407.9L833,512.5L741.3,450.1L908.5,346.9Z" style="fill:rgb(28,28,28);fill-rule:nonzero;"/>
                            <path d="M727.3,444.3L727.3,451.5L833,512.5L833,505.3L727.3,444.3Z" style="fill:rgb(28,28,28);fill-rule:nonzero;"/>
                            <path d="M833,505.3L1014.1,400.7L908.5,339.7L727.3,444.3L833,505.3Z" style="fill:rgb(51,51,51);fill-rule:nonzero;"/>
                            <g>
                                <g>
                                    <g>
                                        <path d="M946.5,393.1L949.4,391.4L949.2,390.1L922.4,374.5L918.7,376.3L919.4,377.4L946.5,393.1Z" style="fill:rgb(255,166,0);fill-rule:nonzero;"/>
                                        <path d="M922.2,375.8L919.4,377.4L917.5,376.4L922.2,373.6L951.2,390.4L949.4,391.5L922.2,375.8Z" style="fill-rule:nonzero;"/>
                                    </g>
                                    <g>
                                        <path d="M937.7,398.2L940.6,396.5L940.4,395.1L913.6,379.6L909.9,381.3L910.6,382.5L937.7,398.2Z" style="fill:rgb(255,166,0);fill-rule:nonzero;"/>
                                        <path d="M913.5,380.8L910.6,382.5L908.7,381.4L913.5,378.7L942.5,395.4L940.6,396.5L913.5,380.8Z" style="fill-rule:nonzero;"/>
                                    </g>
                                    <g>
                                        <path d="M929,403.2L931.9,401.5L931.6,400.2L904.9,384.6L901.1,386.4L901.8,387.5L929,403.2Z" style="fill:rgb(255,166,0);fill-rule:nonzero;"/>
                                        <path d="M904.7,385.9L901.8,387.5L900,386.5L904.7,383.7L933.7,400.5L931.9,401.5L904.7,385.9Z" style="fill-rule:nonzero;"/>
                                    </g>
                                    <g>
                                        <path d="M920.2,408.2L923.1,406.6L922.9,405.2L896.1,389.6L892.4,391.4L893.1,392.6L920.2,408.2Z" style="fill:rgb(255,166,0);fill-rule:nonzero;"/>
                                        <path d="M896,390.9L893.1,392.6L891.2,391.5L896,388.8L925,405.5L923.1,406.6L896,390.9Z" style="fill-rule:nonzero;"/>
                                    </g>
                                </g>
                                <g>
                                    <g>
                                        <path d="M894.6,423.1L897.5,421.5L897.3,420.1L870.5,404.5L866.8,406.3L867.5,407.5L894.6,423.1Z" style="fill:rgb(255,166,0);fill-rule:nonzero;"/>
                                        <path d="M870.3,405.8L867.5,407.5L865.6,406.4L870.3,403.6L899.3,420.4L897.5,421.5L870.3,405.8Z" style="fill-rule:nonzero;"/>
                                    </g>
                                    <g>
                                        <path d="M885.8,428.2L888.7,426.5L888.5,425.1L861.7,409.6L858,411.3L858.7,412.5L885.8,428.2Z" style="fill:rgb(255,166,0);fill-rule:nonzero;"/>
                                        <path d="M861.6,410.8L858.7,412.5L856.8,411.4L861.6,408.7L890.6,425.4L888.7,426.5L861.6,410.8Z" style="fill-rule:nonzero;"/>
                                    </g>
                                    <g>
                                        <path d="M877.1,433.2L880,431.5L879.7,430.2L853,414.6L849.2,416.4L849.9,417.5L877.1,433.2Z" style="fill:rgb(255,166,0);fill-rule:nonzero;"/>
                                        <path d="M852.8,415.9L849.9,417.5L848.1,416.5L852.8,413.7L881.8,430.5L880,431.5L852.8,415.9Z" style="fill-rule:nonzero;"/>
                                    </g>
                                    <g>
                                        <path d="M868.3,438.3L871.2,436.6L871,435.2L844.2,419.7L840.5,421.4L841.2,422.6L868.3,438.3Z" style="fill:rgb(255,166,0);fill-rule:nonzero;"/>
                                        <path d="M844.1,420.9L841.2,422.6L839.3,421.5L844.1,418.8L873.1,435.5L871.2,436.6L844.1,420.9Z" style="fill-rule:nonzero;"/>
                                    </g>
                                </g>
                                <g>
                                    <g>
                                        <path d="M842.7,453.1L845.6,451.5L845.4,450.1L818.6,434.5L814.9,436.3L815.6,437.5L842.7,453.1Z" style="fill:rgb(255,166,0);fill-rule:nonzero;"/>
                                        <path d="M818.4,435.8L815.6,437.5L813.7,436.4L818.4,433.7L847.5,450.4L845.6,451.5L818.4,435.8Z" style="fill-rule:nonzero;"/>
                                    </g>
                                    <g>
                                        <path d="M833.9,458.2L836.8,456.5L836.6,455.2L809.8,439.6L806.1,441.3L806.8,442.5L833.9,458.2Z" style="fill:rgb(255,166,0);fill-rule:nonzero;"/>
                                        <path d="M809.7,440.8L806.8,442.5L804.9,441.4L809.7,438.7L838.7,455.4L836.8,456.5L809.7,440.8Z" style="fill-rule:nonzero;"/>
                                    </g>
                                    <g>
                                        <path d="M825.2,463.2L828.1,461.6L827.8,460.2L801.1,444.6L797.3,446.4L798,447.5L825.2,463.2Z" style="fill:rgb(255,166,0);fill-rule:nonzero;"/>
                                        <path d="M800.9,445.9L798,447.5L796.2,446.5L800.9,443.7L829.9,460.5L828.1,461.6L800.9,445.9Z" style="fill-rule:nonzero;"/>
                                    </g>
                                    <g>
                                        <path d="M816.4,468.3L819.3,466.6L819.1,465.2L792.3,449.7L788.6,451.4L789.3,452.6L816.4,468.3Z" style="fill:rgb(255,166,0);fill-rule:nonzero;"/>
                                        <path d="M792.2,450.9L789.3,452.6L787.4,451.5L792.2,448.8L821.2,465.5L819.3,466.6L792.2,450.9Z" style="fill-rule:nonzero;"/>
                                    </g>
                                </g>
                            </g>
                        </g>
                        <path d="M723.4,700.2L812.4,751.6L812.4,630L723.4,578.6L723.4,700.2Z" style="fill:rgb(192,212,250);fill-rule:nonzero;"/>
                        <path d="M728.3,581.4L728.3,697.9L812.4,746.5L812.4,751.6L723.4,700.2L723.4,578.6L728.3,581.4Z" style="fill-rule:nonzero;"/>
                        <g>
                            <path d="M669.8,731.6L674.6,734.1L722.4,706.5C723.2,706 724.6,706.1 725.5,706.6L808,754.2C808.8,753.8 812.4,752 812.4,752L810.7,756.5C810.6,756.7 810.5,756.9 810.2,757L759.8,786.1C759,786.6 757.6,786.5 756.7,786L672.3,737.3C671.9,737.1 671.7,736.8 671.6,736.5L669.8,731.6Z" style="fill:rgb(51,51,51);fill-rule:nonzero;"/>
                            <path d="M670.5,732.4L757,782.4C757.9,782.9 759.4,783 760.2,782.5L811.8,752.7C812.6,752.2 812.5,751.4 811.6,750.9L725.1,700.9C724.2,700.4 722.7,700.3 721.9,700.8L670.3,730.6C669.5,731.1 669.6,731.9 670.5,732.4Z" style="fill:rgb(28,28,28);fill-rule:nonzero;"/>
                            <path d="M783.1,771.6L783.1,770.7C783.1,770.6 783,770.6 783,770.6L779.7,772.5C779.6,772.5 779.6,772.6 779.6,772.7L779.6,773.6C779.6,773.7 779.7,773.7 779.7,773.7L783,771.8C783.1,771.8 783.1,771.7 783.1,771.6Z" style="fill-rule:nonzero;"/>
                            <path d="M778.1,774.5L778.1,773.6C778.1,773.5 778,773.5 778,773.5L774.7,775.4C774.6,775.4 774.6,775.5 774.6,775.6L774.6,776.5C774.6,776.6 774.7,776.6 774.7,776.6L778,774.7C778.1,774.7 778.1,774.6 778.1,774.5Z" style="fill-rule:nonzero;"/>
                            <path d="M798.4,749.9L726.5,708.4C726,708.1 725.4,708.1 725,708.4L699.4,723.2C699,723.4 699,723.9 699.4,724.2L771.3,765.7C771.8,766 772.4,766 772.8,765.7L798.4,750.9C798.8,750.7 798.8,750.1 798.4,749.9Z" style="fill:rgb(51,51,51);fill-rule:nonzero;"/>
                            <path d="M798.4,750.9L798.1,751L726.5,709.6C726,709.3 725.4,709.3 725,709.6L699.7,724.3L699.4,724.2C699,724 699,723.5 699.4,723.2L725,708.4C725.5,708.1 726.1,708.1 726.5,708.4L798.4,749.9C798.8,750.1 798.8,750.7 798.4,750.9Z" style="fill-rule:nonzero;"/>
                            <g>
                                <path d="M723,712.2L785.5,748.2L788.3,746.6L725.8,710.5L723,712.2Z" style="fill-rule:nonzero;"/>
                                <path d="M716.2,716.1L774.8,749.9L777.6,748.3L719,714.5L716.2,716.1Z" style="fill-rule:nonzero;"/>
                                <path d="M711.8,718.6L780.8,758.5L783.5,756.9L714.6,717L711.8,718.6Z" style="fill-rule:nonzero;"/>
                                <path d="M707.3,721.2L776.3,761L779.1,759.4L710.1,719.6L707.3,721.2Z" style="fill-rule:nonzero;"/>
                                <path d="M702.9,723.8L771.9,763.6L774.7,762L705.7,722.2L702.9,723.8Z" style="fill-rule:nonzero;"/>
                                <path d="M789.3,750.4L792,752L794.8,750.4L792,748.8L789.3,750.4Z" style="fill-rule:nonzero;"/>
                                <path d="M779.5,752.6L785.2,755.9L788,754.3L782.2,751L779.5,752.6Z" style="fill-rule:nonzero;"/>
                            </g>
                            <path d="M723.7,760L704.3,748.8C703.5,748.4 703.5,747.7 704.3,747.2L717.6,739.5C718.4,739.1 719.6,739.1 720.3,739.5L739.7,750.7C740.5,751.1 740.5,751.8 739.7,752.3L726.4,760C725.7,760.4 724.5,760.4 723.7,760Z" style="fill:rgb(51,51,51);fill-rule:nonzero;"/>
                            <path d="M739.7,751.4L720.3,740.2C719.5,739.8 718.3,739.8 717.6,740.2L704.3,747.9C704.1,748 703.9,748.2 703.8,748.4C703.6,748 703.8,747.6 704.3,747.3L717.6,739.6C718.4,739.2 719.6,739.2 720.3,739.6L739.7,750.8C740.2,751.1 740.4,751.5 740.2,751.9C740.1,751.7 740,751.5 739.7,751.4Z" style="fill-rule:nonzero;"/>
                        </g>
                        <path d="M728.3,581.4L812.4,630L812.4,746.5L728.3,697.9L728.3,581.4Z" style="fill:rgb(38,44,140);fill-rule:nonzero;"/>
                        <path d="M728.3,581.4L812.4,630L812.4,746.5L728.3,697.9L728.3,581.4Z" style="fill:rgb(28,28,28);fill-rule:nonzero;"/>
                        <g>
                            <path d="M789.5,644.4L794.5,647.3L794.5,644L789.5,641.1L789.5,644.4Z" style="fill:rgb(0,123,255);fill-rule:nonzero;"/>
                            <path d="M789.5,667.2L794.5,670.1L794.5,650.4L789.5,647.5L789.5,667.2Z" style="fill:rgb(0,123,255);fill-rule:nonzero;"/>
                            <path d="M789.5,678.1L794.5,681L794.5,673.2L789.5,670.3L789.5,678.1Z" style="fill:rgb(0,123,255);fill-rule:nonzero;"/>
                            <path d="M789.5,689.4L794.5,692.3L794.5,684.5L789.5,681.6L789.5,689.4Z" style="fill:rgb(0,123,255);fill-rule:nonzero;"/>
                            <path d="M782,651L787,653.9L787,646.1L782,643.2L782,651Z" style="fill:rgb(0,123,255);fill-rule:nonzero;"/>
                            <path d="M782,665.9L787,668.8L787,657.4L782,654.5L782,665.9Z" style="fill:white;fill-rule:nonzero;"/>
                            <path d="M782,679.7L787,682.6L787,672.8L782,669.9L782,679.7Z" style="fill:rgb(0,123,255);fill-rule:nonzero;"/>
                            <path d="M789.5,700.7L794.5,703.6L794.5,695.8L789.5,692.9L789.5,700.7Z" style="fill:white;fill-rule:nonzero;"/>
                            <path d="M782,640.1L787,643L787,639.6L782,636.7L782,640.1Z" style="fill:rgb(0,123,255);fill-rule:nonzero;"/>
                        </g>
                        <path d="M785.7,709.5L794.5,714.5L794.5,711.3L785.7,706.2L785.7,709.5Z" style="fill:rgb(0,123,255);fill-rule:nonzero;"/>
                    </g>
                </g>
            </g>
        </g>
    </g>
    <defs>
        <linearGradient id="_Linear1" x1="0" y1="0" x2="1" y2="0" gradientUnits="userSpaceOnUse" gradientTransform="matrix(-8.6416,1.05829e-15,-1.05829e-15,-8.6416,923.913,646.305)"><stop offset="0" style="stop-color:rgb(196,213,250);stop-opacity:1"/><stop offset="0.3" style="stop-color:rgb(201,218,251);stop-opacity:1"/><stop offset="0.65" style="stop-color:rgb(215,232,252);stop-opacity:1"/><stop offset="1" style="stop-color:rgb(237,253,255);stop-opacity:1"/></linearGradient>
        <linearGradient id="_Linear2" x1="0" y1="0" x2="1" y2="0" gradientUnits="userSpaceOnUse" gradientTransform="matrix(-8.6416,1.05829e-15,-1.05829e-15,-8.6416,923.911,647.039)"><stop offset="0" style="stop-color:rgb(196,213,250);stop-opacity:1"/><stop offset="0.3" style="stop-color:rgb(201,218,251);stop-opacity:1"/><stop offset="0.65" style="stop-color:rgb(215,232,252);stop-opacity:1"/><stop offset="1" style="stop-color:rgb(237,253,255);stop-opacity:1"/></linearGradient>
        <linearGradient id="_Linear3" x1="0" y1="0" x2="1" y2="0" gradientUnits="userSpaceOnUse" gradientTransform="matrix(-8.6416,1.05829e-15,-1.05829e-15,-8.6416,1100.62,544.862)"><stop offset="0" style="stop-color:rgb(196,213,250);stop-opacity:1"/><stop offset="0.3" style="stop-color:rgb(201,218,251);stop-opacity:1"/><stop offset="0.65" style="stop-color:rgb(215,232,252);stop-opacity:1"/><stop offset="1" style="stop-color:rgb(237,253,255);stop-opacity:1"/></linearGradient>
        <linearGradient id="_Linear4" x1="0" y1="0" x2="1" y2="0" gradientUnits="userSpaceOnUse" gradientTransform="matrix(-8.6416,1.05829e-15,-1.05829e-15,-8.6416,1100.62,545.596)"><stop offset="0" style="stop-color:rgb(196,213,250);stop-opacity:1"/><stop offset="0.3" style="stop-color:rgb(201,218,251);stop-opacity:1"/><stop offset="0.65" style="stop-color:rgb(215,232,252);stop-opacity:1"/><stop offset="1" style="stop-color:rgb(237,253,255);stop-opacity:1"/></linearGradient>
        <linearGradient id="_Linear5" x1="0" y1="0" x2="1" y2="0" gradientUnits="userSpaceOnUse" gradientTransform="matrix(-8.6416,1.05829e-15,-1.05829e-15,-8.6416,826.956,702.948)"><stop offset="0" style="stop-color:rgb(196,213,250);stop-opacity:1"/><stop offset="0.3" style="stop-color:rgb(201,218,251);stop-opacity:1"/><stop offset="0.65" style="stop-color:rgb(215,232,252);stop-opacity:1"/><stop offset="1" style="stop-color:rgb(237,253,255);stop-opacity:1"/></linearGradient>
        <linearGradient id="_Linear6" x1="0" y1="0" x2="1" y2="0" gradientUnits="userSpaceOnUse" gradientTransform="matrix(-8.6416,1.05829e-15,-1.05829e-15,-8.6416,826.953,703.683)"><stop offset="0" style="stop-color:rgb(196,213,250);stop-opacity:1"/><stop offset="0.3" style="stop-color:rgb(201,218,251);stop-opacity:1"/><stop offset="0.65" style="stop-color:rgb(215,232,252);stop-opacity:1"/><stop offset="1" style="stop-color:rgb(237,253,255);stop-opacity:1"/></linearGradient>
    </defs>
</svg>
