<?xml version="1.0" encoding="UTF-8" standalone="no"?>
<!DOCTYPE svg PUBLIC "-//W3C//DTD SVG 1.1//EN" "http://www.w3.org/Graphics/SVG/1.1/DTD/svg11.dtd">
<svg width="100%" height="100%" viewBox="0 0 1920 1080" version="1.1" xmlns="http://www.w3.org/2000/svg" xmlns:xlink="http://www.w3.org/1999/xlink" xml:space="preserve" xmlns:serif="http://www.serif.com/" style="fill-rule:evenodd;clip-rule:evenodd;stroke-linejoin:round;stroke-miterlimit:2;">
    <g>
        <g>
            <g id="Cubi">
                <g>
                    <g>
                        <g>
                            <g>
                                <path d="M816.8,231.5L816.5,351L702.3,417.7L702.6,298.2L816.8,231.5Z" style="fill:rgb(242,142,0);fill-rule:nonzero;"/>
                                <path d="M702.6,298.2L702.3,417.7L587.3,351L587.7,231.5L702.6,298.2Z" style="fill:rgb(255,166,0);fill-rule:nonzero;"/>
                                <g>
                                    <path d="M816.8,231.5L702.6,298.2L587.7,231.5L701.9,164.9L816.8,231.5Z" style="fill:rgb(250,184,58);fill-rule:nonzero;"/>
                                </g>
                            </g>
                        </g>
                    </g>
                </g>
                <g>
                    <g>
                        <g>
                            <g>
                                <path d="M880,156.9L879.8,230.4L809.6,271.4L809.8,197.9L880,156.9Z" style="fill-rule:nonzero;"/>
                            </g>
                            <g>
                                <path d="M809.8,197.9L809.6,271.4L738.9,230.4L739.1,156.9L809.8,197.9Z" style="fill:rgb(28,28,28);fill-rule:nonzero;"/>
                            </g>
                            <g>
                                <path d="M880,156.9L809.8,197.9L739.1,156.9L809.3,115.9L880,156.9Z" style="fill:rgb(51,51,51);fill-rule:nonzero;"/>
                            </g>
                        </g>
                    </g>
                </g>
                <g>
                    <g>
                        <g>
                            <g>
                                <g>
                                    <path d="M1266.6,565.7L1266.4,623.5L1211.2,655.8L1211.3,598L1266.6,565.7Z" style="fill-rule:nonzero;"/>
                                </g>
                                <g>
                                    <path d="M1211.3,598L1211.2,655.8L1155.6,623.5L1155.7,565.7L1211.3,598Z" style="fill:rgb(28,28,28);fill-rule:nonzero;"/>
                                </g>
                                <g>
                                    <path d="M1266.6,565.7L1211.3,598L1155.7,565.7L1211,533.5L1266.6,565.7Z" style="fill:rgb(51,51,51);fill-rule:nonzero;"/>
                                </g>
                            </g>
                        </g>
                    </g>
                </g>
                <g>
                    <g>
                        <g>
                            <g>
                                <path d="M1114.1,492.7L1113.6,678.1L936.4,781.4L937,596L1114.1,492.7Z" style="fill-rule:nonzero;"/>
                                <path d="M937,596L936.4,781.4L758.2,678.1L758.7,492.7L937,596Z" style="fill:rgb(28,28,28);fill-rule:nonzero;"/>
                                <g>
                                    <path d="M1114.1,492.7L937,596L758.7,492.7L935.8,389.3L1114.1,492.7Z" style="fill:rgb(51,51,51);fill-rule:nonzero;"/>
                                </g>
                            </g>
                        </g>
                    </g>
                </g>
                <g>
                    <g>
                        <g>
                            <g>
                                <path d="M1157.3,432.7L1157.1,508.7L1084.4,551.1L1084.6,475.1L1157.3,432.7Z" style="fill:rgb(107,108,105);fill-rule:nonzero;"/>
                            </g>
                            <g>
                                <path d="M1084.6,475.1L1084.4,551.1L1011.2,508.7L1011.4,432.7L1084.6,475.1Z" style="fill:rgb(137,140,138);fill-rule:nonzero;"/>
                            </g>
                            <g>
                                <path d="M1157.3,432.7L1084.6,475.1L1011.4,432.7L1084.1,390.3L1157.3,432.7Z" style="fill:rgb(170,176,175);fill-rule:nonzero;"/>
                            </g>
                        </g>
                    </g>
                </g>
                <g>
                    <g>
                        <g>
                            <g>
                                <path d="M933.1,349.2L932.9,449.2L837.3,505L837.6,405L933.1,349.2Z" style="fill:rgb(230,230,230);fill-rule:nonzero;"/>
                                <g>
                                    <path d="M837.6,405L837.3,505L741.2,449.2L741.5,349.2L837.6,405Z" style="fill:rgb(245,245,247);fill-rule:nonzero;"/>
                                </g>
                                <g>
                                    <path d="M933.1,349.2L837.6,405L741.5,349.2L837,293.5L933.1,349.2Z" style="fill:white;fill-rule:nonzero;"/>
                                </g>
                            </g>
                        </g>
                    </g>
                </g>
                <g>
                    <g>
                        <g>
                            <g>
                                <g>
                                    <path d="M1301.1,272.3L1300.9,352.6L1224.2,397.3L1224.4,317.1L1301.1,272.3Z" style="fill:rgb(242,142,0);fill-rule:nonzero;"/>
                                </g>
                                <g>
                                    <path d="M1224.4,317.1L1224.2,397.3L1147,352.6L1147.2,272.3L1224.4,317.1Z" style="fill:rgb(255,166,0);fill-rule:nonzero;"/>
                                </g>
                                <g>
                                    <path d="M1301.1,272.3L1224.4,317.1L1147.2,272.3L1223.9,227.6L1301.1,272.3Z" style="fill:rgb(250,184,58);fill-rule:nonzero;"/>
                                </g>
                            </g>
                        </g>
                    </g>
                </g>
                <g>
                    <g>
                        <g>
                            <g>
                                <g>
                                    <path d="M866.9,657.4L866.6,781.6L747.9,850.9L748.2,726.7L866.9,657.4Z" style="fill:rgb(107,108,105);fill-rule:nonzero;"/>
                                </g>
                                <g>
                                    <path d="M748.2,726.7L747.9,850.9L628.4,781.6L628.8,657.4L748.2,726.7Z" style="fill:rgb(137,140,138);fill-rule:nonzero;"/>
                                </g>
                                <g>
                                    <path d="M866.9,657.4L748.2,726.7L628.8,657.4L747.5,588.1L866.9,657.4Z" style="fill:rgb(170,176,175);fill-rule:nonzero;"/>
                                </g>
                            </g>
                        </g>
                    </g>
                </g>
                <g>
                    <g>
                        <g>
                            <g>
                                <g>
                                    <path d="M1242.9,645.1L1242.6,773L1120.4,844.3L1120.7,716.4L1242.9,645.1Z" style="fill:rgb(230,230,230);fill-rule:nonzero;"/>
                                </g>
                                <g>
                                    <path d="M1120.7,716.4L1120.4,844.3L997.4,773L997.7,645.1L1120.7,716.4Z" style="fill:rgb(245,245,247);fill-rule:nonzero;"/>
                                </g>
                                <g>
                                    <path d="M1242.9,645.1L1120.7,716.4L997.7,645.1L1119.9,573.8L1242.9,645.1Z" style="fill:white;fill-rule:nonzero;"/>
                                </g>
                            </g>
                        </g>
                    </g>
                </g>
                <g>
                    <g>
                        <g>
                            <g>
                                <path d="M1126.3,197.4L1126,303.8L1024.4,363.1L1024.7,256.7L1126.3,197.4Z" style="fill-rule:nonzero;"/>
                            </g>
                            <g>
                                <path d="M1024.7,256.7L1024.4,363.1L922.1,303.8L922.4,197.4L1024.7,256.7Z" style="fill:rgb(28,28,28);fill-rule:nonzero;"/>
                            </g>
                            <g>
                                <path d="M1126.3,197.4L1024.7,256.7L922.4,197.4L1024,138.1L1126.3,197.4Z" style="fill:rgb(51,51,51);fill-rule:nonzero;"/>
                            </g>
                        </g>
                    </g>
                </g>
                <g>
                    <g>
                        <g>
                            <g>
                                <path d="M889,742.7L888.9,795.6L838.4,825.1L838.5,772.2L889,742.7Z" style="fill:rgb(242,184,64);fill-rule:nonzero;"/>
                                <path d="M838.5,772.2L838.4,825.1L787.6,795.6L787.7,742.7L838.5,772.2Z" style="fill:rgb(255,166,0);fill-rule:nonzero;"/>
                                <g>
                                    <path d="M889,742.7L838.5,772.2L787.7,742.7L838.2,713.3L889,742.7Z" style="fill:rgb(250,184,58);fill-rule:nonzero;"/>
                                </g>
                            </g>
                        </g>
                    </g>
                </g>
                <g>
                    <g>
                        <g>
                            <g>
                                <path d="M597,564.4L596.8,621.6L542.1,653.5L542.3,596.3L597,564.4Z" style="fill:rgb(242,184,64);fill-rule:nonzero;"/>
                                <path d="M542.3,596.3L542.1,653.5L487,621.6L487.2,564.4L542.3,596.3Z" style="fill:rgb(255,166,0);fill-rule:nonzero;"/>
                                <g>
                                    <path d="M597,564.4L542.3,596.3L487.2,564.4L541.9,532.4L597,564.4Z" style="fill:rgb(250,184,58);fill-rule:nonzero;"/>
                                </g>
                            </g>
                        </g>
                    </g>
                </g>
                <g>
                    <g>
                        <g>
                            <g>
                                <path d="M1233.7,452.3L1233.6,488.7L1198.8,509L1198.9,472.6L1233.7,452.3Z" style="fill:rgb(242,184,64);fill-rule:nonzero;"/>
                                <path d="M1198.9,472.6L1198.8,509L1163.9,488.7L1164,452.3L1198.9,472.6Z" style="fill:rgb(255,166,0);fill-rule:nonzero;"/>
                                <g>
                                    <path d="M1233.7,452.3L1198.9,472.6L1164,452.3L1198.7,432L1233.7,452.3Z" style="fill:rgb(250,184,58);fill-rule:nonzero;"/>
                                </g>
                            </g>
                        </g>
                    </g>
                </g>
                <g>
                    <g>
                        <g>
                            <g>
                                <g>
                                    <path d="M1044.8,111L1044.7,171.5L986.8,205.3L987,144.7L1044.8,111Z" style="fill:rgb(230,230,230);fill-rule:nonzero;"/>
                                </g>
                                <g>
                                    <path d="M987,144.7L986.8,205.3L928.6,171.5L928.7,111L987,144.7Z" style="fill:rgb(245,245,247);fill-rule:nonzero;"/>
                                </g>
                                <g>
                                    <path d="M1044.8,111L987,144.7L928.7,111L986.6,77.2L1044.8,111Z" style="fill:white;fill-rule:nonzero;"/>
                                </g>
                            </g>
                        </g>
                    </g>
                </g>
                <g>
                    <g>
                        <g>
                            <g>
                                <g>
                                    <path d="M1090,796.7L1089.8,865.3L1024.3,903.5L1024.5,834.9L1090,796.7Z" style="fill-rule:nonzero;"/>
                                </g>
                                <g>
                                    <path d="M1024.5,834.9L1024.3,903.5L958.4,865.3L958.6,796.7L1024.5,834.9Z" style="fill:rgb(28,28,28);fill-rule:nonzero;"/>
                                </g>
                                <g>
                                    <path d="M1090,796.7L1024.5,834.9L958.6,796.7L1024.1,758.5L1090,796.7Z" style="fill:rgb(51,51,51);fill-rule:nonzero;"/>
                                </g>
                            </g>
                        </g>
                    </g>
                </g>
                <g>
                    <g>
                        <g>
                            <g>
                                <path d="M729.4,471.4L729.1,570.3L634.6,625.4L634.9,526.5L729.4,471.4Z" style="fill-rule:nonzero;"/>
                            </g>
                            <g>
                                <path d="M634.9,526.5L634.6,625.4L539.5,570.3L539.8,471.4L634.9,526.5Z" style="fill:rgb(28,28,28);fill-rule:nonzero;"/>
                            </g>
                            <g>
                                <path d="M729.4,471.4L634.9,526.5L539.8,471.4L634.3,416.2L729.4,471.4Z" style="fill:rgb(51,51,51);fill-rule:nonzero;"/>
                            </g>
                        </g>
                    </g>
                </g>
                <g>
                    <g>
                        <g>
                            <g>
                                <path d="M1183,308.4L1182.9,350.7L1142.4,374.3L1142.5,332L1183,308.4Z" style="fill:rgb(107,108,105);fill-rule:nonzero;"/>
                            </g>
                            <g>
                                <path d="M1142.5,332L1142.4,374.3L1101.7,350.7L1101.8,308.4L1142.5,332Z" style="fill:rgb(137,140,138);fill-rule:nonzero;"/>
                            </g>
                            <g>
                                <path d="M1183,308.4L1142.5,332L1101.8,308.4L1142.3,284.8L1183,308.4Z" style="fill:rgb(170,176,175);fill-rule:nonzero;"/>
                            </g>
                        </g>
                    </g>
                </g>
            </g>
        </g>
    </g>
</svg>
