<?xml version="1.0" encoding="UTF-8" standalone="no"?>
<!DOCTYPE svg PUBLIC "-//W3C//DTD SVG 1.1//EN" "http://www.w3.org/Graphics/SVG/1.1/DTD/svg11.dtd">
<svg width="100%" height="100%" viewBox="0 0 1920 1080" version="1.1" xmlns="http://www.w3.org/2000/svg" xmlns:xlink="http://www.w3.org/1999/xlink" xml:space="preserve" xmlns:serif="http://www.serif.com/" style="fill-rule:evenodd;clip-rule:evenodd;stroke-miterlimit:10;">
    <g>
        <g>
            <g>
                <g>
                    <g>
                        <path d="M548.2,754.8L548.2,754.6L547.7,787.1C547.7,787.8 547.8,788.4 547.9,789.1C547.9,789.3 548,789.5 548.1,789.7C548.2,790.2 548.4,790.6 548.5,791.1C548.5,791.2 548.6,791.3 548.6,791.4C548.6,791.5 548.7,791.6 548.8,791.7C549.1,792.3 549.4,792.8 549.7,793.4C549.8,793.5 549.8,793.7 549.9,793.8C550.4,794.5 550.9,795.1 551.5,795.7C551.7,795.9 551.8,796 552,796.2C552.5,796.7 553,797.2 553.6,797.6C553.8,797.8 554,797.9 554.2,798.1C555,798.7 555.8,799.3 556.7,799.8L880.9,988C882.4,988.9 884.1,989.7 885.8,990.3C886.4,990.5 887,990.7 887.7,990.9C888.9,991.3 890.1,991.7 891.3,992C892.1,992.2 892.9,992.3 893.6,992.4C894.8,992.6 895.9,992.8 897.1,993C898,993.1 898.8,993.1 899.7,993.1C900.9,993.2 902,993.3 903.1,993.3L903.3,993.3C904.4,993.3 905.4,993.2 906.5,993.1C907.3,993 908.2,993 909,992.9C910.2,992.8 911.3,992.5 912.4,992.3C913.2,992.2 914,992.1 914.7,991.9C915.9,991.6 917.1,991.2 918.2,990.8C918.8,990.6 919.4,990.5 920,990.2C921.7,989.5 923.3,988.8 924.8,987.9L1251,799.6C1257.1,796.1 1260.2,791.4 1260.2,786.7L1260.7,754.2C1260.7,749.6 1257.7,745 1251.7,741.5L927.7,553.4C915.6,546.4 895.8,546.4 883.6,553.4L557.4,741.7C551.2,745.3 548.1,750.1 548.2,754.8ZM548.4,756.5C548.4,756.7 548.5,756.9 548.6,757.1C548.5,756.9 548.5,756.7 548.4,756.5ZM552,763.1C552.1,763.3 552.3,763.4 552.5,763.6C552.3,763.4 552.1,763.3 552,763.1ZM554.1,765C554.2,765.1 554.4,765.2 554.6,765.4C554.4,765.3 554.2,765.1 554.1,765ZM549,758.4C549.1,758.5 549.1,758.7 549.2,758.8C549.1,758.7 549,758.6 549,758.4ZM1259.5,759.6C1259.6,759.3 1259.7,759.1 1259.8,758.8C1259.7,759.1 1259.6,759.3 1259.5,759.6ZM1260.7,756.2C1260.7,755.9 1260.7,755.7 1260.8,755.4C1260.7,755.6 1260.7,755.9 1260.7,756.2ZM1260.2,757.9C1260.3,757.6 1260.3,757.4 1260.4,757.1C1260.4,757.3 1260.3,757.6 1260.2,757.9ZM1257.2,762.8C1257.4,762.6 1257.6,762.3 1257.8,762.1C1257.6,762.4 1257.4,762.6 1257.2,762.8ZM1258.5,761.2C1258.7,761 1258.8,760.7 1258.9,760.5C1258.8,760.7 1258.7,761 1258.5,761.2ZM1253.8,765.9C1254,765.8 1254.2,765.6 1254.4,765.5C1254.1,765.6 1254,765.7 1253.8,765.9ZM1255.6,764.4C1255.9,764.2 1256.1,763.9 1256.3,763.7C1256.1,763.9 1255.9,764.2 1255.6,764.4Z" style="fill:rgb(170,176,175);fill-rule:nonzero;"/>
                        <g>
                            <g>
                                <g>
                                    <path id="SVGID_1_" d="M548.2,754.5L547.7,787C547.7,791.6 550.7,796.2 556.8,799.7L557.3,767.2C551.2,763.7 548.2,759.1 548.2,754.5Z" style="fill:rgb(170,176,175);fill-rule:nonzero;"/>
                                    <g>
                                        <clipPath id="_clip1">
                                            <path d="M548.2,754.5L547.7,787C547.7,791.6 550.7,796.2 556.8,799.7L557.3,767.2C551.2,763.7 548.2,759.1 548.2,754.5Z"/>
                                        </clipPath>
                                        <g clip-path="url(#_clip1)">
                                            <path d="M548.2,754.5L547.7,787C547.7,788.4 548,789.9 548.6,791.3L549.1,758.8C548.5,757.4 548.2,756 548.2,754.5Z" style="fill:rgb(170,176,175);fill-rule:nonzero;"/>
                                            <path d="M549.1,758.8L548.6,791.3C549.9,794.4 552.6,797.3 556.8,799.7L557.3,767.2C553.1,764.8 550.4,761.9 549.1,758.8Z" style="fill:rgb(170,176,175);fill-rule:nonzero;"/>
                                        </g>
                                    </g>
                                </g>
                                <g>
                                    <path id="SVGID_00000060742245737821946070000010549422376713946300_" d="M1260.3,786.8L1260.8,754.3C1260.8,758.9 1257.7,763.6 1251.6,767.2L1251.1,799.7C1257.3,796.1 1260.4,791.5 1260.3,786.8Z" style="fill:rgb(230,230,230);fill-rule:nonzero;"/>
                                    <g>
                                        <clipPath id="_clip2">
                                            <path d="M1260.3,786.8L1260.8,754.3C1260.8,758.9 1257.7,763.6 1251.6,767.2L1251.1,799.7C1257.3,796.1 1260.4,791.5 1260.3,786.8Z"/>
                                        </clipPath>
                                        <g clip-path="url(#_clip2)">
                                            <path d="M1251.6,767.2L1251.1,799.7C1257.2,796.2 1260.3,791.5 1260.3,786.8L1260.8,754.3C1260.8,759 1257.8,763.7 1251.6,767.2Z" style="fill:rgb(230,230,230);fill-rule:nonzero;"/>
                                        </g>
                                    </g>
                                </g>
                                <g>
                                    <path d="M557.3,767.2L556.8,799.7L880.9,988L881.3,955.6L557.3,767.2Z" style="fill:rgb(170,176,175);fill-rule:nonzero;"/>
                                </g>
                                <g>
                                    <path d="M925.4,955.6L924.9,988L1251.1,799.7L1251.6,767.2L925.4,955.6Z" style="fill:rgb(230,230,230);fill-rule:nonzero;"/>
                                </g>
                                <g>
                                    <g>
                                        <clipPath id="_clip3">
                                            <path d="M881.3,955.6L880.8,988.1C892.9,995.1 912.7,995.1 924.9,988.1L925.4,955.6C913.2,962.6 893.5,962.6 881.3,955.6Z"/>
                                        </clipPath>
                                        <g clip-path="url(#_clip3)">
                                            <path d="M881.3,955.6L880.8,988.1C887,991.7 895.2,993.5 903.4,993.4L903.9,960.9C895.8,960.9 887.5,959.2 881.3,955.6Z" style="fill:rgb(170,176,175);fill-rule:nonzero;"/>
                                            <path d="M903.9,960.8L903.4,993.3C911.2,993.2 918.9,991.5 924.9,988L925.4,955.5C919.5,959 911.7,960.8 903.9,960.8Z" style="fill:rgb(230,230,230);fill-rule:nonzero;"/>
                                        </g>
                                    </g>
                                </g>
                                <g>
                                    <path d="M557.4,741.7C545.2,748.7 545.1,760.2 557.3,767.2L881.4,955.5C893.5,962.5 913.3,962.5 925.5,955.5L1251.7,767.2C1263.9,760.2 1264,748.7 1251.8,741.7L927.7,553.4C915.6,546.4 895.8,546.4 883.6,553.4L557.4,741.7Z" style="fill:rgb(245,245,247);fill-rule:nonzero;"/>
                                </g>
                                <g>
                                    <path d="M1156.9,763.7L1141.8,772.4L919.7,900.7C910.8,905.8 896.5,905.8 887.6,900.7L667.2,772.6L652,763.8C643.2,758.7 643.2,750.4 652.1,745.2L889.4,608.2C898.2,603.1 912.6,603.1 921.4,608.2L1157.1,745.2C1165.9,750.3 1165.8,758.6 1156.9,763.7Z" style="fill:rgb(230,230,230);fill-rule:nonzero;"/>
                                </g>
                                <g>
                                    <path d="M1141.8,772.5L919.7,900.7C910.8,905.8 896.5,905.8 887.6,900.7L667.2,772.6L889.4,644.4C898.2,639.3 912.6,639.3 921.4,644.4L1141.8,772.5Z" style="fill:rgb(28,28,28);fill-rule:nonzero;"/>
                                </g>
                            </g>
                        </g>
                    </g>
                </g>
            </g>
            <g>
                <g>
                    <path d="M556.2,737.7C549.7,733.9 546.1,728.7 546.1,723.1C546.1,717.4 549.8,712.2 556.4,708.4L882.5,520C895.3,512.6 916.1,512.6 928.8,520L1252.9,708.3C1259.4,712.1 1263,717.3 1263,722.9C1263,728.6 1259.3,733.8 1252.7,737.6" style="fill:none;fill-rule:nonzero;stroke:black;stroke-width:1px;"/>
                </g>
                <path d="M540.3,646.1C533.5,642.1 529.7,636.7 529.7,630.9C529.7,625 533.5,619.6 540.4,615.6L881.5,418.7C894.9,411 916.5,411 929.8,418.7L1268.7,615.6C1275.5,619.6 1279.3,625 1279.3,630.8C1279.3,636.7 1275.5,642.1 1268.6,646.1" style="fill:none;fill-rule:nonzero;stroke:black;stroke-width:1px;"/>
                <path d="M524.4,554.5C517.3,550.4 513.4,544.8 513.4,538.7C513.4,532.6 517.4,527 524.5,522.8L880.5,317.2C894.4,309.2 917,309.2 930.8,317.2L1284.5,522.8C1291.6,526.9 1295.5,532.5 1295.5,538.6C1295.5,544.7 1291.5,550.3 1284.4,554.5" style="fill:none;fill-rule:nonzero;stroke:black;stroke-width:1px;"/>
                <path d="M508.5,462.9C501.1,458.6 497.1,452.8 497.1,446.5C497.1,440.2 501.2,434.3 508.6,430L879.6,215.8C894.1,207.4 917.5,207.4 931.9,215.8L1300.4,430C1307.7,434.3 1311.8,440.1 1311.8,446.4C1311.8,452.7 1307.7,458.6 1300.2,462.9" style="fill:none;fill-rule:nonzero;stroke:black;stroke-width:1px;"/>
                <g>
                    <path d="M492.7,371.4C485.1,367 480.9,361 480.9,354.5C480.9,348 485.2,341.9 492.9,337.5L878.8,114.7C893.8,106 918.2,106 933.1,114.7L1316.5,337.5C1324.1,341.9 1328.3,347.9 1328.3,354.4C1328.3,360.9 1324,367 1316.3,371.4" style="fill:none;fill-rule:nonzero;stroke:black;stroke-width:1px;"/>
                </g>
            </g>
            <g>
                <g>
                    <g>
                        <g>
                            <path d="M1174.8,240.7L1139.5,271.9L1084.5,303.6L1119.9,272.5L1174.8,240.7Z" style="fill:rgb(255,166,0);fill-rule:nonzero;"/>
                        </g>
                        <g>
                            <path d="M1119.9,272.5L1084.5,303.6L1041.6,239.5L1077,208.4L1119.9,272.5Z" style="fill:rgb(242,142,0);fill-rule:nonzero;"/>
                        </g>
                        <g>
                            <path d="M1131.9,176.6L1174.8,240.7L1119.9,272.5L1077,208.4L1131.9,176.6Z" style="fill:rgb(250,184,58);fill-rule:nonzero;"/>
                        </g>
                    </g>
                </g>
                <g>
                    <g>
                        <g>
                            <path d="M1150.1,642L1074.7,623.6L1036.8,537L1112.2,555.5L1150.1,642Z" style="fill:rgb(242,142,0);fill-rule:nonzero;"/>
                        </g>
                        <g>
                            <path d="M1112.2,555.5L1036.8,537L1108.8,473.8L1184.1,492.2L1112.2,555.5Z" style="fill:rgb(250,184,58);fill-rule:nonzero;"/>
                        </g>
                        <g>
                            <path d="M1184.1,492.2L1222,578.8L1150.1,642L1112.2,555.5L1184.1,492.2Z" style="fill:rgb(255,166,0);fill-rule:nonzero;"/>
                        </g>
                    </g>
                </g>
                <g>
                    <g>
                        <g>
                            <path d="M636.2,592.4L564.4,550.7L564.2,471.4L635.9,513.1L636.2,592.4Z" style="fill:rgb(242,142,0);fill-rule:nonzero;"/>
                        </g>
                        <g>
                            <path d="M635.9,513.1L564.2,471.4L633.2,431.5L705,473.2L635.9,513.1Z" style="fill:rgb(250,184,58);fill-rule:nonzero;"/>
                        </g>
                        <g>
                            <path d="M705,473.2L705.2,552.6L636.2,592.4L635.9,513.1L705,473.2Z" style="fill:rgb(255,166,0);fill-rule:nonzero;"/>
                        </g>
                    </g>
                </g>
                <g>
                    <g>
                        <g>
                            <path d="M901.9,522.3L839.1,488.1L866.9,432.2L929.7,466.5L901.9,522.3Z" style="fill:rgb(255,166,0);fill-rule:nonzero;"/>
                        </g>
                        <g>
                            <path d="M929.7,466.5L866.9,432.2L885.1,409.5L947.9,443.7L929.7,466.5Z" style="fill:rgb(250,184,58);fill-rule:nonzero;"/>
                        </g>
                        <g>
                            <path d="M947.9,443.7L920,499.6L901.9,522.3L929.7,466.5L947.9,443.7Z" style="fill:rgb(242,142,0);fill-rule:nonzero;"/>
                        </g>
                    </g>
                </g>
                <g>
                    <g>
                        <g>
                            <path d="M922.9,810.8L838.6,747.5L821.8,704L906.1,767.3L922.9,810.8Z" style="fill:rgb(242,142,0);fill-rule:nonzero;"/>
                        </g>
                        <g>
                            <path d="M906.1,767.3L821.8,704L892.7,625L977,688.2L906.1,767.3Z" style="fill:rgb(250,184,58);fill-rule:nonzero;"/>
                        </g>
                        <g>
                            <path d="M993.7,731.7L922.9,810.8L906.1,767.3L977,688.2L993.7,731.7Z" style="fill:rgb(255,166,0);fill-rule:nonzero;"/>
                        </g>
                    </g>
                </g>
                <g>
                    <g>
                        <g>
                            <path d="M783.7,231.7L728.8,217.6L720.6,143.7L775.5,157.8L783.7,231.7Z" style="fill:rgb(242,142,0);fill-rule:nonzero;"/>
                        </g>
                        <g>
                            <path d="M775.5,157.8L720.6,143.7L778.4,121L833.3,135.1L775.5,157.8Z" style="fill:rgb(250,184,58);fill-rule:nonzero;"/>
                        </g>
                        <g>
                            <path d="M833.3,135.1L841.5,209L783.7,231.7L775.5,157.8L833.3,135.1Z" style="fill:rgb(255,166,0);fill-rule:nonzero;"/>
                        </g>
                    </g>
                </g>
            </g>
            <path d="M1252.7,737.7L926.5,926C920.1,929.7 911.7,931.5 903.3,931.5C894.9,931.5 886.6,929.7 880.2,926L556.2,737.7" style="fill:none;fill-rule:nonzero;stroke:black;stroke-width:1px;"/>
            <path d="M1268.6,646.1L927.5,843.1C920.8,847 912.1,848.9 903.3,848.9C894.6,848.9 885.8,847 879.2,843.1L540.3,646.1" style="fill:none;fill-rule:nonzero;stroke:black;stroke-width:1px;"/>
            <path d="M1284.5,554.5L928.5,760.1C921.5,764.1 912.4,766.1 903.3,766.1C894.2,766.1 885.1,764.1 878.2,760.1L524.4,554.5" style="fill:none;fill-rule:nonzero;stroke:black;stroke-width:1px;"/>
            <path d="M1300.3,463L929.4,677.1C922.2,681.3 912.7,683.4 903.2,683.4C893.7,683.4 884.3,681.3 877.1,677.1L508.5,462.9" style="fill:none;fill-rule:nonzero;stroke:black;stroke-width:1px;"/>
            <path d="M1316.2,371.4L930.3,594.2C922.8,598.5 912.9,600.7 903.1,600.7C893.3,600.7 883.4,598.5 876,594.2L492.6,371.4" style="fill:none;fill-rule:nonzero;stroke:black;stroke-width:1px;"/>
            <g>
                <g>
                    <g>
                        <g>
                            <path d="M553.6,311.7L575.5,331L609.6,350.6L587.7,331.4L553.6,311.7Z" style="fill:rgb(230,230,230);fill-rule:nonzero;"/>
                        </g>
                        <g>
                            <path d="M587.7,331.4L609.6,350.6L636.2,310.9L614.3,291.6L587.7,331.4Z" style="fill:rgb(170,176,175);fill-rule:nonzero;"/>
                        </g>
                        <g>
                            <path d="M580.2,272L553.6,311.7L587.7,331.4L614.3,291.6L580.2,272Z" style="fill:rgb(230,230,230);fill-rule:nonzero;"/>
                        </g>
                    </g>
                </g>
                <g>
                    <g>
                        <g>
                            <path d="M771.7,653.7L818.3,642.3L841.8,588.7L795.1,600.1L771.7,653.7Z" style="fill:rgb(170,176,175);fill-rule:nonzero;"/>
                        </g>
                        <g>
                            <path d="M795.1,600.1L841.8,588.7L797.2,549.5L750.6,560.9L795.1,600.1Z" style="fill:rgb(243,243,249);fill-rule:nonzero;"/>
                        </g>
                        <g>
                            <path d="M750.6,560.9L727.1,614.5L771.7,653.7L795.1,600.1L750.6,560.9Z" style="fill:rgb(230,230,230);fill-rule:nonzero;"/>
                        </g>
                    </g>
                </g>
                <g>
                    <g>
                        <g>
                            <path d="M1018.2,408.5L1062.6,382.7L1062.8,333.6L1018.3,359.4L1018.2,408.5Z" style="fill:rgb(170,176,175);fill-rule:nonzero;"/>
                        </g>
                        <g>
                            <path d="M1018.3,359.4L1062.8,333.6L1020,308.9L975.5,334.7L1018.3,359.4Z" style="fill:rgb(243,243,249);fill-rule:nonzero;"/>
                        </g>
                        <g>
                            <path d="M975.5,334.7L975.4,383.9L1018.2,408.5L1018.3,359.4L975.5,334.7Z" style="fill:rgb(230,230,230);fill-rule:nonzero;"/>
                        </g>
                    </g>
                </g>
                <g>
                    <g>
                        <g>
                            <path d="M1251.4,371.5L1290.3,350.2L1273.1,315.6L1234.2,336.9L1251.4,371.5Z" style="fill-rule:nonzero;"/>
                        </g>
                        <g>
                            <path d="M1234.2,336.9L1273.1,315.6L1261.8,301.5L1222.9,322.8L1234.2,336.9Z" style="fill:rgb(51,51,51);fill-rule:nonzero;"/>
                        </g>
                        <g>
                            <path d="M1222.9,322.8L1240.1,357.4L1251.4,371.5L1234.2,336.9L1222.9,322.8Z" style="fill:rgb(28,28,28);fill-rule:nonzero;"/>
                        </g>
                    </g>
                </g>
                <g>
                    <g>
                        <g>
                            <path d="M780.1,408.4L832.3,369.3L842.7,342.3L790.5,381.5L780.1,408.4Z" style="fill-rule:nonzero;"/>
                        </g>
                        <g>
                            <path d="M790.5,381.5L842.7,342.3L798.8,293.3L746.6,332.5L790.5,381.5Z" style="fill:rgb(51,51,51);fill-rule:nonzero;"/>
                        </g>
                        <g>
                            <path d="M736.2,359.4L780.1,408.4L790.5,381.5L746.6,332.5L736.2,359.4Z" style="fill:rgb(28,28,28);fill-rule:nonzero;"/>
                        </g>
                    </g>
                </g>
                <g>
                    <g>
                        <g>
                            <path d="M946.1,189L980.1,180.3L985.2,134.5L951.2,143.2L946.1,189Z" style="fill:rgb(170,176,175);fill-rule:nonzero;"/>
                        </g>
                        <g>
                            <path d="M951.2,143.2L985.2,134.5L949.4,120.4L915.4,129.2L951.2,143.2Z" style="fill:rgb(243,243,249);fill-rule:nonzero;"/>
                        </g>
                        <g>
                            <path d="M915.4,129.2L910.3,174.9L946.1,189L951.2,143.2L915.4,129.2Z" style="fill:rgb(230,230,230);fill-rule:nonzero;"/>
                        </g>
                    </g>
                </g>
            </g>
        </g>
    </g>
</svg>
