<?xml version="1.0" encoding="UTF-8" standalone="no"?>
<!DOCTYPE svg PUBLIC "-//W3C//DTD SVG 1.1//EN" "http://www.w3.org/Graphics/SVG/1.1/DTD/svg11.dtd">
<svg width="100%" height="100%" viewBox="0 0 1920 1080" version="1.1" xmlns="http://www.w3.org/2000/svg" xmlns:xlink="http://www.w3.org/1999/xlink" xml:space="preserve" xmlns:serif="http://www.serif.com/" style="fill-rule:evenodd;clip-rule:evenodd;stroke-linejoin:round;stroke-miterlimit:2;">
    <g>
        <g>
            <g>
                <path d="M1562.6,557.9L922,910L444.8,671.5L444.8,615.2L1637.6,495.9L1562.6,557.9Z" style="fill:rgb(230,230,230);fill-rule:nonzero;"/>
                <path d="M1637.6,552.2L922,910L922,829.9L993.5,615.2L1637.6,495.9L1637.6,552.2Z" style="fill:rgb(245,245,247);fill-rule:nonzero;"/>
                <path d="M1637.6,495.9L922,849.9L444.8,615.2C444.8,615.2 492.5,591.4 540.3,567.6L1160.5,257.4L1637.6,495.9Z" style="fill:rgb(170,176,175);fill-rule:nonzero;"/>
                <g>
                    <path d="M1611.3,484C1611.3,484 1086.8,780.3 1039.1,804C991.4,827.8 942,849.8 942,849.8L454.2,575.1C454.2,575.1 492.5,591.3 540.2,567.5C566.2,554.5 738,466 888.8,388.2C900,382.4 923.9,356.4 923.9,356.4C923.9,356.4 956.2,353.4 972.3,345.1L1125.4,266.1L1611.3,484Z" style="fill:white;fill-rule:nonzero;"/>
                </g>
            </g>
            <g>
                <path d="M991.9,657.9C993.7,657.9 995.5,658 997.4,658.5C998.1,658.7 998.6,658.9 999.1,659.2C1000.4,660.1 1001.1,661.8 999.6,663.6C996.3,667.6 988.2,669.7 974,670.1C961.5,670.5 949,670.5 936.5,670.1C922.3,672.1 908,674.1 893.4,675.6C893.3,677.9 891.8,680.1 890.6,681.9L890.2,682.5C885.5,689.4 885,695.4 888.9,700.2C892.9,705.1 902,709.2 912.6,710.9C917.6,711.7 922.9,712 928.1,711.7C926.5,710.9 925.5,710.1 925,709.2C924.3,708 924.3,706.7 925,705.5C927.1,702.3 934,701.6 935.3,701.4C940.6,700.9 945.6,701.7 948.7,703.3C951,704.5 952.1,706.3 951.8,708.2C951.5,710.4 949.3,712.3 945.9,713.3C944.4,713.7 942.9,714.1 941.3,714.4C941.1,715.1 940.6,715.8 939.8,716.4C939.3,716.8 939.2,717.1 939.2,717.2C939.2,717.3 939.5,717.6 940.2,717.8L941.5,718.2C944.9,719.3 948.8,720.6 950.6,722.7C951.3,723.5 951.6,724.3 951.9,724.9C952.2,725.6 952.3,725.9 954.4,726.5C956,726.9 957.9,727.2 960.1,727.2C968.4,727.4 976.2,725.9 983.9,724.5L988.7,723.6C1001.6,721.3 1015.1,719.9 1028.8,719.4C1034.5,719.2 1038.5,719.5 1040.3,721.5C1041.1,722.4 1041.3,723.6 1040.7,724.8C1039.7,727.1 1035.8,728.2 1028.4,729.5L1027.6,729.7C1019.7,731.2 1011.2,731.8 1003,732.4L996.9,732.8C983,733.9 971.1,735.6 960.4,737.9C955.7,739 951,740.2 946.4,741.5C955.2,742.1 964.2,742.3 973.1,742.2L973.2,746.6C964,746.7 954.8,746.5 945.7,745.9C942.3,745.7 938.9,745.3 936.2,744.4C930.7,745.9 925.1,747.4 919.2,748.6C909.8,750.5 902.5,750.9 896.1,749.9C893.1,749.4 890.9,748.7 889.5,747.6C888.1,746.5 887.4,745.1 887.6,743.6C888,740.5 892.2,738.2 894,737.4C902.2,733.7 913.7,731.8 924.8,732.4C927.1,732.5 929.7,732.8 931.8,733.8C934.2,735 935,736.7 935.5,737.9C935.8,738.7 936.1,739.1 936.5,739.5L936.6,739.6C937.7,739.3 938.7,739 939.8,738.7C946,737 952.3,735.2 959,733.7C970,731.3 982.2,729.5 996.4,728.4L1002.6,727.9C1010.6,727.3 1018.9,726.7 1026.5,725.3L1027.3,725.1C1030.1,724.6 1032.2,724.1 1033.7,723.7C1032.6,723.6 1031.1,723.6 1029,723.7C1015.6,724.2 1002.4,725.6 989.8,727.8L985.1,728.7C977.1,730.2 968.8,731.8 960,731.5C957.4,731.4 955,731.1 952.9,730.6C948.6,729.5 947.7,727.9 947,726.3C946.8,725.9 946.7,725.6 946.5,725.3C945.6,724.2 942,723.1 939.7,722.3L938.3,721.8C936,721 934.4,719.5 934.1,717.8C934,717 934.1,716.2 934.4,715.5C926.9,716.4 919,716.2 911.7,715.1C899.6,713.2 889.5,708.5 884.6,702.5C879.6,696.3 880,688.5 885.7,680.1L886.1,679.5C887.1,678.1 887.8,676.9 888.1,676C875.9,677.2 863.7,678 851.3,678.3C838.8,678.6 822.8,678.4 810.2,674.2C807.7,673.4 806.1,671.9 805.7,670.1C805.4,668.6 806,667.1 807.5,666C809.9,664.2 813.6,663.4 817.3,662.8C837.7,659.4 861.1,660.5 880,665.6C886,667.2 889.7,669 891.7,671.1C898.7,670.4 905.7,669.6 912.7,668.7C909.2,668.5 905.8,668.2 902.3,667.9L902.8,663.5C913.8,664.5 925,665.1 936.2,665.5C942.2,664.6 948.1,663.7 954.1,662.9C965.2,661.3 976.2,659.6 987.3,658.1C988.5,658 990.1,657.9 991.9,657.9ZM993.5,662.3C991.8,662.2 989.9,662.3 987.9,662.5C980.2,663.5 972.6,664.6 964.9,665.8C967.8,665.7 970.7,665.7 973.7,665.6C985.3,665.2 990.9,663.8 993.5,662.3ZM884.2,672C882.8,671.4 880.9,670.7 878.2,670C860.1,665.1 837.7,664.1 818.1,667.3C815.5,667.7 812.2,668.4 810.8,669.5C810.7,669.6 811,669.9 811.9,670.3C823.7,674.3 839.8,674.3 850.9,674.1C862.2,673.7 873.3,673 884.2,672ZM938.8,710.4C940.7,710 942.5,709.6 944.2,709.1C945.9,708.6 946.5,707.9 946.6,707.7C946.6,707.6 946.4,707.4 945.8,707C943.7,705.9 939.8,705.4 935.7,705.7C932.7,706 930.5,706.7 929.7,707.3C930.3,707.7 932,708.6 937.4,709.9C937.9,710 938.4,710.2 938.8,710.4ZM931.5,740.9C931.1,740.3 930.9,739.8 930.7,739.3C930.3,738.3 930.1,737.9 929.3,737.5C928.1,736.9 926,736.8 924.5,736.7C914.3,736.1 903.9,737.8 896.5,741.1C893.7,742.4 892.8,743.6 892.8,743.9C893.3,744.3 894.3,744.9 897.1,745.3C902.7,746.2 909.4,745.8 918,744C922.6,743.2 927.1,742 931.5,740.9Z" style="fill:rgb(28,28,28);fill-rule:nonzero;"/>
            </g>
            <g>
                <path d="M1413.8,455.8L1123.5,319.1C1121.7,318.2 1121.9,316.7 1124,315.7C1126.1,314.7 1129.2,314.5 1131,315.4L1421.2,452C1423,452.9 1422.8,454.4 1420.7,455.4C1418.7,456.5 1415.6,456.7 1413.8,455.8Z" style="fill:rgb(28,28,28);fill-rule:nonzero;"/>
                <path d="M1251,402.6L1098.7,330.9C1097.3,330.2 1097.4,329 1099.1,328.2L1100.7,327.4C1102.3,326.6 1104.8,326.5 1106.2,327.1L1258.5,398.8C1259.9,399.5 1259.8,400.7 1258.1,401.5L1256.5,402.3C1254.9,403.1 1252.4,403.3 1251,402.6Z" style="fill:rgb(28,28,28);fill-rule:nonzero;"/>
                <path d="M1317.7,504.3L1027.4,367.6C1025.6,366.7 1025.8,365.2 1027.9,364.2C1030,363.2 1033.1,363 1034.9,363.9L1325.2,500.6C1327,501.5 1326.8,503 1324.7,504C1322.6,505 1319.5,505.2 1317.7,504.3Z" style="fill:rgb(28,28,28);fill-rule:nonzero;"/>
                <path d="M1269.7,528.6L979.4,391.9C977.6,391 977.8,389.5 979.9,388.5C982,387.5 985.1,387.3 986.9,388.2L1277.2,524.9C1279,525.8 1278.8,527.3 1276.7,528.3C1274.6,529.3 1271.5,529.5 1269.7,528.6Z" style="fill:rgb(28,28,28);fill-rule:nonzero;"/>
                <path d="M1245.7,540.7L955.4,404C953.6,403.1 953.8,401.6 955.9,400.6C958,399.6 961.1,399.4 962.9,400.3L1253.1,537C1254.9,537.9 1254.7,539.4 1252.6,540.4C1250.6,541.4 1247.5,541.6 1245.7,540.7Z" style="fill:rgb(28,28,28);fill-rule:nonzero;"/>
                <path d="M1155,451.1L1002.7,379.4C1001.3,378.7 1001.4,377.5 1003.1,376.7L1004.7,375.9C1006.3,375.1 1008.8,375 1010.2,375.6L1162.5,447.3C1163.9,448 1163.8,449.2 1162.1,450L1160.5,450.8C1158.8,451.7 1156.4,451.8 1155,451.1Z" style="fill:rgb(28,28,28);fill-rule:nonzero;"/>
                <path d="M1338,467L1075.4,343.3C1073.6,342.4 1073.8,340.9 1075.9,339.9C1078,338.9 1081.1,338.7 1082.9,339.6L1345.5,463.3C1347.3,464.2 1347.1,465.7 1345,466.7C1343,467.7 1339.9,467.9 1338,467Z" style="fill:rgb(28,28,28);fill-rule:nonzero;"/>
                <path d="M1215.4,432.7L1050.9,355.2C1049.4,354.5 1049.6,353.3 1051.3,352.4L1052.7,351.7C1054.4,350.9 1056.9,350.7 1058.4,351.4L1222.9,428.9C1224.4,429.6 1224.2,430.8 1222.5,431.7L1221.1,432.4C1219.4,433.2 1216.8,433.4 1215.4,432.7Z" style="fill:rgb(28,28,28);fill-rule:nonzero;"/>
                <path d="M1082.9,487.5L930.6,415.8C929.2,415.1 929.3,413.9 931,413.1L932.6,412.3C934.2,411.5 936.7,411.4 938.1,412L1090.4,483.7C1091.8,484.4 1091.7,485.6 1090,486.4L1088.4,487.2C1086.8,488.1 1084.3,488.2 1082.9,487.5Z" style="fill:rgb(28,28,28);fill-rule:nonzero;"/>
                <path d="M1149.6,589.3L859.3,452.5C857.5,451.6 857.7,450.1 859.8,449.1C861.9,448.1 865,447.9 866.8,448.8L1157.1,585.5C1158.9,586.4 1158.7,587.9 1156.6,588.9C1154.5,590 1151.4,590.1 1149.6,589.3Z" style="fill:rgb(28,28,28);fill-rule:nonzero;"/>
                <path d="M1101.6,613.5L811.3,476.8C809.5,475.9 809.7,474.4 811.8,473.4C813.9,472.4 817,472.2 818.8,473.1L1109,609.8C1110.8,610.7 1110.6,612.2 1108.5,613.2C1106.5,614.2 1103.4,614.4 1101.6,613.5Z" style="fill:rgb(28,28,28);fill-rule:nonzero;"/>
                <path d="M1077.5,625.7L787.3,488.9C785.5,488 785.7,486.5 787.8,485.5C789.9,484.5 793,484.3 794.8,485.2L1085,621.9C1086.8,622.8 1086.6,624.3 1084.5,625.3C1082.5,626.4 1079.4,626.5 1077.5,625.7Z" style="fill:rgb(28,28,28);fill-rule:nonzero;"/>
                <path d="M986.9,536.1L834.6,464.4C833.2,463.7 833.3,462.5 835,461.7L836.6,460.9C838.2,460.1 840.7,460 842.1,460.6L994.4,532.3C995.8,533 995.7,534.2 994,535L992.4,535.8C990.7,536.6 988.3,536.7 986.9,536.1Z" style="fill:rgb(28,28,28);fill-rule:nonzero;"/>
                <path d="M1169.9,552L907.4,428.3C905.6,427.4 905.8,425.9 907.9,424.9C910,423.9 913.1,423.7 914.9,424.6L1177.5,548.3C1179.3,549.2 1179.1,550.7 1177,551.7C1174.9,552.7 1171.8,552.8 1169.9,552Z" style="fill:rgb(28,28,28);fill-rule:nonzero;"/>
                <path d="M1047.2,517.6L882.7,440.1C881.2,439.4 881.4,438.2 883.1,437.3L884.5,436.6C886.2,435.8 888.7,435.6 890.2,436.3L1054.7,513.8C1056.2,514.5 1056,515.7 1054.3,516.6L1052.9,517.3C1051.3,518.2 1048.7,518.3 1047.2,517.6Z" style="fill:rgb(28,28,28);fill-rule:nonzero;"/>
            </g>
            <g>
                <path d="M813.8,574.1C812.5,569.2 818.2,562.9 814.2,558.5C813.6,557.9 812.9,557.3 812,556.8C806.9,553.9 797.3,552.6 792,549.6C786.7,546.5 784.6,541 779.5,538.1C778.6,537.6 777.6,537.1 776.5,536.8C768.8,534.5 757.9,537.8 749.5,537.1C741,536.3 732.4,531.2 723.9,532C715.5,532.8 710.1,539.1 702.4,541.4C695,543.6 682.8,542.4 676.6,546C670.4,549.6 672.5,556.6 668.8,560.9C664.9,565.4 653.9,568.6 652.6,573.4C651.3,578.3 660.1,583.3 661.5,588.2C661.7,588.9 661.7,589.6 661.7,590.4L617.4,608.3L626.6,610.8L660.1,597.3L626.6,610.8L630.6,611.9L659.8,600.1L630.6,611.9L645.2,615.9L645.5,623L645.6,625.7L645.8,631.8L686.7,615.3C689.4,617.9 691.4,621 694.4,623.3L668.5,644.9L679.1,645L683.7,645.1L696,645.2L703,653.7L704.9,656L738.1,628.2L705,656L709.4,661.3L746.6,630.2C748.2,630.4 749.9,630.5 751.5,630.3C759.9,629.5 765.3,623.2 773,620.9C780.4,618.7 792.6,619.9 798.8,616.3C805,612.7 802.9,605.7 806.6,601.4C810.5,596.9 821.5,593.7 822.8,588.9C824,584 815.2,579 813.8,574.1Z" style="fill:rgb(170,176,175);fill-rule:nonzero;"/>
                <g>
                    <g>
                        <g>
                            <g>
                                <path d="M714.9,578.5L714.9,583.4L712.7,581.6L712.8,576.7L714.9,578.5Z" style="fill:rgb(120,64,20);fill-rule:nonzero;"/>
                            </g>
                            <g>
                                <path d="M696.6,563.3L696.6,568.3L626.5,596.6L626.5,591.6L696.6,563.3Z" style="fill:rgb(181,97,36);fill-rule:nonzero;"/>
                            </g>
                            <g>
                                <path d="M698.8,565.2L698.8,570.1L630.5,597.7L630.5,592.7L698.8,565.2Z" style="fill:rgb(196,196,196);fill-rule:nonzero;"/>
                            </g>
                            <g>
                                <path d="M712.8,576.7L712.7,581.6L645.4,608.8L645.5,603.9L712.8,576.7Z" style="fill:rgb(181,97,36);fill-rule:nonzero;"/>
                            </g>
                            <g>
                                <path d="M645.5,603.9L645.4,608.8L645.1,601.7L645.2,596.8L645.5,603.9Z" style="fill:rgb(118,63,20);fill-rule:nonzero;"/>
                            </g>
                            <g>
                                <path d="M714.9,578.5L714.9,583.4L645.6,611.5L645.6,606.6L714.9,578.5Z" style="fill:rgb(196,196,196);fill-rule:nonzero;"/>
                            </g>
                            <g>
                                <path d="M696.6,563.3L626.5,591.6L630.5,592.7L698.8,565.2L696.6,563.3Z" style="fill:white;fill-rule:nonzero;"/>
                                <path d="M712.8,576.7L645.5,603.9L645.6,606.6L714.9,578.5L712.8,576.7Z" style="fill:white;fill-rule:nonzero;"/>
                            </g>
                            <g>
                                <path d="M645.6,606.6L645.6,611.5L645.4,608.8L645.5,603.9L645.6,606.6Z" style="fill:rgb(128,128,128);fill-rule:nonzero;"/>
                            </g>
                            <g>
                                <path d="M626.5,591.6L617.4,589.1L617.3,594L626.5,596.6L630.5,597.7L645.1,601.7L645.2,596.8L630.5,592.7L626.5,591.6Z" style="fill:rgb(242,142,0);fill-rule:nonzero;"/>
                                <path d="M645.8,612.7L645.8,617.6L720,587.6L720,582.7L645.8,612.7Z" style="fill:rgb(242,142,0);fill-rule:nonzero;"/>
                            </g>
                            <g>
                                <path d="M691.6,559.1L617.4,589.1L626.5,591.6L696.6,563.3L691.6,559.1Z" style="fill:rgb(255,166,0);fill-rule:nonzero;"/>
                                <path d="M698.8,565.2L630.5,592.7L645.2,596.8L645.5,603.9L712.8,576.7L714.9,578.5L645.6,606.6L645.8,612.7L720,582.7L698.8,565.2Z" style="fill:rgb(255,166,0);fill-rule:nonzero;"/>
                            </g>
                            <g>
                                <path d="M645.8,612.7L645.8,617.6L645.6,611.5L645.6,606.6L645.8,612.7Z" style="fill:rgb(118,63,20);fill-rule:nonzero;"/>
                            </g>
                        </g>
                    </g>
                    <g>
                        <g>
                            <g>
                                <path d="M730.5,586.9L730.5,591.8L727.3,590.6L727.3,585.6L730.5,586.9Z" style="fill:rgb(134,72,24);fill-rule:nonzero;"/>
                            </g>
                            <g>
                                <path d="M727.3,585.6L727.3,590.6L679.2,630.8L679.2,625.9L727.3,585.6Z" style="fill:rgb(176,95,35);fill-rule:nonzero;"/>
                            </g>
                            <g>
                                <path d="M730.5,586.9L683.8,626L679.2,625.9L727.3,585.6L730.5,586.9Z" style="fill:white;fill-rule:nonzero;"/>
                            </g>
                            <g>
                                <path d="M730.5,586.9L730.5,591.8L683.7,630.9L683.8,626L730.5,586.9Z" style="fill:rgb(191,191,191);fill-rule:nonzero;"/>
                            </g>
                            <g>
                                <path d="M750.5,594.9L750.5,599.9L703.1,639.5L703.1,634.6L750.5,594.9Z" style="fill:rgb(176,95,35);fill-rule:nonzero;"/>
                            </g>
                            <g>
                                <path d="M720.1,582.7L750.5,594.9L703.1,634.6L696.1,626.1L683.8,626L730.5,586.9L727.3,585.6L679.2,625.9L668.6,625.8L720.1,582.7Z" style="fill:rgb(255,166,0);fill-rule:nonzero;"/>
                            </g>
                            <g>
                                <path d="M753.6,596.2L705,636.9L703.1,634.6L750.5,594.9L753.6,596.2Z" style="fill:white;fill-rule:nonzero;"/>
                            </g>
                            <g>
                                <path d="M753.6,596.2L753.6,601.1L705,641.8L705,636.9L753.6,596.2Z" style="fill:rgb(191,191,191);fill-rule:nonzero;"/>
                            </g>
                            <g>
                                <path d="M760.9,599.1L709.4,642.2L705,636.9L753.6,596.2L760.9,599.1Z" style="fill:rgb(255,166,0);fill-rule:nonzero;"/>
                            </g>
                            <path d="M709.4,642.2L705,636.9L703.1,634.6L696.1,626.1L683.8,626L679.2,625.9L668.6,625.8L668.5,630.7L679.2,630.8L683.7,630.9L696.1,631L703.1,639.5L705,641.8L709.3,647.1L760.9,604.1L760.9,599.1L709.4,642.2Z" style="fill:rgb(242,142,0);fill-rule:nonzero;"/>
                        </g>
                    </g>
                    <g>
                        <g>
                            <g>
                                <g>
                                    <path d="M813.7,558C813.7,557.7 813.8,557.4 813.9,557.1C814,556.8 814,556.5 814.1,556.1C814.1,556 814.2,555.8 814.2,555.7C814.3,555.3 814.5,554.8 814.6,554.4C814.7,553.9 814.9,553.5 815,553C815,552.9 815.1,552.7 815.1,552.6C815.2,552.3 815.3,551.9 815.3,551.6C815.3,551.5 815.3,551.5 815.4,551.4C815.4,551.2 815.5,550.9 815.5,550.7L815.5,550.5C815.5,550.2 815.6,549.8 815.6,549.5L815.6,543.3C815.6,543.7 815.6,544.1 815.5,544.5L815.5,544.7C815.5,545 815.4,545.3 815.3,545.6C815.2,545.9 815.2,546.2 815.1,546.6C815.1,546.7 815,546.9 815,547C814.9,547.5 814.7,547.9 814.6,548.4C814.5,548.8 814.3,549.3 814.2,549.7C814.2,549.8 814.1,550 814.1,550.1C814,550.4 813.9,550.7 813.9,551.1C813.9,551.2 813.9,551.2 813.8,551.3C813.8,551.5 813.7,551.7 813.7,552L813.7,552.2C813.7,552.5 813.6,552.8 813.6,553.2L813.6,559.4C813.6,559 813.6,558.6 813.7,558.2L813.7,558Z" style="fill:rgb(242,142,0);fill-rule:nonzero;"/>
                                    <path d="M661.7,576.7L661.7,570.7C661.7,570.1 661.6,569.6 661.5,569C660.6,565.9 656.7,562.7 654.3,559.5C653.2,558.1 652.5,556.6 652.5,555.2L652.5,561.2C652.5,565.8 660.2,570.4 661.5,575C661.6,575.6 661.7,576.2 661.7,576.7Z" style="fill:rgb(242,142,0);fill-rule:nonzero;"/>
                                    <path d="M822.7,569.8C822.6,570.1 822.5,570.3 822.4,570.5C822.4,570.6 822.3,570.6 822.3,570.7C822.2,570.9 822.1,571.1 821.9,571.3C821.8,571.4 821.8,571.5 821.7,571.6C821.7,571.7 821.6,571.7 821.5,571.8C821.3,572.1 821,572.3 820.7,572.6C820.6,572.7 820.4,572.9 820.2,573C820.1,573.1 820,573.2 819.8,573.3C819.6,573.5 819.4,573.6 819.2,573.8C819.1,573.9 819,574 818.8,574.1C818.6,574.3 818.3,574.4 818,574.6C817.9,574.7 817.8,574.7 817.7,574.8C817.3,575 817,575.3 816.6,575.5C815.7,576.1 814.7,576.6 813.8,577.1C812.9,577.6 812,578.1 811.2,578.6C811.1,578.6 811.1,578.7 811,578.7C810.9,578.8 810.8,578.9 810.6,578.9C810.4,579 810.3,579.1 810.1,579.2C809.9,579.3 809.7,579.5 809.4,579.6C809.2,579.7 809.1,579.8 808.9,579.9C808.7,580.1 808.5,580.2 808.3,580.4C808.2,580.5 808,580.6 807.9,580.7C807.7,580.9 807.4,581.1 807.2,581.3L805.9,582.6C805.8,582.7 805.8,582.7 805.8,582.8C805.6,583 805.5,583.2 805.4,583.5C805.4,583.6 805.3,583.6 805.3,583.7C805.3,583.7 805.3,583.8 805.2,583.8C805,584.2 804.8,584.7 804.6,585.2L804.6,585.3C804.6,585.4 804.6,585.4 804.5,585.5C804.1,586.5 803.9,587.6 803.6,588.7C803.5,589.2 803.3,589.8 803.2,590.3C803.2,590.4 803.1,590.5 803.1,590.6C803,591.1 802.8,591.6 802.6,592.2L802.6,592.3C802.4,592.8 802.2,593.3 801.9,593.7C801.9,593.8 801.8,593.9 801.8,593.9C801.6,594.3 801.4,594.6 801.1,595C801,595.1 801,595.1 800.9,595.2C800.7,595.5 800.5,595.7 800.2,595.9C800,596.1 799.8,596.2 799.6,596.4C799.5,596.5 799.5,596.5 799.4,596.6C799.1,596.8 798.7,597.1 798.4,597.3C798,597.5 797.6,597.7 797.1,597.9C796.9,598 796.8,598 796.6,598.1C796.3,598.2 796,598.3 795.7,598.5C795.5,598.6 795.4,598.6 795.2,598.7C794.8,598.8 794.5,598.9 794.1,599C793.9,599.1 793.7,599.1 793.4,599.1C793,599.2 792.7,599.3 792.3,599.3C792.1,599.3 791.9,599.4 791.7,599.4C791.2,599.5 790.6,599.6 790,599.7C789.9,599.7 789.7,599.7 789.6,599.8C788.9,599.9 788.2,600 787.4,600L787,600C785.9,600.1 784.7,600.2 783.6,600.3C782.5,600.4 781.3,600.5 780.2,600.6L779.6,600.6C779.1,600.7 778.5,600.7 778,600.8C777.8,600.8 777.6,600.8 777.4,600.9C776.7,601 776.1,601.1 775.4,601.2L775.3,601.2C775,601.3 774.7,601.3 774.4,601.4C774.2,601.4 774.1,601.5 773.9,601.5C773.4,601.6 772.9,601.7 772.5,601.9C772.3,602 772.1,602 771.9,602.1C771.8,602.1 771.7,602.2 771.6,602.2C770.9,602.4 770.3,602.7 769.7,602.9C769,603.2 768.4,603.5 767.8,603.8C767.7,603.9 767.5,603.9 767.4,604C766.8,604.3 766.2,604.6 765.6,605C765.5,605.1 765.4,605.1 765.2,605.2C764.6,605.5 764.1,605.8 763.5,606.2C762.9,606.6 762.3,606.9 761.7,607.3C761.6,607.4 761.4,607.5 761.3,607.5C760.7,607.8 760.1,608.2 759.5,608.5L759.4,608.5C758.8,608.8 758.2,609.1 757.6,609.4C757.5,609.5 757.3,609.5 757.2,609.6C756.6,609.9 755.9,610.1 755.3,610.3C755,610.4 754.7,610.5 754.3,610.6C754.2,610.6 754.1,610.7 753.9,610.7C753.4,610.8 753,610.9 752.5,611C752.3,611 752.2,611 752,611.1C751.7,611.2 751.3,611.2 750.9,611.2C750.4,611.2 750,611.3 749.5,611.3L747.5,611.3C747.2,611.3 746.9,611.2 746.7,611.2C746.4,611.2 746.2,611.1 745.9,611.1C745.7,611.1 745.5,611 745.3,611C744.8,610.9 744.3,610.8 743.9,610.7C743.7,610.7 743.5,610.6 743.3,610.6C742.8,610.5 742.3,610.4 741.8,610.3C741.7,610.3 741.5,610.2 741.4,610.2C740.8,610 740.2,609.9 739.6,609.7C739.5,609.7 739.4,609.6 739.3,609.6C738.3,609.3 737.2,609 736.2,608.7C735.2,608.4 734.1,608.1 733.1,607.8C733,607.8 733,607.8 732.9,607.7C732.8,607.7 732.7,607.6 732.6,607.6C732.2,607.5 731.7,607.4 731.3,607.3C731.1,607.2 730.9,607.2 730.6,607.1C730.2,607 729.7,606.9 729.3,606.8C729.2,606.8 729,606.7 728.9,606.7L728.8,606.7C728.2,606.6 727.5,606.5 726.9,606.4L726.8,606.4C726.3,606.3 725.9,606.3 725.4,606.2L721,606.2C720.1,606.2 719.3,606.3 718.4,606.4L717.9,606.4C717,606.5 716.1,606.6 715.2,606.6C714.7,606.7 714.1,606.7 713.6,606.8C713.4,606.8 713.1,606.8 712.9,606.9C711.9,607 711,607.1 710,607.2L709.8,607.2C708.9,607.3 708,607.3 707.1,607.4L703,607.4C702.7,607.4 702.4,607.4 702.1,607.3C701.9,607.3 701.7,607.3 701.5,607.2C701.1,607.2 700.8,607.1 700.4,607C700.3,607 700.2,607 700.1,606.9C699.6,606.8 699.1,606.7 698.7,606.5C698.2,606.4 697.8,606.2 697.4,606C696.8,605.8 696.3,605.5 695.7,605.2C690.6,602.3 688.5,596.7 683.2,593.7C682.8,593.5 682.4,593.3 681.9,593C681.8,592.9 681.6,592.9 681.5,592.8C681.2,592.6 680.8,592.5 680.5,592.4C680.4,592.4 680.3,592.3 680.3,592.3C680.2,592.3 680.2,592.3 680.1,592.2C679.6,592 679.1,591.8 678.6,591.7L678.5,591.7C678,591.5 677.5,591.4 676.9,591.2C676.7,591.1 676.6,591.1 676.4,591C676,590.9 675.6,590.7 675.2,590.6C675,590.6 674.9,590.5 674.7,590.5C674.1,590.3 673.6,590.2 673,590C672.5,589.9 672,589.7 671.5,589.6C671.3,589.5 671.1,589.5 671,589.4C670.6,589.3 670.2,589.2 669.8,589C669.6,589 669.5,588.9 669.3,588.9C668.8,588.7 668.2,588.6 667.7,588.4C667.6,588.4 667.6,588.4 667.5,588.3C667.1,588.1 666.6,588 666.2,587.8C666,587.7 665.9,587.7 665.8,587.6C665.5,587.5 665.2,587.3 664.9,587.2C664.8,587.1 664.6,587.1 664.5,587C664.1,586.8 663.7,586.6 663.3,586.4C662.4,585.9 661.6,585.3 661.1,584.7C660,583.5 659.7,582.2 659.7,580.8L659.7,586.8C659.7,588.2 660.1,589.5 661.1,590.7C661.7,591.3 662.4,591.9 663.3,592.4C663.7,592.6 664.1,592.8 664.5,593C664.6,593.1 664.8,593.1 664.9,593.2C665.2,593.3 665.5,593.5 665.8,593.6C665.9,593.6 665.9,593.7 666,593.7C666.1,593.7 666.1,593.8 666.2,593.8C666.6,594 667,594.1 667.5,594.3C667.6,594.3 667.6,594.3 667.7,594.4C668.2,594.6 668.7,594.7 669.3,594.9C669.5,594.9 669.6,595 669.8,595C670.2,595.1 670.6,595.3 671.1,595.4C671.3,595.4 671.4,595.5 671.6,595.5C672.1,595.6 672.6,595.8 673.1,595.9C673.7,596.1 674.2,596.2 674.8,596.4C675,596.4 675.1,596.5 675.3,596.5C675.7,596.6 676.1,596.7 676.5,596.9C676.7,597 676.8,597 677,597.1C677.5,597.3 678,597.4 678.6,597.6L678.7,597.6C679.2,597.8 679.7,598 680.2,598.1C680.3,598.2 680.5,598.2 680.6,598.3C681,598.4 681.3,598.6 681.6,598.7C681.7,598.8 681.9,598.8 682,598.9C682.4,599.1 682.9,599.3 683.3,599.6C688.6,602.7 690.7,608.2 695.8,611.1C696.3,611.4 696.9,611.7 697.5,611.9C697.6,611.9 697.6,612 697.7,612C698.1,612.1 698.5,612.3 698.9,612.4L699,612.4C699.4,612.5 699.8,612.6 700.2,612.7L700.3,612.7C700.4,612.7 700.5,612.7 700.6,612.8C700.9,612.9 701.2,612.9 701.4,612.9L701.6,612.9C701.8,612.9 702,612.9 702.2,613C702.4,613 702.6,613 702.8,613.1L707.2,613.1C708.1,613.1 709,613 709.9,612.9L710.1,612.9C711.1,612.8 712,612.7 713,612.6L713.2,612.6C713.4,612.6 713.5,612.6 713.7,612.5C714.3,612.4 714.8,612.4 715.4,612.3C716.3,612.2 717.2,612.1 718.1,612.1L718.6,612.1C719.5,612 720.4,612 721.2,611.9L724.9,611.9C725.2,611.9 725.4,611.9 725.7,612C726.2,612 726.7,612.1 727.2,612.2C727.8,612.3 728.5,612.4 729.1,612.5C729.3,612.5 729.5,612.6 729.6,612.6C730,612.7 730.5,612.8 730.9,612.9C731.1,613 731.3,613 731.5,613.1C731.9,613.2 732.4,613.3 732.8,613.5C733,613.5 733.2,613.6 733.3,613.6C734.3,613.9 735.3,614.2 736.4,614.5C737.4,614.8 738.5,615.1 739.5,615.4C739.6,615.4 739.7,615.4 739.7,615.5L739.8,615.5C740.4,615.7 741,615.8 741.6,616C741.7,616 741.9,616.1 742,616.1C742.5,616.2 743,616.3 743.5,616.4C743.6,616.4 743.7,616.4 743.8,616.5C743.9,616.5 744,616.5 744.1,616.6C744.6,616.7 745.1,616.8 745.5,616.9C745.6,616.9 745.8,616.9 745.9,617L746.1,617C746.4,617 746.6,617.1 746.9,617.1C747.1,617.1 747.3,617.2 747.5,617.2L750.1,617.2C750.5,617.2 750.8,617.2 751.2,617.1L751.4,617.1C751.7,617.1 752,617 752.3,617C752.5,617 752.7,617 752.8,616.9C753.3,616.8 753.7,616.7 754.2,616.6C754.3,616.6 754.4,616.5 754.6,616.5C754.9,616.4 755.2,616.3 755.5,616.2L755.6,616.2C756.3,616 756.9,615.7 757.5,615.5C757.6,615.4 757.8,615.4 757.9,615.3C758.5,615 759.1,614.7 759.7,614.4L759.8,614.4C760.4,614.1 761,613.7 761.6,613.4C761.7,613.3 761.9,613.2 762,613.2C762.6,612.8 763.2,612.5 763.8,612.1C764.4,611.8 764.9,611.4 765.5,611.1C765.6,611 765.7,611 765.9,610.9C766.5,610.6 767.1,610.2 767.7,609.9C767.8,609.8 768,609.8 768.1,609.7C768.7,609.4 769.4,609.1 770,608.8C770.6,608.5 771.3,608.3 771.9,608.1C772.2,608 772.4,607.9 772.7,607.8C773.2,607.7 773.6,607.5 774.1,607.4C774.3,607.4 774.4,607.3 774.6,607.3C774.9,607.2 775.2,607.2 775.6,607.1C776.2,607 776.9,606.9 777.6,606.8C777.8,606.8 778,606.8 778.2,606.7C778.7,606.6 779.3,606.6 779.8,606.5C780,606.5 780.2,606.5 780.4,606.4C781.5,606.3 782.6,606.2 783.8,606.1C784.9,606 786.1,605.9 787.2,605.8L787.6,605.8C788.3,605.7 789,605.6 789.8,605.6C789.9,605.6 790.1,605.6 790.2,605.5C790.8,605.4 791.3,605.3 791.9,605.2C792,605.2 792.1,605.2 792.3,605.1C792.4,605.1 792.5,605.1 792.6,605C793,604.9 793.3,604.9 793.7,604.8C793.9,604.8 794.1,604.7 794.4,604.7C794.8,604.6 795.1,604.5 795.5,604.4C795.6,604.4 795.8,604.3 795.9,604.3L796,604.3C796.3,604.2 796.6,604.1 796.9,603.9C797.1,603.8 797.2,603.8 797.4,603.7C797.8,603.5 798.3,603.3 798.7,603.1L798.8,603C799.1,602.8 799.4,602.6 799.7,602.4C799.8,602.3 799.8,602.3 799.9,602.2C800.1,602.1 800.2,601.9 800.4,601.8L801.2,601C801.2,600.9 801.3,600.9 801.4,600.8C801.7,600.5 801.9,600.1 802.1,599.7L802.1,599.6C802.1,599.5 802.1,599.5 802.2,599.4C802.5,598.9 802.7,598.4 802.9,598L802.9,597.9C803.1,597.4 803.2,596.9 803.4,596.3C803.4,596.2 803.5,596.1 803.5,596C803.6,595.5 803.8,594.9 803.9,594.4C804.2,593.3 804.4,592.2 804.8,591.2C804.8,591.1 804.9,591 804.9,590.9C805.1,590.4 805.3,590 805.5,589.5C805.6,589.4 805.6,589.3 805.7,589.2C805.8,589 806,588.7 806.1,588.5C806.2,588.3 806.4,588.1 806.5,588C806.7,587.7 807,587.5 807.3,587.2C807.4,587.1 807.4,587.1 807.5,587C807.7,586.8 808,586.6 808.2,586.4C808.3,586.3 808.5,586.2 808.6,586.1C808.8,585.9 809,585.8 809.2,585.6C809.3,585.5 809.5,585.4 809.6,585.3C809.8,585.2 810,585 810.3,584.9C810.5,584.8 810.6,584.7 810.8,584.6C811,584.5 811.2,584.4 811.4,584.3C812.2,583.8 813.1,583.3 814,582.8C815,582.3 815.9,581.7 816.8,581.2C817.2,581 817.6,580.7 817.9,580.5C818,580.4 818.1,580.4 818.2,580.3C818.5,580.1 818.7,580 819,579.8C819.1,579.7 819.2,579.6 819.4,579.5C819.6,579.3 819.8,579.2 820,579C820.1,578.9 820.2,578.8 820.4,578.7L821.7,577.4C821.8,577.3 821.8,577.2 821.9,577.1C822,576.9 822.1,576.8 822.2,576.6L822.2,576.5C822.2,576.4 822.3,576.4 822.3,576.3C822.4,576.2 822.4,576.1 822.5,575.9C822.5,575.8 822.6,575.6 822.6,575.5C822.6,575.4 822.6,575.3 822.7,575.3C822.7,575.1 822.8,574.9 822.8,574.6L822.8,568.5C822.9,569.2 822.8,569.5 822.7,569.8Z" style="fill:rgb(242,142,0);fill-rule:nonzero;"/>
                                </g>
                                <path d="M813.8,555C812.5,550.1 818.2,543.8 814.2,539.4C813.6,538.8 812.9,538.2 812,537.7C806.9,534.8 797.3,533.5 792,530.5C786.7,527.4 784.6,521.9 779.5,519C778.6,518.5 777.6,518 776.5,517.7C768.8,515.4 757.9,518.7 749.5,518C741,517.2 732.4,512.1 723.9,512.9C715.5,513.7 710.1,520 702.4,522.3C695,524.5 682.8,523.3 676.6,526.9C670.4,530.5 672.5,537.5 668.8,541.8C664.9,546.3 653.9,549.5 652.6,554.3C651.3,559.2 660.1,564.2 661.5,569.1C662.8,573.9 657.2,580.3 661.1,584.7C661.7,585.3 662.4,585.9 663.3,586.4C668.4,589.3 678,590.6 683.3,593.6C688.6,596.7 690.7,602.2 695.8,605.1C696.7,605.6 697.7,606.1 698.8,606.4C706.5,608.7 717.4,605.4 725.8,606.1C734.3,606.9 742.9,612 751.4,611.2C759.8,610.4 765.2,604.1 772.9,601.8C780.3,599.6 792.5,600.8 798.7,597.2C804.9,593.6 802.8,586.6 806.5,582.3C810.4,577.8 821.4,574.6 822.7,569.8C824,564.9 815.2,559.9 813.8,555Z" style="fill:rgb(255,166,0);fill-rule:nonzero;"/>
                            </g>
                        </g>
                        <g>
                            <path d="M690.1,589.7C716.5,604.9 759.3,604.9 785.6,589.7C811.8,574.5 811.7,549.6 785.3,534.4C758.9,519.2 716.1,519.2 689.8,534.4C663.6,549.7 663.7,574.5 690.1,589.7ZM692.9,536.3C717.4,522.1 757.4,522.1 782.1,536.3C806.8,550.5 806.9,573.7 782.4,588C757.9,602.2 717.9,602.2 693.2,588C668.6,573.7 668.4,550.5 692.9,536.3Z" style="fill:white;fill-rule:nonzero;"/>
                        </g>
                    </g>
                </g>
            </g>
        </g>
    </g>
</svg>
