<?xml version="1.0" encoding="UTF-8"?><svg id="Layer_1" xmlns="http://www.w3.org/2000/svg" viewBox="0 0 4092.72 1360"><defs><style>.cls-1{fill-rule:evenodd;}</style></defs><g id="Full-logo"><path id="Top" class="cls-1" d="m629.45,344.48c12.48-5.97,26.99-5.97,39.47,0,58.2,27.85,228.06,109.12,276.44,132.27,7.95,3.8,13,11.82,13,20.62v60.53s-214.09-63.48-285.96-84.79c-15.15-4.49-31.28-4.49-46.42,0-71.88,21.31-285.96,84.79-285.96,84.79v-60.53c0-8.8,5.05-16.82,13-20.62,48.38-23.15,218.24-104.42,276.44-132.27Z"/><path id="Bottom" class="cls-1" d="m668.92,1015.52c-12.49,5.98-27,5.98-39.47,0-58.2-27.84-228.06-109.12-276.44-132.26-7.94-3.8-13-11.83-13-20.63v-60.52s214.09,63.47,285.96,84.79c15.15,4.49,31.28,4.49,46.42,0,71.88-21.32,285.96-84.79,285.96-84.79v60.52c0,8.8-5.05,16.83-13,20.63-48.38,23.15-218.23,104.42-276.44,132.26Z"/><g id="Mid"><path class="cls-1" d="m340,715.5v-71l309.18-26.39h0l309.18,26.39v71l-309.18,26.39-309.18-26.39Z"/></g></g><g><path d="m1437.12,804.64c5.27,0,9.4,1.73,12.36,5.19,2.97,3.46,4.45,7.5,4.45,12.12,0,4.29-1.48,7.91-4.45,10.88-2.97,2.97-7.09,4.45-12.36,4.45h-208.22c-6.6,0-12.04-2.14-16.32-6.43-4.29-4.28-6.43-9.4-6.43-15.33v-271.53c0-5.93,2.14-10.96,6.43-15.09,4.28-4.12,9.72-6.18,16.32-6.18h208.71c4.95,0,8.73,1.48,11.38,4.45,2.64,2.97,3.96,6.6,3.96,10.88s-1.41,8.08-4.2,11.38c-2.81,3.3-6.68,4.95-11.62,4.95h-195.36v111.28h185.96c4.61,0,8.32,1.57,11.13,4.7,2.8,3.14,4.2,7.01,4.2,11.62,0,3.96-1.32,7.5-3.96,10.63-2.64,3.14-6.43,4.7-11.37,4.7h-185.96v107.32h195.36Z"/><path d="m1522.18,818.98v-278.94c0-5.6,1.81-9.89,5.44-12.86,3.62-2.97,7.91-4.45,12.86-4.45s9.23,1.48,12.86,4.45c3.62,2.97,5.44,7.26,5.44,12.86v264.6h184.97c5.93,0,10.55,1.57,13.85,4.7,3.29,3.14,4.95,7.01,4.95,11.62,0,4.29-1.65,8.08-4.95,11.38-3.3,3.3-7.91,4.95-13.85,4.95h-202.78c-12.54,0-18.79-6.1-18.79-18.3Z"/><path d="m2038.02,804.64c5.27,0,9.4,1.73,12.37,5.19,2.97,3.46,4.45,7.5,4.45,12.12,0,4.29-1.48,7.91-4.45,10.88-2.97,2.97-7.09,4.45-12.37,4.45h-208.22c-6.6,0-12.04-2.14-16.32-6.43-4.29-4.28-6.43-9.4-6.43-15.33v-271.53c0-5.93,2.14-10.96,6.43-15.09,4.28-4.12,9.72-6.18,16.32-6.18h208.71c4.95,0,8.73,1.48,11.38,4.45,2.63,2.97,3.96,6.6,3.96,10.88s-1.41,8.08-4.2,11.38c-2.8,3.3-6.68,4.95-11.62,4.95h-195.36v111.28h185.96c4.61,0,8.32,1.57,11.13,4.7,2.8,3.14,4.2,7.01,4.2,11.62,0,3.96-1.32,7.5-3.96,10.63-2.64,3.14-6.43,4.7-11.38,4.7h-185.96v107.32h195.36Z"/><path d="m2415.39,522.72c4.61,0,8.57,1.73,11.87,5.19,3.29,3.46,4.95,8.16,4.95,14.1v277.46c0,5.61-1.73,9.98-5.19,13.11-3.46,3.14-7.67,4.7-12.61,4.7s-9.23-1.56-12.86-4.7c-3.63-3.13-5.44-7.5-5.44-13.11v-217.62l-100.9,157.77c-4.29,6.92-9.89,10.39-16.82,10.39s-12.7-3.46-17.31-10.39l-100.89-156.78v216.63c0,5.61-1.73,9.98-5.19,13.11-3.46,3.14-7.67,4.7-12.61,4.7s-9.24-1.56-12.86-4.7c-3.63-3.13-5.44-7.5-5.44-13.11v-276.97c0-5.93,1.73-10.71,5.19-14.34,3.46-3.62,7.5-5.44,12.12-5.44,2.97,0,5.94.91,8.9,2.72,2.97,1.82,5.44,4.54,7.42,8.16l120.68,187.45,119.69-187.94c4.28-6.92,10.05-10.39,17.31-10.39Z"/><path d="m2750.71,804.64c5.27,0,9.4,1.73,12.36,5.19,2.97,3.46,4.45,7.5,4.45,12.12,0,4.29-1.48,7.91-4.45,10.88-2.97,2.97-7.09,4.45-12.36,4.45h-208.22c-6.6,0-12.04-2.14-16.32-6.43-4.29-4.28-6.43-9.4-6.43-15.33v-271.53c0-5.93,2.14-10.96,6.43-15.09,4.28-4.12,9.72-6.18,16.32-6.18h208.71c4.95,0,8.73,1.48,11.37,4.45,2.64,2.97,3.96,6.6,3.96,10.88s-1.41,8.08-4.2,11.38c-2.81,3.3-6.68,4.95-11.62,4.95h-195.36v111.28h185.96c4.61,0,8.32,1.57,11.13,4.7,2.8,3.14,4.2,7.01,4.2,11.62,0,3.96-1.32,7.5-3.96,10.63-2.64,3.14-6.43,4.7-11.38,4.7h-185.96v107.32h195.36Z"/><path d="m3064.51,526.93c3.79-2.8,8.32-4.2,13.6-4.2,4.95,0,9.23,1.41,12.86,4.2,3.62,2.8,5.44,6.68,5.44,11.62v277.46c0,6.6-2.23,11.79-6.68,15.58-4.45,3.8-9.82,5.69-16.07,5.69-4.29,0-8.41-.99-12.37-2.97-3.96-1.98-7.09-4.77-9.4-8.41l-184.97-245.31,3.96,68.25v170.14c0,5.93-1.82,10.47-5.44,13.6-3.63,3.14-8.08,4.7-13.35,4.7s-9.73-1.56-13.35-4.7c-3.63-3.13-5.44-7.67-5.44-13.6v-274.49c0-6.92,1.89-12.28,5.69-16.07,3.79-3.79,8.49-5.69,14.1-5.69,3.96,0,7.74.99,11.37,2.97,3.62,1.98,6.59,4.78,8.9,8.41l190.41,250.26-4.95-74.68v-171.12c0-4.95,1.89-8.82,5.69-11.62Z"/><path d="m3421.6,527.67c3.13,3.3,4.7,7.26,4.7,11.87,0,4.95-1.57,9.07-4.7,12.36-3.14,3.3-7.67,4.95-13.6,4.95h-110.29l.49,262.13c0,5.61-1.98,10.06-5.94,13.35-3.96,3.3-8.25,4.95-12.86,4.95s-8.74-1.56-12.37-4.7c-3.63-3.13-5.44-7.67-5.44-13.6v-262.13h-109.8c-5.28,0-9.48-1.73-12.61-5.19-3.13-3.46-4.7-7.5-4.7-12.12s1.57-8.57,4.7-11.87c3.13-3.29,7.33-4.95,12.61-4.95h256.19c5.93,0,10.46,1.65,13.6,4.95Z"/><path d="m3513.09,821.95c-24.23-13.52-43.45-32.97-57.62-58.36-14.18-25.39-21.27-55.06-21.27-89.03s8.08-63.72,24.23-87.29c16.15-23.57,36.27-41.05,60.34-52.43,24.07-11.38,47.97-17.06,71.71-17.06s48.63,5.69,73.69,17.06c25.05,11.37,46.07,28.86,63.06,52.43,16.98,23.58,25.47,52.67,25.47,87.29s-7.26,62.65-21.76,88.04c-14.51,25.39-33.8,45.01-57.87,58.85-24.07,13.85-50.28,20.77-78.64,20.77-30.01,0-57.12-6.75-81.36-20.28Zm-25.72-76.17c10.71,20.11,25.47,35.61,44.27,46.49,18.79,10.88,39.73,16.32,62.81,16.32s42.86-5.36,61.33-16.07c18.46-10.71,33.14-26.04,44.02-46,10.88-19.95,16.32-43.44,16.32-70.48s-6.52-51.51-19.54-70.48c-13.03-18.96-29.1-32.8-48.22-41.54-19.13-8.73-38.08-13.11-56.88-13.11s-37.34,4.2-55.64,12.61c-18.3,8.41-33.63,22.01-46,40.8-12.37,18.79-18.55,42.7-18.55,71.71,0,26.38,5.36,49.63,16.07,69.74Z"/></g></svg>