<?xml version="1.0" encoding="utf-8"?>
<!-- Generator: Adobe Illustrator 27.2.0, SVG Export Plug-In . SVG Version: 6.00 Build 0)  -->
<svg version="1.1" id="Livello_1" xmlns="http://www.w3.org/2000/svg" xmlns:xlink="http://www.w3.org/1999/xlink" x="0px" y="0px"
	 viewBox="0 0 841.9 1190.6" style="enable-background:new 0 0 841.9 1190.6;" xml:space="preserve">
<style type="text/css">
	.st0{clip-path:url(#SVGID_00000119084437044404687280000004411898912320070312_);}
	.st1{fill:none;stroke:#000000;stroke-width:1.4933;stroke-miterlimit:7.4667;}
</style>
<g>
	<g>
		<defs>
			<rect id="SVGID_1_" y="-12.1" width="841.9" height="1202.7"/>
		</defs>
		<clipPath id="SVGID_00000165925051850532298460000000814164702042297786_">
			<use xlink:href="#SVGID_1_"  style="overflow:visible;"/>
		</clipPath>
		<g style="clip-path:url(#SVGID_00000165925051850532298460000000814164702042297786_);">
			<g>
				<g>
					<g>
						<g transform="matrix(1,0,0,1,-2136.56,-973.343)">
							<g transform="matrix(0.746669,0,0,0.746669,1490.58,432.701)">
								<g id="Full-logo_00000027593629854422093560000005242093192019603101_">
									<path id="Top_00000075133084976299084970000007678749015891748774_" class="st1" d="M-20195.8,2317.8
										c14913.6-19.9,32261.9-19.9,47190.1,0c69582.5,92.8,272644.4,363.5,330476.8,440.7c9504.9,12.7,15540.4,39.4,15540.4,68.7
										v201.6c0,0-255937.5-4.2-341862.4-75.2c-18106.2-15-37393.5-15-55499.7,0c-85924.9,71-341862.4,75.2-341862.4,75.2v-201.6
										c0-29.3,6041.2-56.1,15536.1-68.7C-292840.2,2681.3-89778.3,2410.5-20195.8,2317.8z"/>
								</g>
							</g>
						</g>
					</g>
				</g>
			</g>
			<g>
				<g>
					<g>
						<g transform="matrix(1,0,0,1,-2136.56,-973.343)">
							<g transform="matrix(0.746669,0,0,0.746669,1490.58,432.701)">
								<g id="Full-logo_00000054959420972392480400000001610358468187672718_">
									<path id="Top_00000136381850710468325650000002044640754715030701_" class="st1" d="M-16012.2,2296.1
										c12027.1-20.3,26017.7-20.3,38056.6,0c56114.9,94.7,219874.5,371,266513.6,449.7c7665.3,12.9,12532.6,40.2,12532.6,70.1
										v205.8c0,0-206401.2-4.2-275695.5-76.7c-14601.8-15.3-30156.1-15.3-44757.8,0c-69294.3,72.5-275695.5,76.7-275695.5,76.7
										v-205.8c0-29.9,4872-57.2,12529.1-70.1C-235886.7,2667-72127.1,2390.7-16012.2,2296.1z"/>
								</g>
							</g>
						</g>
					</g>
				</g>
			</g>
			<g>
				<g>
					<g>
						<g transform="matrix(1,0,0,1,-2136.56,-973.343)">
							<g transform="matrix(0.746669,0,0,0.746669,1490.58,432.701)">
								<g id="Full-logo_00000040538623638104144860000005644402420275566998_">
									<path id="Top_00000175324070625676617360000017731918112506606003_" class="st1" d="M-12638.2,2273.9
										c9699.3-20.7,20982-20.7,30690.8,0c45253.9,96.6,177318.2,378.5,214930.3,458.8c6181.7,13.2,10106.9,41,10106.9,71.5v210
										c0,0-166452.6-4.3-222335.1-78.3c-11775.6-15.6-24319.4-15.6-36095,0c-55882.5,73.9-222335.1,78.3-222335.1,78.3v-210
										c0-30.5,3929-58.4,10104.1-71.5C-189956.4,2652.4-57892.2,2370.5-12638.2,2273.9z"/>
								</g>
							</g>
						</g>
					</g>
				</g>
			</g>
			<g>
				<g>
					<g>
						<g transform="matrix(1,0,0,1,-2136.56,-973.343)">
							<g transform="matrix(0.746669,0,0,0.746669,1490.58,432.701)">
								<g id="Full-logo_00000102531799208775308970000008551192721468193444_">
									<path id="Top_00000178178653903887407010000006372822915987244477_" class="st1" d="M-9917.3,2251.3
										c7822-21.1,16921-21.1,24750.6,0c36495.1,98.6,142998.5,386.3,173330.9,468.2c4985.2,13.5,8150.7,41.8,8150.7,73v214.2
										c0,0-134236-4.4-179302.5-79.9c-9496.5-15.9-19612.4-15.9-29108.9,0c-45066.5,75.4-179302.5,79.9-179302.5,79.9v-214.2
										c0-31.2,3168.5-59.6,8148.5-73C-152915.9,2637.6-46412.5,2349.9-9917.3,2251.3z"/>
								</g>
							</g>
						</g>
					</g>
				</g>
			</g>
			<g>
				<g>
					<g>
						<g transform="matrix(1,0,0,1,-2136.56,-973.343)">
							<g transform="matrix(0.746669,0,0,0.746669,1490.58,432.701)">
								<g id="Full-logo_00000052813989425763527630000004170876297912196799_">
									<path id="Top_00000040576357233836154520000015809347604193400500_" class="st1" d="M-7723.1,2228.3
										c6308.1-21.6,13645.9-21.6,19960.2,0c29431.5,100.6,115321.4,394.1,139783,477.8c4020.3,13.7,6573.2,42.7,6573.2,74.5
										v218.6c0,0-108254.8-4.5-144598.8-81.5c-7658.4-16.2-15816.5-16.2-23474.9,0c-36344,77-144598.8,81.5-144598.8,81.5v-218.6
										c0-31.8,2555.3-60.8,6571.4-74.5C-123044.4,2622.4-37154.6,2328.8-7723.1,2228.3z"/>
								</g>
							</g>
						</g>
					</g>
				</g>
			</g>
			<g>
				<g>
					<g>
						<g transform="matrix(1,0,0,1,-2136.56,-973.343)">
							<g transform="matrix(0.746669,0,0,0.746669,1490.58,432.701)">
								<g id="Full-logo_00000021805030851493263270000016706056266214146183_">
									<path id="Top_00000124867735917365230200000000372379801094658181_" class="st1" d="M-5953.5,2204.7
										c5087.2-22,11004.8-22,16096.9,0c23735.1,102.6,93001.1,402.2,112728.2,487.5c3242.2,14,5301,43.6,5301,76v223.1
										c0,0-87302.3-4.6-116611.9-83.2c-6176.2-16.6-12755.2-16.6-18931.4,0c-29309.7,78.6-116611.9,83.2-116611.9,83.2v-223.1
										c0-32.4,2060.7-62,5299.5-76C-98954.6,2606.9-29688.6,2307.4-5953.5,2204.7z"/>
								</g>
							</g>
						</g>
					</g>
				</g>
			</g>
			<g>
				<g>
					<g>
						<g transform="matrix(1,0,0,1,-2136.56,-973.343)">
							<g transform="matrix(0.746669,0,0,0.746669,1490.58,432.701)">
								<g id="Full-logo_00000109725508648338688880000016088089615258320302_">
									<path id="Top_00000081608999036926813950000007942081017262568378_" class="st1" d="M-4526.4,2180.7
										c4102.5-22.5,8874.8-22.5,12981.4,0c19141.2,104.7,75000.9,410.4,90909.8,497.5c2614.7,14.3,4275,44.5,4275,77.6v227.6
										c0,0-70405-4.7-94041.9-84.9c-4980.8-16.9-10286.5-16.9-15267.2,0c-23636.8,80.2-94041.9,84.9-94041.9,84.9v-227.6
										c0-33.1,1661.9-63.3,4273.8-77.6C-79527.3,2591.1-23667.6,2285.5-4526.4,2180.7z"/>
								</g>
							</g>
						</g>
					</g>
				</g>
			</g>
			<g>
				<g>
					<g>
						<g transform="matrix(1,0,0,1,-2136.56,-973.343)">
							<g transform="matrix(0.746669,0,0,0.746669,1490.58,432.701)">
								<g id="Full-logo_00000096017889321612352200000014545449767650244259_">
									<path id="Top_00000167393553491424551300000002274582877698665388_" class="st1" d="M-3375.5,2156.2
										c3308.5-22.9,7157.1-22.9,10468.9,0C22529.9,2263.1,67578,2575,80407.8,2663.8c2108.6,14.6,3447.5,45.4,3447.5,79.2v232.3
										c0,0-56778.3-4.8-75840.2-86.6c-4016.8-17.2-8295.5-17.2-12312.3,0c-19061.9,81.8-75840.2,86.6-75840.2,86.6V2743
										c0-33.8,1340.2-64.6,3446.6-79.2C-63860.1,2575-18812,2263.1-3375.5,2156.2z"/>
								</g>
							</g>
						</g>
					</g>
				</g>
			</g>
			<g>
				<g>
					<g>
						<g transform="matrix(1,0,0,1,-2136.56,-973.343)">
							<g transform="matrix(0.746669,0,0,0.746669,1490.58,432.701)">
								<g id="Full-logo_00000078034876538302076590000003294879265059866280_">
									<path id="Top_00000088104810804613507140000018390862837361637009_" class="st1" d="M-2447.4,2131.2
										c2668.1-23.4,5771.9-23.4,8442.6,0c12448.8,109,48777.9,427.3,59124.5,518c1700.5,14.9,2780.3,46.3,2780.3,80.8v237
										c0,0-45788.9-4.9-61161.5-88.4c-3239.3-17.6-6689.9-17.6-9929.3,0c-15372.5,83.5-61161.5,88.4-61161.5,88.4v-237
										c0-34.5,1080.8-65.9,2779.5-80.8C-51225.3,2558.5-14896.2,2240.3-2447.4,2131.2z"/>
								</g>
							</g>
						</g>
					</g>
				</g>
			</g>
			<g>
				<g>
					<g>
						<g transform="matrix(1,0,0,1,-2136.56,-973.343)">
							<g transform="matrix(0.746669,0,0,0.746669,1490.58,432.701)">
								<g id="Full-logo_00000073721922198707703290000005332007363558439088_">
									<path id="Top_00000170979819050687435710000011368272639327966639_" class="st1" d="M-1698.9,2105.7
										c2151.7-23.9,4654.7-23.9,6808.6,0c10039.3,111.3,39337,436,47681.1,528.5c1371.4,15.2,2242.2,47.2,2242.2,82.4v241.9
										c0,0-36926.6-5-49323.8-90.2c-2612.4-17.9-5395.1-17.9-8007.5,0c-12397.2,85.2-49323.8,90.2-49323.8,90.2v-241.9
										c0-35.2,871.6-67.2,2241.5-82.4C-41035.9,2541.8-11738.2,2217-1698.9,2105.7z"/>
								</g>
							</g>
						</g>
					</g>
				</g>
			</g>
			<g>
				<g>
					<g>
						<g transform="matrix(1,0,0,1,-2136.56,-973.343)">
							<g transform="matrix(0.746669,0,0,0.746669,1490.58,432.701)">
								<g id="Full-logo_00000013182000736948799160000001535379571399212732_">
									<path id="Top_00000168811808682060743000000008744871483166260389_" class="st1" d="M-1095.3,2079.7
										c1735.3-24.3,3753.8-24.3,5490.8,0c8096.2,113.5,31723.4,444.9,38452.5,539.3c1105.9,15.5,1808.2,48.2,1808.2,84.1v246.8
										c0,0-29779.5-5.1-39777.2-92c-2106.7-18.3-4350.9-18.3-6457.6,0c-9997.8,86.9-39777.2,92-39777.2,92v-246.8
										c0-35.9,702.9-68.6,1807.7-84.1C-32818.7,2524.6-9191.5,2193.2-1095.3,2079.7z"/>
								</g>
							</g>
						</g>
					</g>
				</g>
			</g>
			<g>
				<g>
					<g>
						<g transform="matrix(1,0,0,1,-2136.56,-973.343)">
							<g transform="matrix(0.746669,0,0,0.746669,1490.58,432.701)">
								<g id="Full-logo_00000031207796622797227970000003926418091973592758_">
									<path id="Top_00000165924888902448880340000016051567594244341685_" class="st1" d="M-608.5,2053.1
										c1399.4-24.8,3027.3-24.8,4428.1,0c6529.2,115.9,25583.4,454,31010,550.3c891.9,15.8,1458.2,49.2,1458.2,85.8V2941
										c0,0-24015.7-5.2-32078.4-93.9c-1699-18.7-3508.8-18.7-5207.8,0c-8062.7,88.7-32078.4,93.9-32078.4,93.9v-251.8
										c0-36.6,566.9-70,1457.8-85.8C-26191.9,2507.2-7137.7,2169-608.5,2053.1z"/>
								</g>
							</g>
						</g>
					</g>
				</g>
			</g>
			<g>
				<g>
					<g>
						<g transform="matrix(1,0,0,1,-2136.56,-973.343)">
							<g transform="matrix(0.746669,0,0,0.746669,1490.58,432.701)">
								<g id="Full-logo_00000171720450863908919360000010038257138561772949_">
									<path id="Top_00000092450718211514038740000010591675374768386194_" class="st1" d="M-215.9,2026
										c1128.6-25.4,2441.3-25.4,3571,0c5265.5,118.2,20631.8,463.3,25008.1,561.6c719.3,16.1,1176,50.2,1176,87.6v257
										c0,0-19367.5-5.3-25869.7-95.8c-1370.1-19.1-2829.7-19.1-4199.8,0c-6502.2,90.5-25869.7,95.8-25869.7,95.8v-257
										c0-37.4,457.2-71.4,1175.7-87.6C-20847.7,2489.3-5481.4,2144.3-215.9,2026z"/>
								</g>
							</g>
						</g>
					</g>
				</g>
			</g>
			<g>
				<g>
					<g>
						<g transform="matrix(1,0,0,1,-2136.56,-973.343)">
							<g transform="matrix(0.746669,0,0,0.746669,1490.58,432.701)">
								<g id="Full-logo_00000159468480283953260040000001072395916118109883_">
									<path id="Top_00000183227966940544142940000007054377803478735246_" class="st1" d="M100.6,1998.4
										c910.1-25.9,1968.8-25.9,2879.8,0c4246.4,120.6,16638.5,472.7,20167.8,573c580.1,16.5,948.4,51.2,948.4,89.4V2923
										c0,0-15619-5.4-20862.6-97.7c-1105-19.5-2282-19.5-3387,0c-5243.7,92.3-20862.6,97.7-20862.6,97.7v-262.2
										c0-38.1,368.7-72.9,948.1-89.4C-16537.9,2471.1-4145.7,2119,100.6,1998.4z"/>
								</g>
							</g>
						</g>
					</g>
				</g>
			</g>
			<g>
				<g>
					<g>
						<g transform="matrix(1,0,0,1,-2136.56,-973.343)">
							<g transform="matrix(0.746669,0,0,0.746669,1490.58,432.701)">
								<g id="Full-logo_00000161617384132169332020000017616852429425682873_">
									<path id="Top_00000112600132054622232810000015765442831390984894_" class="st1" d="M356,1970.2
										c734-26.4,1587.8-26.4,2322.5,0c3424.5,123.1,13418.2,482.4,16264.4,584.7c467.8,16.8,764.8,52.3,764.8,91.2v267.6
										c0,0-12595.9-5.5-16824.7-99.7c-891.1-19.9-1840.3-19.9-2731.4,0c-4228.8,94.2-16824.7,99.7-16824.7,99.7v-267.6
										c0-38.9,297.3-74.4,764.6-91.2C-13062.2,2452.5-3068.5,2093.3,356,1970.2z"/>
								</g>
							</g>
						</g>
					</g>
				</g>
			</g>
			<g>
				<g>
					<g>
						<g transform="matrix(1,0,0,1,-2136.56,-973.343)">
							<g transform="matrix(0.746669,0,0,0.746669,1490.58,432.701)">
								<g id="Full-logo_00000112608067822609654680000011294396802812064935_">
									<path id="Top_00000033363525687278253130000018286412580936261252_" class="st1" d="M561.9,1941.4
										c591.9-26.9,1280.5-26.9,1872.9,0C5196.5,2067,13255.9,2433.6,15551.2,2538c377.2,17.1,616.8,53.3,616.8,93v273
										c0,0-10158-5.6-13568.3-101.8c-718.6-20.3-1484.1-20.3-2202.8,0c-3410.3,96.1-13568.3,101.8-13568.3,101.8v-273
										c0-39.7,239.8-75.9,616.6-93C-10259.2,2433.6-2199.8,2067,561.9,1941.4z"/>
								</g>
							</g>
						</g>
					</g>
				</g>
			</g>
			<g>
				<g>
					<g>
						<g transform="matrix(1,0,0,1,-2136.56,-973.343)">
							<g transform="matrix(0.746669,0,0,0.746669,1490.58,432.701)">
								<g id="Full-logo_00000005249201842606847350000001928380426490429583_">
									<path id="Top_00000023261854837092565360000005704752058869837461_" class="st1" d="M727.9,1912
										c477.3-27.5,1032.6-27.5,1510.4,0c2227.2,128.2,8726.7,502.3,10577.8,608.8c304.2,17.5,497.4,54.4,497.4,94.9v278.6
										c0,0-8191.9-5.8-10942.2-103.9c-579.5-20.7-1196.9-20.7-1776.4,0c-2750.2,98.1-10942.2,103.9-10942.2,103.9v-278.6
										c0-40.5,193.4-77.4,497.3-94.9C-7998.8,2414.3-1499.3,2040.2,727.9,1912z"/>
								</g>
							</g>
						</g>
					</g>
				</g>
			</g>
			<g>
				<g>
					<g>
						<g transform="matrix(1,0,0,1,-2136.56,-973.343)">
							<g transform="matrix(0.746669,0,0,0.746669,1490.58,432.701)">
								<g id="Full-logo_00000175285456379699524330000010433583789896769724_">
									<path id="Top_00000061449673709816166570000004511349457874874529_" class="st1" d="M861.8,1882c385-28,832.8-28,1218.1,0
										c1796.1,130.8,7037.7,512.5,8530.5,621.3c245.3,17.8,401.1,55.5,401.1,96.9v284.3c0,0-6606.4-5.9-8824.3-106
										c-467.4-21.1-965.2-21.1-1432.6,0c-2217.9,100.1-8824.3,106-8824.3,106v-284.3c0-41.3,155.9-79,401-96.9
										C-6175.8,2394.5-934.3,2012.8,861.8,1882z"/>
								</g>
							</g>
						</g>
					</g>
				</g>
			</g>
			<g>
				<g>
					<g>
						<g transform="matrix(1,0,0,1,-2136.56,-973.343)">
							<g transform="matrix(0.746669,0,0,0.746669,1490.58,432.701)">
								<g id="Full-logo_00000052081940105728814270000011171444650385151361_">
									<path id="Top_00000114757442149502955310000006813427314744616600_" class="st1" d="M969.8,1851.4
										c310.5-28.6,671.6-28.6,982.3,0c1448.5,133.5,5675.5,523,6879.4,633.9c197.9,18.2,323.5,56.7,323.5,98.8v290.1
										c0,0-5327.7-6-7116.4-108.1c-376.9-21.5-778.4-21.5-1155.3,0c-1788.7,102.1-7116.4,108.1-7116.4,108.1v-290.1
										c0-42.2,125.8-80.6,323.4-98.8C-4705.7,2374.4-478.7,1984.9,969.8,1851.4z"/>
								</g>
							</g>
						</g>
					</g>
				</g>
			</g>
			<g>
				<g>
					<g>
						<g transform="matrix(1,0,0,1,-2136.56,-973.343)">
							<g transform="matrix(0.746669,0,0,0.746669,1490.58,432.701)">
								<g id="Full-logo_00000124161276051815203680000005213038843765516424_">
									<path id="Top_00000150104149559883801440000010967877400948539794_" class="st1" d="M1056.9,1820.2
										c250.4-29.2,541.6-29.2,792.2,0c1168.1,136.2,4577,533.7,5547.9,646.9c159.6,18.6,260.9,57.8,260.9,100.9v296
										c0,0-4296.6-6.1-5739-110.3c-304-22-627.7-22-931.7,0c-1442.5,104.2-5739,110.3-5739,110.3v-296
										c0-43.1,101.4-82.3,260.8-100.9C-3520.1,2353.9-111.2,1956.4,1056.9,1820.2z"/>
								</g>
							</g>
						</g>
					</g>
				</g>
			</g>
			<g>
				<g>
					<g>
						<g transform="matrix(1,0,0,1,-2136.56,-973.343)">
							<g transform="matrix(0.746669,0,0,0.746669,1490.58,432.701)">
								<g id="Full-logo_00000081615815405921679760000012865630745374547361_">
									<path id="Top_00000075868786850946434970000002352051806333850245_" class="st1" d="M1127.1,1788.3
										c201.9-29.8,436.8-29.8,638.9,0c942,139,3691.2,544.5,4474.1,660.1c128.7,19,210.4,59,210.4,102.9v302
										c0,0-3465-6.2-4628.3-112.6c-245.1-22.4-506.2-22.4-751.4,0c-1163.3,106.4-4628.3,112.6-4628.3,112.6v-302
										c0-43.9,81.8-84,210.3-102.9C-2564,2332.9,185.1,1927.3,1127.1,1788.3z"/>
								</g>
							</g>
						</g>
					</g>
				</g>
			</g>
			<g>
				<g>
					<g>
						<g transform="matrix(1,0,0,1,-2136.56,-973.343)">
							<g transform="matrix(0.746669,0,0,0.746669,1490.58,432.701)">
								<g id="Full-logo_00000150080801505622446690000007913303840886902965_">
									<path id="Top_00000139279724060053851340000015270386571430224002_" class="st1" d="M1183.8,1755.8
										c162.8-30.4,352.2-30.4,515.2,0c759.7,141.8,2976.7,555.7,3608.2,673.5c103.8,19.3,169.7,60.2,169.7,105v308.2
										c0,0-2794.3-6.4-3732.5-114.9c-197.7-22.9-408.3-22.9-605.9,0C200.4,2836.1-2594,2842.5-2594,2842.5v-308.2
										c0-44.8,66-85.7,169.6-105C-1793,2311.5,424.1,1897.6,1183.8,1755.8z"/>
								</g>
							</g>
						</g>
					</g>
				</g>
			</g>
			<g>
				<g>
					<g>
						<g transform="matrix(1,0,0,1,-2136.56,-973.343)">
							<g transform="matrix(0.746669,0,0,0.746669,1490.58,432.701)">
								<g id="Full-logo_00000166649637216829703430000014450713194286473135_">
									<path id="Top_00000156582297209203385680000006073192521924602763_" class="st1" d="M1229.4,1722.7
										c131.3-31,284.1-31,415.5,0c612.7,144.7,2400.6,567,2909.8,687.3c83.7,19.7,136.8,61.4,136.8,107.2v314.5
										c0,0-2253.5-6.5-3010.1-117.2c-159.4-23.3-329.2-23.3-488.7,0c-756.6,110.7-3010.1,117.2-3010.1,117.2v-314.5
										c0-45.7,53.2-87.4,136.8-107.2C-1171.1,2289.7,616.8,1867.4,1229.4,1722.7z"/>
								</g>
							</g>
						</g>
					</g>
				</g>
			</g>
			<g>
				<g>
					<g>
						<g transform="matrix(1,0,0,1,-2136.56,-973.343)">
							<g transform="matrix(0.746669,0,0,0.746669,1490.58,432.701)">
								<g id="Full-logo_00000078764076777068779180000010609898870088900496_">
									<path id="Top_00000150797174808568739830000008046249691408639165_" class="st1" d="M1266.3,1688.8
										c105.9-31.7,229.1-31.7,335.1,0c494.1,147.6,1936,578.6,2346.6,701.3c67.5,20.1,110.3,62.7,110.3,109.4v320.9
										c0,0-1817.3-6.6-2427.5-119.6c-128.6-23.8-265.5-23.8-394.1,0c-610.1,113-2427.5,119.6-2427.5,119.6v-320.9
										c0-46.7,42.9-89.2,110.3-109.4C-669.7,2267.4,772.2,1836.5,1266.3,1688.8z"/>
								</g>
							</g>
						</g>
					</g>
				</g>
			</g>
			<g>
				<g>
					<g>
						<g transform="matrix(1,0,0,1,-2136.56,-973.343)">
							<g transform="matrix(0.746669,0,0,0.746669,1490.58,432.701)">
								<g id="Full-logo_00000129168651850002148400000012439232543720275356_">
									<path id="Top_00000044868610620933817390000001197317453493006008_" class="st1" d="M1296,1654.3
										c85.4-32.3,184.7-32.3,270.2,0c398.5,150.7,1561.3,590.4,1892.4,715.6c54.4,20.6,89,64,89,111.6V2809
										c0,0-1465.6-6.8-1957.6-122.1c-103.7-24.3-214.1-24.3-317.8,0C780.2,2802.2-685.4,2809-685.4,2809v-327.5
										c0-47.6,34.6-91,89-111.6C-265.3,2244.7,897.5,1804.9,1296,1654.3z"/>
								</g>
							</g>
						</g>
					</g>
				</g>
			</g>
			<g>
				<g>
					<g>
						<g transform="matrix(1,0,0,1,-2136.56,-973.343)">
							<g transform="matrix(0.746669,0,0,0.746669,1490.58,432.701)">
								<g id="Full-logo_00000088839375817323414450000016636149086761736114_">
									<path id="Top_00000085229480122540546010000013701123794495156922_" class="st1" d="M1319.9,1619c68.9-33,149-33,217.9,0
										c321.3,153.7,1259.1,602.4,1526.2,730.2c43.9,21,71.8,65.3,71.8,113.9v334.1c0,0-1181.9-6.9-1578.7-124.6
										c-83.6-24.8-172.7-24.8-256.3,0C904,2790.4-278,2797.3-278,2797.3v-334.1c0-48.6,27.9-92.9,71.7-113.9
										C60.9,2221.5,998.6,1772.8,1319.9,1619z"/>
								</g>
							</g>
						</g>
					</g>
				</g>
			</g>
		</g>
	</g>
</g>
</svg>
