<?xml version="1.0" encoding="utf-8"?>
<!-- Generator: Adobe Illustrator 27.2.0, SVG Export Plug-In . SVG Version: 6.00 Build 0)  -->
<svg version="1.1" id="Livello_1" xmlns="http://www.w3.org/2000/svg" xmlns:xlink="http://www.w3.org/1999/xlink" x="0px" y="0px"
	 viewBox="0 0 841.9 1190.6" style="enable-background:new 0 0 841.9 1190.6;" xml:space="preserve">
<style type="text/css">
	.st0{clip-path:url(#SVGID_00000169530668328758747170000013830287127505031091_);}
	.st1{fill:none;stroke:#000000;stroke-width:1.4933;stroke-miterlimit:7.4667;}
</style>
<g>
	<g>
		<defs>
			<rect id="SVGID_1_" y="-6.1" width="841.9" height="1196.6"/>
		</defs>
		<clipPath id="SVGID_00000058573444677399493080000000155120582736208559_">
			<use xlink:href="#SVGID_1_"  style="overflow:visible;"/>
		</clipPath>
		<g style="clip-path:url(#SVGID_00000058573444677399493080000000155120582736208559_);">
			<g>
				<g>
					<g>
						<g transform="matrix(1,0,0,1,-2136.56,-973.343)">
							<g transform="matrix(0.746669,0,0,0.746669,1490.58,432.701)">
								<g id="Full-logo_00000180362260116411143570000000169616291105102003_">
									<path id="Bottom_00000062894298970247585420000017628404715140288153_" class="st1" d="M3118.3,723.2
										c-863.3,24.5-1866.5,24.5-2728.9,0c-4023.8-114.3-15766.3-447.9-19110.9-543c-549.1-15.6-898.4-48.6-898.4-84.7V-153
										c0,0,14800.2,260.6,19769,348.1c1047,18.4,2162.4,18.4,3209.4,0c4968.8-87.5,19769-348.1,19769-348.1V95.5
										c0,36.1-349,69.1-898.7,84.7C18884.6,275.2,7142.1,608.9,3118.3,723.2z"/>
								</g>
							</g>
						</g>
					</g>
				</g>
			</g>
			<g>
				<g>
					<g>
						<g transform="matrix(1,0,0,1,-2136.56,-973.343)">
							<g transform="matrix(0.746669,0,0,0.746669,1490.58,432.701)">
								<g id="Full-logo_00000144316114616305234600000000992246624258535842_">
									<path id="Bottom_00000108996875639263141520000015063177641954902403_" class="st1" d="M2854.1,751.3
										c-696.2,25-1505.2,25-2200.7,0c-3245-116.6-12714.8-457.1-15412-554c-442.8-15.9-724.5-49.6-724.5-86.4v-253.5
										c0,0,11935.7,265.9,15942.8,355.2c844.4,18.8,1743.8,18.8,2588.2,0C7055,123.2,18990.7-142.7,18990.7-142.7v253.5
										c0,36.9-281.5,70.5-724.7,86.4C15568.9,294.2,6099.1,634.7,2854.1,751.3z"/>
								</g>
							</g>
						</g>
					</g>
				</g>
			</g>
			<g>
				<g>
					<g>
						<g transform="matrix(1,0,0,1,-2136.56,-973.343)">
							<g transform="matrix(0.746669,0,0,0.746669,1490.58,432.701)">
								<g id="Full-logo_00000092444921197843565640000008323409254260031922_">
									<path id="Bottom_00000117675030892850634190000014630784898269991089_" class="st1" d="M2641.1,780
										c-561.4,25.5-1213.9,25.5-1774.8,0c-2616.9-119-10253.9-466.4-12429-565.3c-357.1-16.3-584.3-50.6-584.3-88.2v-258.7
										c0,0,9625.5,271.3,12857.1,362.4c681,19.2,1406.3,19.2,2087.3,0c3231.5-91.2,12857-362.5,12857-362.5v258.7
										c0,37.6-227,71.9-584.5,88.2C12895,313.6,5258,661,2641.1,780z"/>
								</g>
							</g>
						</g>
					</g>
				</g>
			</g>
			<g>
				<g>
					<g>
						<g transform="matrix(1,0,0,1,-2136.56,-973.343)">
							<g transform="matrix(0.746669,0,0,0.746669,1490.58,432.701)">
								<g id="Full-logo_00000000188869036085054100000001081144458885298838_">
									<path id="Bottom_00000109749791384599521570000015717033969281607349_" class="st1" d="M2469.3,809.2
										c-452.8,26.1-978.9,26.1-1431.3,0C-1072.4,687.8-7231.2,333.3-8985.4,232.4c-288-16.6-471.2-51.6-471.2-90v-264
										c0,0,7762.5,276.8,10368.6,369.8c549.2,19.6,1134.1,19.6,1683.3,0c2606.1-93,10368.6-369.8,10368.6-369.8v264
										c0,38.4-183.1,73.4-471.3,90C10738.6,333.3,4579.7,687.8,2469.3,809.2z"/>
								</g>
							</g>
						</g>
					</g>
				</g>
			</g>
			<g>
				<g>
					<g>
						<g transform="matrix(1,0,0,1,-2136.56,-973.343)">
							<g transform="matrix(0.746669,0,0,0.746669,1490.58,432.701)">
								<g id="Full-logo_00000089572980153162637150000017905790703089453455_">
									<path id="Bottom_00000103260437200748739990000016900733614801706650_" class="st1" d="M2330.8,839.1
										c-365.1,26.6-789.5,26.6-1154.2,0c-1702-123.9-6668.7-485.6-8083.4-588.7c-232.2-16.9-380-52.6-380-91.8v-269.4
										c0,0,6260.1,282.5,8361.8,377.4c442.9,20,914.6,20,1357.5,0c2101.7-94.9,8361.8-377.4,8361.8-377.4v269.4
										c0,39.2-147.6,74.9-380.1,91.8C8999.5,353.5,4032.7,715.2,2330.8,839.1z"/>
								</g>
							</g>
						</g>
					</g>
				</g>
			</g>
			<g>
				<g>
					<g>
						<g transform="matrix(1,0,0,1,-2136.56,-973.343)">
							<g transform="matrix(0.746669,0,0,0.746669,1490.58,432.701)">
								<g id="Full-logo_00000181803893097101172170000013632805310299950514_">
									<path id="Bottom_00000139974447945586351530000009507628919596437651_" class="st1" d="M2219,869.6
										c-294.5,27.1-636.7,27.1-930.8,0C-84.3,743.1-4089.8,374-5230.7,268.9c-187.3-17.3-306.5-53.7-306.5-93.7V-99.7
										c0,0,5048.5,288.3,6743.4,385.1c357.2,20.4,737.6,20.4,1094.8,0C3995.9,188.6,9044.4-99.7,9044.4-99.7v274.9
										c0,40-119.1,76.4-306.5,93.7C7597.1,374,3591.6,743.1,2219,869.6z"/>
								</g>
							</g>
						</g>
					</g>
				</g>
			</g>
			<g>
				<g>
					<g>
						<g transform="matrix(1,0,0,1,-2136.56,-973.343)">
							<g transform="matrix(0.746669,0,0,0.746669,1490.58,432.701)">
								<g id="Full-logo_00000033357716161208080090000004805244753729619368_">
									<path id="Bottom_00000051366850057841419050000011593599996919770533_" class="st1" d="M2128.9,900.7
										c-237.5,27.7-513.4,27.7-750.7,0c-1106.8-129-4337.1-505.7-5257.1-613c-151-17.6-247.1-54.8-247.1-95.6V-88.3
										c0,0,4071.3,294.1,5438.2,392.9c288,20.8,594.8,20.8,882.9,0C3561.9,205.8,7633.2-88.3,7633.2-88.3v280.5
										c0,40.8-96,78-247.2,95.6C6466.1,395,3235.8,771.7,2128.9,900.7z"/>
								</g>
							</g>
						</g>
					</g>
				</g>
			</g>
			<g>
				<g>
					<g>
						<g transform="matrix(1,0,0,1,-2136.56,-973.343)">
							<g transform="matrix(0.746669,0,0,0.746669,1490.58,432.701)">
								<g id="Full-logo_00000106864351457021539490000011297294952095947149_">
									<path id="Bottom_00000069388468264194062970000000895070633608117900_" class="st1" d="M2056.3,932.4
										c-191.5,28.3-414.1,28.3-605.4,0C558.2,800.8-2046.8,416.4-2788.8,307c-121.8-18-199.3-55.9-199.3-97.6V-76.8
										c0,0,3283.3,300.1,4385.6,400.9c232.3,21.2,479.7,21.2,712,0C3211.9,223.4,6495.2-76.8,6495.2-76.8v286.2
										c0,41.6-77.4,79.6-199.4,97.6C5553.9,416.4,2948.9,800.8,2056.3,932.4z"/>
								</g>
							</g>
						</g>
					</g>
				</g>
			</g>
			<g>
				<g>
					<g>
						<g transform="matrix(1,0,0,1,-2136.56,-973.343)">
							<g transform="matrix(0.746669,0,0,0.746669,1490.58,432.701)">
								<g id="Full-logo_00000155851100830235539350000016701146467216715948_">
									<path id="Bottom_00000171718089129586638020000002210215783156823176_" class="st1" d="M1997.7,964.8
										c-154.4,28.8-333.9,28.8-488.2,0C789.6,830.4-1311.2,438.3-1909.6,326.6c-98.2-18.4-160.7-57.1-160.7-99.6V-65
										c0,0,2647.9,306.3,3536.8,409.1c187.3,21.7,386.9,21.7,574.2,0C2929.6,241.3,5577.5-65,5577.5-65v292
										c0,42.5-62.4,81.2-160.8,99.6C4818.4,438.3,2717.6,830.4,1997.7,964.8z"/>
								</g>
							</g>
						</g>
					</g>
				</g>
			</g>
			<g>
				<g>
					<g>
						<g transform="matrix(1,0,0,1,-2136.56,-973.343)">
							<g transform="matrix(0.746669,0,0,0.746669,1490.58,432.701)">
								<g id="Full-logo_00000095339003297371504260000014510692368991980217_">
									<path id="Bottom_00000012448322333545725810000006218936631657853592_" class="st1" d="M1950.4,997.8
										c-124.6,29.4-269.3,29.4-393.7,0C976.1,860.7-718.1,460.6-1200.6,346.6c-79.2-18.7-129.6-58.2-129.6-101.6V-53
										c0,0,2135.4,312.5,2852.3,417.5c151.1,22.1,312,22.1,463.1,0C2702,259.5,4837.4-53,4837.4-53v298
										c0,43.4-50.4,82.9-129.7,101.6C4225.2,460.6,2531,860.7,1950.4,997.8z"/>
								</g>
							</g>
						</g>
					</g>
				</g>
			</g>
			<g>
				<g>
					<g>
						<g transform="matrix(1,0,0,1,-2136.56,-973.343)">
							<g transform="matrix(0.746669,0,0,0.746669,1490.58,432.701)">
								<g id="Full-logo_00000121264589562686281970000004380891535650626688_">
									<path id="Bottom_00000070833164695305786260000017989412715862204299_" class="st1" d="M1912.3,1031.5
										c-100.4,30-217.2,30-317.5,0C1126.6,891.7-239.7,483.3-628.8,367c-63.9-19.1-104.5-59.4-104.5-103.7v-304
										c0,0,1722.1,318.9,2300.2,426c121.8,22.5,251.6,22.5,373.4,0c578.1-107.1,2300.2-426,2300.2-426v304.1
										c0,44.2-40.6,84.5-104.6,103.7C3746.8,483.3,2380.5,891.7,1912.3,1031.5z"/>
								</g>
							</g>
						</g>
					</g>
				</g>
			</g>
			<g>
				<g>
					<g>
						<g transform="matrix(1,0,0,1,-2136.56,-973.343)">
							<g transform="matrix(0.746669,0,0,0.746669,1490.58,432.701)">
								<g id="Full-logo_00000050631976809319404490000011327077594127108263_">
									<path id="Bottom_00000164473488380121399110000013059597411523585969_" class="st1" d="M1881.6,1065.9
										c-81,30.6-175.1,30.6-256.1,0c-377.6-142.7-1479.4-559.4-1793.2-678c-51.5-19.5-84.3-60.6-84.3-105.8V-28.2
										c0,0,1388.8,325.4,1855,434.7c98.2,23,202.9,23,301.2,0c466.2-109.3,1855-434.7,1855-434.7v310.3
										c0,45.1-32.7,86.3-84.3,105.8C3361,506.5,2259.1,923.2,1881.6,1065.9z"/>
								</g>
							</g>
						</g>
					</g>
				</g>
			</g>
			<g>
				<g>
					<g>
						<g transform="matrix(1,0,0,1,-2136.56,-973.343)">
							<g transform="matrix(0.746669,0,0,0.746669,1490.58,432.701)">
								<g id="Full-logo_00000114075225189127016400000008613481392728458671_">
									<path id="Bottom_00000090280990063597041690000000001749545977605537_" class="st1" d="M1856.8,1101
										c-65.3,31.3-141.2,31.3-206.5,0C1345.8,955.4,457.2,530.2,204.1,409.1c-41.5-19.9-68-61.9-68-107.9V-15.4
										c0,0,1120,332.1,1496,443.6c79.2,23.5,163.6,23.5,242.9,0C2251,316.7,3371-15.4,3371-15.4v316.6c0,46.1-26.4,88-68,107.9
										C3049.9,530.2,2161.3,955.4,1856.8,1101z"/>
								</g>
							</g>
						</g>
					</g>
				</g>
			</g>
		</g>
	</g>
</g>
</svg>
