<?xml version="1.0" encoding="utf-8"?>
<!-- Generator: Adobe Illustrator 27.2.0, SVG Export Plug-In . SVG Version: 6.00 Build 0)  -->
<svg version="1.1" id="Livello_1" xmlns="http://www.w3.org/2000/svg" xmlns:xlink="http://www.w3.org/1999/xlink" x="0px" y="0px"
	 viewBox="0 0 841.9 1190.6" style="enable-background:new 0 0 841.9 1190.6;" xml:space="preserve">
<style type="text/css">
	.st0{clip-path:url(#SVGID_00000164507625199421544140000011240245223803604864_);}
	.st1{fill:none;stroke:#000000;stroke-width:1.4933;stroke-miterlimit:7.4667;}
</style>
<g>
	<g>
		<defs>
			<rect id="SVGID_1_" y="-6.1" width="841.9" height="1196.6"/>
		</defs>
		<clipPath id="SVGID_00000067212554351311491600000006586856232843173301_">
			<use xlink:href="#SVGID_1_"  style="overflow:visible;"/>
		</clipPath>
		<g style="clip-path:url(#SVGID_00000067212554351311491600000006586856232843173301_);">
			<g>
				<g>
					<g>
						<g transform="matrix(1,0,0,1,-2136.56,-973.343)">
							<g transform="matrix(0.746669,0,0,0.746669,1490.58,432.701)">
								<g id="Full-logo_00000057108298275462633280000014651474439333399186_">
									<path id="Top_00000137102710433405179150000006758639653290274721_" class="st1" d="M2189.5,1765.8
										c-3264.6,474.1-6829.7,1041.1-9697.4,1542.3c-13366.7,2336.5-52374.3,9155-63483.7,11096.9
										c-1826,319.2-2797.7,534.4-2503,554.1l2026.4,135.4c0,0,50469.3-8506.8,67413.1-11362.8
										c3570.4-601.8,7533.9-1232.2,11405-1813.9C25720.8-842.8,80440.5-9065.6,80440.5-9065.6L78414.1-9201
										c-294.7-19.7-1804.8,159.8-3883.2,461.6C61870.6-6900.9,17420.8-446.1,2189.5,1765.8z"/>
								</g>
							</g>
						</g>
					</g>
				</g>
			</g>
			<g>
				<g>
					<g>
						<g transform="matrix(1,0,0,1,-2136.56,-973.343)">
							<g transform="matrix(0.746669,0,0,0.746669,1490.58,432.701)">
								<g id="Full-logo_00000072965291492941802800000009081396925274211519_">
									<path id="Top_00000016775402629082400040000000190318127774254506_" class="st1" d="M1955.8,1783.9
										c-2644.5,371-5533.7,826.9-7859.2,1240.1c-10838.8,1926.3-42469.3,7548-51477.6,9149.1
										c-1480.7,263.1-2269.9,449.9-2032.9,480.8l1629.4,212.4c0,0,40915.6-6948.8,54652.1-9281.6
										c2894.5-491.6,6106.7-998.5,9243.1-1458.5C20994.5-57.1,65327.9-6560.3,65327.9-6560.3l-1629.4-212.4
										c-237-30.9-1459.1,99.7-3142.7,335.9C50300.3-4998.1,14293.9,53,1955.8,1783.9z"/>
								</g>
							</g>
						</g>
					</g>
				</g>
			</g>
			<g>
				<g>
					<g>
						<g transform="matrix(1,0,0,1,-2136.56,-973.343)">
							<g transform="matrix(0.746669,0,0,0.746669,1490.58,432.701)">
								<g id="Full-logo_00000142142348832044109360000003096197607133543333_">
									<path id="Top_00000111898797374213143980000014764611011935940248_" class="st1" d="M1766.9,1794.2
										c-2141.8,287.1-4483.3,652.8-6369.1,995c-8789.9,1594.7-34441,6248.7-41746.4,7574.2
										c-1200.8,217.8-1842.1,381.9-1652,422.2l1307.3,277.5c0,0,33172-5687.2,44308.6-7596.6
										c2346.7-402.3,4949.9-809,7490.6-1170.2C17163.2,582.4,53077.1-4522.8,53077.1-4522.8l-1307.3-277.5
										c-190.1-40.4-1178.8,50.2-2542.3,233C40921.6-3454,11759.6,454.8,1766.9,1794.2z"/>
								</g>
							</g>
						</g>
					</g>
				</g>
			</g>
			<g>
				<g>
					<g>
						<g transform="matrix(1,0,0,1,-2136.56,-973.343)">
							<g transform="matrix(0.746669,0,0,0.746669,1490.58,432.701)">
								<g id="Full-logo_00000090279071967469425170000004419576131928037300_">
									<path id="Top_00000049184607401873048480000004736451310519684518_" class="st1" d="M1614.4,1798
										c-1734.3,218.7-3631.7,511.3-5161.2,796C-10676,3920.7-31480.8,7792.8-37406,8895.6
										c-973.9,181.2-1495.4,327.1-1343.3,375.6l1045.8,332.9c0,0,26895.3-4666,35924.8-6232.6
										c1902.7-330.1,4012.2-655.4,6070.1-936.1c9765.9-1332.1,38854.8-5299.8,38854.8-5299.8l-1045.8-332.9
										c-152.1-48.4-951.4,9.3-2055.6,148.6C33319.2-2200.5,9705.8,777.5,1614.4,1798z"/>
								</g>
							</g>
						</g>
					</g>
				</g>
			</g>
			<g>
				<g>
					<g>
						<g transform="matrix(1,0,0,1,-2136.56,-973.343)">
							<g transform="matrix(0.746669,0,0,0.746669,1490.58,432.701)">
								<g id="Full-logo_00000129925943011925896600000005670578741479303101_">
									<path id="Top_00000170959425691814697240000001013303431876890046_" class="st1" d="M1491.4,1796.4
										c-1404,162.9-2941.4,396.1-4182.2,634.4c-5783.2,1110.5-22660,4351.4-27466.5,5274.4c-790,151.7-1214.5,283.3-1093.2,338.6
										l833.5,380.6c0,0,21807.9-3839.8,29129.4-5128.9c1542.8-271.6,3252.1-530.9,4918.6-746.1
										C11539.4,1528.3,35095.6-1513,35095.6-1513l-833.5-380.6c-121.2-55.4-767.1-24.6-1660.9,79.1
										C27156.7-1182.5,8041.5,1036.1,1491.4,1796.4z"/>
								</g>
							</g>
						</g>
					</g>
				</g>
			</g>
			<g>
				<g>
					<g>
						<g transform="matrix(1,0,0,1,-2136.56,-973.343)">
							<g transform="matrix(0.746669,0,0,0.746669,1490.58,432.701)">
								<g id="Full-logo_00000070837162165778373850000013361345388875945142_">
									<path id="Top_00000039128377506445356230000008174127653364230283_" class="st1" d="M1392.2,1790.3
										c-1136.1,117.4-2381.8,302.3-3388.5,503.1c-4692.3,936.1-18385.5,3668-22285.3,4446c-641,127.8-986.8,248.1-890.6,309.5
										l661.1,422.2c0,0,17684.4-3171.5,23621.5-4236.2c1251.1-224.4,2636-430,3985.2-591.7
										C9498.1,1875.8,28569-410.2,28569-410.2l-661-422.2c-96.1-61.4-617.6-52.9-1340.8,21.8
										C22161.3-355.4,6692.8,1242.7,1392.2,1790.3z"/>
								</g>
							</g>
						</g>
					</g>
				</g>
			</g>
			<g>
				<g>
					<g>
						<g transform="matrix(1,0,0,1,-2136.56,-973.343)">
							<g transform="matrix(0.746669,0,0,0.746669,1490.58,432.701)">
								<g id="Full-logo_00000177446511573967180690000014572682843404307352_">
									<path id="Top_00000133530027104174855570000017905495134550262927_" class="st1" d="M1312.5,1780.5
										c-919,80-1928.1,225.8-2745.2,396.5c-3808.1,795.6-14921.2,3117.6-18086.2,3778.9c-520.2,108.7-802.3,220.2-726.5,286.9
										l520.9,458.7c0,0,14342.2-2631.3,19157.2-3514.7c1014.6-186.2,2136.6-348.2,3228.5-466.3
										C7843.1,2160.2,23277.9,491.1,23277.9,491.1L22757,32.4c-75.8-66.7-496.2-76.8-1081.3-25.8
										C18112,317,5600,1407,1312.5,1780.5z"/>
								</g>
							</g>
						</g>
					</g>
				</g>
			</g>
			<g>
				<g>
					<g>
						<g transform="matrix(1,0,0,1,-2136.56,-973.343)">
							<g transform="matrix(0.746669,0,0,0.746669,1490.58,432.701)">
								<g id="Full-logo_00000088832135128531070890000013601795711686760890_">
									<path id="Top_00000073680390605865943570000015367326684990981255_" class="st1" d="M1248.6,1767.5
										C505.7,1816.9-311.8,1930.7-975,2077.2C-4066.7,2760-13088.7,4752.5-15658.2,5320c-422.3,93.2-652.8,198-593.6,269.4
										l406.9,491.4c0,0,11633.3-2195,15538.9-2932c823-155.3,1731.8-281.9,2615.2-364.2
										c4192.2-390.9,16678.9-1555.2,16678.9-1555.2L18581.2,738c-59.2-71.5-397.8-96.9-870.7-65.5
										C14829.5,864.1,4714.6,1536.9,1248.6,1767.5z"/>
								</g>
							</g>
						</g>
					</g>
				</g>
			</g>
			<g>
				<g>
					<g>
						<g transform="matrix(1,0,0,1,-2136.56,-973.343)">
							<g transform="matrix(0.746669,0,0,0.746669,1490.58,432.701)">
								<g id="Full-logo_00000170238529831684745520000009437751370226110131_">
									<path id="Top_00000127736019294334958030000006126569338581215619_" class="st1" d="M1197.4,1751.9
										c-600.2,24.1-1262.2,112-1800.9,239c-2510.9,592.2-9838.4,2320.5-11925.3,2812.7c-343,80.9-531.7,180.5-486,256.2
										l314.1,520.9c0,0,9437.7-1843,12606.2-2461.7c667.7-130.4,1403.7-228.1,2118-281.2
										C5413.2,2586,15509.9,1835.6,15509.9,1835.6l-314.1-520.9c-45.7-75.8-317.9-114.2-699.9-98.8
										C12168.5,1309.7,3997.3,1639,1197.4,1751.9z"/>
								</g>
							</g>
						</g>
					</g>
				</g>
			</g>
			<g>
				<g>
					<g>
						<g transform="matrix(1,0,0,1,-2136.56,-973.343)">
							<g transform="matrix(0.746669,0,0,0.746669,1490.58,432.701)">
								<g id="Full-logo_00000041273966673360739510000007180095198710534562_">
									<path id="Top_00000116913570633479889550000003568209806756326038_" class="st1" d="M1156.6,1733.9
										c-484.4,3.3-1020.4,70-1458.2,181.5C-2342,2435.2-8296.3,3952.2-9992.1,4384.3c-278.7,71-433.6,166.8-398.9,246.5
										l238.5,548c0,0,7658.3-1559.3,10229.4-2082.8c541.8-110.3,1137.8-184.5,1714.9-213.5
										c2739.1-137.6,10897.7-547.4,10897.7-547.4l-238.5-548c-34.7-79.7-253-129.1-561.3-127
										C10011.3,1673,3416.4,1718.3,1156.6,1733.9z"/>
								</g>
							</g>
						</g>
					</g>
				</g>
			</g>
			<g>
				<g>
					<g>
						<g transform="matrix(1,0,0,1,-2136.56,-973.343)">
							<g transform="matrix(0.746669,0,0,0.746669,1490.58,432.701)">
								<g id="Full-logo_00000137124702402908944640000014024390028744865460_">
									<path id="Top_00000172423237805233196990000015069116030995986073_" class="st1" d="M1124.2,1713.9
										c-390.5-14-824.4,35.4-1180.3,134.6c-1659.1,462.1-6500.7,1810.9-7879.6,2195c-226.6,63.1-354.2,156.3-328.5,239.6
										l176.8,573.2c0,0,6216.2-1331,8303.1-1777.8c439.8-94.2,922.2-149.2,1388.2-158.3c2211.4-43.2,8798.5-171.9,8798.5-171.9
										l-176.8-573.2c-25.7-83.4-200.3-142.1-448.8-151C8262.4,1969.8,2945.9,1779.2,1124.2,1713.9z"/>
								</g>
							</g>
						</g>
					</g>
				</g>
			</g>
			<g>
				<g>
					<g>
						<g transform="matrix(1,0,0,1,-2136.56,-973.343)">
							<g transform="matrix(0.746669,0,0,0.746669,1490.58,432.701)">
								<g id="Full-logo_00000053504629308620789860000017997994897754825873_">
									<path id="Top_00000141431305858908301190000016567369281591669146_" class="st1" d="M1098.6,1692.1
										c-314.3-28.5-665.4,6.9-955.1,96.2c-1350.2,416.4-5290.3,1631.8-6412.4,1978c-184.4,56.8-289.8,148.3-271.5,235.1
										l126.4,596.9c0,0,5047.5-1147.6,6742-1533c357.1-81.2,747.4-120.5,1123.3-113.1c1783.6,35.1,7096.1,139.4,7096.1,139.4
										L8421,2494.7c-18.4-86.8-157.4-153.6-357.5-171.7C6844.6,2212.6,2565.1,1824.9,1098.6,1692.1z"/>
								</g>
							</g>
						</g>
					</g>
				</g>
			</g>
			<g>
				<g>
					<g>
						<g transform="matrix(1,0,0,1,-2136.56,-973.343)">
							<g transform="matrix(0.746669,0,0,0.746669,1490.58,432.701)">
								<g id="Full-logo_00000119092467440505286380000013187811824989495177_">
									<path id="Top_00000157991734730527735210000003021340891248856979_" class="st1" d="M1078.7,1668.8
										c-252.5-40.7-536.5-16.9-772.5,64.7C-793.7,2114-4003.5,3224.4-4917.7,3540.7c-150.3,51.9-237.8,142.3-225.4,232.4
										l85,619.5c0,0,4100.3-1000.8,5476.9-1336.8c290.1-70.8,605.8-97.3,908.5-76.1c1436.5,100.3,5715.2,399,5715.2,399
										l-85-619.5c-12.4-90.1-122.5-163.9-283.3-189.8C5695,2411.7,2256.8,1858.4,1078.7,1668.8z"/>
								</g>
							</g>
						</g>
					</g>
				</g>
			</g>
			<g>
				<g>
					<g>
						<g transform="matrix(1,0,0,1,-2136.56,-973.343)">
							<g transform="matrix(0.746669,0,0,0.746669,1490.58,432.701)">
								<g id="Full-logo_00000103250960800184736850000010268918435727290801_">
									<path id="Top_00000036933937867749566330000008766387411471087509_" class="st1" d="M1063.2,1644
										c-202.4-51-431.9-36.7-624.4,38.9c-897.2,352.4-3515.4,1381.1-4261.1,1674c-122.6,48.1-195.6,138.1-188.2,231.4l51.1,641.4
										c0,0,3332.9-883.6,4451.8-1180.3c235.8-62.5,491-78.4,734.4-45.7c1154.9,155,4595,616.7,4595,616.7l-51.1-641.4
										c-7.4-93.3-94.1-173.3-223-205.7C4762.9,2575.6,2007.4,1881.7,1063.2,1644z"/>
								</g>
							</g>
						</g>
					</g>
				</g>
			</g>
			<g>
				<g>
					<g>
						<g transform="matrix(1,0,0,1,-2136.56,-973.343)">
							<g transform="matrix(0.746669,0,0,0.746669,1490.58,432.701)">
								<g id="Full-logo_00000162314234340777159360000012397038636360822918_">
									<path id="Top_00000107574792604671503360000010568888229964010888_" class="st1" d="M1051.5,1617.9
										c-161.7-59.8-347.1-53.3-504.3,17.6C-185.9,1966.4-2325,2931.9-2934.2,3207c-100.1,45.1-161.6,135.2-158.2,231.6
										l23.1,662.6c0,0,2711-790.5,3621.2-1055.9c191.8-55.9,397.9-63.1,593.1-20.7c926.5,201.3,3686,800.7,3686,800.7
										l-23.1-662.6c-3.4-96.4-71-181.9-173.9-220C4007.1,2710.8,1805.8,1896.8,1051.5,1617.9z"/>
								</g>
							</g>
						</g>
					</g>
				</g>
			</g>
			<g>
				<g>
					<g>
						<g transform="matrix(1,0,0,1,-2136.56,-973.343)">
							<g transform="matrix(0.746669,0,0,0.746669,1490.58,432.701)">
								<g id="Full-logo_00000127731397458372183440000002850360640287095480_">
									<path id="Top_00000057843657307783259920000000280615909153782426_" class="st1" d="M1042.7,1590.6
										c-128.6-67.4-278.2-67.4-407,0c-600,314.5-2351.3,1232.4-2850,1493.8c-82,42.9-134,133.5-134,232.9v683.6
										c0,0,2207.2-716.9,2948.3-957.6c156.2-50.7,322.5-50.7,478.6,0c741,240.7,2948.3,957.6,2948.3,957.6v-683.6
										c0-99.4-52.1-190-134-232.9C3394.1,2823,1642.8,1905.1,1042.7,1590.6z"/>
								</g>
							</g>
						</g>
					</g>
				</g>
			</g>
		</g>
	</g>
</g>
</svg>
