<?xml version="1.0" encoding="utf-8"?>
<!-- Generator: Adobe Illustrator 27.2.0, SVG Export Plug-In . SVG Version: 6.00 Build 0)  -->
<svg version="1.1" id="Livello_1" xmlns="http://www.w3.org/2000/svg" xmlns:xlink="http://www.w3.org/1999/xlink" x="0px" y="0px"
	 viewBox="0 0 841.9 1190.6" style="enable-background:new 0 0 841.9 1190.6;" xml:space="preserve">
<style type="text/css">
	.st0{clip-path:url(#SVGID_00000142156407796759629960000013094112748420247439_);}
	.st1{fill:none;stroke:#000000;stroke-width:1.4933;stroke-miterlimit:7.4667;}
</style>
<g>
	<g>
		<defs>
			<rect id="SVGID_1_" y="127.2" width="841.9" height="1051.4"/>
		</defs>
		<clipPath id="SVGID_00000142866864891957579060000003501292909725122217_">
			<use xlink:href="#SVGID_1_"  style="overflow:visible;"/>
		</clipPath>
		<g style="clip-path:url(#SVGID_00000142866864891957579060000003501292909725122217_);">
			<g>
				<g>
					<g>
						<g transform="matrix(1,0,0,1,-2136.56,-973.343)">
							<g transform="matrix(0.746669,0,0,0.746669,1490.58,432.701)">
								<g id="Full-logo_00000096044584943759571690000016739872741845952939_">
									<path id="Top_00000107582669842307685090000004676908760416826803_" class="st1" d="M2606.1,1548.2
										C56.3,1918.5-2728.2,2361.3-4968,2752.8C-15408,4577.7-45874.8,9903.3-54551.8,11420
										c-1426.2,249.3-2185.2,417.4-1955,432.7l1582.7,105.8c0,0,39418.9-6644.2,52652.8-8874.9
										c2788.7-470,5884.3-962.4,8907.9-1416.7C20985.2-489.3,63723.9-6911.7,63723.9-6911.7l-1582.7-105.8
										c-230.2-15.4-1409.6,124.8-3032.9,360.6C49219.9-5220.9,14502.5-179.4,2606.1,1548.2z"/>
								</g>
							</g>
						</g>
					</g>
				</g>
			</g>
			<g>
				<g>
					<g>
						<g transform="matrix(1,0,0,1,-2136.56,-973.343)">
							<g transform="matrix(0.746669,0,0,0.746669,1490.58,432.701)">
								<g id="Full-logo_00000034091892197619022560000017145428355575456652_">
									<path id="Top_00000036243149711534619140000002710879869878180264_" class="st1" d="M2423.6,1562.3
										C358.1,1852.1-1898.5,2208.2-3714.8,2531c-8465.6,1504.6-33170.5,5895.4-40206.5,7145.9
										c-1156.5,205.5-1772.9,351.4-1587.8,375.5l1272.6,165.9c0,0,31957.1-5427.3,42685.9-7249.4
										c2260.8-384,4769.6-779.8,7219.3-1139.2c11625-1705.3,46251.5-6784.6,46251.5-6784.6l-1272.6-165.9
										c-185.1-24.1-1139.6,77.9-2454.6,262.4C40183-3734.8,12060.3,210.4,2423.6,1562.3z"/>
								</g>
							</g>
						</g>
					</g>
				</g>
			</g>
			<g>
				<g>
					<g>
						<g transform="matrix(1,0,0,1,-2136.56,-973.343)">
							<g transform="matrix(0.746669,0,0,0.746669,1490.58,432.701)">
								<g id="Full-logo_00000060709343194649972660000005300223795591489674_">
									<path id="Top_00000183242570175050076560000000175615573296263311_" class="st1" d="M2276.1,1570.4
										c-1672.9,224.2-3501.6,509.9-4974.6,777.1C-9563.7,3593-29598.5,7228-35304.4,8263.3
										c-937.9,170.1-1438.8,298.2-1290.3,329.8l1021,216.7c0,0,25908.9-4442,34607.1-5933.3
										c1832.9-314.2,3866.1-631.9,5850.5-913.9c9417.3-1338.7,37467.8-5326,37467.8-5326l-1021-216.7
										c-148.5-31.5-920.7,39.2-1985.7,182C32857.8-2528.7,10080.9,524.2,2276.1,1570.4z"/>
								</g>
							</g>
						</g>
					</g>
				</g>
			</g>
			<g>
				<g>
					<g>
						<g transform="matrix(1,0,0,1,-2136.56,-973.343)">
							<g transform="matrix(0.746669,0,0,0.746669,1490.58,432.701)">
								<g id="Full-logo_00000006700197104809065590000009814696691250711681_">
									<path id="Top_00000032643472303247760050000012023594703499598488_" class="st1" d="M2157,1573.3
										C802.4,1744.1-679.5,1972.7-1874.2,2195c-5568.2,1036.3-21817.7,4060.6-26445.6,4921.9
										c-760.7,141.5-1168,255.5-1049.2,293.3l816.8,260c0,0,21006.6-3644.4,28059-4867.9c1486.1-257.8,3133.7-511.9,4741-731.1
										c7627.7-1040.4,30347.5-4139.4,30347.5-4139.4l-816.8-260c-118.8-37.8-743.1,7.3-1605.5,116.1
										C26920-1549.7,8476.8,776.3,2157,1573.3z"/>
								</g>
							</g>
						</g>
					</g>
				</g>
			</g>
			<g>
				<g>
					<g>
						<g transform="matrix(1,0,0,1,-2136.56,-973.343)">
							<g transform="matrix(0.746669,0,0,0.746669,1490.58,432.701)">
								<g id="Full-logo_00000105400558589445277260000014266505546862483126_">
									<path id="Top_00000158732000309941664720000000126479173186415256_" class="st1" d="M2060.9,1572.1
										c-1096.5,127.3-2297.4,309.4-3266.5,495.5C-5722.4,2934.9-18904,5466.2-22658.2,6187.1
										c-617.1,118.5-948.5,221.2-853.9,264.5l651,297.3c0,0,17033-2999,22751.4-4005.9c1205-212.2,2540-414.7,3841.6-582.7
										c6176.9-797.5,24575.4-3172.9,24575.4-3172.9l-651-297.3c-94.7-43.2-599.1-19.2-1297.2,61.8
										C22106.8-754.6,7176.9,978.3,2060.9,1572.1z"/>
								</g>
							</g>
						</g>
					</g>
				</g>
			</g>
			<g>
				<g>
					<g>
						<g transform="matrix(1,0,0,1,-2136.56,-973.343)">
							<g transform="matrix(0.746669,0,0,0.746669,1490.58,432.701)">
								<g id="Full-logo_00000171718474470036114570000014417537506886068867_">
									<path id="Top_00000122693672597758461330000015157854445715686070_" class="st1" d="M1983.5,1567.3
										c-887.3,91.7-1860.3,236.1-2646.6,393C-4327.9,2691.4-15023,4825.2-18069,5432.9c-500.7,99.9-770.7,193.8-695.6,241.8
										l516.3,329.7c0,0,13812.3-2477.1,18449.5-3308.7c977.1-175.2,2058.8-335.9,3112.6-462.2
										C8314.6,1634.1,23209.9-151.4,23209.9-151.4l-516.3-329.7c-75.1-48-482.3-41.4-1047.3,17
										C18205.2-108.6,6123.5,1139.6,1983.5,1567.3z"/>
								</g>
							</g>
						</g>
					</g>
				</g>
			</g>
			<g>
				<g>
					<g>
						<g transform="matrix(1,0,0,1,-2136.56,-973.343)">
							<g transform="matrix(0.746669,0,0,0.746669,1490.58,432.701)">
								<g id="Full-logo_00000167371024497301369370000007561194095970058398_">
									<path id="Top_00000087402025178032458630000009187676754507327134_" class="st1" d="M1921.3,1559.7
										c-717.7,62.5-1506,176.3-2144.1,309.7C-3197.1,2490.8-11877,4304.3-14349,4820.9c-406.3,84.9-626.6,172-567.4,224.1
										l406.8,358.3c0,0,11201.9-2055.2,14962.7-2745.2c792.5-145.4,1668.8-272,2521.6-364.2
										C7022,1856.2,19077.3,552.6,19077.3,552.6l-406.8-358.3c-59.2-52.1-387.6-60-844.5-20.1
										C15042.5,416.6,5270,1267.9,1921.3,1559.7z"/>
								</g>
							</g>
						</g>
					</g>
				</g>
			</g>
			<g>
				<g>
					<g>
						<g transform="matrix(1,0,0,1,-2136.56,-973.343)">
							<g transform="matrix(0.746669,0,0,0.746669,1490.58,432.701)">
								<g id="Full-logo_00000127733814253713246810000003727687524618542484_">
									<path id="Top_00000126288370018594632780000014761491364772818566_" class="st1" d="M1871.3,1549.5
										c-580.2,38.6-1218.7,127.5-1736.8,241.9c-2414.7,533.2-9461.3,2089.5-11468.2,2532.7c-329.9,72.8-509.9,154.6-463.6,210.4
										l317.8,383.8c0,0,9086.1-1714.4,12136.6-2290c642.8-121.3,1352.6-220.2,2042.6-284.5
										c3274.3-305.3,13027-1214.7,13027-1214.7l-317.8-383.8c-46.2-55.8-310.7-75.7-680.1-51.1
										C12478.7,843.9,4578.5,1369.4,1871.3,1549.5z"/>
								</g>
							</g>
						</g>
					</g>
				</g>
			</g>
			<g>
				<g>
					<g>
						<g transform="matrix(1,0,0,1,-2136.56,-973.343)">
							<g transform="matrix(0.746669,0,0,0.746669,1490.58,432.701)">
								<g id="Full-logo_00000074428694405007643860000004422724417266853274_">
									<path id="Top_00000120518523619455389030000013888512679202140598_" class="st1" d="M1831.4,1537.3
										c-468.7,18.9-985.8,87.5-1406.6,186.7c-1961.1,462.5-7684.3,1812.4-9314.2,2196.8c-267.9,63.2-415.3,141-379.6,200.1
										l245.3,406.9c0,0,7371.3-1439.5,9846.1-1922.7c521.5-101.8,1096.4-178.2,1654.3-219.6
										c2647.5-196.7,10533.5-782.8,10533.5-782.8l-245.3-406.9c-35.7-59.2-248.3-89.2-546.7-77.2
										C10400.3,1191.9,4018.3,1449.1,1831.4,1537.3z"/>
								</g>
							</g>
						</g>
					</g>
				</g>
			</g>
			<g>
				<g>
					<g>
						<g transform="matrix(1,0,0,1,-2136.56,-973.343)">
							<g transform="matrix(0.746669,0,0,0.746669,1490.58,432.701)">
								<g id="Full-logo_00000067947842987472397020000006400480527894852019_">
									<path id="Top_00000155124675047038851630000007371657711481861308_" class="st1" d="M1799.5,1523.2
										c-378.3,2.6-797,54.7-1138.9,141.8C-933,2071-5583.6,3255.9-6908.1,3593.3c-217.7,55.4-338.7,130.3-311.6,192.5l186.3,428
										c0,0,5981.5-1217.9,7989.7-1626.7c423.2-86.2,888.6-144.1,1339.4-166.8c2139.3-107.5,8511.6-427.6,8511.6-427.6l-186.3-428
										c-27.1-62.3-197.6-100.8-438.4-99.2C8715.4,1475.7,3564.5,1511.1,1799.5,1523.2z"/>
								</g>
							</g>
						</g>
					</g>
				</g>
			</g>
			<g>
				<g>
					<g>
						<g transform="matrix(1,0,0,1,-2136.56,-973.343)">
							<g transform="matrix(0.746669,0,0,0.746669,1490.58,432.701)">
								<g id="Full-logo_00000182530517094746077100000001951624064083764150_">
									<path id="Top_00000052080575547942953470000000714120320260640678_" class="st1" d="M1774.2,1507.6
										c-305-11-643.9,27.7-921.9,105.1c-1295.8,360.9-5077.4,1414.4-6154.4,1714.4c-177,49.3-276.6,122.1-256.5,187.2
										l138.1,447.7c0,0,4855.1-1039.5,6485.1-1388.6c343.5-73.5,720.3-116.5,1084.2-123.6c1727.2-33.7,6872-134.3,6872-134.3
										l-138.1-447.7c-20.1-65.1-156.4-111-350.6-117.9C7349.5,1707.5,3197.1,1558.6,1774.2,1507.6z"/>
								</g>
							</g>
						</g>
					</g>
				</g>
			</g>
			<g>
				<g>
					<g>
						<g transform="matrix(1,0,0,1,-2136.56,-973.343)">
							<g transform="matrix(0.746669,0,0,0.746669,1490.58,432.701)">
								<g id="Full-logo_00000071547859300066893730000014246396590120648602_">
									<path id="Top_00000039130915353555596730000007801198432914026168_" class="st1" d="M1754.3,1490.6
										c-245.5-22.3-519.7,5.4-746,75.1c-1054.6,325.3-4132,1274.6-5008.4,1545c-144.1,44.4-226.4,115.8-212,183.6l98.7,466.2
										c0,0,3942.3-896.4,5265.8-1197.3c278.9-63.4,583.8-94.1,877.3-88.3c1393,27.4,5542.4,108.9,5542.4,108.9l-98.7-466.2
										c-14.4-67.8-122.9-120-279.2-134.1C6242.1,1897.1,2899.6,1594.3,1754.3,1490.6z"/>
								</g>
							</g>
						</g>
					</g>
				</g>
			</g>
			<g>
				<g>
					<g>
						<g transform="matrix(1,0,0,1,-2136.56,-973.343)">
							<g transform="matrix(0.746669,0,0,0.746669,1490.58,432.701)">
								<g id="Full-logo_00000158002461988582547220000010269502220379431359_">
									<path id="Top_00000078018319607612045020000011539494749316836249_" class="st1" d="M1738.7,1472.4
										c-197.2-31.8-419-13.2-603.3,50.6c-859.1,297.2-3366.1,1164.5-4080.1,1411.5c-117.4,40.6-185.7,111.2-176.1,181.5
										l66.4,483.9c0,0,3202.6-781.7,4277.8-1044.1c226.6-55.3,473.2-76,709.6-59.5c1122,78.3,4463.9,311.6,4463.9,311.6
										l-66.4-483.9c-9.7-70.4-95.7-128-221.3-148.2C5344.3,2052.7,2658.9,1620.5,1738.7,1472.4z"/>
								</g>
							</g>
						</g>
					</g>
				</g>
			</g>
			<g>
				<g>
					<g>
						<g transform="matrix(1,0,0,1,-2136.56,-973.343)">
							<g transform="matrix(0.746669,0,0,0.746669,1490.58,432.701)">
								<g id="Full-logo_00000134237108033829466190000001085568533194811290_">
									<path id="Top_00000001653597447090153080000013103604701936296895_" class="st1" d="M1726.6,1453
										c-158.1-39.8-337.4-28.7-487.7,30.4c-700.7,275.3-2745.7,1078.7-3328.1,1307.5c-95.7,37.6-152.8,107.8-147,180.7
										l39.9,500.9c0,0,2603.1-690.1,3477.1-921.9c184.2-48.8,383.5-61.2,573.6-35.7c902.1,121.1,3588.9,481.7,3588.9,481.7
										l-39.9-500.9c-5.8-72.9-73.5-135.4-174.2-160.7C4616.2,2180.6,2464.1,1638.7,1726.6,1453z"/>
								</g>
							</g>
						</g>
					</g>
				</g>
			</g>
			<g>
				<g>
					<g>
						<g transform="matrix(1,0,0,1,-2136.56,-973.343)">
							<g transform="matrix(0.746669,0,0,0.746669,1490.58,432.701)">
								<g id="Full-logo_00000034781300900629493800000004749051439810164899_">
									<path id="Top_00000026160599208694980120000018084234784811113392_" class="st1" d="M1717.4,1432.7
										c-126.3-46.7-271.1-41.7-393.9,13.8C751,1704.8-919.8,2459-1395.6,2673.8c-78.2,35.3-126.2,105.6-123.6,180.9l18.1,517.6
										c0,0,2117.5-617.4,2828.3-824.7c149.8-43.7,310.8-49.3,463.3-16.2c723.6,157.2,2879,625.4,2879,625.4l-18.1-517.6
										c-2.6-75.3-55.5-142.1-135.8-171.8C4025.9,2286.3,2306.6,1650.5,1717.4,1432.7z"/>
								</g>
							</g>
						</g>
					</g>
				</g>
			</g>
			<g>
				<g>
					<g>
						<g transform="matrix(1,0,0,1,-2136.56,-973.343)">
							<g transform="matrix(0.746669,0,0,0.746669,1490.58,432.701)">
								<g id="Full-logo_00000129194771079915625990000009039287750520531081_">
									<path id="Top_00000111150821930732817910000006009210819957619089_" class="st1" d="M1710.6,1411.3
										c-100.5-52.7-217.3-52.7-317.9,0C924,1657-443.7,2373.9-833.3,2578.1c-64,33.5-104.7,104.3-104.7,181.9v533.9
										c0,0,1724-559.9,2302.7-747.9c122-39.6,251.9-39.6,373.8,0c578.8,188,2302.7,747.9,2302.7,747.9V2760
										c0-77.7-40.7-148.4-104.6-181.9C3547.1,2373.9,2179.3,1657,1710.6,1411.3z"/>
								</g>
							</g>
						</g>
					</g>
				</g>
			</g>
		</g>
	</g>
</g>
</svg>
