<?xml version="1.0" encoding="utf-8"?>
<!-- Generator: Adobe Illustrator 27.2.0, SVG Export Plug-In . SVG Version: 6.00 Build 0)  -->
<svg version="1.1" id="Livello_1" xmlns="http://www.w3.org/2000/svg" xmlns:xlink="http://www.w3.org/1999/xlink" x="0px" y="0px"
	 viewBox="0 0 841.9 1190.6" style="enable-background:new 0 0 841.9 1190.6;" xml:space="preserve">
<style type="text/css">
	.st0{clip-path:url(#SVGID_00000045591702191474262870000012976697127193832628_);}
	.st1{fill:none;stroke:#000000;stroke-width:1.4933;stroke-miterlimit:7.4667;}
</style>
<g>
	<g>
		<defs>
			<rect id="SVGID_1_" y="619.7" width="841.9" height="473.6"/>
		</defs>
		<clipPath id="SVGID_00000005259555066010433860000001108400456999738537_">
			<use xlink:href="#SVGID_1_"  style="overflow:visible;"/>
		</clipPath>
		<g style="clip-path:url(#SVGID_00000005259555066010433860000001108400456999738537_);">
			<g>
				<g>
					<g>
						<g transform="matrix(1,0,0,1,-2136.56,-973.343)">
							<g transform="matrix(0.746669,0,0,0.746669,1490.58,432.701)">
								<g id="Full-logo_00000049903858684126532280000017439211673643031452_">
									<path id="Top_00000088092621675485783860000014424873730646890663_" class="st1" d="M3143.4,751.9
										c-1771.3,271.2-3692,603.6-5224.6,904.3C-9224.7,3057.8-30071.3,7148-36008.4,8312.9
										c-975.9,191.4-1482.7,326.7-1305.6,348.3l1217.6,148.2c0,0,27058.7-5059.9,36142.9-6758.6
										c1914.2-358,4049.6-727.6,6144.5-1063.5c9941.8-1594.4,39554.4-6343.5,39554.4-6343.5l-1217.6-148.2
										c-177.1-21.6-1007.3,74.6-2135,247.2C35523.9-4205.6,11407.3-513.3,3143.4,751.9z"/>
								</g>
							</g>
						</g>
					</g>
				</g>
			</g>
			<g>
				<g>
					<g>
						<g transform="matrix(1,0,0,1,-2136.56,-973.343)">
							<g transform="matrix(0.746669,0,0,0.746669,1490.58,432.701)">
								<g id="Full-logo_00000041291199931138975250000017379963931092220823_">
									<path id="Top_00000067200655862424188010000015349820260464116150_" class="st1" d="M3075,748.8
										C1604.2,964.5,8.3,1237.9-1266.2,1492.6c-5940.5,1187-23276.6,4651.1-28213.9,5637.7
										c-811.5,162.1-1234.1,283.3-1088.4,311.9l1001.4,196.5c0,0,22494.9-4239.7,30046.9-5663.1
										c1591.4-299.9,3365.7-603.9,5105.7-874.7c8257.3-1285,32852.6-5112.6,32852.6-5112.6l-1001.4-196.5
										c-145.6-28.6-834.1,40.6-1770.5,177.9C29962.5-3193.9,9937-257.4,3075,748.8z"/>
								</g>
							</g>
						</g>
					</g>
				</g>
			</g>
			<g>
				<g>
					<g>
						<g transform="matrix(1,0,0,1,-2136.56,-973.343)">
							<g transform="matrix(0.746669,0,0,0.746669,1490.58,432.701)">
								<g id="Full-logo_00000077283792233656943040000007447319331818772378_">
									<path id="Top_00000058579748748125399460000017547475562613376128_" class="st1" d="M3018.7,743.2
										c-1221,169.3-2547.1,393.5-3607.1,610.1c-4940.8,1009.3-19359.3,3954.6-23465.7,4793.5c-675,137.8-1027.4,247.5-908,282.2
										l821.4,238.5c0,0,18701.8-3558.8,24980.4-4753.6C2162.8,1662,3637,1412.6,5082,1196.2
										c6857.1-1026.9,27281.8-4085.5,27281.8-4085.5l-821.4-238.5c-119.5-34.7-690.1,11.8-1467.5,119.6
										C25339.9-2351.6,8715.3-46.7,3018.7,743.2z"/>
								</g>
							</g>
						</g>
					</g>
				</g>
			</g>
			<g>
				<g>
					<g>
						<g transform="matrix(1,0,0,1,-2136.56,-973.343)">
							<g transform="matrix(0.746669,0,0,0.746669,1490.58,432.701)">
								<g id="Full-logo_00000094583090989024378670000005605627799923033510_">
									<path id="Top_00000103973813968927142060000005874539293876672437_" class="st1" d="M2972.3,735.3
										C1958.9,865.8,857.2,1049.2-24.6,1234.1C-4134.5,2096.2-16128.3,4612-19544.2,5328.5c-561.5,117.7-855.7,218-758.1,258
										l671.6,275.2c0,0,15549.2-2993.8,20769.5-3998.9c1100-211.8,2324.9-415.7,3524.6-586.6
										c5693.2-811.3,22651.1-3227.7,22651.1-3227.7l-671.6-275.2c-97.7-40-570.3-12.7-1215.5,70.4
										C21497.6-1650.2,7700.1,126.5,2972.3,735.3z"/>
								</g>
							</g>
						</g>
					</g>
				</g>
			</g>
			<g>
				<g>
					<g>
						<g transform="matrix(1,0,0,1,-2136.56,-973.343)">
							<g transform="matrix(0.746669,0,0,0.746669,1490.58,432.701)">
								<g id="Full-logo_00000171694197497721670840000000600222412313527717_">
									<path id="Top_00000028297271109865485910000016559108910429874597_" class="st1" d="M2934.2,725.6
										c-840.7,98-1756,247.2-2489.6,406.1C-2974.8,1872-12953.6,4032.6-15795.6,4647.9c-467.1,101.1-713.1,193.8-633.6,238.6
										l546.7,307.7c0,0,12929.1-2525,17269.7-3372.8c914.7-178.6,1932.2-344.6,2928-477.6
										c4725.7-631,18801.6-2510.6,18801.6-2510.6l-546.7-307.7c-79.5-44.8-470.7-33.6-1006,28.8
										C18303.8-1065.7,6856.7,268.4,2934.2,725.6z"/>
								</g>
							</g>
						</g>
					</g>
				</g>
			</g>
			<g>
				<g>
					<g>
						<g transform="matrix(1,0,0,1,-2136.56,-973.343)">
							<g transform="matrix(0.746669,0,0,0.746669,1490.58,432.701)">
								<g id="Full-logo_00000062877607941774608350000000341225268459743906_">
									<path id="Top_00000112605518163276691870000015266675405935806856_" class="st1" d="M2903,714.1
										c-697.2,70.7-1457.5,191.6-2068,328.8c-2845.6,639.7-11149.8,2506.7-13514.9,3038.4c-388.7,87.4-594.6,174-530.2,223
										l442.7,336.7c0,0,10751.5-2136.4,14361.1-2853.6c760.6-151.1,1605.8-285.5,2432.1-386.7
										c3921.4-480,15601.6-1910.1,15601.6-1910.1l-442.7-336.7c-64.4-49-387.8-51.5-831.7-6.5
										C15649.1-578.4,6155.9,384.2,2903,714.1z"/>
								</g>
							</g>
						</g>
					</g>
				</g>
			</g>
			<g>
				<g>
					<g>
						<g transform="matrix(1,0,0,1,-2136.56,-973.343)">
							<g transform="matrix(0.746669,0,0,0.746669,1490.58,432.701)">
								<g id="Full-logo_00000131349286411565710740000006702933031464876938_">
									<path id="Top_00000142137139215342339040000003494317447481320346_" class="st1" d="M2877.6,701.2
										c-578,47.8-1209.4,145-1717.6,264.4c-2368.8,556.7-9281.4,2181.5-11250.1,2644.2c-323.6,76-496.1,157.9-444.3,210.7
										l355.9,362.9c0,0,8941.8-1814.3,11943.8-2423.4c632.6-128.4,1334.6-236.4,2020-310.9
										c3252.6-353.6,12941-1406.7,12941-1406.7l-355.9-362.9c-51.8-52.8-318.8-67-686.7-36.6
										C13442.4-171.9,5573.8,478.4,2877.6,701.2z"/>
								</g>
							</g>
						</g>
					</g>
				</g>
			</g>
			<g>
				<g>
					<g>
						<g transform="matrix(1,0,0,1,-2136.56,-973.343)">
							<g transform="matrix(0.746669,0,0,0.746669,1490.58,432.701)">
								<g id="Full-logo_00000071524407553197467200000011322911144284265880_">
									<path id="Top_00000130634856573153296630000011864514681573827755_" class="st1" d="M2856.9,687
										c-478.7,28.4-1003,105.8-1426.2,210.6C-541.8,1386-6298.1,2811.3-7937.5,3217.2c-269.5,66.7-414.3,144.9-373.1,201.1
										L-8027,3805c0,0,7437.7-1547.5,9934.8-2067.1c526.2-109.5,1109.1-195.5,1677.3-247.6c2696.6-247.3,10729-983.8,10729-983.8
										l-283.5-386.7c-41.2-56.2-261.4-80.5-566.2-62.4C11608.1,167.6,5090.3,554.4,2856.9,687z"/>
								</g>
							</g>
						</g>
					</g>
				</g>
			</g>
			<g>
				<g>
					<g>
						<g transform="matrix(1,0,0,1,-2136.56,-973.343)">
							<g transform="matrix(0.746669,0,0,0.746669,1490.58,432.701)">
								<g id="Full-logo_00000149372116216187374780000000239554949205464733_">
									<path id="Top_00000107563575607386947500000012850079907505574031_" class="st1" d="M2840.3,671.7
										c-396.2,12-831.5,72.9-1184,165.6C13,1269.5-4782.5,2530.9-6148.3,2890.1c-224.5,59-346.4,134.3-313.9,193.8l223,408.6
										c0,0,6187.8-1326.8,8265.2-1772.3c437.7-93.9,921.7-161.6,1392.5-194.8c2234.4-157.7,8890-627.5,8890-627.5l-223-408.6
										c-32.4-59.4-213.6-92.4-465.8-84.7C10083.2,451.3,4688.8,615.4,2840.3,671.7z"/>
								</g>
							</g>
						</g>
					</g>
				</g>
			</g>
			<g>
				<g>
					<g>
						<g transform="matrix(1,0,0,1,-2136.56,-973.343)">
							<g transform="matrix(0.746669,0,0,0.746669,1490.58,432.701)">
								<g id="Full-logo_00000067923158609581702880000005583849631784019384_">
									<path id="Top_00000160186626936531053040000013527340032238986134_" class="st1" d="M2827,655.2
										c-327.6-1.9-688.9,45.2-982.7,128.1C474.6,1169.5-3522.6,2296.5-4661,2617.5c-187.1,52.7-289.9,126-264.9,188.3l172.4,429
										c0,0,5149-1144.4,6877.7-1528.6c364.3-81,765.9-133.3,1155.8-150.6c1850.1-82.1,7360.7-326.7,7360.7-326.7l-172.4-429
										c-25.1-62.4-173.7-102.9-382.3-104C8815.6,688.8,4355.4,663.8,2827,655.2z"/>
								</g>
							</g>
						</g>
					</g>
				</g>
			</g>
			<g>
				<g>
					<g>
						<g transform="matrix(1,0,0,1,-2136.56,-973.343)">
							<g transform="matrix(0.746669,0,0,0.746669,1490.58,432.701)">
								<g id="Full-logo_00000061463218668428275530000013536870625302383036_">
									<path id="Top_00000160168010814779718180000006153822505179526040_" class="st1" d="M2816.5,637.8
										c-270.5-13.7-570.3,21.8-815.4,96.6C858.7,1083-2475.3,2100.4-3424.8,2390.1c-156.1,47.6-243.1,119.3-224.2,184.5
										l130,448.2c0,0,4285.8-993.8,5724.6-1327.5c303.2-70.3,636.4-109.8,958.9-113.6c1530.4-18,6089-71.8,6089-71.8l-130-448.2
										c-18.9-65.2-140.5-112.2-312.7-120.9C7761.8,887.9,4078.6,701.6,2816.5,637.8z"/>
								</g>
							</g>
						</g>
					</g>
				</g>
			</g>
			<g>
				<g>
					<g>
						<g transform="matrix(1,0,0,1,-2136.56,-973.343)">
							<g transform="matrix(0.746669,0,0,0.746669,1490.58,432.701)">
								<g id="Full-logo_00000086687243602389662340000012439869638833538479_">
									<path id="Top_00000163044843579644592370000016480732637036883593_" class="st1" d="M2808.3,619.5
										c-223-23.8-471.6,1.9-676.2,70.2c-953.6,318-3736.6,1246.3-4529.2,1510.7c-130.3,43.4-204.2,114.2-190.5,182.1l94.5,466.4
										c0,0,3568.5-869.7,4766.5-1161.7c252.5-61.5,528.8-90.2,795.3-82.5c1264.6,36.5,5031.2,145.1,5031.2,145.1l-94.5-466.4
										c-13.7-67.8-112.8-120.7-254.8-135.8C6885.6,1055.1,3848.9,730.6,2808.3,619.5z"/>
								</g>
							</g>
						</g>
					</g>
				</g>
			</g>
			<g>
				<g>
					<g>
						<g transform="matrix(1,0,0,1,-2136.56,-973.343)">
							<g transform="matrix(0.746669,0,0,0.746669,1490.58,432.701)">
								<g id="Full-logo_00000117655176761225553330000009273419028383230135_">
									<path id="Top_00000042004640196020138530000010838861817983182473_" class="st1" d="M2802.1,600.3
										c-183.5-32.6-389.6-15-560.6,48C1444.7,941.7-880.6,1797.9-1542.9,2041.8c-108.9,40-172,110.3-162.6,180.7l64.6,484
										c0,0,2972.5-767.7,3970.4-1025.4c210.3-54.3,439.4-73.9,659.3-56.4c1043.4,83.1,4151.3,330.6,4151.3,330.6l-64.6-484
										c-9.4-70.4-89.7-128.4-206.6-149.1C6157.2,1195.8,3658.4,752.3,2802.1,600.3z"/>
								</g>
							</g>
						</g>
					</g>
				</g>
			</g>
			<g>
				<g>
					<g>
						<g transform="matrix(1,0,0,1,-2136.56,-973.343)">
							<g transform="matrix(0.746669,0,0,0.746669,1490.58,432.701)">
								<g id="Full-logo_00000057128845667327256520000008685083060702090152_">
									<path id="Top_00000022559359043849657030000006820538269384787094_" class="st1" d="M2797.5,580.4
										c-150.6-40.2-321.4-29.4-464.4,29.2c-666.6,273.6-2611.9,1072.1-3166,1299.6c-91.1,37.3-145.2,107.5-139.5,180.3l39.4,501
										c0,0,2477.2-684,3308.9-913.6c175.2-48.4,365-60.3,546.1-34.4c859.4,123.2,3419.2,489.9,3419.2,489.9l-39.4-501
										c-5.7-72.9-70.4-135.5-166.3-161.1C5551.4,1314.6,3500.4,767.7,2797.5,580.4z"/>
								</g>
							</g>
						</g>
					</g>
				</g>
			</g>
			<g>
				<g>
					<g>
						<g transform="matrix(1,0,0,1,-2136.56,-973.343)">
							<g transform="matrix(0.746669,0,0,0.746669,1490.58,432.701)">
								<g id="Full-logo_00000159427896833929512540000011779982260347016862_">
									<path id="Top_00000054974326541555616780000016591713323545067667_" class="st1" d="M2794.3,559.6
										c-123.3-46.8-264.6-41.9-384.4,13.4C1851.5,830.9,221.7,1583.7-242.4,1798.1c-76.3,35.2-123.1,105.5-120.4,180.8
										l18.1,517.6c0,0,2065.8-615.6,2759.3-822.3c146.1-43.6,303.2-49,452.1-15.8c706.3,157.8,2809.9,627.8,2809.9,627.8
										l-18.1-517.6c-2.6-75.3-54.2-142.2-132.7-171.9C5047.7,1415.2,3369.4,777.9,2794.3,559.6z"/>
								</g>
							</g>
						</g>
					</g>
				</g>
			</g>
			<g>
				<g>
					<g>
						<g transform="matrix(1,0,0,1,-2136.56,-973.343)">
							<g transform="matrix(0.746669,0,0,0.746669,1490.58,432.701)">
								<g id="Full-logo_00000055704650585606280740000012480460034820813454_">
									<path id="Top_00000004535910374920306110000015943673591177412231_" class="st1" d="M2792.3,538.1
										c-100.5-52.7-217.3-52.7-317.9,0c-468.7,245.6-1836.5,962.5-2226,1166.7c-64,33.5-104.7,104.3-104.7,181.9v533.9
										c0,0,1724-559.9,2302.7-747.9c122-39.6,251.9-39.6,373.8,0c578.8,188,2302.7,747.9,2302.7,747.9v-533.9
										c0-77.7-40.7-148.4-104.6-181.9C4628.8,1500.7,3261,783.8,2792.3,538.1z"/>
								</g>
							</g>
						</g>
					</g>
				</g>
			</g>
		</g>
	</g>
</g>
</svg>
