<?xml version="1.0" encoding="utf-8"?>
<!-- Generator: Adobe Illustrator 27.2.0, SVG Export Plug-In . SVG Version: 6.00 Build 0)  -->
<svg version="1.1" id="Livello_1" xmlns="http://www.w3.org/2000/svg" xmlns:xlink="http://www.w3.org/1999/xlink" x="0px" y="0px"
	 viewBox="0 0 841.9 1190.6" style="enable-background:new 0 0 841.9 1190.6;" xml:space="preserve">
<style type="text/css">
	.st0{clip-path:url(#SVGID_00000016795712654202542850000004479173672977719963_);}
	.st1{fill:none;stroke:#000000;stroke-width:1.4933;stroke-miterlimit:7.4667;}
</style>
<g>
	<g>
		<defs>
			<rect id="SVGID_1_" width="841.9" height="1190.6"/>
		</defs>
		<clipPath id="SVGID_00000080188274920267899500000014036727210569344401_">
			<use xlink:href="#SVGID_1_"  style="overflow:visible;"/>
		</clipPath>
		<g style="clip-path:url(#SVGID_00000080188274920267899500000014036727210569344401_);">
			<g>
				<g>
					<g>
						<g transform="matrix(1,0,0,1,-2136.56,-973.343)">
							<g transform="matrix(0.746669,0,0,0.746669,1490.58,432.701)">
								<g id="Full-logo_00000024702110814392746330000005812411547877164931_">
									<path id="Top_00000027581902343715334050000007296781826551067801_" class="st1" d="M-23842.2,2311.9
										c15257-20.4,33004.8-20.4,48276.7,0c71184.6,94.9,278922.2,371.9,338086.2,450.8c9723.8,13,15898.2,40.3,15898.2,70.3
										v206.3c0,0-261830.6-216.3-349734-289c-18523.1-15.3-38254.5-15.3-56777.6,0c-87903.4,72.6-349734,289-349734,289V2833
										c0-30,6180.3-57.3,15893.9-70.3C-302764.4,2683.8-95026.9,2406.8-23842.2,2311.9z"/>
								</g>
							</g>
						</g>
					</g>
				</g>
			</g>
			<g>
				<g>
					<g>
						<g transform="matrix(1,0,0,1,-2136.56,-973.343)">
							<g transform="matrix(0.746669,0,0,0.746669,1490.58,432.701)">
								<g id="Full-logo_00000097460167026906438980000011371129448213029797_">
									<path id="Top_00000118398042345905717000000006548090148917496237_" class="st1" d="M-19171.4,2288.5
										c12304.1-20.8,26616.7-20.8,38932.8,0c57407,96.8,224937.2,379.5,272650.2,460c7841.8,13.2,12821.1,41.1,12821.1,71.7
										v210.5c0,0-211153.7-220.8-282043.5-294.9c-14938-15.6-30850.4-15.6-45788.4,0
										c-70889.8,74.1-282043.5,294.9-282043.5,294.9v-210.5c0-30.6,4984.2-58.5,12817.6-71.7
										C-244108.7,2668-76578.4,2385.4-19171.4,2288.5z"/>
								</g>
							</g>
						</g>
					</g>
				</g>
			</g>
			<g>
				<g>
					<g>
						<g transform="matrix(1,0,0,1,-2136.56,-973.343)">
							<g transform="matrix(0.746669,0,0,0.746669,1490.58,432.701)">
								<g id="Full-logo_00000104705387738976746740000001171124089233434499_">
									<path id="Top_00000182518060138620251210000015332437607435887279_" class="st1" d="M-15404.6,2264.7
										c9922.6-21.2,21465.1-21.2,31397.4,0c46295.9,98.8,181401,387.3,219879.2,469.4c6324,13.5,10339.6,42,10339.6,73.2v214.8
										c0,0-170285.2-225.3-227454.5-300.9c-12046.8-15.9-24879.4-15.9-36926.1,0c-57169.2,75.6-227454.5,300.9-227454.5,300.9
										v-214.8c0-31.2,4019.5-59.7,10336.8-73.2C-196805.6,2652-61700.6,2363.5-15404.6,2264.7z"/>
								</g>
							</g>
						</g>
					</g>
				</g>
			</g>
			<g>
				<g>
					<g>
						<g transform="matrix(1,0,0,1,-2136.56,-973.343)">
							<g transform="matrix(0.746669,0,0,0.746669,1490.58,432.701)">
								<g id="Full-logo_00000040576177962424823280000018067467490877627049_">
									<path id="Top_00000014618324986492072910000006433470030451761028_" class="st1" d="M-12366.9,2240.4
										c8002.1-21.6,17310.6-21.6,25320.5,0c37335.4,100.8,146291.1,395.2,177321.9,479c5100,13.8,8338.4,42.8,8338.4,74.7v219.2
										c0,0-137326.8-229.9-183431-307c-9715.1-16.3-20064-16.3-29779.1,0c-46104.2,77.2-183431,307-183431,307v-219.2
										c0-31.9,3241.5-60.9,8336.1-74.7C-158658,2635.6-49702.3,2341.2-12366.9,2240.4z"/>
								</g>
							</g>
						</g>
					</g>
				</g>
			</g>
			<g>
				<g>
					<g>
						<g transform="matrix(1,0,0,1,-2136.56,-973.343)">
							<g transform="matrix(0.746669,0,0,0.746669,1490.58,432.701)">
								<g id="Full-logo_00000079444085097020359210000013334580950610824891_">
									<path id="Top_00000017505850388548280940000007815328830255926685_" class="st1" d="M-9917.1,2215.6
										c6453.3-22.1,13960.1-22.1,20419.8,0c30109.2,102.9,117976.7,403.2,143001.5,488.8c4112.9,14,6724.5,43.7,6724.5,76.2
										v223.7c0,0-110747.4-234.6-147928.2-313.3c-7834.8-16.6-16180.7-16.6-24015.4,0
										c-37180.8,78.8-147928.2,313.3-147928.2,313.3v-223.7c0-32.5,2614.1-62.2,6722.7-76.2
										C-127893.8,2618.8-40026.3,2318.5-9917.1,2215.6z"/>
								</g>
							</g>
						</g>
					</g>
				</g>
			</g>
			<g>
				<g>
					<g>
						<g transform="matrix(1,0,0,1,-2136.56,-973.343)">
							<g transform="matrix(0.746669,0,0,0.746669,1490.58,432.701)">
								<g id="Full-logo_00000151517179456156981450000015029405930871404684_">
									<path id="Top_00000092429479270318399530000006746256976579717275_" class="st1" d="M-7941.5,2190.3
										c5204.3-22.5,11258.2-22.5,16467.6,0c24281.6,105,95142.5,411.4,115323.8,498.7c3316.9,14.3,5423,44.6,5423,77.8V2995
										c0,0-89312.4-239.3-119297-319.7c-6318.4-16.9-13048.9-16.9-19367.3,0c-29984.5,80.4-119297,319.7-119297,319.7v-228.2
										c0-33.2,2108.2-63.4,5421.5-77.8C-103084,2601.8-32223.1,2295.3-7941.5,2190.3z"/>
								</g>
							</g>
						</g>
					</g>
				</g>
			</g>
			<g>
				<g>
					<g>
						<g transform="matrix(1,0,0,1,-2136.56,-973.343)">
							<g transform="matrix(0.746669,0,0,0.746669,1490.58,432.701)">
								<g id="Full-logo_00000132810702676804052020000017188593966613340302_">
									<path id="Top_00000139976300222210759160000006876893365692168854_" class="st1" d="M-6348.2,2164.5
										c4197-23,9079.2-23,13280.3,0c19582,107.1,76727.8,419.8,93003.1,508.9c2674.9,14.6,4373.4,45.5,4373.4,79.4v232.9
										c0,0-72026.2-244.2-96207.2-326.2c-5095.5-17.3-10523.3-17.3-15618.8,0c-24181.1,82-96207.2,326.2-96207.2,326.2v-232.9
										c0-33.9,1700.1-64.7,4372.2-79.4C-83076.1,2584.3-25930.2,2271.6-6348.2,2164.5z"/>
								</g>
							</g>
						</g>
					</g>
				</g>
			</g>
			<g>
				<g>
					<g>
						<g transform="matrix(1,0,0,1,-2136.56,-973.343)">
							<g transform="matrix(0.746669,0,0,0.746669,1490.58,432.701)">
								<g id="Full-logo_00000146457300783837042030000013404259987754912671_">
									<path id="Top_00000170970602824686406700000014977205369091216542_" class="st1" d="M-5063.3,2138.1
										c3384.7-23.4,7321.9-23.4,10709.9,0c15791.9,109.3,61877.3,428.4,75002.5,519.3c2157.2,14.9,3526.9,46.4,3526.9,81V2976
										c0,0-58085.6-249.2-77586.5-332.9c-4109.2-17.6-8486.5-17.6-12595.8,0c-19500.9,83.7-77586.5,332.9-77586.5,332.9v-237.6
										c0-34.6,1371.1-66.1,3526-81C-66940.6,2566.6-20855.2,2247.5-5063.3,2138.1z"/>
								</g>
							</g>
						</g>
					</g>
				</g>
			</g>
			<g>
				<g>
					<g>
						<g transform="matrix(1,0,0,1,-2136.56,-973.343)">
							<g transform="matrix(0.746669,0,0,0.746669,1490.58,432.701)">
								<g id="Full-logo_00000046318687686461041630000002601956467749764260_">
									<path id="Top_00000150807551363769367720000003439444862506318500_" class="st1" d="M-4027.1,2111.3
										c2729.6-23.9,5904.8-23.9,8637,0c12735.4,111.6,49901,437.2,60485.9,529.9c1739.6,15.2,2844.3,47.4,2844.3,82.6v242.5
										c0,0-46843.2-254.3-62569.7-339.7c-3313.9-18-6844-18-10157.9,0c-15726.5,85.4-62569.7,339.7-62569.7,339.7v-242.5
										c0-35.3,1105.7-67.4,2843.5-82.6C-53928.2,2548.4-16762.5,2222.8-4027.1,2111.3z"/>
								</g>
							</g>
						</g>
					</g>
				</g>
			</g>
			<g>
				<g>
					<g>
						<g transform="matrix(1,0,0,1,-2136.56,-973.343)">
							<g transform="matrix(0.746669,0,0,0.746669,1490.58,432.701)">
								<g id="Full-logo_00000103982574807962681470000014066805501205618086_">
									<path id="Top_00000070834306482500279590000011828542595933669549_" class="st1" d="M-3191.5,2083.8
										c2201.3-24.4,4761.9-24.4,6965.3,0c10270.5,113.8,40242.8,446.1,48778.9,540.7c1402.9,15.5,2293.8,48.3,2293.8,84.3v247.4
										c0,0-37776.8-259.5-50459.5-346.6c-2672.5-18.4-5519.3-18.4-8191.9,0c-12682.7,87.1-50459.5,346.6-50459.5,346.6v-247.4
										c0-36,891.7-68.8,2293.2-84.3C-43434.3,2529.9-13462,2197.7-3191.5,2083.8z"/>
								</g>
							</g>
						</g>
					</g>
				</g>
			</g>
			<g>
				<g>
					<g>
						<g transform="matrix(1,0,0,1,-2136.56,-973.343)">
							<g transform="matrix(0.746669,0,0,0.746669,1490.58,432.701)">
								<g id="Full-logo_00000132049049070117453270000002811149355440604605_">
									<path id="Top_00000167369626002394314010000013423429683966729625_" class="st1" d="M-2517.6,2055.8
										c1775.2-24.9,3840.3-24.9,5617.2,0c8282.7,116.2,32453.8,455.2,39337.8,551.7c1131.4,15.9,1849.8,49.3,1849.8,86V2946
										c0,0-30465.2-264.8-40693.1-353.7c-2155.2-18.7-4451.1-18.7-6606.3,0c-10228,88.9-40693.1,353.7-40693.1,353.7v-252.5
										c0-36.7,719.1-70.2,1849.3-86C-34971.4,2511-10800.2,2172-2517.6,2055.8z"/>
								</g>
							</g>
						</g>
					</g>
				</g>
			</g>
			<g>
				<g>
					<g>
						<g transform="matrix(1,0,0,1,-2136.56,-973.343)">
							<g transform="matrix(0.746669,0,0,0.746669,1490.58,432.701)">
								<g id="Full-logo_00000174589776095016677620000015668476536737096346_">
									<path id="Top_00000033368963155939297200000012102839942812222900_" class="st1" d="M-1974.1,2027.3
										c1431.6-25.4,3097-25.4,4530,0c6679.6,118.5,26172.5,464.5,31724.1,563c912.4,16.2,1491.8,50.3,1491.8,87.8v257.6
										c0,0-24568.7-270.2-32817-360.9c-1738.1-19.1-3589.6-19.1-5327.7,0c-8248.3,90.7-32817,360.9-32817,360.9v-257.6
										c0-37.5,579.9-71.6,1491.4-87.8C-28146.6,2491.7-8653.7,2145.8-1974.1,2027.3z"/>
								</g>
							</g>
						</g>
					</g>
				</g>
			</g>
			<g>
				<g>
					<g>
						<g transform="matrix(1,0,0,1,-2136.56,-973.343)">
							<g transform="matrix(0.746669,0,0,0.746669,1490.58,432.701)">
								<g id="Full-logo_00000114056733597794770910000001153473226884491673_">
									<path id="Top_00000049190511453660748820000009745858032761141648_" class="st1" d="M-1535.8,1998.1
										c1154.5-25.9,2497.6-25.9,3653.2,0C7504.1,2119,23224.2,2472,27701.3,2572.6c735.8,16.5,1203.1,51.3,1203.1,89.6v262.9
										c0,0-19813.5-275.7-26465.3-368.3c-1401.7-19.5-2894.8-19.5-4296.5,0c-6651.9,92.6-26465.3,368.3-26465.3,368.3v-262.9
										c0-38.2,467.7-73.1,1202.7-89.6C-22642.7,2472.1-6922.6,2119.1-1535.8,1998.1z"/>
								</g>
							</g>
						</g>
					</g>
				</g>
			</g>
			<g>
				<g>
					<g>
						<g transform="matrix(1,0,0,1,-2136.56,-973.343)">
							<g transform="matrix(0.746669,0,0,0.746669,1490.58,432.701)">
								<g id="Full-logo_00000057132395010784928510000016861055211301965187_">
									<path id="Top_00000176020052065891274530000015578801205080315804_" class="st1" d="M-1182.4,1968.4
										c931.1-26.5,2014.2-26.5,2946.2,0C6107.9,2091.8,18785.4,2452,22396,2554.6c593.4,16.8,970.2,52.4,970.2,91.4v268.2
										c0,0-15978.6-281.3-21343-375.8c-1130.4-19.9-2334.5-19.9-3464.9,0c-5364.4,94.5-21343,375.8-21343,375.8V2646
										c0-39,377.2-74.6,969.9-91.4C-18204,2452-5526.5,2091.8-1182.4,1968.4z"/>
								</g>
							</g>
						</g>
					</g>
				</g>
			</g>
			<g>
				<g>
					<g>
						<g transform="matrix(1,0,0,1,-2136.56,-973.343)">
							<g transform="matrix(0.746669,0,0,0.746669,1490.58,432.701)">
								<g id="Full-logo_00000161615392147837713840000013057095725185607584_">
									<path id="Top_00000119823387205819111550000005616907462110400939_" class="st1" d="M-897.3,1938
										c750.9-27,1624.3-27,2375.9,0c3503.3,125.9,13727.1,493.5,16638.9,598.2c478.6,17.2,782.4,53.5,782.4,93.3v273.7
										c0,0-12886-287.1-17212.1-383.5c-911.6-20.3-1882.7-20.3-2794.3,0c-4326.2,96.4-17212.1,383.5-17212.1,383.5v-273.7
										c0-39.8,304.2-76.1,782.2-93.3C-14624.5,2431.5-4400.7,2064-897.3,1938z"/>
								</g>
							</g>
						</g>
					</g>
				</g>
			</g>
			<g>
				<g>
					<g>
						<g transform="matrix(1,0,0,1,-2136.56,-973.343)">
							<g transform="matrix(0.746669,0,0,0.746669,1490.58,432.701)">
								<g id="Full-logo_00000013168767178196924060000010017960482433425331_">
									<path id="Top_00000081613649094886484440000018330282648047774344_" class="st1" d="M-667.5,1907.1
										c605.5-27.6,1309.9-27.6,1916.1,0c2825.3,128.5,11070.3,503.6,13418.4,610.4c385.9,17.5,631,54.6,631,95.2V2892
										c0,0-10391.9-292.9-13880.7-391.3c-735.2-20.7-1518.3-20.7-2253.5,0C-4325,2599-14716.9,2892-14716.9,2892v-279.3
										c0-40.6,245.3-77.6,630.8-95.2C-11737.7,2410.6-3492.7,2035.6-667.5,1907.1z"/>
								</g>
							</g>
						</g>
					</g>
				</g>
			</g>
			<g>
				<g>
					<g>
						<g transform="matrix(1,0,0,1,-2136.56,-973.343)">
							<g transform="matrix(0.746669,0,0,0.746669,1490.58,432.701)">
								<g id="Full-logo_00000032621807601122979710000006396035135445930119_">
									<path id="Top_00000023991453253125824780000000308519870283584144_" class="st1" d="M-482.1,1875.5
										c488.3-28.1,1056.4-28.1,1545.2,0c2278.4,131.1,8927.6,513.8,10821.3,622.8c311.2,17.9,508.9,55.7,508.9,97.1v285
										c0,0-8380.6-298.9-11194.1-399.3c-592.9-21.1-1224.4-21.1-1817.3,0c-2813.6,100.4-11194.1,399.3-11194.1,399.3v-285
										c0-41.5,197.8-79.2,508.7-97.1C-9409.7,2389.3-2760.5,2006.6-482.1,1875.5z"/>
								</g>
							</g>
						</g>
					</g>
				</g>
			</g>
			<g>
				<g>
					<g>
						<g transform="matrix(1,0,0,1,-2136.56,-973.343)">
							<g transform="matrix(0.746669,0,0,0.746669,1490.58,432.701)">
								<g id="Full-logo_00000103967820261031084200000016437458545509738658_">
									<path id="Top_00000030475227313666744360000007301540785718681015_" class="st1" d="M-332.6,1843.2
										c393.8-28.7,851.9-28.7,1246.1,0C2751,1977,8113.3,2367.6,9640.4,2478.8c251,18.3,410.4,56.8,410.4,99.1v290.8
										c0,0-6758.5-305-9027.5-407.4c-478.1-21.6-987.4-21.6-1465.6,0c-2269,102.4-9027.5,407.4-9027.5,407.4v-290.8
										c0-42.3,159.5-80.8,410.3-99.1C-7532.3,2367.6-2170,1977-332.6,1843.2z"/>
								</g>
							</g>
						</g>
					</g>
				</g>
			</g>
			<g>
				<g>
					<g>
						<g transform="matrix(1,0,0,1,-2136.56,-973.343)">
							<g transform="matrix(0.746669,0,0,0.746669,1490.58,432.701)">
								<g id="Full-logo_00000133506849692604033020000012320795384903440553_">
									<path id="Top_00000011722811283538425350000005795356571418335872_" class="st1" d="M-212,1810.3
										c317.6-29.3,687-29.3,1005,0c1481.8,136.5,5806.2,535,7037.8,648.5c202.4,18.6,330.9,58,330.9,101.1v296.8
										c0,0-5450.4-311.2-7280.3-415.7c-385.6-22-796.3-22-1181.9,0c-1829.8,104.5-7280.3,415.7-7280.3,415.7V2560
										c0-43.2,128.7-82.5,330.9-101.1C-6018.2,2345.4-1693.8,1946.9-212,1810.3z"/>
								</g>
							</g>
						</g>
					</g>
				</g>
			</g>
			<g>
				<g>
					<g>
						<g transform="matrix(1,0,0,1,-2136.56,-973.343)">
							<g transform="matrix(0.746669,0,0,0.746669,1490.58,432.701)">
								<g id="Full-logo_00000107563069712165106520000003381183919839803804_">
									<path id="Top_00000072276124359157146700000002470353202329151114_" class="st1" d="M-114.8,1776.8
										c256.1-29.9,554.1-29.9,810.4,0c1195,139.3,4682.4,545.9,5675.6,661.8c163.2,19,266.9,59.1,266.9,103.2v302.8
										c0,0-4395.5-317.6-5871.2-424.2c-311-22.5-642.2-22.5-953.2,0C-1662,2527-6057.5,2844.6-6057.5,2844.6v-302.8
										c0-44,103.8-84.2,266.8-103.2C-4797.2,2322.7-1309.8,1916.1-114.8,1776.8z"/>
								</g>
							</g>
						</g>
					</g>
				</g>
			</g>
			<g>
				<g>
					<g>
						<g transform="matrix(1,0,0,1,-2136.56,-973.343)">
							<g transform="matrix(0.746669,0,0,0.746669,1490.58,432.701)">
								<g id="Full-logo_00000025409094301896280270000009284608242977346727_">
									<path id="Top_00000003795461089111698000000012758129772260769689_" class="st1" d="M-36.4,1742.5
										c206.6-30.5,446.8-30.5,653.6,0c963.7,142.2,3776.2,557.1,4577.1,675.3c131.6,19.4,215.2,60.4,215.2,105.3v309
										c0,0-3544.8-324.1-4734.8-432.9c-250.8-22.9-517.9-22.9-768.7,0c-1190,108.8-4734.7,432.9-4734.7,432.9v-309
										c0-44.9,83.7-85.9,215.2-105.3C-3812.5,2299.6-1000.1,1884.7-36.4,1742.5z"/>
								</g>
							</g>
						</g>
					</g>
				</g>
			</g>
			<g>
				<g>
					<g>
						<g transform="matrix(1,0,0,1,-2136.56,-973.343)">
							<g transform="matrix(0.746669,0,0,0.746669,1490.58,432.701)">
								<g id="Full-logo_00000111902059219888398110000000667971102108790408_">
									<path id="Top_00000129177293918115428040000000168155864912794518_" class="st1" d="M26.9,1707.5
										c166.6-31.1,360.3-31.1,527.1,0c777.2,145.1,3045.3,568.5,3691.2,689.1c106.2,19.8,173.6,61.6,173.6,107.4v315.3
										c0,0-2858.7-330.7-3818.4-441.7c-202.2-23.4-417.7-23.4-619.9,0c-959.7,111-3818.4,441.7-3818.4,441.7V2504
										c0-45.9,67.5-87.6,173.5-107.4C-3018.4,2276-750.3,1852.6,26.9,1707.5z"/>
								</g>
							</g>
						</g>
					</g>
				</g>
			</g>
			<g>
				<g>
					<g>
						<g transform="matrix(1,0,0,1,-2136.56,-973.343)">
							<g transform="matrix(0.746669,0,0,0.746669,1490.58,432.701)">
								<g id="Full-logo_00000060011165244419125580000017554172633747750585_">
									<path id="Top_00000013910311563338746240000008744994479731434625_" class="st1" d="M77.9,1671.9
										c134.3-31.7,290.6-31.7,425.1,0c626.8,148,2455.9,580.1,2976.8,703.1c85.6,20.2,140,62.8,140,109.6v321.7
										c0,0-2305.4-337.4-3079.4-450.7c-163.1-23.9-336.8-23.9-499.9,0c-774,113.3-3079.4,450.7-3079.4,450.7v-321.7
										c0-46.8,54.4-89.4,139.9-109.6C-2378,2251.9-548.9,1819.9,77.9,1671.9z"/>
								</g>
							</g>
						</g>
					</g>
				</g>
			</g>
			<g>
				<g>
					<g>
						<g transform="matrix(1,0,0,1,-2136.56,-973.343)">
							<g transform="matrix(0.746669,0,0,0.746669,1490.58,432.701)">
								<g id="Full-logo_00000102532567618085363430000002877583867594622848_">
									<path id="Top_00000024681114591140075250000008413175495180072880_" class="st1" d="M119,1635.5
										c108.3-32.4,234.4-32.4,342.8,0c505.5,151,1980.5,591.9,2400.6,717.5c69,20.6,112.9,64.1,112.9,111.9v328.3
										c0,0-1859.2-344.3-2483.4-459.9c-131.5-24.4-271.6-24.4-403.2,0c-624.2,115.6-2483.4,459.9-2483.4,459.9v-328.3
										c0-47.8,43.9-91.3,112.9-111.9C-1861.6,2227.4-386.5,1786.5,119,1635.5z"/>
								</g>
							</g>
						</g>
					</g>
				</g>
			</g>
			<g>
				<g>
					<g>
						<g transform="matrix(1,0,0,1,-2136.56,-973.343)">
							<g transform="matrix(0.746669,0,0,0.746669,1490.58,432.701)">
								<g id="Full-logo_00000176026559093070071840000013008096180044105127_">
									<path id="Top_00000089534865545604666950000009006365812943850165_" class="st1" d="M152.2,1598.3
										c87.4-33.1,189-33.1,276.5,0c407.6,154.1,1597.2,604,1936,732.1c55.7,21,91,65.4,91,114.2v335
										c0,0-1499.3-351.3-2002.7-469.3c-106.1-24.9-219.1-24.9-325.1,0c-503.4,118-2002.7,469.3-2002.7,469.3v-335
										c0-48.7,35.4-93.1,91-114.2C-1445.1,2202.3-255.5,1752.5,152.2,1598.3z"/>
								</g>
							</g>
						</g>
					</g>
				</g>
			</g>
			<g>
				<g>
					<g>
						<g transform="matrix(1,0,0,1,-2136.56,-973.343)">
							<g transform="matrix(0.746669,0,0,0.746669,1490.58,432.701)">
								<g id="Full-logo_00000026863872421131118590000014706840060063947961_">
									<path id="Top_00000095340924178993540240000000978128059552437663_" class="st1" d="M178.9,1560.4
										c70.5-33.7,152.4-33.7,222.9,0c328.7,157.3,1288.1,616.3,1561.3,747c44.9,21.5,73.4,66.8,73.4,116.5v341.8
										c0,0-1209.1-358.5-1615.1-478.9c-85.5-25.4-176.7-25.4-262.2,0c-405.9,120.4-1615.1,478.9-1615.1,478.9V2424
										c0-49.7,28.5-95,73.4-116.5C-1109.2,2176.7-149.8,1717.7,178.9,1560.4z"/>
								</g>
							</g>
						</g>
					</g>
				</g>
			</g>
		</g>
	</g>
</g>
</svg>
