<?xml version="1.0" encoding="UTF-8" standalone="no"?>
<!DOCTYPE svg PUBLIC "-//W3C//DTD SVG 1.1//EN" "http://www.w3.org/Graphics/SVG/1.1/DTD/svg11.dtd">
<svg width="100%" height="100%" viewBox="0 0 2092 700" version="1.1" xmlns="http://www.w3.org/2000/svg" xmlns:xlink="http://www.w3.org/1999/xlink" xml:space="preserve" xmlns:serif="http://www.serif.com/" style="fill-rule:evenodd;clip-rule:evenodd;stroke-linejoin:round;stroke-miterlimit:2;">
    <g transform="matrix(1,0,0,1,17.0003,-70.7715)">
        <path d="M415.389,475.74C421.214,475.74 425.451,477.329 428.628,481.036C431.805,485.272 433.394,489.508 433.394,494.274C433.394,499.04 431.805,502.747 428.628,505.924C425.451,509.101 421.214,510.69 415.389,510.69L192.451,510.69C185.567,510.69 179.742,508.572 174.976,503.806C170.21,499.04 168.092,493.745 168.092,487.39L168.092,196.67C168.092,190.315 170.21,185.02 174.976,180.254C179.742,176.018 185.567,173.899 192.451,173.899L415.919,173.899C421.214,173.899 425.451,175.488 428.098,178.665C430.746,181.843 432.335,185.549 432.335,190.315C432.335,195.081 430.746,198.788 428.098,202.495C424.921,206.202 420.685,207.79 415.389,207.79L206.219,207.79L206.219,326.938L405.328,326.938C410.094,326.938 414.33,328.527 417.508,331.704C420.155,335.411 421.744,339.647 421.744,344.413C421.744,348.649 420.155,352.356 417.508,355.533C414.86,359.24 410.623,360.829 405.328,360.829L206.219,360.829L206.219,475.74L415.389,475.74Z" style="fill-rule:nonzero;"/>
    </g>
    <g transform="matrix(1,0,0,1,17.0003,-87.7165)">
        <path d="M507.531,509.631C507.531,514.396 505.942,518.633 502.235,522.34C498.528,526.046 493.762,527.635 488.467,527.635C482.642,527.635 478.406,526.046 474.699,522.34C470.992,518.633 468.874,514.396 468.874,509.631L468.874,191.904C468.874,187.138 470.992,182.901 474.699,179.194C478.406,175.488 482.642,173.899 488.467,173.899C493.762,173.899 498.528,175.488 502.235,179.194C505.942,182.901 507.531,187.138 507.531,191.904L507.531,509.631Z" style="fill-rule:nonzero;"/>
    </g>
    <g transform="matrix(1,0,0,1,17.0003,-1.4005)">
        <path d="M816.785,305.756C816.785,322.171 808.312,330.115 790.837,330.115L581.667,330.115C584.315,344.942 589.61,358.18 598.612,370.36C607.085,382.54 618.205,392.601 632.503,400.015C646.271,407.428 661.628,411.135 678.574,411.135C706.11,411.135 729.41,403.721 749.003,388.894C753.239,385.187 758.005,383.069 763.83,383.069C768.596,383.069 772.833,384.658 776.539,387.835C780.246,391.012 781.835,394.719 781.835,399.485C781.835,404.78 779.187,410.076 774.421,414.842C762.771,425.962 748.473,433.905 732.058,439.201C715.642,444.496 698.167,447.144 680.162,446.614C653.155,446.614 628.796,440.26 608.144,428.08C586.962,415.901 570.546,399.485 559.426,377.774C548.305,356.592 542.48,332.762 542.48,306.285C542.48,277.69 548.835,252.801 561.544,232.149C574.253,211.497 591.199,195.61 611.851,184.49C632.503,173.369 654.214,168.074 677.514,168.074C702.403,168.074 725.173,172.84 746.355,182.901C767.008,192.962 783.953,207.79 797.192,228.442C809.901,249.094 816.255,275.042 816.785,305.756ZM779.717,297.812C778.128,277.69 772.303,260.744 762.242,246.447C752.18,232.149 740.001,221.558 725.703,214.674C710.876,207.79 695.519,204.083 680.162,204.083C653.685,204.083 630.914,212.026 611.851,227.912C592.787,244.328 582.196,267.628 580.078,297.812L779.717,297.812Z" style="fill-rule:nonzero;"/>
    </g>
    <g transform="matrix(1,0,0,1,17.0003,-1.9305)">
        <path d="M1047.13,234.797C1037.6,223.677 1026.48,215.733 1014.3,210.438C1002.12,205.672 988.885,203.024 975.117,203.024C956.582,203.024 940.167,207.79 925.869,216.792C911.571,225.795 899.921,238.504 891.978,254.39C884.035,270.806 879.798,288.811 879.798,308.404C879.798,327.467 884.035,344.942 891.978,360.299C899.921,376.185 911.571,388.895 926.398,397.897C940.696,407.429 957.642,412.195 976.705,412.195C991.532,412.195 1005.83,409.017 1019.6,403.192C1032.84,397.367 1043.96,388.895 1052.96,376.715C1056.14,371.949 1060.37,369.831 1065.67,369.831C1070.43,369.831 1075.2,371.42 1078.91,374.597C1082.61,378.304 1084.73,382.54 1084.73,387.306C1084.73,391.542 1083.14,395.779 1079.44,399.485C1067.26,414.842 1051.9,426.492 1033.37,434.435C1014.83,442.908 995.769,447.144 976.176,447.144C950.228,447.144 926.928,440.79 906.276,428.61C885.623,416.431 869.737,399.485 858.617,378.304C846.967,357.122 841.142,333.292 841.142,307.345C841.142,286.692 845.908,266.04 854.91,244.858C863.912,223.677 878.21,205.672 898.862,190.845C919.514,176.017 945.992,168.604 978.823,168.604C997.887,168.604 1015.36,172.311 1030.72,179.195C1046.08,186.079 1060.9,197.729 1074.67,213.086C1077.32,215.733 1078.91,219.44 1078.91,223.677C1078.91,228.442 1076.79,232.149 1073.08,235.856C1069.38,239.563 1064.61,241.152 1059.84,241.152C1055.08,241.152 1050.84,239.033 1047.13,234.797Z" style="fill-rule:nonzero;"/>
    </g>
    <g transform="matrix(1,0,0,1,17.0003,-78.7145)">
        <path d="M1228.77,250.683C1234.59,250.683 1238.83,252.272 1242.01,255.449C1245.18,258.626 1246.77,262.333 1246.77,266.57C1246.77,271.336 1245.18,275.042 1242.01,278.22C1238.83,281.397 1234.59,282.986 1228.77,282.986L1171.05,282.986L1171.05,427.022C1171.05,445.556 1173.7,460.913 1179.52,472.033C1184.82,483.154 1195.41,488.979 1211.82,488.979C1215.53,488.979 1220.3,488.449 1225.59,486.86C1230.36,485.801 1234.06,484.742 1236.71,483.154C1240.42,481.035 1244.13,479.976 1247.3,479.976C1252.07,479.976 1255.78,481.565 1259.48,485.272C1262.66,488.979 1264.25,492.685 1264.25,497.451C1264.25,504.335 1260.54,510.16 1252.6,514.926C1242.01,520.751 1228.24,523.928 1211.82,523.928C1159.4,523.928 1132.92,491.626 1132.92,427.022L1132.92,282.986L1097.97,282.986C1092.15,282.986 1087.91,281.397 1084.73,278.22C1081.55,275.042 1079.97,271.336 1079.97,267.099C1079.97,262.863 1081.55,259.156 1084.73,255.449C1087.91,252.272 1092.15,250.683 1097.97,250.683L1132.92,250.683L1132.92,187.667C1132.92,181.842 1135.04,177.077 1138.75,173.37C1142.45,170.192 1146.69,168.604 1151.98,168.604C1157.28,168.604 1162.05,170.192 1165.75,173.37C1168.93,177.077 1171.05,181.842 1171.05,187.667L1171.05,250.683L1228.77,250.683Z" style="fill-rule:nonzero;"/>
    </g>
    <g transform="matrix(1,0,0,1,17.0003,-7.2255)">
        <path d="M1323.56,218.91C1337.86,188.726 1364.33,173.899 1402.46,173.899C1408.81,173.899 1413.58,175.487 1417.29,178.665C1420.99,181.842 1422.58,186.608 1422.58,192.433C1422.58,198.258 1420.99,202.494 1417.29,205.672C1413.58,208.849 1408.81,210.437 1402.46,210.437C1376.51,210.437 1357.45,219.44 1344.21,237.444C1330.97,255.449 1324.62,278.749 1324.62,307.344L1324.62,428.61C1324.62,433.905 1323.03,438.142 1319.32,441.849C1315.61,445.555 1310.85,447.144 1305.55,447.144C1299.73,447.144 1294.96,445.555 1291.26,441.849C1287.55,438.671 1285.96,434.435 1285.96,428.61L1285.96,197.728C1285.96,191.903 1288.08,187.667 1292.31,183.96C1296.02,180.783 1300.79,179.194 1305.55,179.194C1310.32,179.194 1314.56,180.783 1318.26,183.96C1321.97,187.667 1323.56,191.903 1323.56,197.728L1323.56,218.91Z" style="fill-rule:nonzero;"/>
    </g>
    <g transform="matrix(1,0,0,1,17.0003,-1.9305)">
        <path d="M1553.91,447.144C1526.9,447.144 1502.54,440.79 1481.89,428.081C1460.71,415.372 1444.29,397.897 1433.17,376.185C1421.52,354.474 1415.7,330.645 1415.7,304.167C1415.7,278.749 1421.52,255.449 1433.7,234.797C1445.88,214.145 1462.3,198.258 1483.48,186.079C1504.13,174.429 1527.96,168.604 1553.91,168.604C1579.86,168.604 1603.69,174.958 1624.87,187.138C1646.05,199.317 1662.46,216.263 1674.64,237.445C1686.29,258.626 1692.12,281.926 1692.12,306.815C1692.12,333.292 1686.29,357.122 1674.64,378.304C1662.46,400.015 1646.05,416.431 1624.87,428.61C1603.69,440.79 1579.86,447.144 1553.91,447.144ZM1553.38,204.613C1535.9,204.613 1520.02,208.849 1505.19,216.263C1489.83,224.206 1477.65,236.386 1468.65,251.742C1459.65,267.629 1454.88,286.692 1454.88,308.404C1454.88,326.938 1459.12,344.413 1467.59,359.77C1475.54,375.656 1487.19,388.365 1502.54,396.838C1517.37,405.84 1534.32,410.606 1553.91,410.606C1572.97,410.606 1589.92,405.84 1605.27,396.308C1620.63,387.306 1632.28,374.597 1640.75,359.24C1649.23,343.883 1653.46,326.938 1653.46,309.463C1653.46,286.692 1648.7,267.629 1639.16,251.742C1629.63,235.856 1617.45,224.206 1602.1,216.263C1586.74,208.32 1570.85,204.613 1553.38,204.613Z" style="fill-rule:nonzero;"/>
    </g>
    <g transform="matrix(1,0,0,1,17.0003,-1.9305)">
        <path d="M1711.18,382.01C1710.65,380.951 1710.65,379.363 1710.65,377.245C1710.65,372.479 1712.77,368.242 1717.01,364.535C1720.72,361.358 1725.48,359.77 1730.78,359.77C1735.01,359.77 1738.72,360.829 1741.9,363.476C1745.07,366.124 1747.19,369.831 1748.25,375.126C1750.9,386.247 1760.43,395.249 1777.38,402.133C1794.32,409.017 1812.86,412.724 1833.51,412.724C1843.57,412.724 1855.22,411.135 1867.93,407.429C1880.64,403.722 1891.76,398.426 1901.29,391.013C1910.29,383.599 1915.06,374.067 1915.06,362.947C1915.06,352.356 1911.35,344.413 1903.94,339.117C1896.52,334.351 1887.52,330.645 1877.46,329.056C1867.4,327.467 1852.04,325.879 1831.92,324.29C1805.97,321.642 1784.79,318.995 1769.43,315.288C1754.08,312.111 1740.84,305.226 1729.72,294.636C1718.6,284.574 1713.3,269.217 1713.3,249.095C1713.3,231.62 1719.13,216.263 1730.78,204.083C1742.43,192.433 1757.25,182.902 1774.73,177.077C1792.2,171.252 1810.21,168.604 1828.74,168.604C1855.75,168.604 1879.58,172.311 1900.76,179.724C1921.94,187.138 1936.77,201.436 1944.71,222.617C1945.24,225.265 1945.77,227.383 1945.77,228.972C1945.77,234.267 1943.65,238.504 1939.42,242.211C1935.18,245.917 1930.42,247.506 1925.12,247.506C1917.18,247.506 1911.35,243.799 1908.7,236.386C1900.23,214.674 1873.75,203.554 1828.74,203.554C1810.21,203.554 1793.26,207.261 1776.85,215.204C1760.43,223.147 1751.96,234.797 1751.96,249.624C1751.96,259.156 1755.14,266.57 1761.49,271.336C1767.32,276.101 1775.26,279.808 1784.79,281.397C1793.79,282.986 1806.5,284.574 1822.92,285.633C1827.68,285.633 1830.86,285.633 1833.51,286.163C1859.99,288.811 1881.17,291.458 1897.05,295.165C1912.41,298.872 1926.18,305.756 1937.3,316.347C1947.89,326.938 1953.72,342.295 1953.72,362.947C1953.72,383.599 1947.36,400.015 1934.12,412.195C1920.88,424.904 1905.53,433.906 1886.99,439.201C1868.46,444.497 1850.98,447.144 1833.51,447.144C1805.44,447.144 1778.97,442.379 1754.61,432.317C1730.25,422.256 1715.95,405.84 1711.18,382.01Z" style="fill-rule:nonzero;"/>
    </g>
    <g transform="matrix(1,0,0,1,17.0003,466.887)">
        <path d="M1182.67,43.917C1190.04,43.917 1196.38,45.538 1201.83,48.633C1207.14,51.875 1211.12,56.296 1214.06,62.044C1216.86,67.791 1218.19,74.571 1218.19,82.086C1218.19,89.602 1216.86,96.382 1214.36,102.424C1211.71,108.466 1207.87,113.329 1203.01,116.719C1198,120.108 1192.25,121.877 1185.62,121.877C1181.05,121.877 1176.63,121.14 1172.5,119.519C1168.23,118.045 1164.55,115.835 1161.16,112.74C1161.16,117.898 1158.5,120.403 1153.2,120.403C1150.55,120.403 1148.48,119.666 1147.01,118.34C1145.39,117.014 1144.65,115.245 1144.65,112.887L1144.65,32.422C1144.65,29.917 1145.54,28.148 1147.16,26.822C1148.78,25.643 1150.69,25.053 1153.05,25.053C1155.26,25.053 1157.32,25.643 1158.95,26.822C1160.57,28.148 1161.45,29.917 1161.45,32.422L1161.3,52.907C1164.4,49.959 1167.94,47.749 1171.62,46.128C1175.3,44.654 1178.99,43.917 1182.67,43.917ZM1182.08,106.845C1187.83,106.845 1192.55,104.634 1196.08,100.066C1199.62,95.497 1201.39,89.602 1201.39,82.234C1201.39,75.307 1199.47,69.56 1195.79,65.286C1191.96,61.012 1186.95,58.949 1180.76,58.949C1176.63,58.949 1172.8,60.128 1169.26,62.191C1165.58,64.402 1162.92,67.497 1161.3,71.476L1161.16,93.581C1162.48,97.855 1164.99,101.097 1168.97,103.308C1172.8,105.666 1177.22,106.845 1182.08,106.845Z" style="fill-rule:nonzero;"/>
    </g>
    <g transform="matrix(1,0,0,1,17.0003,512.278)">
        <path d="M1286.13,0C1288.34,0 1290.25,0.884 1291.88,2.358C1293.5,3.979 1294.23,6.042 1294.23,8.252C1294.23,8.989 1294.09,10.021 1293.79,11.053L1250.76,95.497C1249.73,97.413 1248.55,98.886 1247.07,99.918C1245.45,100.95 1243.83,101.539 1242.21,101.539C1240.15,101.539 1238.38,100.802 1236.76,99.181C1235.14,97.56 1234.4,95.791 1234.4,93.581C1234.4,92.549 1234.7,91.223 1235.28,89.897L1246.48,67.791L1217.45,11.642C1217.01,10.316 1216.72,9.284 1216.72,8.4C1216.72,6.189 1217.6,4.126 1219.37,2.505C1220.99,0.884 1222.91,0 1225.12,0C1226.74,0 1228.21,0.442 1229.68,1.473C1231.01,2.505 1232.19,3.684 1232.93,5.305L1255.62,49.664L1278.32,5.158C1279.05,3.537 1280.09,2.358 1281.41,1.326C1282.74,0.442 1284.36,0 1286.13,0Z" style="fill-rule:nonzero;"/>
    </g>
    <g transform="matrix(1,0,0,1,17.0003,466.888)">
        <path d="M1400.93,105.666C1403.44,105.666 1405.35,106.403 1406.83,108.024C1408.3,109.645 1409.04,111.413 1409.04,113.329C1409.04,115.245 1408.3,117.014 1406.97,118.34C1405.5,119.666 1403.44,120.403 1400.93,120.403L1342.42,120.403C1339.62,120.403 1337.27,119.519 1335.5,117.75C1333.58,116.129 1332.7,114.066 1332.7,111.561L1332.7,35.222C1332.7,32.717 1333.58,30.653 1335.5,29.032C1337.27,27.411 1339.62,26.527 1342.42,26.527L1400.93,26.527C1403.44,26.527 1405.5,27.264 1406.83,28.59C1408.15,29.917 1408.74,31.685 1408.74,33.601C1408.74,35.517 1408,37.138 1406.68,38.612C1405.2,40.233 1403.29,40.97 1400.93,40.97L1349.5,40.97L1349.5,66.76L1398.28,66.76C1400.64,66.76 1402.55,67.497 1403.88,68.97C1405.2,70.444 1405.94,72.212 1405.94,74.128C1405.94,76.044 1405.35,77.813 1404.03,79.139C1402.7,80.465 1400.78,81.202 1398.28,81.202L1349.5,81.202L1349.5,105.666L1400.93,105.666Z" style="fill-rule:nonzero;"/>
    </g>
    <g transform="matrix(1,0,0,1,17.0003,465.414)">
        <path d="M1432.32,114.508C1432.32,116.424 1431.44,118.193 1429.96,119.667C1428.34,121.14 1426.28,121.877 1423.92,121.877C1421.42,121.877 1419.5,121.14 1417.88,119.667C1416.26,118.34 1415.52,116.572 1415.52,114.508L1415.52,33.896C1415.52,31.833 1416.26,30.064 1417.88,28.591C1419.5,27.264 1421.42,26.527 1423.92,26.527C1426.28,26.527 1428.34,27.264 1429.96,28.738C1431.44,30.212 1432.32,31.98 1432.32,33.896L1432.32,114.508Z" style="fill-rule:nonzero;"/>
    </g>
    <g transform="matrix(1,0,0,1,17.0003,485.899)">
        <path d="M1475.8,88.276C1482.13,88.276 1487.44,86.507 1491.86,83.118C1494.07,81.202 1496.28,80.318 1498.49,80.318C1500.55,80.318 1502.32,81.055 1503.8,82.528C1505.12,84.002 1505.86,85.771 1505.86,87.686C1505.86,89.897 1504.83,92.108 1502.91,94.023C1499.67,97.118 1495.69,99.476 1491.12,100.803C1486.41,102.276 1481.4,103.013 1476.24,102.866C1468.57,102.866 1461.8,101.245 1455.9,98.15C1450.01,95.055 1445.44,90.634 1442.19,84.886C1438.95,79.286 1437.33,72.802 1437.33,65.581C1437.33,57.475 1438.95,50.401 1442.05,44.212C1445.14,38.169 1449.71,33.306 1455.46,29.917C1461.21,26.674 1467.98,24.906 1475.8,24.906C1487.44,24.906 1496.43,28.443 1502.91,35.369C1509.4,42.296 1512.64,51.58 1512.79,63.223C1512.79,66.17 1512.2,68.381 1511.02,69.854C1509.84,71.328 1507.33,72.065 1503.5,72.065L1454.43,72.065C1455.75,76.928 1458.41,80.76 1462.24,83.707C1466.07,86.802 1470.64,88.276 1475.8,88.276ZM1475.94,39.496C1470.2,39.496 1465.48,41.264 1461.65,44.801C1457.82,48.338 1455.31,53.054 1454.28,58.949L1497.16,58.949C1496.58,52.907 1494.51,48.043 1491.12,44.654C1487.73,41.264 1482.57,39.496 1475.94,39.496Z" style="fill-rule:nonzero;"/>
    </g>
    <g transform="matrix(1,0,0,1,17.0003,484.278)">
        <path d="M1621.84,26.527C1632.01,26.527 1639.82,29.769 1645.72,36.254C1651.46,42.885 1654.26,51.433 1654.26,62.191L1654.26,95.35C1654.26,97.708 1653.53,99.624 1652.05,100.95C1650.58,102.276 1648.52,103.013 1645.86,103.013C1643.36,103.013 1641.44,102.276 1639.82,100.803C1638.2,99.476 1637.46,97.56 1637.46,95.35L1637.46,61.896C1637.46,55.559 1635.99,50.401 1633.04,46.717C1629.95,43.033 1625.53,41.264 1619.48,41.264C1616.09,41.264 1612.7,42.296 1609.31,44.359C1605.78,46.422 1602.83,49.37 1600.62,53.201C1598.26,57.033 1597.08,61.454 1597.08,66.465L1597.08,95.35C1597.08,97.708 1596.35,99.624 1595.02,100.95C1593.55,102.276 1591.48,103.013 1588.83,103.013C1586.32,103.013 1584.26,102.276 1582.64,100.803C1581.02,99.476 1580.28,97.56 1580.28,95.35L1580.28,61.896C1580.28,55.559 1578.81,50.401 1575.86,46.717C1572.77,43.033 1568.35,41.264 1562.3,41.264C1559.5,41.264 1556.41,42.148 1553.02,44.064C1549.63,45.98 1546.68,48.928 1544.18,52.759C1541.67,56.591 1540.49,61.159 1540.49,66.465L1540.49,95.644C1540.49,98.002 1539.61,99.771 1537.99,101.097C1536.37,102.424 1534.3,103.013 1532.09,103.013C1529.88,103.013 1527.97,102.424 1526.34,101.097C1524.72,99.771 1523.84,98.002 1523.84,95.644L1523.84,35.517C1523.84,33.454 1524.72,31.685 1526.34,30.211C1527.97,28.738 1529.88,28.001 1532.09,28.001C1534.6,28.001 1536.51,28.738 1538.13,30.211C1539.76,31.685 1540.49,33.454 1540.49,35.517L1540.49,35.959C1546.98,29.622 1555.08,26.527 1564.81,26.527C1570.85,26.527 1576.16,27.706 1580.72,30.211C1585.29,32.717 1588.83,36.106 1591.63,40.527C1595.76,35.369 1600.47,31.832 1605.93,29.622C1611.23,27.559 1616.54,26.527 1621.84,26.527Z" style="fill-rule:nonzero;"/>
    </g>
    <g transform="matrix(1,0,0,1,17.0003,485.899)">
        <path d="M1705.55,88.276C1711.89,88.276 1717.19,86.507 1721.61,83.118C1723.82,81.202 1726.03,80.318 1728.24,80.318C1730.31,80.318 1732.08,81.055 1733.55,82.528C1734.88,84.002 1735.61,85.771 1735.61,87.686C1735.61,89.897 1734.58,92.108 1732.67,94.023C1729.42,97.118 1725.44,99.476 1720.88,100.803C1716.16,102.276 1711.15,103.013 1705.99,102.866C1698.33,102.866 1691.55,101.245 1685.65,98.15C1679.76,95.055 1675.19,90.634 1671.95,84.886C1668.71,79.286 1667.08,72.802 1667.08,65.581C1667.08,57.475 1668.71,50.401 1671.8,44.212C1674.9,38.169 1679.46,33.306 1685.21,29.917C1690.96,26.674 1697.74,24.906 1705.55,24.906C1717.19,24.906 1726.18,28.443 1732.67,35.369C1739.15,42.296 1742.39,51.58 1742.54,63.223C1742.54,66.17 1741.95,68.381 1740.77,69.854C1739.59,71.328 1737.09,72.065 1733.25,72.065L1684.18,72.065C1685.51,76.928 1688.16,80.76 1691.99,83.707C1695.82,86.802 1700.39,88.276 1705.55,88.276ZM1705.7,39.496C1699.95,39.496 1695.23,41.264 1691.4,44.801C1687.57,48.338 1685.06,53.054 1684.03,58.949L1726.92,58.949C1726.33,52.907 1724.26,48.043 1720.88,44.654C1717.49,41.264 1712.33,39.496 1705.7,39.496Z" style="fill-rule:nonzero;"/>
    </g>
    <g transform="matrix(1,0,0,1,17.0003,484.278)">
        <path d="M1796.33,26.527C1806.5,26.527 1814.46,29.769 1820.2,36.254C1825.95,42.738 1828.75,51.286 1828.75,62.044L1828.75,95.35C1828.75,97.708 1828.01,99.624 1826.54,100.95C1825.07,102.276 1823,103.013 1820.35,103.013C1817.85,103.013 1815.93,102.276 1814.31,100.803C1812.69,99.476 1811.95,97.56 1811.95,95.35L1811.95,61.749C1811.95,55.412 1810.48,50.401 1807.53,46.717C1804.44,43.033 1799.87,41.264 1793.82,41.264C1791.02,41.264 1787.78,42.148 1784.1,44.064C1780.41,45.98 1777.32,48.928 1774.81,52.759C1772.16,56.591 1770.83,61.159 1770.83,66.465L1770.83,95.497C1770.83,97.855 1770.1,99.624 1768.77,100.95C1767.44,102.276 1765.38,103.013 1762.73,103.013C1760.08,103.013 1758.01,102.276 1756.39,100.95C1754.77,99.624 1754.03,97.855 1754.03,95.497L1754.03,35.517C1754.03,33.159 1754.92,31.243 1756.54,29.917C1758.16,28.59 1760.22,28.001 1762.43,28.001C1764.64,28.001 1766.56,28.59 1768.33,29.917C1769.95,31.243 1770.83,33.011 1770.83,35.222L1770.83,36.254C1777.76,29.769 1786.31,26.527 1796.33,26.527Z" style="fill-rule:nonzero;"/>
    </g>
    <g transform="matrix(1,0,0,1,17.0003,466.887)">
        <path d="M1872.82,106.403C1874.58,105.519 1876.21,105.077 1877.68,105.077C1879.74,105.077 1881.51,105.813 1882.98,107.14C1884.31,108.613 1885.05,110.382 1885.05,112.298C1885.05,113.624 1884.61,114.95 1883.87,116.129C1882.98,117.456 1881.81,118.487 1880.18,119.372C1878.12,120.403 1876.35,121.14 1874.73,121.435C1873.11,121.73 1870.9,121.877 1868.1,121.877C1852.33,121.877 1844.37,112.592 1844.37,94.171L1844.37,59.391L1838.77,59.391C1836.27,59.391 1834.2,58.654 1832.88,57.328C1831.4,56.002 1830.67,54.381 1830.67,52.465C1830.67,50.549 1831.4,48.928 1832.88,47.454C1834.2,46.128 1836.27,45.391 1838.77,45.391L1844.37,45.391L1844.37,32.717C1844.37,30.359 1845.26,28.443 1846.88,27.117C1848.5,25.79 1850.42,25.053 1852.63,25.053C1854.84,25.053 1856.9,25.79 1858.52,27.117C1860.14,28.443 1861.03,30.359 1861.03,32.717L1861.03,45.391L1872.52,45.391C1875.03,45.391 1876.94,46.128 1878.42,47.454C1879.74,48.928 1880.48,50.549 1880.48,52.465C1880.48,54.381 1879.74,56.002 1878.42,57.328C1876.94,58.654 1875.03,59.391 1872.52,59.391L1861.03,59.391L1861.03,94.171C1861.03,98.15 1861.47,101.392 1862.5,103.75C1863.38,106.255 1865.3,107.434 1868.1,107.434C1869.72,107.434 1871.19,107.14 1872.82,106.403Z" style="fill-rule:nonzero;"/>
    </g>
    <g transform="matrix(1,0,0,1,17.0003,485.751)">
        <path d="M1920.12,25.053C1927.93,25.053 1934.71,26.674 1940.75,29.916C1946.65,33.306 1951.22,37.875 1954.46,43.769C1957.7,49.812 1959.32,56.591 1959.32,64.402C1959.18,72.065 1957.55,78.844 1954.31,84.592C1950.92,90.486 1946.35,95.055 1940.46,98.15C1934.56,101.392 1927.79,103.013 1920.12,103.013C1912.46,103.013 1905.68,101.392 1899.78,98.15C1893.89,95.055 1889.32,90.486 1886.08,84.592C1882.69,78.844 1881.07,72.065 1880.92,64.402C1880.92,56.591 1882.54,49.812 1885.93,43.769C1889.17,37.875 1893.74,33.306 1899.64,29.916C1905.53,26.674 1912.31,25.053 1920.12,25.053ZM1920.12,88.276C1926.75,88.276 1932.06,86.065 1936.04,81.644C1940.02,77.223 1942.08,71.475 1942.08,64.402C1942.08,57.18 1940.02,51.285 1936.04,46.57C1932.06,42.148 1926.75,39.79 1920.12,39.79C1913.49,39.79 1908.19,42.148 1904.21,46.57C1900.23,51.285 1898.16,57.18 1898.16,64.402C1898.16,71.475 1900.23,77.223 1904.21,81.644C1908.19,86.065 1913.49,88.276 1920.12,88.276Z" style="fill-rule:nonzero;"/>
    </g>
</svg>
