<?xml version="1.0" encoding="UTF-8" standalone="no"?>
<!DOCTYPE svg PUBLIC "-//W3C//DTD SVG 1.1//EN" "http://www.w3.org/Graphics/SVG/1.1/DTD/svg11.dtd">
<svg width="100%" height="100%" viewBox="0 0 945 1134" version="1.1" xmlns="http://www.w3.org/2000/svg" xmlns:xlink="http://www.w3.org/1999/xlink" xml:space="preserve" xmlns:serif="http://www.serif.com/" style="fill-rule:evenodd;clip-rule:evenodd;stroke-linejoin:round;stroke-miterlimit:2;">
    <g transform="matrix(1,0,0,1,-2646.27,-2374.02)">
        <g transform="matrix(0.380845,-0.659643,0.659643,0.380845,-404.775,4585.78)">
            <g transform="matrix(0.596759,1.03362,-1.16117,0.670402,5131.61,230.146)">
                <rect x="1039.37" y="1062.99" width="1039.37" height="1110.24" style="fill:rgb(255,166,0);"/>
            </g>
            <g transform="matrix(0.80518,1.39461,-1.39461,0.80518,5695.86,-411.98)">
                <g transform="matrix(41.6667,0,0,41.6667,1322.83,2267.72)">
                    <path d="M0.308,-0.519C0.358,-0.519 0.401,-0.508 0.438,-0.487C0.474,-0.465 0.501,-0.435 0.521,-0.396C0.54,-0.357 0.549,-0.311 0.549,-0.26C0.549,-0.209 0.54,-0.163 0.523,-0.122C0.505,-0.081 0.479,-0.048 0.446,-0.025C0.412,-0.002 0.373,0.01 0.328,0.01C0.297,0.01 0.267,0.005 0.239,-0.006C0.21,-0.016 0.185,-0.031 0.162,-0.052C0.162,-0.017 0.144,-0 0.108,-0C0.09,-0 0.076,-0.005 0.066,-0.014C0.055,-0.023 0.05,-0.035 0.05,-0.051L0.05,-0.597C0.05,-0.614 0.056,-0.626 0.067,-0.635C0.078,-0.643 0.091,-0.647 0.107,-0.647C0.122,-0.647 0.136,-0.643 0.147,-0.635C0.158,-0.626 0.164,-0.614 0.164,-0.597L0.163,-0.458C0.184,-0.478 0.208,-0.493 0.233,-0.504C0.258,-0.514 0.283,-0.519 0.308,-0.519ZM0.304,-0.092C0.343,-0.092 0.375,-0.107 0.399,-0.138C0.423,-0.169 0.435,-0.209 0.435,-0.259C0.435,-0.306 0.422,-0.345 0.397,-0.374C0.371,-0.403 0.337,-0.417 0.295,-0.417C0.267,-0.417 0.241,-0.409 0.217,-0.395C0.192,-0.38 0.174,-0.359 0.163,-0.332L0.162,-0.182C0.171,-0.153 0.188,-0.131 0.215,-0.116C0.241,-0.1 0.271,-0.092 0.304,-0.092Z" style="fill:white;fill-rule:nonzero;"/>
                </g>
                <g transform="matrix(41.6667,0,0,41.6667,1347.75,2267.72)">
                    <path d="M0.466,-0.509C0.481,-0.509 0.494,-0.503 0.505,-0.493C0.516,-0.482 0.521,-0.468 0.521,-0.453C0.521,-0.448 0.52,-0.441 0.518,-0.434L0.226,0.139C0.219,0.152 0.211,0.162 0.201,0.169C0.19,0.176 0.179,0.18 0.168,0.18C0.154,0.18 0.142,0.175 0.131,0.164C0.12,0.153 0.115,0.141 0.115,0.126C0.115,0.119 0.117,0.11 0.121,0.101L0.197,-0.049L0,-0.43C-0.003,-0.439 -0.005,-0.446 -0.005,-0.452C-0.005,-0.467 0.001,-0.481 0.013,-0.492C0.024,-0.503 0.037,-0.509 0.052,-0.509C0.063,-0.509 0.073,-0.506 0.083,-0.499C0.092,-0.492 0.1,-0.484 0.105,-0.473L0.259,-0.172L0.413,-0.474C0.418,-0.485 0.425,-0.493 0.434,-0.5C0.443,-0.506 0.454,-0.509 0.466,-0.509Z" style="fill:white;fill-rule:nonzero;"/>
                </g>
                <g transform="matrix(41.6667,0,0,41.6667,1382.42,2267.72)">
                    <path d="M0.521,-0.1C0.538,-0.1 0.551,-0.095 0.561,-0.084C0.571,-0.073 0.576,-0.061 0.576,-0.048C0.576,-0.035 0.571,-0.023 0.562,-0.014C0.552,-0.005 0.538,-0 0.521,-0L0.124,-0C0.105,-0 0.089,-0.006 0.077,-0.018C0.064,-0.029 0.058,-0.043 0.058,-0.06L0.058,-0.578C0.058,-0.595 0.064,-0.609 0.077,-0.62C0.089,-0.631 0.105,-0.637 0.124,-0.637L0.521,-0.637C0.538,-0.637 0.552,-0.632 0.561,-0.623C0.57,-0.614 0.574,-0.602 0.574,-0.589C0.574,-0.576 0.569,-0.565 0.56,-0.555C0.55,-0.544 0.537,-0.539 0.521,-0.539L0.172,-0.539L0.172,-0.364L0.503,-0.364C0.519,-0.364 0.532,-0.359 0.541,-0.349C0.55,-0.339 0.555,-0.327 0.555,-0.314C0.555,-0.301 0.551,-0.289 0.542,-0.28C0.533,-0.271 0.52,-0.266 0.503,-0.266L0.172,-0.266L0.172,-0.1L0.521,-0.1Z" style="fill:white;fill-rule:nonzero;"/>
                </g>
                <g transform="matrix(41.6667,0,0,41.6667,1409.04,2267.72)">
                    <path d="M0.117,-0C0.096,-0 0.081,-0.005 0.072,-0.014C0.062,-0.023 0.057,-0.036 0.057,-0.054L0.057,-0.586C0.057,-0.602 0.063,-0.615 0.075,-0.624C0.086,-0.632 0.1,-0.637 0.116,-0.637C0.131,-0.637 0.145,-0.632 0.157,-0.624C0.168,-0.615 0.174,-0.602 0.174,-0.586L0.174,-0.1L0.502,-0.1C0.521,-0.1 0.535,-0.095 0.546,-0.085C0.557,-0.075 0.562,-0.063 0.562,-0.05C0.562,-0.036 0.557,-0.024 0.546,-0.015C0.535,-0.005 0.521,-0 0.502,-0L0.117,-0Z" style="fill:white;fill-rule:nonzero;"/>
                </g>
                <g transform="matrix(41.6667,0,0,41.6667,1433.04,2267.72)">
                    <path d="M0.521,-0.1C0.538,-0.1 0.551,-0.095 0.561,-0.084C0.571,-0.073 0.576,-0.061 0.576,-0.048C0.576,-0.035 0.571,-0.023 0.562,-0.014C0.552,-0.005 0.538,-0 0.521,-0L0.124,-0C0.105,-0 0.089,-0.006 0.077,-0.018C0.064,-0.029 0.058,-0.043 0.058,-0.06L0.058,-0.578C0.058,-0.595 0.064,-0.609 0.077,-0.62C0.089,-0.631 0.105,-0.637 0.124,-0.637L0.521,-0.637C0.538,-0.637 0.552,-0.632 0.561,-0.623C0.57,-0.614 0.574,-0.602 0.574,-0.589C0.574,-0.576 0.569,-0.565 0.56,-0.555C0.55,-0.544 0.537,-0.539 0.521,-0.539L0.172,-0.539L0.172,-0.364L0.503,-0.364C0.519,-0.364 0.532,-0.359 0.541,-0.349C0.55,-0.339 0.555,-0.327 0.555,-0.314C0.555,-0.301 0.551,-0.289 0.542,-0.28C0.533,-0.271 0.52,-0.266 0.503,-0.266L0.172,-0.266L0.172,-0.1L0.521,-0.1Z" style="fill:white;fill-rule:nonzero;"/>
                </g>
                <g transform="matrix(41.6667,0,0,41.6667,1459.67,2267.72)">
                    <path d="M0.118,-0.637C0.127,-0.637 0.137,-0.634 0.146,-0.629C0.155,-0.624 0.163,-0.616 0.169,-0.607L0.378,-0.28L0.586,-0.608C0.592,-0.617 0.6,-0.624 0.61,-0.63C0.619,-0.635 0.629,-0.637 0.639,-0.637C0.654,-0.637 0.668,-0.632 0.679,-0.622C0.69,-0.612 0.695,-0.598 0.695,-0.581L0.695,-0.052C0.695,-0.035 0.689,-0.023 0.677,-0.014C0.665,-0.005 0.651,-0 0.636,-0C0.62,-0 0.607,-0.005 0.596,-0.014C0.584,-0.023 0.579,-0.035 0.579,-0.052L0.579,-0.389L0.43,-0.156C0.425,-0.147 0.417,-0.14 0.408,-0.135C0.399,-0.13 0.389,-0.127 0.378,-0.127C0.367,-0.127 0.357,-0.13 0.347,-0.136C0.337,-0.141 0.329,-0.149 0.324,-0.159L0.177,-0.388L0.177,-0.052C0.177,-0.035 0.171,-0.023 0.16,-0.014C0.148,-0.005 0.134,-0 0.119,-0C0.103,-0 0.089,-0.005 0.078,-0.014C0.067,-0.023 0.061,-0.035 0.061,-0.052L0.061,-0.58C0.061,-0.597 0.067,-0.61 0.078,-0.621C0.089,-0.632 0.103,-0.637 0.118,-0.637Z" style="fill:white;fill-rule:nonzero;"/>
                </g>
                <g transform="matrix(41.6667,0,0,41.6667,1493.08,2267.72)">
                    <path d="M0.521,-0.1C0.538,-0.1 0.551,-0.095 0.561,-0.084C0.571,-0.073 0.576,-0.061 0.576,-0.048C0.576,-0.035 0.571,-0.023 0.562,-0.014C0.552,-0.005 0.538,-0 0.521,-0L0.124,-0C0.105,-0 0.089,-0.006 0.077,-0.018C0.064,-0.029 0.058,-0.043 0.058,-0.06L0.058,-0.578C0.058,-0.595 0.064,-0.609 0.077,-0.62C0.089,-0.631 0.105,-0.637 0.124,-0.637L0.521,-0.637C0.538,-0.637 0.552,-0.632 0.561,-0.623C0.57,-0.614 0.574,-0.602 0.574,-0.589C0.574,-0.576 0.569,-0.565 0.56,-0.555C0.55,-0.544 0.537,-0.539 0.521,-0.539L0.172,-0.539L0.172,-0.364L0.503,-0.364C0.519,-0.364 0.532,-0.359 0.541,-0.349C0.55,-0.339 0.555,-0.327 0.555,-0.314C0.555,-0.301 0.551,-0.289 0.542,-0.28C0.533,-0.271 0.52,-0.266 0.503,-0.266L0.172,-0.266L0.172,-0.1L0.521,-0.1Z" style="fill:white;fill-rule:nonzero;"/>
                </g>
                <g transform="matrix(41.6667,0,0,41.6667,1519.71,2267.72)">
                    <path d="M0.482,-0.588C0.482,-0.603 0.488,-0.615 0.501,-0.624C0.513,-0.633 0.527,-0.637 0.543,-0.637C0.559,-0.637 0.573,-0.633 0.584,-0.625C0.595,-0.616 0.601,-0.604 0.601,-0.588L0.601,-0.06C0.601,-0.041 0.594,-0.027 0.581,-0.016C0.568,-0.005 0.552,-0 0.534,-0C0.523,-0 0.511,-0.003 0.501,-0.008C0.49,-0.013 0.481,-0.02 0.474,-0.029L0.168,-0.423L0.172,-0.367L0.172,-0.053C0.172,-0.036 0.166,-0.023 0.155,-0.014C0.143,-0.005 0.129,-0 0.113,-0C0.096,-0 0.082,-0.005 0.071,-0.014C0.059,-0.023 0.053,-0.036 0.053,-0.053L0.053,-0.576C0.053,-0.595 0.059,-0.61 0.071,-0.621C0.083,-0.632 0.097,-0.637 0.114,-0.637C0.126,-0.637 0.137,-0.635 0.146,-0.63C0.155,-0.624 0.164,-0.617 0.172,-0.607L0.486,-0.199L0.482,-0.266L0.482,-0.588Z" style="fill:white;fill-rule:nonzero;"/>
                </g>
                <g transform="matrix(41.6667,0,0,41.6667,1548.5,2267.72)">
                    <path d="M0.518,-0.637C0.536,-0.637 0.55,-0.632 0.561,-0.622C0.572,-0.611 0.577,-0.599 0.577,-0.585C0.577,-0.572 0.572,-0.56 0.561,-0.55C0.55,-0.539 0.536,-0.534 0.518,-0.534L0.332,-0.534L0.333,-0.053C0.333,-0.036 0.327,-0.023 0.315,-0.014C0.302,-0.005 0.289,-0 0.274,-0C0.259,-0 0.245,-0.005 0.234,-0.014C0.222,-0.023 0.216,-0.036 0.216,-0.053L0.216,-0.534L0.031,-0.534C0.013,-0.534 -0.001,-0.539 -0.011,-0.549C-0.02,-0.559 -0.025,-0.571 -0.025,-0.585C-0.025,-0.599 -0.02,-0.611 -0.011,-0.622C-0.001,-0.632 0.013,-0.637 0.031,-0.637L0.518,-0.637Z" style="fill:white;fill-rule:nonzero;"/>
                </g>
                <g transform="matrix(41.6667,0,0,41.6667,1571.75,2267.72)">
                    <path d="M0.675,-0.318C0.675,-0.253 0.662,-0.196 0.635,-0.147C0.608,-0.097 0.57,-0.058 0.521,-0.031C0.471,-0.004 0.415,0.01 0.35,0.01C0.285,0.01 0.228,-0.004 0.179,-0.031C0.129,-0.058 0.09,-0.097 0.063,-0.147C0.036,-0.196 0.022,-0.253 0.022,-0.318C0.022,-0.383 0.036,-0.44 0.063,-0.49C0.09,-0.54 0.129,-0.579 0.179,-0.606C0.228,-0.633 0.285,-0.647 0.35,-0.647C0.414,-0.647 0.471,-0.633 0.52,-0.606C0.569,-0.579 0.608,-0.54 0.635,-0.491C0.662,-0.441 0.675,-0.383 0.675,-0.318ZM0.35,-0.092C0.391,-0.092 0.428,-0.101 0.459,-0.121C0.49,-0.139 0.515,-0.166 0.532,-0.2C0.549,-0.234 0.558,-0.273 0.558,-0.318C0.558,-0.363 0.549,-0.402 0.532,-0.437C0.515,-0.471 0.49,-0.498 0.459,-0.517C0.428,-0.536 0.391,-0.545 0.35,-0.545C0.309,-0.545 0.272,-0.536 0.24,-0.517C0.208,-0.498 0.183,-0.471 0.166,-0.437C0.149,-0.402 0.14,-0.363 0.14,-0.318C0.14,-0.273 0.149,-0.234 0.166,-0.2C0.183,-0.166 0.208,-0.139 0.24,-0.121C0.272,-0.101 0.309,-0.092 0.35,-0.092Z" style="fill:white;fill-rule:nonzero;"/>
                </g>
            </g>
            <g transform="matrix(0.656435,1.13698,-1.13698,0.656435,5184.62,190.954)">
                <path d="M1175.49,2138.72C1177.25,2138.72 1178.62,2139.3 1179.61,2140.45C1180.6,2141.61 1181.1,2142.96 1181.1,2144.49C1181.1,2145.92 1180.6,2147.13 1179.61,2148.12C1178.62,2149.11 1177.25,2149.61 1175.49,2149.61L1106.07,2149.61C1103.87,2149.61 1102.06,2148.89 1100.63,2147.46C1099.2,2146.03 1098.49,2144.33 1098.49,2142.35L1098.49,2051.83C1098.49,2049.85 1099.2,2048.17 1100.63,2046.8C1102.06,2045.42 1103.87,2044.74 1106.07,2044.74L1175.65,2044.74C1177.3,2044.74 1178.57,2045.23 1179.45,2046.22C1180.33,2047.21 1180.77,2048.42 1180.77,2049.85C1180.77,2051.28 1180.3,2052.54 1179.36,2053.64C1178.43,2054.74 1177.14,2055.29 1175.49,2055.29L1110.36,2055.29L1110.36,2092.39L1172.36,2092.39C1173.89,2092.39 1175.13,2092.91 1176.07,2093.96C1177,2095 1177.47,2096.29 1177.47,2097.83C1177.47,2099.15 1177.03,2100.33 1176.15,2101.38C1175.27,2102.42 1174,2102.94 1172.36,2102.94L1110.36,2102.94L1110.36,2138.72L1175.49,2138.72Z" style="fill:white;fill-rule:nonzero;stroke:white;stroke-width:8.33px;"/>
                <path d="M1213.08,2144C1213.08,2145.54 1212.51,2146.86 1211.35,2147.96C1210.2,2149.06 1208.8,2149.61 1207.15,2149.61C1205.39,2149.61 1203.93,2149.06 1202.78,2147.96C1201.62,2146.86 1201.05,2145.54 1201.05,2144L1201.05,2045.07C1201.05,2043.53 1201.62,2042.21 1202.78,2041.11C1203.93,2040.01 1205.39,2039.46 1207.15,2039.46C1208.8,2039.46 1210.2,2040.01 1211.35,2041.11C1212.51,2042.21 1213.08,2043.53 1213.08,2045.07L1213.08,2144Z" style="fill:white;fill-rule:nonzero;stroke:white;stroke-width:8.33px;"/>
                <path d="M1318.28,2107.39C1318.28,2112.45 1315.59,2114.98 1310.2,2114.98L1245.07,2114.98C1245.84,2119.6 1247.57,2123.8 1250.27,2127.59C1252.96,2131.39 1256.48,2134.44 1260.82,2136.74C1265.16,2139.05 1269.97,2140.21 1275.25,2140.21C1283.82,2140.21 1291.13,2137.9 1297.17,2133.28C1298.49,2132.07 1300.03,2131.47 1301.79,2131.47C1303.33,2131.47 1304.65,2131.96 1305.75,2132.95C1306.85,2133.94 1307.4,2135.15 1307.4,2136.58C1307.4,2138.23 1306.63,2139.82 1305.09,2141.36C1301.46,2144.77 1297.07,2147.3 1291.9,2148.95C1286.73,2150.6 1281.35,2151.37 1275.74,2151.26C1267.28,2151.26 1259.77,2149.36 1253.23,2145.57C1246.69,2141.77 1241.66,2136.55 1238.15,2129.9C1234.63,2123.25 1232.87,2115.8 1232.87,2107.56C1232.87,2098.66 1234.85,2090.96 1238.81,2084.48C1242.76,2077.99 1247.96,2073.04 1254.39,2069.64C1260.82,2066.23 1267.66,2064.52 1274.92,2064.52C1282.61,2064.52 1289.73,2066.06 1296.27,2069.14C1302.81,2072.22 1308.09,2076.97 1312.1,2083.4C1316.11,2089.84 1318.17,2097.83 1318.28,2107.39ZM1306.74,2104.92C1306.19,2098.66 1304.38,2093.32 1301.3,2088.93C1298.22,2084.53 1294.4,2081.23 1289.84,2079.03C1285.28,2076.84 1280.58,2075.74 1275.74,2075.74C1267.5,2075.74 1260.4,2078.24 1254.47,2083.24C1248.53,2088.24 1245.24,2095.47 1244.58,2104.92L1306.74,2104.92Z" style="fill:white;fill-rule:nonzero;stroke:white;stroke-width:8.33px;"/>
                <path d="M1398.91,2085.14C1395.94,2081.73 1392.54,2079.23 1388.69,2077.63C1384.84,2076.04 1380.77,2075.24 1376.49,2075.24C1370.77,2075.24 1365.66,2076.67 1361.15,2079.53C1356.64,2082.39 1353.13,2086.32 1350.6,2091.32C1348.07,2096.32 1346.81,2101.9 1346.81,2108.05C1346.81,2113.99 1348.07,2119.4 1350.6,2124.3C1353.13,2129.19 1356.67,2133.09 1361.23,2136C1365.8,2138.92 1371.05,2140.37 1376.98,2140.37C1381.6,2140.37 1386.02,2139.47 1390.25,2137.65C1394.49,2135.84 1397.98,2133.06 1400.73,2129.32C1401.71,2127.9 1403.03,2127.18 1404.68,2127.18C1406.22,2127.18 1407.6,2127.7 1408.8,2128.75C1410.01,2129.79 1410.62,2131.08 1410.62,2132.62C1410.62,2133.94 1410.07,2135.21 1408.97,2136.41C1405.12,2141.14 1400.34,2144.8 1394.62,2147.38C1388.91,2149.96 1382.97,2151.26 1376.82,2151.26C1368.68,2151.26 1361.43,2149.33 1355.05,2145.48C1348.67,2141.64 1343.7,2136.41 1340.13,2129.82C1336.56,2123.22 1334.77,2115.86 1334.77,2107.72C1334.77,2101.35 1336.17,2094.86 1338.97,2088.27C1341.78,2081.67 1346.37,2076.07 1352.74,2071.45C1359.12,2066.83 1367.42,2064.52 1377.64,2064.52C1383.58,2064.52 1388.96,2065.62 1393.8,2067.82C1398.64,2070.02 1403.2,2073.54 1407.49,2078.38C1408.36,2079.25 1408.8,2080.35 1408.8,2081.67C1408.8,2083.1 1408.2,2084.37 1406.99,2085.47C1405.78,2086.56 1404.41,2087.11 1402.87,2087.11C1401.44,2087.11 1400.12,2086.45 1398.91,2085.14Z" style="fill:white;fill-rule:nonzero;stroke:white;stroke-width:8.33px;"/>
                <path d="M1464.37,2066.17C1466.13,2066.17 1467.5,2066.67 1468.49,2067.66C1469.48,2068.65 1469.98,2069.8 1469.98,2071.12C1469.98,2072.55 1469.48,2073.76 1468.49,2074.75C1467.5,2075.74 1466.13,2076.23 1464.37,2076.23L1446.4,2076.23L1446.4,2121.08C1446.4,2126.91 1447.25,2131.58 1448.95,2135.1C1450.66,2138.61 1454.04,2140.37 1459.1,2140.37C1460.3,2140.37 1461.7,2140.18 1463.3,2139.8C1464.89,2139.41 1466.08,2139 1466.84,2138.56C1468.05,2137.9 1469.15,2137.57 1470.14,2137.57C1471.57,2137.57 1472.81,2138.12 1473.85,2139.22C1474.9,2140.32 1475.42,2141.58 1475.42,2143.01C1475.42,2145.21 1474.21,2147.02 1471.79,2148.45C1468.49,2150.32 1464.26,2151.26 1459.1,2151.26C1442.72,2151.26 1434.53,2141.2 1434.53,2121.08L1434.53,2076.23L1423.64,2076.23C1421.88,2076.23 1420.51,2075.74 1419.52,2074.75C1418.53,2073.76 1418.04,2072.6 1418.04,2071.28C1418.04,2069.97 1418.53,2068.78 1419.52,2067.74C1420.51,2066.7 1421.88,2066.17 1423.64,2066.17L1434.53,2066.17L1434.53,2046.55C1434.53,2044.68 1435.1,2043.23 1436.26,2042.18C1437.41,2041.14 1438.81,2040.62 1440.46,2040.62C1442.11,2040.62 1443.51,2041.14 1444.67,2042.18C1445.82,2043.23 1446.4,2044.68 1446.4,2046.55L1446.4,2066.17L1464.37,2066.17Z" style="fill:white;fill-rule:nonzero;stroke:white;stroke-width:8.33px;"/>
                <path d="M1502.79,2078.54C1507.3,2069.2 1515.49,2064.52 1527.36,2064.52C1529.34,2064.52 1530.88,2065.02 1531.98,2066.01C1533.07,2067 1533.62,2068.43 1533.62,2070.3C1533.62,2072.05 1533.07,2073.43 1531.98,2074.42C1530.88,2075.41 1529.34,2075.9 1527.36,2075.9C1519.33,2075.9 1513.29,2078.7 1509.22,2084.31C1505.15,2089.92 1503.12,2097.17 1503.12,2106.08L1503.12,2143.84C1503.12,2145.48 1502.54,2146.86 1501.39,2147.96C1500.23,2149.06 1498.83,2149.61 1497.18,2149.61C1495.32,2149.61 1493.83,2149.08 1492.73,2148.04C1491.63,2147 1491.08,2145.59 1491.08,2143.84L1491.08,2071.94C1491.08,2070.19 1491.71,2068.78 1492.98,2067.74C1494.24,2066.7 1495.64,2066.17 1497.18,2066.17C1498.72,2066.17 1500.04,2066.7 1501.14,2067.74C1502.24,2068.78 1502.79,2070.19 1502.79,2071.94L1502.79,2078.54Z" style="fill:white;fill-rule:nonzero;stroke:white;stroke-width:8.33px;"/>
                <path d="M1595.62,2151.26C1585.62,2151.26 1576.58,2149 1568.5,2144.49C1560.42,2139.99 1554.02,2133.5 1549.29,2125.04C1544.56,2116.57 1542.2,2106.68 1542.2,2095.36C1542.2,2083.82 1544.89,2074.12 1550.28,2066.26C1555.66,2058.4 1562.37,2052.57 1570.39,2048.78C1578.42,2044.99 1586.39,2043.09 1594.3,2043.09C1602.33,2043.09 1610.52,2044.99 1618.87,2048.78C1627.23,2052.57 1634.23,2058.4 1639.89,2066.26C1645.56,2074.12 1648.38,2083.82 1648.38,2095.36C1648.38,2106.46 1645.97,2116.24 1641.13,2124.71C1636.29,2133.17 1629.86,2139.71 1621.84,2144.33C1613.81,2148.95 1605.08,2151.26 1595.62,2151.26ZM1554.57,2095.85C1554.57,2104.65 1556.35,2112.4 1559.92,2119.1C1563.5,2125.81 1568.41,2130.97 1574.68,2134.6C1580.95,2138.23 1587.93,2140.04 1595.62,2140.04C1603.1,2140.04 1609.91,2138.26 1616.07,2134.68C1622.22,2131.11 1627.12,2126 1630.74,2119.35C1634.37,2112.7 1636.18,2104.87 1636.18,2095.85C1636.18,2086.51 1634.01,2078.68 1629.67,2072.36C1625.33,2066.04 1619.97,2061.42 1613.59,2058.51C1607.22,2055.59 1600.9,2054.14 1594.63,2054.14C1588.37,2054.14 1582.18,2055.54 1576.08,2058.34C1569.98,2061.14 1564.87,2065.68 1560.75,2071.94C1556.63,2078.21 1554.57,2086.18 1554.57,2095.85Z" style="fill:white;fill-rule:nonzero;stroke:white;stroke-width:8.33px;"/>
                <path d="M1662.57,2126.52C1662.46,2126.19 1662.4,2125.7 1662.4,2125.04C1662.4,2123.39 1663.09,2122.07 1664.46,2121.08C1665.84,2120.09 1667.46,2119.6 1669.33,2119.6C1670.64,2119.6 1671.83,2119.93 1672.87,2120.59C1673.91,2121.25 1674.55,2122.24 1674.77,2123.55C1678.07,2134.11 1689.99,2139.38 1710.55,2139.38C1719.78,2139.38 1728.05,2137.87 1735.36,2134.85C1742.67,2131.83 1746.33,2126.63 1746.33,2119.27C1746.33,2114.76 1744.76,2111.38 1741.63,2109.13C1738.5,2106.87 1734.65,2105.33 1730.09,2104.51C1725.53,2103.68 1719.12,2102.94 1710.88,2102.28C1700.77,2101.51 1692.58,2100.44 1686.31,2099.07C1680.04,2097.69 1674.71,2095.03 1670.32,2091.07C1665.92,2087.11 1663.72,2081.34 1663.72,2073.76C1663.72,2066.94 1665.97,2061.23 1670.48,2056.61C1674.99,2051.99 1680.7,2048.59 1687.63,2046.39C1694.55,2044.19 1701.64,2043.09 1708.9,2043.09C1734.07,2043.09 1749.35,2050.45 1754.74,2065.18C1754.96,2066.06 1755.07,2066.67 1755.07,2067C1755.07,2068.54 1754.41,2069.77 1753.09,2070.71C1751.77,2071.64 1750.29,2072.11 1748.64,2072.11C1746.11,2072.11 1744.4,2071.12 1743.53,2069.14C1741.33,2063.64 1737.07,2059.96 1730.75,2058.09C1724.43,2056.22 1717.2,2055.29 1709.06,2055.29C1704.56,2055.29 1699.83,2055.87 1694.88,2057.02C1689.94,2058.18 1685.65,2060.13 1682.02,2062.88C1678.39,2065.62 1676.58,2069.31 1676.58,2073.92C1676.58,2078.43 1678.12,2081.84 1681.2,2084.15C1684.28,2086.45 1688.18,2088.05 1692.9,2088.93C1697.63,2089.81 1704.06,2090.58 1712.2,2091.24C1722.97,2092.22 1731.3,2093.3 1737.18,2094.45C1743.06,2095.61 1748.17,2098.08 1752.51,2101.87C1756.85,2105.66 1759.03,2111.41 1759.03,2119.1C1759.03,2126.91 1756.55,2133.23 1751.61,2138.06C1746.66,2142.9 1740.5,2146.31 1733.14,2148.29C1725.77,2150.27 1718.24,2151.26 1710.55,2151.26C1699.88,2151.26 1689.83,2149.36 1680.37,2145.57C1670.92,2141.77 1664.98,2135.43 1662.57,2126.52Z" style="fill:white;fill-rule:nonzero;stroke:white;stroke-width:8.33px;"/>
            </g>
            <g transform="matrix(0.656435,1.13698,-1.13698,0.656435,4256.08,-1412.99)">
                <path d="M3090.51,1439.52C3169.57,1497.64 3226,1555.74 3226,1594.49C3226,1710.97 2716.21,2002.17 2614.25,1943.93C2512.29,1885.69 2512.29,1303.29 2614.25,1245.05C2668.16,1214.25 2836.12,1281.17 2982.47,1368.31C2975.06,1378.84 2970.7,1391.67 2970.7,1405.51C2970.7,1441.24 2999.71,1470.24 3035.43,1470.24C3058.69,1470.24 3079.1,1457.95 3090.51,1439.52Z" style="fill:none;stroke:white;stroke-width:31.25px;stroke-linecap:round;stroke-miterlimit:1.5;"/>
            </g>
            <g transform="matrix(0.256967,0.44508,-0.44508,0.256967,4360.84,1123.55)">
                <circle cx="3377.95" cy="1299.21" r="165.354" style="fill:white;stroke:white;stroke-width:79.83px;stroke-linecap:round;stroke-miterlimit:1.5;"/>
            </g>
        </g>
    </g>
</svg>
