<?xml version="1.0" encoding="UTF-8" standalone="no"?>
<!DOCTYPE svg PUBLIC "-//W3C//DTD SVG 1.1//EN" "http://www.w3.org/Graphics/SVG/1.1/DTD/svg11.dtd">
<svg width="100%" height="100%" viewBox="0 0 295 410" version="1.1" xmlns="http://www.w3.org/2000/svg" xmlns:xlink="http://www.w3.org/1999/xlink" xml:space="preserve" xmlns:serif="http://www.serif.com/" style="fill-rule:evenodd;clip-rule:evenodd;stroke-linejoin:round;stroke-miterlimit:2;">
    <g transform="matrix(1,0,0,1,-1489.52,-1048.72)">
        <g transform="matrix(0.155782,-0.269822,0.269995,0.155882,181.284,1917.22)">
            <g transform="matrix(1,-1.87866e-17,1.34475e-18,1,17.9904,31.1403)">
                <g transform="matrix(0.80518,1.39461,-1.39461,0.80518,5695.86,-411.98)">
                    <g transform="matrix(41.6667,0,0,41.6667,1322.83,2267.72)">
                        <path d="M0.308,-0.519C0.358,-0.519 0.401,-0.508 0.438,-0.487C0.474,-0.465 0.501,-0.435 0.521,-0.396C0.54,-0.357 0.549,-0.311 0.549,-0.26C0.549,-0.209 0.54,-0.163 0.523,-0.122C0.505,-0.081 0.479,-0.048 0.446,-0.025C0.412,-0.002 0.373,0.01 0.328,0.01C0.297,0.01 0.267,0.005 0.239,-0.006C0.21,-0.016 0.185,-0.031 0.162,-0.052C0.162,-0.017 0.144,-0 0.108,-0C0.09,-0 0.076,-0.005 0.066,-0.014C0.055,-0.023 0.05,-0.035 0.05,-0.051L0.05,-0.597C0.05,-0.614 0.056,-0.626 0.067,-0.635C0.078,-0.643 0.091,-0.647 0.107,-0.647C0.122,-0.647 0.136,-0.643 0.147,-0.635C0.158,-0.626 0.164,-0.614 0.164,-0.597L0.163,-0.458C0.184,-0.478 0.208,-0.493 0.233,-0.504C0.258,-0.514 0.283,-0.519 0.308,-0.519ZM0.304,-0.092C0.343,-0.092 0.375,-0.107 0.399,-0.138C0.423,-0.169 0.435,-0.209 0.435,-0.259C0.435,-0.306 0.422,-0.345 0.397,-0.374C0.371,-0.403 0.337,-0.417 0.295,-0.417C0.267,-0.417 0.241,-0.409 0.217,-0.395C0.192,-0.38 0.174,-0.359 0.163,-0.332L0.162,-0.182C0.171,-0.153 0.188,-0.131 0.215,-0.116C0.241,-0.1 0.271,-0.092 0.304,-0.092Z" style="fill:rgb(255,166,0);fill-rule:nonzero;"/>
                    </g>
                    <g transform="matrix(41.6667,0,0,41.6667,1347.75,2267.72)">
                        <path d="M0.466,-0.509C0.481,-0.509 0.494,-0.503 0.505,-0.493C0.516,-0.482 0.521,-0.468 0.521,-0.453C0.521,-0.448 0.52,-0.441 0.518,-0.434L0.226,0.139C0.219,0.152 0.211,0.162 0.201,0.169C0.19,0.176 0.179,0.18 0.168,0.18C0.154,0.18 0.142,0.175 0.131,0.164C0.12,0.153 0.115,0.141 0.115,0.126C0.115,0.119 0.117,0.11 0.121,0.101L0.197,-0.049L0,-0.43C-0.003,-0.439 -0.005,-0.446 -0.005,-0.452C-0.005,-0.467 0.001,-0.481 0.013,-0.492C0.024,-0.503 0.037,-0.509 0.052,-0.509C0.063,-0.509 0.073,-0.506 0.083,-0.499C0.092,-0.492 0.1,-0.484 0.105,-0.473L0.259,-0.172L0.413,-0.474C0.418,-0.485 0.425,-0.493 0.434,-0.5C0.443,-0.506 0.454,-0.509 0.466,-0.509Z" style="fill:rgb(255,166,0);fill-rule:nonzero;"/>
                    </g>
                    <g transform="matrix(41.6667,0,0,41.6667,1382.42,2267.72)">
                        <path d="M0.521,-0.1C0.538,-0.1 0.551,-0.095 0.561,-0.084C0.571,-0.073 0.576,-0.061 0.576,-0.048C0.576,-0.035 0.571,-0.023 0.562,-0.014C0.552,-0.005 0.538,-0 0.521,-0L0.124,-0C0.105,-0 0.089,-0.006 0.077,-0.018C0.064,-0.029 0.058,-0.043 0.058,-0.06L0.058,-0.578C0.058,-0.595 0.064,-0.609 0.077,-0.62C0.089,-0.631 0.105,-0.637 0.124,-0.637L0.521,-0.637C0.538,-0.637 0.552,-0.632 0.561,-0.623C0.57,-0.614 0.574,-0.602 0.574,-0.589C0.574,-0.576 0.569,-0.565 0.56,-0.555C0.55,-0.544 0.537,-0.539 0.521,-0.539L0.172,-0.539L0.172,-0.364L0.503,-0.364C0.519,-0.364 0.532,-0.359 0.541,-0.349C0.55,-0.339 0.555,-0.327 0.555,-0.314C0.555,-0.301 0.551,-0.289 0.542,-0.28C0.533,-0.271 0.52,-0.266 0.503,-0.266L0.172,-0.266L0.172,-0.1L0.521,-0.1Z" style="fill:rgb(255,166,0);fill-rule:nonzero;"/>
                    </g>
                    <g transform="matrix(41.6667,0,0,41.6667,1409.04,2267.72)">
                        <path d="M0.117,-0C0.096,-0 0.081,-0.005 0.072,-0.014C0.062,-0.023 0.057,-0.036 0.057,-0.054L0.057,-0.586C0.057,-0.602 0.063,-0.615 0.075,-0.624C0.086,-0.632 0.1,-0.637 0.116,-0.637C0.131,-0.637 0.145,-0.632 0.157,-0.624C0.168,-0.615 0.174,-0.602 0.174,-0.586L0.174,-0.1L0.502,-0.1C0.521,-0.1 0.535,-0.095 0.546,-0.085C0.557,-0.075 0.562,-0.063 0.562,-0.05C0.562,-0.036 0.557,-0.024 0.546,-0.015C0.535,-0.005 0.521,-0 0.502,-0L0.117,-0Z" style="fill:rgb(255,166,0);fill-rule:nonzero;"/>
                    </g>
                    <g transform="matrix(41.6667,0,0,41.6667,1433.04,2267.72)">
                        <path d="M0.521,-0.1C0.538,-0.1 0.551,-0.095 0.561,-0.084C0.571,-0.073 0.576,-0.061 0.576,-0.048C0.576,-0.035 0.571,-0.023 0.562,-0.014C0.552,-0.005 0.538,-0 0.521,-0L0.124,-0C0.105,-0 0.089,-0.006 0.077,-0.018C0.064,-0.029 0.058,-0.043 0.058,-0.06L0.058,-0.578C0.058,-0.595 0.064,-0.609 0.077,-0.62C0.089,-0.631 0.105,-0.637 0.124,-0.637L0.521,-0.637C0.538,-0.637 0.552,-0.632 0.561,-0.623C0.57,-0.614 0.574,-0.602 0.574,-0.589C0.574,-0.576 0.569,-0.565 0.56,-0.555C0.55,-0.544 0.537,-0.539 0.521,-0.539L0.172,-0.539L0.172,-0.364L0.503,-0.364C0.519,-0.364 0.532,-0.359 0.541,-0.349C0.55,-0.339 0.555,-0.327 0.555,-0.314C0.555,-0.301 0.551,-0.289 0.542,-0.28C0.533,-0.271 0.52,-0.266 0.503,-0.266L0.172,-0.266L0.172,-0.1L0.521,-0.1Z" style="fill:rgb(255,166,0);fill-rule:nonzero;"/>
                    </g>
                    <g transform="matrix(41.6667,0,0,41.6667,1459.67,2267.72)">
                        <path d="M0.118,-0.637C0.127,-0.637 0.137,-0.634 0.146,-0.629C0.155,-0.624 0.163,-0.616 0.169,-0.607L0.378,-0.28L0.586,-0.608C0.592,-0.617 0.6,-0.624 0.61,-0.63C0.619,-0.635 0.629,-0.637 0.639,-0.637C0.654,-0.637 0.668,-0.632 0.679,-0.622C0.69,-0.612 0.695,-0.598 0.695,-0.581L0.695,-0.052C0.695,-0.035 0.689,-0.023 0.677,-0.014C0.665,-0.005 0.651,-0 0.636,-0C0.62,-0 0.607,-0.005 0.596,-0.014C0.584,-0.023 0.579,-0.035 0.579,-0.052L0.579,-0.389L0.43,-0.156C0.425,-0.147 0.417,-0.14 0.408,-0.135C0.399,-0.13 0.389,-0.127 0.378,-0.127C0.367,-0.127 0.357,-0.13 0.347,-0.136C0.337,-0.141 0.329,-0.149 0.324,-0.159L0.177,-0.388L0.177,-0.052C0.177,-0.035 0.171,-0.023 0.16,-0.014C0.148,-0.005 0.134,-0 0.119,-0C0.103,-0 0.089,-0.005 0.078,-0.014C0.067,-0.023 0.061,-0.035 0.061,-0.052L0.061,-0.58C0.061,-0.597 0.067,-0.61 0.078,-0.621C0.089,-0.632 0.103,-0.637 0.118,-0.637Z" style="fill:rgb(255,166,0);fill-rule:nonzero;"/>
                    </g>
                    <g transform="matrix(41.6667,0,0,41.6667,1493.08,2267.72)">
                        <path d="M0.521,-0.1C0.538,-0.1 0.551,-0.095 0.561,-0.084C0.571,-0.073 0.576,-0.061 0.576,-0.048C0.576,-0.035 0.571,-0.023 0.562,-0.014C0.552,-0.005 0.538,-0 0.521,-0L0.124,-0C0.105,-0 0.089,-0.006 0.077,-0.018C0.064,-0.029 0.058,-0.043 0.058,-0.06L0.058,-0.578C0.058,-0.595 0.064,-0.609 0.077,-0.62C0.089,-0.631 0.105,-0.637 0.124,-0.637L0.521,-0.637C0.538,-0.637 0.552,-0.632 0.561,-0.623C0.57,-0.614 0.574,-0.602 0.574,-0.589C0.574,-0.576 0.569,-0.565 0.56,-0.555C0.55,-0.544 0.537,-0.539 0.521,-0.539L0.172,-0.539L0.172,-0.364L0.503,-0.364C0.519,-0.364 0.532,-0.359 0.541,-0.349C0.55,-0.339 0.555,-0.327 0.555,-0.314C0.555,-0.301 0.551,-0.289 0.542,-0.28C0.533,-0.271 0.52,-0.266 0.503,-0.266L0.172,-0.266L0.172,-0.1L0.521,-0.1Z" style="fill:rgb(255,166,0);fill-rule:nonzero;"/>
                    </g>
                    <g transform="matrix(41.6667,0,0,41.6667,1519.71,2267.72)">
                        <path d="M0.482,-0.588C0.482,-0.603 0.488,-0.615 0.501,-0.624C0.513,-0.633 0.527,-0.637 0.543,-0.637C0.559,-0.637 0.573,-0.633 0.584,-0.625C0.595,-0.616 0.601,-0.604 0.601,-0.588L0.601,-0.06C0.601,-0.041 0.594,-0.027 0.581,-0.016C0.568,-0.005 0.552,-0 0.534,-0C0.523,-0 0.511,-0.003 0.501,-0.008C0.49,-0.013 0.481,-0.02 0.474,-0.029L0.168,-0.423L0.172,-0.367L0.172,-0.053C0.172,-0.036 0.166,-0.023 0.155,-0.014C0.143,-0.005 0.129,-0 0.113,-0C0.096,-0 0.082,-0.005 0.071,-0.014C0.059,-0.023 0.053,-0.036 0.053,-0.053L0.053,-0.576C0.053,-0.595 0.059,-0.61 0.071,-0.621C0.083,-0.632 0.097,-0.637 0.114,-0.637C0.126,-0.637 0.137,-0.635 0.146,-0.63C0.155,-0.624 0.164,-0.617 0.172,-0.607L0.486,-0.199L0.482,-0.266L0.482,-0.588Z" style="fill:rgb(255,166,0);fill-rule:nonzero;"/>
                    </g>
                    <g transform="matrix(41.6667,0,0,41.6667,1548.5,2267.72)">
                        <path d="M0.518,-0.637C0.536,-0.637 0.55,-0.632 0.561,-0.622C0.572,-0.611 0.577,-0.599 0.577,-0.585C0.577,-0.572 0.572,-0.56 0.561,-0.55C0.55,-0.539 0.536,-0.534 0.518,-0.534L0.332,-0.534L0.333,-0.053C0.333,-0.036 0.327,-0.023 0.315,-0.014C0.302,-0.005 0.289,-0 0.274,-0C0.259,-0 0.245,-0.005 0.234,-0.014C0.222,-0.023 0.216,-0.036 0.216,-0.053L0.216,-0.534L0.031,-0.534C0.013,-0.534 -0.001,-0.539 -0.011,-0.549C-0.02,-0.559 -0.025,-0.571 -0.025,-0.585C-0.025,-0.599 -0.02,-0.611 -0.011,-0.622C-0.001,-0.632 0.013,-0.637 0.031,-0.637L0.518,-0.637Z" style="fill:rgb(255,166,0);fill-rule:nonzero;"/>
                    </g>
                    <g transform="matrix(41.6667,0,0,41.6667,1571.75,2267.72)">
                        <path d="M0.675,-0.318C0.675,-0.253 0.662,-0.196 0.635,-0.147C0.608,-0.097 0.57,-0.058 0.521,-0.031C0.471,-0.004 0.415,0.01 0.35,0.01C0.285,0.01 0.228,-0.004 0.179,-0.031C0.129,-0.058 0.09,-0.097 0.063,-0.147C0.036,-0.196 0.022,-0.253 0.022,-0.318C0.022,-0.383 0.036,-0.44 0.063,-0.49C0.09,-0.54 0.129,-0.579 0.179,-0.606C0.228,-0.633 0.285,-0.647 0.35,-0.647C0.414,-0.647 0.471,-0.633 0.52,-0.606C0.569,-0.579 0.608,-0.54 0.635,-0.491C0.662,-0.441 0.675,-0.383 0.675,-0.318ZM0.35,-0.092C0.391,-0.092 0.428,-0.101 0.459,-0.121C0.49,-0.139 0.515,-0.166 0.532,-0.2C0.549,-0.234 0.558,-0.273 0.558,-0.318C0.558,-0.363 0.549,-0.402 0.532,-0.437C0.515,-0.471 0.49,-0.498 0.459,-0.517C0.428,-0.536 0.391,-0.545 0.35,-0.545C0.309,-0.545 0.272,-0.536 0.24,-0.517C0.208,-0.498 0.183,-0.471 0.166,-0.437C0.149,-0.402 0.14,-0.363 0.14,-0.318C0.14,-0.273 0.149,-0.234 0.166,-0.2C0.183,-0.166 0.208,-0.139 0.24,-0.121C0.272,-0.101 0.309,-0.092 0.35,-0.092Z" style="fill:rgb(255,166,0);fill-rule:nonzero;"/>
                    </g>
                </g>
                <g transform="matrix(0.656435,1.13698,-1.13698,0.656435,5184.62,190.954)">
                    <g transform="matrix(164.887,0,0,164.887,1085.95,2149.61)">
                        <path d="M0.543,-0.066C0.554,-0.066 0.562,-0.063 0.568,-0.056C0.574,-0.048 0.577,-0.04 0.577,-0.031C0.577,-0.022 0.574,-0.015 0.568,-0.009C0.562,-0.003 0.554,-0 0.543,-0L0.122,-0C0.109,-0 0.098,-0.004 0.089,-0.013C0.08,-0.022 0.076,-0.032 0.076,-0.044L0.076,-0.593C0.076,-0.605 0.08,-0.615 0.089,-0.624C0.098,-0.632 0.109,-0.636 0.122,-0.636L0.544,-0.636C0.554,-0.636 0.562,-0.633 0.567,-0.627C0.572,-0.621 0.575,-0.614 0.575,-0.605C0.575,-0.596 0.572,-0.589 0.567,-0.582C0.561,-0.575 0.553,-0.572 0.543,-0.572L0.148,-0.572L0.148,-0.347L0.524,-0.347C0.533,-0.347 0.541,-0.344 0.547,-0.338C0.552,-0.331 0.555,-0.323 0.555,-0.314C0.555,-0.306 0.552,-0.299 0.547,-0.293C0.542,-0.286 0.534,-0.283 0.524,-0.283L0.148,-0.283L0.148,-0.066L0.543,-0.066Z" style="fill:rgb(255,166,0);fill-rule:nonzero;stroke:rgb(255,166,0);stroke-width:0.05px;"/>
                    </g>
                    <g transform="matrix(164.887,0,0,164.887,1191.32,2149.61)">
                        <path d="M0.132,-0.034C0.132,-0.025 0.129,-0.017 0.122,-0.01C0.115,-0.003 0.106,-0 0.096,-0C0.085,-0 0.077,-0.003 0.07,-0.01C0.063,-0.017 0.059,-0.025 0.059,-0.034L0.059,-0.634C0.059,-0.643 0.063,-0.651 0.07,-0.658C0.077,-0.665 0.085,-0.668 0.096,-0.668C0.106,-0.668 0.115,-0.665 0.122,-0.658C0.129,-0.651 0.132,-0.643 0.132,-0.634L0.132,-0.034Z" style="fill:rgb(255,166,0);fill-rule:nonzero;stroke:rgb(255,166,0);stroke-width:0.05px;"/>
                    </g>
                    <g transform="matrix(164.887,0,0,164.887,1226.27,2149.61)">
                        <path d="M0.558,-0.256C0.558,-0.225 0.542,-0.21 0.509,-0.21L0.114,-0.21C0.119,-0.182 0.129,-0.157 0.146,-0.134C0.162,-0.111 0.183,-0.092 0.21,-0.078C0.236,-0.064 0.265,-0.057 0.297,-0.057C0.349,-0.057 0.393,-0.071 0.43,-0.099C0.438,-0.106 0.447,-0.11 0.458,-0.11C0.467,-0.11 0.475,-0.107 0.482,-0.101C0.489,-0.095 0.492,-0.088 0.492,-0.079C0.492,-0.069 0.487,-0.059 0.478,-0.05C0.456,-0.029 0.429,-0.014 0.398,-0.004C0.367,0.006 0.334,0.011 0.3,0.01C0.249,0.01 0.203,-0.002 0.164,-0.025C0.124,-0.048 0.093,-0.079 0.072,-0.12C0.051,-0.16 0.04,-0.205 0.04,-0.255C0.04,-0.309 0.052,-0.356 0.076,-0.395C0.1,-0.434 0.132,-0.464 0.171,-0.485C0.21,-0.506 0.251,-0.516 0.295,-0.516C0.342,-0.516 0.385,-0.507 0.425,-0.488C0.464,-0.469 0.496,-0.441 0.521,-0.402C0.545,-0.363 0.557,-0.314 0.558,-0.256ZM0.488,-0.271C0.485,-0.309 0.474,-0.341 0.455,-0.368C0.436,-0.395 0.413,-0.415 0.386,-0.428C0.358,-0.441 0.329,-0.448 0.3,-0.448C0.25,-0.448 0.207,-0.433 0.171,-0.403C0.135,-0.372 0.115,-0.328 0.111,-0.271L0.488,-0.271Z" style="fill:rgb(255,166,0);fill-rule:nonzero;stroke:rgb(255,166,0);stroke-width:0.05px;"/>
                    </g>
                    <g transform="matrix(164.887,0,0,164.887,1328.34,2149.61)">
                        <path d="M0.428,-0.391C0.41,-0.412 0.389,-0.427 0.366,-0.437C0.343,-0.446 0.318,-0.451 0.292,-0.451C0.257,-0.451 0.226,-0.442 0.199,-0.425C0.172,-0.408 0.15,-0.384 0.135,-0.354C0.12,-0.323 0.112,-0.289 0.112,-0.252C0.112,-0.216 0.12,-0.183 0.135,-0.154C0.15,-0.124 0.172,-0.1 0.2,-0.083C0.227,-0.065 0.259,-0.056 0.295,-0.056C0.323,-0.056 0.35,-0.062 0.376,-0.073C0.401,-0.084 0.422,-0.1 0.439,-0.123C0.445,-0.132 0.453,-0.136 0.463,-0.136C0.472,-0.136 0.481,-0.133 0.488,-0.127C0.495,-0.12 0.499,-0.112 0.499,-0.103C0.499,-0.095 0.496,-0.087 0.489,-0.08C0.466,-0.051 0.437,-0.029 0.402,-0.014C0.367,0.002 0.331,0.01 0.294,0.01C0.245,0.01 0.201,-0.002 0.162,-0.025C0.123,-0.048 0.093,-0.08 0.072,-0.12C0.05,-0.16 0.039,-0.205 0.039,-0.254C0.039,-0.293 0.048,-0.332 0.065,-0.372C0.082,-0.412 0.109,-0.446 0.148,-0.474C0.187,-0.502 0.237,-0.516 0.299,-0.516C0.335,-0.516 0.368,-0.509 0.397,-0.496C0.426,-0.483 0.454,-0.461 0.48,-0.432C0.485,-0.427 0.488,-0.42 0.488,-0.412C0.488,-0.403 0.484,-0.396 0.477,-0.389C0.47,-0.382 0.461,-0.379 0.452,-0.379C0.443,-0.379 0.435,-0.383 0.428,-0.391Z" style="fill:rgb(255,166,0);fill-rule:nonzero;stroke:rgb(255,166,0);stroke-width:0.05px;"/>
                    </g>
                    <g transform="matrix(164.887,0,0,164.887,1417.05,2149.61)">
                        <path d="M0.287,-0.506C0.298,-0.506 0.306,-0.503 0.312,-0.497C0.318,-0.491 0.321,-0.484 0.321,-0.476C0.321,-0.467 0.318,-0.46 0.312,-0.454C0.306,-0.448 0.298,-0.445 0.287,-0.445L0.178,-0.445L0.178,-0.173C0.178,-0.138 0.183,-0.109 0.194,-0.088C0.204,-0.067 0.224,-0.056 0.255,-0.056C0.262,-0.056 0.271,-0.057 0.281,-0.06C0.29,-0.062 0.297,-0.064 0.302,-0.067C0.309,-0.071 0.316,-0.073 0.322,-0.073C0.331,-0.073 0.338,-0.07 0.345,-0.063C0.351,-0.056 0.354,-0.049 0.354,-0.04C0.354,-0.027 0.347,-0.016 0.332,-0.007C0.312,0.004 0.286,0.01 0.255,0.01C0.156,0.01 0.106,-0.051 0.106,-0.173L0.106,-0.445L0.04,-0.445C0.029,-0.445 0.021,-0.448 0.015,-0.454C0.009,-0.46 0.006,-0.467 0.006,-0.475C0.006,-0.483 0.009,-0.49 0.015,-0.497C0.021,-0.503 0.029,-0.506 0.04,-0.506L0.106,-0.506L0.106,-0.625C0.106,-0.636 0.11,-0.645 0.117,-0.652C0.124,-0.658 0.132,-0.661 0.142,-0.661C0.152,-0.661 0.161,-0.658 0.168,-0.652C0.174,-0.645 0.178,-0.636 0.178,-0.625L0.178,-0.506L0.287,-0.506Z" style="fill:rgb(255,166,0);fill-rule:nonzero;stroke:rgb(255,166,0);stroke-width:0.05px;"/>
                    </g>
                    <g transform="matrix(164.887,0,0,164.887,1480.53,2149.61)">
                        <path d="M0.135,-0.431C0.162,-0.488 0.212,-0.516 0.284,-0.516C0.296,-0.516 0.305,-0.513 0.312,-0.507C0.319,-0.501 0.322,-0.492 0.322,-0.481C0.322,-0.47 0.319,-0.462 0.312,-0.456C0.305,-0.45 0.296,-0.447 0.284,-0.447C0.235,-0.447 0.199,-0.43 0.174,-0.396C0.149,-0.362 0.137,-0.318 0.137,-0.264L0.137,-0.035C0.137,-0.025 0.134,-0.017 0.127,-0.01C0.12,-0.003 0.111,-0 0.101,-0C0.09,-0 0.081,-0.003 0.074,-0.01C0.067,-0.016 0.064,-0.024 0.064,-0.035L0.064,-0.471C0.064,-0.482 0.068,-0.49 0.076,-0.497C0.083,-0.503 0.092,-0.506 0.101,-0.506C0.11,-0.506 0.118,-0.503 0.125,-0.497C0.132,-0.49 0.135,-0.482 0.135,-0.471L0.135,-0.431Z" style="fill:rgb(255,166,0);fill-rule:nonzero;stroke:rgb(255,166,0);stroke-width:0.05px;"/>
                    </g>
                    <g transform="matrix(164.887,0,0,164.887,1536.1,2149.61)">
                        <path d="M0.361,0.01C0.3,0.01 0.246,-0.004 0.197,-0.031C0.148,-0.058 0.109,-0.098 0.08,-0.149C0.051,-0.2 0.037,-0.26 0.037,-0.329C0.037,-0.399 0.053,-0.458 0.086,-0.506C0.119,-0.553 0.159,-0.588 0.208,-0.612C0.257,-0.635 0.305,-0.646 0.353,-0.646C0.402,-0.646 0.451,-0.635 0.502,-0.612C0.553,-0.588 0.595,-0.553 0.63,-0.506C0.664,-0.458 0.681,-0.399 0.681,-0.329C0.681,-0.262 0.666,-0.202 0.637,-0.151C0.608,-0.1 0.569,-0.06 0.52,-0.032C0.471,-0.004 0.418,0.01 0.361,0.01ZM0.112,-0.326C0.112,-0.273 0.123,-0.226 0.145,-0.185C0.166,-0.144 0.196,-0.113 0.234,-0.091C0.272,-0.069 0.314,-0.058 0.361,-0.058C0.406,-0.058 0.448,-0.069 0.485,-0.091C0.522,-0.112 0.552,-0.143 0.574,-0.184C0.596,-0.224 0.607,-0.271 0.607,-0.326C0.607,-0.383 0.594,-0.43 0.568,-0.469C0.541,-0.507 0.509,-0.535 0.47,-0.553C0.431,-0.57 0.393,-0.579 0.355,-0.579C0.317,-0.579 0.28,-0.571 0.243,-0.554C0.206,-0.537 0.174,-0.509 0.15,-0.471C0.125,-0.433 0.112,-0.385 0.112,-0.326Z" style="fill:rgb(255,166,0);fill-rule:nonzero;stroke:rgb(255,166,0);stroke-width:0.05px;"/>
                    </g>
                    <g transform="matrix(164.887,0,0,164.887,1658.94,2149.61)">
                        <path d="M0.022,-0.14C0.021,-0.142 0.021,-0.145 0.021,-0.149C0.021,-0.159 0.025,-0.167 0.034,-0.173C0.042,-0.179 0.052,-0.182 0.063,-0.182C0.071,-0.182 0.078,-0.18 0.085,-0.176C0.091,-0.172 0.095,-0.166 0.096,-0.158C0.116,-0.094 0.188,-0.062 0.313,-0.062C0.369,-0.062 0.419,-0.071 0.464,-0.09C0.508,-0.108 0.53,-0.139 0.53,-0.184C0.53,-0.211 0.521,-0.232 0.502,-0.246C0.483,-0.259 0.459,-0.269 0.432,-0.274C0.404,-0.279 0.365,-0.283 0.315,-0.287C0.254,-0.292 0.204,-0.298 0.166,-0.307C0.128,-0.315 0.096,-0.331 0.069,-0.355C0.042,-0.379 0.029,-0.414 0.029,-0.46C0.029,-0.501 0.043,-0.536 0.07,-0.564C0.097,-0.592 0.132,-0.613 0.174,-0.626C0.216,-0.639 0.259,-0.646 0.303,-0.646C0.456,-0.646 0.548,-0.601 0.581,-0.512C0.582,-0.507 0.583,-0.503 0.583,-0.501C0.583,-0.492 0.579,-0.484 0.571,-0.479C0.563,-0.473 0.554,-0.47 0.544,-0.47C0.529,-0.47 0.518,-0.476 0.513,-0.488C0.5,-0.521 0.474,-0.544 0.436,-0.555C0.397,-0.566 0.353,-0.572 0.304,-0.572C0.277,-0.572 0.248,-0.569 0.218,-0.562C0.188,-0.555 0.162,-0.543 0.14,-0.526C0.118,-0.509 0.107,-0.487 0.107,-0.459C0.107,-0.432 0.116,-0.411 0.135,-0.397C0.154,-0.383 0.177,-0.373 0.206,-0.368C0.235,-0.363 0.274,-0.358 0.323,-0.354C0.388,-0.348 0.439,-0.342 0.475,-0.335C0.51,-0.328 0.541,-0.313 0.568,-0.29C0.594,-0.267 0.607,-0.232 0.607,-0.185C0.607,-0.138 0.592,-0.099 0.562,-0.07C0.532,-0.041 0.495,-0.02 0.45,-0.008C0.405,0.004 0.36,0.01 0.313,0.01C0.248,0.01 0.187,-0.002 0.13,-0.025C0.073,-0.048 0.037,-0.086 0.022,-0.14Z" style="fill:rgb(255,166,0);fill-rule:nonzero;stroke:rgb(255,166,0);stroke-width:0.05px;"/>
                    </g>
                </g>
            </g>
        </g>
        <g transform="matrix(0.155782,-0.269822,0.269995,0.155882,181.284,1917.22)">
            <g transform="matrix(1,-1.87866e-17,1.34475e-18,1,-9.03342,-15.6363)">
                <g transform="matrix(0.656435,1.13698,-1.13698,0.656435,4256.08,-1412.99)">
                    <path d="M3090.51,1439.52C3169.57,1497.64 3226,1555.74 3226,1594.49C3226,1710.97 2716.21,2002.17 2614.25,1943.93C2512.29,1885.69 2512.29,1303.29 2614.25,1245.05C2668.16,1214.25 2836.12,1281.17 2982.47,1368.31C2975.06,1378.84 2970.7,1391.67 2970.7,1405.51C2970.7,1441.24 2999.71,1470.24 3035.43,1470.24C3058.69,1470.24 3079.1,1457.95 3090.51,1439.52Z" style="fill:none;stroke:rgb(255,166,0);stroke-width:31.25px;stroke-linecap:round;stroke-miterlimit:1.5;"/>
                </g>
                <g transform="matrix(0.256967,0.44508,-0.44508,0.256967,4360.84,1123.55)">
                    <circle cx="3377.95" cy="1299.21" r="165.354" style="fill:rgb(255,166,0);stroke:rgb(255,166,0);stroke-width:79.83px;stroke-linecap:round;stroke-miterlimit:1.5;"/>
                </g>
            </g>
        </g>
    </g>
</svg>
