<?xml version="1.0" encoding="UTF-8" standalone="no"?>
<!DOCTYPE svg PUBLIC "-//W3C//DTD SVG 1.1//EN" "http://www.w3.org/Graphics/SVG/1.1/DTD/svg11.dtd">
<svg width="100%" height="100%" viewBox="0 0 733 605" version="1.1" xmlns="http://www.w3.org/2000/svg" xmlns:xlink="http://www.w3.org/1999/xlink" xml:space="preserve" xmlns:serif="http://www.serif.com/" style="fill-rule:evenodd;clip-rule:evenodd;stroke-linejoin:round;stroke-miterlimit:2;">
    <g transform="matrix(1,0,0,1,-911.424,-766.125)">
        <g transform="matrix(1,0,0,1,-110.072,65.491)">
            <g transform="matrix(1.42665,0,0,1.42665,974.819,613.456)">
                <g transform="matrix(0.767755,0,0,0.7746,-886.538,-271.193)">
                    <path d="M1531.53,428.995L1720.1,531.767L1720.1,737.31L1531.53,840.081L1342.95,737.31L1342.95,531.767L1531.53,428.995Z"/>
                </g>
                <g id="Full-logo" serif:id="Full logo" transform="matrix(0.571043,0,0,0.571043,-349.519,-352.369)">
                    <path id="Top" d="M1102.5,727.744C1112.73,722.847 1124.63,722.847 1134.87,727.744C1182.6,750.579 1321.89,817.227 1361.56,836.21C1368.08,839.326 1372.22,845.904 1372.22,853.123L1372.22,902.756C1372.22,902.756 1196.66,850.703 1137.72,833.226C1125.3,829.543 1112.07,829.543 1099.65,833.226C1040.71,850.703 865.15,902.756 865.15,902.756L865.15,853.123C865.15,845.904 869.294,839.326 875.807,836.21C915.48,817.227 1054.77,750.579 1102.5,727.744Z" style="fill:rgb(250,166,1);"/>
                    <path id="Bottom" d="M1134.87,1278.02C1124.63,1282.92 1112.73,1282.92 1102.5,1278.02C1054.77,1255.19 915.48,1188.54 875.807,1169.56C869.294,1166.44 865.15,1159.86 865.15,1152.64L865.15,1103.01C865.15,1103.01 1040.71,1155.06 1099.65,1172.54C1112.07,1176.22 1125.3,1176.22 1137.72,1172.54C1196.66,1155.06 1372.22,1103.01 1372.22,1103.01L1372.22,1152.64C1372.22,1159.86 1368.08,1166.44 1361.56,1169.56C1321.89,1188.54 1182.6,1255.19 1134.87,1278.02Z" style="fill:rgb(250,166,1);"/>
                    <g id="Mid" transform="matrix(1.33928,0,0,1.33928,-1996.31,-579.509)">
                        <path d="M2136.56,1203.26L2136.56,1159.79L2325.87,1143.63L2325.87,1143.63L2325.87,1143.63L2325.87,1143.63L2515.18,1159.79L2515.18,1203.26L2325.87,1219.42L2136.56,1203.26Z" style="fill:rgb(250,166,1);"/>
                    </g>
                </g>
                <g transform="matrix(7.76754,0,0,7.76754,-4029.08,-971.452)">
                    <path d="M528.561,182.951C528.689,182.951 528.789,182.993 528.861,183.077C528.933,183.161 528.969,183.259 528.969,183.371C528.969,183.475 528.933,183.563 528.861,183.635C528.789,183.707 528.689,183.743 528.561,183.743L523.509,183.743C523.349,183.743 523.217,183.691 523.113,183.587C523.009,183.483 522.957,183.359 522.957,183.215L522.957,176.627C522.957,176.483 523.009,176.361 523.113,176.261C523.217,176.161 523.349,176.111 523.509,176.111L528.573,176.111C528.693,176.111 528.785,176.147 528.849,176.219C528.913,176.291 528.945,176.379 528.945,176.483C528.945,176.587 528.911,176.679 528.843,176.759C528.775,176.839 528.681,176.879 528.561,176.879L523.821,176.879L523.821,179.579L528.333,179.579C528.445,179.579 528.535,179.617 528.603,179.693C528.671,179.769 528.705,179.863 528.705,179.975C528.705,180.071 528.673,180.157 528.609,180.233C528.545,180.309 528.453,180.347 528.333,180.347L523.821,180.347L523.821,182.951L528.561,182.951Z" style="fill:rgb(255,166,1);fill-rule:nonzero;stroke:rgb(255,166,1);stroke-width:0.08px;"/>
                    <path d="M531.681,183.743C531.377,183.743 531.225,183.595 531.225,183.299L531.225,176.531C531.225,176.395 531.269,176.291 531.357,176.219C531.445,176.147 531.549,176.111 531.669,176.111C531.789,176.111 531.893,176.147 531.981,176.219C532.069,176.291 532.113,176.395 532.113,176.531L532.113,182.951L536.601,182.951C536.745,182.951 536.857,182.989 536.937,183.065C537.017,183.141 537.057,183.235 537.057,183.347C537.057,183.451 537.017,183.543 536.937,183.623C536.857,183.703 536.745,183.743 536.601,183.743L531.681,183.743Z" style="fill:rgb(255,166,1);fill-rule:nonzero;stroke:rgb(255,166,1);stroke-width:0.08px;"/>
                    <path d="M544.341,182.951C544.469,182.951 544.569,182.993 544.641,183.077C544.713,183.161 544.749,183.259 544.749,183.371C544.749,183.475 544.713,183.563 544.641,183.635C544.569,183.707 544.469,183.743 544.341,183.743L539.289,183.743C539.129,183.743 538.997,183.691 538.893,183.587C538.789,183.483 538.737,183.359 538.737,183.215L538.737,176.627C538.737,176.483 538.789,176.361 538.893,176.261C538.997,176.161 539.129,176.111 539.289,176.111L544.353,176.111C544.473,176.111 544.565,176.147 544.629,176.219C544.693,176.291 544.725,176.379 544.725,176.483C544.725,176.587 544.691,176.679 544.623,176.759C544.555,176.839 544.461,176.879 544.341,176.879L539.601,176.879L539.601,179.579L544.113,179.579C544.225,179.579 544.315,179.617 544.383,179.693C544.451,179.769 544.485,179.863 544.485,179.975C544.485,180.071 544.453,180.157 544.389,180.233C544.325,180.309 544.233,180.347 544.113,180.347L539.601,180.347L539.601,182.951L544.341,182.951Z" style="fill:rgb(255,166,1);fill-rule:nonzero;stroke:rgb(255,166,1);stroke-width:0.08px;"/>
                    <path d="M553.677,176.363C553.781,176.195 553.921,176.111 554.097,176.111C554.209,176.111 554.305,176.153 554.385,176.237C554.465,176.321 554.505,176.435 554.505,176.579L554.505,183.311C554.505,183.447 554.463,183.553 554.379,183.629C554.295,183.705 554.193,183.743 554.073,183.743C553.953,183.743 553.849,183.705 553.761,183.629C553.673,183.553 553.629,183.447 553.629,183.311L553.629,178.031L551.181,181.859C551.077,182.027 550.941,182.111 550.773,182.111C550.605,182.111 550.465,182.027 550.353,181.859L547.905,178.055L547.905,183.311C547.905,183.447 547.863,183.553 547.779,183.629C547.695,183.705 547.593,183.743 547.473,183.743C547.353,183.743 547.249,183.705 547.161,183.629C547.073,183.553 547.029,183.447 547.029,183.311L547.029,176.591C547.029,176.447 547.071,176.331 547.155,176.243C547.239,176.155 547.337,176.111 547.449,176.111C547.521,176.111 547.593,176.133 547.665,176.177C547.737,176.221 547.797,176.287 547.845,176.375L550.773,180.923L553.677,176.363Z" style="fill:rgb(255,166,1);fill-rule:nonzero;stroke:rgb(255,166,1);stroke-width:0.08px;"/>
                    <path d="M562.833,182.951C562.961,182.951 563.061,182.993 563.133,183.077C563.205,183.161 563.241,183.259 563.241,183.371C563.241,183.475 563.205,183.563 563.133,183.635C563.061,183.707 562.961,183.743 562.833,183.743L557.781,183.743C557.621,183.743 557.489,183.691 557.385,183.587C557.281,183.483 557.229,183.359 557.229,183.215L557.229,176.627C557.229,176.483 557.281,176.361 557.385,176.261C557.489,176.161 557.621,176.111 557.781,176.111L562.845,176.111C562.965,176.111 563.057,176.147 563.121,176.219C563.185,176.291 563.217,176.379 563.217,176.483C563.217,176.587 563.183,176.679 563.115,176.759C563.047,176.839 562.953,176.879 562.833,176.879L558.093,176.879L558.093,179.579L562.605,179.579C562.717,179.579 562.807,179.617 562.875,179.693C562.943,179.769 562.977,179.863 562.977,179.975C562.977,180.071 562.945,180.157 562.881,180.233C562.817,180.309 562.725,180.347 562.605,180.347L558.093,180.347L558.093,182.951L562.833,182.951Z" style="fill:rgb(255,166,1);fill-rule:nonzero;stroke:rgb(255,166,1);stroke-width:0.08px;"/>
                    <path d="M570.909,176.495C570.909,176.375 570.955,176.281 571.047,176.213C571.139,176.145 571.249,176.111 571.377,176.111C571.497,176.111 571.601,176.145 571.689,176.213C571.777,176.281 571.821,176.375 571.821,176.495L571.821,183.227C571.821,183.387 571.767,183.513 571.659,183.605C571.551,183.697 571.421,183.743 571.269,183.743C571.165,183.743 571.065,183.719 570.969,183.671C570.873,183.623 570.797,183.555 570.741,183.467L566.253,177.515L566.349,179.171L566.349,183.299C566.349,183.443 566.305,183.553 566.217,183.629C566.129,183.705 566.021,183.743 565.893,183.743C565.765,183.743 565.657,183.705 565.569,183.629C565.481,183.553 565.437,183.443 565.437,183.299L565.437,176.639C565.437,176.471 565.483,176.341 565.575,176.249C565.667,176.157 565.781,176.111 565.917,176.111C566.013,176.111 566.105,176.135 566.193,176.183C566.281,176.231 566.353,176.299 566.409,176.387L571.029,182.459L570.909,180.647L570.909,176.495Z" style="fill:rgb(255,166,1);fill-rule:nonzero;stroke:rgb(255,166,1);stroke-width:0.08px;"/>
                    <path d="M579.981,176.111C580.125,176.111 580.235,176.151 580.311,176.231C580.387,176.311 580.425,176.407 580.425,176.519C580.425,176.639 580.387,176.739 580.311,176.819C580.235,176.899 580.125,176.939 579.981,176.939L577.305,176.939L577.317,183.299C577.317,183.435 577.269,183.543 577.173,183.623C577.077,183.703 576.973,183.743 576.861,183.743C576.749,183.743 576.649,183.705 576.561,183.629C576.473,183.553 576.429,183.443 576.429,183.299L576.429,176.939L573.765,176.939C573.637,176.939 573.535,176.897 573.459,176.813C573.383,176.729 573.345,176.631 573.345,176.519C573.345,176.407 573.383,176.311 573.459,176.231C573.535,176.151 573.637,176.111 573.765,176.111L579.981,176.111Z" style="fill:rgb(255,166,1);fill-rule:nonzero;stroke:rgb(255,166,1);stroke-width:0.08px;"/>
                    <path d="M585.105,183.863C584.377,183.863 583.719,183.699 583.131,183.371C582.543,183.043 582.077,182.571 581.733,181.955C581.389,181.339 581.217,180.619 581.217,179.795C581.217,178.955 581.413,178.249 581.805,177.677C582.197,177.105 582.685,176.681 583.269,176.405C583.853,176.129 584.433,175.991 585.009,175.991C585.593,175.991 586.189,176.129 586.797,176.405C587.405,176.681 587.915,177.105 588.327,177.677C588.739,178.249 588.945,178.955 588.945,179.795C588.945,180.603 588.769,181.315 588.417,181.931C588.065,182.547 587.597,183.023 587.013,183.359C586.429,183.695 585.793,183.863 585.105,183.863ZM582.117,179.831C582.117,180.471 582.247,181.035 582.507,181.523C582.767,182.011 583.125,182.387 583.581,182.651C584.037,182.915 584.545,183.047 585.105,183.047C585.649,183.047 586.145,182.917 586.593,182.657C587.041,182.397 587.397,182.025 587.661,181.541C587.925,181.057 588.057,180.487 588.057,179.831C588.057,179.151 587.899,178.581 587.583,178.121C587.267,177.661 586.877,177.325 586.413,177.113C585.949,176.901 585.489,176.795 585.033,176.795C584.577,176.795 584.127,176.897 583.683,177.101C583.239,177.305 582.867,177.635 582.567,178.091C582.267,178.547 582.117,179.127 582.117,179.831Z" style="fill:rgb(255,166,1);fill-rule:nonzero;stroke:rgb(255,166,1);stroke-width:0.08px;"/>
                </g>
                <g transform="matrix(0.807629,0,0,0.807629,-1134.6,208.814)">
                    <path d="M1568.32,318.917C1568.64,318.413 1569.06,318.161 1569.58,318.161C1569.92,318.161 1570.21,318.287 1570.45,318.539C1570.69,318.791 1570.81,319.133 1570.81,319.565L1570.81,339.761C1570.81,340.169 1570.68,340.487 1570.43,340.715C1570.18,340.943 1569.87,341.057 1569.51,341.057C1569.15,341.057 1568.84,340.943 1568.58,340.715C1568.31,340.487 1568.18,340.169 1568.18,339.761L1568.18,323.921L1560.84,335.405C1560.52,335.909 1560.12,336.161 1559.61,336.161C1559.11,336.161 1558.69,335.909 1558.35,335.405L1551.01,323.993L1551.01,339.761C1551.01,340.169 1550.88,340.487 1550.63,340.715C1550.38,340.943 1550.07,341.057 1549.71,341.057C1549.35,341.057 1549.04,340.943 1548.78,340.715C1548.51,340.487 1548.38,340.169 1548.38,339.761L1548.38,319.601C1548.38,319.169 1548.51,318.821 1548.76,318.557C1549.01,318.293 1549.3,318.161 1549.64,318.161C1549.86,318.161 1550.07,318.227 1550.29,318.359C1550.5,318.491 1550.68,318.689 1550.83,318.953L1559.61,332.597L1568.32,318.917Z" style="fill-rule:nonzero;stroke:rgb(4,2,0);stroke-width:0.87px;"/>
                    <path d="M1592.48,341.417C1590.3,341.417 1588.32,340.925 1586.56,339.941C1584.79,338.957 1583.4,337.541 1582.36,335.693C1581.33,333.845 1580.82,331.685 1580.82,329.213C1580.82,326.693 1581.4,324.575 1582.58,322.859C1583.76,321.143 1585.22,319.871 1586.97,319.043C1588.72,318.215 1590.46,317.801 1592.19,317.801C1593.94,317.801 1595.73,318.215 1597.56,319.043C1599.38,319.871 1600.91,321.143 1602.15,322.859C1603.38,324.575 1604,326.693 1604,329.213C1604,331.637 1603.47,333.773 1602.42,335.621C1601.36,337.469 1599.96,338.897 1598.2,339.905C1596.45,340.913 1594.54,341.417 1592.48,341.417ZM1583.52,329.321C1583.52,331.241 1583.91,332.933 1584.69,334.397C1585.47,335.861 1586.54,336.989 1587.91,337.781C1589.28,338.573 1590.8,338.969 1592.48,338.969C1594.11,338.969 1595.6,338.579 1596.94,337.799C1598.29,337.019 1599.36,335.903 1600.15,334.451C1600.94,332.999 1601.34,331.289 1601.34,329.321C1601.34,327.281 1600.86,325.571 1599.91,324.191C1598.97,322.811 1597.8,321.803 1596.4,321.167C1595.01,320.531 1593.63,320.213 1592.26,320.213C1590.9,320.213 1589.55,320.519 1588.21,321.131C1586.88,321.743 1585.77,322.733 1584.87,324.101C1583.97,325.469 1583.52,327.209 1583.52,329.321Z" style="fill-rule:nonzero;stroke:rgb(4,2,0);stroke-width:0.87px;"/>
                    <path d="M1614.4,341.057C1613.95,341.057 1613.56,340.901 1613.23,340.589C1612.91,340.277 1612.75,339.917 1612.75,339.509L1612.75,319.673C1612.75,319.265 1612.91,318.911 1613.23,318.611C1613.56,318.311 1613.95,318.161 1614.4,318.161L1622.25,318.161C1624.53,318.161 1626.48,318.701 1628.1,319.781C1629.72,320.861 1630.94,322.277 1631.76,324.029C1632.57,325.781 1632.98,327.641 1632.98,329.609C1632.98,331.577 1632.57,333.437 1631.76,335.189C1630.94,336.941 1629.72,338.357 1628.1,339.437C1626.48,340.517 1624.53,341.057 1622.25,341.057L1614.4,341.057ZM1622.25,338.717C1623.98,338.717 1625.45,338.285 1626.66,337.421C1627.87,336.557 1628.79,335.429 1629.42,334.037C1630.04,332.645 1630.35,331.169 1630.35,329.609C1630.35,328.049 1630.04,326.567 1629.42,325.163C1628.79,323.759 1627.87,322.625 1626.66,321.761C1625.45,320.897 1623.98,320.465 1622.25,320.465L1615.34,320.465L1615.34,338.717L1622.25,338.717Z" style="fill-rule:nonzero;stroke:rgb(4,2,0);stroke-width:0.87px;"/>
                    <path d="M1661.24,319.133C1661.24,318.701 1661.37,318.371 1661.64,318.143C1661.9,317.915 1662.22,317.801 1662.61,317.801C1662.97,317.801 1663.28,317.915 1663.54,318.143C1663.81,318.371 1663.94,318.689 1663.94,319.097L1663.94,331.013C1663.94,333.221 1663.44,335.111 1662.43,336.683C1661.42,338.255 1660.11,339.437 1658.49,340.229C1656.87,341.021 1655.14,341.417 1653.32,341.417C1651.5,341.417 1649.77,341.021 1648.15,340.229C1646.53,339.437 1645.22,338.255 1644.21,336.683C1643.2,335.111 1642.7,333.221 1642.7,331.013L1642.7,318.989C1642.7,318.605 1642.83,318.311 1643.1,318.107C1643.36,317.903 1643.67,317.801 1644.03,317.801C1644.42,317.801 1644.74,317.909 1645,318.125C1645.27,318.341 1645.4,318.641 1645.4,319.025L1645.4,331.013C1645.4,332.669 1645.77,334.085 1646.52,335.261C1647.26,336.437 1648.24,337.325 1649.45,337.925C1650.66,338.525 1651.95,338.825 1653.32,338.825C1654.69,338.825 1655.98,338.525 1657.19,337.925C1658.4,337.325 1659.38,336.437 1660.12,335.261C1660.87,334.085 1661.24,332.669 1661.24,331.013L1661.24,319.133Z" style="fill-rule:nonzero;stroke:rgb(4,2,0);stroke-width:0.87px;"/>
                    <path d="M1676.5,341.057C1675.59,341.057 1675.14,340.613 1675.14,339.725L1675.14,319.421C1675.14,319.013 1675.27,318.701 1675.53,318.485C1675.8,318.269 1676.11,318.161 1676.47,318.161C1676.83,318.161 1677.14,318.269 1677.4,318.485C1677.67,318.701 1677.8,319.013 1677.8,319.421L1677.8,338.681L1691.26,338.681C1691.7,338.681 1692.03,338.795 1692.27,339.023C1692.51,339.251 1692.63,339.533 1692.63,339.869C1692.63,340.181 1692.51,340.457 1692.27,340.697C1692.03,340.937 1691.7,341.057 1691.26,341.057L1676.5,341.057Z" style="fill-rule:nonzero;stroke:rgb(4,2,0);stroke-width:0.87px;"/>
                    <path d="M1711.82,317.801C1712.35,317.801 1712.73,318.029 1712.97,318.485L1723.59,339.329C1723.69,339.521 1723.74,339.713 1723.74,339.905C1723.74,340.241 1723.6,340.517 1723.34,340.733C1723.08,340.949 1722.75,341.057 1722.37,341.057C1721.82,341.057 1721.42,340.829 1721.18,340.373L1718.59,335.261L1705.05,335.261L1702.39,340.409C1702.15,340.841 1701.79,341.057 1701.31,341.057C1700.95,341.057 1700.62,340.937 1700.34,340.697C1700.05,340.457 1699.9,340.169 1699.9,339.833C1699.9,339.689 1699.94,339.533 1700.01,339.365L1710.63,318.485C1710.73,318.269 1710.89,318.101 1711.12,317.981C1711.35,317.861 1711.58,317.801 1711.82,317.801ZM1706.13,332.993L1717.47,332.993L1711.82,321.653L1706.13,332.993Z" style="fill-rule:nonzero;stroke:rgb(4,2,0);stroke-width:0.87px;"/>
                    <path d="M1735.18,339.797C1735.18,340.181 1735.05,340.487 1734.79,340.715C1734.52,340.943 1734.21,341.057 1733.85,341.057C1733.52,341.057 1733.22,340.949 1732.95,340.733C1732.69,340.517 1732.56,340.217 1732.56,339.833L1732.56,319.421C1732.56,319.037 1732.68,318.731 1732.92,318.503C1733.16,318.275 1733.48,318.161 1733.89,318.161L1742.42,318.161C1744.44,318.161 1746.15,318.503 1747.55,319.187C1748.95,319.871 1750.02,320.801 1750.74,321.977C1751.46,323.153 1751.82,324.461 1751.82,325.901C1751.82,327.773 1751.29,329.321 1750.23,330.545C1749.18,331.769 1747.57,332.561 1745.41,332.921L1750.92,338.861C1751.23,339.173 1751.38,339.497 1751.38,339.833C1751.38,340.169 1751.25,340.457 1750.99,340.697C1750.72,340.937 1750.42,341.057 1750.09,341.057C1749.73,341.057 1749.4,340.901 1749.12,340.589L1742.17,333.065L1735.18,333.065L1735.18,339.797ZM1742.46,330.797C1744.66,330.797 1746.33,330.353 1747.46,329.465C1748.59,328.577 1749.15,327.437 1749.15,326.045C1749.13,324.461 1748.52,323.153 1747.32,322.121C1746.12,321.089 1744.5,320.573 1742.46,320.573L1735.18,320.573L1735.18,330.797L1742.46,330.797Z" style="fill-rule:nonzero;stroke:rgb(4,2,0);stroke-width:0.87px;"/>
                    <path d="M1785.98,317.765C1789.84,317.765 1792.83,318.953 1794.94,321.329C1795.35,321.809 1795.56,322.289 1795.56,322.769C1795.56,323.273 1795.36,323.693 1794.98,324.029C1794.6,324.365 1794.14,324.533 1793.61,324.533C1792.99,324.533 1792.44,324.281 1791.96,323.777C1791.12,322.865 1790.22,322.247 1789.26,321.923C1788.3,321.599 1787.19,321.437 1785.94,321.437C1784.43,321.437 1783.11,321.767 1781.97,322.427C1780.83,323.087 1779.94,324.011 1779.3,325.199C1778.67,326.387 1778.35,327.761 1778.35,329.321C1778.35,331.001 1778.67,332.477 1779.32,333.749C1779.97,335.021 1780.88,336.005 1782.06,336.701C1783.23,337.397 1784.59,337.745 1786.12,337.745C1787.23,337.745 1788.34,337.463 1789.47,336.899C1790.6,336.335 1791.51,335.633 1792.21,334.793C1792.81,334.097 1793.46,333.749 1794.15,333.749C1794.66,333.749 1795.09,333.917 1795.47,334.253C1795.84,334.589 1796.02,335.009 1796.02,335.513C1796.02,335.969 1795.84,336.449 1795.48,336.953C1794.52,338.321 1793.16,339.407 1791.4,340.211C1789.63,341.015 1787.85,341.417 1786.05,341.417C1783.7,341.417 1781.63,340.913 1779.84,339.905C1778.05,338.897 1776.67,337.481 1775.68,335.657C1774.7,333.833 1774.21,331.721 1774.21,329.321C1774.21,327.041 1774.72,325.025 1775.76,323.273C1776.79,321.521 1778.2,320.165 1779.99,319.205C1781.77,318.245 1783.77,317.765 1785.98,317.765Z" style="fill-rule:nonzero;stroke:rgb(4,2,0);stroke-width:0.87px;"/>
                    <path d="M1806.64,341.057C1805.9,341.057 1805.35,340.895 1805.01,340.571C1804.66,340.247 1804.48,339.761 1804.48,339.113L1804.48,319.961C1804.48,319.385 1804.69,318.935 1805.11,318.611C1805.53,318.287 1806.03,318.125 1806.61,318.125C1807.16,318.125 1807.65,318.287 1808.07,318.611C1808.49,318.935 1808.7,319.385 1808.7,319.961L1808.7,337.457L1820.5,337.457C1821.18,337.457 1821.7,337.637 1822.09,337.997C1822.47,338.357 1822.66,338.777 1822.66,339.257C1822.66,339.761 1822.47,340.187 1822.09,340.535C1821.7,340.883 1821.18,341.057 1820.5,341.057L1806.64,341.057Z" style="fill-rule:nonzero;stroke:rgb(4,2,0);stroke-width:0.87px;"/>
                    <path d="M1851.03,329.609C1851.03,331.937 1850.55,333.995 1849.57,335.783C1848.6,337.571 1847.23,338.957 1845.47,339.941C1843.71,340.925 1841.66,341.417 1839.33,341.417C1837,341.417 1834.95,340.925 1833.16,339.941C1831.37,338.957 1829.98,337.571 1829,335.783C1828.02,333.995 1827.52,331.937 1827.52,329.609C1827.52,327.281 1828.02,325.217 1829,323.417C1829.98,321.617 1831.37,320.225 1833.16,319.241C1834.95,318.257 1837,317.765 1839.33,317.765C1841.64,317.765 1843.68,318.257 1845.45,319.241C1847.23,320.225 1848.6,321.611 1849.57,323.399C1850.55,325.187 1851.03,327.257 1851.03,329.609ZM1839.33,337.745C1840.82,337.745 1842.13,337.403 1843.26,336.719C1844.38,336.035 1845.26,335.081 1845.88,333.857C1846.51,332.633 1846.82,331.217 1846.82,329.609C1846.82,328.001 1846.51,326.579 1845.88,325.343C1845.26,324.107 1844.38,323.147 1843.26,322.463C1842.13,321.779 1840.82,321.437 1839.33,321.437C1837.84,321.437 1836.52,321.779 1835.37,322.463C1834.22,323.147 1833.33,324.107 1832.71,325.343C1832.08,326.579 1831.77,328.001 1831.77,329.609C1831.77,331.217 1832.08,332.633 1832.71,333.857C1833.33,335.081 1834.22,336.035 1835.37,336.719C1836.52,337.403 1837.84,337.745 1839.33,337.745Z" style="fill-rule:nonzero;stroke:rgb(4,2,0);stroke-width:0.87px;"/>
                    <path d="M1878.1,320.033C1878.1,319.433 1878.31,318.965 1878.73,318.629C1879.15,318.293 1879.65,318.125 1880.23,318.125C1880.8,318.125 1881.3,318.287 1881.7,318.611C1882.11,318.935 1882.32,319.397 1882.32,319.997L1882.32,330.941C1882.32,333.005 1881.87,334.829 1880.97,336.413C1880.07,337.997 1878.8,339.227 1877.17,340.103C1875.54,340.979 1873.64,341.417 1871.48,341.417C1869.32,341.417 1867.42,340.979 1865.79,340.103C1864.16,339.227 1862.89,337.997 1861.99,336.413C1861.09,334.829 1860.64,333.005 1860.64,330.941L1860.64,319.925C1860.64,319.349 1860.85,318.905 1861.26,318.593C1861.66,318.281 1862.16,318.125 1862.73,318.125C1863.33,318.125 1863.84,318.281 1864.26,318.593C1864.68,318.905 1864.89,319.361 1864.89,319.961L1864.89,330.941C1864.89,332.933 1865.49,334.547 1866.69,335.783C1867.89,337.019 1869.48,337.637 1871.44,337.637C1873.44,337.637 1875.04,337.019 1876.27,335.783C1877.49,334.547 1878.1,332.933 1878.1,330.941L1878.1,320.033Z" style="fill-rule:nonzero;stroke:rgb(4,2,0);stroke-width:0.87px;"/>
                    <path d="M1901.58,318.125C1903.74,318.125 1905.64,318.605 1907.28,319.565C1908.93,320.525 1910.2,321.869 1911.12,323.597C1912.03,325.325 1912.48,327.329 1912.48,329.609C1912.48,331.889 1912.03,333.893 1911.12,335.621C1910.2,337.349 1908.93,338.687 1907.28,339.635C1905.64,340.583 1903.74,341.057 1901.58,341.057L1894.16,341.057C1893.51,341.057 1892.95,340.847 1892.49,340.427C1892.02,340.007 1891.78,339.509 1891.78,338.933L1891.78,320.213C1891.78,319.637 1892.02,319.145 1892.49,318.737C1892.95,318.329 1893.51,318.125 1894.16,318.125L1901.58,318.125ZM1901.58,337.493C1902.92,337.493 1904.1,337.169 1905.12,336.521C1906.14,335.873 1906.93,334.949 1907.5,333.749C1908.06,332.549 1908.34,331.169 1908.34,329.609C1908.34,328.049 1908.06,326.663 1907.5,325.451C1906.93,324.239 1906.14,323.303 1905.1,322.643C1904.07,321.983 1902.9,321.653 1901.58,321.653L1895.89,321.653L1895.89,337.493L1901.58,337.493Z" style="fill-rule:nonzero;stroke:rgb(4,2,0);stroke-width:0.87px;"/>
                </g>
            </g>
        </g>
    </g>
</svg>
