<?xml version="1.0" encoding="UTF-8" standalone="no"?>
<!DOCTYPE svg PUBLIC "-//W3C//DTD SVG 1.1//EN" "http://www.w3.org/Graphics/SVG/1.1/DTD/svg11.dtd">
<svg width="100%" height="100%" viewBox="0 0 733 615" version="1.1" xmlns="http://www.w3.org/2000/svg" xmlns:xlink="http://www.w3.org/1999/xlink" xml:space="preserve" xmlns:serif="http://www.serif.com/" style="fill-rule:evenodd;clip-rule:evenodd;stroke-linejoin:round;stroke-miterlimit:2;">
    <g transform="matrix(1,0,0,1,0.0223794,-4.30606e-05)">
        <g transform="matrix(1.42665,0,0,1.42665,-46.672,-87.178)">
            <g>
                <g id="Full-logo" serif:id="Full logo" transform="matrix(0.571043,0,0,0.571043,-349.519,-352.369)">
                    <path id="Top" d="M1102.5,727.744C1112.73,722.847 1124.63,722.847 1134.87,727.744C1182.6,750.579 1321.89,817.227 1361.56,836.21C1368.08,839.326 1372.22,845.904 1372.22,853.123L1372.22,902.756C1372.22,902.756 1196.66,850.703 1137.72,833.226C1125.3,829.543 1112.07,829.543 1099.65,833.226C1040.71,850.703 865.15,902.756 865.15,902.756L865.15,853.123C865.15,845.904 869.294,839.326 875.807,836.21C915.48,817.227 1054.77,750.579 1102.5,727.744Z" style="fill:rgb(250,166,1);"/>
                    <path id="Bottom" d="M1134.87,1278.02C1124.63,1282.92 1112.73,1282.92 1102.5,1278.02C1054.77,1255.19 915.48,1188.54 875.807,1169.56C869.294,1166.44 865.15,1159.86 865.15,1152.64L865.15,1103.01C865.15,1103.01 1040.71,1155.06 1099.65,1172.54C1112.07,1176.22 1125.3,1176.22 1137.72,1172.54C1196.66,1155.06 1372.22,1103.01 1372.22,1103.01L1372.22,1152.64C1372.22,1159.86 1368.08,1166.44 1361.56,1169.56C1321.89,1188.54 1182.6,1255.19 1134.87,1278.02Z" style="fill:rgb(250,166,1);"/>
                    <g id="Mid" transform="matrix(1.33928,0,0,1.33928,-1996.31,-579.509)">
                        <path d="M2136.56,1203.26L2136.56,1159.79L2325.87,1143.63L2515.18,1159.79L2515.18,1203.26L2325.87,1219.42L2136.56,1203.26Z" style="fill:rgb(250,166,1);"/>
                    </g>
                </g>
                <g transform="matrix(7.76754,0,0,7.76754,-4029.08,-971.452)">
                    <path d="M528.561,182.951C528.689,182.951 528.789,182.993 528.861,183.077C528.933,183.161 528.969,183.259 528.969,183.371C528.969,183.475 528.933,183.563 528.861,183.635C528.789,183.707 528.689,183.743 528.561,183.743L523.509,183.743C523.349,183.743 523.217,183.691 523.113,183.587C523.009,183.483 522.957,183.359 522.957,183.215L522.957,176.627C522.957,176.483 523.009,176.361 523.113,176.261C523.217,176.161 523.349,176.111 523.509,176.111L528.573,176.111C528.693,176.111 528.785,176.147 528.849,176.219C528.913,176.291 528.945,176.379 528.945,176.483C528.945,176.587 528.911,176.679 528.843,176.759C528.775,176.839 528.681,176.879 528.561,176.879L523.821,176.879L523.821,179.579L528.333,179.579C528.445,179.579 528.535,179.617 528.603,179.693C528.671,179.769 528.705,179.863 528.705,179.975C528.705,180.071 528.673,180.157 528.609,180.233C528.545,180.309 528.453,180.347 528.333,180.347L523.821,180.347L523.821,182.951L528.561,182.951Z" style="fill:rgb(255,166,1);fill-rule:nonzero;stroke:rgb(255,166,1);stroke-width:0.08px;"/>
                    <path d="M531.681,183.743C531.377,183.743 531.225,183.595 531.225,183.299L531.225,176.531C531.225,176.395 531.269,176.291 531.357,176.219C531.445,176.147 531.549,176.111 531.669,176.111C531.789,176.111 531.893,176.147 531.981,176.219C532.069,176.291 532.113,176.395 532.113,176.531L532.113,182.951L536.601,182.951C536.745,182.951 536.857,182.989 536.937,183.065C537.017,183.141 537.057,183.235 537.057,183.347C537.057,183.451 537.017,183.543 536.937,183.623C536.857,183.703 536.745,183.743 536.601,183.743L531.681,183.743Z" style="fill:rgb(255,166,1);fill-rule:nonzero;stroke:rgb(255,166,1);stroke-width:0.08px;"/>
                    <path d="M544.341,182.951C544.469,182.951 544.569,182.993 544.641,183.077C544.713,183.161 544.749,183.259 544.749,183.371C544.749,183.475 544.713,183.563 544.641,183.635C544.569,183.707 544.469,183.743 544.341,183.743L539.289,183.743C539.129,183.743 538.997,183.691 538.893,183.587C538.789,183.483 538.737,183.359 538.737,183.215L538.737,176.627C538.737,176.483 538.789,176.361 538.893,176.261C538.997,176.161 539.129,176.111 539.289,176.111L544.353,176.111C544.473,176.111 544.565,176.147 544.629,176.219C544.693,176.291 544.725,176.379 544.725,176.483C544.725,176.587 544.691,176.679 544.623,176.759C544.555,176.839 544.461,176.879 544.341,176.879L539.601,176.879L539.601,179.579L544.113,179.579C544.225,179.579 544.315,179.617 544.383,179.693C544.451,179.769 544.485,179.863 544.485,179.975C544.485,180.071 544.453,180.157 544.389,180.233C544.325,180.309 544.233,180.347 544.113,180.347L539.601,180.347L539.601,182.951L544.341,182.951Z" style="fill:rgb(255,166,1);fill-rule:nonzero;stroke:rgb(255,166,1);stroke-width:0.08px;"/>
                    <path d="M553.677,176.363C553.781,176.195 553.921,176.111 554.097,176.111C554.209,176.111 554.305,176.153 554.385,176.237C554.465,176.321 554.505,176.435 554.505,176.579L554.505,183.311C554.505,183.447 554.463,183.553 554.379,183.629C554.295,183.705 554.193,183.743 554.073,183.743C553.953,183.743 553.849,183.705 553.761,183.629C553.673,183.553 553.629,183.447 553.629,183.311L553.629,178.031L551.181,181.859C551.077,182.027 550.941,182.111 550.773,182.111C550.605,182.111 550.465,182.027 550.353,181.859L547.905,178.055L547.905,183.311C547.905,183.447 547.863,183.553 547.779,183.629C547.695,183.705 547.593,183.743 547.473,183.743C547.353,183.743 547.249,183.705 547.161,183.629C547.073,183.553 547.029,183.447 547.029,183.311L547.029,176.591C547.029,176.447 547.071,176.331 547.155,176.243C547.239,176.155 547.337,176.111 547.449,176.111C547.521,176.111 547.593,176.133 547.665,176.177C547.737,176.221 547.797,176.287 547.845,176.375L550.773,180.923L553.677,176.363Z" style="fill:rgb(255,166,1);fill-rule:nonzero;stroke:rgb(255,166,1);stroke-width:0.08px;"/>
                    <path d="M562.833,182.951C562.961,182.951 563.061,182.993 563.133,183.077C563.205,183.161 563.241,183.259 563.241,183.371C563.241,183.475 563.205,183.563 563.133,183.635C563.061,183.707 562.961,183.743 562.833,183.743L557.781,183.743C557.621,183.743 557.489,183.691 557.385,183.587C557.281,183.483 557.229,183.359 557.229,183.215L557.229,176.627C557.229,176.483 557.281,176.361 557.385,176.261C557.489,176.161 557.621,176.111 557.781,176.111L562.845,176.111C562.965,176.111 563.057,176.147 563.121,176.219C563.185,176.291 563.217,176.379 563.217,176.483C563.217,176.587 563.183,176.679 563.115,176.759C563.047,176.839 562.953,176.879 562.833,176.879L558.093,176.879L558.093,179.579L562.605,179.579C562.717,179.579 562.807,179.617 562.875,179.693C562.943,179.769 562.977,179.863 562.977,179.975C562.977,180.071 562.945,180.157 562.881,180.233C562.817,180.309 562.725,180.347 562.605,180.347L558.093,180.347L558.093,182.951L562.833,182.951Z" style="fill:rgb(255,166,1);fill-rule:nonzero;stroke:rgb(255,166,1);stroke-width:0.08px;"/>
                    <path d="M570.909,176.495C570.909,176.375 570.955,176.281 571.047,176.213C571.139,176.145 571.249,176.111 571.377,176.111C571.497,176.111 571.601,176.145 571.689,176.213C571.777,176.281 571.821,176.375 571.821,176.495L571.821,183.227C571.821,183.387 571.767,183.513 571.659,183.605C571.551,183.697 571.421,183.743 571.269,183.743C571.165,183.743 571.065,183.719 570.969,183.671C570.873,183.623 570.797,183.555 570.741,183.467L566.253,177.515L566.349,179.171L566.349,183.299C566.349,183.443 566.305,183.553 566.217,183.629C566.129,183.705 566.021,183.743 565.893,183.743C565.765,183.743 565.657,183.705 565.569,183.629C565.481,183.553 565.437,183.443 565.437,183.299L565.437,176.639C565.437,176.471 565.483,176.341 565.575,176.249C565.667,176.157 565.781,176.111 565.917,176.111C566.013,176.111 566.105,176.135 566.193,176.183C566.281,176.231 566.353,176.299 566.409,176.387L571.029,182.459L570.909,180.647L570.909,176.495Z" style="fill:rgb(255,166,1);fill-rule:nonzero;stroke:rgb(255,166,1);stroke-width:0.08px;"/>
                    <path d="M579.981,176.111C580.125,176.111 580.235,176.151 580.311,176.231C580.387,176.311 580.425,176.407 580.425,176.519C580.425,176.639 580.387,176.739 580.311,176.819C580.235,176.899 580.125,176.939 579.981,176.939L577.305,176.939L577.317,183.299C577.317,183.435 577.269,183.543 577.173,183.623C577.077,183.703 576.973,183.743 576.861,183.743C576.749,183.743 576.649,183.705 576.561,183.629C576.473,183.553 576.429,183.443 576.429,183.299L576.429,176.939L573.765,176.939C573.637,176.939 573.535,176.897 573.459,176.813C573.383,176.729 573.345,176.631 573.345,176.519C573.345,176.407 573.383,176.311 573.459,176.231C573.535,176.151 573.637,176.111 573.765,176.111L579.981,176.111Z" style="fill:rgb(255,166,1);fill-rule:nonzero;stroke:rgb(255,166,1);stroke-width:0.08px;"/>
                    <path d="M585.105,183.863C584.377,183.863 583.719,183.699 583.131,183.371C582.543,183.043 582.077,182.571 581.733,181.955C581.389,181.339 581.217,180.619 581.217,179.795C581.217,178.955 581.413,178.249 581.805,177.677C582.197,177.105 582.685,176.681 583.269,176.405C583.853,176.129 584.433,175.991 585.009,175.991C585.593,175.991 586.189,176.129 586.797,176.405C587.405,176.681 587.915,177.105 588.327,177.677C588.739,178.249 588.945,178.955 588.945,179.795C588.945,180.603 588.769,181.315 588.417,181.931C588.065,182.547 587.597,183.023 587.013,183.359C586.429,183.695 585.793,183.863 585.105,183.863ZM582.117,179.831C582.117,180.471 582.247,181.035 582.507,181.523C582.767,182.011 583.125,182.387 583.581,182.651C584.037,182.915 584.545,183.047 585.105,183.047C585.649,183.047 586.145,182.917 586.593,182.657C587.041,182.397 587.397,182.025 587.661,181.541C587.925,181.057 588.057,180.487 588.057,179.831C588.057,179.151 587.899,178.581 587.583,178.121C587.267,177.661 586.877,177.325 586.413,177.113C585.949,176.901 585.489,176.795 585.033,176.795C584.577,176.795 584.127,176.897 583.683,177.101C583.239,177.305 582.867,177.635 582.567,178.091C582.267,178.547 582.117,179.127 582.117,179.831Z" style="fill:rgb(255,166,1);fill-rule:nonzero;stroke:rgb(255,166,1);stroke-width:0.08px;"/>
                </g>
                <g transform="matrix(0.772756,0,0,0.772756,100.974,18.7447)">
                    <text x="254.123px" y="605px" style="font-family:'Hero-Bold', 'Hero';font-weight:700;font-size:38.431px;">Ready. Se<tspan x="435.747px " y="605px ">t</tspan>. Cloud.</text>
                </g>
            </g>
        </g>
    </g>
</svg>
