<?xml version="1.0" encoding="utf-8"?>
<!-- Generator: Adobe Illustrator 27.2.0, SVG Export Plug-In . SVG Version: 6.00 Build 0)  -->
<svg version="1.1" id="Layer_1" xmlns="http://www.w3.org/2000/svg" xmlns:xlink="http://www.w3.org/1999/xlink" x="0px" y="0px"
	 viewBox="0 0 4092.7 1462.4" style="enable-background:new 0 0 4092.7 1462.4;" xml:space="preserve">
<style type="text/css">
	.st0{fill-rule:evenodd;clip-rule:evenodd;}
</style>
<g>
	<g>
		<g transform="matrix(1,0,0,1,-2136.56,-973.343)">
			<g transform="matrix(0.746669,0,0,0.746669,1490.58,432.701)">
				<g id="Full-logo_00000180355313181279536090000010035408511956170673_">
					<path id="Top_00000151524052875337096520000000749318725239309742_" class="st0" d="M1708.2,1188.4c16.7-8,36.1-8,52.9,0
						c78,37.3,305.4,146.1,370.2,177.1c10.6,5.1,17.4,15.8,17.4,27.6v81.1c0,0-286.7-85-383-113.6c-20.3-6-41.9-6-62.2,0
						c-96.3,28.5-383,113.6-383,113.6v-81.1c0-11.8,6.8-22.5,17.4-27.6C1402.7,1334.6,1630.2,1225.7,1708.2,1188.4z"/>
					<path id="Bottom_00000037663894990951297580000004647599169507934356_" class="st0" d="M1761,2087.1c-16.7,8-36.2,8-52.9,0
						c-78-37.3-305.4-146.1-370.2-177.1c-10.6-5.1-17.4-15.8-17.4-27.6v-81.1c0,0,286.7,85,383,113.6c20.3,6,41.9,6,62.2,0
						c96.3-28.5,383-113.6,383-113.6v81.1c0,11.8-6.8,22.5-17.4,27.6C2066.5,1941,1839,2049.9,1761,2087.1z"/>
					<g id="Mid_00000135682472964565350440000015325575554331137169_" transform="matrix(1.33928,0,0,1.33928,-1996.31,-579.509)">
						<path class="st0" d="M2476.6,1691.1v-71l309.2-26.4l0,0l0,0l0,0l309.2,26.4v71l-309.2,26.4L2476.6,1691.1z"/>
					</g>
				</g>
			</g>
		</g>
		<g>
			<path d="M1437.1,806.9c5.3,0,9.4,1.7,12.4,5.2c3,3.5,4.5,7.5,4.5,12.1c0,4.3-1.5,7.9-4.5,10.9c-3,3-7.1,4.5-12.4,4.5h-208.2
				c-6.6,0-12-2.1-16.3-6.4c-4.3-4.3-6.4-9.4-6.4-15.3V546.2c0-5.9,2.1-11,6.4-15.1c4.3-4.1,9.7-6.2,16.3-6.2h208.7
				c4.9,0,8.7,1.5,11.4,4.5c2.6,3,4,6.6,4,10.9c0,4.3-1.4,8.1-4.2,11.4c-2.8,3.3-6.7,4.9-11.6,4.9h-195.4v111.3h186
				c4.6,0,8.3,1.6,11.1,4.7c2.8,3.1,4.2,7,4.2,11.6c0,4-1.3,7.5-4,10.6c-2.6,3.1-6.4,4.7-11.4,4.7h-186v107.3H1437.1z"/>
			<path d="M1522.2,821.2V542.3c0-5.6,1.8-9.9,5.4-12.9c3.6-3,7.9-4.5,12.9-4.5c4.9,0,9.2,1.5,12.9,4.5c3.6,3,5.4,7.3,5.4,12.9
				v264.6h185c5.9,0,10.5,1.6,13.8,4.7c3.3,3.1,4.9,7,4.9,11.6c0,4.3-1.7,8.1-4.9,11.4c-3.3,3.3-7.9,4.9-13.8,4.9H1541
				C1528.4,839.5,1522.2,833.4,1522.2,821.2z"/>
			<path d="M2038,806.9c5.3,0,9.4,1.7,12.4,5.2c3,3.5,4.5,7.5,4.5,12.1c0,4.3-1.5,7.9-4.5,10.9c-3,3-7.1,4.5-12.4,4.5h-208.2
				c-6.6,0-12-2.1-16.3-6.4c-4.3-4.3-6.4-9.4-6.4-15.3V546.2c0-5.9,2.1-11,6.4-15.1c4.3-4.1,9.7-6.2,16.3-6.2h208.7
				c4.9,0,8.7,1.5,11.4,4.5c2.6,3,4,6.6,4,10.9c0,4.3-1.4,8.1-4.2,11.4c-2.8,3.3-6.7,4.9-11.6,4.9h-195.4v111.3h186
				c4.6,0,8.3,1.6,11.1,4.7c2.8,3.1,4.2,7,4.2,11.6c0,4-1.3,7.5-4,10.6c-2.6,3.1-6.4,4.7-11.4,4.7h-186v107.3H2038z"/>
			<path d="M2415.4,525c4.6,0,8.6,1.7,11.9,5.2c3.3,3.5,4.9,8.2,4.9,14.1v277.5c0,5.6-1.7,10-5.2,13.1c-3.5,3.1-7.7,4.7-12.6,4.7
				c-4.9,0-9.2-1.6-12.9-4.7c-3.6-3.1-5.4-7.5-5.4-13.1V604.1l-100.9,157.8c-4.3,6.9-9.9,10.4-16.8,10.4c-6.9,0-12.7-3.5-17.3-10.4
				l-100.9-156.8v216.6c0,5.6-1.7,10-5.2,13.1c-3.5,3.1-7.7,4.7-12.6,4.7c-4.9,0-9.2-1.6-12.9-4.7c-3.6-3.1-5.4-7.5-5.4-13.1v-277
				c0-5.9,1.7-10.7,5.2-14.3c3.5-3.6,7.5-5.4,12.1-5.4c3,0,5.9,0.9,8.9,2.7c3,1.8,5.4,4.5,7.4,8.2l120.7,187.4l119.7-187.9
				C2402.4,528.4,2408.1,525,2415.4,525z"/>
			<path d="M2750.7,806.9c5.3,0,9.4,1.7,12.4,5.2c3,3.5,4.5,7.5,4.5,12.1c0,4.3-1.5,7.9-4.5,10.9c-3,3-7.1,4.5-12.4,4.5h-208.2
				c-6.6,0-12-2.1-16.3-6.4c-4.3-4.3-6.4-9.4-6.4-15.3V546.2c0-5.9,2.1-11,6.4-15.1c4.3-4.1,9.7-6.2,16.3-6.2h208.7
				c4.9,0,8.7,1.5,11.4,4.5c2.6,3,4,6.6,4,10.9c0,4.3-1.4,8.1-4.2,11.4c-2.8,3.3-6.7,4.9-11.6,4.9h-195.4v111.3h186
				c4.6,0,8.3,1.6,11.1,4.7c2.8,3.1,4.2,7,4.2,11.6c0,4-1.3,7.5-4,10.6c-2.6,3.1-6.4,4.7-11.4,4.7h-186v107.3H2750.7z"/>
			<path d="M3064.5,529.2c3.8-2.8,8.3-4.2,13.6-4.2c4.9,0,9.2,1.4,12.9,4.2c3.6,2.8,5.4,6.7,5.4,11.6v277.5c0,6.6-2.2,11.8-6.7,15.6
				c-4.5,3.8-9.8,5.7-16.1,5.7c-4.3,0-8.4-1-12.4-3c-4-2-7.1-4.8-9.4-8.4l-185-245.3l4,68.3v170.1c0,5.9-1.8,10.5-5.4,13.6
				c-3.6,3.1-8.1,4.7-13.4,4.7c-5.3,0-9.7-1.6-13.4-4.7c-3.6-3.1-5.4-7.7-5.4-13.6V546.7c0-6.9,1.9-12.3,5.7-16.1
				c3.8-3.8,8.5-5.7,14.1-5.7c4,0,7.7,1,11.4,3c3.6,2,6.6,4.8,8.9,8.4l190.4,250.3l-4.9-74.7V540.8
				C3058.8,535.8,3060.7,532,3064.5,529.2z"/>
			<path d="M3421.6,529.9c3.1,3.3,4.7,7.3,4.7,11.9c0,4.9-1.6,9.1-4.7,12.4c-3.1,3.3-7.7,4.9-13.6,4.9h-110.3l0.5,262.1
				c0,5.6-2,10.1-5.9,13.4c-4,3.3-8.2,4.9-12.9,4.9c-4.6,0-8.7-1.6-12.4-4.7c-3.6-3.1-5.4-7.7-5.4-13.6V559.1h-109.8
				c-5.3,0-9.5-1.7-12.6-5.2c-3.1-3.5-4.7-7.5-4.7-12.1c0-4.6,1.6-8.6,4.7-11.9c3.1-3.3,7.3-4.9,12.6-4.9H3408
				C3413.9,525,3418.5,526.6,3421.6,529.9z"/>
			<path d="M3513.1,824.2c-24.2-13.5-43.4-33-57.6-58.4c-14.2-25.4-21.3-55.1-21.3-89c0-34.6,8.1-63.7,24.2-87.3
				c16.2-23.6,36.3-41.1,60.3-52.4c24.1-11.4,48-17.1,71.7-17.1c24.1,0,48.6,5.7,73.7,17.1c25.1,11.4,46.1,28.9,63.1,52.4
				c17,23.6,25.5,52.7,25.5,87.3c0,33.3-7.3,62.7-21.8,88c-14.5,25.4-33.8,45-57.9,58.9c-24.1,13.8-50.3,20.8-78.6,20.8
				C3564.4,844.5,3537.3,837.7,3513.1,824.2z M3487.4,748c10.7,20.1,25.5,35.6,44.3,46.5c18.8,10.9,39.7,16.3,62.8,16.3
				c22.4,0,42.9-5.4,61.3-16.1c18.5-10.7,33.1-26,44-46c10.9-19.9,16.3-43.4,16.3-70.5c0-28-6.5-51.5-19.5-70.5
				c-13-19-29.1-32.8-48.2-41.5c-19.1-8.7-38.1-13.1-56.9-13.1c-18.8,0-37.3,4.2-55.6,12.6c-18.3,8.4-33.6,22-46,40.8
				c-12.4,18.8-18.5,42.7-18.5,71.7C3471.3,704.7,3476.7,727.9,3487.4,748z"/>
		</g>
	</g>
	<g>
		<path d="M1437.1,806.9c5.3,0,9.4,1.7,12.4,5.2c3,3.5,4.5,7.5,4.5,12.1c0,4.3-1.5,7.9-4.5,10.9c-3,3-7.1,4.5-12.4,4.5h-208.2
			c-6.6,0-12-2.1-16.3-6.4c-4.3-4.3-6.4-9.4-6.4-15.3V546.2c0-5.9,2.1-11,6.4-15.1c4.3-4.1,9.7-6.2,16.3-6.2h208.7
			c4.9,0,8.7,1.5,11.4,4.5c2.6,3,4,6.6,4,10.9c0,4.3-1.4,8.1-4.2,11.4c-2.8,3.3-6.7,4.9-11.6,4.9h-195.4v111.3h186
			c4.6,0,8.3,1.6,11.1,4.7c2.8,3.1,4.2,7,4.2,11.6c0,4-1.3,7.5-4,10.6c-2.6,3.1-6.4,4.7-11.4,4.7h-186v107.3H1437.1z"/>
		<path d="M1522.2,821.2V542.3c0-5.6,1.8-9.9,5.4-12.9c3.6-3,7.9-4.5,12.9-4.5c4.9,0,9.2,1.5,12.9,4.5c3.6,3,5.4,7.3,5.4,12.9v264.6
			h185c5.9,0,10.5,1.6,13.8,4.7c3.3,3.1,4.9,7,4.9,11.6c0,4.3-1.7,8.1-4.9,11.4c-3.3,3.3-7.9,4.9-13.8,4.9H1541
			C1528.4,839.5,1522.2,833.4,1522.2,821.2z"/>
		<path d="M2038,806.9c5.3,0,9.4,1.7,12.4,5.2c3,3.5,4.5,7.5,4.5,12.1c0,4.3-1.5,7.9-4.5,10.9c-3,3-7.1,4.5-12.4,4.5h-208.2
			c-6.6,0-12-2.1-16.3-6.4c-4.3-4.3-6.4-9.4-6.4-15.3V546.2c0-5.9,2.1-11,6.4-15.1c4.3-4.1,9.7-6.2,16.3-6.2h208.7
			c4.9,0,8.7,1.5,11.4,4.5c2.6,3,4,6.6,4,10.9c0,4.3-1.4,8.1-4.2,11.4c-2.8,3.3-6.7,4.9-11.6,4.9h-195.4v111.3h186
			c4.6,0,8.3,1.6,11.1,4.7c2.8,3.1,4.2,7,4.2,11.6c0,4-1.3,7.5-4,10.6c-2.6,3.1-6.4,4.7-11.4,4.7h-186v107.3H2038z"/>
		<path d="M2415.4,525c4.6,0,8.6,1.7,11.9,5.2c3.3,3.5,4.9,8.2,4.9,14.1v277.5c0,5.6-1.7,10-5.2,13.1c-3.5,3.1-7.7,4.7-12.6,4.7
			c-4.9,0-9.2-1.6-12.9-4.7c-3.6-3.1-5.4-7.5-5.4-13.1V604.1l-100.9,157.8c-4.3,6.9-9.9,10.4-16.8,10.4c-6.9,0-12.7-3.5-17.3-10.4
			l-100.9-156.8v216.6c0,5.6-1.7,10-5.2,13.1c-3.5,3.1-7.7,4.7-12.6,4.7c-4.9,0-9.2-1.6-12.9-4.7c-3.6-3.1-5.4-7.5-5.4-13.1v-277
			c0-5.9,1.7-10.7,5.2-14.3c3.5-3.6,7.5-5.4,12.1-5.4c3,0,5.9,0.9,8.9,2.7c3,1.8,5.4,4.5,7.4,8.2l120.7,187.4l119.7-187.9
			C2402.4,528.4,2408.1,525,2415.4,525z"/>
		<path d="M2750.7,806.9c5.3,0,9.4,1.7,12.4,5.2c3,3.5,4.5,7.5,4.5,12.1c0,4.3-1.5,7.9-4.5,10.9c-3,3-7.1,4.5-12.4,4.5h-208.2
			c-6.6,0-12-2.1-16.3-6.4c-4.3-4.3-6.4-9.4-6.4-15.3V546.2c0-5.9,2.1-11,6.4-15.1c4.3-4.1,9.7-6.2,16.3-6.2h208.7
			c4.9,0,8.7,1.5,11.4,4.5c2.6,3,4,6.6,4,10.9c0,4.3-1.4,8.1-4.2,11.4c-2.8,3.3-6.7,4.9-11.6,4.9h-195.4v111.3h186
			c4.6,0,8.3,1.6,11.1,4.7c2.8,3.1,4.2,7,4.2,11.6c0,4-1.3,7.5-4,10.6c-2.6,3.1-6.4,4.7-11.4,4.7h-186v107.3H2750.7z"/>
		<path d="M3064.5,529.2c3.8-2.8,8.3-4.2,13.6-4.2c4.9,0,9.2,1.4,12.9,4.2c3.6,2.8,5.4,6.7,5.4,11.6v277.5c0,6.6-2.2,11.8-6.7,15.6
			c-4.5,3.8-9.8,5.7-16.1,5.7c-4.3,0-8.4-1-12.4-3c-4-2-7.1-4.8-9.4-8.4l-185-245.3l4,68.3v170.1c0,5.9-1.8,10.5-5.4,13.6
			c-3.6,3.1-8.1,4.7-13.4,4.7c-5.3,0-9.7-1.6-13.4-4.7c-3.6-3.1-5.4-7.7-5.4-13.6V546.7c0-6.9,1.9-12.3,5.7-16.1
			c3.8-3.8,8.5-5.7,14.1-5.7c4,0,7.7,1,11.4,3c3.6,2,6.6,4.8,8.9,8.4l190.4,250.3l-4.9-74.7V540.8
			C3058.8,535.8,3060.7,532,3064.5,529.2z"/>
		<path d="M3421.6,529.9c3.1,3.3,4.7,7.3,4.7,11.9c0,4.9-1.6,9.1-4.7,12.4c-3.1,3.3-7.7,4.9-13.6,4.9h-110.3l0.5,262.1
			c0,5.6-2,10.1-5.9,13.4c-4,3.3-8.2,4.9-12.9,4.9c-4.6,0-8.7-1.6-12.4-4.7c-3.6-3.1-5.4-7.7-5.4-13.6V559.1h-109.8
			c-5.3,0-9.5-1.7-12.6-5.2c-3.1-3.5-4.7-7.5-4.7-12.1c0-4.6,1.6-8.6,4.7-11.9c3.1-3.3,7.3-4.9,12.6-4.9H3408
			C3413.9,525,3418.5,526.6,3421.6,529.9z"/>
		<path d="M3513.1,824.2c-24.2-13.5-43.4-33-57.6-58.4c-14.2-25.4-21.3-55.1-21.3-89c0-34.6,8.1-63.7,24.2-87.3
			c16.2-23.6,36.3-41.1,60.3-52.4c24.1-11.4,48-17.1,71.7-17.1c24.1,0,48.6,5.7,73.7,17.1c25.1,11.4,46.1,28.9,63.1,52.4
			c17,23.6,25.5,52.7,25.5,87.3c0,33.3-7.3,62.7-21.8,88c-14.5,25.4-33.8,45-57.9,58.9c-24.1,13.8-50.3,20.8-78.6,20.8
			C3564.4,844.5,3537.3,837.7,3513.1,824.2z M3487.4,748c10.7,20.1,25.5,35.6,44.3,46.5c18.8,10.9,39.7,16.3,62.8,16.3
			c22.4,0,42.9-5.4,61.3-16.1c18.5-10.7,33.1-26,44-46c10.9-19.9,16.3-43.4,16.3-70.5c0-28-6.5-51.5-19.5-70.5
			c-13-19-29.1-32.8-48.2-41.5c-19.1-8.7-38.1-13.1-56.9-13.1c-18.8,0-37.3,4.2-55.6,12.6c-18.3,8.4-33.6,22-46,40.8
			c-12.4,18.8-18.5,42.7-18.5,71.7C3471.3,704.7,3476.7,727.9,3487.4,748z"/>
	</g>
	<g>
		<path d="M2138.7,1065.8c0,4.6-3.6,7-7.4,7c-3.6,0-7.2-2.4-7.2-6.8V952.8c0-4.2,3-7,7.4-7h47.3c34.6,0,52.1,19.6,52.1,42.9
			c0,20.2-11,34.8-35.5,38.9l30.6,33c5.6,5.6,0.8,12.2-4.6,12.2c-1.8,0-3.8-0.8-5.4-2.6l-38.5-41.7h-38.7V1065.8z M2179,1015.9
			c25.8,0,37.1-11.8,37.1-26.4c-0.2-17.2-14-30.4-37.1-30.4h-40.3v56.7H2179z"/>
		<path d="M2340.9,1030.9H2262c2.6,16.4,16.6,30.6,36.5,30.6c9.2,0,18.8-2.4,26.6-8.4c7-6.4,17.4,1.8,9.6,9.8
			c-9.2,8.6-22.6,12.2-35.5,12c-31.6,0-51.9-22.8-51.9-52.9c0-33.8,25.4-52.1,50.9-52.1c27,0,51.9,15.8,52.5,51.9
			C2350.7,1026.1,2349.1,1030.9,2340.9,1030.9z M2336.7,1018.7c-2-24-20.8-35.4-37.5-35.4c-18.8,0-36,11.4-37.7,35.4H2336.7z"/>
		<path d="M2451.8,985.5v-6.6c0-4.2,2.6-7.2,7.2-7.2c4.4,0,7.4,3,7.4,7.2v86.7c0,4.4-3,7.2-7.4,7.2c-4.6,0-7.2-2.8-7.2-7.2v-8.6
			c-5.8,11.6-20.6,17.8-32.4,17.8c-29,0-51.1-20-51.1-53.1c0-34.2,23.6-51.9,51.9-51.9C2431.6,969.7,2444.6,973.7,2451.8,985.5z
			 M2451.8,1030.3v-15.8c0-19.8-13.8-30.2-31.8-31c-24.2-0.4-37.1,17.8-37.1,38.1c0,29.2,23.8,39.3,36.7,39.3
			C2437.2,1060.4,2451.8,1049.6,2451.8,1030.3z"/>
		<path d="M2573.4,986.1v-39.7c0-4.6,3.6-7,7.4-7c3.6,0,7.2,2.4,7.2,7v119.4c0,4.4-2.8,7-7.4,7s-6.8-2.6-6.8-7v-8.2
			c-6.8,12.4-20.8,17.2-32.8,17.2c-27.8,0-51.1-18.8-51.1-53.3c0-20,12.4-51.5,51.1-51.5C2554.4,969.9,2567.4,975.5,2573.4,986.1z
			 M2573.4,1030.3v-15.8c0-17.6-13.6-30-31.8-30.8c-29.8,0-37.1,24.2-37.1,37.1c0,31,23.2,40.1,37.7,40.1
			C2559.4,1060,2573.4,1049,2573.4,1030.3z"/>
		<path d="M2613.8,971.7c2.4,0,4.8,1.2,6.2,4.2l37.5,75.1l37.1-75.3c1.4-2.8,3.8-4,6.2-4c4.6,0,9.4,4,7.4,9.4l-63.1,125.4
			c-4.8,9.4-17.4,4.4-13.6-5l17.6-35.7l-42.7-84.1C2604.1,976.3,2609.1,971.7,2613.8,971.7z"/>
		<path d="M2724.5,1064.4c0,5-3.4,8.4-8.6,8.4c-5.2,0-9-3.4-9-8.4c0-5,3.8-8.4,9-8.4C2721.1,1056,2724.5,1059.4,2724.5,1064.4z"/>
		<path d="M2806.6,1041.2c5.2,16.6,27.4,19.2,43.3,19.2c17,0,43.3-4.2,43.3-24.4c0-17.4-21-18.8-42.9-20.6
			c-27.6-2.2-57.1-4.8-57.1-34.6c0-26.4,30.4-37.1,54.7-37.1c21,0,47.1,4,55.5,26.8c3,8-10.6,11.6-13.6,4.8
			c-6-15.2-27.4-16.8-41.7-16.8c-13.4,0-39.3,4.4-39.3,22.6c0,17.4,20,19.2,43.1,21c27.4,2.4,56.7,3.8,56.7,33.8
			c0,30.6-34.2,38.9-58.7,38.9c-20.4,0-51.5-6-58.1-30C2789.4,1036,2805,1033,2806.6,1041.2z"/>
		<path d="M3018.7,1030.9h-78.9c2.6,16.4,16.6,30.6,36.5,30.6c9.2,0,18.8-2.4,26.6-8.4c7-6.4,17.4,1.8,9.6,9.8
			c-9.2,8.6-22.6,12.2-35.5,12c-31.6,0-51.9-22.8-51.9-52.9c0-33.8,25.4-52.1,50.9-52.1c27,0,51.9,15.8,52.5,51.9
			C3028.5,1026.1,3026.9,1030.9,3018.7,1030.9z M3014.5,1018.7c-2-24-20.8-35.4-37.5-35.4c-18.8,0-36,11.4-37.7,35.4H3014.5z"/>
		<path d="M3092.1,983.9h-21.8v54.3c0,11.4,1.8,23.4,15.4,23.4c3,0,7.4-1,9.4-2.2c8.4-4.8,15,7,6,12c-5,2.8-10,3.4-15.4,3.4
			c-24,0-29.8-17.6-29.8-36.5v-54.3h-13.2c-9.4,0-8.8-12.2,0-12.2h13.2V948c0-9.6,14.4-9.4,14.4,0v23.8h21.8
			C3101.1,971.7,3101.1,983.9,3092.1,983.9z"/>
		<path d="M3135.8,1064.4c0,5-3.4,8.4-8.6,8.4c-5.2,0-9-3.4-9-8.4c0-5,3.8-8.4,9-8.4C3132.4,1056,3135.8,1059.4,3135.8,1064.4z"/>
		<path d="M3319.6,963.5c6,6.8-4.6,15-10.2,9c-10.8-11.4-23-15.2-36.3-15.2c-21.4,0-51.7,11-51.7,50.3c0,30.2,23.2,53.3,50.5,53.3
			c15.4,0,29.8-7,39.1-19c4.4-6.6,16.6,0.6,11.4,8c-11,15.6-32,24.8-50.9,24.8c-34,0-64.3-28.2-64.3-67.3
			c0-45.7,38.7-63.7,65.5-63.7C3290.8,943.8,3306.8,950,3319.6,963.5z"/>
		<path d="M3349.9,1072.8c-4.4,0-7.4-3-7.4-6.8V946.2c0-3.8,3-6.8,7.4-6.8c4,0,7.2,3,7.2,6.8V1066
			C3357,1069.8,3353.9,1072.8,3349.9,1072.8z"/>
		<path d="M3378.2,1020.9c0-29,22.2-51.1,52.1-51.1c30.4,0,52.1,23.6,52.1,52.1c0,30.4-22,52.9-52.1,52.9
			C3398.6,1074.8,3378.2,1050.6,3378.2,1020.9z M3393,1022.5c0,21.4,15,38.5,37.3,38.5c22.4,0,37.5-18.2,37.5-38.1
			c0-27-19-39.5-37.7-39.5C3411,983.3,3393,996.5,3393,1022.5z"/>
		<path d="M3549.7,1061.2c19.4,0,37.5-16,37.5-37.7v-46.7c0-4.4,2.6-7,7.2-7s7.6,2.6,7.6,7v89.1c0,4.6-3.6,7-7.2,7s-7.2-2.4-7.2-7.2
			v-11.8c-7.2,14.6-22.6,21-38.1,21c-23.2,0-45.3-16-45.3-44.7v-53.3c0-4.4,2.6-7,7.2-7c4.4,0,7.4,2.6,7.4,7v53.3
			C3518.8,1048.4,3533.6,1061.2,3549.7,1061.2z"/>
		<path d="M3708.9,986.1v-39.7c0-4.6,3.6-7,7.4-7c3.6,0,7.2,2.4,7.2,7v119.4c0,4.4-2.8,7-7.4,7c-4.6,0-6.8-2.6-6.8-7v-8.2
			c-6.8,12.4-20.8,17.2-32.8,17.2c-27.8,0-51.1-18.8-51.1-53.3c0-20,12.4-51.5,51.1-51.5C3689.9,969.9,3702.9,975.5,3708.9,986.1z
			 M3708.9,1030.3v-15.8c0-17.6-13.6-30-31.8-30.8c-29.8,0-37.1,24.2-37.1,37.1c0,31,23.2,40.1,37.7,40.1
			C3694.9,1060,3708.9,1049,3708.9,1030.3z"/>
		<path d="M3763.9,1064.4c0,5-3.4,8.4-8.6,8.4c-5.2,0-9-3.4-9-8.4c0-5,3.8-8.4,9-8.4C3760.5,1056,3763.9,1059.4,3763.9,1064.4z"/>
	</g>
</g>
</svg>
