<?xml version="1.0" encoding="UTF-8" standalone="no"?>
<!DOCTYPE svg PUBLIC "-//W3C//DTD SVG 1.1//EN" "http://www.w3.org/Graphics/SVG/1.1/DTD/svg11.dtd">
<svg width="100%" height="100%" viewBox="0 0 945 1134" version="1.1" xmlns="http://www.w3.org/2000/svg" xmlns:xlink="http://www.w3.org/1999/xlink" xml:space="preserve" xmlns:serif="http://www.serif.com/" style="fill-rule:evenodd;clip-rule:evenodd;stroke-linejoin:round;stroke-miterlimit:2;">
    <g transform="matrix(1,0,0,1,2.27374e-13,-2374.02)">
        <g transform="matrix(0.380845,-0.659643,0.659643,0.380845,-3051.04,4585.78)">
            <g transform="matrix(0.596759,1.03362,-1.16117,0.670402,5131.61,230.146)">
                <rect x="1039.37" y="1062.99" width="1039.37" height="1110.24" style="fill:rgb(0,123,255);"/>
            </g>
            <g transform="matrix(0.80518,1.39461,-1.39461,0.80518,5697.16,-409.731)">
                <g transform="matrix(41.6667,0,0,41.6667,1322.83,2267.72)">
                    <path d="M0.308,-0.519C0.358,-0.519 0.401,-0.508 0.438,-0.487C0.474,-0.465 0.501,-0.435 0.521,-0.396C0.54,-0.357 0.549,-0.311 0.549,-0.26C0.549,-0.209 0.54,-0.163 0.523,-0.122C0.505,-0.081 0.479,-0.048 0.446,-0.025C0.412,-0.002 0.373,0.01 0.328,0.01C0.297,0.01 0.267,0.005 0.239,-0.006C0.21,-0.016 0.185,-0.031 0.162,-0.052C0.162,-0.017 0.144,-0 0.108,-0C0.09,-0 0.076,-0.005 0.066,-0.014C0.055,-0.023 0.05,-0.035 0.05,-0.051L0.05,-0.597C0.05,-0.614 0.056,-0.626 0.067,-0.635C0.078,-0.643 0.091,-0.647 0.107,-0.647C0.122,-0.647 0.136,-0.643 0.147,-0.635C0.158,-0.626 0.164,-0.614 0.164,-0.597L0.163,-0.458C0.184,-0.478 0.208,-0.493 0.233,-0.504C0.258,-0.514 0.283,-0.519 0.308,-0.519ZM0.304,-0.092C0.343,-0.092 0.375,-0.107 0.399,-0.138C0.423,-0.169 0.435,-0.209 0.435,-0.259C0.435,-0.306 0.422,-0.345 0.397,-0.374C0.371,-0.403 0.337,-0.417 0.295,-0.417C0.267,-0.417 0.241,-0.409 0.217,-0.395C0.192,-0.38 0.174,-0.359 0.163,-0.332L0.162,-0.182C0.171,-0.153 0.188,-0.131 0.215,-0.116C0.241,-0.1 0.271,-0.092 0.304,-0.092Z" style="fill:white;fill-rule:nonzero;"/>
                </g>
                <g transform="matrix(41.6667,0,0,41.6667,1347.75,2267.72)">
                    <path d="M0.466,-0.509C0.481,-0.509 0.494,-0.503 0.505,-0.493C0.516,-0.482 0.521,-0.468 0.521,-0.453C0.521,-0.448 0.52,-0.441 0.518,-0.434L0.226,0.139C0.219,0.152 0.211,0.162 0.201,0.169C0.19,0.176 0.179,0.18 0.168,0.18C0.154,0.18 0.142,0.175 0.131,0.164C0.12,0.153 0.115,0.141 0.115,0.126C0.115,0.119 0.117,0.11 0.121,0.101L0.197,-0.049L0,-0.43C-0.003,-0.439 -0.005,-0.446 -0.005,-0.452C-0.005,-0.467 0.001,-0.481 0.013,-0.492C0.024,-0.503 0.037,-0.509 0.052,-0.509C0.063,-0.509 0.073,-0.506 0.083,-0.499C0.092,-0.492 0.1,-0.484 0.105,-0.473L0.259,-0.172L0.413,-0.474C0.418,-0.485 0.425,-0.493 0.434,-0.5C0.443,-0.506 0.454,-0.509 0.466,-0.509Z" style="fill:white;fill-rule:nonzero;"/>
                </g>
                <g transform="matrix(41.6667,0,0,41.6667,1382.42,2267.72)">
                    <path d="M0.521,-0.1C0.538,-0.1 0.551,-0.095 0.561,-0.084C0.571,-0.073 0.576,-0.061 0.576,-0.048C0.576,-0.035 0.571,-0.023 0.562,-0.014C0.552,-0.005 0.538,-0 0.521,-0L0.124,-0C0.105,-0 0.089,-0.006 0.077,-0.018C0.064,-0.029 0.058,-0.043 0.058,-0.06L0.058,-0.578C0.058,-0.595 0.064,-0.609 0.077,-0.62C0.089,-0.631 0.105,-0.637 0.124,-0.637L0.521,-0.637C0.538,-0.637 0.552,-0.632 0.561,-0.623C0.57,-0.614 0.574,-0.602 0.574,-0.589C0.574,-0.576 0.569,-0.565 0.56,-0.555C0.55,-0.544 0.537,-0.539 0.521,-0.539L0.172,-0.539L0.172,-0.364L0.503,-0.364C0.519,-0.364 0.532,-0.359 0.541,-0.349C0.55,-0.339 0.555,-0.327 0.555,-0.314C0.555,-0.301 0.551,-0.289 0.542,-0.28C0.533,-0.271 0.52,-0.266 0.503,-0.266L0.172,-0.266L0.172,-0.1L0.521,-0.1Z" style="fill:white;fill-rule:nonzero;"/>
                </g>
                <g transform="matrix(41.6667,0,0,41.6667,1409.04,2267.72)">
                    <path d="M0.117,-0C0.096,-0 0.081,-0.005 0.072,-0.014C0.062,-0.023 0.057,-0.036 0.057,-0.054L0.057,-0.586C0.057,-0.602 0.063,-0.615 0.075,-0.624C0.086,-0.632 0.1,-0.637 0.116,-0.637C0.131,-0.637 0.145,-0.632 0.157,-0.624C0.168,-0.615 0.174,-0.602 0.174,-0.586L0.174,-0.1L0.502,-0.1C0.521,-0.1 0.535,-0.095 0.546,-0.085C0.557,-0.075 0.562,-0.063 0.562,-0.05C0.562,-0.036 0.557,-0.024 0.546,-0.015C0.535,-0.005 0.521,-0 0.502,-0L0.117,-0Z" style="fill:white;fill-rule:nonzero;"/>
                </g>
                <g transform="matrix(41.6667,0,0,41.6667,1433.04,2267.72)">
                    <path d="M0.521,-0.1C0.538,-0.1 0.551,-0.095 0.561,-0.084C0.571,-0.073 0.576,-0.061 0.576,-0.048C0.576,-0.035 0.571,-0.023 0.562,-0.014C0.552,-0.005 0.538,-0 0.521,-0L0.124,-0C0.105,-0 0.089,-0.006 0.077,-0.018C0.064,-0.029 0.058,-0.043 0.058,-0.06L0.058,-0.578C0.058,-0.595 0.064,-0.609 0.077,-0.62C0.089,-0.631 0.105,-0.637 0.124,-0.637L0.521,-0.637C0.538,-0.637 0.552,-0.632 0.561,-0.623C0.57,-0.614 0.574,-0.602 0.574,-0.589C0.574,-0.576 0.569,-0.565 0.56,-0.555C0.55,-0.544 0.537,-0.539 0.521,-0.539L0.172,-0.539L0.172,-0.364L0.503,-0.364C0.519,-0.364 0.532,-0.359 0.541,-0.349C0.55,-0.339 0.555,-0.327 0.555,-0.314C0.555,-0.301 0.551,-0.289 0.542,-0.28C0.533,-0.271 0.52,-0.266 0.503,-0.266L0.172,-0.266L0.172,-0.1L0.521,-0.1Z" style="fill:white;fill-rule:nonzero;"/>
                </g>
                <g transform="matrix(41.6667,0,0,41.6667,1459.67,2267.72)">
                    <path d="M0.118,-0.637C0.127,-0.637 0.137,-0.634 0.146,-0.629C0.155,-0.624 0.163,-0.616 0.169,-0.607L0.378,-0.28L0.586,-0.608C0.592,-0.617 0.6,-0.624 0.61,-0.63C0.619,-0.635 0.629,-0.637 0.639,-0.637C0.654,-0.637 0.668,-0.632 0.679,-0.622C0.69,-0.612 0.695,-0.598 0.695,-0.581L0.695,-0.052C0.695,-0.035 0.689,-0.023 0.677,-0.014C0.665,-0.005 0.651,-0 0.636,-0C0.62,-0 0.607,-0.005 0.596,-0.014C0.584,-0.023 0.579,-0.035 0.579,-0.052L0.579,-0.389L0.43,-0.156C0.425,-0.147 0.417,-0.14 0.408,-0.135C0.399,-0.13 0.389,-0.127 0.378,-0.127C0.367,-0.127 0.357,-0.13 0.347,-0.136C0.337,-0.141 0.329,-0.149 0.324,-0.159L0.177,-0.388L0.177,-0.052C0.177,-0.035 0.171,-0.023 0.16,-0.014C0.148,-0.005 0.134,-0 0.119,-0C0.103,-0 0.089,-0.005 0.078,-0.014C0.067,-0.023 0.061,-0.035 0.061,-0.052L0.061,-0.58C0.061,-0.597 0.067,-0.61 0.078,-0.621C0.089,-0.632 0.103,-0.637 0.118,-0.637Z" style="fill:white;fill-rule:nonzero;"/>
                </g>
                <g transform="matrix(41.6667,0,0,41.6667,1493.08,2267.72)">
                    <path d="M0.521,-0.1C0.538,-0.1 0.551,-0.095 0.561,-0.084C0.571,-0.073 0.576,-0.061 0.576,-0.048C0.576,-0.035 0.571,-0.023 0.562,-0.014C0.552,-0.005 0.538,-0 0.521,-0L0.124,-0C0.105,-0 0.089,-0.006 0.077,-0.018C0.064,-0.029 0.058,-0.043 0.058,-0.06L0.058,-0.578C0.058,-0.595 0.064,-0.609 0.077,-0.62C0.089,-0.631 0.105,-0.637 0.124,-0.637L0.521,-0.637C0.538,-0.637 0.552,-0.632 0.561,-0.623C0.57,-0.614 0.574,-0.602 0.574,-0.589C0.574,-0.576 0.569,-0.565 0.56,-0.555C0.55,-0.544 0.537,-0.539 0.521,-0.539L0.172,-0.539L0.172,-0.364L0.503,-0.364C0.519,-0.364 0.532,-0.359 0.541,-0.349C0.55,-0.339 0.555,-0.327 0.555,-0.314C0.555,-0.301 0.551,-0.289 0.542,-0.28C0.533,-0.271 0.52,-0.266 0.503,-0.266L0.172,-0.266L0.172,-0.1L0.521,-0.1Z" style="fill:white;fill-rule:nonzero;"/>
                </g>
                <g transform="matrix(41.6667,0,0,41.6667,1519.71,2267.72)">
                    <path d="M0.482,-0.588C0.482,-0.603 0.488,-0.615 0.501,-0.624C0.513,-0.633 0.527,-0.637 0.543,-0.637C0.559,-0.637 0.573,-0.633 0.584,-0.625C0.595,-0.616 0.601,-0.604 0.601,-0.588L0.601,-0.06C0.601,-0.041 0.594,-0.027 0.581,-0.016C0.568,-0.005 0.552,-0 0.534,-0C0.523,-0 0.511,-0.003 0.501,-0.008C0.49,-0.013 0.481,-0.02 0.474,-0.029L0.168,-0.423L0.172,-0.367L0.172,-0.053C0.172,-0.036 0.166,-0.023 0.155,-0.014C0.143,-0.005 0.129,-0 0.113,-0C0.096,-0 0.082,-0.005 0.071,-0.014C0.059,-0.023 0.053,-0.036 0.053,-0.053L0.053,-0.576C0.053,-0.595 0.059,-0.61 0.071,-0.621C0.083,-0.632 0.097,-0.637 0.114,-0.637C0.126,-0.637 0.137,-0.635 0.146,-0.63C0.155,-0.624 0.164,-0.617 0.172,-0.607L0.486,-0.199L0.482,-0.266L0.482,-0.588Z" style="fill:white;fill-rule:nonzero;"/>
                </g>
                <g transform="matrix(41.6667,0,0,41.6667,1548.5,2267.72)">
                    <path d="M0.518,-0.637C0.536,-0.637 0.55,-0.632 0.561,-0.622C0.572,-0.611 0.577,-0.599 0.577,-0.585C0.577,-0.572 0.572,-0.56 0.561,-0.55C0.55,-0.539 0.536,-0.534 0.518,-0.534L0.332,-0.534L0.333,-0.053C0.333,-0.036 0.327,-0.023 0.315,-0.014C0.302,-0.005 0.289,-0 0.274,-0C0.259,-0 0.245,-0.005 0.234,-0.014C0.222,-0.023 0.216,-0.036 0.216,-0.053L0.216,-0.534L0.031,-0.534C0.013,-0.534 -0.001,-0.539 -0.011,-0.549C-0.02,-0.559 -0.025,-0.571 -0.025,-0.585C-0.025,-0.599 -0.02,-0.611 -0.011,-0.622C-0.001,-0.632 0.013,-0.637 0.031,-0.637L0.518,-0.637Z" style="fill:white;fill-rule:nonzero;"/>
                </g>
                <g transform="matrix(41.6667,0,0,41.6667,1571.75,2267.72)">
                    <path d="M0.675,-0.318C0.675,-0.253 0.662,-0.196 0.635,-0.147C0.608,-0.097 0.57,-0.058 0.521,-0.031C0.471,-0.004 0.415,0.01 0.35,0.01C0.285,0.01 0.228,-0.004 0.179,-0.031C0.129,-0.058 0.09,-0.097 0.063,-0.147C0.036,-0.196 0.022,-0.253 0.022,-0.318C0.022,-0.383 0.036,-0.44 0.063,-0.49C0.09,-0.54 0.129,-0.579 0.179,-0.606C0.228,-0.633 0.285,-0.647 0.35,-0.647C0.414,-0.647 0.471,-0.633 0.52,-0.606C0.569,-0.579 0.608,-0.54 0.635,-0.491C0.662,-0.441 0.675,-0.383 0.675,-0.318ZM0.35,-0.092C0.391,-0.092 0.428,-0.101 0.459,-0.121C0.49,-0.139 0.515,-0.166 0.532,-0.2C0.549,-0.234 0.558,-0.273 0.558,-0.318C0.558,-0.363 0.549,-0.402 0.532,-0.437C0.515,-0.471 0.49,-0.498 0.459,-0.517C0.428,-0.536 0.391,-0.545 0.35,-0.545C0.309,-0.545 0.272,-0.536 0.24,-0.517C0.208,-0.498 0.183,-0.471 0.166,-0.437C0.149,-0.402 0.14,-0.363 0.14,-0.318C0.14,-0.273 0.149,-0.234 0.166,-0.2C0.183,-0.166 0.208,-0.139 0.24,-0.121C0.272,-0.101 0.309,-0.092 0.35,-0.092Z" style="fill:white;fill-rule:nonzero;"/>
                </g>
            </g>
            <g transform="matrix(0.656435,1.13698,-1.13698,0.656435,5185.92,193.204)">
                <path d="M1140.86,2043.09C1143.28,2043.09 1145.04,2044.13 1146.14,2046.22L1194.78,2141.69C1195.22,2142.57 1195.44,2143.45 1195.44,2144.33C1195.44,2145.87 1194.84,2147.13 1193.63,2148.12C1192.42,2149.11 1190.93,2149.61 1189.17,2149.61C1186.65,2149.61 1184.83,2148.56 1183.73,2146.47L1171.86,2123.06L1109.86,2123.06L1097.66,2146.64C1096.56,2148.62 1094.91,2149.61 1092.71,2149.61C1091.07,2149.61 1089.58,2149.06 1088.26,2147.96C1086.94,2146.86 1086.28,2145.54 1086.28,2144C1086.28,2143.34 1086.45,2142.63 1086.78,2141.86L1135.42,2046.22C1135.86,2045.23 1136.6,2044.46 1137.65,2043.91C1138.69,2043.36 1139.76,2043.09 1140.86,2043.09ZM1114.81,2112.67L1166.75,2112.67L1140.86,2060.73L1114.81,2112.67Z" style="fill:white;fill-rule:nonzero;stroke:white;stroke-width:8.33px;"/>
                <path d="M1247.54,2066.17C1249.3,2066.17 1250.68,2066.67 1251.67,2067.66C1252.66,2068.65 1253.15,2069.8 1253.15,2071.12C1253.15,2072.55 1252.66,2073.76 1251.67,2074.75C1250.68,2075.74 1249.3,2076.23 1247.54,2076.23L1229.57,2076.23L1229.57,2121.08C1229.57,2126.91 1230.42,2131.58 1232.13,2135.1C1233.83,2138.61 1237.21,2140.37 1242.27,2140.37C1243.48,2140.37 1244.88,2140.18 1246.47,2139.8C1248.07,2139.41 1249.25,2139 1250.02,2138.56C1251.23,2137.9 1252.33,2137.57 1253.32,2137.57C1254.74,2137.57 1255.98,2138.12 1257.03,2139.22C1258.07,2140.32 1258.59,2141.58 1258.59,2143.01C1258.59,2145.21 1257.38,2147.02 1254.96,2148.45C1251.67,2150.32 1247.43,2151.26 1242.27,2151.26C1225.89,2151.26 1217.7,2141.2 1217.7,2121.08L1217.7,2076.23L1206.82,2076.23C1205.06,2076.23 1203.68,2075.74 1202.69,2074.75C1201.71,2073.76 1201.21,2072.6 1201.21,2071.28C1201.21,2069.97 1201.71,2068.78 1202.69,2067.74C1203.68,2066.7 1205.06,2066.17 1206.82,2066.17L1217.7,2066.17L1217.7,2046.55C1217.7,2044.68 1218.28,2043.23 1219.43,2042.18C1220.59,2041.14 1221.99,2040.62 1223.64,2040.62C1225.28,2040.62 1226.69,2041.14 1227.84,2042.18C1228.99,2043.23 1229.57,2044.68 1229.57,2046.55L1229.57,2066.17L1247.54,2066.17Z" style="fill:white;fill-rule:nonzero;stroke:white;stroke-width:8.33px;"/>
                <path d="M1309.21,2151.26C1300.75,2151.26 1293.25,2149.28 1286.7,2145.32C1280.16,2141.36 1275.11,2136 1271.54,2129.24C1267.96,2122.48 1266.18,2114.98 1266.18,2106.74C1266.18,2098.82 1268.05,2091.65 1271.78,2085.22C1275.52,2078.79 1280.66,2073.73 1287.2,2070.05C1293.74,2066.37 1301.08,2064.52 1309.21,2064.52C1317.35,2064.52 1324.71,2066.45 1331.31,2070.3C1337.9,2074.14 1343.04,2079.36 1346.72,2085.96C1350.41,2092.55 1352.25,2099.76 1352.25,2107.56C1352.25,2115.8 1350.41,2123.25 1346.72,2129.9C1343.04,2136.55 1337.9,2141.77 1331.31,2145.57C1324.71,2149.36 1317.35,2151.26 1309.21,2151.26ZM1309.05,2075.74C1303.66,2075.74 1298.63,2076.97 1293.96,2079.45C1289.29,2081.92 1285.52,2085.6 1282.66,2090.49C1279.81,2095.39 1278.38,2101.24 1278.38,2108.05C1278.38,2113.88 1279.67,2119.24 1282.25,2124.13C1284.84,2129.02 1288.46,2132.87 1293.14,2135.67C1297.81,2138.48 1303.17,2139.88 1309.21,2139.88C1315.15,2139.88 1320.48,2138.42 1325.21,2135.51C1329.93,2132.6 1333.62,2128.72 1336.25,2123.88C1338.89,2119.05 1340.21,2113.88 1340.21,2108.38C1340.21,2101.35 1338.73,2095.36 1335.76,2090.41C1332.79,2085.47 1328.94,2081.78 1324.22,2079.36C1319.49,2076.95 1314.43,2075.74 1309.05,2075.74Z" style="fill:white;fill-rule:nonzero;stroke:white;stroke-width:8.33px;"/>
                <path d="M1510.38,2100.14C1510.27,2095.52 1509.06,2091.35 1506.75,2087.61C1504.44,2083.87 1501.36,2080.96 1497.51,2078.87C1493.67,2076.78 1489.43,2075.74 1484.82,2075.74C1479.1,2075.74 1473.88,2077.08 1469.15,2079.78C1464.43,2082.47 1460.69,2086.24 1457.94,2091.07C1455.19,2095.91 1453.82,2101.4 1453.82,2107.56L1453.82,2143.84C1453.82,2145.59 1453.27,2147 1452.17,2148.04C1451.07,2149.08 1449.59,2149.61 1447.72,2149.61C1445.85,2149.61 1444.37,2149.08 1443.27,2148.04C1442.17,2147 1441.62,2145.59 1441.62,2143.84L1441.62,2102.94C1441.62,2098.11 1440.65,2093.6 1438.73,2089.42C1436.81,2085.24 1433.98,2082 1430.24,2079.69C1426.17,2077.17 1421.44,2075.9 1416.06,2075.9C1410.67,2075.9 1405.62,2077.19 1400.89,2079.78C1396.16,2082.36 1392.37,2086.01 1389.51,2090.74C1386.65,2095.47 1385.23,2100.8 1385.23,2106.74L1385.23,2144C1385.23,2145.76 1384.65,2147.13 1383.49,2148.12C1382.34,2149.11 1380.94,2149.61 1379.29,2149.61C1377.64,2149.61 1376.21,2149.11 1375,2148.12C1373.79,2147.13 1373.19,2145.76 1373.19,2144L1373.19,2071.94C1373.19,2070.41 1373.77,2069.06 1374.92,2067.91C1376.07,2066.75 1377.48,2066.17 1379.12,2066.17C1380.88,2066.17 1382.29,2066.72 1383.33,2067.82C1384.37,2068.92 1384.89,2070.3 1384.89,2071.94L1384.89,2081.51C1388.08,2075.79 1392.37,2071.53 1397.76,2068.73C1403.14,2065.93 1409.19,2064.52 1415.89,2064.52C1423.48,2064.52 1430.38,2066.37 1436.59,2070.05C1442.8,2073.73 1447.06,2079.09 1449.37,2086.12C1452.22,2079.09 1456.84,2073.73 1463.22,2070.05C1469.59,2066.37 1476.63,2064.52 1484.32,2064.52C1490.81,2064.52 1496.96,2065.93 1502.79,2068.73C1508.62,2071.53 1513.34,2075.57 1516.97,2080.85C1520.6,2086.12 1522.41,2092.39 1522.41,2099.64L1522.41,2143.84C1522.41,2145.59 1521.86,2147 1520.76,2148.04C1519.66,2149.08 1518.18,2149.61 1516.31,2149.61C1514.44,2149.61 1512.99,2149.11 1511.94,2148.12C1510.9,2147.13 1510.38,2145.7 1510.38,2143.84L1510.38,2100.14Z" style="fill:white;fill-rule:nonzero;stroke:white;stroke-width:8.33px;"/>
                <path d="M1596.28,2151.26C1586.28,2151.26 1577.24,2149 1569.16,2144.49C1561.08,2139.99 1554.67,2133.5 1549.95,2125.04C1545.22,2116.57 1542.86,2106.68 1542.86,2095.36C1542.86,2083.82 1545.55,2074.12 1550.94,2066.26C1556.32,2058.4 1563.03,2052.57 1571.05,2048.78C1579.08,2044.99 1587.05,2043.09 1594.96,2043.09C1602.99,2043.09 1611.18,2044.99 1619.53,2048.78C1627.88,2052.57 1634.89,2058.4 1640.55,2066.26C1646.21,2074.12 1649.05,2083.82 1649.05,2095.36C1649.05,2106.46 1646.63,2116.24 1641.79,2124.71C1636.95,2133.17 1630.52,2139.71 1622.5,2144.33C1614.47,2148.95 1605.74,2151.26 1596.28,2151.26ZM1555.22,2095.85C1555.22,2104.65 1557.01,2112.4 1560.58,2119.1C1564.15,2125.81 1569.08,2130.97 1575.34,2134.6C1581.61,2138.23 1588.59,2140.04 1596.28,2140.04C1603.76,2140.04 1610.57,2138.26 1616.73,2134.68C1622.88,2131.11 1627.78,2126 1631.4,2119.35C1635.03,2112.7 1636.84,2104.87 1636.84,2095.85C1636.84,2086.51 1634.67,2078.68 1630.33,2072.36C1625.99,2066.04 1620.63,2061.42 1614.25,2058.51C1607.88,2055.59 1601.56,2054.14 1595.29,2054.14C1589.03,2054.14 1582.84,2055.54 1576.74,2058.34C1570.64,2061.14 1565.53,2065.68 1561.41,2071.94C1557.29,2078.21 1555.22,2086.18 1555.22,2095.85Z" style="fill:white;fill-rule:nonzero;stroke:white;stroke-width:8.33px;"/>
                <path d="M1663.23,2126.52C1663.12,2126.19 1663.06,2125.7 1663.06,2125.04C1663.06,2123.39 1663.75,2122.07 1665.12,2121.08C1666.5,2120.09 1668.12,2119.6 1669.99,2119.6C1671.31,2119.6 1672.49,2119.93 1673.53,2120.59C1674.58,2121.25 1675.21,2122.24 1675.43,2123.55C1678.73,2134.11 1690.65,2139.38 1711.21,2139.38C1720.44,2139.38 1728.71,2137.87 1736.02,2134.85C1743.33,2131.83 1746.99,2126.63 1746.99,2119.27C1746.99,2114.76 1745.42,2111.38 1742.29,2109.13C1739.16,2106.87 1735.31,2105.33 1730.75,2104.51C1726.18,2103.68 1719.78,2102.94 1711.54,2102.28C1701.42,2101.51 1693.24,2100.44 1686.97,2099.07C1680.7,2097.69 1675.37,2095.03 1670.98,2091.07C1666.58,2087.11 1664.38,2081.34 1664.38,2073.76C1664.38,2066.94 1666.63,2061.23 1671.14,2056.61C1675.65,2051.99 1681.36,2048.59 1688.29,2046.39C1695.21,2044.19 1702.3,2043.09 1709.56,2043.09C1734.73,2043.09 1750.01,2050.45 1755.4,2065.18C1755.62,2066.06 1755.73,2066.67 1755.73,2067C1755.73,2068.54 1755.07,2069.77 1753.75,2070.71C1752.43,2071.64 1750.94,2072.11 1749.3,2072.11C1746.77,2072.11 1745.06,2071.12 1744.18,2069.14C1741.99,2063.64 1737.73,2059.96 1731.41,2058.09C1725.09,2056.22 1717.86,2055.29 1709.72,2055.29C1705.22,2055.29 1700.49,2055.87 1695.54,2057.02C1690.6,2058.18 1686.31,2060.13 1682.68,2062.88C1679.05,2065.62 1677.24,2069.31 1677.24,2073.92C1677.24,2078.43 1678.78,2081.84 1681.86,2084.15C1684.93,2086.45 1688.84,2088.05 1693.57,2088.93C1698.29,2089.81 1704.72,2090.58 1712.86,2091.24C1723.63,2092.22 1731.96,2093.3 1737.84,2094.45C1743.72,2095.61 1748.83,2098.08 1753.17,2101.87C1757.51,2105.66 1759.68,2111.41 1759.68,2119.1C1759.68,2126.91 1757.21,2133.23 1752.26,2138.06C1747.32,2142.9 1741.16,2146.31 1733.8,2148.29C1726.43,2150.27 1718.9,2151.26 1711.21,2151.26C1700.55,2151.26 1690.49,2149.36 1681.03,2145.57C1671.58,2141.77 1665.64,2135.43 1663.23,2126.52Z" style="fill:white;fill-rule:nonzero;stroke:white;stroke-width:8.33px;"/>
            </g>
            <g transform="matrix(0.5,-0.866025,-0.866025,-0.5,4625.3,8011.26)">
                <g transform="matrix(0.656435,-1.13698,1.13698,0.656435,1568.81,3551.11)">
                    <path d="M1246.29,1715.72C1320.46,1769.8 1412.93,1823.18 1496.86,1860.39C1413.66,1895.22 1342.29,1911.69 1310.72,1893.46C1279.14,1875.23 1257.72,1805.19 1246.29,1715.72ZM1776.46,1376.11C1859.35,1436.54 1919.4,1497.83 1919.22,1538.39C1919.03,1578.46 1859.84,1639.33 1777.93,1699.81C1789.5,1597.34 1789.08,1474.88 1776.46,1376.11ZM1244.82,1392.02C1256.24,1290.84 1279.36,1209.15 1313.97,1188.95C1349,1168.51 1432.1,1189.87 1525.89,1231.44C1434.04,1269.9 1327.77,1330.76 1244.82,1392.02Z" style="fill:white;stroke:white;stroke-width:31.25px;stroke-linecap:round;stroke-miterlimit:1.5;"/>
                </g>
                <g transform="matrix(0.853308,-0.492658,0.566667,0.981495,63.5819,1542.6)">
                    <path d="M3077.7,2409.45C3232.91,2409.45 3620.91,3000 3543.31,3118.11C3465.71,3236.22 2689.7,3236.22 2612.1,3118.11C2534.5,3000 2922.5,2409.45 3077.7,2409.45Z" style="fill:none;stroke:white;stroke-width:38.64px;stroke-linecap:round;stroke-miterlimit:1.5;"/>
                </g>
            </g>
        </g>
    </g>
</svg>
