<?xml version="1.0" encoding="UTF-8" standalone="no"?>
<!DOCTYPE svg PUBLIC "-//W3C//DTD SVG 1.1//EN" "http://www.w3.org/Graphics/SVG/1.1/DTD/svg11.dtd">
<svg width="100%" height="100%" viewBox="0 0 945 1134" version="1.1" xmlns="http://www.w3.org/2000/svg" xmlns:xlink="http://www.w3.org/1999/xlink" xml:space="preserve" xmlns:serif="http://www.serif.com/" style="fill-rule:evenodd;clip-rule:evenodd;stroke-linejoin:round;stroke-miterlimit:2;">
    <g transform="matrix(1,0,0,1,-1322.83,-2374.02)">
        <g transform="matrix(0.380845,-0.659643,0.659643,0.380845,-1728.21,4585.78)">
            <g transform="matrix(0.596759,1.03362,-1.16117,0.670402,5131.61,230.146)">
                <rect x="1039.37" y="1062.99" width="1039.37" height="1110.24" style="fill:rgb(220,53,69);"/>
            </g>
            <g transform="matrix(0.80518,1.39461,-1.39461,0.80518,5653.74,-484.934)">
                <g transform="matrix(41.6667,0,0,41.6667,1322.83,2267.72)">
                    <path d="M0.308,-0.519C0.358,-0.519 0.401,-0.508 0.438,-0.487C0.474,-0.465 0.501,-0.435 0.521,-0.396C0.54,-0.357 0.549,-0.311 0.549,-0.26C0.549,-0.209 0.54,-0.163 0.523,-0.122C0.505,-0.081 0.479,-0.048 0.446,-0.025C0.412,-0.002 0.373,0.01 0.328,0.01C0.297,0.01 0.267,0.005 0.239,-0.006C0.21,-0.016 0.185,-0.031 0.162,-0.052C0.162,-0.017 0.144,-0 0.108,-0C0.09,-0 0.076,-0.005 0.066,-0.014C0.055,-0.023 0.05,-0.035 0.05,-0.051L0.05,-0.597C0.05,-0.614 0.056,-0.626 0.067,-0.635C0.078,-0.643 0.091,-0.647 0.107,-0.647C0.122,-0.647 0.136,-0.643 0.147,-0.635C0.158,-0.626 0.164,-0.614 0.164,-0.597L0.163,-0.458C0.184,-0.478 0.208,-0.493 0.233,-0.504C0.258,-0.514 0.283,-0.519 0.308,-0.519ZM0.304,-0.092C0.343,-0.092 0.375,-0.107 0.399,-0.138C0.423,-0.169 0.435,-0.209 0.435,-0.259C0.435,-0.306 0.422,-0.345 0.397,-0.374C0.371,-0.403 0.337,-0.417 0.295,-0.417C0.267,-0.417 0.241,-0.409 0.217,-0.395C0.192,-0.38 0.174,-0.359 0.163,-0.332L0.162,-0.182C0.171,-0.153 0.188,-0.131 0.215,-0.116C0.241,-0.1 0.271,-0.092 0.304,-0.092Z" style="fill:white;fill-rule:nonzero;"/>
                </g>
                <g transform="matrix(41.6667,0,0,41.6667,1347.75,2267.72)">
                    <path d="M0.466,-0.509C0.481,-0.509 0.494,-0.503 0.505,-0.493C0.516,-0.482 0.521,-0.468 0.521,-0.453C0.521,-0.448 0.52,-0.441 0.518,-0.434L0.226,0.139C0.219,0.152 0.211,0.162 0.201,0.169C0.19,0.176 0.179,0.18 0.168,0.18C0.154,0.18 0.142,0.175 0.131,0.164C0.12,0.153 0.115,0.141 0.115,0.126C0.115,0.119 0.117,0.11 0.121,0.101L0.197,-0.049L0,-0.43C-0.003,-0.439 -0.005,-0.446 -0.005,-0.452C-0.005,-0.467 0.001,-0.481 0.013,-0.492C0.024,-0.503 0.037,-0.509 0.052,-0.509C0.063,-0.509 0.073,-0.506 0.083,-0.499C0.092,-0.492 0.1,-0.484 0.105,-0.473L0.259,-0.172L0.413,-0.474C0.418,-0.485 0.425,-0.493 0.434,-0.5C0.443,-0.506 0.454,-0.509 0.466,-0.509Z" style="fill:white;fill-rule:nonzero;"/>
                </g>
                <g transform="matrix(41.6667,0,0,41.6667,1382.42,2267.72)">
                    <path d="M0.521,-0.1C0.538,-0.1 0.551,-0.095 0.561,-0.084C0.571,-0.073 0.576,-0.061 0.576,-0.048C0.576,-0.035 0.571,-0.023 0.562,-0.014C0.552,-0.005 0.538,-0 0.521,-0L0.124,-0C0.105,-0 0.089,-0.006 0.077,-0.018C0.064,-0.029 0.058,-0.043 0.058,-0.06L0.058,-0.578C0.058,-0.595 0.064,-0.609 0.077,-0.62C0.089,-0.631 0.105,-0.637 0.124,-0.637L0.521,-0.637C0.538,-0.637 0.552,-0.632 0.561,-0.623C0.57,-0.614 0.574,-0.602 0.574,-0.589C0.574,-0.576 0.569,-0.565 0.56,-0.555C0.55,-0.544 0.537,-0.539 0.521,-0.539L0.172,-0.539L0.172,-0.364L0.503,-0.364C0.519,-0.364 0.532,-0.359 0.541,-0.349C0.55,-0.339 0.555,-0.327 0.555,-0.314C0.555,-0.301 0.551,-0.289 0.542,-0.28C0.533,-0.271 0.52,-0.266 0.503,-0.266L0.172,-0.266L0.172,-0.1L0.521,-0.1Z" style="fill:white;fill-rule:nonzero;"/>
                </g>
                <g transform="matrix(41.6667,0,0,41.6667,1409.04,2267.72)">
                    <path d="M0.117,-0C0.096,-0 0.081,-0.005 0.072,-0.014C0.062,-0.023 0.057,-0.036 0.057,-0.054L0.057,-0.586C0.057,-0.602 0.063,-0.615 0.075,-0.624C0.086,-0.632 0.1,-0.637 0.116,-0.637C0.131,-0.637 0.145,-0.632 0.157,-0.624C0.168,-0.615 0.174,-0.602 0.174,-0.586L0.174,-0.1L0.502,-0.1C0.521,-0.1 0.535,-0.095 0.546,-0.085C0.557,-0.075 0.562,-0.063 0.562,-0.05C0.562,-0.036 0.557,-0.024 0.546,-0.015C0.535,-0.005 0.521,-0 0.502,-0L0.117,-0Z" style="fill:white;fill-rule:nonzero;"/>
                </g>
                <g transform="matrix(41.6667,0,0,41.6667,1433.04,2267.72)">
                    <path d="M0.521,-0.1C0.538,-0.1 0.551,-0.095 0.561,-0.084C0.571,-0.073 0.576,-0.061 0.576,-0.048C0.576,-0.035 0.571,-0.023 0.562,-0.014C0.552,-0.005 0.538,-0 0.521,-0L0.124,-0C0.105,-0 0.089,-0.006 0.077,-0.018C0.064,-0.029 0.058,-0.043 0.058,-0.06L0.058,-0.578C0.058,-0.595 0.064,-0.609 0.077,-0.62C0.089,-0.631 0.105,-0.637 0.124,-0.637L0.521,-0.637C0.538,-0.637 0.552,-0.632 0.561,-0.623C0.57,-0.614 0.574,-0.602 0.574,-0.589C0.574,-0.576 0.569,-0.565 0.56,-0.555C0.55,-0.544 0.537,-0.539 0.521,-0.539L0.172,-0.539L0.172,-0.364L0.503,-0.364C0.519,-0.364 0.532,-0.359 0.541,-0.349C0.55,-0.339 0.555,-0.327 0.555,-0.314C0.555,-0.301 0.551,-0.289 0.542,-0.28C0.533,-0.271 0.52,-0.266 0.503,-0.266L0.172,-0.266L0.172,-0.1L0.521,-0.1Z" style="fill:white;fill-rule:nonzero;"/>
                </g>
                <g transform="matrix(41.6667,0,0,41.6667,1459.67,2267.72)">
                    <path d="M0.118,-0.637C0.127,-0.637 0.137,-0.634 0.146,-0.629C0.155,-0.624 0.163,-0.616 0.169,-0.607L0.378,-0.28L0.586,-0.608C0.592,-0.617 0.6,-0.624 0.61,-0.63C0.619,-0.635 0.629,-0.637 0.639,-0.637C0.654,-0.637 0.668,-0.632 0.679,-0.622C0.69,-0.612 0.695,-0.598 0.695,-0.581L0.695,-0.052C0.695,-0.035 0.689,-0.023 0.677,-0.014C0.665,-0.005 0.651,-0 0.636,-0C0.62,-0 0.607,-0.005 0.596,-0.014C0.584,-0.023 0.579,-0.035 0.579,-0.052L0.579,-0.389L0.43,-0.156C0.425,-0.147 0.417,-0.14 0.408,-0.135C0.399,-0.13 0.389,-0.127 0.378,-0.127C0.367,-0.127 0.357,-0.13 0.347,-0.136C0.337,-0.141 0.329,-0.149 0.324,-0.159L0.177,-0.388L0.177,-0.052C0.177,-0.035 0.171,-0.023 0.16,-0.014C0.148,-0.005 0.134,-0 0.119,-0C0.103,-0 0.089,-0.005 0.078,-0.014C0.067,-0.023 0.061,-0.035 0.061,-0.052L0.061,-0.58C0.061,-0.597 0.067,-0.61 0.078,-0.621C0.089,-0.632 0.103,-0.637 0.118,-0.637Z" style="fill:white;fill-rule:nonzero;"/>
                </g>
                <g transform="matrix(41.6667,0,0,41.6667,1493.08,2267.72)">
                    <path d="M0.521,-0.1C0.538,-0.1 0.551,-0.095 0.561,-0.084C0.571,-0.073 0.576,-0.061 0.576,-0.048C0.576,-0.035 0.571,-0.023 0.562,-0.014C0.552,-0.005 0.538,-0 0.521,-0L0.124,-0C0.105,-0 0.089,-0.006 0.077,-0.018C0.064,-0.029 0.058,-0.043 0.058,-0.06L0.058,-0.578C0.058,-0.595 0.064,-0.609 0.077,-0.62C0.089,-0.631 0.105,-0.637 0.124,-0.637L0.521,-0.637C0.538,-0.637 0.552,-0.632 0.561,-0.623C0.57,-0.614 0.574,-0.602 0.574,-0.589C0.574,-0.576 0.569,-0.565 0.56,-0.555C0.55,-0.544 0.537,-0.539 0.521,-0.539L0.172,-0.539L0.172,-0.364L0.503,-0.364C0.519,-0.364 0.532,-0.359 0.541,-0.349C0.55,-0.339 0.555,-0.327 0.555,-0.314C0.555,-0.301 0.551,-0.289 0.542,-0.28C0.533,-0.271 0.52,-0.266 0.503,-0.266L0.172,-0.266L0.172,-0.1L0.521,-0.1Z" style="fill:white;fill-rule:nonzero;"/>
                </g>
                <g transform="matrix(41.6667,0,0,41.6667,1519.71,2267.72)">
                    <path d="M0.482,-0.588C0.482,-0.603 0.488,-0.615 0.501,-0.624C0.513,-0.633 0.527,-0.637 0.543,-0.637C0.559,-0.637 0.573,-0.633 0.584,-0.625C0.595,-0.616 0.601,-0.604 0.601,-0.588L0.601,-0.06C0.601,-0.041 0.594,-0.027 0.581,-0.016C0.568,-0.005 0.552,-0 0.534,-0C0.523,-0 0.511,-0.003 0.501,-0.008C0.49,-0.013 0.481,-0.02 0.474,-0.029L0.168,-0.423L0.172,-0.367L0.172,-0.053C0.172,-0.036 0.166,-0.023 0.155,-0.014C0.143,-0.005 0.129,-0 0.113,-0C0.096,-0 0.082,-0.005 0.071,-0.014C0.059,-0.023 0.053,-0.036 0.053,-0.053L0.053,-0.576C0.053,-0.595 0.059,-0.61 0.071,-0.621C0.083,-0.632 0.097,-0.637 0.114,-0.637C0.126,-0.637 0.137,-0.635 0.146,-0.63C0.155,-0.624 0.164,-0.617 0.172,-0.607L0.486,-0.199L0.482,-0.266L0.482,-0.588Z" style="fill:white;fill-rule:nonzero;"/>
                </g>
                <g transform="matrix(41.6667,0,0,41.6667,1548.5,2267.72)">
                    <path d="M0.518,-0.637C0.536,-0.637 0.55,-0.632 0.561,-0.622C0.572,-0.611 0.577,-0.599 0.577,-0.585C0.577,-0.572 0.572,-0.56 0.561,-0.55C0.55,-0.539 0.536,-0.534 0.518,-0.534L0.332,-0.534L0.333,-0.053C0.333,-0.036 0.327,-0.023 0.315,-0.014C0.302,-0.005 0.289,-0 0.274,-0C0.259,-0 0.245,-0.005 0.234,-0.014C0.222,-0.023 0.216,-0.036 0.216,-0.053L0.216,-0.534L0.031,-0.534C0.013,-0.534 -0.001,-0.539 -0.011,-0.549C-0.02,-0.559 -0.025,-0.571 -0.025,-0.585C-0.025,-0.599 -0.02,-0.611 -0.011,-0.622C-0.001,-0.632 0.013,-0.637 0.031,-0.637L0.518,-0.637Z" style="fill:white;fill-rule:nonzero;"/>
                </g>
                <g transform="matrix(41.6667,0,0,41.6667,1571.75,2267.72)">
                    <path d="M0.675,-0.318C0.675,-0.253 0.662,-0.196 0.635,-0.147C0.608,-0.097 0.57,-0.058 0.521,-0.031C0.471,-0.004 0.415,0.01 0.35,0.01C0.285,0.01 0.228,-0.004 0.179,-0.031C0.129,-0.058 0.09,-0.097 0.063,-0.147C0.036,-0.196 0.022,-0.253 0.022,-0.318C0.022,-0.383 0.036,-0.44 0.063,-0.49C0.09,-0.54 0.129,-0.579 0.179,-0.606C0.228,-0.633 0.285,-0.647 0.35,-0.647C0.414,-0.647 0.471,-0.633 0.52,-0.606C0.569,-0.579 0.608,-0.54 0.635,-0.491C0.662,-0.441 0.675,-0.383 0.675,-0.318ZM0.35,-0.092C0.391,-0.092 0.428,-0.101 0.459,-0.121C0.49,-0.139 0.515,-0.166 0.532,-0.2C0.549,-0.234 0.558,-0.273 0.558,-0.318C0.558,-0.363 0.549,-0.402 0.532,-0.437C0.515,-0.471 0.49,-0.498 0.459,-0.517C0.428,-0.536 0.391,-0.545 0.35,-0.545C0.309,-0.545 0.272,-0.536 0.24,-0.517C0.208,-0.498 0.183,-0.471 0.166,-0.437C0.149,-0.402 0.14,-0.363 0.14,-0.318C0.14,-0.273 0.149,-0.234 0.166,-0.2C0.183,-0.166 0.208,-0.139 0.24,-0.121C0.272,-0.101 0.309,-0.092 0.35,-0.092Z" style="fill:white;fill-rule:nonzero;"/>
                </g>
            </g>
            <g transform="matrix(0.656435,1.13698,-1.13698,0.656435,5184.62,190.954)">
                <path d="M1253.98,2048.2C1255.4,2045.89 1257.33,2044.74 1259.75,2044.74C1261.29,2044.74 1262.6,2045.32 1263.7,2046.47C1264.8,2047.62 1265.35,2049.19 1265.35,2051.17L1265.35,2143.67C1265.35,2145.54 1264.78,2147 1263.62,2148.04C1262.47,2149.08 1261.07,2149.61 1259.42,2149.61C1257.77,2149.61 1256.34,2149.08 1255.13,2148.04C1253.92,2147 1253.32,2145.54 1253.32,2143.67L1253.32,2071.12L1219.68,2123.72C1218.25,2126.03 1216.38,2127.18 1214.07,2127.18C1211.76,2127.18 1209.84,2126.03 1208.3,2123.72L1174.66,2071.45L1174.66,2143.67C1174.66,2145.54 1174.09,2147 1172.93,2148.04C1171.78,2149.08 1170.38,2149.61 1168.73,2149.61C1167.08,2149.61 1165.65,2149.08 1164.44,2148.04C1163.23,2147 1162.63,2145.54 1162.63,2143.67L1162.63,2051.33C1162.63,2049.36 1163.2,2047.76 1164.36,2046.55C1165.51,2045.34 1166.86,2044.74 1168.4,2044.74C1169.39,2044.74 1170.38,2045.04 1171.37,2045.64C1172.36,2046.25 1173.18,2047.16 1173.84,2048.37L1214.07,2110.86L1253.98,2048.2Z" style="fill:white;fill-rule:nonzero;stroke:white;stroke-width:8.33px;"/>
                <path d="M1374.01,2107.39C1374.01,2112.45 1371.32,2114.98 1365.93,2114.98L1300.8,2114.98C1301.57,2119.6 1303.3,2123.8 1306,2127.59C1308.69,2131.39 1312.21,2134.44 1316.55,2136.74C1320.89,2139.05 1325.7,2140.21 1330.98,2140.21C1339.55,2140.21 1346.86,2137.9 1352.91,2133.28C1354.23,2132.07 1355.77,2131.47 1357.52,2131.47C1359.06,2131.47 1360.38,2131.96 1361.48,2132.95C1362.58,2133.94 1363.13,2135.15 1363.13,2136.58C1363.13,2138.23 1362.36,2139.82 1360.82,2141.36C1357.19,2144.77 1352.8,2147.3 1347.63,2148.95C1342.46,2150.6 1337.08,2151.37 1331.47,2151.26C1323.01,2151.26 1315.51,2149.36 1308.96,2145.57C1302.42,2141.77 1297.39,2136.55 1293.88,2129.9C1290.36,2123.25 1288.6,2115.8 1288.6,2107.56C1288.6,2098.66 1290.58,2090.96 1294.54,2084.48C1298.49,2077.99 1303.69,2073.04 1310.12,2069.64C1316.55,2066.23 1323.39,2064.52 1330.65,2064.52C1338.34,2064.52 1345.46,2066.06 1352,2069.14C1358.54,2072.22 1363.82,2076.97 1367.83,2083.4C1371.84,2089.84 1373.9,2097.83 1374.01,2107.39ZM1362.47,2104.92C1361.92,2098.66 1360.11,2093.32 1357.03,2088.93C1353.95,2084.53 1350.13,2081.23 1345.57,2079.03C1341.01,2076.84 1336.31,2075.74 1331.47,2075.74C1323.23,2075.74 1316.14,2078.24 1310.2,2083.24C1304.27,2088.24 1300.97,2095.47 1300.31,2104.92L1362.47,2104.92Z" style="fill:white;fill-rule:nonzero;stroke:white;stroke-width:8.33px;"/>
                <path d="M1388.69,2130.97C1388.58,2130.64 1388.52,2130.15 1388.52,2129.49C1388.52,2127.95 1389.15,2126.66 1390.42,2125.62C1391.68,2124.57 1393.14,2124.05 1394.79,2124.05C1396.11,2124.05 1397.26,2124.43 1398.25,2125.2C1399.24,2125.97 1399.9,2127.18 1400.23,2128.83C1401,2132.35 1404.02,2135.18 1409.3,2137.32C1414.58,2139.47 1420.4,2140.54 1426.78,2140.54C1429.96,2140.54 1433.54,2139.99 1437.49,2138.89C1441.45,2137.79 1444.89,2136.09 1447.8,2133.78C1450.71,2131.47 1452.17,2128.56 1452.17,2125.04C1452.17,2121.74 1451.02,2119.3 1448.71,2117.7C1446.4,2116.11 1443.65,2115.03 1440.46,2114.49C1437.28,2113.94 1432.55,2113.44 1426.28,2113C1418.15,2112.23 1411.66,2111.32 1406.83,2110.28C1401.99,2109.24 1397.87,2107.09 1394.46,2103.85C1391.05,2100.61 1389.35,2095.85 1389.35,2089.59C1389.35,2084.09 1391.16,2079.45 1394.79,2075.65C1398.42,2071.86 1402.98,2069.06 1408.47,2067.24C1413.97,2065.43 1419.58,2064.52 1425.29,2064.52C1433.65,2064.52 1441.12,2065.68 1447.72,2067.99C1454.31,2070.3 1458.88,2074.75 1461.4,2081.34C1461.62,2082.22 1461.73,2082.88 1461.73,2083.32C1461.73,2084.97 1461.07,2086.35 1459.75,2087.44C1458.43,2088.54 1456.95,2089.09 1455.3,2089.09C1452.77,2089.09 1451.07,2087.94 1450.19,2085.63C1447.55,2078.82 1439.25,2075.41 1425.29,2075.41C1419.58,2075.41 1414.16,2076.64 1409.05,2079.12C1403.94,2081.59 1401.38,2085.14 1401.38,2089.75C1401.38,2092.72 1402.35,2094.97 1404.27,2096.51C1406.19,2098.05 1408.61,2099.1 1411.53,2099.64C1414.44,2100.2 1418.42,2100.64 1423.48,2100.97C1424.91,2100.97 1426.01,2101.02 1426.78,2101.13C1435.02,2101.9 1441.59,2102.83 1446.48,2103.93C1451.37,2105.03 1455.55,2107.23 1459.01,2110.53C1462.48,2113.83 1464.21,2118.66 1464.21,2125.04C1464.21,2131.41 1462.17,2136.55 1458.11,2140.45C1454.04,2144.36 1449.15,2147.13 1443.43,2148.78C1437.71,2150.43 1432.16,2151.26 1426.78,2151.26C1417.98,2151.26 1409.79,2149.72 1402.21,2146.64C1394.62,2143.56 1390.12,2138.34 1388.69,2130.97Z" style="fill:white;fill-rule:nonzero;stroke:white;stroke-width:8.33px;"/>
                <path d="M1531.81,2151.26C1521.81,2151.26 1512.77,2149 1504.69,2144.49C1496.61,2139.99 1490.2,2133.5 1485.48,2125.04C1480.75,2116.57 1478.39,2106.68 1478.39,2095.36C1478.39,2083.82 1481.08,2074.12 1486.47,2066.26C1491.85,2058.4 1498.56,2052.57 1506.58,2048.78C1514.61,2044.99 1522.58,2043.09 1530.49,2043.09C1538.52,2043.09 1546.7,2044.99 1555.06,2048.78C1563.41,2052.57 1570.42,2058.4 1576.08,2066.26C1581.74,2074.12 1584.57,2083.82 1584.57,2095.36C1584.57,2106.46 1582.16,2116.24 1577.32,2124.71C1572.48,2133.17 1566.05,2139.71 1558.03,2144.33C1550,2148.95 1541.26,2151.26 1531.81,2151.26ZM1490.75,2095.85C1490.75,2104.65 1492.54,2112.4 1496.11,2119.1C1499.68,2125.81 1504.6,2130.97 1510.87,2134.6C1517.13,2138.23 1524.12,2140.04 1531.81,2140.04C1539.29,2140.04 1546.1,2138.26 1552.26,2134.68C1558.41,2131.11 1563.3,2126 1566.93,2119.35C1570.56,2112.7 1572.37,2104.87 1572.37,2095.85C1572.37,2086.51 1570.2,2078.68 1565.86,2072.36C1561.52,2066.04 1556.16,2061.42 1549.78,2058.51C1543.41,2055.59 1537.09,2054.14 1530.82,2054.14C1524.56,2054.14 1518.37,2055.54 1512.27,2058.34C1506.17,2061.14 1501.06,2065.68 1496.94,2071.94C1492.81,2078.21 1490.75,2086.18 1490.75,2095.85Z" style="fill:white;fill-rule:nonzero;stroke:white;stroke-width:8.33px;"/>
                <path d="M1598.75,2126.52C1598.64,2126.19 1598.59,2125.7 1598.59,2125.04C1598.59,2123.39 1599.28,2122.07 1600.65,2121.08C1602.03,2120.09 1603.65,2119.6 1605.52,2119.6C1606.83,2119.6 1608.02,2119.93 1609.06,2120.59C1610.1,2121.25 1610.74,2122.24 1610.96,2123.55C1614.25,2134.11 1626.18,2139.38 1646.74,2139.38C1655.97,2139.38 1664.24,2137.87 1671.55,2134.85C1678.86,2131.83 1682.52,2126.63 1682.52,2119.27C1682.52,2114.76 1680.95,2111.38 1677.82,2109.13C1674.68,2106.87 1670.84,2105.33 1666.28,2104.51C1661.71,2103.68 1655.31,2102.94 1647.07,2102.28C1636.95,2101.51 1628.76,2100.44 1622.5,2099.07C1616.23,2097.69 1610.9,2095.03 1606.5,2091.07C1602.11,2087.11 1599.91,2081.34 1599.91,2073.76C1599.91,2066.94 1602.16,2061.23 1606.67,2056.61C1611.18,2051.99 1616.89,2048.59 1623.82,2046.39C1630.74,2044.19 1637.83,2043.09 1645.09,2043.09C1670.26,2043.09 1685.54,2050.45 1690.93,2065.18C1691.15,2066.06 1691.26,2066.67 1691.26,2067C1691.26,2068.54 1690.6,2069.77 1689.28,2070.71C1687.96,2071.64 1686.47,2072.11 1684.83,2072.11C1682.3,2072.11 1680.59,2071.12 1679.71,2069.14C1677.52,2063.64 1673.26,2059.96 1666.93,2058.09C1660.62,2056.22 1653.39,2055.29 1645.25,2055.29C1640.75,2055.29 1636.02,2055.87 1631.07,2057.02C1626.13,2058.18 1621.84,2060.13 1618.21,2062.88C1614.58,2065.62 1612.77,2069.31 1612.77,2073.92C1612.77,2078.43 1614.31,2081.84 1617.39,2084.15C1620.46,2086.45 1624.37,2088.05 1629.09,2088.93C1633.82,2089.81 1640.25,2090.58 1648.38,2091.24C1659.16,2092.22 1667.49,2093.3 1673.37,2094.45C1679.25,2095.61 1684.36,2098.08 1688.7,2101.87C1693.04,2105.66 1695.21,2111.41 1695.21,2119.1C1695.21,2126.91 1692.74,2133.23 1687.79,2138.06C1682.85,2142.9 1676.69,2146.31 1669.33,2148.29C1661.96,2150.27 1654.43,2151.26 1646.74,2151.26C1636.07,2151.26 1626.02,2149.36 1616.56,2145.57C1607.11,2141.77 1601.17,2135.43 1598.75,2126.52Z" style="fill:white;fill-rule:nonzero;stroke:white;stroke-width:8.33px;"/>
            </g>
            <g transform="matrix(0.685596,1.18749,-1.18749,0.685596,4916.11,-330.306)">
                <g transform="matrix(3.33067e-16,-0.750505,0.863248,5.55112e-16,-628.786,3858.81)">
                    <path d="M3077.7,3206.69C2864.3,3206.69 2650.9,3177.16 2612.1,3118.11C2580.3,3069.71 2626.69,2941.97 2703.21,2808.07C2813.41,3000.98 2986.1,3206.69 3077.7,3206.69Z" style="fill:none;stroke:white;stroke-width:38.64px;stroke-linecap:round;stroke-miterlimit:1.5;"/>
                </g>
                <g transform="matrix(3.33067e-16,-0.750505,0.863248,5.55112e-16,-628.786,3858.81)">
                    <path d="M3077.7,2409.45C3077.7,2409.45 3077.7,2409.45 3077.7,2409.45Z" style="fill:white;"/>
                </g>
                <g transform="matrix(3.33067e-16,-0.750505,0.863248,5.55112e-16,-628.786,3858.81)">
                    <path d="M3452.2,2808.07C3528.72,2941.97 3575.11,3069.71 3543.31,3118.11C3504.51,3177.16 3291.11,3206.69 3077.7,3206.69C3169.3,3206.69 3342,3000.98 3452.2,2808.07Z" style="fill:none;stroke:white;stroke-width:38.64px;stroke-linecap:round;stroke-miterlimit:1.5;"/>
                </g>
                <g transform="matrix(-3.33067e-16,-0.750505,-0.863248,5.55112e-16,4219.34,3858.81)">
                    <path d="M3077.7,3206.69C2986.1,3206.69 2813.41,3000.98 2703.21,2808.07C2626.69,2941.97 2580.3,3069.71 2612.1,3118.11C2650.9,3177.16 2864.3,3206.69 3077.7,3206.69Z" style="fill:white;stroke:white;stroke-width:38.64px;stroke-linecap:round;stroke-miterlimit:1.5;"/>
                </g>
                <g transform="matrix(-3.33067e-16,-0.750505,-0.863248,5.55112e-16,4219.34,3858.81)">
                    <path d="M3077.7,2409.45C3077.7,2409.45 3077.7,2409.45 3077.7,2409.45Z" style="fill:white;"/>
                </g>
                <g transform="matrix(-3.33067e-16,-0.750505,-0.863248,5.55112e-16,4219.34,3858.81)">
                    <path d="M3077.7,3206.69C3291.11,3206.69 3504.51,3177.16 3543.31,3118.11C3575.11,3069.71 3528.72,2941.97 3452.2,2808.07C3342,3000.98 3169.3,3206.69 3077.7,3206.69Z" style="fill:white;stroke:white;stroke-width:38.64px;stroke-linecap:round;stroke-miterlimit:1.5;"/>
                </g>
            </g>
        </g>
    </g>
</svg>
