<?xml version="1.0" encoding="UTF-8" standalone="no"?>
<!DOCTYPE svg PUBLIC "-//W3C//DTD SVG 1.1//EN" "http://www.w3.org/Graphics/SVG/1.1/DTD/svg11.dtd">
<svg width="100%" height="100%" viewBox="0 0 945 1134" version="1.1" xmlns="http://www.w3.org/2000/svg" xmlns:xlink="http://www.w3.org/1999/xlink" xml:space="preserve" xmlns:serif="http://www.serif.com/" style="fill-rule:evenodd;clip-rule:evenodd;stroke-linejoin:round;stroke-miterlimit:2;">
    <g>
        <rect x="0" y="0" width="944.882" height="1133.86" style="fill:rgb(82,183,1);"/>
        <path d="M398.008,1052.68c2.555,0 4.761,0.554 6.618,1.661c1.857,1.108 3.271,2.658 4.242,4.651c0.971,1.993 1.457,4.302 1.457,6.925c-0,2.624 -0.452,4.983 -1.354,7.079c-0.903,2.095 -2.215,3.739 -3.936,4.932c-1.72,1.192 -3.722,1.788 -6.005,1.788c-1.601,0 -3.126,-0.264 -4.574,-0.792c-1.448,-0.528 -2.751,-1.32 -3.91,-2.376c0,1.771 -0.92,2.657 -2.76,2.657c-0.92,0 -1.644,-0.23 -2.172,-0.69c-0.528,-0.46 -0.792,-1.099 -0.792,-1.916l-0,-27.905c-0,-0.852 0.281,-1.491 0.843,-1.917c0.562,-0.426 1.252,-0.639 2.07,-0.639c0.784,0 1.465,0.213 2.044,0.639c0.58,0.426 0.869,1.065 0.869,1.917l-0.051,7.104c1.09,-1.022 2.283,-1.798 3.578,-2.326c1.294,-0.528 2.572,-0.792 3.833,-0.792Zm-0.205,21.823c2.011,0 3.629,-0.783 4.856,-2.351c1.226,-1.567 1.84,-3.628 1.84,-6.184c-0,-2.419 -0.656,-4.369 -1.968,-5.852c-1.312,-1.482 -3.041,-2.223 -5.188,-2.223c-1.431,0 -2.768,0.384 -4.012,1.15c-1.243,0.767 -2.155,1.831 -2.734,3.194l-0.051,7.667c0.443,1.465 1.337,2.598 2.683,3.398c1.346,0.801 2.871,1.201 4.574,1.201Z" style="fill:white;fill-rule:nonzero;"/>
        <path d="M436.646,1053.19c0.749,0 1.405,0.281 1.967,0.844c0.562,0.562 0.844,1.235 0.844,2.018c-0,0.273 -0.052,0.597 -0.154,0.971l-14.923,29.285c-0.341,0.648 -0.776,1.159 -1.304,1.534c-0.528,0.374 -1.081,0.562 -1.661,0.562c-0.715,-0 -1.345,-0.273 -1.891,-0.818c-0.545,-0.545 -0.817,-1.193 -0.817,-1.942c-0,-0.375 0.102,-0.801 0.306,-1.278l3.884,-7.666l-10.068,-19.472c-0.17,-0.443 -0.255,-0.818 -0.255,-1.125c-0,-0.783 0.298,-1.465 0.894,-2.044c0.596,-0.579 1.269,-0.869 2.019,-0.869c0.545,0 1.065,0.171 1.559,0.511c0.494,0.341 0.877,0.784 1.15,1.329l7.87,15.384l7.871,-15.435c0.238,-0.545 0.596,-0.98 1.073,-1.303c0.477,-0.324 1.022,-0.486 1.636,-0.486Z" style="fill:white;fill-rule:nonzero;"/>
        <path d="M481.978,1074.09c0.852,0 1.534,0.273 2.045,0.818c0.511,0.545 0.766,1.159 0.766,1.84c0,0.682 -0.247,1.261 -0.741,1.738c-0.494,0.477 -1.184,0.715 -2.07,0.715l-20.289,0c-0.989,0 -1.798,-0.298 -2.428,-0.894c-0.63,-0.596 -0.946,-1.32 -0.946,-2.172l0,-26.474c0,-0.852 0.316,-1.568 0.946,-2.147c0.63,-0.579 1.439,-0.869 2.428,-0.869l20.289,0c0.886,0 1.559,0.239 2.019,0.716c0.46,0.477 0.69,1.056 0.69,1.738c0,0.647 -0.247,1.235 -0.741,1.763c-0.494,0.528 -1.15,0.792 -1.968,0.792l-17.836,0l-0,8.944l16.916,-0c0.818,-0 1.466,0.255 1.943,0.767c0.477,0.511 0.715,1.107 0.715,1.788c0,0.682 -0.23,1.261 -0.69,1.738c-0.46,0.477 -1.116,0.716 -1.968,0.716l-16.916,-0l-0,8.483l17.836,0Z" style="fill:white;fill-rule:nonzero;"/>
        <path d="M493.989,1079.2c-1.056,0 -1.832,-0.23 -2.326,-0.69c-0.494,-0.46 -0.741,-1.15 -0.741,-2.07l0,-27.189c0,-0.818 0.298,-1.457 0.895,-1.917c0.596,-0.46 1.303,-0.69 2.121,-0.69c0.783,0 1.473,0.23 2.07,0.69c0.596,0.46 0.894,1.099 0.894,1.917l-0,24.838l16.763,0c0.954,0 1.704,0.256 2.249,0.767c0.545,0.511 0.818,1.107 0.818,1.789c-0,0.715 -0.273,1.32 -0.818,1.814c-0.545,0.494 -1.295,0.741 -2.249,0.741l-19.676,0Z" style="fill:white;fill-rule:nonzero;"/>
        <path d="M544.075,1074.09c0.852,0 1.533,0.273 2.044,0.818c0.511,0.545 0.767,1.159 0.767,1.84c-0,0.682 -0.247,1.261 -0.741,1.738c-0.494,0.477 -1.184,0.715 -2.07,0.715l-20.29,0c-0.988,0 -1.797,-0.298 -2.428,-0.894c-0.63,-0.596 -0.945,-1.32 -0.945,-2.172l-0,-26.474c-0,-0.852 0.315,-1.568 0.945,-2.147c0.631,-0.579 1.44,-0.869 2.428,-0.869l20.29,0c0.886,0 1.559,0.239 2.019,0.716c0.459,0.477 0.689,1.056 0.689,1.738c0,0.647 -0.247,1.235 -0.741,1.763c-0.494,0.528 -1.15,0.792 -1.967,0.792l-17.837,0l0,8.944l16.917,-0c0.818,-0 1.465,0.255 1.942,0.767c0.477,0.511 0.715,1.107 0.715,1.788c0,0.682 -0.23,1.261 -0.69,1.738c-0.46,0.477 -1.115,0.716 -1.967,0.716l-16.917,-0l0,8.483l17.837,0Z" style="fill:white;fill-rule:nonzero;"/>
        <path d="M556.136,1046.65c0.477,0 0.954,0.137 1.431,0.409c0.477,0.273 0.869,0.648 1.176,1.125l10.681,16.712l10.631,-16.763c0.306,-0.477 0.707,-0.844 1.201,-1.099c0.494,-0.256 0.996,-0.384 1.508,-0.384c0.783,0 1.456,0.256 2.018,0.767c0.563,0.511 0.844,1.21 0.844,2.095l-0,27.037c-0,0.851 -0.307,1.507 -0.92,1.967c-0.614,0.46 -1.312,0.69 -2.096,0.69c-0.818,0 -1.507,-0.23 -2.07,-0.69c-0.562,-0.46 -0.843,-1.116 -0.843,-1.967l0,-17.224l-7.615,11.908c-0.273,0.477 -0.647,0.844 -1.124,1.099c-0.477,0.256 -0.989,0.384 -1.534,0.384c-0.545,-0 -1.073,-0.145 -1.584,-0.435c-0.511,-0.289 -0.903,-0.69 -1.175,-1.201l-7.513,-11.704l-0,17.173c-0,0.851 -0.299,1.507 -0.895,1.967c-0.596,0.46 -1.286,0.69 -2.07,0.69c-0.817,0 -1.516,-0.23 -2.095,-0.69c-0.579,-0.46 -0.869,-1.116 -0.869,-1.967l0,-26.985c0,-0.852 0.29,-1.551 0.869,-2.096c0.579,-0.545 1.261,-0.818 2.044,-0.818Z" style="fill:white;fill-rule:nonzero;"/>
        <path d="M617.721,1074.09c0.852,0 1.534,0.273 2.045,0.818c0.511,0.545 0.766,1.159 0.766,1.84c0,0.682 -0.247,1.261 -0.741,1.738c-0.494,0.477 -1.184,0.715 -2.07,0.715l-20.289,0c-0.989,0 -1.798,-0.298 -2.428,-0.894c-0.63,-0.596 -0.946,-1.32 -0.946,-2.172l0,-26.474c0,-0.852 0.316,-1.568 0.946,-2.147c0.63,-0.579 1.439,-0.869 2.428,-0.869l20.289,0c0.886,0 1.559,0.239 2.019,0.716c0.46,0.477 0.69,1.056 0.69,1.738c0,0.647 -0.247,1.235 -0.741,1.763c-0.494,0.528 -1.15,0.792 -1.968,0.792l-17.836,0l-0,8.944l16.917,-0c0.817,-0 1.465,0.255 1.942,0.767c0.477,0.511 0.715,1.107 0.715,1.788c0,0.682 -0.23,1.261 -0.69,1.738c-0.46,0.477 -1.116,0.716 -1.967,0.716l-16.917,-0l-0,8.483l17.836,0Z" style="fill:white;fill-rule:nonzero;"/>
        <path d="M648.386,1049.15c0,-0.784 0.315,-1.397 0.946,-1.84c0.63,-0.443 1.354,-0.665 2.172,-0.665c0.818,0 1.516,0.213 2.095,0.639c0.58,0.426 0.869,1.048 0.869,1.866l0,26.985c0,0.954 -0.341,1.703 -1.022,2.249c-0.681,0.545 -1.482,0.817 -2.402,0.817c-0.579,0 -1.15,-0.136 -1.712,-0.409c-0.562,-0.272 -1.014,-0.63 -1.355,-1.073l-15.639,-20.136l0.205,2.862l-0,16.048c-0,0.885 -0.298,1.558 -0.895,2.018c-0.596,0.46 -1.303,0.69 -2.121,0.69c-0.851,0 -1.575,-0.23 -2.172,-0.69c-0.596,-0.46 -0.894,-1.133 -0.894,-2.018l-0,-26.73c-0,-0.988 0.307,-1.755 0.92,-2.3c0.613,-0.545 1.346,-0.818 2.198,-0.818c0.613,0 1.158,0.128 1.635,0.384c0.477,0.255 0.92,0.639 1.329,1.15l16.048,20.852l-0.205,-3.424l0,-16.457Z" style="fill:white;fill-rule:nonzero;"/>
        <path d="M685.542,1046.65c0.92,0 1.652,0.264 2.198,0.793c0.545,0.528 0.817,1.15 0.817,1.865c0,0.681 -0.272,1.286 -0.817,1.814c-0.546,0.528 -1.278,0.793 -2.198,0.793l-9.506,-0l0.051,24.583c-0,0.851 -0.315,1.516 -0.946,1.993c-0.63,0.477 -1.32,0.715 -2.069,0.715c-0.784,0 -1.474,-0.238 -2.07,-0.715c-0.597,-0.477 -0.895,-1.142 -0.895,-1.993l0,-24.583l-9.455,-0c-0.92,-0 -1.627,-0.256 -2.121,-0.767c-0.494,-0.511 -0.741,-1.124 -0.741,-1.84c0,-0.715 0.247,-1.337 0.741,-1.865c0.494,-0.529 1.201,-0.793 2.121,-0.793l24.89,0Z" style="fill:white;fill-rule:nonzero;"/>
        <path d="M722.084,1062.95c0,3.305 -0.69,6.227 -2.07,8.765c-1.38,2.538 -3.322,4.506 -5.826,5.903c-2.504,1.397 -5.409,2.095 -8.714,2.095c-3.305,0 -6.227,-0.698 -8.765,-2.095c-2.538,-1.397 -4.506,-3.365 -5.903,-5.903c-1.397,-2.538 -2.095,-5.46 -2.095,-8.765c-0,-3.305 0.698,-6.235 2.095,-8.791c1.397,-2.555 3.365,-4.531 5.903,-5.928c2.538,-1.397 5.46,-2.096 8.765,-2.096c3.271,0 6.167,0.699 8.688,2.096c2.522,1.397 4.472,3.364 5.852,5.903c1.38,2.538 2.07,5.477 2.07,8.816Zm-16.61,11.55c2.113,0 3.969,-0.485 5.571,-1.456c1.601,-0.971 2.845,-2.326 3.731,-4.063c0.886,-1.738 1.329,-3.748 1.329,-6.031c-0,-2.283 -0.443,-4.302 -1.329,-6.056c-0.886,-1.755 -2.13,-3.118 -3.731,-4.089c-1.602,-0.971 -3.458,-1.457 -5.571,-1.457c-2.112,0 -3.986,0.486 -5.622,1.457c-1.635,0.971 -2.896,2.334 -3.782,4.089c-0.886,1.754 -1.329,3.773 -1.329,6.056c0,2.283 0.443,4.293 1.329,6.031c0.886,1.737 2.147,3.092 3.782,4.063c1.636,0.971 3.51,1.456 5.622,1.456Z" style="fill:white;fill-rule:nonzero;"/>
        <path d="M280.43,1015.75c-10.004,0 -19.045,-2.253 -27.124,-6.76c-8.08,-4.507 -14.483,-10.993 -19.21,-19.457c-4.727,-8.464 -7.09,-18.358 -7.09,-29.68c0,-11.542 2.693,-21.243 8.08,-29.102c5.386,-7.86 12.091,-13.686 20.116,-17.478c8.024,-3.793 15.994,-5.689 23.909,-5.689c8.024,-0 16.213,1.896 24.568,5.689c8.354,3.792 15.362,9.618 21.023,17.478c5.661,7.859 8.492,17.56 8.492,29.102c-0,11.103 -2.419,20.886 -7.255,29.35c-4.837,8.464 -11.268,15.005 -19.292,19.622c-8.025,4.617 -16.764,6.925 -26.217,6.925Zm-41.057,-55.402c-0,8.794 1.786,16.544 5.358,23.249c3.573,6.705 8.492,11.872 14.758,15.499c6.266,3.628 13.246,5.442 20.941,5.442c7.475,-0 14.29,-1.787 20.446,-5.359c6.155,-3.573 11.047,-8.684 14.675,-15.335c3.627,-6.65 5.441,-14.482 5.441,-23.496c-0,-9.344 -2.171,-17.176 -6.513,-23.497c-4.342,-6.32 -9.701,-10.937 -16.077,-13.85c-6.375,-2.913 -12.696,-4.37 -18.962,-4.37c-6.265,0 -12.449,1.402 -18.55,4.205c-6.1,2.803 -11.212,7.337 -15.334,13.603c-4.122,6.266 -6.183,14.235 -6.183,23.909Z" style="fill:white;fill-rule:nonzero;stroke:white;stroke-width:8.33px;"/>
        <path d="M366.006,943.033c4.507,-9.344 12.696,-14.016 24.568,-14.016c1.979,0 3.518,0.495 4.617,1.484c1.099,0.99 1.649,2.419 1.649,4.287c0,1.759 -0.55,3.133 -1.649,4.123c-1.099,0.989 -2.638,1.484 -4.617,1.484c-8.024,-0 -14.07,2.803 -18.137,8.409c-4.067,5.606 -6.101,12.861 -6.101,21.765l-0,37.759c-0,1.649 -0.577,3.023 -1.731,4.122c-1.155,1.1 -2.556,1.649 -4.205,1.649c-1.869,0 -3.353,-0.522 -4.452,-1.566c-1.099,-1.045 -1.649,-2.446 -1.649,-4.205l0,-71.891c0,-1.759 0.632,-3.16 1.896,-4.204c1.264,-1.045 2.666,-1.567 4.205,-1.567c1.539,0 2.858,0.522 3.957,1.567c1.1,1.044 1.649,2.445 1.649,4.204l0,6.596Z" style="fill:white;fill-rule:nonzero;stroke:white;stroke-width:8.33px;"/>
        <path d="M491.321,971.723c-0,9.234 -1.897,17.148 -5.689,23.744c-3.792,6.595 -8.877,11.624 -15.252,15.087c-6.376,3.463 -13.466,5.194 -21.271,5.194c-5.496,0 -10.717,-1.154 -15.664,-3.463c-4.947,-2.308 -8.739,-5.881 -11.377,-10.717l-0,6.76c-0,3.847 -1.869,5.771 -5.606,5.771c-1.869,0 -3.353,-0.522 -4.452,-1.566c-1.1,-1.045 -1.649,-2.446 -1.649,-4.205l-0,-98.767c-0,-1.759 0.604,-3.161 1.814,-4.205c1.209,-1.044 2.638,-1.566 4.287,-1.566c1.649,-0 3.05,0.522 4.204,1.566c1.155,1.044 1.732,2.446 1.732,4.205l-0,32.977c2.418,-4.287 6.045,-7.612 10.882,-9.976c4.837,-2.363 10.113,-3.545 15.829,-3.545c8.245,0 15.582,1.869 22.013,5.606c6.43,3.738 11.405,8.849 14.922,15.335c3.518,6.486 5.277,13.741 5.277,21.765Zm-12.037,-0.659c-0,-4.837 -1.045,-9.591 -3.133,-14.263c-2.089,-4.672 -5.441,-8.574 -10.058,-11.707c-4.617,-3.133 -10.443,-4.699 -17.478,-4.699c-7.585,0.329 -13.851,2.885 -18.797,7.667c-4.947,4.782 -7.42,10.745 -7.42,17.89l-0,13.026c-0,7.585 2.528,13.658 7.584,18.22c5.057,4.562 11.323,6.953 18.798,7.173c6.045,-0 11.377,-1.457 15.994,-4.37c4.617,-2.913 8.189,-6.897 10.717,-11.954c2.529,-5.057 3.793,-10.718 3.793,-16.983Z" style="fill:white;fill-rule:nonzero;stroke:white;stroke-width:8.33px;"/>
        <path d="M523.144,910.55c-0,1.759 -0.605,3.133 -1.814,4.122c-1.209,0.989 -2.693,1.484 -4.452,1.484c-1.649,0 -3.078,-0.495 -4.287,-1.484c-1.209,-0.989 -1.814,-2.363 -1.814,-4.122l0,-0.825c0,-1.758 0.632,-3.16 1.896,-4.204c1.265,-1.044 2.721,-1.567 4.37,-1.567c1.649,0 3.078,0.523 4.287,1.567c1.209,1.044 1.814,2.446 1.814,4.204l-0,0.825Zm-12.202,25.557c0,-1.758 0.605,-3.105 1.814,-4.039c1.209,-0.935 2.638,-1.402 4.287,-1.402c1.649,0 3.05,0.467 4.205,1.402c1.154,0.934 1.731,2.226 1.731,3.875l-0,72.715c-0,1.759 -0.577,3.105 -1.731,4.04c-1.155,0.934 -2.556,1.401 -4.205,1.401c-1.649,0 -3.078,-0.467 -4.287,-1.401c-1.209,-0.935 -1.814,-2.281 -1.814,-4.04l0,-72.551Z" style="fill:white;fill-rule:nonzero;stroke:white;stroke-width:8.33px;"/>
        <path d="M581.844,930.666c1.759,0 3.133,0.495 4.122,1.484c0.989,0.989 1.484,2.144 1.484,3.463c-0,1.429 -0.495,2.638 -1.484,3.627c-0.989,0.99 -2.363,1.484 -4.122,1.484l-17.973,0l-0,44.85c-0,5.826 0.852,10.497 2.556,14.015c1.704,3.518 5.084,5.276 10.14,5.276c1.209,0 2.611,-0.192 4.205,-0.577c1.594,-0.384 2.776,-0.797 3.545,-1.236c1.209,-0.66 2.308,-0.99 3.298,-0.99c1.429,0 2.665,0.55 3.71,1.649c1.044,1.1 1.566,2.364 1.566,3.793c0,2.198 -1.209,4.012 -3.627,5.441c-3.298,1.869 -7.53,2.803 -12.697,2.803c-16.378,0 -24.568,-10.058 -24.568,-30.174l0,-44.85l-10.882,0c-1.759,0 -3.133,-0.494 -4.123,-1.484c-0.989,-0.989 -1.484,-2.143 -1.484,-3.462c0,-1.319 0.495,-2.501 1.484,-3.545c0.99,-1.045 2.364,-1.567 4.123,-1.567l10.882,0l0,-19.621c0,-1.869 0.577,-3.326 1.731,-4.37c1.155,-1.044 2.556,-1.566 4.205,-1.566c1.649,-0 3.05,0.522 4.205,1.566c1.154,1.044 1.731,2.501 1.731,4.37l-0,19.621l17.973,0Z" style="fill:white;fill-rule:nonzero;stroke:white;stroke-width:8.33px;"/>
        <path d="M643.347,929.017c5.276,0 10.25,1.045 14.922,3.133c4.672,2.089 8.382,5.386 11.13,9.893l-0,-5.441c-0,-1.759 0.522,-3.188 1.566,-4.287c1.045,-1.099 2.501,-1.649 4.37,-1.649c1.759,0 3.215,0.55 4.369,1.649c1.155,1.099 1.732,2.528 1.732,4.287l-0,71.561c-0,1.759 -0.55,3.188 -1.649,4.287c-1.099,1.1 -2.583,1.649 -4.452,1.649c-1.869,0 -3.325,-0.522 -4.37,-1.566c-1.044,-1.045 -1.566,-2.501 -1.566,-4.37l-0,-7.09c-2.309,4.507 -6.018,8.08 -11.13,10.718c-5.112,2.638 -10.305,3.957 -15.582,3.957c-8.024,0 -15.224,-1.759 -21.6,-5.276c-6.376,-3.518 -11.405,-8.602 -15.087,-15.252c-3.683,-6.651 -5.524,-14.428 -5.524,-23.332c-0,-9.124 1.896,-16.901 5.689,-23.332c3.792,-6.43 8.958,-11.294 15.499,-14.592c6.541,-3.298 13.768,-4.947 21.683,-4.947Zm-0.495,75.354c7.585,-0.22 13.906,-2.583 18.962,-7.09c5.057,-4.507 7.585,-10.608 7.585,-18.303l-0,-13.026c-0,-7.915 -2.418,-14.07 -7.255,-18.467c-4.837,-4.397 -11.158,-6.761 -18.962,-7.09c-6.376,-0.11 -11.872,1.264 -16.489,4.122c-4.617,2.858 -8.134,6.705 -10.553,11.542c-2.418,4.837 -3.627,10.113 -3.627,15.829c-0,7.475 1.676,13.631 5.029,18.467c3.353,4.837 7.392,8.382 12.119,10.636c4.727,2.253 9.124,3.38 13.191,3.38Z" style="fill:white;fill-rule:nonzero;stroke:white;stroke-width:8.33px;"/>
        <path d="M717.876,1008.49c-0,1.539 -0.577,2.858 -1.732,3.957c-1.154,1.1 -2.555,1.649 -4.204,1.649c-1.759,0 -3.215,-0.549 -4.37,-1.649c-1.154,-1.099 -1.731,-2.418 -1.731,-3.957l0,-98.932c0,-1.539 0.577,-2.858 1.731,-3.958c1.155,-1.099 2.611,-1.649 4.37,-1.649c1.649,0 3.05,0.55 4.204,1.649c1.155,1.1 1.732,2.419 1.732,3.958l-0,98.932Z" style="fill:white;fill-rule:nonzero;stroke:white;stroke-width:8.33px;"/>
        <g>
            <clipPath id="_clip1">
                <path d="M472.441,48.368c236.06,-0 427.711,191.651 427.711,427.711c-0,236.06 -191.651,427.711 -427.711,427.711c-236.06,-0 -427.711,-191.651 -427.711,-427.711c0,-236.06 191.651,-427.711 427.711,-427.711Zm-0,67.232c198.954,-0 360.479,161.525 360.479,360.479c0,198.953 -161.525,360.479 -360.479,360.479c-198.954,-0 -360.479,-161.526 -360.479,-360.479c-0,-198.954 161.525,-360.479 360.479,-360.479Z"/>
            </clipPath>
            <g clip-path="url(#_clip1)">
                <path d="M188.423,637.748c-81.675,-60.865 -139.845,-121.592 -139.845,-162.169c0,-40.619 58.289,-101.429 140.096,-162.356c11.791,-102.166 35.381,-183.904 70.769,-204.336c35.326,-20.395 117.68,-0.064 211.845,40.664c95.125,-41.393 178.537,-62.226 214.151,-41.664c35.64,20.577 59.313,103.338 71.019,206.522c81.676,60.865 139.846,121.593 139.846,162.17c-0,40.618 -58.289,101.428 -140.096,162.355c-11.791,102.166 -35.381,183.905 -70.769,204.336c-35.326,20.396 -117.68,0.064 -211.846,-40.663c-95.125,41.393 -178.536,62.225 -214.15,41.663c-35.64,-20.577 -59.314,-103.337 -71.02,-206.522Zm24.841,-2.818c6.719,59.225 17.328,111.468 32.29,147.997c7.798,19.04 15.726,33.536 26.389,39.693c10.653,6.15 27.151,5.773 47.515,3.015c39.073,-5.292 89.564,-22.195 144.16,-45.952c6.345,-2.761 13.549,-2.769 19.9,-0.022c54.012,23.361 103.888,39.929 142.499,45.053c20.091,2.667 36.378,2.993 46.922,-3.094c10.567,-6.102 18.441,-20.415 26.19,-39.208c14.887,-36.105 25.48,-87.734 32.244,-146.344c0.791,-6.848 4.374,-13.066 9.902,-17.184c46.909,-34.936 85.888,-69.656 109.436,-100.368c12.244,-15.968 20.593,-29.828 20.593,-41.937c-0,-12.094 -8.331,-25.935 -20.548,-41.879c-23.502,-30.672 -62.406,-65.347 -109.236,-100.245c-5.539,-4.128 -9.123,-10.363 -9.902,-17.228c-6.719,-59.225 -17.328,-111.467 -32.29,-147.996c-7.798,-19.041 -15.726,-33.537 -26.389,-39.693c-10.653,-6.151 -27.151,-5.773 -47.515,-3.015c-39.073,5.291 -89.564,22.194 -144.16,45.951c-6.345,2.761 -13.549,2.769 -19.9,0.022c-54.013,-23.36 -103.889,-39.929 -142.499,-45.053c-20.091,-2.666 -36.378,-2.993 -46.922,3.095c-10.567,6.101 -18.441,20.414 -26.19,39.208c-14.887,36.104 -25.48,87.734 -32.244,146.343c-0.791,6.848 -4.374,13.066 -9.903,17.184c-46.908,34.936 -85.887,69.657 -109.435,100.368c-12.244,15.968 -20.593,29.828 -20.593,41.938c0,12.094 8.331,25.934 20.548,41.878c23.502,30.673 62.406,65.347 109.236,100.245c5.539,4.128 9.123,10.364 9.902,17.228Z" style="fill:white;"/>
            </g>
            <path d="M472.441,159.035c57.429,0 245.853,108.787 274.568,158.522c28.714,49.735 28.714,267.309 -0,317.043c-28.715,49.735 -217.139,158.522 -274.568,158.522c-57.429,0 -245.853,-108.787 -274.568,-158.522c-28.714,-49.734 -28.714,-267.308 0,-317.043c28.715,-49.735 217.139,-158.522 274.568,-158.522Zm-0,31.25c-25.837,0 -80.352,26.359 -132.427,56.424c-52.074,30.065 -102.159,64.098 -115.077,86.473c-12.919,22.375 -17.349,82.766 -17.349,142.897c-0,60.13 4.43,120.521 17.349,142.896c12.918,22.376 63.003,56.408 115.077,86.473c52.075,30.066 106.59,56.424 132.427,56.424c25.837,0 80.352,-26.358 132.427,-56.424c52.074,-30.065 102.159,-64.097 115.077,-86.473c12.919,-22.375 17.349,-82.766 17.349,-142.896c0,-60.131 -4.43,-120.522 -17.349,-142.897c-12.918,-22.375 -63.003,-56.408 -115.077,-86.473c-52.075,-30.065 -106.59,-56.424 -132.427,-56.424Z" style="fill:white;"/>
        </g>
    </g>
</svg>
