<?xml version="1.0" encoding="UTF-8"?><svg id="Layer_1" xmlns="http://www.w3.org/2000/svg" viewBox="0 0 4092.72 1462.37"><g><path d="m998.46,806.87c5.27,0,9.4,1.73,12.36,5.19,2.97,3.46,4.45,7.5,4.45,12.12,0,4.29-1.48,7.91-4.45,10.88-2.97,2.97-7.09,4.45-12.36,4.45h-208.22c-6.6,0-12.04-2.14-16.32-6.43-4.29-4.28-6.43-9.4-6.43-15.33v-271.53c0-5.93,2.14-10.96,6.43-15.09,4.28-4.12,9.72-6.18,16.32-6.18h208.71c4.95,0,8.73,1.48,11.38,4.45,2.64,2.97,3.96,6.6,3.96,10.88s-1.41,8.08-4.2,11.38c-2.81,3.3-6.68,4.95-11.62,4.95h-195.36v111.28h185.96c4.61,0,8.32,1.57,11.13,4.7,2.8,3.14,4.2,7.01,4.2,11.62,0,3.96-1.32,7.5-3.96,10.63-2.64,3.14-6.43,4.7-11.37,4.7h-185.96v107.32h195.36Z"/><path d="m1083.53,821.22v-278.94c0-5.6,1.81-9.89,5.44-12.86,3.62-2.97,7.91-4.45,12.86-4.45s9.23,1.48,12.86,4.45c3.62,2.97,5.44,7.26,5.44,12.86v264.6h184.97c5.93,0,10.55,1.57,13.85,4.7,3.29,3.14,4.95,7.01,4.95,11.62,0,4.29-1.65,8.08-4.95,11.38s-7.91,4.95-13.85,4.95h-202.78c-12.54,0-18.79-6.1-18.79-18.3Z"/><path d="m1599.37,806.87c5.27,0,9.4,1.73,12.37,5.19,2.97,3.46,4.45,7.5,4.45,12.12,0,4.29-1.48,7.91-4.45,10.88-2.97,2.97-7.09,4.45-12.37,4.45h-208.22c-6.6,0-12.04-2.14-16.32-6.43-4.29-4.28-6.43-9.4-6.43-15.33v-271.53c0-5.93,2.14-10.96,6.43-15.09,4.28-4.12,9.72-6.18,16.32-6.18h208.71c4.95,0,8.73,1.48,11.38,4.45,2.63,2.97,3.96,6.6,3.96,10.88s-1.41,8.08-4.2,11.38c-2.8,3.3-6.68,4.95-11.62,4.95h-195.36v111.28h185.96c4.61,0,8.32,1.57,11.13,4.7,2.8,3.14,4.2,7.01,4.2,11.62,0,3.96-1.32,7.5-3.96,10.63-2.64,3.14-6.43,4.7-11.38,4.7h-185.96v107.32h195.36Z"/><path d="m1976.73,524.96c4.61,0,8.57,1.73,11.87,5.19,3.29,3.46,4.95,8.16,4.95,14.1v277.46c0,5.61-1.73,9.98-5.19,13.11-3.46,3.14-7.67,4.7-12.61,4.7s-9.23-1.56-12.86-4.7c-3.63-3.13-5.44-7.5-5.44-13.11v-217.62l-100.9,157.77c-4.29,6.92-9.89,10.39-16.82,10.39s-12.7-3.46-17.31-10.39l-100.89-156.78v216.63c0,5.61-1.73,9.98-5.19,13.11-3.46,3.14-7.67,4.7-12.61,4.7s-9.24-1.56-12.86-4.7c-3.63-3.13-5.44-7.5-5.44-13.11v-276.97c0-5.93,1.73-10.71,5.19-14.34,3.46-3.62,7.5-5.44,12.12-5.44,2.97,0,5.94.91,8.9,2.72,2.97,1.82,5.44,4.54,7.42,8.16l120.68,187.45,119.69-187.94c4.28-6.92,10.05-10.39,17.31-10.39Z"/><path d="m2312.05,806.87c5.27,0,9.4,1.73,12.36,5.19,2.97,3.46,4.45,7.5,4.45,12.12,0,4.29-1.48,7.91-4.45,10.88-2.97,2.97-7.09,4.45-12.36,4.45h-208.22c-6.6,0-12.04-2.14-16.32-6.43-4.29-4.28-6.43-9.4-6.43-15.33v-271.53c0-5.93,2.14-10.96,6.43-15.09,4.28-4.12,9.72-6.18,16.32-6.18h208.71c4.95,0,8.73,1.48,11.37,4.45,2.64,2.97,3.96,6.6,3.96,10.88s-1.41,8.08-4.2,11.38c-2.81,3.3-6.68,4.95-11.62,4.95h-195.36v111.28h185.96c4.61,0,8.32,1.57,11.13,4.7,2.8,3.14,4.2,7.01,4.2,11.62,0,3.96-1.32,7.5-3.96,10.63-2.64,3.14-6.43,4.7-11.38,4.7h-185.96v107.32h195.36Z"/><path d="m2625.86,529.17c3.79-2.8,8.32-4.2,13.6-4.2,4.95,0,9.23,1.41,12.86,4.2,3.62,2.8,5.44,6.68,5.44,11.62v277.46c0,6.6-2.23,11.79-6.68,15.58-4.45,3.8-9.82,5.69-16.07,5.69-4.29,0-8.41-.99-12.37-2.97-3.96-1.98-7.09-4.77-9.4-8.41l-184.97-245.31,3.96,68.25v170.14c0,5.93-1.82,10.47-5.44,13.6-3.63,3.14-8.08,4.7-13.35,4.7s-9.73-1.56-13.35-4.7c-3.63-3.13-5.44-7.67-5.44-13.6v-274.49c0-6.92,1.89-12.28,5.69-16.07,3.79-3.79,8.49-5.69,14.1-5.69,3.96,0,7.74.99,11.37,2.97,3.62,1.98,6.59,4.78,8.9,8.41l190.41,250.26-4.95-74.68v-171.12c0-4.95,1.89-8.82,5.69-11.62Z"/><path d="m2982.94,529.91c3.13,3.3,4.7,7.26,4.7,11.87,0,4.95-1.57,9.07-4.7,12.36-3.14,3.3-7.67,4.95-13.6,4.95h-110.29l.49,262.13c0,5.61-1.98,10.06-5.94,13.35-3.96,3.3-8.25,4.95-12.86,4.95s-8.74-1.56-12.37-4.7c-3.63-3.13-5.44-7.67-5.44-13.6v-262.13h-109.8c-5.28,0-9.48-1.73-12.61-5.19-3.13-3.46-4.7-7.5-4.7-12.12s1.57-8.57,4.7-11.87c3.13-3.29,7.33-4.95,12.61-4.95h256.19c5.93,0,10.46,1.65,13.6,4.95Z"/><path d="m3074.44,824.18c-24.23-13.52-43.45-32.97-57.62-58.36-14.18-25.39-21.27-55.06-21.27-89.03s8.08-63.72,24.23-87.29c16.15-23.57,36.27-41.05,60.34-52.43,24.07-11.38,47.97-17.06,71.71-17.06s48.63,5.69,73.69,17.06c25.05,11.37,46.07,28.86,63.06,52.43,16.98,23.58,25.47,52.67,25.47,87.29s-7.26,62.65-21.76,88.04c-14.51,25.39-33.8,45.01-57.87,58.85-24.07,13.85-50.28,20.77-78.64,20.77-30.01,0-57.12-6.75-81.36-20.28Zm-25.72-76.17c10.71,20.11,25.47,35.61,44.27,46.49,18.79,10.88,39.73,16.32,62.81,16.32s42.86-5.36,61.33-16.07c18.46-10.71,33.14-26.04,44.02-46,10.88-19.95,16.32-43.44,16.32-70.48s-6.52-51.51-19.54-70.48c-13.03-18.96-29.1-32.8-48.22-41.54-19.13-8.73-38.08-13.11-56.88-13.11s-37.34,4.2-55.64,12.61c-18.3,8.41-33.63,22.01-46,40.8-12.37,18.79-18.55,42.7-18.55,71.71,0,26.38,5.36,49.63,16.07,69.74Z"/></g><g><path d="m998.46,806.87c5.27,0,9.4,1.73,12.36,5.19,2.97,3.46,4.45,7.5,4.45,12.12,0,4.29-1.48,7.91-4.45,10.88-2.97,2.97-7.09,4.45-12.36,4.45h-208.22c-6.6,0-12.04-2.14-16.32-6.43-4.29-4.28-6.43-9.4-6.43-15.33v-271.53c0-5.93,2.14-10.96,6.43-15.09,4.28-4.12,9.72-6.18,16.32-6.18h208.71c4.95,0,8.73,1.48,11.38,4.45,2.64,2.97,3.96,6.6,3.96,10.88s-1.41,8.08-4.2,11.38c-2.81,3.3-6.68,4.95-11.62,4.95h-195.36v111.28h185.96c4.61,0,8.32,1.57,11.13,4.7,2.8,3.14,4.2,7.01,4.2,11.62,0,3.96-1.32,7.5-3.96,10.63-2.64,3.14-6.43,4.7-11.37,4.7h-185.96v107.32h195.36Z"/><path d="m1083.53,821.22v-278.94c0-5.6,1.81-9.89,5.44-12.86,3.62-2.97,7.91-4.45,12.86-4.45s9.23,1.48,12.86,4.45c3.62,2.97,5.44,7.26,5.44,12.86v264.6h184.97c5.93,0,10.55,1.57,13.85,4.7,3.29,3.14,4.95,7.01,4.95,11.62,0,4.29-1.65,8.08-4.95,11.38s-7.91,4.95-13.85,4.95h-202.78c-12.54,0-18.79-6.1-18.79-18.3Z"/><path d="m1599.37,806.87c5.27,0,9.4,1.73,12.37,5.19,2.97,3.46,4.45,7.5,4.45,12.12,0,4.29-1.48,7.91-4.45,10.88-2.97,2.97-7.09,4.45-12.37,4.45h-208.22c-6.6,0-12.04-2.14-16.32-6.43-4.29-4.28-6.43-9.4-6.43-15.33v-271.53c0-5.93,2.14-10.96,6.43-15.09,4.28-4.12,9.72-6.18,16.32-6.18h208.71c4.95,0,8.73,1.48,11.38,4.45,2.63,2.97,3.96,6.6,3.96,10.88s-1.41,8.08-4.2,11.38c-2.8,3.3-6.68,4.95-11.62,4.95h-195.36v111.28h185.96c4.61,0,8.32,1.57,11.13,4.7,2.8,3.14,4.2,7.01,4.2,11.62,0,3.96-1.32,7.5-3.96,10.63-2.64,3.14-6.43,4.7-11.38,4.7h-185.96v107.32h195.36Z"/><path d="m1976.73,524.96c4.61,0,8.57,1.73,11.87,5.19,3.29,3.46,4.95,8.16,4.95,14.1v277.46c0,5.61-1.73,9.98-5.19,13.11-3.46,3.14-7.67,4.7-12.61,4.7s-9.23-1.56-12.86-4.7c-3.63-3.13-5.44-7.5-5.44-13.11v-217.62l-100.9,157.77c-4.29,6.92-9.89,10.39-16.82,10.39s-12.7-3.46-17.31-10.39l-100.89-156.78v216.63c0,5.61-1.73,9.98-5.19,13.11-3.46,3.14-7.67,4.7-12.61,4.7s-9.24-1.56-12.86-4.7c-3.63-3.13-5.44-7.5-5.44-13.11v-276.97c0-5.93,1.73-10.71,5.19-14.34,3.46-3.62,7.5-5.44,12.12-5.44,2.97,0,5.94.91,8.9,2.72,2.97,1.82,5.44,4.54,7.42,8.16l120.68,187.45,119.69-187.94c4.28-6.92,10.05-10.39,17.31-10.39Z"/><path d="m2312.05,806.87c5.27,0,9.4,1.73,12.36,5.19,2.97,3.46,4.45,7.5,4.45,12.12,0,4.29-1.48,7.91-4.45,10.88-2.97,2.97-7.09,4.45-12.36,4.45h-208.22c-6.6,0-12.04-2.14-16.32-6.43-4.29-4.28-6.43-9.4-6.43-15.33v-271.53c0-5.93,2.14-10.96,6.43-15.09,4.28-4.12,9.72-6.18,16.32-6.18h208.71c4.95,0,8.73,1.48,11.37,4.45,2.64,2.97,3.96,6.6,3.96,10.88s-1.41,8.08-4.2,11.38c-2.81,3.3-6.68,4.95-11.62,4.95h-195.36v111.28h185.96c4.61,0,8.32,1.57,11.13,4.7,2.8,3.14,4.2,7.01,4.2,11.62,0,3.96-1.32,7.5-3.96,10.63-2.64,3.14-6.43,4.7-11.38,4.7h-185.96v107.32h195.36Z"/><path d="m2625.86,529.17c3.79-2.8,8.32-4.2,13.6-4.2,4.95,0,9.23,1.41,12.86,4.2,3.62,2.8,5.44,6.68,5.44,11.62v277.46c0,6.6-2.23,11.79-6.68,15.58-4.45,3.8-9.82,5.69-16.07,5.69-4.29,0-8.41-.99-12.37-2.97-3.96-1.98-7.09-4.77-9.4-8.41l-184.97-245.31,3.96,68.25v170.14c0,5.93-1.82,10.47-5.44,13.6-3.63,3.14-8.08,4.7-13.35,4.7s-9.73-1.56-13.35-4.7c-3.63-3.13-5.44-7.67-5.44-13.6v-274.49c0-6.92,1.89-12.28,5.69-16.07,3.79-3.79,8.49-5.69,14.1-5.69,3.96,0,7.74.99,11.37,2.97,3.62,1.98,6.59,4.78,8.9,8.41l190.41,250.26-4.95-74.68v-171.12c0-4.95,1.89-8.82,5.69-11.62Z"/><path d="m2982.94,529.91c3.13,3.3,4.7,7.26,4.7,11.87,0,4.95-1.57,9.07-4.7,12.36-3.14,3.3-7.67,4.95-13.6,4.95h-110.29l.49,262.13c0,5.61-1.98,10.06-5.94,13.35-3.96,3.3-8.25,4.95-12.86,4.95s-8.74-1.56-12.37-4.7c-3.63-3.13-5.44-7.67-5.44-13.6v-262.13h-109.8c-5.28,0-9.48-1.73-12.61-5.19-3.13-3.46-4.7-7.5-4.7-12.12s1.57-8.57,4.7-11.87c3.13-3.29,7.33-4.95,12.61-4.95h256.19c5.93,0,10.46,1.65,13.6,4.95Z"/><path d="m3074.44,824.18c-24.23-13.52-43.45-32.97-57.62-58.36-14.18-25.39-21.27-55.06-21.27-89.03s8.08-63.72,24.23-87.29c16.15-23.57,36.27-41.05,60.34-52.43,24.07-11.38,47.97-17.06,71.71-17.06s48.63,5.69,73.69,17.06c25.05,11.37,46.07,28.86,63.06,52.43,16.98,23.58,25.47,52.67,25.47,87.29s-7.26,62.65-21.76,88.04c-14.51,25.39-33.8,45.01-57.87,58.85-24.07,13.85-50.28,20.77-78.64,20.77-30.01,0-57.12-6.75-81.36-20.28Zm-25.72-76.17c10.71,20.11,25.47,35.61,44.27,46.49,18.79,10.88,39.73,16.32,62.81,16.32s42.86-5.36,61.33-16.07c18.46-10.71,33.14-26.04,44.02-46,10.88-19.95,16.32-43.44,16.32-70.48s-6.52-51.51-19.54-70.48c-13.03-18.96-29.1-32.8-48.22-41.54-19.13-8.73-38.08-13.11-56.88-13.11s-37.34,4.2-55.64,12.61c-18.3,8.41-33.63,22.01-46,40.8-12.37,18.79-18.55,42.7-18.55,71.71,0,26.38,5.36,49.63,16.07,69.74Z"/></g><g><path d="m1700,1065.8c0,4.59-3.6,6.99-7.39,6.99-3.59,0-7.19-2.4-7.19-6.79v-113.24c0-4.19,2.99-6.99,7.39-6.99h47.33c34.55,0,52.13,19.57,52.13,42.94,0,20.17-10.98,34.75-35.55,38.95l30.56,32.95c5.59,5.59.8,12.18-4.59,12.18-1.8,0-3.79-.8-5.39-2.6l-38.55-41.74h-38.75v37.35Zm40.34-49.93c25.76,0,37.15-11.78,37.15-26.36-.2-17.18-13.98-30.36-37.15-30.36h-40.34v56.72h40.34Z"/><path d="m1902.21,1030.85h-78.89c2.6,16.38,16.58,30.56,36.55,30.56,9.19,0,18.77-2.4,26.56-8.39,6.99-6.39,17.38,1.8,9.59,9.79-9.19,8.59-22.57,12.18-35.55,11.98-31.56,0-51.93-22.77-51.93-52.93,0-33.75,25.37-52.13,50.93-52.13,26.96,0,51.93,15.78,52.53,51.93,0,4.39-1.6,9.19-9.79,9.19Zm-4.19-12.18c-2-23.97-20.77-35.35-37.55-35.35-18.77,0-35.95,11.38-37.75,35.35h75.29Z"/><path d="m2013.12,985.51v-6.59c0-4.19,2.6-7.19,7.19-7.19s7.39,3,7.39,7.19v86.68c0,4.39-2.99,7.19-7.39,7.19s-7.19-2.8-7.19-7.19v-8.59c-5.79,11.58-20.57,17.77-32.35,17.77-28.96,0-51.13-19.97-51.13-53.13s23.57-51.93,51.93-51.93c11.38,0,24.37,3.99,31.56,15.78Zm0,44.74v-15.78c0-19.77-13.78-30.16-31.75-30.96-24.17-.4-37.15,17.77-37.15,38.15,0,29.16,23.77,39.35,36.75,39.35,17.57-.6,32.15-11.38,32.15-30.76Z"/><path d="m2134.7,986.11v-39.74c0-4.59,3.59-6.99,7.39-6.99,3.59,0,7.19,2.4,7.19,6.99v119.43c0,4.39-2.8,6.99-7.39,6.99s-6.79-2.6-6.79-6.99v-8.19c-6.79,12.38-20.77,17.18-32.75,17.18-27.76,0-51.13-18.77-51.13-53.32,0-19.97,12.38-51.53,51.13-51.53,13.38,0,26.36,5.59,32.35,16.18Zm0,44.14v-15.78c0-17.58-13.58-29.96-31.76-30.76-29.76,0-37.15,24.17-37.15,37.15,0,30.96,23.17,40.14,37.75,40.14,17.18-1,31.16-11.98,31.16-30.76Z"/><path d="m2175.19,971.73c2.4,0,4.79,1.2,6.19,4.19l37.55,75.09,37.15-75.29c1.4-2.8,3.79-3.99,6.19-3.99,4.59,0,9.39,3.99,7.39,9.39l-63.11,125.42c-4.79,9.39-17.38,4.39-13.58-4.99l17.58-35.75-42.74-84.08c-2.4-5.39,2.6-9.99,7.39-9.99Z"/><path d="m2285.84,1064.4c0,4.99-3.39,8.39-8.59,8.39s-8.99-3.4-8.99-8.39,3.8-8.39,8.99-8.39,8.59,3.4,8.59,8.39Z"/><path d="m2367.93,1041.24c5.19,16.58,27.36,19.17,43.34,19.17,16.98,0,43.34-4.19,43.34-24.37,0-17.38-20.97-18.77-42.94-20.57-27.56-2.2-57.12-4.79-57.12-34.55,0-26.36,30.36-37.15,54.72-37.15,20.97,0,47.13,3.99,55.52,26.76,2.99,7.99-10.59,11.58-13.58,4.79-5.99-15.18-27.36-16.78-41.74-16.78-13.38,0-39.35,4.39-39.35,22.57s19.97,19.17,43.14,20.97c27.36,2.4,56.72,3.79,56.72,33.75s-34.15,38.94-58.72,38.94c-20.37,0-51.53-5.99-58.12-29.96-2.4-8.79,13.18-11.78,14.78-3.59Z"/><path d="m2580.02,1030.85h-78.89c2.6,16.38,16.58,30.56,36.55,30.56,9.19,0,18.77-2.4,26.56-8.39,6.99-6.39,17.38,1.8,9.59,9.79-9.19,8.59-22.57,12.18-35.55,11.98-31.56,0-51.93-22.77-51.93-52.93,0-33.75,25.37-52.13,50.93-52.13,26.96,0,51.93,15.78,52.53,51.93,0,4.39-1.6,9.19-9.79,9.19Zm-4.19-12.18c-2-23.97-20.77-35.35-37.55-35.35-18.77,0-35.95,11.38-37.75,35.35h75.29Z"/><path d="m2653.42,983.92h-21.77v54.32c0,11.38,1.8,23.37,15.38,23.37,2.99,0,7.39-1,9.39-2.2,8.39-4.79,14.98,6.99,5.99,11.98-4.99,2.8-9.99,3.4-15.38,3.4-23.97,0-29.76-17.58-29.76-36.55v-54.32h-13.18c-9.39,0-8.79-12.18,0-12.18h13.18v-23.77c0-9.59,14.38-9.39,14.38,0v23.77h21.77c8.99,0,8.99,12.18,0,12.18Z"/><path d="m2697.19,1064.4c0,4.99-3.39,8.39-8.59,8.39s-8.99-3.4-8.99-8.39,3.8-8.39,8.99-8.39,8.59,3.4,8.59,8.39Z"/><path d="m2880.93,963.54c5.99,6.79-4.59,14.98-10.19,8.99-10.78-11.38-22.97-15.18-36.35-15.18-21.37,0-51.73,10.98-51.73,50.33,0,30.16,23.17,53.33,50.53,53.33,15.38,0,29.76-6.99,39.14-18.97,4.39-6.59,16.58.6,11.38,7.99-10.98,15.58-31.96,24.76-50.93,24.76-33.95,0-64.31-28.16-64.31-67.31,0-45.74,38.75-63.71,65.51-63.71,18.17,0,34.15,6.19,46.93,19.77Z"/><path d="m2911.2,1072.79c-4.39,0-7.39-3-7.39-6.79v-119.83c0-3.8,3-6.79,7.39-6.79,4,0,7.19,3,7.19,6.79v119.83c0,3.79-3.2,6.79-7.19,6.79Z"/><path d="m2939.56,1020.86c0-28.96,22.17-51.13,52.13-51.13s52.13,23.57,52.13,52.13c0,30.36-21.97,52.93-52.13,52.93-31.75,0-52.13-24.17-52.13-53.92Zm14.78,1.6c0,21.37,14.98,38.55,37.35,38.55s37.55-18.18,37.55-38.15c0-26.96-18.97-39.54-37.75-39.54s-37.15,13.18-37.15,39.14Z"/><path d="m3111.07,1061.21c19.37,0,37.55-15.98,37.55-37.75v-46.73c0-4.39,2.6-6.99,7.19-6.99s7.59,2.6,7.59,6.99v89.08c0,4.59-3.59,6.99-7.19,6.99s-7.19-2.4-7.19-7.19v-11.78c-7.19,14.58-22.57,20.97-38.15,20.97-23.17,0-45.34-15.98-45.34-44.74v-53.32c0-4.39,2.6-6.99,7.19-6.99s7.39,2.6,7.39,6.99v53.32c0,18.37,14.78,31.16,30.96,31.16Z"/><path d="m3270.2,986.11v-39.74c0-4.59,3.59-6.99,7.39-6.99,3.59,0,7.19,2.4,7.19,6.99v119.43c0,4.39-2.8,6.99-7.39,6.99s-6.79-2.6-6.79-6.99v-8.19c-6.79,12.38-20.77,17.18-32.75,17.18-27.76,0-51.13-18.77-51.13-53.32,0-19.97,12.38-51.53,51.13-51.53,13.38,0,26.36,5.59,32.35,16.18Zm0,44.14v-15.78c0-17.58-13.58-29.96-31.75-30.76-29.76,0-37.15,24.17-37.15,37.15,0,30.96,23.17,40.14,37.75,40.14,17.18-1,31.15-11.98,31.15-30.76Z"/><path d="m3325.23,1064.4c0,4.99-3.4,8.39-8.59,8.39s-8.99-3.4-8.99-8.39,3.8-8.39,8.99-8.39,8.59,3.4,8.59,8.39Z"/></g></svg>