<?xml version="1.0" encoding="UTF-8"?><svg id="Livello_1" xmlns="http://www.w3.org/2000/svg" viewBox="0 0 1920 1080"><defs><style>.cls-1{fill:#f28e00;}.cls-2{fill:#e6e6e6;}.cls-3{fill:#f5f5f7;}.cls-4{fill:#fff;}.cls-5{fill:orange;}.cls-6{fill:#ffa600;}.cls-7{fill:#aab0af;}.cls-8{fill:#898c8a;}</style></defs><rect class="cls-6" width="1920" height="1080"/><g><path class="cls-7" d="m1622.44,619.69v1.59c-.12,3.39-4.58,8.71-4.62,8.75l-434.68,324.52c-18.33,13.47-52.19,15.8-75.72,5.12l-159.27-72.27-19.09,14.05c-18.33,13.51-52.19,15.8-75.74,5.16l-211.7-96.13c-15.3-6.95-22.4-17.69-20.42-28.1h0c1.04-5.54,4.68-10.98,11.06-15.68l19.13-14.05-5.76-2.63-407.3-184.84c-15.3-6.95-22.42-17.67-20.44-28.1h0c1.06-5.54,4.7-11,11.1-15.68l6.02-4.46,5.64-4.16,400.27-294.87c18.33-13.49,52.19-15.78,75.72-5.12l873.14,389.6,5.66,2.53,27.86,12.43-.88,2.35Z"/><path class="cls-3" d="m1627.76,620.32l-5.32-36.78L716.69,205.99c-23.49-10.68-57.37-8.37-75.7,5.12l-412,303.46c-18.31,13.51-14.05,33.08,9.37,43.76l413.02,187.47-19.11,14.05c-18.31,13.49-14.05,33.08,9.37,43.74l211.7,96.09c23.49,10.66,57.39,8.37,75.7-5.14l19.11-14.05,159.29,72.27c23.49,10.66,57.37,8.35,75.7-5.14l444.62-327.31Z"/><path class="cls-8" d="m1615.76,583.28l-432.63,317.81c-8.19,6.02-19.51,9.82-31.62,11.22v6.85c12.04-1.41,23.43-5.18,31.62-11.22l435.44-320c1.29-.94,3.1-.66,4.04.63.36.49.55,1.08.56,1.68l.16,27.06v1.65c.02,2.88-1.35,5.6-3.67,7.31l-436.51,321.52c-8.21,6.02-19.53,9.82-31.64,11.22v6.83c12.04-1.39,23.43-5.16,31.62-11.2l436.99-321.85c5.33-3.91,8.47-10.13,8.47-16.74v-26.28c.03-4.43-3.55-8.05-7.98-8.07-1.74,0-3.44.55-4.84,1.59Z"/><polygon class="cls-6" points="237.9 527.64 1157.67 948.24 1157.67 916.59 1116.34 912.93 237.9 514.89 237.9 527.64"/><polygon class="cls-1" points="1605.22 599.34 1605.22 620.34 1157.67 948.24 1157.67 916.59 1174.55 909.88 1605.22 594.32 1605.22 599.34"/><path class="cls-7" d="m1628.61,589.76c.03-4.43-3.53-8.06-7.97-8.09-1.76-.01-3.47.55-4.88,1.61l-432.63,317.81c-18.31,13.49-52.19,15.8-75.7,5.14L238.35,511.74c-11.94-5.42-18.87-13.13-20.42-21.18-2.01,10.36,5.12,21.08,20.42,28l869.08,394.51c23.49,10.66,57.39,8.37,75.7-5.14l435.44-320c1.29-.94,3.1-.66,4.04.63.36.49.55,1.08.56,1.68l.16,27.06v1.65c.02,2.88-1.35,5.6-3.67,7.31l-436.51,321.52c-18.33,13.49-52.19,15.8-75.7,5.14l-159.27-72.27-19.13,14.05c-18.31,13.51-52.19,15.8-75.7,5.14l-211.7-96.21c-12.04-5.44-18.89-13.13-20.46-21.18-2.01,10.36,5.14,21.08,20.44,28.1l211.7,96.11c23.49,10.66,57.39,8.37,75.72-5.14l19.11-14.05,159.27,72.27c23.49,10.68,57.39,8.37,75.7-5.12l436.99-321.85c5.33-3.91,8.47-10.13,8.47-16.74l.02-26.28Z"/><path d="m1605.22,620.34l13.33,6.73,2.59-2.1c1.75-2.4,2.43-3.91,2.18-9.53l-.16-25.19v-.25c-.33-1.91-1.85-3.11-3.95-2.45l-.65.39-13.35,9.81v22.59Z"/><path class="cls-2" d="m639.7,166.14c16.64-12.28,38.63-14.58,57.45-6.02l516.98,228.48,410.63,194.3-3.31-1.67.48.22h-2.87l-435.93,319.66c-18.33,13.49-52.19,15.8-75.72,5.12L238.35,511.74c-11.92-5.4-18.89-13.13-20.44-21.18h0c-1.49-7.81,2.01-15.9,11.1-22.54l410.69-301.87Z"/><path class="cls-4" d="m803.07,386.58l-184,133.47c-10.16,7.37-28.81,8.55-41.65,2.65l-70.96-32.72c-12.85-5.9-15.02-16.68-4.84-24.09l184-133.47c10.18-7.39,28.83-8.57,41.65-2.65l70.96,32.7c12.85,5.96,15.02,16.74,4.84,24.11Z"/><path class="cls-5" d="m499.55,491.18c-5.72-3.31-9.33-7.59-10.28-12.29-1.1-5.5,1.57-10.9,7.51-15.2l184-133.49c12.27-8.89,34.83-10.32,50.33-3.19l70.96,32.72c7.51,3.45,12.25,8.39,13.35,13.87,1.1,5.48-1.57,10.88-7.51,15.2h0l-184,133.41c-12.27,8.89-34.83,10.34-50.33,3.19l-70.96-32.7c-1.08-.44-2.11-.96-3.07-1.53Zm296.87-124.86c-.64-.36-1.3-.7-2.01-1.02l-70.98-32.72c-5.44-2.36-11.37-3.35-17.28-2.89-5.6.17-11.03,1.91-15.7,5l-184,133.47c-3.89,2.81-5.64,6.36-4.92,10.04s3.81,6.83,8.75,9.09l70.96,32.7c10.16,4.68,24.95,3.75,32.98-2.01l184-133.47c3.89-2.83,5.64-6.36,4.92-10.04-.95-3.57-3.4-6.54-6.72-8.15Z"/><polygon points="535.16 477.59 712.55 348.9 713.52 349.34 536.1 478.03 535.16 477.59"/><polygon points="562.76 490.3 740.15 361.62 741.1 362.07 563.7 490.74 562.76 490.3"/><polygon points="590.34 503.02 767.76 374.33 768.7 374.77 591.31 503.47 590.34 503.02"/></g></svg>