<?xml version="1.0" encoding="UTF-8"?><svg id="Livello_1" xmlns="http://www.w3.org/2000/svg" viewBox="0 0 1920 1080"><defs><style>.cls-1{fill:none;}.cls-2{fill:#fab83a;}.cls-3{fill:#004802;}.cls-4{fill:#006ac9;}.cls-5{fill:#00953b;}.cls-6{fill:#007bff;}.cls-7{fill:#f28e00;}.cls-8{fill:#ea5159;}.cls-9{fill:#fff;}.cls-10{fill:#ffa600;}.cls-11{fill:#333;}.cls-12{fill:#dc3545;}.cls-13{fill:#1c1c1c;}.cls-14{fill:#57b154;}.cls-15{fill:#28a745;}</style></defs><rect class="cls-13" width="1920" height="1080"/><g><path class="cls-7" d="m818.93,899.03c-2.03,0-4.12,0-6.16-.2-13.37-.76-26.39-4.52-38.1-11.01l-75.9-43.82c-13.21-7.64-20.87-18.2-20.87-29.01,0-9.31,5.55-17.61,15.58-23.46l372.83-215.25c9.05-5.22,21.39-8.1,34.73-8.1,15.48-.11,30.74,3.72,44.33,11.14l75.85,43.89c13.21,7.66,20.87,18.23,20.87,29.01,0,9.31-5.52,17.61-15.61,23.46l-372.85,215.25c-9,5.22-21.35,8.1-34.71,8.1Z"/><path class="cls-13" d="m902.73,768.33l195.9-113.14c18.75-10.81,51.51-9.46,73.17,3.04l6.19,3.57,58.22-29.32v18.07c0,6.87-4.16,13.43-12.66,18.34l-372.76,215.31c-18.75,10.83-51.51,9.46-73.17-3.04l-75.85-43.82c-11.84-6.82-17.92-15.58-17.92-23.88v-18.09l218.88-27.03Z"/><path d="m1236.24,632.52v18.09c0,6.89-4.16,13.45-12.66,18.34l-372.81,215.25c-9.88,5.7-23.66,8.03-37.64,7.13v-18.07c13.98.9,27.76-1.45,37.64-7.13l372.81-215.25c8.5-4.91,12.66-11.47,12.66-18.36Z"/><path class="cls-1" d="m902.73,768.33l195.9-113.14c18.75-10.81,51.51-9.46,73.17,3.04l6.19,3.57,58.22-29.32v18.07c0,6.87-4.16,13.43-12.66,18.34l-372.76,215.31c-18.75,10.83-51.51,9.46-73.17-3.04l-75.85-43.82c-11.84-6.82-17.92-15.58-17.92-23.88v-18.09l218.88-27.03Z"/><path class="cls-11" d="m1236.24,632.52c0,6.89-4.16,13.45-12.66,18.36l-372.81,215.25c-9.88,5.68-23.66,8.03-37.64,7.13-12.45-.69-24.58-4.17-35.5-10.17l-75.87-43.82c-11.86-6.82-17.9-15.61-17.9-23.88,0-6.89,4.14-13.45,12.63-18.36l372.85-215.25c18.75-10.81,51.53-9.46,73.17,3.04l61.52,35.53,14.37,8.3c11.75,6.82,17.83,15.61,17.83,23.88Z"/><path class="cls-13" d="m902.26,706.69l207.1-119.57c13.96-8.06,38.3-7.04,54.41,2.2l4.58,2.64,43.3-21.75v56.88c0,5.13-3.08,10.02-9.4,13.65l-359.62,207.48c-13.96,8.06-38.3,7.04-54.41-2.2l-69.25-39.99c-8.8-5.08-13.32-11.6-13.32-17.76v-56.94l196.61-24.63Z"/><path d="m1211.66,570.22v56.88c0,5.13-3.08,10.02-9.42,13.65l-359.6,207.48c-7.73,4.4-18.62,6.14-29.56,5.15v-56.88c11.01.97,21.84-.7,29.56-5.15l359.53-207.59c6.41-3.65,9.49-8.52,9.49-13.54Z"/><path class="cls-1" d="m902.26,706.69l207.1-119.57c13.96-8.06,38.3-7.04,54.41,2.2l4.58,2.64,43.3-21.75v56.88c0,5.13-3.08,10.02-9.4,13.65l-359.62,207.48c-13.96,8.06-38.3,7.04-54.41-2.2l-69.25-39.99c-8.8-5.08-13.32-11.6-13.32-17.76v-56.94l196.61-24.63Z"/><path class="cls-11" d="m1211.66,570.22c0,5.11-3.08,9.99-9.4,13.65l-359.62,207.48c-13.96,8.03-38.3,7.04-54.41-2.2l-69.25-39.97c-8.8-5.08-13.32-11.6-13.32-17.79,0-5.11,3.08-9.99,9.4-13.63l359.55-207.59c13.96-8.06,38.3-7.04,54.41,2.2l69.25,39.99c8.87,5.06,13.38,11.58,13.38,17.85Z"/><path class="cls-9" d="m1181.39,563.78l-22.01-12.77c-5.24-3.02-13.21-3.35-17.61-.73l-357.07,206.05c-4.4,2.62-3.96,7.2,1.28,10.21l22.01,12.77c5.22,3.02,13.21,3.35,17.61.73l356.89-206.05c4.71-2.62,4.14-7.2-1.1-10.21Z"/><path class="cls-13" d="m1182.67,573.99l-10.43,6.03-346.46,200.02c-4.53,2.62-12.46,2.2-17.61-.75l-12.67-7.31-59.42-34.32c-5.24-3.02-5.81-7.59-1.28-10.19l356.89-206.07c4.53-2.6,12.46-2.2,17.61.75l72.28,41.43c5.24,3.02,5.62,7.79,1.08,10.41Z"/><path d="m1172.23,580.02l-346.46,200.02c-5.16,2.97-13.11,2.17-18.27-.78l-62.27-36.29,346.46-200.04c4.53-2.6,12.46-2.2,17.61.75l62.93,36.34Z"/><ellipse class="cls-9" cx="1150.03" cy="642.81" rx="17.3" ry="9.99" transform="translate(14.7 1311.23) rotate(-59.69)"/><ellipse class="cls-10" cx="1175.23" cy="622.86" rx="17.21" ry="9.94" transform="translate(46.07 1325.8) rotate(-59.83)"/><path class="cls-4" d="m1102.57,310.98l-57.87,82.39-42.42-24.48c-1.17-17.48-7.44-30.35-17.17-37.71l70.9-122.29c27.8,17.96,45.23,52.98,46.55,102.09Z"/><polygon class="cls-3" points="1098.43 233.36 1056.01 208.89 985.11 331.18 1027.53 355.68 1098.43 233.36"/><path class="cls-14" d="m1048.53,204.62l42.42,24.43-113.34,97.8c-11.29-4.64-25.69-3.54-41.49,4.25v-115.01c43.47-23.57,82.85-26.33,112.41-11.47Z"/><polygon class="cls-5" points="936.12 216.08 978.56 240.58 978.56 355.66 936.12 331.16 936.12 216.08"/><path class="cls-2" d="m925.53,222.2l42.42,24.45-42.42,90.58c-16.67,11.56-30.79,26.44-41.47,43.69l-70.92-40.41c29.5-48.98,68.94-91.66,112.39-118.31Z"/><path class="cls-8" d="m876.56,393.87c-9.73,18.58-16,38.7-17.17,57.52l-57.87,82.39-42.42-24.5c1.32-50.63,18.75-105.87,46.53-155.84l70.92,40.43Z"/><path class="cls-6" d="m1145.01,335.47l-100.31,57.89c-1.17-17.45-7.44-30.33-17.17-37.68l70.9-122.23c27.82,17.81,45.26,52.83,46.58,102.02Z"/><path class="cls-15" d="m1090.95,229.05l-70.9,122.36c-11.31-4.64-25.69-3.54-41.49,4.25v-115.08c43.45-23.57,82.85-26.33,112.39-11.53Z"/><path class="cls-10" d="m967.95,246.66v115.12c-15.78,10.46-30.16,25.95-41.47,43.65l-70.92-40.41c29.56-48.98,68.94-91.7,112.39-118.35Z"/><path class="cls-12" d="m918.97,418.35c-9.73,18.58-16,38.7-17.17,57.52l-100.28,57.89c1.32-50.63,18.75-105.87,46.53-155.84l70.92,40.43Z"/><path class="cls-9" d="m1021.35,412.93c0,30.49-21.53,67.62-48.09,82.96-26.57,15.34-48.09,3.06-48.09-27.43s21.53-67.62,48.09-82.96c1.25-.73,2.51-1.39,3.74-1.98l31.06-124.89,2.03-.57-16.2,120.86c16.24-.51,27.47,12.02,27.47,34.01Z"/></g></svg>