<?xml version="1.0" encoding="UTF-8"?><svg id="Livello_1" xmlns="http://www.w3.org/2000/svg" xmlns:xlink="http://www.w3.org/1999/xlink" viewBox="0 0 1920 1080"><defs><style>.cls-1{fill:none;}.cls-2{clip-path:url(#clippath);}.cls-3{fill:#fab83a;}.cls-4{fill:#f28e00;}.cls-5{fill:#e6e6e6;}.cls-6{fill:#ea5159;}.cls-7{fill:#fff;}.cls-8{fill:#ffa600;}.cls-9{fill:#6b6c69;}.cls-10{fill:#333;}.cls-11{fill:#ba1631;}.cls-12{fill:#aab0af;}.cls-13{fill:#dce2e5;}.cls-14{fill:#dc3545;}.cls-15{fill:#1c1c1c;}.cls-16{fill:#898c8a;}</style><clipPath id="clippath"><rect class="cls-1" width="1920" height="1080"/></clipPath></defs><g class="cls-2"><g><g><polygon class="cls-10" points="1133.17 283.2 401.2 705.8 214.39 597.95 946.36 175.35 1133.17 283.2"/><polygon class="cls-15" points="214.39 597.95 214.39 717.04 401.2 824.89 401.2 705.8 214.39 597.95"/><polygon points="401.2 705.8 1133.17 283.2 1133.17 402.29 401.2 824.89 401.2 705.8"/><g><polygon class="cls-14" points="382.63 600.35 331.56 629.84 331.56 626.8 277.62 575.89 328.69 546.41 382.63 597.32 382.63 600.35"/><polygon class="cls-6" points="331.56 626.8 382.63 597.32 436.58 628.46 385.51 657.95 331.56 626.8"/><polygon class="cls-11" points="331.56 629.84 331.56 626.8 277.62 575.89 277.62 598.69 331.56 629.84"/></g><g><path class="cls-16" d="m1054.42,282.73c-1.98,10.35-8.94,20.42-20.93,28.95-2.11,1.47-4.37,2.93-6.76,4.3-1.19.69-2.39,1.36-3.62,1.99-1.26.65-2.54,1.31-3.85,1.91-1.56.74-3.16,1.44-4.79,2.09-37.7,15.55-90.42,13.54-124.24-5.99-16.14-9.32-25.38-21.11-27.69-33.26-2.76-14.43,4.22-29.35,20.93-41.23,2.11-1.49,4.35-2.91,6.76-4.3,2.39-1.39,4.89-2.7,7.47-3.9,37.9-17.78,93.72-16.49,129.02,3.9,21.56,12.44,30.8,29.31,27.69,45.55Z"/><g><path class="cls-12" d="m1054.42,282.73c-1.98,10.35-8.94,20.42-20.93,28.95-2.11,1.47-4.37,2.93-6.76,4.3-1.19.69-2.39,1.36-3.62,1.99-1.26.65-2.54,1.31-3.85,1.91-1.56.74-3.16,1.44-4.79,2.09-37.7,15.55-90.42,13.54-124.24-5.99-16.14-9.32-25.38-21.11-27.69-33.26,1.98-10.33,8.96-20.42,20.93-28.93,2.11-1.49,4.35-2.93,6.76-4.32,2.39-1.39,4.89-2.68,7.47-3.9,37.9-17.78,93.72-16.49,129.02,3.9,16.14,9.33,25.38,21.11,27.69,33.26Z"/><g><path class="cls-9" d="m922.67,309.54c4.53,2.61,4.53,6.85,0,9.46-4.53,2.61-11.86,2.61-16.39,0s-4.53-6.85,0-9.46c4.53-2.61,11.86-2.61,16.39,0Z"/><path class="cls-9" d="m1010.69,258.73c4.53,2.61,4.53,6.85,0,9.46-4.53,2.61-11.86,2.61-16.39,0-4.53-2.61-4.53-6.85,0-9.46,4.53-2.61,11.86-2.61,16.39,0Z"/></g><g><path class="cls-7" d="m897.71,245.57l11.23,6.49-14.22,8.21-11.23-6.49c2.1-1.49,4.34-2.92,6.75-4.31,2.39-1.38,4.9-2.68,7.47-3.9Z"/><path class="cls-13" d="m1023.11,317.97c-1.26.65-2.54,1.31-3.85,1.91-1.56.74-3.16,1.44-4.79,2.09l7.78-4.49.85.49Z"/></g></g></g><path class="cls-7" d="m385.51,664.33c-.58,0-1.16-.15-1.67-.45l-107.89-62.29c-1.6-.93-2.15-2.97-1.23-4.57.92-1.6,2.97-2.15,4.57-1.23l106.22,61.32,49.39-28.52c1.6-.93,3.65-.38,4.57,1.23.92,1.6.38,3.65-1.23,4.57l-51.07,29.48c-.52.3-1.1.45-1.67.45Z"/><g><path class="cls-8" d="m601.41,540.15v-76.21h-194.37v76.21h.02c-.17,14.49,9.31,29,28.45,40.06,37.96,21.91,99.5,21.91,137.45,0,19.15-11.05,28.62-25.57,28.45-40.06Z"/><path class="cls-4" d="m595.09,444.01h.02l-.33-.47c-.34-.5-.69-1-1.06-1.5l-13.21-18.74h-9.39c-37.48-20.57-96.31-20.57-133.78,0h-9.39l-13.07,18.55c-.46.62-.9,1.25-1.32,1.88l-.21.29h.01c-13.13,20.01-5.77,43.48,22.14,59.59,37.96,21.91,99.5,21.91,137.45,0,27.92-16.12,35.27-39.6,22.13-59.61Z"/><ellipse class="cls-3" cx="504.23" cy="423.3" rx="76.28" ry="44.04"/><path class="cls-8" d="m547.87,417.78v-43.21h-87.27v43.21h0c0,6.45,4.26,12.89,12.78,17.81,17.04,9.84,44.67,9.84,61.71,0,8.52-4.92,12.78-11.37,12.78-17.82Z"/><ellipse class="cls-3" cx="504.23" cy="374.57" rx="43.63" ry="25.19"/><path class="cls-4" d="m519.28,365.89c8.31,4.8,8.31,12.58,0,17.38-8.31,4.8-21.79,4.8-30.1,0-8.31-4.8-8.31-12.58,0-17.38,8.31-4.8,21.79-4.8,30.1,0Z"/></g><g><path class="cls-8" d="m828.54,409.38v-76.21h-194.37v76.21h.02c-.17,14.49,9.31,29,28.45,40.06,37.96,21.91,99.5,21.91,137.45,0,19.15-11.05,28.62-25.57,28.45-40.06Z"/><path class="cls-4" d="m822.22,313.23h.02l-.33-.47c-.34-.5-.69-1-1.05-1.5l-13.21-18.74h-9.39c-37.48-20.57-96.31-20.57-133.78,0h-9.39l-13.07,18.55c-.46.62-.9,1.25-1.32,1.88l-.21.29h.01c-13.13,20.01-5.77,43.48,22.14,59.59,37.96,21.91,99.5,21.91,137.45,0,27.92-16.12,35.27-39.6,22.13-59.61Z"/><ellipse class="cls-3" cx="731.36" cy="292.53" rx="76.28" ry="44.04"/><path class="cls-8" d="m775,287.01v-43.21h-87.27v43.21h0c0,6.45,4.26,12.89,12.78,17.81,17.04,9.84,44.67,9.84,61.71,0,8.52-4.92,12.78-11.37,12.78-17.82Z"/><ellipse class="cls-3" cx="731.36" cy="243.8" rx="43.63" ry="25.19"/><path class="cls-4" d="m746.41,235.11c8.31,4.8,8.31,12.58,0,17.38-8.31,4.8-21.79,4.8-30.1,0-8.31-4.8-8.31-12.58,0-17.38,8.31-4.8,21.79-4.8,30.1,0Z"/></g></g><path class="cls-5" d="m1243.61,891.84c-84.49,0-168.97-21.04-245.99-63.11-63.03-34.44-101.96-100.44-101.61-172.26l2-406.54c.21-42.09-24.19-81.04-62.15-99.22-21.66-10.38-46.73-8.93-67.05,3.87-20.32,12.8-32.45,34.78-32.45,58.8v26.02c0,2.88-2.33,5.21-5.21,5.21s-5.21-2.33-5.21-5.21v-26.02c0-27.62,13.95-52.9,37.32-67.62,23.38-14.72,52.2-16.38,77.11-4.46,41.58,19.91,68.3,62.57,68.08,108.68l-2,406.54c-.34,67.98,36.52,130.46,96.18,163.05,150.9,82.43,331.07,82.43,481.97,0l619.64-358.89c27.43-14.98,60.18-14.98,87.61,0l29.79,12.7c25.02,13.65,54.29,13.51,78.73-.15l228.02-129.71c2.51-1.42,5.69-.55,7.11,1.96,1.42,2.5.55,5.68-1.95,7.11l-228.05,129.73c-27.64,15.43-60.67,15.58-88.4.44l-29.79-12.7c-24.75-13.5-53.76-13.5-78.06-.22l-619.64,358.89c-77.01,42.07-161.5,63.11-245.99,63.11Z"/><path class="cls-5" d="m1698.81,1333.95c-1.82,0-3.6-.92-4.63-2.58-1.57-2.56-.78-5.9,1.77-7.48l99.39-61.3c47.41-29.24,75.13-79.95,74.15-135.63-.97-55.69-30.45-105.4-78.85-132.97l-94.25-53.68c-49.39-28.14-110.2-27.19-158.7,2.44l-39.62,24.21c-135.89,83.03-307.73,88.34-448.49,13.84l-172.86-91.48c-109.89-58.16-178.16-171.52-178.16-295.86,0-92.54-44.13-181.01-118.05-236.69l-45.09-33.96c-4.98-3.75-11.29-4.33-16.86-1.54-5.58,2.78-8.91,8.16-8.91,14.4v38.9c0,3-2.43,5.43-5.43,5.43s-5.43-2.43-5.43-5.43v-38.9c0-10.29,5.72-19.52,14.92-24.12,9.2-4.58,20.03-3.6,28.24,2.59l45.09,33.96c76.63,57.72,122.38,149.44,122.38,245.37,0,120.3,66.05,229.99,172.38,286.26l172.86,91.48c137.38,72.7,305.11,67.53,437.75-13.51l39.62-24.21c51.88-31.69,116.91-32.7,169.74-2.61l94.25,53.68c51.77,29.49,83.3,82.65,84.34,142.21,1.04,59.56-28.61,113.79-79.31,145.07l-99.39,61.3c-.89.55-1.87.81-2.84.81Z"/></g></g></svg>