<?xml version="1.0" encoding="UTF-8"?><svg id="Livello_1" xmlns="http://www.w3.org/2000/svg" xmlns:xlink="http://www.w3.org/1999/xlink" viewBox="0 0 1920 1080"><defs><style>.cls-1,.cls-2,.cls-3,.cls-4{fill:none;}.cls-5{clip-path:url(#clippath);}.cls-2{stroke:#ffa600;}.cls-2,.cls-3,.cls-4{fill-rule:evenodd;stroke-miterlimit:10;stroke-width:4px;}.cls-3{stroke:#fff;}.cls-4{stroke:#000;}.cls-6{clip-path:url(#clippath-1);}.cls-7{clip-path:url(#clippath-4);}.cls-8{clip-path:url(#clippath-3);}.cls-9{clip-path:url(#clippath-2);}</style><clipPath id="clippath"><rect class="cls-1" y="1133.61" width="1920" height="1080"/></clipPath><clipPath id="clippath-1"><rect class="cls-1" x="1974.08" width="1920" height="1080"/></clipPath><clipPath id="clippath-2"><rect class="cls-1" x="1974.08" y="1133.61" width="1920" height="1080"/></clipPath><clipPath id="clippath-3"><rect class="cls-1" x="-1979.55" width="1920" height="1080"/></clipPath><clipPath id="clippath-4"><rect class="cls-1" width="1920" height="1080"/></clipPath></defs><g class="cls-5"><g><g id="Full-logo"><path id="Top" class="cls-2" d="m2964.76,1588.03c-4341.98,630.5-9083.47,1384.6-12897.61,2051.28-17777.72,3107.5-69657.82,12176.13-84433.28,14758.9-2428.61,424.47-3720.97,710.69-3328.97,736.89l2695.14,180.1S-27875.83,8001.11-5340.58,4202.67C-591.93,3402.25,4679.51,2563.86,9828.14,1790.18c24433.3-3671.6,97210.53-14607.92,97210.53-14607.92l-2695.14-180.1c-392-26.2-2400.34,212.54-5164.6,613.96C82340.69-9938.7,23222.43-1353.75,2964.76,1588.03Z"/></g><g id="Full-logo-2"><path id="Top-2" class="cls-2" d="m2653.94,1612.14c-3517.21,493.39-7359.88,1099.75-10452.69,1649.39-14415.6,2562.04-56484.14,10038.85-68465.26,12168.27-1969.31,349.95-3018.96,598.35-2703.76,639.44l2167.11,282.53S-22382.85,7109.92-4113.42,4007.18C-263.68,3353.37,4008.5,2679.24,8179.86,2067.35,27975.47-836.42,86938.83-9485.67,86938.83-9485.67l-2167.11-282.53c-315.2-41.09-1940.56,132.62-4179.74,446.75C66952.21-7407.99,19063.61-689.93,2653.94,1612.14Z"/></g><g id="Full-logo-3"><path id="Top-3" class="cls-2" d="m2402.75,1625.79c-2848.62,381.79-5962.73,868.27-8470.88,1323.29-11690.51,2121.01-45806.52,8310.79-55522.76,10073.67-1597.03,289.7-2450,507.86-2197.12,561.54l1738.65,369.06S-17930.64,6389.37-3118.88,3849.93C2.26,3314.81,3464.44,2773.96,6843.61,2293.62,22879.81,14.09,70645.37-6775.8,70645.37-6775.8l-1738.65-369.06c-252.88-53.68-1567.75,66.82-3381.28,309.9C54478.47-5354.26,15693.09-155.63,2402.75,1625.79Z"/></g><g id="Full-logo-4"><path id="Top-4" class="cls-2" d="m2199.92,1630.83C-106.7,1921.7-2630.24,2310.87-4664.51,2689.44c-9481.78,1764.66-37152.14,6914.54-45032.66,8381.25-1295.3,241.02-1988.9,435.1-1786.6,499.5l1390.9,442.79S-14322.05,5807.16-2312.89,3723.69c2530.58-439.03,5336.18-871.71,8073.18-1245.03,12988.7-1771.64,51676.95-7048.7,51676.95-7048.7l-1390.9-442.79c-202.3-64.4-1265.42,12.44-2733.9,197.64C44367.34-3687.1,12961.54,273.6,2199.92,1630.83Z"/></g><g id="Full-logo-5"><path id="Top-5" class="cls-2" d="m2036.31,1628.71c-1867.23,216.69-3912.06,526.87-5562.26,843.72-7691.61,1476.99-30137.76,5787.36-36530.43,7014.98-1050.74,201.72-1615.22,376.73-1453.98,450.36l1108.55,506.25S-11397.29,5337.15-1659.75,3622.62c2051.9-361.29,4325.28-706.13,6541.7-992.29C15400.19,1272.34,46729.91-2772.66,46729.91-2772.66l-1108.55-506.25c-161.24-73.63-1020.23-32.72-2208.98,105.26C36171.24-2333.21,10747.94,617.56,2036.31,1628.71Z"/></g><g id="Full-logo-6"><path id="Top-6" class="cls-2" d="m1904.5,1620.65c-1511.01,156.08-3167.79,402.08-4506.71,669.16-6240.7,1245.01-24452.72,4878.39-29639.51,5913.21-852.54,170.03-1312.41,330.03-1184.53,411.69l879.2,561.48S-9026.82,4958.13-1130.49,3542c1663.92-298.41,3505.88-571.91,5300.28-786.99C12685.29,1734.3,38049.64-1306.06,38049.64-1306.06l-879.2-561.48c-127.88-81.67-821.34-70.41-1783.31,28.97C29527.41-1233.18,8954.19,892.29,1904.5,1620.65Z"/></g><g id="Full-logo-7"><path id="Top-7" class="cls-2" d="m1798.49,1607.6c-1222.21,106.44-2564.43,300.29-3651.06,527.29-5064.8,1058.2-19845.23,4146.43-24054.7,5025.98-691.9,144.51-1067.04,292.81-966.27,381.55l692.79,610.12S-7105.65,4652.91-701.67,3477.97c1349.45-247.59,2841.7-463.1,4293.96-620.14C10484.18,2112.57,31012.42-107.32,31012.42-107.32l-692.79-610.12c-100.77-88.74-659.99-102.1-1438.09-34.31C24141.78-338.86,7500.76,1110.81,1798.49,1607.6Z"/></g><g id="Full-logo-8"><path id="Top-8" class="cls-2" d="m1713.42,1590.34c-988.05,65.69-2075.28,217.12-2957.45,411.9-4111.81,908.03-16111.17,3558.06-19528.59,4312.81-561.71,123.99-868.23,263.29-789.51,358.34l541.19,653.53S-5548.67,4407.56-354.25,3427.43c1094.57-206.54,2303.33-374.89,3478.22-484.43C8699.53,2423.12,25306.95,874.54,25306.95,874.54l-541.19-653.53c-78.72-95.05-529.05-128.94-1158.08-87.09C19776.01,388.79,6323.21,1283.66,1713.42,1590.34Z"/></g><g id="Full-logo-9"><path id="Top-9" class="cls-2" d="m1645.35,1569.5c-798.18,32.14-1678.7,149.03-2395.18,317.98-3339.51,787.61-13085.1,3086.2-15860.65,3740.87-456.2,107.54-707.17,240.03-646.4,340.8l417.79,692.81S-4286.91,4210.8-72.82,3387.86c888-173.41,1866.94-303.38,2816.94-373.97,4508.31-335.03,17936.82-1333.01,17936.82-1333.01l-417.79-692.81c-60.77-100.77-422.77-151.88-930.92-131.4-3095.34,124.74-13962.96,562.71-17686.89,712.83Z"/></g></g></g><g class="cls-6"><g><g id="Full-logo-10"><path id="Bottom" class="cls-4" d="m5939.2,12.74c-1519.19,43.17-3284.66,43.17-4802.36,0C-5944.31-188.39-26609.18-775.56-32495-942.77c-966.26-27.49-1581.05-85.46-1581.05-149.06v-437.23S-8030.24-1070.51,714.02-916.52c1842.6,32.42,3805.4,32.42,5648,0,8744.26-153.99,34790.07-612.54,34790.07-612.54v437.23c0,63.61-614.21,121.57-1581.49,149.06C33685.21-775.56,13020.35-188.39,5939.2,12.74Z"/></g><g id="Full-logo-11"><path id="Bottom-2" class="cls-4" d="m5474.34,62.21c-1225.15,44.05-2648.92,44.05-3872.87,0-5710.6-205.23-22375.81-804.39-27122.45-975.01-779.24-28.05-1275.04-87.2-1275.04-152.1v-446.15S-5791.34-1043.15,1260.49-886.01c1485.97,33.08,3068.87,33.08,4554.84,0,7051.82-157.14,28056.51-625.05,28056.51-625.05v446.15c0,64.9-495.33,124.06-1275.39,152.1C27850.16-742.18,11184.95-143.03,5474.34,62.21Z"/></g><g id="Full-logo-12"><path id="Bottom-3" class="cls-4" d="m5099.46,112.68c-988.03,44.95-2136.22,44.95-3123.29,0C-2629.15-96.74-16068.84-708.12-19896.77-882.22c-628.42-28.62-1028.26-88.98-1028.26-155.21v-455.26S-3985.77-1015.23,1701.19-854.89c1198.36,33.76,2474.9,33.76,3673.26,0,5686.95-160.34,22626.22-637.8,22626.22-637.8v455.26c0,66.23-399.46,126.59-1028.54,155.21C23144.47-708.12,9704.78-96.74,5099.46,112.68Z"/></g><g id="Full-logo-13"><path id="Bottom-4" class="cls-4" d="m4797.13,164.19c-796.8,45.87-1722.76,45.87-2518.78,0C-1435.62-49.5-12274.08-673.36-15361.11-851.02c-506.79-29.21-829.24-90.79-829.24-158.38v-464.55S-2529.66-986.74,2056.59-823.13c966.42,34.45,1995.88,34.45,2962.3,0,4586.25-163.62,18246.95-650.82,18246.95-650.82v464.55c0,67.58-322.14,129.17-829.47,158.38C19349.56-673.36,8511.1-49.5,4797.13,164.19Z"/></g><g id="Full-logo-14"><path id="Bottom-5" class="cls-4" d="m4553.32,216.75c-642.58,46.8-1389.32,46.8-2031.27,0C-473.09-1.31-9213.78-637.9-11703.33-819.18c-408.7-29.8-668.74-92.65-668.74-161.61v-474.03S-1355.38-957.67,2343.21-790.72c779.37,35.15,1609.58,35.15,2388.95,0,3698.59-166.96,14715.28-664.1,14715.28-664.1v474.03c0,68.96-259.79,131.81-668.93,161.61C16289.15-637.9,7548.46-1.31,4553.32,216.75Z"/></g><g id="Full-logo-15"><path id="Bottom-6" class="cls-4" d="m4356.7,270.38c-518.21,47.76-1120.42,47.76-1638.12,0C303.14,47.87-6745.8-601.71-8753.5-786.69c-329.6-30.41-539.31-94.54-539.31-164.91v-483.7S-408.39-928.01,2574.35-757.65c628.53,35.87,1298.05,35.87,1926.58,0,2982.73-170.36,11867.16-677.65,11867.16-677.65v483.7c0,70.37-209.51,134.5-539.46,164.91C13821.08-601.71,6772.13,47.87,4356.7,270.38Z"/></g><g id="Full-logo-16"><path id="Bottom-7" class="cls-4" d="m4198.13,325.11c-417.91,48.73-903.57,48.73-1321.07,0C929.13,98.06-4755.5-564.78-6374.61-753.54c-265.81-31.03-434.93-96.47-434.93-168.27v-493.57S355.32-897.74,2760.75-723.9c506.88,36.6,1046.82,36.6,1553.69,0,2405.43-173.84,9570.29-691.48,9570.29-691.48v493.57c0,71.8-168.96,137.24-435.05,168.27C11830.7-564.78,6146.06,98.06,4198.13,325.11Z"/></g><g id="Full-logo-17"><path id="Bottom-8" class="cls-4" d="m4070.26,380.95c-337.02,49.73-728.68,49.73-1065.38,0C1433.97,149.27-3150.41-527.1-4456.15-719.71c-214.36-31.66-350.75-98.44-350.75-171.71v-503.65S971.22-866.86,2911.08-689.47c408.77,37.34,844.21,37.34,1252.98,0,1939.86-177.39,7717.98-705.59,7717.98-705.59v503.65c0,73.27-136.26,140.04-350.84,171.71-1305.64,192.61-5890.02,868.98-7460.93,1100.66Z"/></g><g id="Full-logo-18"><path id="Bottom-9" class="cls-4" d="m3967.13,437.93c-271.79,50.74-587.65,50.74-859.17,0C1841.09,201.52-1855.99-488.65-2909-685.19c-172.87-32.31-282.86-100.45-282.86-175.21v-513.93S1467.91-835.34,3032.31-654.33c329.65,38.11,680.81,38.11,1010.46,0,1564.41-181.01,6224.18-719.99,6224.18-719.99v513.93c0,74.76-109.89,142.9-282.94,175.21C8931.08-488.65,5234,201.52,3967.13,437.93Z"/></g><g id="Full-logo-19"><path id="Bottom-10" class="cls-4" d="m3883.97,496.07c-219.19,51.78-473.91,51.78-692.88,0C2169.42,254.84-812.1-449.42-1661.3-649.97c-139.41-32.97-228.11-102.5-228.11-178.79v-524.41S1868.46-803.18,3130.08-618.48c265.85,38.88,549.04,38.88,814.89,0,1261.62-184.7,5019.5-734.69,5019.5-734.69v524.41c0,76.29-88.62,145.82-228.18,178.79-849.14,200.55-3830.66,904.81-4852.32,1146.04Z"/></g><g id="Full-logo-20"><path id="Bottom-11" class="cls-4" d="m3816.9,555.4c-176.76,52.83-382.18,52.83-558.78,0C2434.2,309.25,29.75-409.38-655.09-614.02c-112.43-33.64-183.96-104.59-183.96-182.43v-535.12s3030.55,561.21,4047.98,749.68c214.39,39.68,442.78,39.68,657.17,0,1017.43-188.47,4047.98-749.68,4047.98-749.68v535.12c0,77.85-71.47,148.79-184.01,182.43-684.79,204.64-3089.24,923.27-3913.16,1169.43Z"/></g><g id="Full-logo-21"><path id="Bottom-12" class="cls-4" d="m3762.81,615.95c-142.55,53.91-308.21,53.91-450.63,0C2647.73,364.77,708.66-368.53,156.36-577.35c-90.67-34.33-148.36-106.72-148.36-186.16v-546.04s2443.99,572.66,3264.5,764.98c172.9,40.49,357.08,40.49,529.98,0,820.51-192.32,3264.5-764.98,3264.5-764.98v546.04c0,79.44-57.63,151.83-148.4,186.16-552.25,208.82-2491.32,942.11-3155.78,1193.29Z"/></g><g id="Full-logo-22"><path id="Bottom-13" class="cls-4" d="m3719.19,677.72c-114.96,55.01-248.56,55.01-363.41,0C2819.93,421.42,1256.16-326.84,810.77-539.92c-73.12-35.03-119.64-108.9-119.64-189.96v-557.18s1970.96,584.35,2632.66,780.59c139.43,41.31,287.97,41.31,427.4,0,661.7-196.24,2632.66-780.59,2632.66-780.59v557.18c0,81.06-46.48,154.93-119.68,189.96-445.36,213.08-2009.13,961.34-2544.98,1217.65Z"/></g></g></g><g class="cls-9"><g><g id="Full-logo-23"><path id="Top-10" class="cls-2" d="m5853.68-232.29C2837.49,229.47-433.12,795.57-3042.93,1307.59c-12164.25,2386.66-47662.71,9351.66-57772.67,11335.31-1661.77,326-2524.82,556.39-2223.26,593.08l2073.38,252.32S-14888.85,4872.09,580.21,1979.4C3839.87,1369.84,7476.04,740.47,11043.4,168.37c16929.24-2715,67354.81-10801.97,67354.81-10801.97l-2073.38-252.32c-301.57-36.7-1715.3,127-3635.5,420.99C60992.56-8674.15,19925.76-2386.78,5853.68-232.29Z"/></g><g id="Full-logo-24"><path id="Top-11" class="cls-2" d="m5737.26-237.56C3232.74,129.66,515.07,595.24-1655.25,1028.88c-10115.81,2021.31-39636.4,7920.16-48043.86,9600.17-1381.93,276.09-2101.41,482.4-1853.39,531.06l1705.22,334.56S-11542.12,4275.19,1317.88,1851.4C4027.75,1340.66,7049.18,823.04,10012.11,361.95c14060.89-2188.17,55942.78-8705.92,55942.78-8705.92l-1705.22-334.56c-248.02-48.66-1420.4,69.13-3014.86,302.94C51522.3-6951.38,17422.13-1951.03,5737.26-237.56Z"/></g><g id="Full-logo-25"><path id="Top-12" class="cls-2" d="m5641.25-247.19C3562.07,41.06,1304,422.96-501.07,791.66c-8413.38,1718.6-32965.84,6734.07-39958.38,8162.49-1149.36,234.73-1749.56,421.41-1546.11,480.47l1398.76,406.05S-8760.69,3780.61,1930.85,1746.07c2252.93-428.72,4763.38-853.31,7223.9-1221.77,11676.61-1748.58,46456.64-6956.95,46456.64-6956.95l-1398.76-406.05c-203.45-59.06-1175.16,20.12-2498.84,203.65C43650.72-5517.14,15341.7-1592.17,5641.25-247.19Z"/></g><g id="Full-logo-26"><path id="Top-13" class="cls-2" d="m5562.23-260.56C3836.63-38.38,1960.58,273.85,459.06,588.77c-6998.54,1467.97-27422.13,5752.04-33238.76,6972.16-956.07,200.49-1457.19,371.24-1290.86,439.4l1143.59,468.68S-6449.12,3371.11,2440.16,1659.6c1873.15-360.65,3958.89-707.79,6001.76-998.89,9694.64-1381.45,38571.18-5496.29,38571.18-5496.29l-1143.59-468.68c-166.33-68.17-971.2-21.55-2069.77,119.91C37107.88-4322.65,13613.04-1297.28,5562.23-260.56Z"/></g><g id="Full-logo-27"><path id="Top-14" class="cls-2" d="m5497.35-277.17C4065.69-110.35,2507.18,143.84,1257.93,414.28c-5822.74,1260.65-22815.01,4939.71-27654.41,5987.52-795.45,172.17-1214.26,330.06-1078.85,406.27l931.02,524.02S-4528.08,3032.38,2863.31,1588.84c1557.52-304.19,3290.23-586.8,4985.92-813.21C15896.3-298.88,39865.36-3499.46,39865.36-3499.46l-931.02-524.02c-135.41-76.22-801.53-57.15-1712.97,49.08C31669.41-3327.37,12176.76-1055.65,5497.35-277.17Z"/></g><g id="Full-logo-28"><path id="Top-15" class="cls-2" d="m5444.24-296.63C4256.96-176.26,2962.38,29.56,1922.78,263.25-2922.83,1352.61-17063.59,4531.77-21090.88,5437.22c-661.96,148.77-1012.43,296.37-902.78,379.77l753.85,573.4S-2931.65,2752.5,3214.86,1531.15c1295.2-257.37,2734.47-486.2,4141.54-658.47C14033.81,55.15,33923.19-2380.03,33923.19-2380.03l-753.85-573.4c-109.65-83.4-660.37-87.72-1416.23-11.07C27148.84-2497.6,10983.51-858.37,5444.24-296.63Z"/></g><g id="Full-logo-29"><path id="Top-16" class="cls-2" d="m5400.93-318.58c-984.09,81.3-2059.28,246.78-2924.67,450.15-4033.61,948.02-15804.77,3714.75-19157.2,4502.73-551.03,129.46-844.76,268.92-756.6,358.79l606.1,617.89S-1605.02,2521.58,3506.87,1484.37c1077.18-218.57,2272.54-402.55,3439.67-529.41C12485.28,352.9,28983.01-1440.47,28983.01-1440.47l-606.1-617.89c-88.16-89.87-542.9-114.14-1169.41-62.36C23391.18-1805.34,9992.25-698.05,5400.93-318.58Z"/></g><g id="Full-logo-30"><path id="Top-17" class="cls-2" d="m5365.8-342.76c-815.15,48.35-1707.96,180.17-2428.6,358.56C-421.67,847.42-10223.77,3274.46-13015.42,3965.71c-458.85,113.56-705.48,246.68-635.26,342.44l482.78,658.42S-502.63,2331.39,3749.41,1446.67c895.99-186.43,1888.6-332.98,2856.24-421.7,4592.04-421.03,18269.95-1675.16,18269.95-1675.16l-482.78-658.42c-70.22-95.77-445.11-137.13-964.07-106.32-3161.16,187.63-14259.84,846.39-18062.96,1072.16Z"/></g><g id="Full-logo-31"><path id="Top-18" class="cls-2" d="m5337.48-368.94c-674.66,20.49-1415.88,124.18-2016.22,282.04C523.03,649.08-7642.95,2796.99-9968.62,3408.74c-382.26,100.49-589.8,228.77-534.56,329.96l379.76,695.74S413.36,2175.1,3950.83,1416.56c745.42-159.84,1569.48-275.12,2371.25-331.71C10126.99,816.28,21460.33,16.27,21460.33,16.27l-379.76-695.74c-55.24-101.19-363.68-157.3-793.2-144.23-2616.35,79.58-11802.23,358.98-14949.89,454.76Z"/></g><g id="Full-logo-32"><path id="Top-19" class="cls-2" d="m5314.84-396.93c-557.82-3.16-1173.01,77-1673.42,218.05C1309.02,478.72-5497.56,2397.91-7436.08,2944.52c-318.62,89.78-493.74,214.48-451.04,320.73l293.59,730.49S1174.43,2047.03,4118.05,1392.78c620.28-137.87,1304.23-226.99,1968.09-256.45,3150.38-139.81,12534.15-556.3,12534.15-556.3l-293.59-730.49c-42.7-106.25-295.84-175.15-650.98-177.13-2163.25-12.14-9758.32-54.78-12360.87-69.34Z"/></g><g id="Full-logo-33"><path id="Top-20" class="cls-2" d="m5296.96-426.58c-460.64-23.33-971.06,37.13-1388.44,164.45C1963.12,331.48-3714.08,2063.93-5330.95,2557.35c-265.76,81.04-413.99,203.22-381.78,314.22l221.42,763.18S1806.72,1942.47,4256.85,1374.3c516.29-119.73,1083.77-186.94,1632.92-193.41,2606.07-30.7,10368.54-122.19,10368.54-122.19l-221.42-763.18c-32.21-111-239.3-191.1-532.56-205.92C13717.96-.75,7446.1-317.93,5296.96-426.58Z"/></g><g id="Full-logo-34"><path id="Top-21" class="cls-2" d="m5283.04-457.77c-379.79-40.61-803.11,3.31-1151.51,119.48C2507.61,203.31-2231.4,1783.99-3581.07,2234.19c-221.84,73.93-347.79,194.48-324.39,310l160.87,794.28S2331.97,1857.48,4372.03,1360.25c429.88-104.78,900.52-153.61,1354.28-140.52,2153.35,62.14,8567.34,247.15,8567.34,247.15l-160.87-794.28c-23.4-115.53-192.13-205.5-433.92-231.32-1472.83-157.35-6643.89-709.8-8415.82-899.06Z"/></g><g id="Full-logo-35"><path id="Top-22" class="cls-2" d="m5272.44-490.41c-312.51-55.5-663.42-25.48-954.53,81.67C2961.03,90.84-998.71,1548.91-2126.45,1964.2c-185.36,68.19-292.86,187.86-276.87,307.72l109.96,824.13S2768.25,1788.82,4467.56,1349.92c358.08-92.49,748.21-125.87,1122.61-96.05,1776.75,141.5,7069.01,562.88,7069.01,562.88l-109.96-824.13c-15.99-119.87-152.77-218.64-351.72-253.94-1211.94-215.11-5467-970.35-6925.06-1229.09Z"/></g><g id="Full-logo-36"><path id="Top-23" class="cls-2" d="m5264.63-524.41c-256.52-68.43-547.21-50.12-790.74,49.8C3338.77-8.72,26.19,1351.07-917.23,1738.36c-155.06,63.59-247.31,183.01-237.55,307.09l67.05,853.06S3130.57,1733.78,4546.76,1342.72c298.42-82.41,621.61-102.76,929.98-58.57,1463.41,209.71,5822.36,834.27,5822.36,834.27l-67.05-853.06c-9.75-124.07-119.87-230.76-283.18-274.29-994.79-265.23-4487.44-1196.45-5684.25-1515.49Z"/></g><g id="Full-logo-37"><path id="Top-24" class="cls-2" d="m5259.16-559.73c-209.89-79.73-450.52-71.33-654.54,22.86C3653.64-97.7,878.42,1184.1,88.03,1549.19c-129.9,59.93-209.54,179.66-205.06,307.85l30.78,881.32s3517.67-1048.25,4698.65-1400.21c248.86-74.17,516.38-83.51,769.8-26.88,1202.65,268.71,4784.87,1069.03,4784.87,1069.03l-30.78-881.32c-4.48-128.19-92.35-242.06-225.98-292.79-813.99-309.06-3671.86-1394.15-4651.15-1765.92Z"/></g><g id="Full-logo-38"><path id="Top-25" class="cls-2" d="m5255.66-596.32c-171.06-89.7-370.05-89.7-541.28,0C3916.26-178.05,1587.12,1042.74,923.78,1390.45c-109.02,57.08-178.25,177.56-178.25,309.79v909.13s2935.63-953.45,3921.2-1273.58c207.68-67.46,428.91-67.46,636.59,0,985.57,320.13,3921.2,1273.58,3921.2,1273.58v-909.13c0-132.23-69.29-252.72-178.2-309.79-663.39-347.71-2992.54-1568.5-3790.65-1986.77Z"/></g></g></g><g class="cls-8"><g><g id="Full-logo-39"><path id="Top-26" class="cls-2" d="m-5849.8,1083.24c3053.77-42.85,6606.07-42.85,9662.82,0,14247.96,199.81,55827.67,783.01,67669.64,949.12,1946.27,27.27,3182.11,84.83,3182.11,147.99v434.31S22258.07,2159.18,4663.77,2006.25c-3707.49-32.23-7656.83-32.23-11364.32,0-17594.3,152.93-70000.99,608.41-70000.99,608.41v-434.31c0-63.17,1237.03-120.73,3181.23-147.99,11842.85-166.11,53422.55-749.3,67670.51-949.12Z"/></g><g id="Full-logo-40"><path id="Top-27" class="cls-2" d="m-4914.92,1034.11c2462.72-43.73,5327.47-43.73,7792.6,0,11490.29,203.89,45022.31,798.99,54572.29,968.49,1569.57,27.82,2566.22,86.56,2566.22,151.02v443.17S17752.72,2132,3563.77,1975.95c-2989.91-32.89-6174.86-32.89-9164.78,0-14188.95,156.05-56452.42,620.83-56452.42,620.83v-443.17c0-64.46,997.6-123.19,2565.51-151.02,9550.68-169.5,43082.7-764.6,54572.99-968.49Z"/></g><g id="Full-logo-41"><path id="Top-28" class="cls-2" d="m-4160.97,983.97c1986.06-44.62,4296.35-44.62,6284.35,0,9266.36,208.05,36308.31,815.3,44009.91,988.25,1265.78,28.39,2069.53,88.32,2069.53,154.1v452.22S14119.38,2104.27,2676.68,1945.04c-2411.22-33.56-4979.73-33.56-7390.95,0-11442.7,159.24-45526.14,633.5-45526.14,633.5v-452.22c0-65.77,804.52-125.71,2068.96-154.1,7702.16-172.96,34744.12-780.2,44010.48-988.25Z"/></g><g id="Full-logo-42"><path id="Top-29" class="cls-2" d="m-3552.96,932.81c1601.66-45.53,3464.8-45.53,5068.03,0,7472.87,212.3,29280.9,831.93,35491.86,1008.42,1020.79,28.97,1668.98,90.13,1668.98,157.24v461.44S11189.27,2075.98,1961.28,1913.49c-1944.53-34.24-4015.91-34.24-5960.44,0-9227.99,162.49-36714.63,646.43-36714.63,646.43v-461.44c0-67.12,648.8-128.27,1668.52-157.24,6211.42-176.49,28019.45-796.12,35492.32-1008.42Z"/></g><g id="Full-logo-43"><path id="Top-30" class="cls-2" d="m-3062.62,880.6c1291.66-46.46,2794.19-46.46,4087.12,0,6026.51,216.63,23613.63,848.91,28622.47,1029,823.22,29.56,1345.95,91.97,1345.95,160.45v470.86S8826.27,2047.1,1384.35,1881.3c-1568.17-34.94-3238.64-34.94-4806.81,0-7441.92,165.8-29608.57,659.62-29608.57,659.62v-470.86c0-68.49,523.23-130.89,1345.58-160.45,5009.21-180.09,22596.33-812.37,28622.84-1029Z"/></g><g id="Full-logo-44"><path id="Top-31" class="cls-2" d="m-2667.19,827.34c1041.66-47.41,2253.38-47.41,3296.06,0,4860.09,221.05,19043.25,866.24,23082.64,1050,663.89,30.16,1085.44,93.84,1085.44,163.73v480.47S6920.63,2017.64,919.08,1848.45c-1264.65-35.65-2611.8-35.65-3876.46,0-6001.55,169.19-23877.88,673.08-23877.88,673.08v-480.47c0-69.88,421.96-133.56,1085.14-163.73,4039.69-183.76,18222.85-828.95,23082.94-1050Z"/></g><g id="Full-logo-45"><path id="Top-32" class="cls-2" d="m-2348.29,772.98c840.05-48.37,1817.24-48.37,2658.12,0,3919.43,225.56,15357.46,883.92,18615.03,1071.43,535.39,30.78,875.36,95.76,875.36,167.07v490.28S5383.82,1987.57,543.86,1814.93c-1019.88-36.38-2106.29-36.38-3126.18,0-4839.96,172.64-19256.36,686.82-19256.36,686.82v-490.28c0-71.31,340.29-136.29,875.12-167.07,3257.81-187.52,14695.84-845.87,18615.27-1071.43Z"/></g><g id="Full-logo-46"><path id="Top-33" class="cls-2" d="m-2091.11,717.51c677.46-49.36,1465.52-49.36,2143.64,0,3160.83,230.17,12385.05,901.96,15012.12,1093.3,431.77,31.41,705.93,97.71,705.93,170.48v500.28S4144.46,1956.89,241.26,1780.73c-822.49-37.12-1698.62-37.12-2521.11,0-3903.19,176.16-15529.32,700.84-15529.32,700.84v-500.28c0-72.76,274.43-139.07,705.74-170.48,2627.27-191.34,11851.49-863.13,15012.31-1093.3Z"/></g><g id="Full-logo-47"><path id="Top-34" class="cls-2" d="m-1883.71,660.91c546.34-50.37,1181.87-50.37,1728.74,0,2549.05,234.87,9987.94,920.36,12106.55,1115.61,348.2,32.05,569.3,99.71,569.3,173.96v510.49S3144.97,1925.59-2.76,1745.83c-663.3-37.88-1369.86-37.88-2033.15,0-3147.74,179.76-12523.64,715.14-12523.64,715.14v-510.49c0-74.25,221.31-141.91,569.14-173.96,2118.76-195.25,9557.65-880.74,12106.71-1115.61Z"/></g><g id="Full-logo-48"><path id="Top-35" class="cls-2" d="m-1716.45,603.16c440.6-51.4,953.12-51.4,1394.15,0,2055.69,239.66,8054.79,939.15,9763.35,1138.38,280.81,32.7,459.11,101.74,459.11,177.51v520.91S2338.94,1893.65-199.56,1710.22c-534.92-38.65-1104.72-38.65-1639.64,0-2538.5,183.43-10099.71,729.73-10099.71,729.73v-520.91c0-75.77,178.48-144.8,458.99-177.51,1708.68-199.23,7707.78-898.72,9763.47-1138.38Z"/></g><g id="Full-logo-49"><path id="Top-36" class="cls-2" d="m-1581.57,544.23c355.32-52.44,768.65-52.44,1124.31,0,1657.81,244.55,6495.8,958.31,7873.67,1161.61,226.46,33.37,370.25,103.82,370.25,181.13v531.54S1688.91,1861.05-358.27,1673.88c-431.38-39.44-890.91-39.44-1322.29,0-2047.18,187.17-8144.93,744.63-8144.93,744.63v-531.54c0-77.31,143.93-147.76,370.15-181.13,1377.97-203.3,6215.95-917.06,7873.77-1161.61Z"/></g><g id="Full-logo-50"><path id="Top-37" class="cls-2" d="m-1472.79,484.1c286.55-53.51,619.88-53.51,906.7,0,1336.95,249.54,5238.55,977.87,6349.73,1185.32,182.63,34.05,298.59,105.94,298.59,184.82v542.39S1164.69,1827.79-486.26,1636.8c-347.89-40.25-718.47-40.25-1066.36,0-1650.95,190.99-6568.49,759.82-6568.49,759.82v-542.39c0-78.89,116.08-150.77,298.51-184.82,1111.26-207.45,5012.87-935.78,6349.81-1185.32Z"/></g><g id="Full-logo-51"><path id="Top-38" class="cls-2" d="m-1385.07,422.73c231.09-54.61,499.9-54.61,731.21,0,1078.18,254.63,4224.64,997.83,5120.75,1209.51,147.28,34.75,240.8,108.1,240.8,188.6v553.46S741.93,1793.85-589.47,1598.97c-280.56-41.07-579.41-41.07-859.97,0-1331.41,194.89-5297.17,775.33-5297.17,775.33v-553.46c0-80.5,93.61-153.85,240.73-188.6,896.18-211.68,4042.63-954.87,5120.82-1209.51Z"/></g><g id="Full-logo-52"><path id="Top-39" class="cls-2" d="m-1314.32,360.12c186.36-55.72,403.14-55.72,589.69,0C144.87,619.95,2682.33,1378.31,3405,1594.31c118.77,35.46,194.19,110.3,194.19,192.45v564.75S401,1759.22-672.71,1560.36c-226.26-41.91-467.27-41.91-693.52,0-1073.72,198.86-4271.91,791.15-4271.91,791.15v-564.75c0-82.14,75.49-156.99,194.14-192.45,722.73-216,3260.19-974.36,4129.69-1234.19Z"/></g><g id="Full-logo-53"><path id="Top-40" class="cls-2" d="m-1257.27,296.23c150.29-56.86,325.12-56.86,475.55,0C-80.5,561.36,1965.84,1335.2,2548.64,1555.61c95.79,36.18,156.61,112.55,156.61,196.37v576.28S126.06,1723.88-739.84,1520.96c-182.46-42.76-376.83-42.76-559.29,0-865.9,202.92-3445.09,807.3-3445.09,807.3v-576.28c0-83.82,60.88-160.19,156.56-196.37,582.84-220.41,2629.18-994.24,3330.4-1259.38Z"/></g><g id="Full-logo-54"><path id="Top-41" class="cls-2" d="m-1211.26,231.03c121.2-58.02,262.19-58.02,383.51,0C-262.25,501.58,1388.02,1291.21,1858.02,1516.11c77.25,36.92,126.3,114.85,126.3,200.38v588.04S-95.67,1687.82-793.98,1480.76c-147.15-43.64-303.9-43.64-451.04,0-698.31,207.06-2778.3,823.77-2778.3,823.77v-588.04c0-85.53,49.1-163.46,126.26-200.38,470.04-224.91,2120.31-1014.54,2685.8-1285.08Z"/></g></g></g><g class="cls-7"><g><g id="Full-logo-55"><path id="Top-42" class="cls-3" d="m1833.24,464.57C-2508.74,1095.08-7250.23,1849.18-11064.37,2515.85c-17777.72,3107.5-69657.82,12176.13-84433.28,14758.9-2428.61,424.47-3720.97,710.69-3328.97,736.89l2695.14,180.1S-29007.35,6877.65-6472.1,3079.21C-1723.46,2278.8,3547.99,1440.41,8696.62,666.73c24433.3-3671.6,97210.53-14607.92,97210.53-14607.92l-2695.14-180.1c-392-26.2-2400.34,212.54-5164.6,613.96C81209.17-11062.15,22090.9-2477.21,1833.24,464.57Z"/></g><g id="Full-logo-56"><path id="Top-43" class="cls-3" d="m1522.42,488.68c-3517.21,493.39-7359.88,1099.75-10452.69,1649.39-14415.6,2562.04-56484.14,10038.85-68465.26,12168.27-1969.31,349.95-3018.96,598.35-2703.76,639.44l2167.11,282.53S-23514.37,5986.47-5244.94,2883.73C-1395.2,2229.92,2876.97,1555.78,7048.34,943.9,26843.94-1959.87,85807.3-10609.12,85807.3-10609.12l-2167.11-282.53c-315.2-41.09-1940.56,132.62-4179.74,446.75C65820.68-8531.44,17932.09-1813.39,1522.42,488.68Z"/></g><g id="Full-logo-57"><path id="Top-44" class="cls-3" d="m1271.23,502.34c-2848.62,381.79-5962.73,868.27-8470.88,1323.29-11690.51,2121.01-45806.52,8310.79-55522.76,10073.67-1597.03,289.7-2450,507.86-2197.12,561.54l1738.65,369.06S-19062.16,5265.91-4250.4,2726.47C-1129.26,2191.36,2332.92,1650.51,5712.09,1170.16c16036.2-2279.53,63801.76-9069.41,63801.76-9069.41l-1738.65-369.06c-252.88-53.68-1567.75,66.82-3381.28,309.9C53346.95-6477.72,14561.57-1279.08,1271.23,502.34Z"/></g><g id="Full-logo-58"><path id="Top-45" class="cls-3" d="m1068.4,507.37c-2306.62,290.87-4830.16,680.04-6864.44,1058.62-9481.78,1764.66-37152.14,6914.54-45032.66,8381.25-1295.3,241.02-1988.9,435.1-1786.6,499.5l1390.9,442.79S-15453.58,4683.71-3444.42,2600.24c2530.58-439.03,5336.18-871.71,8073.18-1245.03C17617.46-416.43,56305.71-5693.49,56305.71-5693.49l-1390.9-442.79c-202.3-64.4-1265.42,12.44-2733.9,197.64C43235.82-4810.55,11830.02-849.85,1068.4,507.37Z"/></g><g id="Full-logo-59"><path id="Top-46" class="cls-3" d="m904.78,505.26c-1867.23,216.69-3912.06,526.87-5562.26,843.72-7691.61,1476.99-30137.76,5787.36-36530.43,7014.98-1050.74,201.72-1615.22,376.73-1453.98,450.36l1108.55,506.25S-12528.82,4213.7-2791.27,2499.17c2051.9-361.29,4325.28-706.13,6541.7-992.29C14268.67,148.89,45598.38-3896.11,45598.38-3896.11l-1108.55-506.25c-161.24-73.63-1020.23-32.72-2208.98,105.26C35039.72-3456.66,9616.42-505.9,904.78,505.26Z"/></g><g id="Full-logo-60"><path id="Top-47" class="cls-3" d="m772.98,497.2c-1511.01,156.08-3167.79,402.08-4506.71,669.16-6240.7,1245.01-24452.72,4878.39-29639.51,5913.21-852.54,170.03-1312.41,330.03-1184.53,411.69l879.2,561.48S-10158.35,3834.67-2262.02,2418.54c1663.92-298.41,3505.88-571.91,5300.28-786.99,8515.5-1020.71,33879.86-4061.07,33879.86-4061.07l-879.2-561.48c-127.88-81.67-821.34-70.41-1783.31,28.97C28395.89-2356.63,7822.67-231.16,772.98,497.2Z"/></g><g id="Full-logo-61"><path id="Top-48" class="cls-3" d="m666.97,484.15c-1222.21,106.44-2564.43,300.29-3651.06,527.29-5064.8,1058.2-19845.23,4146.43-24054.7,5025.98-691.9,144.51-1067.04,292.81-966.27,381.55l692.79,610.12S-8237.17,3529.45-1833.19,2354.52c1349.45-247.59,2841.7-463.1,4293.96-620.14C9352.66,989.12,29880.89-1230.78,29880.89-1230.78l-692.79-610.12c-100.77-88.74-659.99-102.1-1438.09-34.31C23010.26-1462.31,6369.24-12.64,666.97,484.15Z"/></g><g id="Full-logo-62"><path id="Top-49" class="cls-3" d="m581.9,466.89c-988.05,65.69-2075.28,217.12-2957.45,411.9-4111.81,908.03-16111.17,3558.06-19528.59,4312.81-561.71,123.99-868.23,263.29-789.51,358.34l541.19,653.53S-6680.2,3284.11-1485.77,2303.98c1094.57-206.54,2303.33-374.89,3478.22-484.43C7568.01,1299.66,24175.43-248.91,24175.43-248.91l-541.19-653.53c-78.72-95.05-529.05-128.94-1158.08-87.09C18644.49-734.66,5191.69,160.21,581.9,466.89Z"/></g><g id="Full-logo-63"><path id="Top-50" class="cls-3" d="m513.82,446.05c-798.18,32.14-1678.7,149.03-2395.18,317.98-3339.51,787.61-13085.1,3086.2-15860.65,3740.87-456.2,107.54-707.17,240.03-646.4,340.8l417.79,692.81S-5418.43,3087.34-1204.34,2264.4c888-173.41,1866.94-303.38,2816.94-373.97,4508.31-335.03,17936.82-1333.01,17936.82-1333.01l-417.79-692.81c-60.77-100.77-422.77-151.88-930.92-131.4C15105.37-142.04,4237.76,295.93,513.82,446.05Z"/></g><g id="Full-logo-64"><path id="Top-51" class="cls-3" d="m459.54,422.13c-644.2,4.39-1357.16,93.15-1939.37,241.44-2713.68,691.32-10632.93,2708.93-12888.34,3283.57-370.71,94.39-576.71,221.86-530.57,327.87l317.22,728.83S-4395.95,2930.01-976.41,2233.76c720.57-146.72,1513.22-245.4,2280.87-283.95,3642.95-182.98,14493.88-728.05,14493.88-728.05l-317.22-728.83c-46.14-106.01-336.46-171.69-746.58-168.87-2498.24,17.15-11269.43,77.39-14275,98.07Z"/></g><g id="Full-logo-65"><path id="Top-52" class="cls-3" d="m416.47,395.52c-519.33-18.65-1096.44,47.14-1569.85,178.98-2206.58,614.63-8645.96,2408.45-10479.91,2919.35-301.43,83.91-471.05,207.83-436.84,318.71l235.15,762.33S-3567.45,2804.71-791.84,2210.39c584.88-125.24,1226.5-198.39,1846.28-210.49,2941.22-57.45,11701.99-228.64,11701.99-228.64l-235.15-762.33c-34.2-110.88-266.34-189-596.96-200.85C9910.35,735.87,2839.42,482.35,416.47,395.52Z"/></g><g id="Full-logo-66"><path id="Top-53" class="cls-3" d="m382.5,366.57c-418.03-37.9-885.02,9.12-1270.27,127.92-1795.71,553.87-7036.09,2170.35-8528.55,2630.75-245.3,75.61-385.49,197.18-361.05,312.65l168.07,793.89S-2896.19,2705.41-642.42,2192.95c474.92-107.99,994.1-160.27,1493.95-150.44,2372.13,46.63,9437.77,185.46,9437.77,185.46l-168.07-793.89c-24.45-115.47-209.34-204.31-475.48-228.41C8024.61,1058.8,2332.86,543.2,382.5,366.57Z"/></g><g id="Full-logo-67"><path id="Top-54" class="cls-3" d="m355.94,335.51c-335.85-54.09-713.54-22.44-1027.39,86.09-1462.86,506.04-5731.89,1982.96-6947.72,2403.62-199.83,69.07-316.24,189.29-299.79,309.13l113.11,823.99S-2352.38,2627.26-521.51,2180.35c385.8-94.18,805.71-129.36,1208.3-101.25,1910.53,133.39,7601.25,530.63,7601.25,530.63l-113.11-823.99c-16.45-119.85-162.97-218.03-376.79-252.44C6495.7,1323.68,1922.88,587.67,355.94,335.51Z"/></g><g id="Full-logo-68"><path id="Top-55" class="cls-3" d="m335.41,302.56c-269.16-67.81-574.46-48.79-830.46,51.74-1193.25,468.74-4675.49,1836.82-5667.23,2226.47-163,63.97-260.21,183.64-250.32,307.71l67.97,853.02S-1911.89,2566.3-423.71,2171.73c313.59-83.15,653.01-104.29,976.69-60.85,1536.06,206.17,6111.37,820.2,6111.37,820.2l-67.97-853.02c-9.89-124.07-125.21-230.5-296.57-273.64C5255.99,1541.57,1591.2,618.73,335.41,302.56Z"/></g><g id="Full-logo-69"><path id="Top-56" class="cls-3" d="m319.78,267.87c-215.02-79.55-461.62-70.94-670.77,23.42-974.9,440.01-3819.96,1724.25-4630.23,2090.03-133.17,60.05-214.88,179.85-210.41,308.03l30.78,881.32S-1555.16,2519.35-344.64,2166.36c255.08-74.38,529.24-83.96,788.89-27.55,1232.2,267.68,4902.44,1064.93,4902.44,1064.93l-30.78-881.32c-4.48-128.19-94.43-241.99-231.32-292.61C4250.71,1721.46,1323.01,638.8,319.78,267.87Z"/></g><g id="Full-logo-70"><path id="Top-57" class="cls-3" d="m308.17,231.57c-171.06-89.7-370.05-89.7-541.28,0-798.12,418.27-3127.26,1639.06-3790.6,1986.77-109.02,57.08-178.25,177.56-178.25,309.79v909.13S-1266.33,2483.81-280.76,2163.68c207.68-67.46,428.91-67.46,636.59,0,985.57,320.13,3921.2,1273.58,3921.2,1273.58v-909.13c0-132.23-69.29-252.72-178.2-309.79C3435.43,1870.63,1106.29,649.83,308.17,231.57Z"/></g></g></g></svg>