<?xml version="1.0" encoding="utf-8"?>
<!-- Generator: Adobe Illustrator 27.2.0, SVG Export Plug-In . SVG Version: 6.00 Build 0)  -->
<svg version="1.1" id="Livello_1" xmlns="http://www.w3.org/2000/svg" xmlns:xlink="http://www.w3.org/1999/xlink" x="0px" y="0px"
	 viewBox="0 0 1920 1080" style="enable-background:new 0 0 1920 1080;" xml:space="preserve">
<style type="text/css">
	.st0{clip-path:url(#SVGID_00000089573825708323984700000000722644268289683598_);}
	.st1{fill:none;stroke:#000000;stroke-width:4;stroke-miterlimit:10;}
</style>
<g>
	<g>
		<defs>
			<rect id="SVGID_1_" width="1920" height="1080"/>
		</defs>
		<clipPath id="SVGID_00000085241803048181331530000016261964726088737676_">
			<use xlink:href="#SVGID_1_"  style="overflow:visible;"/>
		</clipPath>
		<g style="clip-path:url(#SVGID_00000085241803048181331530000016261964726088737676_);">
			<g>
				<g id="Full-logo-55">
					<path id="Top-42" class="st1" d="M1833.2,464.6c-4342,630.5-9083.5,1384.6-12897.6,2051.3
						C-28842.1,5623.4-80722.2,14692-95497.6,17274.8c-2428.6,424.5-3721,710.7-3329,736.9l2695.1,180.1
						c0,0,67124.1-11314.1,89659.4-15112.5C-1723.5,2278.8,3548,1440.4,8696.6,666.7
						c24433.3-3671.6,97210.5-14607.9,97210.5-14607.9l-2695.1-180.1c-392-26.2-2400.3,212.5-5164.6,614
						C81209.2-11062.2,22090.9-2477.2,1833.2,464.6z"/>
				</g>
				<g id="Full-logo-56">
					<path id="Top-43" class="st1" d="M1522.4,488.7C-1994.8,982.1-5837.5,1588.4-8930.3,2138.1
						c-14415.6,2562-56484.1,10038.8-68465.3,12168.3c-1969.3,350-3019,598.3-2703.8,639.4l2167.1,282.5
						c0,0,54417.8-9241.8,72687.2-12344.6C-1395.2,2229.9,2877,1555.8,7048.3,943.9c19795.6-2903.8,78759-11553,78759-11553
						l-2167.1-282.5c-315.2-41.1-1940.6,132.6-4179.7,446.8C65820.7-8531.4,17932.1-1813.4,1522.4,488.7z"/>
				</g>
				<g id="Full-logo-57">
					<path id="Top-44" class="st1" d="M1271.2,502.3c-2848.6,381.8-5962.7,868.3-8470.9,1323.3
						c-11690.5,2121-45806.5,8310.8-55522.8,10073.7c-1597,289.7-2450,507.9-2197.1,561.5l1738.6,369.1
						c0,0,44118.7-7564,58930.5-10103.4c3121.1-535.1,6583.3-1076,9962.5-1556.3c16036.2-2279.5,63801.8-9069.4,63801.8-9069.4
						l-1738.6-369.1c-252.9-53.7-1567.8,66.8-3381.3,309.9C53346.9-6477.7,14561.6-1279.1,1271.2,502.3z"/>
				</g>
				<g id="Full-logo-58">
					<path id="Top-45" class="st1" d="M1068.4,507.4C-1238.2,798.2-3761.8,1187.4-5796,1566
						c-9481.8,1764.7-37152.1,6914.5-45032.7,8381.2c-1295.3,241-1988.9,435.1-1786.6,499.5l1390.9,442.8
						c0,0,35770.8-6205.8,47780-8289.3c2530.6-439,5336.2-871.7,8073.2-1245C17617.5-416.4,56305.7-5693.5,56305.7-5693.5
						l-1390.9-442.8c-202.3-64.4-1265.4,12.4-2733.9,197.6C43235.8-4810.5,11830-849.8,1068.4,507.4z"/>
				</g>
				<g id="Full-logo-59">
					<path id="Top-46" class="st1" d="M904.8,505.3C-962.4,722-3007.3,1032.1-4657.5,1349c-7691.6,1477-30137.8,5787.4-36530.4,7015
						c-1050.7,201.7-1615.2,376.7-1454,450.4l1108.6,506.2c0,0,29004.5-5106.9,38742.1-6821.4
						C-739.4,2137.9,1534,1793,3750.4,1506.9c10518.2-1358,41847.9-5403,41847.9-5403l-1108.6-506.3
						c-161.2-73.6-1020.2-32.7-2209,105.3C35039.7-3456.7,9616.4-505.9,904.8,505.3z"/>
				</g>
				<g id="Full-logo-60">
					<path id="Top-47" class="st1" d="M773,497.2c-1511,156.1-3167.8,402.1-4506.7,669.2
						c-6240.7,1245-24452.7,4878.4-29639.5,5913.2c-852.5,170-1312.4,330-1184.5,411.7l879.2,561.5
						c0,0,23520.2-4218.1,31416.6-5634.2c1663.9-298.4,3505.9-571.9,5300.3-787c8515.5-1020.7,33879.9-4061.1,33879.9-4061.1
						l-879.2-561.5c-127.9-81.7-821.3-70.4-1783.3,29C28395.9-2356.6,7822.7-231.2,773,497.2z"/>
				</g>
				<g id="Full-logo-61">
					<path id="Top-48" class="st1" d="M667,484.1c-1222.2,106.4-2564.4,300.3-3651.1,527.3
						c-5064.8,1058.2-19845.2,4146.4-24054.7,5026c-691.9,144.5-1067,292.8-966.3,381.5l692.8,610.1
						c0,0,19075.1-3499.6,25479.1-4674.6c1349.4-247.6,2841.7-463.1,4294-620.1C9352.7,989,29880.9-1230.9,29880.9-1230.9
						l-692.8-610.1c-100.8-88.7-660-102.1-1438.1-34.3C23010.3-1462.3,6369.2-12.6,667,484.1z"/>
				</g>
				<g id="Full-logo-62">
					<path id="Top-49" class="st1" d="M581.9,466.9c-988,65.7-2075.3,217.1-2957.4,411.9c-4111.8,908-16111.2,3558.1-19528.6,4312.8
						c-561.7,124-868.2,263.3-789.5,358.3l541.2,653.5c0,0,15472.3-2919.4,20666.7-3899.5c1094.6-206.5,2303.3-374.9,3478.2-484.4
						C7568.1,1299.6,24175.5-249,24175.5-249l-541.2-653.5c-78.7-95-529.1-128.9-1158.1-87.1
						C18644.5-734.7,5191.7,160.2,581.9,466.9z"/>
				</g>
				<g id="Full-logo-63">
					<path id="Top-50" class="st1" d="M513.8,446c-798.2,32.1-1678.7,149-2395.2,318C-5220.9,1551.6-14966.5,3850.2-17742,4504.9
						c-456.2,107.5-707.2,240-646.4,340.8l417.8,692.8c0,0,12552.2-2451.2,16766.3-3274.1c888-173.4,1866.9-303.4,2816.9-374
						c4508.3-335,17936.8-1333,17936.8-1333l-417.8-692.8c-60.8-100.8-422.8-151.9-930.9-131.4C15105.4-142,4237.8,295.9,513.8,446z
						"/>
				</g>
				<g id="Full-logo-64">
					<path id="Top-51" class="st1" d="M459.5,422.1c-644.2,4.4-1357.2,93.2-1939.4,241.4
						c-2713.7,691.3-10632.9,2708.9-12888.3,3283.6c-370.7,94.4-576.7,221.9-530.6,327.9l317.2,728.8
						c0,0,10185.6-2073.8,13605.1-2770.1c720.6-146.7,1513.2-245.4,2280.9-283.9c3642.9-183,14493.9-728.1,14493.9-728.1
						l-317.2-728.8c-46.1-106-336.5-171.7-746.6-168.9C12236.3,341.2,3465.1,401.5,459.5,422.1L459.5,422.1z"/>
				</g>
				<g id="Full-logo-65">
					<path id="Top-52" class="st1" d="M416.5,395.5c-519.3-18.6-1096.4,47.1-1569.8,179c-2206.6,614.6-8646,2408.4-10479.9,2919.4
						c-301.4,83.9-471,207.8-436.8,318.7l235.2,762.3c0,0,8267.5-1770.2,11043.1-2364.5C-207,2085.1,434.7,2012,1054.4,1999.9
						c2941.2-57.4,11702-228.6,11702-228.6l-235.2-762.3c-34.2-110.9-266.3-189-597-200.9C9910.3,735.9,2839.4,482.4,416.5,395.5z"
						/>
				</g>
				<g id="Full-logo-66">
					<path id="Top-53" class="st1" d="M382.5,366.6c-418-37.9-885,9.1-1270.3,127.9c-1795.7,553.9-7036.1,2170.4-8528.6,2630.8
						c-245.3,75.6-385.5,197.2-361,312.6l168.1,793.9c0,0,6713.1-1526.4,8966.9-2038.8c474.9-108,994.1-160.3,1493.9-150.4
						c2372.1,46.6,9437.8,185.5,9437.8,185.5l-168.1-793.9c-24.5-115.5-209.3-204.3-475.5-228.4
						C8024.6,1058.8,2332.9,543.2,382.5,366.6z"/>
				</g>
				<g id="Full-logo-67">
					<path id="Top-54" class="st1" d="M355.9,335.5C20,281.4-357.6,313.1-671.5,421.6c-1462.9,506-5731.9,1983-6947.7,2403.6
						c-199.8,69.1-316.2,189.3-299.8,309.1l113.1,824c0,0,5453.5-1331.1,7284.3-1778c385.8-94.2,805.7-129.4,1208.3-101.2
						C2597.3,2212.5,8288,2609.7,8288,2609.7l-113.1-824c-16.5-119.8-163-218-376.8-252.4C6495.7,1323.7,1922.9,587.7,355.9,335.5z"
						/>
				</g>
				<g id="Full-logo-68">
					<path id="Top-55" class="st1" d="M335.4,302.6c-269.2-67.8-574.5-48.8-830.5,51.7C-1688.3,823-5170.5,2191.1-6162.3,2580.8
						c-163,64-260.2,183.6-250.3,307.7l68,853c0,0,4432.7-1175.2,5920.9-1569.8c313.6-83.1,653-104.3,976.7-60.9
						c1536,206.2,6111.4,820.3,6111.4,820.3l-68-853c-9.9-124.1-125.2-230.5-296.6-273.6C5256,1541.6,1591.2,618.7,335.4,302.6z"/>
				</g>
				<g id="Full-logo-69">
					<path id="Top-56" class="st1" d="M319.8,267.9c-215-79.6-461.6-70.9-670.8,23.4c-974.9,440-3820,1724.2-4630.2,2090
						c-133.2,60.1-214.9,179.9-210.4,308l30.8,881.3c0,0,3605.7-1051.3,4816.2-1404.3c255.1-74.4,529.2-84,788.9-27.6
						c1232.2,267.7,4902.4,1064.9,4902.4,1064.9l-30.8-881.3c-4.5-128.2-94.4-242-231.3-292.6C4250.7,1721.5,1323,638.8,319.8,267.9
						z"/>
				</g>
				<g id="Full-logo-70">
					<path id="Top-57" class="st1" d="M308.2,231.6c-171.1-89.7-370-89.7-541.3,0c-798.1,418.3-3127.3,1639.1-3790.6,1986.8
						c-109,57.1-178.2,177.6-178.2,309.8v909.1c0,0,2935.6-953.5,3921.2-1273.6c207.7-67.5,428.9-67.5,636.6,0
						C1341.4,2483.8,4277,3437.3,4277,3437.3v-909.1c0-132.2-69.3-252.7-178.2-309.8C3435.4,1870.6,1106.3,649.8,308.2,231.6z"/>
				</g>
			</g>
		</g>
	</g>
</g>
</svg>
