<?xml version="1.0" encoding="UTF-8"?><svg id="Livello_1" xmlns="http://www.w3.org/2000/svg" xmlns:xlink="http://www.w3.org/1999/xlink" viewBox="0 0 1920 1080"><defs><style>.cls-1,.cls-2,.cls-3{fill:none;}.cls-4{clip-path:url(#clippath);}.cls-2{stroke:#ffa600;}.cls-2,.cls-3{fill-rule:evenodd;stroke-miterlimit:10;stroke-width:4px;}.cls-3{stroke:#fff;}.cls-5{clip-path:url(#clippath-1);}.cls-6{clip-path:url(#clippath-4);}.cls-7{clip-path:url(#clippath-3);}.cls-8{clip-path:url(#clippath-2);}</style><clipPath id="clippath"><rect class="cls-1" x="1979.55" width="1920" height="1080"/></clipPath><clipPath id="clippath-1"><rect class="cls-1" x="3953.63" width="1920" height="1080"/></clipPath><clipPath id="clippath-2"><rect class="cls-1" y="-1133.61" width="1920" height="1080"/></clipPath><clipPath id="clippath-3"><rect class="cls-1" x="1979.55" y="-1133.61" width="1920" height="1080"/></clipPath><clipPath id="clippath-4"><rect class="cls-1" width="1920" height="1080"/></clipPath></defs><g class="cls-4"><g><g id="Full-logo"><path id="Top" class="cls-2" d="m4944.31,454.42C602.33,1084.92-4139.16,1839.02-7953.3,2505.7c-17777.72,3107.5-69657.82,12176.13-84433.28,14758.9-2428.61,424.47-3720.97,710.69-3328.97,736.89l2695.14,180.1S-25896.28,6867.5-3361.03,3069.06C1387.61,2268.65,6659.06,1430.26,11807.68,656.57c24433.3-3671.6,97210.53-14607.92,97210.53-14607.92l-2695.14-180.1c-392-26.2-2400.34,212.54-5164.6,613.96C84320.23-11072.3,25201.97-2487.36,4944.31,454.42Z"/></g><g id="Full-logo-2"><path id="Top-2" class="cls-2" d="m4633.49,478.53C1116.28,971.92-2726.39,1578.27-5819.2,2127.92c-14415.6,2562.04-56484.14,10038.85-68465.26,12168.27-1969.31,349.95-3018.96,598.35-2703.76,639.44l2167.11,282.53S-20403.3,5976.32-2133.87,2873.58c3849.75-653.81,8121.92-1327.95,12293.28-1939.83C29955.01-1970.02,88918.37-10619.27,88918.37-10619.27l-2167.11-282.53c-315.2-41.09-1940.56,132.62-4179.74,446.75C68931.75-8541.6,21043.16-1823.54,4633.49,478.53Z"/></g><g id="Full-logo-3"><path id="Top-3" class="cls-2" d="m4382.3,492.19C1533.68,873.98-1580.43,1360.45-4088.58,1815.48c-11690.51,2121.01-45806.52,8310.79-55522.76,10073.67-1597.03,289.7-2450,507.86-2197.12,561.54l1738.65,369.06S-15951.09,5255.76-1139.33,2716.32c3121.14-535.12,6583.32-1075.96,9962.49-1556.31,16036.2-2279.53,63801.76-9069.41,63801.76-9069.41l-1738.65-369.06c-252.88-53.68-1567.75,66.82-3381.28,309.9C56458.02-6487.87,17672.63-1289.23,4382.3,492.19Z"/></g><g id="Full-logo-4"><path id="Top-4" class="cls-2" d="m4179.47,497.22C1872.85,788.09-650.69,1177.26-2684.97,1555.84c-9481.78,1764.66-37152.14,6914.54-45032.66,8381.25-1295.3,241.02-1988.9,435.1-1786.6,499.5l1390.9,442.79S-12342.51,4673.56-333.35,2590.08c2530.58-439.03,5336.18-871.71,8073.18-1245.03C20728.53-426.58,59416.77-5703.64,59416.77-5703.64l-1390.9-442.79c-202.3-64.4-1265.42,12.44-2733.9,197.64C46346.89-4820.71,14941.09-860.01,4179.47,497.22Z"/></g><g id="Full-logo-5"><path id="Top-5" class="cls-2" d="m4015.85,495.11C2148.62,711.8,103.8,1021.97-1546.4,1338.83c-7691.61,1476.99-30137.76,5787.36-36530.43,7014.98-1050.74,201.72-1615.22,376.73-1453.98,450.36l1108.55,506.25S-9417.75,4203.54,319.8,2489.02c2051.9-361.29,4325.28-706.13,6541.7-992.29C17379.74,138.73,48709.45-3906.27,48709.45-3906.27l-1108.55-506.25c-161.24-73.63-1020.23-32.72-2208.98,105.26C38150.79-3466.81,12727.49-516.05,4015.85,495.11Z"/></g><g id="Full-logo-6"><path id="Top-6" class="cls-2" d="m3884.04,487.05c-1511.01,156.08-3167.79,402.08-4506.71,669.16-6240.7,1245.01-24452.72,4878.39-29639.51,5913.21-852.54,170.03-1312.41,330.03-1184.53,411.69l879.2,561.48S-7047.28,3824.52,849.05,2408.39c1663.92-298.41,3505.88-571.91,5300.28-786.99,8515.5-1020.71,33879.86-4061.07,33879.86-4061.07l-879.2-561.48c-127.88-81.67-821.34-70.41-1783.31,28.97C31506.96-2366.79,10933.74-241.32,3884.04,487.05Z"/></g><g id="Full-logo-7"><path id="Top-7" class="cls-2" d="m3778.04,474C2555.83,580.44,1213.61,774.28,126.98,1001.28c-5064.8,1058.2-19845.23,4146.43-24054.7,5025.98-691.9,144.51-1067.04,292.81-966.27,381.55l692.79,610.12S-5126.11,3519.3,1277.88,2344.36c1349.45-247.59,2841.7-463.1,4293.96-620.14,6891.89-745.26,27420.12-2965.16,27420.12-2965.16l-692.79-610.12c-100.77-88.74-659.99-102.1-1438.09-34.31C26121.33-1472.46,9480.31-22.79,3778.04,474Z"/></g><g id="Full-logo-8"><path id="Top-8" class="cls-2" d="m3692.97,456.74c-988.05,65.69-2075.28,217.12-2957.45,411.9-4111.81,908.03-16111.17,3558.06-19528.59,4312.81-561.71,123.99-868.23,263.29-789.51,358.34l541.19,653.53S-3569.13,3273.95,1625.3,2293.82c1094.57-206.54,2303.33-374.89,3478.22-484.43C10679.08,1289.51,27286.5-259.07,27286.5-259.07l-541.19-653.53c-78.72-95.05-529.05-128.94-1158.08-87.09C21755.56-744.81,8302.76,150.06,3692.97,456.74Z"/></g><g id="Full-logo-9"><path id="Top-9" class="cls-2" d="m3624.89,435.9c-798.18,32.14-1678.7,149.03-2395.18,317.98-3339.51,787.61-13085.1,3086.2-15860.65,3740.87-456.2,107.54-707.17,240.03-646.4,340.8l417.79,692.81S-2307.36,3077.19,1906.73,2254.25c888-173.41,1866.94-303.38,2816.94-373.97,4508.31-335.03,17936.82-1333.01,17936.82-1333.01l-417.79-692.81c-60.77-100.77-422.77-151.88-930.92-131.4C18216.44-152.19,7348.83,285.78,3624.89,435.9Z"/></g><g id="Full-logo-10"><path id="Top-10" class="cls-2" d="m3570.61,411.97c-644.2,4.39-1357.16,93.15-1939.37,241.44-2713.68,691.32-10632.93,2708.93-12888.34,3283.57-370.71,94.39-576.71,221.86-530.57,327.87l317.22,728.83S-1284.89,2919.86,2134.66,2223.61c720.57-146.72,1513.22-245.4,2280.87-283.95,3642.95-182.98,14493.88-728.05,14493.88-728.05l-317.22-728.83c-46.14-106.01-336.46-171.69-746.58-168.87-2498.24,17.15-11269.43,77.39-14275,98.07Z"/></g><g id="Full-logo-11"><path id="Top-11" class="cls-2" d="m3527.54,385.37c-519.33-18.65-1096.44,47.14-1569.85,178.98C-248.89,1178.98-6688.28,2972.79-8522.22,3483.7c-301.43,83.91-471.05,207.83-436.84,318.71l235.15,762.33S-456.39,2794.55,2319.23,2200.23c584.88-125.24,1226.5-198.39,1846.28-210.49,2941.22-57.45,11701.99-228.64,11701.99-228.64l-235.15-762.33c-34.2-110.88-266.34-189-596.96-200.85-2013.96-72.21-9084.89-325.73-11507.84-412.55Z"/></g><g id="Full-logo-12"><path id="Top-12" class="cls-2" d="m3493.57,356.42c-418.03-37.9-885.02,9.12-1270.27,127.92C427.59,1038.2-4812.79,2654.68-6305.26,3115.09c-245.3,75.61-385.49,197.18-361.05,312.65l168.07,793.89S214.88,2695.26,2468.64,2182.79c474.92-107.99,994.1-160.27,1493.95-150.44,2372.13,46.63,9437.77,185.46,9437.77,185.46l-168.07-793.89c-24.45-115.47-209.34-204.31-475.48-228.41-1621.14-146.86-7312.89-662.46-9263.25-839.09Z"/></g><g id="Full-logo-13"><path id="Top-13" class="cls-2" d="m3467.01,325.36c-335.85-54.09-713.54-22.44-1027.39,86.09-1462.86,506.04-5731.89,1982.96-6947.72,2403.62-199.83,69.07-316.24,189.29-299.79,309.13l113.11,823.99S758.69,2617.11,2589.56,2170.2c385.8-94.18,805.71-129.36,1208.3-101.25,1910.53,133.39,7601.25,530.63,7601.25,530.63l-113.11-823.99c-16.45-119.85-162.97-218.03-376.79-252.44-1302.44-209.64-5875.26-945.64-7442.2-1197.8Z"/></g><g id="Full-logo-14"><path id="Top-14" class="cls-2" d="m3446.47,292.41c-269.16-67.81-574.46-48.79-830.46,51.74-1193.25,468.74-4675.49,1836.82-5667.23,2226.47-163,63.97-260.21,183.64-250.32,307.71l67.97,853.02S1199.18,2556.15,2687.36,2161.58c313.59-83.15,653.01-104.29,976.69-60.85,1536.06,206.17,6111.37,820.2,6111.37,820.2l-67.97-853.02c-9.89-124.07-125.21-230.5-296.57-273.64-1043.82-262.85-4708.61-1185.68-5964.41-1501.85Z"/></g><g id="Full-logo-15"><path id="Top-15" class="cls-2" d="m3430.85,257.72c-215.02-79.55-461.62-70.94-670.77,23.42C1785.18,721.15-1059.88,2005.39-1870.15,2371.18c-133.17,60.05-214.88,179.85-210.41,308.03l30.78,881.32s3605.69-1051.33,4816.21-1404.31c255.08-74.38,529.24-83.96,788.89-27.55,1232.2,267.68,4902.44,1064.93,4902.44,1064.93l-30.78-881.32c-4.48-128.19-94.43-241.99-231.32-292.61-833.88-308.37-3761.58-1391.02-4764.8-1761.95Z"/></g><g id="Full-logo-16"><path id="Top-16" class="cls-2" d="m3419.24,221.41c-171.06-89.7-370.05-89.7-541.28,0C2079.84,639.68-249.3,1860.47-912.64,2208.19c-109.02,57.08-178.25,177.56-178.25,309.79v909.13s2935.63-953.45,3921.2-1273.58c207.68-67.46,428.91-67.46,636.59,0,985.57,320.13,3921.2,1273.58,3921.2,1273.58v-909.13c0-132.23-69.29-252.72-178.2-309.79-663.39-347.71-2992.54-1568.5-3790.65-1986.77Z"/></g></g></g><g class="cls-5"><g><g id="Full-logo-17"><path id="Top-17" class="cls-2" d="m7833.23-1365.9C4817.04-904.14,1546.42-338.04-1063.38,173.98c-12164.25,2386.66-47662.71,9351.66-57772.67,11335.31-1661.77,326-2524.82,556.39-2223.26,593.08l2073.38,252.32S-12909.31,3738.49,2559.76,845.79C5819.41,236.24,9455.59-393.13,13022.95-965.24c16929.24-2715,67354.81-10801.97,67354.81-10801.97l-2073.38-252.32c-301.57-36.7-1715.3,127-3635.5,420.99C62972.11-9807.76,21905.3-3520.38,7833.23-1365.9Z"/></g><g id="Full-logo-18"><path id="Top-18" class="cls-2" d="m7716.8-1371.17C5212.28-1003.94,2494.61-538.36,324.3-104.72c-10115.81,2021.31-39636.4,7920.16-48043.86,9600.17-1381.93,276.09-2101.41,482.4-1853.39,531.06l1705.22,334.56S-9562.57,3141.58,3297.43,717.8C6007.3,207.05,9028.72-310.56,11991.66-771.66c14060.89-2188.17,55942.78-8705.92,55942.78-8705.92l-1705.22-334.56c-248.02-48.66-1420.4,69.13-3014.86,302.94C53501.85-8084.98,19401.67-3084.64,7716.8-1371.17Z"/></g><g id="Full-logo-19"><path id="Top-19" class="cls-2" d="m7620.79-1380.79C5541.61-1092.55,3283.54-710.64,1478.48-341.95-6934.9,1376.66-31487.36,6392.12-38479.9,7820.55c-1149.36,234.73-1749.56,421.41-1546.11,480.47l1398.76,406.05S-6781.14,2647,3910.39,612.46C6163.32,183.74,8673.77-240.85,11134.29-609.31c11676.61-1748.58,46456.64-6956.95,46456.64-6956.95l-1398.76-406.05c-203.45-59.06-1175.16,20.12-2498.84,203.65C45630.27-6650.74,17321.25-2725.77,7620.79-1380.79Z"/></g><g id="Full-logo-20"><path id="Top-20" class="cls-2" d="m7541.77-1394.16c-1725.6,222.17-3601.65,534.41-5103.16,849.33C-4559.93,923.14-24983.52,5207.2-30800.15,6427.33c-956.07,200.49-1457.19,371.24-1290.86,439.4l1143.59,468.68S-4469.57,2237.51,4419.7,526c1873.15-360.65,3958.89-707.79,6001.76-998.89,9694.64-1381.45,38571.18-5496.29,38571.18-5496.29l-1143.59-468.68c-166.33-68.17-971.2-21.55-2069.77,119.91-6691.87,861.69-30186.71,3887.06-38237.52,4923.78Z"/></g><g id="Full-logo-21"><path id="Top-21" class="cls-2" d="m7476.89-1410.78c-1431.65,166.82-2990.17,421.02-4239.42,691.46C-2585.26,541.33-19577.54,4220.38-24416.94,5268.2c-795.45,172.17-1214.26,330.06-1078.85,406.27l931.02,524.02S-2548.54,1898.77,4842.86,455.23c1557.52-304.19,3290.23-586.8,4985.92-813.21,8047.07-1074.5,32016.12-4275.08,32016.12-4275.08l-931.02-524.02c-135.41-76.22-801.53-57.15-1712.97,49.08-5551.95,647.04-25044.61,2918.75-31724.02,3697.23Z"/></g><g id="Full-logo-22"><path id="Top-22" class="cls-2" d="m7423.78-1430.24c-1187.28,120.37-2481.85,326.19-3521.46,559.88C-943.28,219-15084.04,3398.16-19111.33,4303.61c-661.96,148.77-1012.43,296.37-902.78,379.77l753.85,573.4S-952.1,1618.89,5194.4,397.54c1295.2-257.37,2734.47-486.2,4141.54-658.47,6677.41-817.53,26566.79-3252.71,26566.79-3252.71l-753.85-573.4c-109.65-83.4-660.37-87.72-1416.23-11.07-4604.26,466.89-20769.6,2106.12-26308.86,2667.86Z"/></g><g id="Full-logo-23"><path id="Top-23" class="cls-2" d="m7380.48-1452.19c-984.09,81.3-2059.28,246.78-2924.67,450.15C422.19-54.02-11348.96,2712.7-14701.39,3500.69c-551.03,129.46-844.76,268.92-756.6,358.79l606.1,617.89S374.53,1387.97,5486.42,350.76c1077.18-218.57,2272.54-402.55,3439.67-529.41,5538.74-602.06,22036.47-2395.42,22036.47-2395.42l-606.1-617.89c-88.16-89.87-542.9-114.14-1169.41-62.36-3816.32,315.38-17215.25,1422.66-21806.57,1802.13Z"/></g><g id="Full-logo-24"><path id="Top-24" class="cls-2" d="m7345.35-1476.37c-815.15,48.35-1707.96,180.17-2428.6,358.56C1557.87-286.19-8244.23,2140.85-11035.87,2832.1c-458.85,113.56-705.48,246.68-635.26,342.44l482.78,658.42S1476.92,1197.78,5728.96,313.06c895.99-186.43,1888.6-332.98,2856.24-421.7,4592.04-421.03,18269.95-1675.16,18269.95-1675.16l-482.78-658.42c-70.22-95.77-445.11-137.13-964.07-106.32-3161.16,187.63-14259.84,846.39-18062.96,1072.16Z"/></g><g id="Full-logo-25"><path id="Top-25" class="cls-2" d="m7317.03-1502.55c-674.66,20.49-1415.88,124.18-2016.22,282.04C2502.58-484.53-5663.4,1663.38-7989.07,2275.14c-382.26,100.49-589.8,228.77-534.56,329.96l379.76,695.74S2392.91,1041.5,5930.37,282.95C6675.79,123.11,7499.85,7.83,8301.63-48.76c3804.91-268.57,15138.25-1068.58,15138.25-1068.58l-379.76-695.74c-55.24-101.19-363.68-157.3-793.2-144.23-2616.35,79.58-11802.23,358.98-14949.89,454.76Z"/></g><g id="Full-logo-26"><path id="Top-26" class="cls-2" d="m7294.39-1530.53c-557.82-3.16-1173.01,77-1673.42,218.05C3288.57-654.89-3518.01,1264.3-5456.53,1810.92c-318.62,89.78-493.74,214.48-451.04,320.73l293.59,730.49S3153.98,913.43,6097.6,259.18C6717.88,121.31,7401.83,32.19,8065.68,2.73c3150.38-139.81,12534.15-556.3,12534.15-556.3l-293.59-730.49c-42.7-106.25-295.84-175.15-650.98-177.13-2163.25-12.14-9758.32-54.78-12360.87-69.34Z"/></g><g id="Full-logo-27"><path id="Top-27" class="cls-2" d="m7276.5-1560.18c-460.64-23.33-971.06,37.13-1388.44,164.45C3942.67-802.13-1734.54,930.32-3351.41,1423.75c-265.76,81.04-413.99,203.22-381.78,314.22l221.42,763.18S3786.27,808.86,6236.4,240.69c516.29-119.73,1083.77-186.94,1632.92-193.41,2606.07-30.7,10368.54-122.19,10368.54-122.19l-221.42-763.18c-32.21-111-239.3-191.1-532.56-205.92-1786.37-90.34-8058.23-407.53-10207.37-516.17Z"/></g><g id="Full-logo-28"><path id="Top-28" class="cls-2" d="m7262.58-1591.37c-379.79-40.61-803.11,3.31-1151.51,119.48C4487.16-930.3-251.85,650.38-1601.53,1100.59c-221.84,73.93-347.79,194.48-324.39,310l160.87,794.28S4311.52,723.88,6351.57,226.65c429.88-104.78,900.52-153.61,1354.28-140.52,2153.35,62.14,8567.34,247.15,8567.34,247.15l-160.87-794.28c-23.4-115.53-192.13-205.5-433.92-231.32-1472.83-157.35-6643.89-709.8-8415.82-899.06Z"/></g><g id="Full-logo-29"><path id="Top-29" class="cls-2" d="m7251.99-1624.01c-312.51-55.5-663.42-25.48-954.53,81.67C4940.58-1042.76,980.83,415.31-146.91,830.6c-185.36,68.19-292.86,187.86-276.87,307.72l109.96,824.13S4747.8,655.21,6447.11,216.32c358.08-92.49,748.21-125.87,1122.61-96.05,1776.75,141.5,7069.01,562.88,7069.01,562.88l-109.96-824.13c-15.99-119.87-152.77-218.64-351.72-253.94-1211.94-215.11-5467-970.35-6925.06-1229.09Z"/></g><g id="Full-logo-30"><path id="Top-30" class="cls-2" d="m7244.17-1658.02c-256.52-68.43-547.21-50.12-790.74,49.8C5318.32-1142.32,2005.74,217.46,1062.32,604.76c-155.06,63.59-247.31,183.01-237.55,307.09l67.05,853.06S5110.12,600.17,6526.31,209.11c298.42-82.41,621.61-102.76,929.98-58.57,1463.41,209.71,5822.36,834.27,5822.36,834.27l-67.05-853.06c-9.75-124.07-119.87-230.76-283.18-274.29-994.79-265.23-4487.44-1196.45-5684.25-1515.49Z"/></g><g id="Full-logo-31"><path id="Top-31" class="cls-2" d="m7238.7-1693.34c-209.89-79.73-450.52-71.33-654.54,22.86C5633.18-1231.31,2857.96,50.5,2067.58,415.58c-129.9,59.93-209.54,179.66-205.06,307.85l30.78,881.32S5410.96,556.49,6591.94,204.54c248.86-74.17,516.38-83.51,769.8-26.88,1202.65,268.71,4784.87,1069.03,4784.87,1069.03l-30.78-881.32c-4.48-128.19-92.35-242.06-225.98-292.79-813.99-309.06-3671.86-1394.15-4651.15-1765.92Z"/></g></g></g><g class="cls-8"><g><g id="Full-logo-32"><path id="Top-32" class="cls-2" d="m-40553.28,390.04c26245.39-35.01,56775.34-35.01,83046.41,0,122453.01,163.26,479806.71,639.78,581581.66,775.5,16727.04,22.28,27348.39,69.31,27348.39,120.92v354.86S201017.73,1269.16,49804.84,1144.21c-31863.76-26.33-65806.08-26.33-97669.84,0-151212.89,124.96-601618.34,497.12-601618.34,497.12v-354.86c0-51.61,10631.54-98.64,27340.88-120.92C-520359.99,1029.82-163006.29,553.31-40553.28,390.04Z"/></g><g id="Full-logo-33"><path id="Top-33" class="cls-2" d="m-32518.45,349.9c21165.64-35.73,45786.56-35.73,66972.91,0,98752.43,166.6,386940.89,652.83,469017.47,791.33,13489.54,22.73,22055.16,70.72,22055.16,123.39v362.1s-363230.2-379.76-485176.08-507.26c-25696.58-26.87-53069.42-26.87-78766,0-121945.88,127.51-485176.08,507.26-485176.08,507.26v-362.1c0-52.67,8573.82-100.66,22049.1-123.39C-419459.35,1002.73-131270.88,516.49-32518.45,349.9Z"/></g><g id="Full-logo-34"><path id="Top-34" class="cls-2" d="m-26038.75,308.93c17069.06-36.46,36924.65-36.46,54010.41,0,79639.06,169.99,312049.11,666.16,378239.89,807.48,10878.67,23.2,17786.42,72.17,17786.42,125.91v369.49S131070.39,1224.3,32726.94,1094.19c-20723.05-27.42-42797.92-27.42-63520.97,0-98343.45,130.11-391271.03,517.62-391271.03,517.62v-369.49c0-53.74,6914.37-102.71,17781.53-125.91C-338087.86,975.09-105677.81,478.93-26038.75,308.93Z"/></g><g id="Full-logo-35"><path id="Top-35" class="cls-2" d="m-20813.19,267.13c13765.37-37.2,29777.94-37.2,43556.78,0,64225.05,173.46,251652.51,679.75,305032.17,823.95,8773.12,23.67,14343.88,73.64,14343.88,128.48v377.03S105887.73,1201.18,26578.5,1068.42c-16712.14-27.98-34514.45-27.98-51226.59,0-79309.24,132.76-315541.15,528.18-315541.15,528.18v-377.03c0-54.84,5576.11-104.81,14339.94-128.48C-272465.69,946.88-85038.23,440.6-20813.19,267.13Z"/></g><g id="Full-logo-36"><path id="Top-36" class="cls-2" d="m-16599.02,224.48c11101.11-37.96,24014.47-37.96,35126.44,0,51794.39,177,202945.57,693.62,245993.69,840.77,7075.09,24.15,11567.65,75.14,11567.65,131.1v384.73S85579.14,1177.59,21620.08,1042.12c-13477.53-28.55-27834.23-28.55-41311.76,0-63959.06,135.47-254468.67,538.96-254468.67,538.96v-384.73c0-55.96,4496.86-106.95,11564.47-131.1C-219544.59,918.1-68393.41,401.48-16599.02,224.48Z"/></g><g id="Full-logo-37"><path id="Top-37" class="cls-2" d="m-13200.5,180.95c8952.51-38.73,19366.51-38.73,28327.77,0,41769.67,180.62,163665.78,707.78,198382.01,857.93,5705.72,24.65,9328.75,76.68,9328.75,133.78v392.58S69201.24,1153.52,17621.35,1015.28c-10868.98-29.13-22446.96-29.13-33315.94,0-51579.89,138.24-205216.67,549.96-205216.67,549.96v-392.58c0-57.1,3626.5-109.13,9326.19-133.78C-176866.28,888.73-54970.17,361.57-13200.5,180.95Z"/></g><g id="Full-logo-38"><path id="Top-38" class="cls-2" d="m-10459.76,136.54c7219.76-39.52,15618.15-39.52,22844.98,0,33685.22,184.3,131988.53,722.22,159985.49,875.44,4601.39,25.15,7523.18,78.24,7523.18,136.51v400.59S55993.26,1128.95,14396.58,987.89c-8765.3-29.73-18102.39-29.73-26867.69,0-41596.68,141.06-165497.32,561.18-165497.32,561.18v-400.59c0-58.27,2924.6-111.36,7521.12-136.51C-142448.29,858.76-44144.98,320.84-10459.76,136.54Z"/></g><g id="Full-logo-39"><path id="Top-39" class="cls-2" d="m-8249.48,91.22c5822.39-40.33,12595.28-40.33,18423.37,0,27165.5,188.06,106442.37,736.96,129020.55,893.3,3710.8,25.66,6067.08,79.84,6067.08,139.29v408.77S45341.66,1103.88,11795.95,959.95c-7068.79-30.33-14598.7-30.33-21667.49,0-33545.71,143.94-133465.58,572.63-133465.58,572.63v-408.77c0-59.45,2358.55-113.63,6065.42-139.29C-114691.85,828.18-35414.98,279.28-8249.48,91.22Z"/></g><g id="Full-logo-40"><path id="Top-40" class="cls-2" d="m-6467,44.97C-1771.53,3.82,3690.48,3.82,8390.55,44.97c21907.66,191.9,85840.62,752,104048.83,911.53,2992.58,26.19,4892.81,81.47,4892.81,142.13v417.11S36751.66,1078.31,9698.67,931.43c-5700.64-30.95-11773.15-30.95-17473.79,0-27052.99,146.87-107633.53,584.32-107633.53,584.32v-417.11c0-60.67,1902.05-115.95,4891.47-142.13C-92307.62,796.98-28374.66,236.88-6467,44.97Z"/></g><g id="Full-logo-41"><path id="Top-41" class="cls-2" d="m-5029.52-2.21C-1242.84-44.21,3162-44.21,6952.38-2.21c17667.47,195.82,69226.3,767.35,83910.35,930.14,2413.37,26.72,3945.81,83.13,3945.81,145.04v425.62S29824.24,1052.21,8007.31,902.33c-4597.29-31.58-9494.47-31.58-14091.76,0-21816.93,149.87-86801.23,596.25-86801.23,596.25v-425.62c0-61.91,1533.91-118.31,3944.73-145.04C-74255.82,765.14-22696.99,193.6-5029.52-2.21Z"/></g><g id="Full-logo-42"><path id="Top-42" class="cls-2" d="m-3870.26-50.37c3053.77-42.85,6606.07-42.85,9662.82,0,14247.96,199.81,55827.67,783.01,67669.64,949.12,1946.27,27.27,3182.11,84.83,3182.11,147.99v434.31S24237.62,1025.57,6643.32,872.64c-3707.49-32.23-7656.83-32.23-11364.32,0-17594.3,152.93-70000.99,608.41-70000.99,608.41v-434.31c0-63.17,1237.03-120.73,3181.23-147.99C-59697.92,732.64-18118.21,149.45-3870.26-50.37Z"/></g><g id="Full-logo-43"><path id="Top-43" class="cls-2" d="m-2935.37-99.5c2462.72-43.73,5327.47-43.73,7792.6,0C16347.52,104.39,49879.54,699.49,59429.52,868.99c1569.57,27.82,2566.22,86.56,2566.22,151.02v443.17S19732.27,998.4,5543.32,842.34c-2989.91-32.89-6174.86-32.89-9164.78,0-14188.95,156.05-56452.42,620.83-56452.42,620.83v-443.17c0-64.46,997.6-123.19,2565.51-151.02C-47957.68,699.49-14425.66,104.39-2935.37-99.5Z"/></g><g id="Full-logo-44"><path id="Top-44" class="cls-2" d="m-2181.43-149.64c1986.06-44.62,4296.35-44.62,6284.35,0C13369.29,58.42,40411.24,665.66,48112.84,838.62c1265.78,28.39,2069.53,88.32,2069.53,154.1v452.22S16098.93,970.67,4656.23,811.43c-2411.22-33.56-4979.73-33.56-7390.95,0-11442.7,159.24-45526.14,633.5-45526.14,633.5v-452.22c0-65.77,804.52-125.71,2068.96-154.1C-38489.74,665.66-11447.79,58.42-2181.43-149.64Z"/></g><g id="Full-logo-45"><path id="Top-45" class="cls-2" d="m-1573.41-200.8c1601.66-45.53,3464.8-45.53,5068.03,0C10967.49,11.5,32775.52,631.14,38986.48,807.63c1020.79,28.97,1668.98,90.13,1668.98,157.24v461.44S13168.81,942.37,3940.83,779.88c-1944.53-34.24-4015.91-34.24-5960.44,0-9227.99,162.49-36714.63,646.43-36714.63,646.43v-461.44c0-67.12,648.8-128.27,1668.52-157.24C-30854.31,631.14-9046.28,11.5-1573.41-200.8Z"/></g><g id="Full-logo-46"><path id="Top-46" class="cls-2" d="m-1083.07-253c1291.66-46.46,2794.19-46.46,4087.12,0C9030.56-36.37,26617.68,595.91,31626.52,776c823.22,29.56,1345.95,91.97,1345.95,160.45v470.86S10805.82,913.49,3363.89,747.69c-1568.17-34.94-3238.64-34.94-4806.81,0-7441.92,165.8-29608.57,659.62-29608.57,659.62v-470.86c0-68.49,523.23-130.89,1345.58-160.45C-24696.7,595.91-7109.58-36.37-1083.07-253Z"/></g><g id="Full-logo-47"><path id="Top-47" class="cls-2" d="m-687.64-306.27c1041.66-47.41,2253.38-47.41,3296.06,0C7468.51-85.22,21651.67,559.97,25691.06,743.73c663.89,30.16,1085.44,93.84,1085.44,163.73v480.47S8900.17,884.03,2898.62,714.85c-1264.65-35.65-2611.8-35.65-3876.46,0-6001.55,169.19-23877.88,673.08-23877.88,673.08v-480.47c0-69.88,421.96-133.56,1085.14-163.73C-19730.89,559.97-5547.73-85.22-687.64-306.27Z"/></g><g id="Full-logo-48"><path id="Top-48" class="cls-2" d="m-368.74-360.63c840.05-48.37,1817.24-48.37,2658.12,0,3919.43,225.56,15357.46,883.92,18615.03,1071.43,535.39,30.78,875.36,95.76,875.36,167.07v490.28S7363.37,853.97,2523.41,681.33c-1019.88-36.38-2106.29-36.38-3126.18,0-4839.96,172.64-19256.36,686.82-19256.36,686.82v-490.28c0-71.31,340.29-136.29,875.12-167.07C-15726.2,523.29-4288.17-135.06-368.74-360.63Z"/></g><g id="Full-logo-49"><path id="Top-49" class="cls-2" d="m-111.56-416.09c677.46-49.36,1465.52-49.36,2143.64,0,3160.83,230.17,12385.05,901.96,15012.12,1093.3,431.77,31.41,705.93,97.71,705.93,170.48v500.28S6124.01,823.29,2220.81,647.13c-822.49-37.12-1698.62-37.12-2521.11,0-3903.19,176.16-15529.32,700.84-15529.32,700.84v-500.28c0-72.76,274.43-139.07,705.74-170.48C-12496.61,485.86-3272.39-185.93-111.56-416.09Z"/></g><g id="Full-logo-50"><path id="Top-50" class="cls-2" d="m95.83-472.69c546.34-50.37,1181.87-50.37,1728.74,0C4373.63-237.83,11812.52,447.67,13931.13,642.92c348.2,32.05,569.3,99.71,569.3,173.96v510.49S5124.52,791.98,1976.78,612.23c-663.3-37.88-1369.86-37.88-2033.15,0-3147.74,179.76-12523.64,715.14-12523.64,715.14v-510.49c0-74.25,221.31-141.91,569.14-173.96C-9892.11,447.67-2453.22-237.83,95.83-472.69Z"/></g><g id="Full-logo-51"><path id="Top-51" class="cls-2" d="m263.09-530.44c440.6-51.4,953.12-51.4,1394.15,0,2055.69,239.66,8054.79,939.15,9763.35,1138.38,280.81,32.7,459.11,101.74,459.11,177.51v520.91S4318.48,760.04,1779.99,576.61c-534.92-38.65-1104.72-38.65-1639.64,0-2538.5,183.43-10099.71,729.73-10099.71,729.73v-520.91c0-75.77,178.48-144.8,458.99-177.51C-7791.7,408.7-1792.6-290.79,263.09-530.44Z"/></g><g id="Full-logo-52"><path id="Top-52" class="cls-2" d="m397.98-589.38c355.32-52.44,768.65-52.44,1124.31,0,1657.81,244.55,6495.8,958.31,7873.67,1161.61,226.46,33.37,370.25,103.82,370.25,181.13v531.54S3668.46,727.44,1621.28,540.28c-431.38-39.44-890.91-39.44-1322.29,0-2047.18,187.17-8144.93,744.63-8144.93,744.63v-531.54c0-77.31,143.93-147.76,370.15-181.13C-6097.82,368.94-1259.84-344.83,397.98-589.38Z"/></g><g id="Full-logo-53"><path id="Top-53" class="cls-2" d="m506.76-649.51c286.55-53.51,619.88-53.51,906.7,0,1336.95,249.54,5238.55,977.87,6349.73,1185.32,182.63,34.05,298.59,105.94,298.59,184.82v542.39S3144.24,694.18,1493.29,503.2c-347.89-40.25-718.47-40.25-1066.36,0-1650.95,190.99-6568.49,759.82-6568.49,759.82v-542.39c0-78.89,116.08-150.77,298.51-184.82C-4731.79,328.36-830.19-399.97,506.76-649.51Z"/></g><g id="Full-logo-54"><path id="Top-54" class="cls-2" d="m594.48-710.87c231.09-54.61,499.9-54.61,731.21,0C2403.88-456.24,5550.33,286.95,6446.44,498.63c147.28,34.75,240.8,108.1,240.8,188.6v553.46S2721.48,660.24,1390.07,465.36c-280.56-41.07-579.41-41.07-859.97,0-1331.41,194.89-5297.17,775.33-5297.17,775.33v-553.46c0-80.5,93.61-153.85,240.73-188.6C-3630.15,286.95-483.7-456.24,594.48-710.87Z"/></g><g id="Full-logo-55"><path id="Top-55" class="cls-2" d="m665.23-773.49c186.36-55.72,403.14-55.72,589.69,0,869.5,259.83,3406.96,1018.19,4129.64,1234.19,118.77,35.46,194.19,110.3,194.19,192.45v564.75S2380.55,625.61,1306.83,426.75c-226.26-41.91-467.27-41.91-693.52,0-1073.72,198.86-4271.91,791.15-4271.91,791.15v-564.75c0-82.14,75.49-156.99,194.14-192.45C-2741.74,244.7-204.28-513.66,665.23-773.49Z"/></g><g id="Full-logo-56"><path id="Top-56" class="cls-2" d="m722.28-837.38c150.29-56.86,325.12-56.86,475.55,0C1899.05-572.25,3945.39,201.59,4528.19,422c95.79,36.18,156.61,112.55,156.61,196.37v576.28S2105.61,590.27,1239.7,387.35c-182.46-42.76-376.83-42.76-559.29,0-865.9,202.92-3445.09,807.3-3445.09,807.3v-576.28c0-83.82,60.88-160.19,156.56-196.37C-2025.27,201.59,21.07-572.25,722.28-837.38Z"/></g><g id="Full-logo-57"><path id="Top-57" class="cls-2" d="m768.29-902.57c121.2-58.02,262.19-58.02,383.51,0C1717.29-632.03,3367.57,157.6,3837.57,382.51c77.25,36.92,126.3,114.85,126.3,200.38v588.04S1883.88,554.21,1185.57,347.15c-147.15-43.64-303.9-43.64-451.04,0C36.22,554.21-2043.77,1170.93-2043.77,1170.93v-588.04c0-85.53,49.1-163.46,126.26-200.38C-1447.48,157.6,202.8-632.03,768.29-902.57Z"/></g></g></g><g class="cls-7"><g><g id="Full-logo-58"><path id="Top-58" class="cls-3" d="m3812.79-669.03C-529.19-38.53-5270.68,715.57-9084.82,1382.25c-17777.72,3107.5-69657.82,12176.13-84433.28,14758.9-2428.61,424.47-3720.97,710.69-3328.97,736.89l2695.14,180.1S-27027.8,5744.05-4492.55,1945.61C256.09,1145.19,5527.54,306.81,10676.16-466.88c24433.3-3671.6,97210.53-14607.92,97210.53-14607.92l-2695.14-180.1c-392-26.2-2400.34,212.54-5164.6,613.96C83188.71-12195.76,24070.45-3610.81,3812.79-669.03Z"/></g><g id="Full-logo-59"><path id="Top-59" class="cls-3" d="m3501.97-644.92C-15.24-151.54-3857.92,454.82-6950.72,1004.47c-14415.6,2562.04-56484.14,10038.85-68465.26,12168.27-1969.31,349.95-3018.96,598.35-2703.76,639.44l2167.11,282.53S-21534.82,4852.86-3265.4,1750.12C584.35,1096.31,4856.52,422.18,9027.89-189.71c19795.61-2903.77,78758.97-11553.02,78758.97-11553.02l-2167.11-282.53c-315.2-41.09-1940.56,132.62-4179.74,446.75C67800.23-9665.05,19911.64-2946.99,3501.97-644.92Z"/></g><g id="Full-logo-60"><path id="Top-60" class="cls-3" d="m3250.78-631.27C402.16-249.48-2711.95,237-5220.1,692.03c-11690.51,2121.01-45806.52,8310.79-55522.76,10073.67-1597.03,289.7-2450,507.86-2197.12,561.54l1738.65,369.06S-17082.61,4132.31-2270.86,1592.87C850.29,1057.75,4312.46,516.9,7691.64,36.56c16036.2-2279.53,63801.76-9069.41,63801.76-9069.41l-1738.65-369.06c-252.88-53.68-1567.75,66.82-3381.28,309.9C55326.5-7611.32,16541.11-2412.69,3250.78-631.27Z"/></g><g id="Full-logo-61"><path id="Top-61" class="cls-3" d="m3047.95-626.23C741.33-335.36-1782.21,53.81-3816.49,432.38c-9481.78,1764.66-37152.14,6914.54-45032.66,8381.25-1295.3,241.02-1988.9,435.1-1786.6,499.5l1390.9,442.79S-13474.03,3550.1-1464.87,1466.63C1065.71,1027.6,3871.31,594.92,6608.31,221.6c12988.7-1771.64,51676.95-7048.7,51676.95-7048.7l-1390.9-442.79c-202.3-64.4-1265.42,12.44-2733.9,197.64C45215.37-5944.16,13809.57-1983.46,3047.95-626.23Z"/></g><g id="Full-logo-62"><path id="Top-62" class="cls-3" d="m2884.33-628.35C1017.1-411.65-1027.72-101.48-2677.93,215.37c-7691.61,1476.99-30137.76,5787.36-36530.43,7014.98-1050.74,201.72-1615.22,376.73-1453.98,450.36l1108.55,506.25S-10549.27,3080.09-811.72,1365.56C1240.18,1004.28,3513.56,659.44,5729.98,373.28,16248.22-984.72,47577.93-5029.72,47577.93-5029.72l-1108.55-506.25c-161.24-73.63-1020.23-32.72-2208.98,105.26C37019.27-4590.27,11595.97-1639.5,2884.33-628.35Z"/></g><g id="Full-logo-63"><path id="Top-63" class="cls-3" d="m2752.52-636.41C1241.51-480.33-415.27-234.33-1754.18,32.75c-6240.7,1245.01-24452.72,4878.39-29639.51,5913.21-852.54,170.03-1312.41,330.03-1184.53,411.69l879.2,561.48S-8178.8,2701.07-282.47,1284.94c1663.92-298.41,3505.88-571.91,5300.28-786.99,8515.5-1020.71,33879.86-4061.07,33879.86-4061.07l-879.2-561.48c-127.88-81.67-821.34-70.41-1783.31,28.97C30375.44-3490.24,9802.22-1364.77,2752.52-636.41Z"/></g><g id="Full-logo-64"><path id="Top-64" class="cls-3" d="m2646.52-649.46C1424.31-543.01,82.09-349.17-1004.54-122.17-6069.34,936.03-20849.77,4024.26-25059.24,4903.81c-691.9,144.51-1067.04,292.81-966.27,381.55l692.79,610.12S-6257.63,2395.85,146.36,1220.91c1349.45-247.59,2841.7-463.1,4293.96-620.14C11332.21-144.49,31860.44-2364.38,31860.44-2364.38l-692.79-610.12c-100.77-88.74-659.99-102.1-1438.09-34.31C24989.81-2595.92,8348.79-1146.25,2646.52-649.46Z"/></g><g id="Full-logo-65"><path id="Top-65" class="cls-3" d="m2561.45-666.72C1573.4-601.02,486.17-449.6-396-254.81c-4111.81,908.03-16111.17,3558.06-19528.59,4312.81-561.71,123.99-868.23,263.29-789.51,358.34l541.19,653.53S-4700.65,2150.5,493.78,1170.37c1094.57-206.54,2303.33-374.89,3478.22-484.43C9547.56,166.06,26154.98-1382.52,26154.98-1382.52l-541.19-653.53c-78.72-95.05-529.05-128.94-1158.08-87.09C20624.04-1868.27,7171.24-973.4,2561.45-666.72Z"/></g><g id="Full-logo-66"><path id="Top-66" class="cls-3" d="m2493.37-687.56c-798.18,32.14-1678.7,149.03-2395.18,317.98C-3241.32,418.03-12986.91,2716.62-15762.46,3371.29c-456.2,107.54-707.17,240.03-646.4,340.8l417.79,692.81S-3438.88,1953.74,775.21,1130.8c888-173.41,1866.94-303.38,2816.94-373.97C8100.46,421.8,21528.97-576.18,21528.97-576.18l-417.79-692.81c-60.77-100.77-422.77-151.88-930.92-131.4-3095.34,124.74-13962.96,562.71-17686.89,712.83Z"/></g><g id="Full-logo-67"><path id="Top-67" class="cls-3" d="m2439.09-711.48c-644.2,4.39-1357.16,93.15-1939.37,241.44C-2213.96,221.28-10133.21,2238.88-12388.62,2813.52c-370.71,94.39-576.71,221.86-530.57,327.87l317.22,728.83S-2416.41,1796.41,1003.14,1100.15c720.57-146.72,1513.22-245.4,2280.87-283.95C6926.96,633.23,17777.89,88.15,17777.89,88.15l-317.22-728.83c-46.14-106.01-336.46-171.69-746.58-168.87-2498.24,17.15-11269.43,77.39-14275,98.07Z"/></g><g id="Full-logo-68"><path id="Top-68" class="cls-3" d="m2396.02-738.08c-519.33-18.65-1096.44,47.14-1569.85,178.98C-1380.41,55.53-7819.8,1849.34-9653.74,2360.25c-301.43,83.91-471.05,207.83-436.84,318.71l235.15,762.33S-1587.91,1671.1,1187.71,1076.78c584.88-125.24,1226.5-198.39,1846.28-210.49,2941.22-57.45,11701.99-228.64,11701.99-228.64l-235.15-762.33c-34.2-110.88-266.34-189-596.96-200.85-2013.96-72.21-9084.89-325.73-11507.84-412.55Z"/></g><g id="Full-logo-69"><path id="Top-69" class="cls-3" d="m2362.05-767.04c-418.03-37.9-885.02,9.12-1270.27,127.92C-703.94-85.25-5944.32,1531.23-7436.78,1991.63c-245.3,75.61-385.49,197.18-361.05,312.65l168.07,793.89S-916.64,1571.8,1337.12,1059.34c474.92-107.99,994.1-160.27,1493.95-150.44,2372.13,46.63,9437.77,185.46,9437.77,185.46l-168.07-793.89c-24.45-115.47-209.34-204.31-475.48-228.41-1621.14-146.86-7312.89-662.46-9263.25-839.09Z"/></g><g id="Full-logo-70"><path id="Top-70" class="cls-3" d="m2335.49-798.09c-335.85-54.09-713.54-22.44-1027.39,86.09C-154.76-205.96-4423.8,1270.96-5639.62,1691.61c-199.83,69.07-316.24,189.29-299.79,309.13l113.11,823.99S-372.83,1493.65,1458.03,1046.75c385.8-94.18,805.71-129.36,1208.3-101.25,1910.53,133.39,7601.25,530.63,7601.25,530.63l-113.11-823.99c-16.45-119.85-162.97-218.03-376.79-252.44-1302.44-209.64-5875.26-945.64-7442.2-1197.8Z"/></g><g id="Full-logo-71"><path id="Top-71" class="cls-3" d="m2314.95-831.05c-269.16-67.81-574.46-48.79-830.46,51.74C291.24-310.57-3190.99,1057.5-4182.74,1447.16c-163,63.97-260.21,183.64-250.32,307.71l67.97,853.02S67.65,1432.7,1555.84,1038.12c313.59-83.15,653.01-104.29,976.69-60.85,1536.06,206.17,6111.37,820.2,6111.37,820.2l-67.97-853.02c-9.89-124.07-125.21-230.5-296.57-273.64C7235.54,407.96,3570.75-514.88,2314.95-831.05Z"/></g><g id="Full-logo-72"><path id="Top-72" class="cls-3" d="m2299.33-865.74c-215.02-79.55-461.62-70.94-670.77,23.42C653.65-402.3-2191.4,881.94-3001.67,1247.72c-133.17,60.05-214.88,179.85-210.41,308.03l30.78,881.32S424.38,1385.74,1634.91,1032.76c255.08-74.38,529.24-83.96,788.89-27.55,1232.2,267.68,4902.44,1064.93,4902.44,1064.93l-30.78-881.32c-4.48-128.19-94.43-241.99-231.32-292.61-833.88-308.37-3761.58-1391.02-4764.8-1761.95Z"/></g><g id="Full-logo-73"><path id="Top-73" class="cls-3" d="m2287.72-902.04c-171.06-89.7-370.05-89.7-541.28,0C948.32-483.77-1380.82,737.02-2044.16,1084.73c-109.02,57.08-178.25,177.56-178.25,309.79v909.13S713.22,1350.2,1698.79,1030.07c207.68-67.46,428.91-67.46,636.59,0,985.57,320.13,3921.2,1273.58,3921.2,1273.58v-909.13c0-132.23-69.29-252.72-178.2-309.79-663.39-347.71-2992.54-1568.5-3790.65-1986.77Z"/></g></g></g><g class="cls-6"><g><g id="Full-logo-74"><path id="Top-74" class="cls-2" d="m-5810.26,1082.24c3053.77-42.85,6606.07-42.85,9662.82,0,14247.96,199.81,55827.67,783.01,67669.64,949.12,1946.27,27.27,3182.11,84.83,3182.11,147.99v434.31S22297.62,2158.18,4703.32,2005.25c-3707.49-32.23-7656.83-32.23-11364.32,0-17594.3,152.93-70000.99,608.41-70000.99,608.41v-434.31c0-63.17,1237.03-120.73,3181.23-147.99,11842.85-166.11,53422.55-749.3,67670.51-949.12Z"/></g><g id="Full-logo-75"><path id="Top-75" class="cls-2" d="m-4875.37,1033.11c2462.72-43.73,5327.47-43.73,7792.6,0,11490.29,203.89,45022.31,798.99,54572.29,968.49,1569.57,27.82,2566.22,86.56,2566.22,151.02v443.17S17792.27,2131,3603.32,1974.95c-2989.91-32.89-6174.86-32.89-9164.78,0-14188.95,156.05-56452.42,620.83-56452.42,620.83v-443.17c0-64.46,997.6-123.19,2565.51-151.02,9550.68-169.5,43082.7-764.6,54572.99-968.49Z"/></g><g id="Full-logo-76"><path id="Top-76" class="cls-2" d="m-4121.43,982.97c1986.06-44.62,4296.35-44.62,6284.35,0,9266.36,208.05,36308.31,815.3,44009.91,988.25,1265.78,28.39,2069.53,88.32,2069.53,154.1v452.22S14158.93,2103.27,2716.23,1944.04c-2411.22-33.56-4979.73-33.56-7390.95,0-11442.7,159.24-45526.14,633.5-45526.14,633.5v-452.22c0-65.77,804.52-125.71,2068.96-154.1,7702.16-172.96,34744.12-780.2,44010.48-988.25Z"/></g><g id="Full-logo-77"><path id="Top-77" class="cls-2" d="m-3513.41,931.81c1601.66-45.53,3464.8-45.53,5068.03,0,7472.87,212.3,29280.9,831.93,35491.86,1008.42,1020.79,28.97,1668.98,90.13,1668.98,157.24v461.44S11228.81,2074.98,2000.83,1912.49c-1944.53-34.24-4015.91-34.24-5960.44,0-9227.99,162.49-36714.63,646.43-36714.63,646.43v-461.44c0-67.12,648.8-128.27,1668.52-157.24,6211.42-176.49,28019.45-796.12,35492.32-1008.42Z"/></g><g id="Full-logo-78"><path id="Top-78" class="cls-2" d="m-3023.07,879.6c1291.66-46.46,2794.19-46.46,4087.12,0,6026.51,216.63,23613.63,848.91,28622.47,1029,823.22,29.56,1345.95,91.97,1345.95,160.45v470.86S8865.82,2046.1,1423.89,1880.3c-1568.17-34.94-3238.64-34.94-4806.81,0-7441.92,165.8-29608.57,659.62-29608.57,659.62v-470.86c0-68.49,523.23-130.89,1345.58-160.45,5009.21-180.09,22596.33-812.37,28622.84-1029Z"/></g><g id="Full-logo-79"><path id="Top-79" class="cls-2" d="m-2627.64,826.34c1041.66-47.41,2253.38-47.41,3296.06,0,4860.09,221.05,19043.25,866.24,23082.64,1050,663.89,30.16,1085.44,93.84,1085.44,163.73v480.47S6960.17,2016.64,958.62,1847.45c-1264.65-35.65-2611.8-35.65-3876.46,0-6001.55,169.19-23877.88,673.08-23877.88,673.08v-480.47c0-69.88,421.96-133.56,1085.14-163.73,4039.69-183.76,18222.85-828.95,23082.94-1050Z"/></g><g id="Full-logo-80"><path id="Top-80" class="cls-2" d="m-2308.74,771.98c840.05-48.37,1817.24-48.37,2658.12,0,3919.43,225.56,15357.46,883.92,18615.03,1071.43,535.39,30.78,875.36,95.76,875.36,167.07v490.28S5423.37,1986.57,583.41,1813.93c-1019.88-36.38-2106.29-36.38-3126.18,0-4839.96,172.64-19256.36,686.82-19256.36,686.82v-490.28c0-71.31,340.29-136.29,875.12-167.07,3257.81-187.52,14695.84-845.87,18615.27-1071.43Z"/></g><g id="Full-logo-81"><path id="Top-81" class="cls-2" d="m-2051.56,716.51c677.46-49.36,1465.52-49.36,2143.64,0,3160.83,230.17,12385.05,901.96,15012.12,1093.3,431.77,31.41,705.93,97.71,705.93,170.48v500.28S4184.01,1955.89,280.81,1779.73c-822.49-37.12-1698.62-37.12-2521.11,0-3903.19,176.16-15529.32,700.84-15529.32,700.84v-500.28c0-72.76,274.43-139.07,705.74-170.48,2627.27-191.34,11851.49-863.13,15012.31-1093.3Z"/></g><g id="Full-logo-82"><path id="Top-82" class="cls-2" d="m-1844.17,659.91c546.34-50.37,1181.87-50.37,1728.74,0,2549.05,234.87,9987.94,920.36,12106.55,1115.61,348.2,32.05,569.3,99.71,569.3,173.96v510.49S3184.52,1924.59,36.78,1744.83c-663.3-37.88-1369.86-37.88-2033.15,0-3147.74,179.76-12523.64,715.14-12523.64,715.14v-510.49c0-74.25,221.31-141.91,569.14-173.96,2118.76-195.25,9557.65-880.74,12106.71-1115.61Z"/></g><g id="Full-logo-83"><path id="Top-83" class="cls-2" d="m-1676.91,602.16c440.6-51.4,953.12-51.4,1394.15,0,2055.69,239.66,8054.79,939.15,9763.35,1138.38,280.81,32.7,459.11,101.74,459.11,177.51v520.91S2378.48,1892.65-160.01,1709.22c-534.92-38.65-1104.72-38.65-1639.64,0-2538.5,183.43-10099.71,729.73-10099.71,729.73v-520.91c0-75.77,178.48-144.8,458.99-177.51,1708.68-199.23,7707.78-898.72,9763.47-1138.38Z"/></g><g id="Full-logo-84"><path id="Top-84" class="cls-2" d="m-1542.02,543.23c355.32-52.44,768.65-52.44,1124.31,0,1657.81,244.55,6495.8,958.31,7873.67,1161.61,226.46,33.37,370.25,103.82,370.25,181.13v531.54S1728.46,1860.05-318.72,1672.88c-431.38-39.44-890.91-39.44-1322.29,0-2047.18,187.17-8144.93,744.63-8144.93,744.63v-531.54c0-77.31,143.93-147.76,370.15-181.13,1377.97-203.3,6215.95-917.06,7873.77-1161.61Z"/></g><g id="Full-logo-85"><path id="Top-85" class="cls-2" d="m-1433.24,483.1c286.55-53.51,619.88-53.51,906.7,0,1336.95,249.54,5238.55,977.87,6349.73,1185.32,182.63,34.05,298.59,105.94,298.59,184.82v542.39S1204.24,1826.79-446.71,1635.8c-347.89-40.25-718.47-40.25-1066.36,0-1650.95,190.99-6568.49,759.82-6568.49,759.82v-542.39c0-78.89,116.08-150.77,298.51-184.82,1111.26-207.45,5012.87-935.78,6349.81-1185.32Z"/></g><g id="Full-logo-86"><path id="Top-86" class="cls-2" d="m-1345.52,421.73c231.09-54.61,499.9-54.61,731.21,0,1078.18,254.63,4224.64,997.83,5120.75,1209.51,147.28,34.75,240.8,108.1,240.8,188.6v553.46S781.48,1792.85-549.93,1597.97c-280.56-41.07-579.41-41.07-859.97,0-1331.41,194.89-5297.17,775.33-5297.17,775.33v-553.46c0-80.5,93.61-153.85,240.73-188.6,896.18-211.68,4042.63-954.87,5120.82-1209.51Z"/></g><g id="Full-logo-87"><path id="Top-87" class="cls-2" d="m-1274.77,359.12c186.36-55.72,403.14-55.72,589.69,0C184.42,618.95,2721.88,1377.31,3444.55,1593.31c118.77,35.46,194.19,110.3,194.19,192.45v564.75S440.55,1758.22-633.17,1559.36c-226.26-41.91-467.27-41.91-693.52,0-1073.72,198.86-4271.91,791.15-4271.91,791.15v-564.75c0-82.14,75.49-156.99,194.14-192.45,722.73-216,3260.19-974.36,4129.69-1234.19Z"/></g><g id="Full-logo-88"><path id="Top-88" class="cls-2" d="m-1217.72,295.23c150.29-56.86,325.12-56.86,475.55,0C-40.95,560.36,2005.39,1334.2,2588.19,1554.61c95.79,36.18,156.61,112.55,156.61,196.37v576.28S165.61,1722.88-700.3,1519.96c-182.46-42.76-376.83-42.76-559.29,0-865.9,202.92-3445.09,807.3-3445.09,807.3v-576.28c0-83.82,60.88-160.19,156.56-196.37,582.84-220.41,2629.18-994.24,3330.4-1259.38Z"/></g><g id="Full-logo-89"><path id="Top-89" class="cls-2" d="m-1171.71,230.03c121.2-58.02,262.19-58.02,383.51,0C-222.71,500.58,1427.57,1290.21,1897.57,1515.11c77.25,36.92,126.3,114.85,126.3,200.38v588.04S-56.12,1686.82-754.43,1479.76c-147.15-43.64-303.9-43.64-451.04,0-698.31,207.06-2778.3,823.77-2778.3,823.77v-588.04c0-85.53,49.1-163.46,126.26-200.38,470.04-224.91,2120.31-1014.54,2685.8-1285.08Z"/></g></g></g></svg>