<?xml version="1.0" encoding="UTF-8"?><svg id="Livello_1" xmlns="http://www.w3.org/2000/svg" xmlns:xlink="http://www.w3.org/1999/xlink" viewBox="0 0 1920 1080"><defs><style>.cls-1,.cls-2,.cls-3,.cls-4{fill:none;}.cls-5{clip-path:url(#clippath);}.cls-2{stroke:#ffa600;}.cls-2,.cls-3,.cls-4{fill-rule:evenodd;stroke-miterlimit:10;stroke-width:4px;}.cls-3{stroke:#fff;}.cls-4{stroke:#000;}.cls-6{clip-path:url(#clippath-1);}.cls-7{clip-path:url(#clippath-4);}.cls-8{clip-path:url(#clippath-3);}.cls-9{clip-path:url(#clippath-2);}</style><clipPath id="clippath"><rect class="cls-1" x="-1974.08" y="1133.61" width="1920" height="1080"/></clipPath><clipPath id="clippath-1"><rect class="cls-1" width="1920" height="1080"/></clipPath><clipPath id="clippath-2"><rect class="cls-1" y="1133.61" width="1920" height="1080"/></clipPath><clipPath id="clippath-3"><rect class="cls-1" x="-3953.63" width="1920" height="1080"/></clipPath><clipPath id="clippath-4"><rect class="cls-1" x="-1974.08" width="1920" height="1080"/></clipPath></defs><g class="cls-5"><g><g id="Full-logo"><path id="Top" class="cls-2" d="m990.68,1588.03c-4341.98,630.5-9083.47,1384.6-12897.61,2051.28-17777.72,3107.5-69657.82,12176.13-84433.28,14758.9-2428.61,424.47-3720.97,710.69-3328.97,736.89l2695.14,180.1S-29849.91,8001.11-7314.66,4202.67C-2566.02,3402.25,2705.43,2563.86,7854.05,1790.18,32287.35-1881.42,105064.58-12817.74,105064.58-12817.74l-2695.14-180.1c-392-26.2-2400.34,212.54-5164.6,613.96C80366.61-9938.7,21248.34-1353.75,990.68,1588.03Z"/></g><g id="Full-logo-2"><path id="Top-2" class="cls-2" d="m679.86,1612.14c-3517.21,493.39-7359.88,1099.75-10452.69,1649.39-14415.6,2562.04-56484.14,10038.85-68465.26,12168.27-1969.31,349.95-3018.96,598.35-2703.76,639.44l2167.11,282.53S-24356.93,7109.92-6087.5,4007.18c3849.75-653.81,8121.92-1327.95,12293.28-1939.83C26001.38-836.42,84964.74-9485.67,84964.74-9485.67l-2167.11-282.53c-315.2-41.09-1940.56,132.62-4179.74,446.75C64978.12-7407.99,17089.53-689.93,679.86,1612.14Z"/></g><g id="Full-logo-3"><path id="Top-3" class="cls-2" d="m428.67,1625.79c-2848.62,381.79-5962.73,868.27-8470.88,1323.29-11690.51,2121.01-45806.52,8310.79-55522.76,10073.67-1597.03,289.7-2450,507.86-2197.12,561.54l1738.65,369.06S-19904.72,6389.37-5092.96,3849.93c3121.14-535.12,6583.32-1075.96,9962.49-1556.31C20905.73,14.09,68671.29-6775.8,68671.29-6775.8l-1738.65-369.06c-252.88-53.68-1567.75,66.82-3381.28,309.9C52504.39-5354.26,13719-155.63,428.67,1625.79Z"/></g><g id="Full-logo-4"><path id="Top-4" class="cls-2" d="m225.84,1630.83c-2306.62,290.87-4830.16,680.04-6864.44,1058.62-9481.78,1764.66-37152.14,6914.54-45032.66,8381.25-1295.3,241.02-1988.9,435.1-1786.6,499.5l1390.9,442.79S-16296.14,5807.16-4286.98,3723.69c2530.58-439.03,5336.18-871.71,8073.18-1245.03,12988.7-1771.64,51676.95-7048.7,51676.95-7048.7l-1390.9-442.79c-202.3-64.4-1265.42,12.44-2733.9,197.64C42393.26-3687.1,10987.46,273.6,225.84,1630.83Z"/></g><g id="Full-logo-5"><path id="Top-5" class="cls-2" d="m62.22,1628.71c-1867.23,216.69-3912.06,526.87-5562.26,843.72-7691.61,1476.99-30137.76,5787.36-36530.43,7014.98-1050.74,201.72-1615.22,376.73-1453.98,450.36l1108.55,506.25S-13371.38,5337.15-3633.83,3622.62c2051.9-361.29,4325.28-706.13,6541.7-992.29C13426.11,1272.34,44755.82-2772.66,44755.82-2772.66l-1108.55-506.25c-161.24-73.63-1020.23-32.72-2208.98,105.26C34197.16-2333.21,8773.86,617.56,62.22,1628.71Z"/></g><g id="Full-logo-6"><path id="Top-6" class="cls-2" d="m-69.58,1620.65c-1511.01,156.08-3167.79,402.08-4506.71,669.16-6240.7,1245.01-24452.72,4878.39-29639.51,5913.21-852.54,170.03-1312.41,330.03-1184.53,411.69l879.2,561.48S-11000.91,4958.13-3104.58,3542c1663.92-298.41,3505.88-571.91,5300.28-786.99C10711.21,1734.3,36075.56-1306.06,36075.56-1306.06l-879.2-561.48c-127.88-81.67-821.34-70.41-1783.31,28.97C27553.33-1233.18,6980.11,892.29-69.58,1620.65Z"/></g><g id="Full-logo-7"><path id="Top-7" class="cls-2" d="m-175.59,1607.6c-1222.21,106.44-2564.43,300.29-3651.06,527.29-5064.8,1058.2-19845.23,4146.43-24054.7,5025.98-691.9,144.51-1067.04,292.81-966.27,381.55l692.79,610.12S-9079.73,4652.91-2675.75,3477.97c1349.45-247.59,2841.7-463.1,4293.96-620.14C8510.1,2112.57,29038.33-107.32,29038.33-107.32l-692.79-610.12c-100.77-88.74-659.99-102.1-1438.09-34.31C22167.7-338.86,5526.68,1110.81-175.59,1607.6Z"/></g><g id="Full-logo-8"><path id="Top-8" class="cls-2" d="m-260.66,1590.34c-988.05,65.69-2075.28,217.12-2957.45,411.9-4111.81,908.03-16111.17,3558.06-19528.59,4312.81-561.71,123.99-868.23,263.29-789.51,358.34l541.19,653.53S-7522.76,4407.56-2328.33,3427.43c1094.57-206.54,2303.33-374.89,3478.22-484.43C6725.45,2423.12,23332.87,874.54,23332.87,874.54l-541.19-653.53c-78.72-95.05-529.05-128.94-1158.08-87.09C17801.93,388.79,4349.13,1283.66-260.66,1590.34Z"/></g><g id="Full-logo-9"><path id="Top-9" class="cls-2" d="m-328.74,1569.5c-798.18,32.14-1678.7,149.03-2395.18,317.98-3339.51,787.61-13085.1,3086.2-15860.65,3740.87-456.2,107.54-707.17,240.03-646.4,340.8l417.79,692.81S-6260.99,4210.8-2046.9,3387.86c888-173.41,1866.94-303.38,2816.94-373.97,4508.31-335.03,17936.82-1333.01,17936.82-1333.01l-417.79-692.81c-60.77-100.77-422.77-151.88-930.92-131.4C14262.81,981.41,3395.2,1419.38-328.74,1569.5Z"/></g></g></g><g class="cls-6"><g><g id="Full-logo-10"><path id="Bottom" class="cls-4" d="m3965.12,12.74c-1519.19,43.17-3284.66,43.17-4802.36,0-7081.15-201.13-27746.01-788.3-33631.83-955.51-966.26-27.49-1581.05-85.46-1581.05-149.06v-437.23S-10004.33-1070.51-1260.07-916.52c1842.6,32.42,3805.4,32.42,5648,0,8744.26-153.99,34790.07-612.54,34790.07-612.54v437.23c0,63.61-614.21,121.57-1581.49,149.06C31711.13-775.56,11046.26-188.39,3965.12,12.74Z"/></g><g id="Full-logo-11"><path id="Bottom-2" class="cls-4" d="m3500.26,62.21c-1225.15,44.05-2648.92,44.05-3872.87,0-5710.6-205.23-22375.81-804.39-27122.45-975.01-779.24-28.05-1275.04-87.2-1275.04-152.1v-446.15S-7765.42-1043.15-713.6-886.01c1485.97,33.08,3068.87,33.08,4554.84,0,7051.82-157.14,28056.51-625.05,28056.51-625.05v446.15c0,64.9-495.33,124.06-1275.39,152.1C25876.07-742.18,9210.86-143.03,3500.26,62.21Z"/></g><g id="Full-logo-12"><path id="Bottom-3" class="cls-4" d="m3125.38,112.68c-988.03,44.95-2136.22,44.95-3123.29,0C-4603.24-96.74-18042.92-708.12-21870.85-882.22c-628.42-28.62-1028.26-88.98-1028.26-155.21v-455.26S-5959.85-1015.23-272.9-854.89c1198.36,33.76,2474.9,33.76,3673.26,0,5686.95-160.34,22626.22-637.8,22626.22-637.8v455.26c0,66.23-399.46,126.59-1028.54,155.21C21170.39-708.12,7730.7-96.74,3125.38,112.68Z"/></g><g id="Full-logo-13"><path id="Bottom-4" class="cls-4" d="m2823.05,164.19c-796.8,45.87-1722.76,45.87-2518.78,0C-3409.7-49.5-14248.16-673.36-17335.2-851.02c-506.79-29.21-829.24-90.79-829.24-158.38v-464.55S-4503.74-986.74,82.51-823.13c966.42,34.45,1995.88,34.45,2962.3,0,4586.25-163.62,18246.95-650.82,18246.95-650.82v464.55c0,67.58-322.14,129.17-829.47,158.38C17375.48-673.36,6537.02-49.5,2823.05,164.19Z"/></g><g id="Full-logo-14"><path id="Bottom-5" class="cls-4" d="m2579.24,216.75c-642.58,46.8-1389.32,46.8-2031.27,0C-2447.17-1.31-11187.86-637.9-13677.41-819.18c-408.7-29.8-668.74-92.65-668.74-161.61v-474.03S-3329.47-957.67,369.13-790.72c779.37,35.15,1609.58,35.15,2388.95,0,3698.59-166.96,14715.28-664.1,14715.28-664.1v474.03c0,68.96-259.79,131.81-668.93,161.61C14315.07-637.9,5574.38-1.31,2579.24,216.75Z"/></g><g id="Full-logo-15"><path id="Bottom-6" class="cls-4" d="m2382.62,270.38c-518.21,47.76-1120.42,47.76-1638.12,0C-1670.94,47.87-8719.88-601.71-10727.58-786.69c-329.6-30.41-539.31-94.54-539.31-164.91v-483.7S-2382.47-928.01,600.27-757.65c628.53,35.87,1298.05,35.87,1926.58,0,2982.73-170.36,11867.16-677.65,11867.16-677.65v483.7c0,70.37-209.51,134.5-539.46,164.91C11847-601.71,4798.05,47.87,2382.62,270.38Z"/></g><g id="Full-logo-16"><path id="Bottom-7" class="cls-4" d="m2224.05,325.11c-417.91,48.73-903.57,48.73-1321.07,0C-1044.95,98.06-6729.58-564.78-8348.69-753.54c-265.81-31.03-434.93-96.47-434.93-168.27v-493.57S-1618.76-897.74,786.67-723.9c506.88,36.6,1046.82,36.6,1553.69,0,2405.43-173.84,9570.29-691.48,9570.29-691.48v493.57c0,71.8-168.96,137.24-435.05,168.27C9856.62-564.78,4171.98,98.06,2224.05,325.11Z"/></g><g id="Full-logo-17"><path id="Bottom-8" class="cls-4" d="m2096.18,380.95c-337.02,49.73-728.68,49.73-1065.38,0C-540.11,149.27-5124.49-527.1-6430.23-719.71c-214.36-31.66-350.75-98.44-350.75-171.71v-503.65S-1002.86-866.86,937-689.47c408.77,37.34,844.21,37.34,1252.98,0,1939.86-177.39,7717.98-705.59,7717.98-705.59v503.65c0,73.27-136.26,140.04-350.84,171.71C8251.47-527.1,3667.09,149.27,2096.18,380.95Z"/></g><g id="Full-logo-18"><path id="Bottom-9" class="cls-4" d="m1993.05,437.93c-271.79,50.74-587.65,50.74-859.17,0C-132.99,201.52-3830.07-488.65-4883.08-685.19c-172.87-32.31-282.86-100.45-282.86-175.21v-513.93S-506.18-835.34,1058.23-654.33c329.65,38.11,680.81,38.11,1010.46,0,1564.41-181.01,6224.18-719.99,6224.18-719.99v513.93c0,74.76-109.89,142.9-282.94,175.21C6957-488.65,3259.91,201.52,1993.05,437.93Z"/></g><g id="Full-logo-19"><path id="Bottom-10" class="cls-4" d="m1909.88,496.07c-219.19,51.78-473.91,51.78-692.88,0C195.34,254.84-2786.18-449.42-3635.39-649.97c-139.41-32.97-228.11-102.5-228.11-178.79v-524.41S-105.62-803.18,1156-618.48c265.85,38.88,549.04,38.88,814.89,0,1261.62-184.7,5019.5-734.69,5019.5-734.69v524.41c0,76.29-88.62,145.82-228.18,178.79C5913.07-449.42,2931.55,254.84,1909.88,496.07Z"/></g><g id="Full-logo-20"><path id="Bottom-11" class="cls-4" d="m1842.81,555.4c-176.76,52.83-382.18,52.83-558.78,0C460.11,309.25-1944.33-409.38-2629.18-614.02c-112.43-33.64-183.96-104.59-183.96-182.43v-535.12S217.41-770.36,1234.84-581.89c214.39,39.68,442.78,39.68,657.17,0,1017.43-188.47,4047.98-749.68,4047.98-749.68v535.12c0,77.85-71.47,148.79-184.01,182.43-684.79,204.64-3089.24,923.27-3913.16,1169.43Z"/></g><g id="Full-logo-21"><path id="Bottom-12" class="cls-4" d="m1788.73,615.95c-142.55,53.91-308.21,53.91-450.63,0C673.65,364.77-1265.43-368.53-1817.72-577.35c-90.67-34.33-148.36-106.72-148.36-186.16v-546.04S477.91-736.88,1298.43-544.56c172.9,40.49,357.08,40.49,529.98,0,820.51-192.32,3264.5-764.98,3264.5-764.98v546.04c0,79.44-57.63,151.83-148.4,186.16-552.25,208.82-2491.32,942.11-3155.78,1193.29Z"/></g><g id="Full-logo-22"><path id="Bottom-13" class="cls-4" d="m1745.11,677.72c-114.96,55.01-248.56,55.01-363.41,0C845.85,421.42-717.92-326.84-1163.32-539.92c-73.12-35.03-119.64-108.9-119.64-189.96v-557.18S688-702.71,1349.7-506.47c139.43,41.31,287.97,41.31,427.4,0,661.7-196.24,2632.66-780.59,2632.66-780.59v557.18c0,81.06-46.48,154.93-119.68,189.96-445.36,213.08-2009.13,961.34-2544.98,1217.65Z"/></g></g></g><g class="cls-9"><g><g id="Full-logo-23"><path id="Top-10" class="cls-2" d="m3879.6-232.29C863.41,229.47-2407.21,795.57-5017.01,1307.59c-12164.25,2386.66-47662.71,9351.66-57772.67,11335.31-1661.77,326-2524.82,556.39-2223.26,593.08l2073.38,252.32S-16862.93,4872.09-1393.87,1979.4C1865.78,1369.84,5501.96,740.47,9069.32,168.37c16929.24-2715,67354.81-10801.97,67354.81-10801.97l-2073.38-252.32c-301.57-36.7-1715.3,127-3635.5,420.99C59018.48-8674.15,17951.68-2386.78,3879.6-232.29Z"/></g><g id="Full-logo-24"><path id="Top-11" class="cls-2" d="m3763.17-237.56C1258.66,129.66-1459.01,595.24-3629.33,1028.88c-10115.81,2021.31-39636.4,7920.16-48043.86,9600.17-1381.93,276.09-2101.41,482.4-1853.39,531.06l1705.22,334.56S-13516.2,4275.19-656.2,1851.4C2053.67,1340.66,5075.09,823.04,8038.03,361.95c14060.89-2188.17,55942.78-8705.92,55942.78-8705.92l-1705.22-334.56c-248.02-48.66-1420.4,69.13-3014.86,302.94C49548.22-6951.38,15448.04-1951.03,3763.17-237.56Z"/></g><g id="Full-logo-25"><path id="Top-12" class="cls-2" d="m3667.16-247.19C1587.98,41.06-670.08,422.96-2475.15,791.66c-8413.38,1718.6-32965.84,6734.07-39958.38,8162.49-1149.36,234.73-1749.56,421.41-1546.11,480.47l1398.76,406.05S-10734.77,3780.61-43.24,1746.07c2252.93-428.72,4763.38-853.31,7223.9-1221.77,11676.61-1748.58,46456.64-6956.95,46456.64-6956.95l-1398.76-406.05c-203.45-59.06-1175.16,20.12-2498.84,203.65C41676.64-5517.14,13367.62-1592.17,3667.16-247.19Z"/></g><g id="Full-logo-26"><path id="Top-13" class="cls-2" d="m3588.14-260.56C1862.55-38.38-13.5,273.85-1515.02,588.77c-6998.54,1467.97-27422.13,5752.04-33238.76,6972.16-956.07,200.49-1457.19,371.24-1290.86,439.4l1143.59,468.68S-8423.2,3371.11,466.07,1659.6c1873.15-360.65,3958.89-707.79,6001.76-998.89C16162.48-720.73,45039.02-4835.57,45039.02-4835.57l-1143.59-468.68c-166.33-68.17-971.2-21.55-2069.77,119.91C35133.8-4322.65,11638.96-1297.28,3588.14-260.56Z"/></g><g id="Full-logo-27"><path id="Top-14" class="cls-2" d="m3523.26-277.17C2091.61-110.35,533.09,143.84-716.15,414.28c-5822.74,1260.65-22815.01,4939.71-27654.41,5987.52-795.45,172.17-1214.26,330.06-1078.85,406.27l931.02,524.02S-6502.17,3032.38,889.23,1588.84c1557.52-304.19,3290.23-586.8,4985.92-813.21C13922.22-298.88,37891.28-3499.46,37891.28-3499.46l-931.02-524.02c-135.41-76.22-801.53-57.15-1712.97,49.08C29695.33-3327.37,10202.68-1055.65,3523.26-277.17Z"/></g><g id="Full-logo-28"><path id="Top-15" class="cls-2" d="m3470.16-296.63C2282.88-176.26,988.3,29.56-51.3,263.25c-4845.61,1089.36-18986.37,4268.52-23013.66,5173.97-661.96,148.77-1012.43,296.37-902.78,379.77l753.85,573.4S-4905.73,2752.5,1240.77,1531.15c1295.2-257.37,2734.47-486.2,4141.54-658.47C12059.73,55.15,31949.11-2380.03,31949.11-2380.03l-753.85-573.4c-109.65-83.4-660.37-87.72-1416.23-11.07C25174.76-2497.6,9009.42-858.37,3470.16-296.63Z"/></g><g id="Full-logo-29"><path id="Top-16" class="cls-2" d="m3426.85-318.58C2442.76-237.29,1367.58-71.8,502.18,131.56c-4033.61,948.02-15804.77,3714.75-19157.2,4502.73-551.03,129.46-844.76,268.92-756.6,358.79l606.1,617.89S-3579.1,2521.58,1532.79,1484.37c1077.18-218.57,2272.54-402.55,3439.67-529.41C10511.2,352.9,27008.93-1440.47,27008.93-1440.47l-606.1-617.89c-88.16-89.87-542.9-114.14-1169.41-62.36C21417.1-1805.34,8018.17-698.05,3426.85-318.58Z"/></g><g id="Full-logo-30"><path id="Top-17" class="cls-2" d="m3391.72-342.76C2576.57-294.41,1683.76-162.6,963.12,15.8c-3358.88,831.62-13160.98,3258.67-15952.62,3949.91-458.85,113.56-705.48,246.68-635.26,342.44l482.78,658.42S-2476.71,2331.39,1775.33,1446.67c895.99-186.43,1888.6-332.98,2856.24-421.7,4592.04-421.03,18269.95-1675.16,18269.95-1675.16l-482.78-658.42c-70.22-95.77-445.11-137.13-964.07-106.32-3161.16,187.63-14259.84,846.39-18062.96,1072.16Z"/></g><g id="Full-logo-31"><path id="Top-18" class="cls-2" d="m3363.4-368.94c-674.66,20.49-1415.88,124.18-2016.22,282.04C-1451.05,649.08-9617.03,2796.99-11942.7,3408.74c-382.26,100.49-589.8,228.77-534.56,329.96l379.76,695.74S-1560.72,2175.1,1976.74,1416.56c745.42-159.84,1569.48-275.12,2371.25-331.71C8152.91,816.28,19486.25,16.27,19486.25,16.27l-379.76-695.74c-55.24-101.19-363.68-157.3-793.2-144.23-2616.35,79.58-11802.23,358.98-14949.89,454.76Z"/></g><g id="Full-logo-32"><path id="Top-19" class="cls-2" d="m3340.76-396.93c-557.82-3.16-1173.01,77-1673.42,218.05C-665.06,478.72-7471.64,2397.91-9410.16,2944.52c-318.62,89.78-493.74,214.48-451.04,320.73l293.59,730.49S-799.65,2047.03,2143.97,1392.78c620.28-137.87,1304.23-226.99,1968.09-256.45,3150.38-139.81,12534.15-556.3,12534.15-556.3l-293.59-730.49c-42.7-106.25-295.84-175.15-650.98-177.13-2163.25-12.14-9758.32-54.78-12360.87-69.34Z"/></g><g id="Full-logo-33"><path id="Top-20" class="cls-2" d="m3322.87-426.58c-460.64-23.33-971.06,37.13-1388.44,164.45C-10.96,331.48-5688.17,2063.93-7305.04,2557.35c-265.76,81.04-413.99,203.22-381.78,314.22l221.42,763.18S-167.36,1942.47,2282.77,1374.3c516.29-119.73,1083.77-186.94,1632.92-193.41,2606.07-30.7,10368.54-122.19,10368.54-122.19l-221.42-763.18c-32.21-111-239.3-191.1-532.56-205.92C11743.88-.75,5472.02-317.93,3322.87-426.58Z"/></g><g id="Full-logo-34"><path id="Top-21" class="cls-2" d="m3308.95-457.77c-379.79-40.61-803.11,3.31-1151.51,119.48C533.53,203.31-4205.48,1783.99-5555.16,2234.19c-221.84,73.93-347.79,194.48-324.39,310l160.87,794.28S357.89,1857.48,2397.94,1360.25c429.88-104.78,900.52-153.61,1354.28-140.52,2153.35,62.14,8567.34,247.15,8567.34,247.15l-160.87-794.28c-23.4-115.53-192.13-205.5-433.92-231.32-1472.83-157.35-6643.89-709.8-8415.82-899.06Z"/></g><g id="Full-logo-35"><path id="Top-22" class="cls-2" d="m3298.36-490.41c-312.51-55.5-663.42-25.48-954.53,81.67C986.95,90.84-2972.8,1548.91-4100.53,1964.2c-185.36,68.19-292.86,187.86-276.87,307.72l109.96,824.13S794.17,1788.82,2493.48,1349.92c358.08-92.49,748.21-125.87,1122.61-96.05,1776.75,141.5,7069.01,562.88,7069.01,562.88l-109.96-824.13c-15.99-119.87-152.77-218.64-351.72-253.94-1211.94-215.11-5467-970.35-6925.06-1229.09Z"/></g><g id="Full-logo-36"><path id="Top-23" class="cls-2" d="m3290.54-524.41c-256.52-68.43-547.21-50.12-790.74,49.8C1364.69-8.72-1947.89,1351.07-2891.31,1738.36c-155.06,63.59-247.31,183.01-237.55,307.09l67.05,853.06S1156.49,1733.78,2572.68,1342.72c298.42-82.41,621.61-102.76,929.98-58.57,1463.41,209.71,5822.36,834.27,5822.36,834.27l-67.05-853.06c-9.75-124.07-119.87-230.76-283.18-274.29C7980.01,725.84,4487.35-205.37,3290.54-524.41Z"/></g><g id="Full-logo-37"><path id="Top-24" class="cls-2" d="m3285.07-559.73c-209.89-79.73-450.52-71.33-654.54,22.86C1679.55-97.7-1095.67,1184.1-1886.05,1549.19c-129.9,59.93-209.54,179.66-205.06,307.85l30.78,881.32S1457.33,1690.1,2638.31,1338.15c248.86-74.17,516.38-83.51,769.8-26.88,1202.65,268.71,4784.87,1069.03,4784.87,1069.03l-30.78-881.32c-4.48-128.19-92.35-242.06-225.98-292.79-813.99-309.06-3671.86-1394.15-4651.15-1765.92Z"/></g><g id="Full-logo-38"><path id="Top-25" class="cls-2" d="m3281.57-596.32c-171.06-89.7-370.05-89.7-541.28,0C1942.18-178.05-386.96,1042.74-1050.31,1390.45c-109.02,57.08-178.25,177.56-178.25,309.79v909.13s2935.63-953.45,3921.2-1273.58c207.68-67.46,428.91-67.46,636.59,0,985.57,320.13,3921.2,1273.58,3921.2,1273.58v-909.13c0-132.23-69.29-252.72-178.2-309.79-663.39-347.71-2992.54-1568.5-3790.65-1986.77Z"/></g></g></g><g class="cls-8"><g><g id="Full-logo-39"><path id="Top-26" class="cls-2" d="m-7823.89,1083.24c3053.77-42.85,6606.07-42.85,9662.82,0,14247.96,199.81,55827.67,783.01,67669.64,949.12,1946.27,27.27,3182.11,84.83,3182.11,147.99v434.31S20283.99,2159.18,2689.69,2006.25c-3707.49-32.23-7656.83-32.23-11364.32,0-17594.3,152.93-70000.99,608.41-70000.99,608.41v-434.31c0-63.17,1237.03-120.73,3181.23-147.99,11842.85-166.11,53422.55-749.3,67670.51-949.12Z"/></g><g id="Full-logo-40"><path id="Top-27" class="cls-2" d="m-6889,1034.11c2462.72-43.73,5327.47-43.73,7792.6,0,11490.29,203.89,45022.31,798.99,54572.29,968.49,1569.57,27.82,2566.22,86.56,2566.22,151.02v443.17S15778.64,2132,1589.69,1975.95c-2989.91-32.89-6174.86-32.89-9164.78,0-14188.95,156.05-56452.42,620.83-56452.42,620.83v-443.17c0-64.46,997.6-123.19,2565.51-151.02,9550.68-169.5,43082.7-764.6,54572.99-968.49Z"/></g><g id="Full-logo-41"><path id="Top-28" class="cls-2" d="m-6135.06,983.97c1986.06-44.62,4296.35-44.62,6284.35,0,9266.36,208.05,36308.31,815.3,44009.91,988.25,1265.78,28.39,2069.53,88.32,2069.53,154.1v452.22S12145.3,2104.27,702.6,1945.04c-2411.22-33.56-4979.73-33.56-7390.95,0-11442.7,159.24-45526.14,633.5-45526.14,633.5v-452.22c0-65.77,804.52-125.71,2068.96-154.1,7702.16-172.96,34744.12-780.2,44010.48-988.25Z"/></g><g id="Full-logo-42"><path id="Top-29" class="cls-2" d="m-5527.04,932.81c1601.66-45.53,3464.8-45.53,5068.03,0,7472.87,212.3,29280.9,831.93,35491.86,1008.42,1020.79,28.97,1668.98,90.13,1668.98,157.24v461.44S9215.18,2075.98-12.8,1913.49c-1944.53-34.24-4015.91-34.24-5960.44,0-9227.99,162.49-36714.63,646.43-36714.63,646.43v-461.44c0-67.12,648.8-128.27,1668.52-157.24,6211.42-176.49,28019.45-796.12,35492.32-1008.42Z"/></g><g id="Full-logo-43"><path id="Top-30" class="cls-2" d="m-5036.7,880.6c1291.66-46.46,2794.19-46.46,4087.12,0,6026.51,216.63,23613.63,848.91,28622.47,1029,823.22,29.56,1345.95,91.97,1345.95,160.45v470.86S6852.19,2047.1-589.74,1881.3c-1568.17-34.94-3238.64-34.94-4806.81,0-7441.92,165.8-29608.57,659.62-29608.57,659.62v-470.86c0-68.49,523.23-130.89,1345.58-160.45,5009.21-180.09,22596.33-812.37,28622.84-1029Z"/></g><g id="Full-logo-44"><path id="Top-31" class="cls-2" d="m-4641.27,827.34c1041.66-47.41,2253.38-47.41,3296.06,0,4860.09,221.05,19043.25,866.24,23082.64,1050,663.89,30.16,1085.44,93.84,1085.44,163.73v480.47S4946.55,2017.64-1055.01,1848.45c-1264.65-35.65-2611.8-35.65-3876.46,0-6001.55,169.19-23877.88,673.08-23877.88,673.08v-480.47c0-69.88,421.96-133.56,1085.14-163.73,4039.69-183.76,18222.85-828.95,23082.94-1050Z"/></g><g id="Full-logo-45"><path id="Top-32" class="cls-2" d="m-4322.37,772.98c840.05-48.37,1817.24-48.37,2658.12,0,3919.43,225.56,15357.46,883.92,18615.03,1071.43,535.39,30.78,875.36,95.76,875.36,167.07v490.28S3409.74,1987.57-1430.22,1814.93c-1019.88-36.38-2106.29-36.38-3126.18,0-4839.96,172.64-19256.36,686.82-19256.36,686.82v-490.28c0-71.31,340.29-136.29,875.12-167.07,3257.81-187.52,14695.84-845.87,18615.27-1071.43Z"/></g><g id="Full-logo-46"><path id="Top-33" class="cls-2" d="m-4065.19,717.51c677.46-49.36,1465.52-49.36,2143.64,0,3160.83,230.17,12385.05,901.96,15012.12,1093.3,431.77,31.41,705.93,97.71,705.93,170.48v500.28S2170.38,1956.89-1732.82,1780.73c-822.49-37.12-1698.62-37.12-2521.11,0-3903.19,176.16-15529.32,700.84-15529.32,700.84v-500.28c0-72.76,274.43-139.07,705.74-170.48,2627.27-191.34,11851.49-863.13,15012.31-1093.3Z"/></g><g id="Full-logo-47"><path id="Top-34" class="cls-2" d="m-3857.79,660.91c546.34-50.37,1181.87-50.37,1728.74,0C420,895.78,7858.89,1581.28,9977.5,1776.52c348.2,32.05,569.3,99.71,569.3,173.96v510.49S1170.89,1925.59-1976.85,1745.83c-663.3-37.88-1369.86-37.88-2033.15,0-3147.74,179.76-12523.64,715.14-12523.64,715.14v-510.49c0-74.25,221.31-141.91,569.14-173.96,2118.76-195.25,9557.65-880.74,12106.71-1115.61Z"/></g><g id="Full-logo-48"><path id="Top-35" class="cls-2" d="m-3690.54,603.16c440.6-51.4,953.12-51.4,1394.15,0C-240.7,842.82,5758.4,1542.31,7466.96,1741.54c280.81,32.7,459.11,101.74,459.11,177.51v520.91S364.86,1893.65-2173.64,1710.22c-534.92-38.65-1104.72-38.65-1639.64,0-2538.5,183.43-10099.71,729.73-10099.71,729.73v-520.91c0-75.77,178.48-144.8,458.99-177.51,1708.68-199.23,7707.78-898.72,9763.47-1138.38Z"/></g><g id="Full-logo-49"><path id="Top-36" class="cls-2" d="m-3555.65,544.23c355.32-52.44,768.65-52.44,1124.31,0,1657.81,244.55,6495.8,958.31,7873.67,1161.61,226.46,33.37,370.25,103.82,370.25,181.13v531.54S-285.17,1861.05-2332.35,1673.88c-431.38-39.44-890.91-39.44-1322.29,0-2047.18,187.17-8144.93,744.63-8144.93,744.63v-531.54c0-77.31,143.93-147.76,370.15-181.13,1377.97-203.3,6215.95-917.06,7873.77-1161.61Z"/></g><g id="Full-logo-50"><path id="Top-37" class="cls-2" d="m-3446.87,484.1c286.55-53.51,619.88-53.51,906.7,0,1336.95,249.54,5238.55,977.87,6349.73,1185.32,182.63,34.05,298.59,105.94,298.59,184.82v542.39S-809.39,1827.79-2460.34,1636.8c-347.89-40.25-718.47-40.25-1066.36,0-1650.95,190.99-6568.49,759.82-6568.49,759.82v-542.39c0-78.89,116.08-150.77,298.51-184.82,1111.26-207.45,5012.87-935.78,6349.81-1185.32Z"/></g><g id="Full-logo-51"><path id="Top-38" class="cls-2" d="m-3359.15,422.73c231.09-54.61,499.9-54.61,731.21,0,1078.18,254.63,4224.64,997.83,5120.75,1209.51,147.28,34.75,240.8,108.1,240.8,188.6v553.46s-3965.76-580.44-5297.17-775.33c-280.56-41.07-579.41-41.07-859.97,0-1331.41,194.89-5297.17,775.33-5297.17,775.33v-553.46c0-80.5,93.61-153.85,240.73-188.6,896.18-211.68,4042.63-954.87,5120.82-1209.51Z"/></g><g id="Full-logo-52"><path id="Top-39" class="cls-2" d="m-3288.4,360.12c186.36-55.72,403.14-55.72,589.69,0C-1829.21,619.95,708.25,1378.31,1430.92,1594.31c118.77,35.46,194.19,110.3,194.19,192.45v564.75s-3198.19-592.29-4271.91-791.15c-226.26-41.91-467.27-41.91-693.52,0-1073.72,198.86-4271.91,791.15-4271.91,791.15v-564.75c0-82.14,75.49-156.99,194.14-192.45,722.73-216,3260.19-974.36,4129.69-1234.19Z"/></g><g id="Full-logo-53"><path id="Top-40" class="cls-2" d="m-3231.35,296.23c150.29-56.86,325.12-56.86,475.55,0C-2054.58,561.36-8.24,1335.2,574.56,1555.61c95.79,36.18,156.61,112.55,156.61,196.37v576.28s-2579.19-604.38-3445.09-807.3c-182.46-42.76-376.83-42.76-559.29,0-865.9,202.92-3445.09,807.3-3445.09,807.3v-576.28c0-83.82,60.88-160.19,156.56-196.37,582.84-220.41,2629.18-994.24,3330.4-1259.38Z"/></g><g id="Full-logo-54"><path id="Top-41" class="cls-2" d="m-3185.34,231.03c121.2-58.02,262.19-58.02,383.51,0C-2236.33,501.58-586.06,1291.21-116.06,1516.11c77.25,36.92,126.3,114.85,126.3,200.38v588.04s-2079.99-616.71-2778.3-823.77c-147.15-43.64-303.9-43.64-451.04,0-698.31,207.06-2778.3,823.77-2778.3,823.77v-588.04c0-85.53,49.1-163.46,126.26-200.38,470.04-224.91,2120.31-1014.54,2685.8-1285.08Z"/></g></g></g><g class="cls-7"><g><g id="Full-logo-55"><path id="Top-42" class="cls-3" d="m-140.84,464.57c-4341.98,630.5-9083.47,1384.6-12897.61,2051.28-17777.72,3107.5-69657.82,12176.13-84433.28,14758.9-2428.61,424.47-3720.97,710.69-3328.97,736.89l2695.14,180.1S-30981.43,6877.65-8446.18,3079.21C-3697.54,2278.8,1573.91,1440.41,6722.53,666.73c24433.3-3671.6,97210.53-14607.92,97210.53-14607.92l-2695.14-180.1c-392-26.2-2400.34,212.54-5164.6,613.96C79235.08-11062.15,20116.82-2477.21-140.84,464.57Z"/></g><g id="Full-logo-56"><path id="Top-43" class="cls-3" d="m-451.66,488.68c-3517.21,493.39-7359.88,1099.75-10452.69,1649.39-14415.6,2562.04-56484.14,10038.85-68465.26,12168.27-1969.31,349.95-3018.96,598.35-2703.76,639.44l2167.11,282.53S-25488.45,5986.47-7219.03,2883.73C-3369.28,2229.92,902.89,1555.78,5074.26,943.9,24869.86-1959.87,83833.22-10609.12,83833.22-10609.12l-2167.11-282.53c-315.2-41.09-1940.56,132.62-4179.74,446.75C63846.6-8531.44,15958.01-1813.39-451.66,488.68Z"/></g><g id="Full-logo-57"><path id="Top-44" class="cls-3" d="m-702.85,502.34c-2848.62,381.79-5962.73,868.27-8470.88,1323.29-11690.51,2121.01-45806.52,8310.79-55522.76,10073.67-1597.03,289.7-2450,507.86-2197.12,561.54l1738.65,369.06S-21036.24,5265.91-6224.48,2726.47C-3103.34,2191.36,358.83,1650.51,3738.01,1170.16c16036.2-2279.53,63801.76-9069.41,63801.76-9069.41l-1738.65-369.06c-252.88-53.68-1567.75,66.82-3381.28,309.9C51372.87-6477.72,12587.48-1279.08-702.85,502.34Z"/></g><g id="Full-logo-58"><path id="Top-45" class="cls-3" d="m-905.68,507.37c-2306.62,290.87-4830.16,680.04-6864.44,1058.62-9481.78,1764.66-37152.14,6914.54-45032.66,8381.25-1295.3,241.02-1988.9,435.1-1786.6,499.5l1390.9,442.79S-17427.66,4683.71-5418.5,2600.24C-2887.92,2161.2-82.32,1728.53,2654.68,1355.21,15643.38-416.43,54331.62-5693.49,54331.62-5693.49l-1390.9-442.79c-202.3-64.4-1265.42,12.44-2733.9,197.64C41261.74-4810.55,9855.94-849.85-905.68,507.37Z"/></g><g id="Full-logo-59"><path id="Top-46" class="cls-3" d="m-1069.3,505.26c-1867.23,216.69-3912.06,526.87-5562.26,843.72-7691.61,1476.99-30137.76,5787.36-36530.43,7014.98-1050.74,201.72-1615.22,376.73-1453.98,450.36l1108.55,506.25S-14502.9,4213.7-4765.35,2499.17C-2713.45,2137.88-440.07,1793.04,1776.35,1506.89,12294.59,148.89,43624.3-3896.11,43624.3-3896.11l-1108.55-506.25c-161.24-73.63-1020.23-32.72-2208.98,105.26C33065.64-3456.66,7642.34-505.9-1069.3,505.26Z"/></g><g id="Full-logo-60"><path id="Top-47" class="cls-3" d="m-1201.11,497.2c-1511.01,156.08-3167.79,402.08-4506.71,669.16-6240.7,1245.01-24452.72,4878.39-29639.51,5913.21-852.54,170.03-1312.41,330.03-1184.53,411.69l879.2,561.48S-12132.43,3834.67-4236.1,2418.54c1663.92-298.41,3505.88-571.91,5300.28-786.99,8515.5-1020.71,33879.86-4061.07,33879.86-4061.07l-879.2-561.48c-127.88-81.67-821.34-70.41-1783.31,28.97C26421.81-2356.63,5848.59-231.16-1201.11,497.2Z"/></g><g id="Full-logo-61"><path id="Top-48" class="cls-3" d="m-1307.11,484.15c-1222.21,106.44-2564.43,300.29-3651.06,527.29-5064.8,1058.2-19845.23,4146.43-24054.7,5025.98-691.9,144.51-1067.04,292.81-966.27,381.55l692.79,610.12S-10211.26,3529.45-3807.27,2354.52c1349.45-247.59,2841.7-463.1,4293.96-620.14C7378.58,989.12,27906.81-1230.78,27906.81-1230.78l-692.79-610.12c-100.77-88.74-659.99-102.1-1438.09-34.31C21036.18-1462.31,4395.16-12.64-1307.11,484.15Z"/></g><g id="Full-logo-62"><path id="Top-49" class="cls-3" d="m-1392.18,466.89c-988.05,65.69-2075.28,217.12-2957.45,411.9-4111.81,908.03-16111.17,3558.06-19528.59,4312.81-561.71,123.99-868.23,263.29-789.51,358.34l541.19,653.53S-8654.28,3284.11-3459.85,2303.98c1094.57-206.54,2303.33-374.89,3478.22-484.43C5593.93,1299.66,22201.35-248.91,22201.35-248.91l-541.19-653.53c-78.72-95.05-529.05-128.94-1158.08-87.09C16670.41-734.66,3217.61,160.21-1392.18,466.89Z"/></g><g id="Full-logo-63"><path id="Top-50" class="cls-3" d="m-1460.26,446.05c-798.18,32.14-1678.7,149.03-2395.18,317.98-3339.51,787.61-13085.1,3086.2-15860.65,3740.87-456.2,107.54-707.17,240.03-646.4,340.8l417.79,692.81S-7392.51,3087.34-3178.42,2264.4c888-173.41,1866.94-303.38,2816.94-373.97,4508.31-335.03,17936.82-1333.01,17936.82-1333.01l-417.79-692.81c-60.77-100.77-422.77-151.88-930.92-131.4C13131.29-142.04,2263.68,295.93-1460.26,446.05Z"/></g><g id="Full-logo-64"><path id="Top-51" class="cls-3" d="m-1514.54,422.13c-644.2,4.39-1357.16,93.15-1939.37,241.44-2713.68,691.32-10632.93,2708.93-12888.34,3283.57-370.71,94.39-576.71,221.86-530.57,327.87l317.22,728.83S-6370.04,2930.01-2950.49,2233.76c720.57-146.72,1513.22-245.4,2280.87-283.95,3642.95-182.98,14493.88-728.05,14493.88-728.05l-317.22-728.83c-46.14-106.01-336.46-171.69-746.58-168.87-2498.24,17.15-11269.43,77.39-14275,98.07Z"/></g><g id="Full-logo-65"><path id="Top-52" class="cls-3" d="m-1557.61,395.52c-519.33-18.65-1096.44,47.14-1569.85,178.98-2206.58,614.63-8645.96,2408.45-10479.91,2919.35-301.43,83.91-471.05,207.83-436.84,318.71l235.15,762.33S-5541.54,2804.71-2765.92,2210.39c584.88-125.24,1226.5-198.39,1846.28-210.49,2941.22-57.45,11701.99-228.64,11701.99-228.64l-235.15-762.33c-34.2-110.88-266.34-189-596.96-200.85C7936.27,735.87,865.34,482.35-1557.61,395.52Z"/></g><g id="Full-logo-66"><path id="Top-53" class="cls-3" d="m-1591.58,366.57c-418.03-37.9-885.02,9.12-1270.27,127.92-1795.71,553.87-7036.09,2170.35-8528.55,2630.75-245.3,75.61-385.49,197.18-361.05,312.65l168.07,793.89s6713.12-1526.36,8966.88-2038.83c474.92-107.99,994.1-160.27,1493.95-150.44,2372.13,46.63,9437.77,185.46,9437.77,185.46l-168.07-793.89c-24.45-115.47-209.34-204.31-475.48-228.41C6050.53,1058.8,358.78,543.2-1591.58,366.57Z"/></g><g id="Full-logo-67"><path id="Top-54" class="cls-3" d="m-1618.14,335.51c-335.85-54.09-713.54-22.44-1027.39,86.09-1462.86,506.04-5731.89,1982.96-6947.72,2403.62-199.83,69.07-316.24,189.29-299.79,309.13l113.11,823.99s5453.46-1331.08,7284.33-1777.99c385.8-94.18,805.71-129.36,1208.3-101.25,1910.53,133.39,7601.25,530.63,7601.25,530.63l-113.11-823.99c-16.45-119.85-162.97-218.03-376.79-252.44C4521.61,1323.68-51.2,587.67-1618.14,335.51Z"/></g><g id="Full-logo-68"><path id="Top-55" class="cls-3" d="m-1638.68,302.56c-269.16-67.81-574.46-48.79-830.46,51.74-1193.25,468.74-4675.49,1836.82-5667.23,2226.47-163,63.97-260.21,183.64-250.32,307.71l67.97,853.02s4432.74-1175.2,5920.92-1569.78c313.59-83.15,653.01-104.29,976.69-60.85,1536.06,206.17,6111.37,820.2,6111.37,820.2l-67.97-853.02c-9.89-124.07-125.21-230.5-296.57-273.64C3281.91,1541.57-382.88,618.73-1638.68,302.56Z"/></g><g id="Full-logo-69"><path id="Top-56" class="cls-3" d="m-1654.3,267.87c-215.02-79.55-461.62-70.94-670.77,23.42-974.9,440.01-3819.96,1724.25-4630.23,2090.03-133.17,60.05-214.88,179.85-210.41,308.03l30.78,881.32s3605.69-1051.33,4816.21-1404.31c255.08-74.38,529.24-83.96,788.89-27.55,1232.2,267.68,4902.44,1064.93,4902.44,1064.93l-30.78-881.32c-4.48-128.19-94.43-241.99-231.32-292.61C2276.63,1721.46-651.07,638.8-1654.3,267.87Z"/></g><g id="Full-logo-70"><path id="Top-57" class="cls-3" d="m-1665.91,231.57c-171.06-89.7-370.05-89.7-541.28,0-798.12,418.27-3127.26,1639.06-3790.6,1986.77-109.02,57.08-178.25,177.56-178.25,309.79v909.13s2935.63-953.45,3921.2-1273.58c207.68-67.46,428.91-67.46,636.59,0,985.57,320.13,3921.2,1273.58,3921.2,1273.58v-909.13c0-132.23-69.29-252.72-178.2-309.79C1461.35,1870.63-867.79,649.83-1665.91,231.57Z"/></g></g></g></svg>