<?xml version="1.0" encoding="utf-8"?>
<!-- Generator: Adobe Illustrator 27.2.0, SVG Export Plug-In . SVG Version: 6.00 Build 0)  -->
<svg version="1.1" id="Livello_1" xmlns="http://www.w3.org/2000/svg" xmlns:xlink="http://www.w3.org/1999/xlink" x="0px" y="0px"
	 viewBox="0 0 1920 1080" style="enable-background:new 0 0 1920 1080;" xml:space="preserve">
<style type="text/css">
	.st0{clip-path:url(#SVGID_00000036249888131478050840000004618708892002972089_);}
	.st1{fill:none;stroke:#000000;stroke-width:4;stroke-miterlimit:10;}
</style>
<g>
	<g>
		<defs>
			<rect id="SVGID_1_" width="1920" height="1080"/>
		</defs>
		<clipPath id="SVGID_00000106116299182509189140000002384316061746092205_">
			<use xlink:href="#SVGID_1_"  style="overflow:visible;"/>
		</clipPath>
		<g style="clip-path:url(#SVGID_00000106116299182509189140000002384316061746092205_);">
			<g>
				<g id="Full-logo-36">
					<path id="Top-25" class="st1" d="M-3870.3,1083.2c3053.8-42.8,6606.1-42.8,9662.8,0c14248,199.8,55827.7,783,67669.6,949.1
						c1946.3,27.3,3182.1,84.8,3182.1,148v434.3c0,0-52406.7-455.5-70001-608.4c-3707.5-32.2-7656.8-32.2-11364.3,0
						c-17594.3,152.9-70001,608.4-70001,608.4v-434.3c0-63.2,1237-120.7,3181.2-148C-59697.9,1866.2-18118.2,1283.1-3870.3,1083.2
						L-3870.3,1083.2z"/>
				</g>
				<g id="Full-logo-37">
					<path id="Top-26" class="st1" d="M-2935.4,1034.1c2462.7-43.7,5327.5-43.7,7792.6,0c11490.3,203.9,45022.3,799,54572.3,968.5
						c1569.6,27.8,2566.2,86.6,2566.2,151v443.2c0,0-42263.5-464.8-56452.4-620.8c-2989.9-32.9-6174.9-32.9-9164.8,0
						c-14189,156.1-56452.4,620.8-56452.4,620.8v-443.2c0-64.5,997.6-123.2,2565.5-151C-47957.7,1833.1-14425.7,1238-2935.4,1034.1
						L-2935.4,1034.1z"/>
				</g>
				<g id="Full-logo-38">
					<path id="Top-27" class="st1" d="M-2181.4,984c1986.1-44.6,4296.4-44.6,6284.3,0c9266.4,208.1,36308.3,815.3,44009.9,988.2
						c1265.8,28.4,2069.5,88.3,2069.5,154.1v452.2c0,0-34083.4-474.3-45526.1-633.5c-2411.2-33.6-4979.7-33.6-7391,0
						c-11442.7,159.2-45526.1,633.5-45526.1,633.5v-452.2c0-65.8,804.5-125.7,2069-154.1C-38489.7,1799.3-11447.8,1192-2181.4,984
						L-2181.4,984z"/>
				</g>
				<g id="Full-logo-39">
					<path id="Top-28" class="st1" d="M-1573.4,932.8c1601.7-45.5,3464.8-45.5,5068,0c7472.9,212.3,29280.9,831.9,35491.9,1008.4
						c1020.8,29,1669,90.1,1669,157.2v461.4c0,0-27486.7-483.9-36714.6-646.4c-1944.5-34.2-4015.9-34.2-5960.4,0
						c-9228,162.5-36714.6,646.4-36714.6,646.4v-461.4c0-67.1,648.8-128.3,1668.5-157.2C-30854.3,1764.8-9046.3,1145.1-1573.4,932.8
						L-1573.4,932.8z"/>
				</g>
				<g id="Full-logo-40">
					<path id="Top-29" class="st1" d="M-1083.1,880.6c1291.7-46.5,2794.2-46.5,4087.1,0c6026.5,216.6,23613.6,848.9,28622.5,1029
						c823.2,29.6,1346,92,1346,160.5V2541c0,0-22166.7-493.8-29608.6-659.6c-1568.2-34.9-3238.6-34.9-4806.8,0
						C-8884.8,2047.2-31051.5,2541-31051.5,2541v-470.9c0-68.5,523.2-130.9,1345.6-160.4
						C-24696.7,1729.5-7109.6,1097.2-1083.1,880.6z"/>
				</g>
				<g id="Full-logo-41">
					<path id="Top-30" class="st1" d="M-687.6,827.3c1041.7-47.4,2253.4-47.4,3296.1,0c4860.1,221,19043.2,866.2,23082.6,1050
						c663.9,30.2,1085.4,93.8,1085.4,163.7v480.5c0,0-17876.3-503.9-23877.9-673.1c-1264.7-35.7-2611.8-35.7-3876.5,0
						c-6001.5,169.2-23877.9,673.1-23877.9,673.1V2041c0-69.9,422-133.6,1085.1-163.7C-19730.9,1693.6-5547.7,1048.4-687.6,827.3z"
						/>
				</g>
				<g id="Full-logo-42">
					<path id="Top-31" class="st1" d="M-368.7,773c840-48.4,1817.2-48.4,2658.1,0c3919.4,225.6,15357.5,883.9,18615,1071.4
						c535.4,30.8,875.4,95.8,875.4,167.1v490.3c0,0-14416.4-514.2-19256.4-686.8c-1019.9-36.4-2106.3-36.4-3126.2,0
						c-4840,172.6-19256.4,686.8-19256.4,686.8v-490.3c0-71.3,340.3-136.3,875.1-167.1C-15726.2,1656.9-4288.2,998.5-368.7,773z"/>
				</g>
				<g id="Full-logo-43">
					<path id="Top-32" class="st1" d="M-111.6,717.5c677.5-49.4,1465.5-49.4,2143.6,0c3160.8,230.2,12385,902,15012.1,1093.3
						c431.8,31.4,705.9,97.7,705.9,170.5v500.3c0,0-11626.1-524.7-15529.3-700.8c-822.5-37.1-1698.6-37.1-2521.1,0
						c-3903.2,176.2-15529.3,700.8-15529.3,700.8v-500.3c0-72.8,274.4-139.1,705.7-170.5C-12496.6,1619.5-3272.4,947.7-111.6,717.5z
						"/>
				</g>
				<g id="Full-logo-44">
					<path id="Top-33" class="st1" d="M95.8,660.9c546.3-50.4,1181.9-50.4,1728.7,0c2549.1,234.9,9987.9,920.4,12106.5,1115.6
						c348.2,32.1,569.3,99.7,569.3,174V2461c0,0-9375.9-535.4-12523.6-715.1c-663.3-37.9-1369.9-37.9-2033.2,0
						C-3204.1,1925.6-12580,2461-12580,2461v-510.5c0-74.2,221.3-141.9,569.1-174C-9892.1,1581.3-2453.2,895.8,95.8,660.9z"/>
				</g>
				<g id="Full-logo-45">
					<path id="Top-34" class="st1" d="M263.1,603.2c440.6-51.4,953.1-51.4,1394.2,0c2055.7,239.7,8054.8,939.2,9763.3,1138.4
						c280.8,32.7,459.1,101.7,459.1,177.5V2440c0,0-7561.2-546.3-10099.7-729.7c-534.9-38.7-1104.7-38.7-1639.6,0
						C-2398.1,1893.7-9959.3,2440-9959.3,2440v-521c0-75.8,178.5-144.8,459-177.5C-7791.7,1542.3-1792.6,842.8,263.1,603.2z"/>
				</g>
				<g id="Full-logo-46">
					<path id="Top-35" class="st1" d="M398,544.2c355.3-52.4,768.7-52.4,1124.3,0C3180.1,788.8,8018.1,1502.5,9396,1705.8
						c226.5,33.4,370.2,103.8,370.2,181.1v531.5c0,0-6097.8-557.5-8144.9-744.6c-431.4-39.4-890.9-39.4-1322.3,0
						c-2047.2,187.2-8144.9,744.6-8144.9,744.6V1887c0-77.3,143.9-147.8,370.1-181.1C-6097.8,1502.5-1259.8,788.8,398,544.2z"/>
				</g>
				<g id="Full-logo-47">
					<path id="Top-36" class="st1" d="M506.8,484.1c286.5-53.5,619.9-53.5,906.7,0C2750.4,733.6,6652,1462,7763.2,1669.4
						c182.6,34.1,298.6,105.9,298.6,184.8v542.4c0,0-4917.5-568.8-6568.5-759.8c-347.9-40.2-718.5-40.2-1066.4,0
						c-1650.9,191-6568.5,759.8-6568.5,759.8v-542.4c0-78.9,116.1-150.8,298.5-184.8C-4731.8,1462-830.2,733.6,506.8,484.1z"/>
				</g>
				<g id="Full-logo-48">
					<path id="Top-37" class="st1" d="M594.5,422.7c231.1-54.6,499.9-54.6,731.2,0c1078.2,254.6,4224.6,997.8,5120.8,1209.5
						c147.3,34.8,240.8,108.1,240.8,188.6v553.5c0,0-3965.8-580.4-5297.2-775.3c-280.6-41.1-579.4-41.1-860,0
						c-1331.4,194.9-5297.2,775.3-5297.2,775.3v-553.5c0-80.5,93.6-153.8,240.7-188.6C-3630.1,1420.6-483.7,677.4,594.5,422.7z"/>
				</g>
				<g id="Full-logo-49">
					<path id="Top-38" class="st1" d="M665.2,360.1c186.4-55.7,403.1-55.7,589.7,0c869.5,259.8,3407,1018.2,4129.6,1234.2
						c118.8,35.5,194.2,110.3,194.2,192.4v564.7c0,0-3198.2-592.3-4271.9-791.2c-226.3-41.9-467.3-41.9-693.5,0
						c-1073.7,198.9-4271.9,791.2-4271.9,791.2v-564.8c0-82.1,75.5-157,194.1-192.4C-2741.7,1378.3-204.3,620,665.2,360.1z"/>
				</g>
				<g id="Full-logo-50">
					<path id="Top-39" class="st1" d="M722.3,296.2c150.3-56.9,325.1-56.9,475.6,0c701.2,265.1,2747.6,1039,3330.4,1259.4
						c95.8,36.2,156.6,112.6,156.6,196.4v576.3c0,0-2579.2-604.4-3445.1-807.3c-182.5-42.8-376.8-42.8-559.3,0
						c-865.9,202.9-3445.1,807.3-3445.1,807.3V1752c0-83.8,60.9-160.2,156.6-196.4C-2025.3,1335.2,21.1,561.4,722.3,296.2z"/>
				</g>
				<g id="Full-logo-51">
					<path id="Top-40" class="st1" d="M768.3,231c121.2-58,262.2-58,383.5,0c565.5,270.5,2215.8,1060.2,2685.8,1285.1
						c77.2,36.9,126.3,114.8,126.3,200.4v588c0,0-2080-616.7-2778.3-823.8c-147.2-43.6-303.9-43.6-451,0
						c-698.3,207.1-2778.3,823.8-2778.3,823.8v-588c0-85.5,49.1-163.5,126.3-200.4C-1447.5,1291.2,202.8,501.6,768.3,231z"/>
				</g>
			</g>
		</g>
	</g>
</g>
</svg>
