<?xml version="1.0" encoding="UTF-8"?><svg id="Livello_1" xmlns="http://www.w3.org/2000/svg" xmlns:xlink="http://www.w3.org/1999/xlink" viewBox="0 0 1921 1081"><defs><style>.cls-1,.cls-2,.cls-3{fill:none;}.cls-4{clip-path:url(#clippath);}.cls-2{stroke:#ffa600;}.cls-2,.cls-3{fill-rule:evenodd;stroke-miterlimit:10;stroke-width:4px;}.cls-3{stroke:#fff;}.cls-5{clip-path:url(#clippath-1);}.cls-6{clip-path:url(#clippath-4);}.cls-7{clip-path:url(#clippath-3);}.cls-8{clip-path:url(#clippath-2);}</style><clipPath id="clippath"><rect class="cls-1" x=".5" y=".5" width="1920" height="1080"/></clipPath><clipPath id="clippath-1"><rect class="cls-1" x="1974.58" y=".5" width="1920" height="1080"/></clipPath><clipPath id="clippath-2"><rect class="cls-1" x="-1979.05" y="-1133.11" width="1920" height="1080"/></clipPath><clipPath id="clippath-3"><rect class="cls-1" x=".5" y="-1133.11" width="1920" height="1080"/></clipPath><clipPath id="clippath-4"><rect class="cls-1" x="-1979.05" y=".5" width="1920" height="1080"/></clipPath></defs><g class="cls-4"><g><g id="Full-logo"><path id="Top" class="cls-2" d="m2965.26,454.92C-1376.72,1085.42-6118.2,1839.52-9932.34,2506.2c-17777.72,3107.5-69657.82,12176.13-84433.28,14758.9-2428.61,424.47-3720.97,710.69-3328.97,736.89l2695.14,180.1S-27875.33,6868-5340.08,3069.56C-591.43,2269.15,4680.01,1430.76,9828.64,657.07c24433.3-3671.6,97210.53-14607.92,97210.53-14607.92l-2695.14-180.1c-392-26.2-2400.34,212.54-5164.6,613.96C82341.19-11071.8,23222.93-2486.86,2965.26,454.92Z"/></g><g id="Full-logo-2"><path id="Top-2" class="cls-2" d="m2654.44,479.03C-862.77,972.42-4705.44,1578.77-7798.25,2128.42c-14415.6,2562.04-56484.14,10038.85-68465.26,12168.27-1969.31,349.95-3018.96,598.35-2703.76,639.44l2167.11,282.53S-22382.35,5976.82-4112.92,2874.08C-263.18,2220.26,4009,1546.13,8180.36,934.25,27975.97-1969.52,86939.33-10618.77,86939.33-10618.77l-2167.11-282.53c-315.2-41.09-1940.56,132.62-4179.74,446.75C66952.71-8541.1,19064.11-1823.04,2654.44,479.03Z"/></g><g id="Full-logo-3"><path id="Top-3" class="cls-2" d="m2403.25,492.69C-445.36,874.48-3559.47,1360.95-6067.62,1815.98c-11690.51,2121.01-45806.52,8310.79-55522.76,10073.67-1597.03,289.7-2450,507.86-2197.12,561.54l1738.65,369.06S-17930.14,5256.26-3118.38,2716.82C2.76,2181.71,3464.94,1640.86,6844.11,1160.51c16036.2-2279.53,63801.76-9069.41,63801.76-9069.41l-1738.65-369.06c-252.88-53.68-1567.75,66.82-3381.28,309.9C54478.97-6487.37,15693.59-1288.73,2403.25,492.69Z"/></g><g id="Full-logo-4"><path id="Top-4" class="cls-2" d="m2200.42,497.72C-106.2,788.59-2629.74,1177.76-4664.01,1556.34c-9481.78,1764.66-37152.14,6914.54-45032.66,8381.25-1295.3,241.02-1988.9,435.1-1786.6,499.5l1390.9,442.79S-14321.55,4674.06-2312.39,2590.58C218.18,2151.55,3023.78,1718.88,5760.78,1345.56,18749.48-426.08,57437.73-5703.14,57437.73-5703.14l-1390.9-442.79c-202.3-64.4-1265.42,12.44-2733.9,197.64C44367.84-4820.21,12962.04-859.51,2200.42,497.72Z"/></g><g id="Full-logo-5"><path id="Top-5" class="cls-2" d="m2036.81,495.61C169.58,712.3-1875.25,1022.47-3525.45,1339.33c-7691.61,1476.99-30137.76,5787.36-36530.43,7014.98-1050.74,201.72-1615.22,376.73-1453.98,450.36l1108.55,506.25S-11396.79,4204.04-1659.25,2489.52c2051.9-361.29,4325.28-706.13,6541.7-992.29C15400.69,139.23,46730.41-3905.77,46730.41-3905.77l-1108.55-506.25c-161.24-73.63-1020.23-32.72-2208.98,105.26C36171.74-3466.31,10748.44-515.55,2036.81,495.61Z"/></g><g id="Full-logo-6"><path id="Top-6" class="cls-2" d="m1905,487.55c-1511.01,156.08-3167.79,402.08-4506.71,669.16-6240.7,1245.01-24452.72,4878.39-29639.51,5913.21-852.54,170.03-1312.41,330.03-1184.53,411.69l879.2,561.48S-9026.32,3825.02-1129.99,2408.89c1663.92-298.41,3505.88-571.91,5300.28-786.99,8515.5-1020.71,33879.86-4061.07,33879.86-4061.07l-879.2-561.48c-127.88-81.67-821.34-70.41-1783.31,28.97C29527.91-2366.29,8954.69-240.82,1905,487.55Z"/></g><g id="Full-logo-7"><path id="Top-7" class="cls-2" d="m1798.99,474.5c-1222.21,106.44-2564.43,300.29-3651.06,527.29-5064.8,1058.2-19845.23,4146.43-24054.7,5025.98-691.9,144.51-1067.04,292.81-966.27,381.55l692.79,610.12S-7105.15,3519.8-701.17,2344.86c1349.45-247.59,2841.7-463.1,4293.96-620.14C10484.68,979.47,31012.92-1240.43,31012.92-1240.43l-692.79-610.12c-100.77-88.74-659.99-102.1-1438.09-34.31C24142.28-1471.96,7501.26-22.29,1798.99,474.5Z"/></g><g id="Full-logo-8"><path id="Top-8" class="cls-2" d="m1713.92,457.24c-988.05,65.69-2075.28,217.12-2957.45,411.9-4111.81,908.03-16111.17,3558.06-19528.59,4312.81-561.71,123.99-868.23,263.29-789.51,358.34l541.19,653.53S-5548.17,3274.45-353.75,2294.32c1094.57-206.54,2303.33-374.89,3478.22-484.43C8700.03,1290.01,25307.45-258.57,25307.45-258.57l-541.19-653.53c-78.72-95.05-529.05-128.94-1158.08-87.09C19776.51-744.31,6323.71,150.56,1713.92,457.24Z"/></g><g id="Full-logo-9"><path id="Top-9" class="cls-2" d="m1645.85,436.4C847.67,468.53-32.86,585.43-749.33,754.37c-3339.51,787.61-13085.1,3086.2-15860.65,3740.87-456.2,107.54-707.17,240.03-646.4,340.8l417.79,692.81S-4286.41,3077.69-72.32,2254.75c888-173.41,1866.94-303.38,2816.94-373.97,4508.31-335.03,17936.82-1333.01,17936.82-1333.01l-417.79-692.81c-60.77-100.77-422.77-151.88-930.92-131.4C16237.4-151.69,5369.78,286.28,1645.85,436.4Z"/></g><g id="Full-logo-10"><path id="Top-10" class="cls-2" d="m1591.57,412.47c-644.2,4.39-1357.16,93.15-1939.37,241.44-2713.68,691.32-10632.93,2708.93-12888.34,3283.57-370.71,94.39-576.71,221.86-530.57,327.87l317.22,728.83S-3263.93,2920.36,155.62,2224.11c720.57-146.72,1513.22-245.4,2280.87-283.95,3642.95-182.98,14493.88-728.05,14493.88-728.05l-317.22-728.83c-46.14-106.01-336.46-171.69-746.58-168.87-2498.24,17.15-11269.43,77.39-14275,98.07Z"/></g><g id="Full-logo-11"><path id="Top-11" class="cls-2" d="m1548.49,385.87c-519.33-18.65-1096.44,47.14-1569.85,178.98-2206.58,614.63-8645.96,2408.45-10479.91,2919.35-301.43,83.91-471.05,207.83-436.84,318.71l235.15,762.33S-2435.43,2795.05,340.18,2200.73c584.88-125.24,1226.5-198.39,1846.28-210.49,2941.22-57.45,11701.99-228.64,11701.99-228.64l-235.15-762.33c-34.2-110.88-266.34-189-596.96-200.85-2013.96-72.21-9084.89-325.73-11507.84-412.55Z"/></g><g id="Full-logo-12"><path id="Top-12" class="cls-2" d="m1514.52,356.92c-418.03-37.9-885.02,9.12-1270.27,127.92-1795.71,553.87-7036.09,2170.35-8528.55,2630.75-245.3,75.61-385.49,197.18-361.05,312.65l168.07,793.89S-1764.17,2695.76,489.6,2183.29c474.92-107.99,994.1-160.27,1493.95-150.44,2372.13,46.63,9437.77,185.46,9437.77,185.46l-168.07-793.89c-24.45-115.47-209.34-204.31-475.48-228.41-1621.14-146.86-7312.89-662.46-9263.25-839.09Z"/></g><g id="Full-logo-13"><path id="Top-13" class="cls-2" d="m1487.96,325.86c-335.85-54.09-713.54-22.44-1027.39,86.09-1462.86,506.04-5731.89,1982.96-6947.72,2403.62-199.83,69.07-316.24,189.29-299.79,309.13l113.11,823.99S-1220.36,2617.61,610.51,2170.7c385.8-94.18,805.71-129.36,1208.3-101.25,1910.53,133.39,7601.25,530.63,7601.25,530.63l-113.11-823.99c-16.45-119.85-162.97-218.03-376.79-252.44-1302.44-209.64-5875.26-945.64-7442.2-1197.8Z"/></g><g id="Full-logo-14"><path id="Top-14" class="cls-2" d="m1467.43,292.91c-269.16-67.81-574.46-48.79-830.46,51.74-1193.25,468.74-4675.49,1836.82-5667.23,2226.47-163,63.97-260.21,183.64-250.32,307.71l67.97,853.02S-779.87,2556.65,708.31,2162.08c313.59-83.15,653.01-104.29,976.69-60.85,1536.06,206.17,6111.37,820.2,6111.37,820.2l-67.97-853.02c-9.89-124.07-125.21-230.5-296.57-273.64C6388.02,1531.91,2723.22,609.08,1467.43,292.91Z"/></g><g id="Full-logo-15"><path id="Top-15" class="cls-2" d="m1451.81,258.22c-215.02-79.55-461.62-70.94-670.77,23.42C-193.87,721.65-3038.92,2005.89-3849.2,2371.68c-133.17,60.05-214.88,179.85-210.41,308.03l30.78,881.32S-423.14,2509.7,787.38,2156.71c255.08-74.38,529.24-83.96,788.89-27.55,1232.2,267.68,4902.44,1064.93,4902.44,1064.93l-30.78-881.32c-4.48-128.19-94.43-241.99-231.32-292.61-833.88-308.37-3761.58-1391.02-4764.8-1761.95Z"/></g><g id="Full-logo-16"><path id="Top-16" class="cls-2" d="m1440.19,221.91c-171.06-89.7-370.05-89.7-541.28,0C100.8,640.18-2228.35,1860.97-2891.69,2208.69c-109.02,57.08-178.25,177.56-178.25,309.79v909.13S-134.31,2474.15,851.26,2154.03c207.68-67.46,428.91-67.46,636.59,0,985.57,320.13,3921.2,1273.58,3921.2,1273.58v-909.13c0-132.23-69.29-252.72-178.2-309.79-663.39-347.71-2992.54-1568.5-3790.65-1986.77Z"/></g></g></g><g class="cls-5"><g><g id="Full-logo-17"><path id="Top-17" class="cls-2" d="m5854.18-1365.4C2837.99-903.64-432.62-337.54-3042.43,174.48c-12164.25,2386.66-47662.71,9351.66-57772.67,11335.31-1661.77,326-2524.82,556.39-2223.26,593.08l2073.38,252.32S-14888.35,3738.99,580.71,846.29C3840.37,236.74,7476.54-392.63,11043.9-964.74c16929.24-2715,67354.81-10801.97,67354.81-10801.97l-2073.38-252.32c-301.57-36.7-1715.3,127-3635.5,420.99C60993.06-9807.26,19926.26-3519.88,5854.18-1365.4Z"/></g><g id="Full-logo-18"><path id="Top-18" class="cls-2" d="m5737.76-1370.67C3233.24-1003.44,515.57-537.86-1654.75-104.22c-10115.81,2021.31-39636.4,7920.16-48043.86,9600.17-1381.93,276.09-2101.41,482.4-1853.39,531.06l1705.22,334.56S-11541.62,3142.08,1318.38,718.3C4028.25,207.55,7049.68-310.06,10012.61-771.16c14060.89-2188.17,55942.78-8705.92,55942.78-8705.92l-1705.22-334.56c-248.02-48.66-1420.4,69.13-3014.86,302.94C51522.8-8084.48,17422.63-3084.14,5737.76-1370.67Z"/></g><g id="Full-logo-19"><path id="Top-19" class="cls-2" d="m5641.75-1380.29C3562.57-1092.05,1304.5-710.14-500.57-341.45c-8413.38,1718.6-32965.84,6734.07-39958.38,8162.49-1149.36,234.73-1749.56,421.41-1546.11,480.47l1398.76,406.05S-8760.19,2647.5,1931.35,612.96C4184.27,184.24,6694.73-240.35,9155.24-608.81c11676.61-1748.58,46456.64-6956.95,46456.64-6956.95l-1398.76-406.05c-203.45-59.06-1175.16,20.12-2498.84,203.65C43651.22-6650.24,15342.2-2725.27,5641.75-1380.29Z"/></g><g id="Full-logo-20"><path id="Top-20" class="cls-2" d="m5562.73-1393.66C3837.13-1171.49,1961.08-859.25,459.56-544.33-6538.98,923.64-26962.56,5207.7-32779.2,6427.83c-956.07,200.49-1457.19,371.24-1290.86,439.4l1143.59,468.68S-6448.62,2238.01,2440.66,526.5c1873.15-360.65,3958.89-707.79,6001.76-998.89,9694.64-1381.45,38571.18-5496.29,38571.18-5496.29l-1143.59-468.68c-166.33-68.17-971.2-21.55-2069.77,119.91-6691.87,861.69-30186.71,3887.06-38237.52,4923.78Z"/></g><g id="Full-logo-21"><path id="Top-21" class="cls-2" d="m5497.85-1410.28c-1431.65,166.82-2990.17,421.02-4239.42,691.46C-4564.31,541.83-21556.58,4220.88-26395.98,5268.7c-795.45,172.17-1214.26,330.06-1078.85,406.27l931.02,524.02S-4527.58,1899.27,2863.81,455.73C4421.33,151.54,6154.05-131.07,7849.74-357.49c8047.07-1074.5,32016.12-4275.08,32016.12-4275.08l-931.02-524.02c-135.41-76.22-801.53-57.15-1712.97,49.08-5551.95,647.04-25044.61,2918.75-31724.02,3697.23Z"/></g><g id="Full-logo-22"><path id="Top-22" class="cls-2" d="m5444.74-1429.74c-1187.28,120.37-2481.85,326.19-3521.46,559.88C-2922.33,219.5-17063.09,3398.66-21090.38,4304.11c-661.96,148.77-1012.43,296.37-902.78,379.77l753.85,573.4S-2931.15,1619.39,3215.36,398.04C4510.55,140.68,5949.83-88.15,7356.9-260.42c6677.41-817.53,26566.79-3252.71,26566.79-3252.71l-753.85-573.4c-109.65-83.4-660.37-87.72-1416.23-11.07-4604.26,466.89-20769.6,2106.12-26308.86,2667.86Z"/></g><g id="Full-logo-23"><path id="Top-23" class="cls-2" d="m5401.43-1451.69c-984.09,81.3-2059.28,246.78-2924.67,450.15C-1556.85-53.52-13328.01,2713.2-16680.44,3501.19c-551.03,129.46-844.76,268.92-756.6,358.79l606.1,617.89S-1604.52,1388.47,3507.37,351.26C4584.56,132.69,5779.91-51.29,6947.04-178.15c5538.74-602.06,22036.47-2395.42,22036.47-2395.42l-606.1-617.89c-88.16-89.87-542.9-114.14-1169.41-62.36-3816.32,315.38-17215.25,1422.66-21806.57,1802.13Z"/></g><g id="Full-logo-24"><path id="Top-24" class="cls-2" d="m5366.3-1475.87c-815.15,48.35-1707.96,180.17-2428.6,358.56C-421.17-285.69-10223.27,2141.35-13014.92,2832.6c-458.85,113.56-705.48,246.68-635.26,342.44l482.78,658.42S-502.13,1198.28,3749.91,313.56C4645.91,127.13,5638.51-19.42,6606.16-108.13c4592.04-421.03,18269.95-1675.16,18269.95-1675.16l-482.78-658.42c-70.22-95.77-445.11-137.13-964.07-106.32-3161.16,187.63-14259.84,846.39-18062.96,1072.16Z"/></g><g id="Full-logo-25"><path id="Top-25" class="cls-2" d="m5337.98-1502.05c-674.66,20.49-1415.88,124.18-2016.22,282.04C523.53-484.03-7642.45,1663.88-9968.12,2275.64c-382.26,100.49-589.8,228.77-534.56,329.96l379.76,695.74S413.86,1042,3951.33,283.45C4696.74,123.61,5520.8,8.33,6322.58-48.26c3804.91-268.57,15138.25-1068.58,15138.25-1068.58l-379.76-695.74c-55.24-101.19-363.68-157.3-793.2-144.23-2616.35,79.58-11802.23,358.98-14949.89,454.76Z"/></g><g id="Full-logo-26"><path id="Top-26" class="cls-2" d="m5315.34-1530.03c-557.82-3.16-1173.01,77-1673.42,218.05C1309.52-654.39-5497.06,1264.8-7435.58,1811.42c-318.62,89.78-493.74,214.48-451.04,320.73l293.59,730.49S1174.93,913.93,4118.55,259.68C4738.83,121.81,5422.78,32.69,6086.64,3.23c3150.38-139.81,12534.15-556.3,12534.15-556.3l-293.59-730.49c-42.7-106.25-295.84-175.15-650.98-177.13-2163.25-12.14-9758.32-54.78-12360.87-69.34Z"/></g><g id="Full-logo-27"><path id="Top-27" class="cls-2" d="m5297.46-1559.68c-460.64-23.33-971.06,37.13-1388.44,164.45C1963.62-801.63-3713.58,930.82-5330.45,1424.25c-265.76,81.04-413.99,203.22-381.78,314.22l221.42,763.18S1807.22,809.36,4257.35,241.19c516.29-119.73,1083.77-186.94,1632.92-193.41,2606.07-30.7,10368.54-122.19,10368.54-122.19l-221.42-763.18c-32.21-111-239.3-191.1-532.56-205.92-1786.37-90.34-8058.23-407.53-10207.37-516.17Z"/></g><g id="Full-logo-28"><path id="Top-28" class="cls-2" d="m5283.54-1590.87c-379.79-40.61-803.11,3.31-1151.51,119.48C2508.11-929.8-2230.9,650.88-3580.57,1101.09c-221.84,73.93-347.79,194.48-324.39,310l160.87,794.28S2332.47,724.38,4372.53,227.15c429.88-104.78,900.52-153.61,1354.28-140.52,2153.35,62.14,8567.34,247.15,8567.34,247.15l-160.87-794.28c-23.4-115.53-192.13-205.5-433.92-231.32-1472.83-157.35-6643.89-709.8-8415.82-899.06Z"/></g><g id="Full-logo-29"><path id="Top-29" class="cls-2" d="m5272.94-1623.51c-312.51-55.5-663.42-25.48-954.53,81.67C2961.53-1042.26-998.21,415.81-2125.95,831.1c-185.36,68.19-292.86,187.86-276.87,307.72l109.96,824.13S2768.75,655.71,4468.06,216.82c358.08-92.49,748.21-125.87,1122.61-96.05,1776.75,141.5,7069.01,562.88,7069.01,562.88l-109.96-824.13c-15.99-119.87-152.77-218.64-351.72-253.94-1211.94-215.11-5467-970.35-6925.06-1229.09Z"/></g><g id="Full-logo-30"><path id="Top-30" class="cls-2" d="m5265.13-1657.52c-256.52-68.43-547.21-50.12-790.74,49.8C3339.27-1141.82,26.69,217.96-916.73,605.26c-155.06,63.59-247.31,183.01-237.55,307.09l67.05,853.06S3131.07,600.67,4547.26,209.61c298.42-82.41,621.61-102.76,929.98-58.57,1463.41,209.71,5822.36,834.27,5822.36,834.27l-67.05-853.06c-9.75-124.07-119.87-230.76-283.18-274.29-994.79-265.23-4487.44-1196.45-5684.25-1515.49Z"/></g><g id="Full-logo-31"><path id="Top-31" class="cls-2" d="m5259.66-1692.84c-209.89-79.73-450.52-71.33-654.54,22.86C3654.14-1230.81,878.92,51,88.53,416.08c-129.9,59.93-209.54,179.66-205.06,307.85l30.78,881.32S3431.92,556.99,4612.89,205.04c248.86-74.17,516.38-83.51,769.8-26.88,1202.65,268.71,4784.87,1069.03,4784.87,1069.03l-30.78-881.32c-4.48-128.19-92.35-242.06-225.98-292.79-813.99-309.06-3671.86-1394.15-4651.15-1765.92Z"/></g><g id="Full-logo-32"><path id="Top-32" class="cls-2" d="m5256.16-1729.43c-171.06-89.7-370.05-89.7-541.28,0C3916.76-1311.16,1587.62-90.37,924.28,257.35c-109.02,57.08-178.25,177.56-178.25,309.79v909.13S3681.66,522.81,4667.22,202.69c207.68-67.46,428.91-67.46,636.59,0,985.57,320.13,3921.2,1273.58,3921.2,1273.58v-909.13c0-132.23-69.29-252.72-178.2-309.79-663.39-347.71-2992.54-1568.5-3790.65-1986.77Z"/></g></g></g><g class="cls-8"><g><g id="Full-logo-33"><path id="Top-33" class="cls-2" d="m-42532.33,390.54c26245.39-35.01,56775.34-35.01,83046.41,0,122453.01,163.26,479806.71,639.78,581581.66,775.5,16727.04,22.28,27348.39,69.31,27348.39,120.92v354.86S199038.69,1269.66,47825.8,1144.71c-31863.76-26.33-65806.08-26.33-97669.84,0-151212.89,124.96-601618.34,497.12-601618.34,497.12v-354.86c0-51.61,10631.54-98.64,27340.88-120.92C-522339.04,1030.32-164985.34,553.81-42532.33,390.54Z"/></g><g id="Full-logo-34"><path id="Top-34" class="cls-2" d="m-34497.5,350.4c21165.64-35.73,45786.56-35.73,66972.91,0,98752.43,166.6,386940.89,652.83,469017.47,791.33,13489.54,22.73,22055.16,70.72,22055.16,123.39v362.1s-363230.2-379.76-485176.08-507.26c-25696.58-26.87-53069.42-26.87-78766,0-121945.88,127.51-485176.08,507.26-485176.08,507.26v-362.1c0-52.67,8573.82-100.66,22049.1-123.39C-421438.39,1003.23-133249.93,516.99-34497.5,350.4Z"/></g><g id="Full-logo-35"><path id="Top-35" class="cls-2" d="m-28017.8,309.43c17069.06-36.46,36924.65-36.46,54010.41,0,79639.06,169.99,312049.11,666.16,378239.89,807.48,10878.67,23.2,17786.42,72.17,17786.42,125.91v369.49S129091.34,1224.8,30747.89,1094.69c-20723.05-27.42-42797.92-27.42-63520.97,0-98343.45,130.11-391271.03,517.62-391271.03,517.62v-369.49c0-53.74,6914.37-102.71,17781.53-125.91C-340066.91,975.59-107656.86,479.43-28017.8,309.43Z"/></g><g id="Full-logo-36"><path id="Top-36" class="cls-2" d="m-22792.23,267.63c13765.37-37.2,29777.94-37.2,43556.78,0,64225.05,173.46,251652.51,679.75,305032.17,823.95,8773.12,23.67,14343.88,73.64,14343.88,128.48v377.03S103908.69,1201.68,24599.45,1068.92c-16712.14-27.98-34514.45-27.98-51226.59,0-79309.24,132.76-315541.15,528.18-315541.15,528.18v-377.03c0-54.84,5576.11-104.81,14339.94-128.48C-274444.74,947.38-87017.28,441.1-22792.23,267.63Z"/></g><g id="Full-logo-37"><path id="Top-37" class="cls-2" d="m-18578.07,224.98c11101.11-37.96,24014.47-37.96,35126.44,0,51794.39,177,202945.57,693.62,245993.69,840.77,7075.09,24.15,11567.65,75.14,11567.65,131.1v384.73S83600.09,1178.09,19641.03,1042.62c-13477.53-28.55-27834.23-28.55-41311.76,0-63959.06,135.47-254468.67,538.96-254468.67,538.96v-384.73c0-55.96,4496.86-106.95,11564.47-131.1C-221523.64,918.6-70372.46,401.98-18578.07,224.98Z"/></g><g id="Full-logo-38"><path id="Top-38" class="cls-2" d="m-15179.55,181.45c8952.51-38.73,19366.51-38.73,28327.77,0,41769.67,180.62,163665.78,707.78,198382.01,857.93,5705.72,24.65,9328.75,76.68,9328.75,133.78v392.58S67222.19,1154.02,15642.31,1015.78c-10868.98-29.13-22446.96-29.13-33315.94,0-51579.89,138.24-205216.67,549.96-205216.67,549.96v-392.58c0-57.1,3626.5-109.13,9326.19-133.78C-178845.33,889.23-56949.22,362.07-15179.55,181.45Z"/></g><g id="Full-logo-39"><path id="Top-39" class="cls-2" d="m-12438.81,137.04c7219.76-39.52,15618.15-39.52,22844.98,0,33685.22,184.3,131988.53,722.22,159985.49,875.44,4601.39,25.15,7523.18,78.24,7523.18,136.51v400.59S54014.21,1129.45,12417.53,988.39c-8765.3-29.73-18102.39-29.73-26867.69,0-41596.68,141.06-165497.32,561.18-165497.32,561.18v-400.59c0-58.27,2924.6-111.36,7521.12-136.51C-144427.34,859.26-46124.02,321.34-12438.81,137.04Z"/></g><g id="Full-logo-40"><path id="Top-40" class="cls-2" d="m-10228.53,91.72c5822.39-40.33,12595.28-40.33,18423.37,0,27165.5,188.06,106442.37,736.96,129020.55,893.3,3710.8,25.66,6067.08,79.84,6067.08,139.29v408.77S43362.61,1104.38,9816.9,960.45c-7068.79-30.33-14598.7-30.33-21667.49,0-33545.71,143.94-133465.58,572.63-133465.58,572.63v-408.77c0-59.45,2358.55-113.63,6065.42-139.29C-116670.9,828.68-37394.03,279.78-10228.53,91.72Z"/></g><g id="Full-logo-41"><path id="Top-41" class="cls-2" d="m-8446.05,45.47C-3750.57,4.32,1711.44,4.32,6411.51,45.47c21907.66,191.9,85840.62,752,104048.83,911.53,2992.58,26.19,4892.81,81.47,4892.81,142.13v417.11S34772.61,1078.81,7719.62,931.93c-5700.64-30.95-11773.15-30.95-17473.79,0-27052.99,146.87-107633.53,584.32-107633.53,584.32v-417.11c0-60.67,1902.05-115.95,4891.47-142.13C-94286.67,797.48-30353.71,237.38-8446.05,45.47Z"/></g><g id="Full-logo-42"><path id="Top-42" class="cls-2" d="m-7008.57-1.71C-3221.89-43.71,1182.96-43.71,4973.33-1.71c17667.47,195.82,69226.3,767.35,83910.35,930.14,2413.37,26.72,3945.81,83.13,3945.81,145.04v425.62S27845.2,1052.71,6028.27,902.83c-4597.29-31.58-9494.47-31.58-14091.76,0-21816.93,149.87-86801.23,596.25-86801.23,596.25v-425.62c0-61.91,1533.91-118.31,3944.73-145.04C-76234.87,765.64-24676.03,194.1-7008.57-1.71Z"/></g><g id="Full-logo-43"><path id="Top-43" class="cls-2" d="m-5849.3-49.87c3053.77-42.85,6606.07-42.85,9662.82,0,14247.96,199.81,55827.67,783.01,67669.64,949.12,1946.27,27.27,3182.11,84.83,3182.11,147.99v434.31S22258.57,1026.07,4664.27,873.14c-3707.49-32.23-7656.83-32.23-11364.32,0-17594.3,152.93-70000.99,608.41-70000.99,608.41v-434.31c0-63.17,1237.03-120.73,3181.23-147.99C-61676.97,733.14-20097.26,149.95-5849.3-49.87Z"/></g><g id="Full-logo-44"><path id="Top-44" class="cls-2" d="m-4914.42-99c2462.72-43.73,5327.47-43.73,7792.6,0C14368.47,104.89,47900.49,699.99,57450.47,869.49c1569.57,27.82,2566.22,86.56,2566.22,151.02v443.17S17753.22,998.9,3564.27,842.84c-2989.91-32.89-6174.86-32.89-9164.78,0-14188.95,156.05-56452.42,620.83-56452.42,620.83v-443.17c0-64.46,997.6-123.19,2565.51-151.02C-49936.73,699.99-16404.7,104.89-4914.42-99Z"/></g><g id="Full-logo-45"><path id="Top-45" class="cls-2" d="m-4160.47-149.14c1986.06-44.62,4296.35-44.62,6284.35,0C11390.24,58.92,38432.2,666.16,46133.79,839.12c1265.78,28.39,2069.53,88.32,2069.53,154.1v452.22S14119.88,971.17,2677.18,811.93c-2411.22-33.56-4979.73-33.56-7390.95,0-11442.7,159.24-45526.14,633.5-45526.14,633.5v-452.22c0-65.77,804.52-125.71,2068.96-154.1C-40468.79,666.16-13426.84,58.92-4160.47-149.14Z"/></g><g id="Full-logo-46"><path id="Top-46" class="cls-2" d="m-3552.46-200.3c1601.66-45.53,3464.8-45.53,5068.03,0C8988.44,12,30796.47,631.64,37007.43,808.13c1020.79,28.97,1668.98,90.13,1668.98,157.24v461.44S11189.77,942.87,1961.78,780.38c-1944.53-34.24-4015.91-34.24-5960.44,0-9227.99,162.49-36714.63,646.43-36714.63,646.43v-461.44c0-67.12,648.8-128.27,1668.52-157.24C-32833.35,631.64-11025.33,12-3552.46-200.3Z"/></g><g id="Full-logo-47"><path id="Top-47" class="cls-2" d="m-3062.12-252.5c1291.66-46.46,2794.19-46.46,4087.12,0C7051.51-35.87,24638.63,596.41,29647.47,776.5c823.22,29.56,1345.95,91.97,1345.95,160.45v470.86S8826.77,913.99,1384.85,748.19c-1568.17-34.94-3238.64-34.94-4806.81,0-7441.92,165.8-29608.57,659.62-29608.57,659.62v-470.86c0-68.49,523.23-130.89,1345.58-160.45C-26675.75,596.41-9088.63-35.87-3062.12-252.5Z"/></g><g id="Full-logo-48"><path id="Top-48" class="cls-2" d="m-2666.69-305.77c1041.66-47.41,2253.38-47.41,3296.06,0C5489.47-84.72,19672.63,560.47,23712.02,744.23c663.89,30.16,1085.44,93.84,1085.44,163.73v480.47S6921.13,884.53,919.58,715.35c-1264.65-35.65-2611.8-35.65-3876.46,0-6001.55,169.19-23877.88,673.08-23877.88,673.08v-480.47c0-69.88,421.96-133.56,1085.14-163.73C-21709.93,560.47-7526.77-84.72-2666.69-305.77Z"/></g><g id="Full-logo-49"><path id="Top-49" class="cls-2" d="m-2347.79-360.13c840.05-48.37,1817.24-48.37,2658.12,0,3919.43,225.56,15357.46,883.92,18615.03,1071.43,535.39,30.78,875.36,95.76,875.36,167.07v490.28S5384.32,854.47,544.36,681.83c-1019.88-36.38-2106.29-36.38-3126.18,0-4839.96,172.64-19256.36,686.82-19256.36,686.82v-490.28c0-71.31,340.29-136.29,875.12-167.07C-17705.25,523.79-6267.21-134.56-2347.79-360.13Z"/></g><g id="Full-logo-50"><path id="Top-50" class="cls-2" d="m-2090.61-415.59c677.46-49.36,1465.52-49.36,2143.64,0C3213.86-185.43,12438.08,486.36,15065.15,677.7c431.77,31.41,705.93,97.71,705.93,170.48v500.28S4144.96,823.79,241.76,647.63c-822.49-37.12-1698.62-37.12-2521.11,0-3903.19,176.16-15529.32,700.84-15529.32,700.84v-500.28c0-72.76,274.43-139.07,705.74-170.48C-14475.66,486.36-5251.44-185.43-2090.61-415.59Z"/></g><g id="Full-logo-51"><path id="Top-51" class="cls-2" d="m-1883.21-472.19c546.34-50.37,1181.87-50.37,1728.74,0C2394.59-237.33,9833.47,448.17,11952.08,643.42c348.2,32.05,569.3,99.71,569.3,173.96v510.49S3145.47,792.48-2.26,612.73c-663.3-37.88-1369.86-37.88-2033.15,0-3147.74,179.76-12523.64,715.14-12523.64,715.14v-510.49c0-74.25,221.31-141.91,569.14-173.96C-11871.15,448.17-4432.27-237.33-1883.21-472.19Z"/></g><g id="Full-logo-52"><path id="Top-52" class="cls-2" d="m-1715.95-529.94c440.6-51.4,953.12-51.4,1394.15,0C1733.88-290.29,7732.98,409.2,9441.54,608.43c280.81,32.7,459.11,101.74,459.11,177.51v520.91S2339.44,760.54-199.06,577.11c-534.92-38.65-1104.72-38.65-1639.64,0-2538.5,183.43-10099.71,729.73-10099.71,729.73v-520.91c0-75.77,178.48-144.8,458.99-177.51C-9770.75,409.2-3771.64-290.29-1715.95-529.94Z"/></g><g id="Full-logo-53"><path id="Top-53" class="cls-2" d="m-1581.07-588.88c355.32-52.44,768.65-52.44,1124.31,0C1201.06-344.33,6039.04,369.44,7416.91,572.73c226.46,33.37,370.25,103.82,370.25,181.13v531.54S1689.41,727.94-357.77,540.78c-431.38-39.44-890.91-39.44-1322.29,0-2047.18,187.17-8144.93,744.63-8144.93,744.63v-531.54c0-77.31,143.93-147.76,370.15-181.13C-8076.87,369.44-3238.88-344.33-1581.07-588.88Z"/></g><g id="Full-logo-54"><path id="Top-54" class="cls-2" d="m-1472.29-649.01c286.55-53.51,619.88-53.51,906.7,0C771.36-399.47,4672.96,328.86,5784.14,536.31c182.63,34.05,298.59,105.94,298.59,184.82v542.39S1165.19,694.68-485.76,503.7c-347.89-40.25-718.47-40.25-1066.36,0-1650.95,190.99-6568.49,759.82-6568.49,759.82v-542.39c0-78.89,116.08-150.77,298.51-184.82C-6710.84,328.86-2809.24-399.47-1472.29-649.01Z"/></g><g id="Full-logo-55"><path id="Top-55" class="cls-2" d="m-1384.57-710.37c231.09-54.61,499.9-54.61,731.21,0C424.83-455.74,3571.28,287.45,4467.4,499.13c147.28,34.75,240.8,108.1,240.8,188.6v553.46S742.43,660.74-588.97,465.86c-280.56-41.07-579.41-41.07-859.97,0-1331.41,194.89-5297.17,775.33-5297.17,775.33v-553.46c0-80.5,93.61-153.85,240.73-188.6,896.18-211.68,4042.63-954.87,5120.82-1209.51Z"/></g><g id="Full-logo-56"><path id="Top-56" class="cls-2" d="m-1313.82-772.99c186.36-55.72,403.14-55.72,589.69,0C145.37-513.16,2682.83,245.2,3405.5,461.2c118.77,35.46,194.19,110.3,194.19,192.45v564.75S401.5,626.11-672.21,427.25c-226.26-41.91-467.27-41.91-693.52,0-1073.72,198.86-4271.91,791.15-4271.91,791.15v-564.75c0-82.14,75.49-156.99,194.14-192.45,722.73-216,3260.19-974.36,4129.69-1234.19Z"/></g><g id="Full-logo-57"><path id="Top-57" class="cls-2" d="m-1256.77-836.88c150.29-56.86,325.12-56.86,475.55,0C-80-571.75,1966.34,202.09,2549.14,422.5c95.79,36.18,156.61,112.55,156.61,196.37v576.28S126.56,590.77-739.34,387.85c-182.46-42.76-376.83-42.76-559.29,0-865.9,202.92-3445.09,807.3-3445.09,807.3v-576.28c0-83.82,60.88-160.19,156.56-196.37C-4004.32,202.09-1957.98-571.75-1256.77-836.88Z"/></g><g id="Full-logo-58"><path id="Top-58" class="cls-2" d="m-1210.76-902.07c121.2-58.02,262.19-58.02,383.51,0C-261.75-631.53,1388.52,158.1,1858.52,383.01c77.25,36.92,126.3,114.85,126.3,200.38v588.04S-95.17,554.71-793.48,347.65c-147.15-43.64-303.9-43.64-451.04,0-698.31,207.06-2778.3,823.77-2778.3,823.77v-588.04c0-85.53,49.1-163.46,126.26-200.38,470.04-224.91,2120.31-1014.54,2685.8-1285.08Z"/></g></g></g><g class="cls-7"><g><g id="Full-logo-59"><path id="Top-59" class="cls-3" d="m1833.74-668.53C-2508.24-38.03-7249.73,716.07-11063.87,1382.75c-17777.72,3107.5-69657.82,12176.13-84433.28,14758.9-2428.61,424.47-3720.97,710.69-3328.97,736.89l2695.14,180.1S-29006.85,5744.55-6471.6,1946.11C-1722.96,1145.69,3548.49,307.31,8697.12-466.38c24433.3-3671.6,97210.53-14607.92,97210.53-14607.92l-2695.14-180.1c-392-26.2-2400.34,212.54-5164.6,613.96C81209.67-12195.26,22091.4-3610.31,1833.74-668.53Z"/></g><g id="Full-logo-60"><path id="Top-60" class="cls-3" d="m1522.92-644.42C-1994.29-151.04-5836.96,455.32-8929.77,1004.97c-14415.6,2562.04-56484.14,10038.85-68465.26,12168.27-1969.31,349.95-3018.96,598.35-2703.76,639.44l2167.11,282.53S-23513.87,4853.36-5244.44,1750.62C-1394.7,1096.81,2877.47,422.68,7048.84-189.21c19795.61-2903.77,78758.97-11553.02,78758.97-11553.02l-2167.11-282.53c-315.2-41.09-1940.56,132.62-4179.74,446.75C65821.18-9664.55,17932.59-2946.49,1522.92-644.42Z"/></g><g id="Full-logo-61"><path id="Top-61" class="cls-3" d="m1271.73-630.77C-1576.89-248.98-4690.99,237.5-7199.14,692.53c-11690.51,2121.01-45806.52,8310.79-55522.76,10073.67-1597.03,289.7-2450,507.86-2197.12,561.54l1738.65,369.06S-19061.66,4132.81-4249.9,1593.37C-1128.76,1058.25,2333.42,517.4,5712.59,37.06c16036.2-2279.53,63801.76-9069.41,63801.76-9069.41l-1738.65-369.06c-252.88-53.68-1567.75,66.82-3381.28,309.9C53347.45-7610.82,14562.07-2412.19,1271.73-630.77Z"/></g><g id="Full-logo-62"><path id="Top-62" class="cls-3" d="m1068.9-625.73C-1237.72-334.86-3761.26,54.31-5795.53,432.88c-9481.78,1764.66-37152.14,6914.54-45032.66,8381.25-1295.3,241.02-1988.9,435.1-1786.6,499.5l1390.9,442.79S-15453.08,3550.6-3443.92,1467.13C-913.34,1028.1,1892.26,595.42,4629.26,222.1c12988.7-1771.64,51676.95-7048.7,51676.95-7048.7l-1390.9-442.79c-202.3-64.4-1265.42,12.44-2733.9,197.64C43236.32-5943.66,11830.52-1982.96,1068.9-625.73Z"/></g><g id="Full-logo-63"><path id="Top-63" class="cls-3" d="m905.28-627.85C-961.95-411.15-3006.77-100.98-4656.97,215.87c-7691.61,1476.99-30137.76,5787.36-36530.43,7014.98-1050.74,201.72-1615.22,376.73-1453.98,450.36l1108.55,506.25S-12528.32,3080.59-2790.77,1366.06C-738.87,1004.78,1534.51,659.94,3750.93,373.78,14269.17-984.22,45598.88-5029.22,45598.88-5029.22l-1108.55-506.25c-161.24-73.63-1020.23-32.72-2208.98,105.26C35040.22-4589.77,9616.92-1639,905.28-627.85Z"/></g><g id="Full-logo-64"><path id="Top-64" class="cls-3" d="m773.48-635.91C-737.54-479.83-2394.31-233.83-3733.23,33.25c-6240.7,1245.01-24452.72,4878.39-29639.51,5913.21-852.54,170.03-1312.41,330.03-1184.53,411.69l879.2,561.48S-10157.85,2701.57-2261.52,1285.44C-597.6,987.03,1244.36,713.53,3038.76,498.45c8515.5-1020.71,33879.86-4061.07,33879.86-4061.07l-879.2-561.48c-127.88-81.67-821.34-70.41-1783.31,28.97C28396.39-3489.74,7823.17-1364.27,773.48-635.91Z"/></g><g id="Full-logo-65"><path id="Top-65" class="cls-3" d="m667.47-648.96C-554.74-542.51-1896.96-348.67-2983.59-121.67-8048.38,936.53-22828.82,4024.76-27038.29,4904.31c-691.9,144.51-1067.04,292.81-966.27,381.55l692.79,610.12S-8236.67,2396.35-1832.69,1221.41C-483.24,973.82,1009.01,758.31,2461.28,601.27,9353.16-143.99,29881.39-2363.88,29881.39-2363.88l-692.79-610.12c-100.77-88.74-659.99-102.1-1438.09-34.31C23010.76-2595.42,6369.74-1145.75,667.47-648.96Z"/></g><g id="Full-logo-66"><path id="Top-66" class="cls-3" d="m582.4-666.22c-988.05,65.69-2075.28,217.12-2957.45,411.9-4111.81,908.03-16111.17,3558.06-19528.59,4312.81-561.71,123.99-868.23,263.29-789.51,358.34l541.19,653.53S-6679.7,2151-1485.27,1170.87C-390.7,964.33,818.06,795.98,1992.95,686.43,7568.51,166.56,24175.93-1382.02,24175.93-1382.02l-541.19-653.53c-78.72-95.05-529.05-128.94-1158.08-87.09C18644.99-1867.77,5192.19-972.9,582.4-666.22Z"/></g><g id="Full-logo-67"><path id="Top-67" class="cls-3" d="m514.32-687.06c-798.18,32.14-1678.7,149.03-2395.18,317.98-3339.51,787.61-13085.1,3086.2-15860.65,3740.87-456.2,107.54-707.17,240.03-646.4,340.8l417.79,692.81S-5417.93,1954.24-1203.84,1131.3c888-173.41,1866.94-303.38,2816.94-373.97C6121.41,422.3,19549.92-575.68,19549.92-575.68l-417.79-692.81c-60.77-100.77-422.77-151.88-930.92-131.4-3095.34,124.74-13962.96,562.71-17686.89,712.83Z"/></g><g id="Full-logo-68"><path id="Top-68" class="cls-3" d="m460.04-710.98c-644.2,4.39-1357.16,93.15-1939.37,241.44C-4193.01,221.78-12112.26,2239.38-14367.67,2814.02c-370.71,94.39-576.71,221.86-530.57,327.87l317.22,728.83S-4395.45,1796.91-975.91,1100.65c720.57-146.72,1513.22-245.4,2280.87-283.95C4947.91,633.73,15798.84,88.65,15798.84,88.65l-317.22-728.83c-46.14-106.01-336.46-171.69-746.58-168.87-2498.24,17.15-11269.43,77.39-14275,98.07Z"/></g><g id="Full-logo-69"><path id="Top-69" class="cls-3" d="m416.97-737.58c-519.33-18.65-1096.44,47.14-1569.85,178.98C-3359.46,56.03-9798.85,1849.84-11632.79,2360.75c-301.43,83.91-471.05,207.83-436.84,318.71l235.15,762.33S-3566.95,1671.6-791.34,1077.28c584.88-125.24,1226.5-198.39,1846.28-210.49,2941.22-57.45,11701.99-228.64,11701.99-228.64l-235.15-762.33c-34.2-110.88-266.34-189-596.96-200.85-2013.96-72.21-9084.89-325.73-11507.84-412.55Z"/></g><g id="Full-logo-70"><path id="Top-70" class="cls-3" d="m383-766.54c-418.03-37.9-885.02,9.12-1270.27,127.92C-2682.98-84.75-7923.36,1531.73-9415.83,1992.13c-245.3,75.61-385.49,197.18-361.05,312.65l168.07,793.89S-2895.69,1572.3-641.92,1059.84c474.92-107.99,994.1-160.27,1493.95-150.44,2372.13,46.63,9437.77,185.46,9437.77,185.46l-168.07-793.89c-24.45-115.47-209.34-204.31-475.48-228.41C8025.11-74.3,2333.36-589.91,383-766.54Z"/></g><g id="Full-logo-71"><path id="Top-71" class="cls-3" d="m356.44-797.59c-335.85-54.09-713.54-22.44-1027.39,86.09C-2133.81-205.46-6402.84,1271.46-7618.67,1692.11c-199.83,69.07-316.24,189.29-299.79,309.13l113.11,823.99S-2351.88,1494.15-521.01,1047.25c385.8-94.18,805.71-129.36,1208.3-101.25,1910.53,133.39,7601.25,530.63,7601.25,530.63l-113.11-823.99c-16.45-119.85-162.97-218.03-376.79-252.44C6496.2,190.57,1923.38-545.44,356.44-797.59Z"/></g><g id="Full-logo-72"><path id="Top-72" class="cls-3" d="m335.91-830.55c-269.16-67.81-574.46-48.79-830.46,51.74C-1687.8-310.07-5170.04,1058-6161.79,1447.66c-163,63.97-260.21,183.64-250.32,307.71l67.97,853.02S-1911.39,1433.2-423.21,1038.62c313.59-83.15,653.01-104.29,976.69-60.85,1536.06,206.17,6111.37,820.2,6111.37,820.2l-67.97-853.02c-9.89-124.07-125.21-230.5-296.57-273.64C5256.49,408.46,1591.7-514.38,335.91-830.55Z"/></g><g id="Full-logo-73"><path id="Top-73" class="cls-3" d="m320.28-865.24c-215.02-79.55-461.62-70.94-670.77,23.42-974.9,440.01-3819.96,1724.25-4630.23,2090.03-133.17,60.05-214.88,179.85-210.41,308.03l30.78,881.32S-1554.66,1386.24-344.14,1033.26c255.08-74.38,529.24-83.96,788.89-27.55,1232.2,267.68,4902.44,1064.93,4902.44,1064.93l-30.78-881.32c-4.48-128.19-94.43-241.99-231.32-292.61C4251.21,588.35,1323.51-494.3,320.28-865.24Z"/></g><g id="Full-logo-74"><path id="Top-74" class="cls-3" d="m308.67-901.54c-171.06-89.7-370.05-89.7-541.28,0-798.12,418.27-3127.26,1639.06-3790.6,1986.77-109.02,57.08-178.25,177.56-178.25,309.79v909.13S-1265.83,1350.7-280.26,1030.57c207.68-67.46,428.91-67.46,636.59,0,985.57,320.13,3921.2,1273.58,3921.2,1273.58v-909.13c0-132.23-69.29-252.72-178.2-309.79C3435.93,737.52,1106.79-483.27,308.67-901.54Z"/></g></g></g><g class="cls-6"><g><g id="Full-logo-75"><path id="Top-75" class="cls-2" d="m-7789.3,1082.74c3053.77-42.85,6606.07-42.85,9662.82,0,14247.96,199.81,55827.67,783.01,67669.64,949.12,1946.27,27.27,3182.11,84.83,3182.11,147.99v434.31S20318.57,2158.68,2724.27,2005.75c-3707.49-32.23-7656.83-32.23-11364.32,0-17594.3,152.93-70000.99,608.41-70000.99,608.41v-434.31c0-63.17,1237.03-120.73,3181.23-147.99,11842.85-166.11,53422.55-749.3,67670.51-949.12Z"/></g><g id="Full-logo-76"><path id="Top-76" class="cls-2" d="m-6854.42,1033.61c2462.72-43.73,5327.47-43.73,7792.6,0,11490.29,203.89,45022.31,798.99,54572.29,968.49,1569.57,27.82,2566.22,86.56,2566.22,151.02v443.17S15813.22,2131.5,1624.27,1975.45c-2989.91-32.89-6174.86-32.89-9164.78,0-14188.95,156.05-56452.42,620.83-56452.42,620.83v-443.17c0-64.46,997.6-123.19,2565.51-151.02,9550.68-169.5,43082.7-764.6,54572.99-968.49Z"/></g><g id="Full-logo-77"><path id="Top-77" class="cls-2" d="m-6100.47,983.47c1986.06-44.62,4296.35-44.62,6284.35,0,9266.36,208.05,36308.31,815.3,44009.91,988.25,1265.78,28.39,2069.53,88.32,2069.53,154.1v452.22S12179.88,2103.77,737.18,1944.54c-2411.22-33.56-4979.73-33.56-7390.95,0-11442.7,159.24-45526.14,633.5-45526.14,633.5v-452.22c0-65.77,804.52-125.71,2068.96-154.1,7702.16-172.96,34744.12-780.2,44010.48-988.25Z"/></g><g id="Full-logo-78"><path id="Top-78" class="cls-2" d="m-5492.46,932.31c1601.66-45.53,3464.8-45.53,5068.03,0,7472.87,212.3,29280.9,831.93,35491.86,1008.42,1020.79,28.97,1668.98,90.13,1668.98,157.24v461.44S9249.77,2075.48,21.78,1912.99c-1944.53-34.24-4015.91-34.24-5960.44,0-9227.99,162.49-36714.63,646.43-36714.63,646.43v-461.44c0-67.12,648.8-128.27,1668.52-157.24,6211.42-176.49,28019.45-796.12,35492.32-1008.42Z"/></g><g id="Full-logo-79"><path id="Top-79" class="cls-2" d="m-5002.12,880.1c1291.66-46.46,2794.19-46.46,4087.12,0,6026.51,216.63,23613.63,848.91,28622.47,1029,823.22,29.56,1345.95,91.97,1345.95,160.45v470.86S6886.77,2046.6-555.15,1880.8c-1568.17-34.94-3238.64-34.94-4806.81,0-7441.92,165.8-29608.57,659.62-29608.57,659.62v-470.86c0-68.49,523.23-130.89,1345.58-160.45,5009.21-180.09,22596.33-812.37,28622.84-1029Z"/></g><g id="Full-logo-80"><path id="Top-80" class="cls-2" d="m-4606.69,826.84c1041.66-47.41,2253.38-47.41,3296.06,0,4860.09,221.05,19043.25,866.24,23082.64,1050,663.89,30.16,1085.44,93.84,1085.44,163.73v480.47S4981.13,2017.14-1020.42,1847.95c-1264.65-35.65-2611.8-35.65-3876.46,0-6001.55,169.19-23877.88,673.08-23877.88,673.08v-480.47c0-69.88,421.96-133.56,1085.14-163.73,4039.69-183.76,18222.85-828.95,23082.94-1050Z"/></g><g id="Full-logo-81"><path id="Top-81" class="cls-2" d="m-4287.79,772.48c840.05-48.37,1817.24-48.37,2658.12,0,3919.43,225.56,15357.46,883.92,18615.03,1071.43,535.39,30.78,875.36,95.76,875.36,167.07v490.28S3444.32,1987.07-1395.64,1814.43c-1019.88-36.38-2106.29-36.38-3126.18,0-4839.96,172.64-19256.36,686.82-19256.36,686.82v-490.28c0-71.31,340.29-136.29,875.12-167.07,3257.81-187.52,14695.84-845.87,18615.27-1071.43Z"/></g><g id="Full-logo-82"><path id="Top-82" class="cls-2" d="m-4030.61,717.01c677.46-49.36,1465.52-49.36,2143.64,0,3160.83,230.17,12385.05,901.96,15012.12,1093.3,431.77,31.41,705.93,97.71,705.93,170.48v500.28S2204.96,1956.39-1698.24,1780.23c-822.49-37.12-1698.62-37.12-2521.11,0-3903.19,176.16-15529.32,700.84-15529.32,700.84v-500.28c0-72.76,274.43-139.07,705.74-170.48,2627.27-191.34,11851.49-863.13,15012.31-1093.3Z"/></g><g id="Full-logo-83"><path id="Top-83" class="cls-2" d="m-3823.21,660.41c546.34-50.37,1181.87-50.37,1728.74,0C454.59,895.28,7893.47,1580.78,10012.08,1776.02c348.2,32.05,569.3,99.71,569.3,173.96v510.49S1205.47,1925.09-1942.26,1745.33c-663.3-37.88-1369.86-37.88-2033.15,0-3147.74,179.76-12523.64,715.14-12523.64,715.14v-510.49c0-74.25,221.31-141.91,569.14-173.96,2118.76-195.25,9557.65-880.74,12106.71-1115.61Z"/></g><g id="Full-logo-84"><path id="Top-84" class="cls-2" d="m-3655.95,602.66c440.6-51.4,953.12-51.4,1394.15,0C-206.12,842.32,5792.98,1541.81,7501.54,1741.04c280.81,32.7,459.11,101.74,459.11,177.51v520.91S399.44,1893.15-2139.06,1709.72c-534.92-38.65-1104.72-38.65-1639.64,0-2538.5,183.43-10099.71,729.73-10099.71,729.73v-520.91c0-75.77,178.48-144.8,458.99-177.51,1708.68-199.23,7707.78-898.72,9763.47-1138.38Z"/></g><g id="Full-logo-85"><path id="Top-85" class="cls-2" d="m-3521.07,543.73c355.32-52.44,768.65-52.44,1124.31,0,1657.81,244.55,6495.8,958.31,7873.67,1161.61,226.46,33.37,370.25,103.82,370.25,181.13v531.54S-250.59,1860.55-2297.77,1673.38c-431.38-39.44-890.91-39.44-1322.29,0-2047.18,187.17-8144.93,744.63-8144.93,744.63v-531.54c0-77.31,143.93-147.76,370.15-181.13,1377.97-203.3,6215.95-917.06,7873.77-1161.61Z"/></g><g id="Full-logo-86"><path id="Top-86" class="cls-2" d="m-3412.29,483.6c286.55-53.51,619.88-53.51,906.7,0,1336.95,249.54,5238.55,977.87,6349.73,1185.32,182.63,34.05,298.59,105.94,298.59,184.82v542.39S-774.81,1827.29-2425.76,1636.3c-347.89-40.25-718.47-40.25-1066.36,0-1650.95,190.99-6568.49,759.82-6568.49,759.82v-542.39c0-78.89,116.08-150.77,298.51-184.82,1111.26-207.45,5012.87-935.78,6349.81-1185.32Z"/></g><g id="Full-logo-87"><path id="Top-87" class="cls-2" d="m-3324.57,422.23c231.09-54.61,499.9-54.61,731.21,0,1078.18,254.63,4224.64,997.83,5120.75,1209.51,147.28,34.75,240.8,108.1,240.8,188.6v553.46s-3965.76-580.44-5297.17-775.33c-280.56-41.07-579.41-41.07-859.97,0-1331.41,194.89-5297.17,775.33-5297.17,775.33v-553.46c0-80.5,93.61-153.85,240.73-188.6,896.18-211.68,4042.63-954.87,5120.82-1209.51Z"/></g><g id="Full-logo-88"><path id="Top-88" class="cls-2" d="m-3253.82,359.62c186.36-55.72,403.14-55.72,589.69,0C-1794.63,619.45,742.83,1377.81,1465.5,1593.81c118.77,35.46,194.19,110.3,194.19,192.45v564.75s-3198.19-592.29-4271.91-791.15c-226.26-41.91-467.27-41.91-693.52,0-1073.72,198.86-4271.91,791.15-4271.91,791.15v-564.75c0-82.14,75.49-156.99,194.14-192.45,722.73-216,3260.19-974.36,4129.69-1234.19Z"/></g><g id="Full-logo-89"><path id="Top-89" class="cls-2" d="m-3196.77,295.73c150.29-56.86,325.12-56.86,475.55,0C-2020,560.86,26.34,1334.7,609.14,1555.11c95.79,36.18,156.61,112.55,156.61,196.37v576.28s-2579.19-604.38-3445.09-807.3c-182.46-42.76-376.83-42.76-559.29,0-865.9,202.92-3445.09,807.3-3445.09,807.3v-576.28c0-83.82,60.88-160.19,156.56-196.37,582.84-220.41,2629.18-994.24,3330.4-1259.38Z"/></g><g id="Full-logo-90"><path id="Top-90" class="cls-2" d="m-3150.76,230.53c121.2-58.02,262.19-58.02,383.51,0C-2201.75,501.08-551.48,1290.71-81.48,1515.61c77.25,36.92,126.3,114.85,126.3,200.38v588.04s-2079.99-616.71-2778.3-823.77c-147.15-43.64-303.9-43.64-451.04,0-698.31,207.06-2778.3,823.77-2778.3,823.77v-588.04c0-85.53,49.1-163.46,126.26-200.38,470.04-224.91,2120.31-1014.54,2685.8-1285.08Z"/></g></g></g></svg>