<?xml version="1.0" encoding="UTF-8"?><svg id="Livello_1" xmlns="http://www.w3.org/2000/svg" xmlns:xlink="http://www.w3.org/1999/xlink" viewBox="0 0 1920 1080"><defs><style>.cls-1,.cls-2,.cls-3,.cls-4{fill:none;}.cls-5{clip-path:url(#clippath);}.cls-2{stroke:#ffa600;}.cls-2,.cls-3,.cls-4{fill-rule:evenodd;stroke-miterlimit:10;stroke-width:4px;}.cls-3{stroke:#fff;}.cls-4{stroke:#000;}.cls-6{clip-path:url(#clippath-1);}.cls-7{clip-path:url(#clippath-4);}.cls-8{clip-path:url(#clippath-2);}.cls-9{clip-path:url(#clippath-5);}</style><clipPath id="clippath"><rect class="cls-1" x="1979.55" y="1133.61" width="1920" height="1080"/></clipPath><clipPath id="clippath-1"><rect class="cls-1" x="3953.63" width="1920" height="1080"/></clipPath><clipPath id="clippath-2"><rect class="cls-1" x="3953.63" y="1133.61" width="1920" height="1080"/></clipPath><clipPath id="clippath-4"><rect class="cls-1" width="1920" height="1080"/></clipPath><clipPath id="clippath-5"><rect class="cls-1" x="1979.55" width="1920" height="1080"/></clipPath></defs><g class="cls-5"><g><g id="Full-logo"><path id="Top" class="cls-2" d="m4944.31,1588.03C602.33,2218.53-4139.16,2972.63-7953.3,3639.31c-17777.72,3107.5-69657.82,12176.13-84433.28,14758.9-2428.61,424.47-3720.97,710.69-3328.97,736.89l2695.14,180.1S-25896.28,8001.11-3361.03,4202.67C1387.61,3402.25,6659.06,2563.86,11807.68,1790.18c24433.3-3671.6,97210.53-14607.92,97210.53-14607.92l-2695.14-180.1c-392-26.2-2400.34,212.54-5164.6,613.96C84320.23-9938.7,25201.97-1353.75,4944.31,1588.03Z"/></g><g id="Full-logo-2"><path id="Top-2" class="cls-2" d="m4633.49,1612.14c-3517.21,493.39-7359.88,1099.75-10452.69,1649.39-14415.6,2562.04-56484.14,10038.85-68465.26,12168.27-1969.31,349.95-3018.96,598.35-2703.76,639.44l2167.11,282.53S-20403.3,7109.92-2133.87,4007.18c3849.75-653.81,8121.92-1327.95,12293.28-1939.83C29955.01-836.42,88918.37-9485.67,88918.37-9485.67l-2167.11-282.53c-315.2-41.09-1940.56,132.62-4179.74,446.75C68931.75-7407.99,21043.16-689.93,4633.49,1612.14Z"/></g><g id="Full-logo-3"><path id="Top-3" class="cls-2" d="m4382.3,1625.79c-2848.62,381.79-5962.73,868.27-8470.88,1323.29-11690.51,2121.01-45806.52,8310.79-55522.76,10073.67-1597.03,289.7-2450,507.86-2197.12,561.54l1738.65,369.06S-15951.09,6389.37-1139.33,3849.93c3121.14-535.12,6583.32-1075.96,9962.49-1556.31C24859.36,14.09,72624.92-6775.8,72624.92-6775.8l-1738.65-369.06c-252.88-53.68-1567.75,66.82-3381.28,309.9C56458.02-5354.26,17672.63-155.63,4382.3,1625.79Z"/></g><g id="Full-logo-4"><path id="Top-4" class="cls-2" d="m4179.47,1630.83c-2306.62,290.87-4830.16,680.04-6864.44,1058.62-9481.78,1764.66-37152.14,6914.54-45032.66,8381.25-1295.3,241.02-1988.9,435.1-1786.6,499.5l1390.9,442.79S-12342.51,5807.16-333.35,3723.69c2530.58-439.03,5336.18-871.71,8073.18-1245.03,12988.7-1771.64,51676.95-7048.7,51676.95-7048.7l-1390.9-442.79c-202.3-64.4-1265.42,12.44-2733.9,197.64C46346.89-3687.1,14941.09,273.6,4179.47,1630.83Z"/></g><g id="Full-logo-5"><path id="Top-5" class="cls-2" d="m4015.85,1628.71c-1867.23,216.69-3912.06,526.87-5562.26,843.72-7691.61,1476.99-30137.76,5787.36-36530.43,7014.98-1050.74,201.72-1615.22,376.73-1453.98,450.36l1108.55,506.25S-9417.75,5337.15,319.8,3622.62c2051.9-361.29,4325.28-706.13,6541.7-992.29C17379.74,1272.34,48709.45-2772.66,48709.45-2772.66l-1108.55-506.25c-161.24-73.63-1020.23-32.72-2208.98,105.26C38150.79-2333.21,12727.49,617.56,4015.85,1628.71Z"/></g><g id="Full-logo-6"><path id="Top-6" class="cls-2" d="m3884.04,1620.65c-1511.01,156.08-3167.79,402.08-4506.71,669.16-6240.7,1245.01-24452.72,4878.39-29639.51,5913.21-852.54,170.03-1312.41,330.03-1184.53,411.69l879.2,561.48S-7047.28,4958.13,849.05,3542c1663.92-298.41,3505.88-571.91,5300.28-786.99C14664.83,1734.3,40029.19-1306.06,40029.19-1306.06l-879.2-561.48c-127.88-81.67-821.34-70.41-1783.31,28.97C31506.96-1233.18,10933.74,892.29,3884.04,1620.65Z"/></g><g id="Full-logo-7"><path id="Top-7" class="cls-2" d="m3778.04,1607.6c-1222.21,106.44-2564.43,300.29-3651.06,527.29-5064.8,1058.2-19845.23,4146.43-24054.7,5025.98-691.9,144.51-1067.04,292.81-966.27,381.55l692.79,610.12S-5126.11,4652.91,1277.88,3477.97c1349.45-247.59,2841.7-463.1,4293.96-620.14C12463.73,2112.57,32991.96-107.32,32991.96-107.32l-692.79-610.12c-100.77-88.74-659.99-102.1-1438.09-34.31C26121.33-338.86,9480.31,1110.81,3778.04,1607.6Z"/></g><g id="Full-logo-8"><path id="Top-8" class="cls-2" d="m3692.97,1590.34c-988.05,65.69-2075.28,217.12-2957.45,411.9-4111.81,908.03-16111.17,3558.06-19528.59,4312.81-561.71,123.99-868.23,263.29-789.51,358.34l541.19,653.53S-3569.13,4407.56,1625.3,3427.43c1094.57-206.54,2303.33-374.89,3478.22-484.43C10679.08,2423.12,27286.5,874.54,27286.5,874.54l-541.19-653.53c-78.72-95.05-529.05-128.94-1158.08-87.09-3831.67,254.88-17284.47,1149.75-21894.26,1456.43Z"/></g><g id="Full-logo-9"><path id="Top-9" class="cls-2" d="m3624.89,1569.5c-798.18,32.14-1678.7,149.03-2395.18,317.98-3339.51,787.61-13085.1,3086.2-15860.65,3740.87-456.2,107.54-707.17,240.03-646.4,340.8l417.79,692.81S-2307.36,4210.8,1906.73,3387.86c888-173.41,1866.94-303.38,2816.94-373.97,4508.31-335.03,17936.82-1333.01,17936.82-1333.01l-417.79-692.81c-60.77-100.77-422.77-151.88-930.92-131.4-3095.34,124.74-13962.96,562.71-17686.89,712.83Z"/></g></g></g><g class="cls-6"><g><g id="Full-logo-10"><path id="Bottom" class="cls-4" d="m7918.74,12.74c-1519.19,43.17-3284.66,43.17-4802.36,0C-3964.77-188.39-24629.63-775.56-30515.45-942.77c-966.26-27.49-1581.05-85.46-1581.05-149.06v-437.23S-6050.7-1070.51,2693.56-916.52c1842.6,32.42,3805.4,32.42,5648,0,8744.26-153.99,34790.07-612.54,34790.07-612.54v437.23c0,63.61-614.21,121.57-1581.49,149.06C35664.76-775.56,14999.89-188.39,7918.74,12.74Z"/></g><g id="Full-logo-11"><path id="Bottom-2" class="cls-4" d="m7453.89,62.21c-1225.15,44.05-2648.92,44.05-3872.87,0C-2129.59-143.03-18794.8-742.18-23541.43-912.8c-779.24-28.05-1275.04-87.2-1275.04-152.1v-446.15S-3811.79-1043.15,3240.03-886.01c1485.97,33.08,3068.87,33.08,4554.84,0,7051.82-157.14,28056.51-625.05,28056.51-625.05v446.15c0,64.9-495.33,124.06-1275.39,152.1C29829.7-742.18,13164.49-143.03,7453.89,62.21Z"/></g><g id="Full-logo-12"><path id="Bottom-3" class="cls-4" d="m7079.01,112.68c-988.03,44.95-2136.22,44.95-3123.29,0C-649.61-96.74-14089.29-708.12-17917.22-882.22c-628.42-28.62-1028.26-88.98-1028.26-155.21v-455.26S-2006.22-1015.23,3680.73-854.89c1198.36,33.76,2474.9,33.76,3673.26,0,5686.95-160.34,22626.22-637.8,22626.22-637.8v455.26c0,66.23-399.46,126.59-1028.54,155.21C25124.02-708.12,11684.33-96.74,7079.01,112.68Z"/></g><g id="Full-logo-13"><path id="Bottom-4" class="cls-4" d="m6776.68,164.19c-796.8,45.87-1722.76,45.87-2518.78,0C543.93-49.5-10294.53-673.36-13381.57-851.02c-506.79-29.21-829.24-90.79-829.24-158.38v-464.55S-550.11-986.74,4036.14-823.13c966.42,34.45,1995.88,34.45,2962.3,0,4586.25-163.62,18246.95-650.82,18246.95-650.82v464.55c0,67.58-322.14,129.17-829.47,158.38C21329.11-673.36,10490.65-49.5,6776.68,164.19Z"/></g><g id="Full-logo-14"><path id="Bottom-5" class="cls-4" d="m6532.87,216.75c-642.58,46.8-1389.32,46.8-2031.27,0C1506.46-1.31-7234.23-637.9-9723.78-819.18c-408.7-29.8-668.74-92.65-668.74-161.61v-474.03S624.16-957.67,4322.75-790.72c779.37,35.15,1609.58,35.15,2388.95,0,3698.59-166.96,14715.28-664.1,14715.28-664.1v474.03c0,68.96-259.79,131.81-668.93,161.61C18268.7-637.9,9528.01-1.31,6532.87,216.75Z"/></g><g id="Full-logo-15"><path id="Bottom-6" class="cls-4" d="m6336.25,270.38c-518.21,47.76-1120.42,47.76-1638.12,0C2282.69,47.87-4766.26-601.71-6773.96-786.69c-329.6-30.41-539.31-94.54-539.31-164.91v-483.7S1571.16-928.01,4553.9-757.65c628.53,35.87,1298.05,35.87,1926.58,0,2982.73-170.36,11867.16-677.65,11867.16-677.65v483.7c0,70.37-209.51,134.5-539.46,164.91C15800.63-601.71,8751.68,47.87,6336.25,270.38Z"/></g><g id="Full-logo-16"><path id="Bottom-7" class="cls-4" d="m6177.68,325.11c-417.91,48.73-903.57,48.73-1321.07,0C2908.68,98.06-2775.95-564.78-4395.06-753.54c-265.81-31.03-434.93-96.47-434.93-168.27v-493.57S2334.87-897.74,4740.3-723.9c506.88,36.6,1046.82,36.6,1553.69,0,2405.43-173.84,9570.29-691.48,9570.29-691.48v493.57c0,71.8-168.96,137.24-435.05,168.27C13810.24-564.78,8125.61,98.06,6177.68,325.11Z"/></g><g id="Full-logo-17"><path id="Bottom-8" class="cls-4" d="m6049.8,380.95c-337.02,49.73-728.68,49.73-1065.38,0C3413.52,149.27-1170.87-527.1-2476.6-719.71c-214.36-31.66-350.75-98.44-350.75-171.71v-503.65S2950.76-866.86,4890.63-689.47c408.77,37.34,844.21,37.34,1252.98,0,1939.86-177.39,7717.98-705.59,7717.98-705.59v503.65c0,73.27-136.26,140.04-350.84,171.71-1305.64,192.61-5890.02,868.98-7460.93,1100.66Z"/></g><g id="Full-logo-18"><path id="Bottom-9" class="cls-4" d="m5946.68,437.93c-271.79,50.74-587.65,50.74-859.17,0C3820.64,201.52,123.56-488.65-929.45-685.19c-172.87-32.31-282.86-100.45-282.86-175.21v-513.93S3447.45-835.34,5011.86-654.33c329.65,38.11,680.81,38.11,1010.46,0,1564.41-181.01,6224.18-719.99,6224.18-719.99v513.93c0,74.76-109.89,142.9-282.94,175.21-1052.94,196.54-4750.02,886.71-6016.88,1123.12Z"/></g><g id="Full-logo-19"><path id="Bottom-10" class="cls-4" d="m5863.51,496.07c-219.19,51.78-473.91,51.78-692.88,0C4148.97,254.84,1167.45-449.42,318.24-649.97c-139.41-32.97-228.11-102.5-228.11-178.79v-524.41s3757.88,549.99,5019.5,734.69c265.85,38.88,549.04,38.88,814.89,0,1261.62-184.7,5019.5-734.69,5019.5-734.69v524.41c0,76.29-88.62,145.82-228.18,178.79-849.14,200.55-3830.66,904.81-4852.32,1146.04Z"/></g><g id="Full-logo-20"><path id="Bottom-11" class="cls-4" d="m5796.44,555.4c-176.76,52.83-382.18,52.83-558.78,0-823.92-246.16-3228.37-964.78-3913.21-1169.43-112.43-33.64-183.96-104.59-183.96-182.43v-535.12s3030.55,561.21,4047.98,749.68c214.39,39.68,442.78,39.68,657.17,0,1017.43-188.47,4047.98-749.68,4047.98-749.68v535.12c0,77.85-71.47,148.79-184.01,182.43-684.79,204.64-3089.24,923.27-3913.16,1169.43Z"/></g></g></g><g class="cls-8"><g><g id="Full-logo-21"><path id="Top-10" class="cls-2" d="m7833.23-232.29C4817.04,229.47,1546.42,795.57-1063.38,1307.59c-12164.25,2386.66-47662.71,9351.66-57772.67,11335.31-1661.77,326-2524.82,556.39-2223.26,593.08l2073.38,252.32S-12909.31,4872.09,2559.76,1979.4C5819.41,1369.84,9455.59,740.47,13022.95,168.37c16929.24-2715,67354.81-10801.97,67354.81-10801.97l-2073.38-252.32c-301.57-36.7-1715.3,127-3635.5,420.99C62972.11-8674.15,21905.3-2386.78,7833.23-232.29Z"/></g><g id="Full-logo-22"><path id="Top-11" class="cls-2" d="m7716.8-237.56C5212.28,129.66,2494.61,595.24,324.3,1028.88c-10115.81,2021.31-39636.4,7920.16-48043.86,9600.17-1381.93,276.09-2101.41,482.4-1853.39,531.06l1705.22,334.56S-9562.57,4275.19,3297.43,1851.4c2709.87-510.74,5731.29-1028.36,8694.23-1489.45,14060.89-2188.17,55942.78-8705.92,55942.78-8705.92l-1705.22-334.56c-248.02-48.66-1420.4,69.13-3014.86,302.94C53501.85-6951.38,19401.67-1951.03,7716.8-237.56Z"/></g><g id="Full-logo-23"><path id="Top-12" class="cls-2" d="m7620.79-247.19C5541.61,41.06,3283.54,422.96,1478.48,791.66c-8413.38,1718.6-32965.84,6734.07-39958.38,8162.49-1149.36,234.73-1749.56,421.41-1546.11,480.47l1398.76,406.05S-6781.14,3780.61,3910.39,1746.07c2252.93-428.72,4763.38-853.31,7223.9-1221.77,11676.61-1748.58,46456.64-6956.95,46456.64-6956.95l-1398.76-406.05c-203.45-59.06-1175.16,20.12-2498.84,203.65C45630.27-5517.14,17321.25-1592.17,7620.79-247.19Z"/></g><g id="Full-logo-24"><path id="Top-13" class="cls-2" d="m7541.77-260.56C5816.18-38.38,3940.12,273.85,2438.61,588.77c-6998.54,1467.97-27422.13,5752.04-33238.76,6972.16-956.07,200.49-1457.19,371.24-1290.86,439.4l1143.59,468.68S-4469.57,3371.11,4419.7,1659.6c1873.15-360.65,3958.89-707.79,6001.76-998.89,9694.64-1381.45,38571.18-5496.29,38571.18-5496.29l-1143.59-468.68c-166.33-68.17-971.2-21.55-2069.77,119.91C39087.43-4322.65,15592.59-1297.28,7541.77-260.56Z"/></g><g id="Full-logo-25"><path id="Top-14" class="cls-2" d="m7476.89-277.17C6045.24-110.35,4486.72,143.84,3237.48,414.28-2585.26,1674.94-19577.54,5353.99-24416.94,6401.81c-795.45,172.17-1214.26,330.06-1078.85,406.27l931.02,524.02S-2548.54,3032.38,4842.86,1588.84c1557.52-304.19,3290.23-586.8,4985.92-813.21,8047.07-1074.5,32016.12-4275.08,32016.12-4275.08l-931.02-524.02c-135.41-76.22-801.53-57.15-1712.97,49.08C33648.96-3327.37,14156.31-1055.65,7476.89-277.17Z"/></g><g id="Full-logo-26"><path id="Top-15" class="cls-2" d="m7423.78-296.63C6236.51-176.26,4941.93,29.56,3902.33,263.25-943.28,1352.61-15084.04,4531.77-19111.33,5437.22c-661.96,148.77-1012.43,296.37-902.78,379.77l753.85,573.4S-952.1,2752.5,5194.4,1531.15c1295.2-257.37,2734.47-486.2,4141.54-658.47C16013.35,55.15,35902.74-2380.03,35902.74-2380.03l-753.85-573.4c-109.65-83.4-660.37-87.72-1416.23-11.07C29128.39-2497.6,12963.05-858.37,7423.78-296.63Z"/></g><g id="Full-logo-27"><path id="Top-16" class="cls-2" d="m7380.48-318.58c-984.09,81.3-2059.28,246.78-2924.67,450.15C422.19,1079.58-11348.96,3846.31-14701.39,4634.29c-551.03,129.46-844.76,268.92-756.6,358.79l606.1,617.89S374.53,2521.58,5486.42,1484.37c1077.18-218.57,2272.54-402.55,3439.67-529.41C14464.83,352.9,30962.56-1440.47,30962.56-1440.47l-606.1-617.89c-88.16-89.87-542.9-114.14-1169.41-62.36C25370.73-1805.34,11971.8-698.05,7380.48-318.58Z"/></g><g id="Full-logo-28"><path id="Top-17" class="cls-2" d="m7345.35-342.76c-815.15,48.35-1707.96,180.17-2428.6,358.56C1557.87,847.42-8244.23,3274.46-11035.87,3965.71c-458.85,113.56-705.48,246.68-635.26,342.44l482.78,658.42S1476.92,2331.39,5728.96,1446.67c895.99-186.43,1888.6-332.98,2856.24-421.7,4592.04-421.03,18269.95-1675.16,18269.95-1675.16l-482.78-658.42c-70.22-95.77-445.11-137.13-964.07-106.32-3161.16,187.63-14259.84,846.39-18062.96,1072.16Z"/></g><g id="Full-logo-29"><path id="Top-18" class="cls-2" d="m7317.03-368.94c-674.66,20.49-1415.88,124.18-2016.22,282.04C2502.58,649.08-5663.4,2796.99-7989.07,3408.74c-382.26,100.49-589.8,228.77-534.56,329.96l379.76,695.74S2392.91,2175.1,5930.37,1416.56c745.42-159.84,1569.48-275.12,2371.25-331.71C12106.54,816.28,23439.88,16.27,23439.88,16.27l-379.76-695.74c-55.24-101.19-363.68-157.3-793.2-144.23-2616.35,79.58-11802.23,358.98-14949.89,454.76Z"/></g><g id="Full-logo-30"><path id="Top-19" class="cls-2" d="m7294.39-396.93c-557.82-3.16-1173.01,77-1673.42,218.05C3288.57,478.72-3518.01,2397.91-5456.53,2944.52c-318.62,89.78-493.74,214.48-451.04,320.73l293.59,730.49S3153.98,2047.03,6097.6,1392.78c620.28-137.87,1304.23-226.99,1968.09-256.45,3150.38-139.81,12534.15-556.3,12534.15-556.3l-293.59-730.49c-42.7-106.25-295.84-175.15-650.98-177.13-2163.25-12.14-9758.32-54.78-12360.87-69.34Z"/></g><g id="Full-logo-31"><path id="Top-20" class="cls-2" d="m7276.5-426.58c-460.64-23.33-971.06,37.13-1388.44,164.45C3942.67,331.48-1734.54,2063.93-3351.41,2557.35c-265.76,81.04-413.99,203.22-381.78,314.22l221.42,763.18S3786.27,1942.47,6236.4,1374.3c516.29-119.73,1083.77-186.94,1632.92-193.41,2606.07-30.7,10368.54-122.19,10368.54-122.19l-221.42-763.18c-32.21-111-239.3-191.1-532.56-205.92C15697.51-.75,9425.64-317.93,7276.5-426.58Z"/></g><g id="Full-logo-32"><path id="Top-21" class="cls-2" d="m7262.58-457.77c-379.79-40.61-803.11,3.31-1151.51,119.48C4487.16,203.31-251.85,1783.99-1601.53,2234.19c-221.84,73.93-347.79,194.48-324.39,310l160.87,794.28s6076.56-1480.99,8116.62-1978.22c429.88-104.78,900.52-153.61,1354.28-140.52,2153.35,62.14,8567.34,247.15,8567.34,247.15l-160.87-794.28c-23.4-115.53-192.13-205.5-433.92-231.32-1472.83-157.35-6643.89-709.8-8415.82-899.06Z"/></g><g id="Full-logo-33"><path id="Top-22" class="cls-2" d="m7251.99-490.41c-312.51-55.5-663.42-25.48-954.53,81.67C4940.58,90.84,980.83,1548.91-146.91,1964.2c-185.36,68.19-292.86,187.86-276.87,307.72l109.96,824.13s5061.61-1307.24,6760.92-1746.13c358.08-92.49,748.21-125.87,1122.61-96.05,1776.75,141.5,7069.01,562.88,7069.01,562.88l-109.96-824.13c-15.99-119.87-152.77-218.64-351.72-253.94-1211.94-215.11-5467-970.35-6925.06-1229.09Z"/></g><g id="Full-logo-34"><path id="Top-23" class="cls-2" d="m7244.17-524.41c-256.52-68.43-547.21-50.12-790.74,49.8C5318.32-8.72,2005.74,1351.07,1062.32,1738.36c-155.06,63.59-247.31,183.01-237.55,307.09l67.05,853.06s4218.31-1164.73,5634.5-1555.79c298.42-82.41,621.61-102.76,929.98-58.57,1463.41,209.71,5822.36,834.27,5822.36,834.27l-67.05-853.06c-9.75-124.07-119.87-230.76-283.18-274.29-994.79-265.23-4487.44-1196.45-5684.25-1515.49Z"/></g><g id="Full-logo-35"><path id="Top-24" class="cls-2" d="m7238.7-559.73c-209.89-79.73-450.52-71.33-654.54,22.86C5633.18-97.7,2857.96,1184.1,2067.58,1549.19c-129.9,59.93-209.54,179.66-205.06,307.85l30.78,881.32s3517.67-1048.25,4698.65-1400.21c248.86-74.17,516.38-83.51,769.8-26.88,1202.65,268.71,4784.87,1069.03,4784.87,1069.03l-30.78-881.32c-4.48-128.19-92.35-242.06-225.98-292.79-813.99-309.06-3671.86-1394.15-4651.15-1765.92Z"/></g></g></g><g class="cls-7"><g><g id="Full-logo-36"><path id="Top-25" class="cls-2" d="m-3870.26,1083.24c3053.77-42.85,6606.07-42.85,9662.82,0,14247.96,199.81,55827.67,783.01,67669.64,949.12,1946.27,27.27,3182.11,84.83,3182.11,147.99v434.31S24237.62,2159.18,6643.32,2006.25c-3707.49-32.23-7656.83-32.23-11364.32,0-17594.3,152.93-70000.99,608.41-70000.99,608.41v-434.31c0-63.17,1237.03-120.73,3181.23-147.99,11842.85-166.11,53422.55-749.3,67670.51-949.12Z"/></g><g id="Full-logo-37"><path id="Top-26" class="cls-2" d="m-2935.37,1034.11c2462.72-43.73,5327.47-43.73,7792.6,0,11490.29,203.89,45022.31,798.99,54572.29,968.49,1569.57,27.82,2566.22,86.56,2566.22,151.02v443.17s-42263.46-464.78-56452.42-620.83c-2989.91-32.89-6174.86-32.89-9164.78,0-14188.95,156.05-56452.42,620.83-56452.42,620.83v-443.17c0-64.46,997.6-123.19,2565.51-151.02,9550.68-169.5,43082.7-764.6,54572.99-968.49Z"/></g><g id="Full-logo-38"><path id="Top-27" class="cls-2" d="m-2181.43,983.97c1986.06-44.62,4296.35-44.62,6284.35,0,9266.36,208.05,36308.31,815.3,44009.91,988.25,1265.78,28.39,2069.53,88.32,2069.53,154.1v452.22S16098.93,2104.27,4656.23,1945.04c-2411.22-33.56-4979.73-33.56-7390.95,0-11442.7,159.24-45526.14,633.5-45526.14,633.5v-452.22c0-65.77,804.52-125.71,2068.96-154.1,7702.16-172.96,34744.12-780.2,44010.48-988.25Z"/></g><g id="Full-logo-39"><path id="Top-28" class="cls-2" d="m-1573.41,932.81c1601.66-45.53,3464.8-45.53,5068.03,0,7472.87,212.3,29280.9,831.93,35491.86,1008.42,1020.79,28.97,1668.98,90.13,1668.98,157.24v461.44S13168.81,2075.98,3940.83,1913.49c-1944.53-34.24-4015.91-34.24-5960.44,0-9227.99,162.49-36714.63,646.43-36714.63,646.43v-461.44c0-67.12,648.8-128.27,1668.52-157.24,6211.42-176.49,28019.45-796.12,35492.32-1008.42Z"/></g><g id="Full-logo-40"><path id="Top-29" class="cls-2" d="m-1083.07,880.6c1291.66-46.46,2794.19-46.46,4087.12,0,6026.51,216.63,23613.63,848.91,28622.47,1029,823.22,29.56,1345.95,91.97,1345.95,160.45v470.86S10805.82,2047.1,3363.89,1881.3c-1568.17-34.94-3238.64-34.94-4806.81,0-7441.92,165.8-29608.57,659.62-29608.57,659.62v-470.86c0-68.49,523.23-130.89,1345.58-160.45C-24696.7,1729.52-7109.58,1097.24-1083.07,880.6Z"/></g><g id="Full-logo-41"><path id="Top-30" class="cls-2" d="m-687.64,827.34c1041.66-47.41,2253.38-47.41,3296.06,0,4860.09,221.05,19043.25,866.24,23082.64,1050,663.89,30.16,1085.44,93.84,1085.44,163.73v480.47S8900.17,2017.64,2898.62,1848.45c-1264.65-35.65-2611.8-35.65-3876.46,0-6001.55,169.19-23877.88,673.08-23877.88,673.08v-480.47c0-69.88,421.96-133.56,1085.14-163.73C-19730.89,1693.57-5547.73,1048.39-687.64,827.34Z"/></g><g id="Full-logo-42"><path id="Top-31" class="cls-2" d="m-368.74,772.98c840.05-48.37,1817.24-48.37,2658.12,0,3919.43,225.56,15357.46,883.92,18615.03,1071.43,535.39,30.78,875.36,95.76,875.36,167.07v490.28S7363.37,1987.57,2523.41,1814.93c-1019.88-36.38-2106.29-36.38-3126.18,0-4839.96,172.64-19256.36,686.82-19256.36,686.82v-490.28c0-71.31,340.29-136.29,875.12-167.07C-15726.2,1656.9-4288.17,998.54-368.74,772.98Z"/></g><g id="Full-logo-43"><path id="Top-32" class="cls-2" d="m-111.56,717.51c677.46-49.36,1465.52-49.36,2143.64,0,3160.83,230.17,12385.05,901.96,15012.12,1093.3,431.77,31.41,705.93,97.71,705.93,170.48v500.28S6124.01,1956.89,2220.81,1780.73c-822.49-37.12-1698.62-37.12-2521.11,0-3903.19,176.16-15529.32,700.84-15529.32,700.84v-500.28c0-72.76,274.43-139.07,705.74-170.48C-12496.61,1619.47-3272.39,947.68-111.56,717.51Z"/></g><g id="Full-logo-44"><path id="Top-33" class="cls-2" d="m95.83,660.91c546.34-50.37,1181.87-50.37,1728.74,0,2549.05,234.87,9987.94,920.36,12106.55,1115.61,348.2,32.05,569.3,99.71,569.3,173.96v510.49S5124.52,1925.59,1976.78,1745.83c-663.3-37.88-1369.86-37.88-2033.15,0-3147.74,179.76-12523.64,715.14-12523.64,715.14v-510.49c0-74.25,221.31-141.91,569.14-173.96C-9892.11,1581.28-2453.22,895.78,95.83,660.91Z"/></g><g id="Full-logo-45"><path id="Top-34" class="cls-2" d="m263.09,603.16c440.6-51.4,953.12-51.4,1394.15,0,2055.69,239.66,8054.79,939.15,9763.35,1138.38,280.81,32.7,459.11,101.74,459.11,177.51v520.91S4318.48,1893.65,1779.99,1710.22c-534.92-38.65-1104.72-38.65-1639.64,0-2538.5,183.43-10099.71,729.73-10099.71,729.73v-520.91c0-75.77,178.48-144.8,458.99-177.51C-7791.7,1542.31-1792.6,842.82,263.09,603.16Z"/></g><g id="Full-logo-46"><path id="Top-35" class="cls-2" d="m397.98,544.23c355.32-52.44,768.65-52.44,1124.31,0,1657.81,244.55,6495.8,958.31,7873.67,1161.61,226.46,33.37,370.25,103.82,370.25,181.13v531.54S3668.46,1861.05,1621.28,1673.88c-431.38-39.44-890.91-39.44-1322.29,0-2047.18,187.17-8144.93,744.63-8144.93,744.63v-531.54c0-77.31,143.93-147.76,370.15-181.13C-6097.82,1502.54-1259.84,788.78,397.98,544.23Z"/></g><g id="Full-logo-47"><path id="Top-36" class="cls-2" d="m506.76,484.1c286.55-53.51,619.88-53.51,906.7,0,1336.95,249.54,5238.55,977.87,6349.73,1185.32,182.63,34.05,298.59,105.94,298.59,184.82v542.39S3144.24,1827.79,1493.29,1636.8c-347.89-40.25-718.47-40.25-1066.36,0-1650.95,190.99-6568.49,759.82-6568.49,759.82v-542.39c0-78.89,116.08-150.77,298.51-184.82C-4731.79,1461.96-830.19,733.64,506.76,484.1Z"/></g><g id="Full-logo-48"><path id="Top-37" class="cls-2" d="m594.48,422.73c231.09-54.61,499.9-54.61,731.21,0,1078.18,254.63,4224.64,997.83,5120.75,1209.51,147.28,34.75,240.8,108.1,240.8,188.6v553.46s-3965.76-580.44-5297.17-775.33c-280.56-41.07-579.41-41.07-859.97,0-1331.41,194.89-5297.17,775.33-5297.17,775.33v-553.46c0-80.5,93.61-153.85,240.73-188.6C-3630.15,1420.56-483.7,677.37,594.48,422.73Z"/></g><g id="Full-logo-49"><path id="Top-38" class="cls-2" d="m665.23,360.12c186.36-55.72,403.14-55.72,589.69,0,869.5,259.83,3406.96,1018.19,4129.64,1234.19,118.77,35.46,194.19,110.3,194.19,192.45v564.75s-3198.19-592.29-4271.91-791.15c-226.26-41.91-467.27-41.91-693.52,0-1073.72,198.86-4271.91,791.15-4271.91,791.15v-564.75c0-82.14,75.49-156.99,194.14-192.45C-2741.74,1378.31-204.28,619.95,665.23,360.12Z"/></g><g id="Full-logo-50"><path id="Top-39" class="cls-2" d="m722.28,296.23c150.29-56.86,325.12-56.86,475.55,0,701.21,265.13,2747.55,1038.97,3330.35,1259.38,95.79,36.18,156.61,112.55,156.61,196.37v576.28s-2579.19-604.38-3445.09-807.3c-182.46-42.76-376.83-42.76-559.29,0-865.9,202.92-3445.09,807.3-3445.09,807.3v-576.28c0-83.82,60.88-160.19,156.56-196.37C-2025.27,1335.2,21.07,561.36,722.28,296.23Z"/></g><g id="Full-logo-51"><path id="Top-40" class="cls-2" d="m768.29,231.03c121.2-58.02,262.19-58.02,383.51,0,565.49,270.54,2215.77,1060.17,2685.77,1285.08,77.25,36.92,126.3,114.85,126.3,200.38v588.04s-2079.99-616.71-2778.3-823.77c-147.15-43.64-303.9-43.64-451.04,0-698.31,207.06-2778.3,823.77-2778.3,823.77v-588.04c0-85.53,49.1-163.46,126.26-200.38C-1447.48,1291.21,202.8,501.58,768.29,231.03Z"/></g></g></g><g class="cls-9"><g><g id="Full-logo-52"><path id="Top-41" class="cls-3" d="m3812.79,464.57C-529.19,1095.08-5270.68,1849.18-9084.82,2515.85c-17777.72,3107.5-69657.82,12176.13-84433.28,14758.9-2428.61,424.47-3720.97,710.69-3328.97,736.89l2695.14,180.1S-27027.8,6877.65-4492.55,3079.21C256.09,2278.8,5527.54,1440.41,10676.16,666.73c24433.3-3671.6,97210.53-14607.92,97210.53-14607.92l-2695.14-180.1c-392-26.2-2400.34,212.54-5164.6,613.96C83188.71-11062.15,24070.45-2477.21,3812.79,464.57Z"/></g><g id="Full-logo-53"><path id="Top-42" class="cls-3" d="m3501.97,488.68C-15.24,982.07-3857.92,1588.43-6950.72,2138.08c-14415.6,2562.04-56484.14,10038.85-68465.26,12168.27-1969.31,349.95-3018.96,598.35-2703.76,639.44l2167.11,282.53S-21534.82,5986.47-3265.4,2883.73C584.35,2229.92,4856.52,1555.78,9027.89,943.9,28823.49-1959.87,87786.85-10609.12,87786.85-10609.12l-2167.11-282.53c-315.2-41.09-1940.56,132.62-4179.74,446.75C67800.23-8531.44,19911.64-1813.39,3501.97,488.68Z"/></g><g id="Full-logo-54"><path id="Top-43" class="cls-3" d="m3250.78,502.34C402.16,884.13-2711.95,1370.61-5220.1,1825.63c-11690.51,2121.01-45806.52,8310.79-55522.76,10073.67-1597.03,289.7-2450,507.86-2197.12,561.54l1738.65,369.06S-17082.61,5265.91-2270.86,2726.47C850.29,2191.36,4312.46,1650.51,7691.64,1170.16c16036.2-2279.53,63801.76-9069.41,63801.76-9069.41l-1738.65-369.06c-252.88-53.68-1567.75,66.82-3381.28,309.9C55326.5-6477.72,16541.11-1279.08,3250.78,502.34Z"/></g><g id="Full-logo-55"><path id="Top-44" class="cls-3" d="m3047.95,507.37C741.33,798.24-1782.21,1187.42-3816.49,1565.99c-9481.78,1764.66-37152.14,6914.54-45032.66,8381.25-1295.3,241.02-1988.9,435.1-1786.6,499.5l1390.9,442.79S-13474.03,4683.71-1464.87,2600.24c2530.58-439.03,5336.18-871.71,8073.18-1245.03C19597.01-416.43,58285.25-5693.49,58285.25-5693.49l-1390.9-442.79c-202.3-64.4-1265.42,12.44-2733.9,197.64C45215.37-4810.55,13809.57-849.85,3047.95,507.37Z"/></g><g id="Full-logo-56"><path id="Top-45" class="cls-3" d="m2884.33,505.26c-1867.23,216.69-3912.06,526.87-5562.26,843.72-7691.61,1476.99-30137.76,5787.36-36530.43,7014.98-1050.74,201.72-1615.22,376.73-1453.98,450.36l1108.55,506.25S-10549.27,4213.7-811.72,2499.17c2051.9-361.29,4325.28-706.13,6541.7-992.29C16248.22,148.89,47577.93-3896.11,47577.93-3896.11l-1108.55-506.25c-161.24-73.63-1020.23-32.72-2208.98,105.26C37019.27-3456.66,11595.97-505.9,2884.33,505.26Z"/></g><g id="Full-logo-57"><path id="Top-46" class="cls-3" d="m2752.52,497.2C1241.51,653.28-415.27,899.28-1754.18,1166.36c-6240.7,1245.01-24452.72,4878.39-29639.51,5913.21-852.54,170.03-1312.41,330.03-1184.53,411.69l879.2,561.48S-8178.8,3834.67-282.47,2418.54c1663.92-298.41,3505.88-571.91,5300.28-786.99,8515.5-1020.71,33879.86-4061.07,33879.86-4061.07l-879.2-561.48c-127.88-81.67-821.34-70.41-1783.31,28.97C30375.44-2356.63,9802.22-231.16,2752.52,497.2Z"/></g><g id="Full-logo-58"><path id="Top-47" class="cls-3" d="m2646.52,484.15C1424.31,590.59,82.09,784.44-1004.54,1011.44c-5064.8,1058.2-19845.23,4146.43-24054.7,5025.98-691.9,144.51-1067.04,292.81-966.27,381.55l692.79,610.12S-6257.63,3529.45,146.36,2354.52c1349.45-247.59,2841.7-463.1,4293.96-620.14C11332.21,989.12,31860.44-1230.78,31860.44-1230.78l-692.79-610.12c-100.77-88.74-659.99-102.1-1438.09-34.31C24989.81-1462.31,8348.79-12.64,2646.52,484.15Z"/></g><g id="Full-logo-59"><path id="Top-48" class="cls-3" d="m2561.45,466.89c-988.05,65.69-2075.28,217.12-2957.45,411.9-4111.81,908.03-16111.17,3558.06-19528.59,4312.81-561.71,123.99-868.23,263.29-789.51,358.34l541.19,653.53S-4700.65,3284.11,493.78,2303.98c1094.57-206.54,2303.33-374.89,3478.22-484.43C9547.56,1299.66,26154.98-248.91,26154.98-248.91l-541.19-653.53c-78.72-95.05-529.05-128.94-1158.08-87.09C20624.04-734.66,7171.24,160.21,2561.45,466.89Z"/></g><g id="Full-logo-60"><path id="Top-49" class="cls-3" d="m2493.37,446.05c-798.18,32.14-1678.7,149.03-2395.18,317.98-3339.51,787.61-13085.1,3086.2-15860.65,3740.87-456.2,107.54-707.17,240.03-646.4,340.8l417.79,692.81S-3438.88,3087.34,775.21,2264.4c888-173.41,1866.94-303.38,2816.94-373.97,4508.31-335.03,17936.82-1333.01,17936.82-1333.01l-417.79-692.81c-60.77-100.77-422.77-151.88-930.92-131.4C17084.92-142.04,6217.31,295.93,2493.37,446.05Z"/></g><g id="Full-logo-61"><path id="Top-50" class="cls-3" d="m2439.09,422.13c-644.2,4.39-1357.16,93.15-1939.37,241.44-2713.68,691.32-10632.93,2708.93-12888.34,3283.57-370.71,94.39-576.71,221.86-530.57,327.87l317.22,728.83S-2416.41,2930.01,1003.14,2233.76c720.57-146.72,1513.22-245.4,2280.87-283.95,3642.95-182.98,14493.88-728.05,14493.88-728.05l-317.22-728.83c-46.14-106.01-336.46-171.69-746.58-168.87-2498.24,17.15-11269.43,77.39-14275,98.07Z"/></g><g id="Full-logo-62"><path id="Top-51" class="cls-3" d="m2396.02,395.52c-519.33-18.65-1096.44,47.14-1569.85,178.98C-1380.41,1189.13-7819.8,2982.95-9653.74,3493.85c-301.43,83.91-471.05,207.83-436.84,318.71l235.15,762.33S-1587.91,2804.71,1187.71,2210.39c584.88-125.24,1226.5-198.39,1846.28-210.49,2941.22-57.45,11701.99-228.64,11701.99-228.64l-235.15-762.33c-34.2-110.88-266.34-189-596.96-200.85-2013.96-72.21-9084.89-325.73-11507.84-412.55Z"/></g><g id="Full-logo-63"><path id="Top-52" class="cls-3" d="m2362.05,366.57c-418.03-37.9-885.02,9.12-1270.27,127.92C-703.94,1048.35-5944.32,2664.84-7436.78,3125.24c-245.3,75.61-385.49,197.18-361.05,312.65l168.07,793.89S-916.64,2705.41,1337.12,2192.95c474.92-107.99,994.1-160.27,1493.95-150.44,2372.13,46.63,9437.77,185.46,9437.77,185.46l-168.07-793.89c-24.45-115.47-209.34-204.31-475.48-228.41-1621.14-146.86-7312.89-662.46-9263.25-839.09Z"/></g><g id="Full-logo-64"><path id="Top-53" class="cls-3" d="m2335.49,335.51c-335.85-54.09-713.54-22.44-1027.39,86.09C-154.76,927.64-4423.8,2404.56-5639.62,2825.22c-199.83,69.07-316.24,189.29-299.79,309.13l113.11,823.99S-372.83,2627.26,1458.03,2180.35c385.8-94.18,805.71-129.36,1208.3-101.25,1910.53,133.39,7601.25,530.63,7601.25,530.63l-113.11-823.99c-16.45-119.85-162.97-218.03-376.79-252.44-1302.44-209.64-5875.26-945.64-7442.2-1197.8Z"/></g><g id="Full-logo-65"><path id="Top-54" class="cls-3" d="m2314.95,302.56c-269.16-67.81-574.46-48.79-830.46,51.74C291.24,823.04-3190.99,2191.11-4182.74,2580.77c-163,63.97-260.21,183.64-250.32,307.71l67.97,853.02S67.65,2566.3,1555.84,2171.73c313.59-83.15,653.01-104.29,976.69-60.85,1536.06,206.17,6111.37,820.2,6111.37,820.2l-67.97-853.02c-9.89-124.07-125.21-230.5-296.57-273.64C7235.54,1541.57,3570.75,618.73,2314.95,302.56Z"/></g><g id="Full-logo-66"><path id="Top-55" class="cls-3" d="m2299.33,267.87c-215.02-79.55-461.62-70.94-670.77,23.42-974.9,440.01-3819.96,1724.25-4630.23,2090.03-133.17,60.05-214.88,179.85-210.41,308.03l30.78,881.32S424.38,2519.35,1634.91,2166.36c255.08-74.38,529.24-83.96,788.89-27.55,1232.2,267.68,4902.44,1064.93,4902.44,1064.93l-30.78-881.32c-4.48-128.19-94.43-241.99-231.32-292.61-833.88-308.37-3761.58-1391.02-4764.8-1761.95Z"/></g><g id="Full-logo-67"><path id="Top-56" class="cls-3" d="m2287.72,231.57c-171.06-89.7-370.05-89.7-541.28,0-798.12,418.27-3127.26,1639.06-3790.6,1986.77-109.02,57.08-178.25,177.56-178.25,309.79v909.13s2935.63-953.45,3921.2-1273.58c207.68-67.46,428.91-67.46,636.59,0,985.57,320.13,3921.2,1273.58,3921.2,1273.58v-909.13c0-132.23-69.29-252.72-178.2-309.79-663.39-347.71-2992.54-1568.5-3790.65-1986.77Z"/></g></g></g></svg>