<?xml version="1.0" encoding="utf-8"?>
<!-- Generator: Adobe Illustrator 27.2.0, SVG Export Plug-In . SVG Version: 6.00 Build 0)  -->
<svg version="1.1" id="Livello_1" xmlns="http://www.w3.org/2000/svg" xmlns:xlink="http://www.w3.org/1999/xlink" x="0px" y="0px"
	 viewBox="0 0 1921 1081" style="enable-background:new 0 0 1921 1081;" xml:space="preserve">
<style type="text/css">
	.st0{clip-path:url(#SVGID_00000096738527782744815920000015776044100760537483_);}
	.st1{fill:none;stroke:#000000;stroke-width:4;stroke-miterlimit:10;}
</style>
<g>
	<g>
		<defs>
			<rect id="SVGID_1_" x="0.5" y="0.5" width="1920" height="1080"/>
		</defs>
		<clipPath id="SVGID_00000039092360616450750200000016179533644800276866_">
			<use xlink:href="#SVGID_1_"  style="overflow:visible;"/>
		</clipPath>
		<g style="clip-path:url(#SVGID_00000039092360616450750200000016179533644800276866_);">
			<g>
				<g id="Full-logo">
					<path id="Top" class="st1" d="M2965.3,454.9c-4342,630.5-9083.5,1384.6-12897.6,2051.3
						C-27710,5613.7-79590.1,14682.3-94365.6,17265.1c-2428.6,424.5-3721,710.7-3329,736.9l2695.1,180.1
						c0,0,67124.1-11314.1,89659.4-15112.5C-591.4,2269.1,4680,1430.8,9828.6,657.1c24433.3-3671.6,97210.5-14607.9,97210.5-14607.9
						l-2695.1-180.1c-392-26.2-2400.3,212.5-5164.6,614C82341.2-11071.8,23222.9-2486.9,2965.3,454.9z"/>
				</g>
				<g id="Full-logo-2">
					<path id="Top-2" class="st1" d="M2654.4,479C-862.8,972.4-4705.4,1578.8-7798.2,2128.4
						c-14415.6,2562-56484.1,10038.8-68465.3,12168.3c-1969.3,350-3019,598.3-2703.8,639.4l2167.1,282.5
						c0,0,54417.8-9241.8,72687.2-12344.6C-263.2,2220.3,4009,1546.1,8180.4,934.2c19795.6-2903.8,78759-11553,78759-11553
						l-2167.1-282.5c-315.2-41.1-1940.6,132.6-4179.7,446.8C66952.7-8541.1,19064.1-1823,2654.4,479z"/>
				</g>
				<g id="Full-logo-3">
					<path id="Top-3" class="st1" d="M2403.2,492.7C-445.4,874.5-3559.5,1360.9-6067.6,1816
						c-11690.5,2121-45806.5,8310.8-55522.8,10073.7c-1597,289.7-2450,507.9-2197.1,561.5l1738.6,369.1
						c0,0,44118.7-7564,58930.5-10103.4c3121.1-535.1,6583.3-1076,9962.5-1556.3C22880.3-1119,70645.9-7908.9,70645.9-7908.9
						L68907.2-8278c-252.9-53.7-1567.8,66.8-3381.3,309.9C54479-6487.4,15693.6-1288.7,2403.2,492.7z"/>
				</g>
				<g id="Full-logo-4">
					<path id="Top-4" class="st1" d="M2200.4,497.7c-2306.6,290.9-4830.2,680-6864.4,1058.6
						C-14145.8,3321-41816.1,8470.9-49696.7,9937.6c-1295.3,241-1988.9,435.1-1786.6,499.5l1390.9,442.8
						c0,0,35770.8-6205.8,47780-8289.3c2530.6-439,5336.2-871.7,8073.2-1245C18749.5-426.1,57437.7-5703.1,57437.7-5703.1
						l-1390.9-442.8c-202.3-64.4-1265.4,12.4-2733.9,197.6C44367.8-4820.2,12962-859.5,2200.4,497.7z"/>
				</g>
				<g id="Full-logo-5">
					<path id="Top-5" class="st1" d="M2036.8,495.6c-1867.2,216.7-3912.1,526.9-5562.3,843.7
						c-7691.6,1477-30137.8,5787.4-36530.4,7015c-1050.7,201.7-1615.2,376.7-1454,450.4l1108.6,506.2
						c0,0,29004.5-5106.9,38742.1-6821.4c2051.9-361.3,4325.3-706.1,6541.7-992.3c10518.2-1358,41848-5403,41848-5403L45621.9-4412
						c-161.2-73.6-1020.2-32.7-2209,105.3C36171.7-3466.3,10748.4-515.5,2036.8,495.6z"/>
				</g>
				<g id="Full-logo-6">
					<path id="Top-6" class="st1" d="M1905,487.5C394,643.6-1262.8,889.6-2601.7,1156.7c-6240.7,1245-24452.7,4878.4-29639.5,5913.2
						c-852.5,170-1312.4,330-1184.5,411.7l879.2,561.5c0,0,23520.2-4218.1,31416.6-5634.2C534,2110.5,2376,1837,4170.4,1621.9
						c8515.5-1020.7,33879.9-4061.1,33879.9-4061.1l-879.2-561.5c-127.9-81.7-821.3-70.4-1783.3,29
						C29527.9-2366.3,8954.7-240.8,1905,487.5z"/>
				</g>
				<g id="Full-logo-7">
					<path id="Top-7" class="st1" d="M1799,474.5C576.8,580.9-765.4,774.8-1852.1,1001.8
						c-5064.8,1058.2-19845.2,4146.4-24054.7,5026c-691.9,144.5-1067,292.8-966.3,381.5l692.8,610.1
						c0,0,19075.1-3499.6,25479.1-4674.6c1349.4-247.6,2841.7-463.1,4294-620.1c6891.9-745.3,27420.1-2965.2,27420.1-2965.2
						l-692.8-610.1c-100.8-88.7-660-102.1-1438.1-34.3C24142.3-1472,7501.3-22.3,1799,474.5z"/>
				</g>
				<g id="Full-logo-8">
					<path id="Top-8" class="st1" d="M1713.9,457.2c-988,65.7-2075.3,217.1-2957.4,411.9c-4111.8,908-16111.2,3558.1-19528.6,4312.8
						c-561.7,124-868.2,263.3-789.5,358.3l541.2,653.5c0,0,15472.3-2919.4,20666.7-3899.5c1094.6-206.5,2303.3-374.9,3478.2-484.4
						C8700,1290,25307.4-258.6,25307.4-258.6l-541.2-653.5c-78.7-95-529.1-128.9-1158.1-87.1
						C19776.5-744.3,6323.7,150.6,1713.9,457.2z"/>
				</g>
				<g id="Full-logo-9">
					<path id="Top-9" class="st1" d="M1645.8,436.4c-798.2,32.1-1678.7,149-2395.2,318C-4088.8,1542-13834.4,3840.6-16610,4495.2
						c-456.2,107.5-707.2,240-646.4,340.8l417.8,692.8c0,0,12552.2-2451.2,16766.3-3274.1c888-173.4,1866.9-303.4,2816.9-374
						c4508.3-335,17936.8-1333,17936.8-1333L20263.7-145c-60.8-100.8-422.8-151.9-930.9-131.4
						C16237.4-151.7,5369.8,286.3,1645.8,436.4z"/>
				</g>
				<g id="Full-logo-10">
					<path id="Top-10" class="st1" d="M1591.6,412.5c-644.2,4.4-1357.2,93.1-1939.4,241.4
						c-2713.7,691.3-10632.9,2708.9-12888.3,3283.6c-370.7,94.4-576.7,221.9-530.6,327.9l317.2,728.8
						c0,0,10185.6-2073.8,13605.1-2770.1c720.6-146.7,1513.2-245.4,2280.9-283.9c3643-183,14493.9-728.1,14493.9-728.1l-317.2-728.8
						c-46.1-106-336.5-171.7-746.6-168.9C13368.3,331.6,4597.1,391.8,1591.6,412.5L1591.6,412.5z"/>
				</g>
				<g id="Full-logo-11">
					<path id="Top-11" class="st1" d="M1548.5,385.9C1029.2,367.2,452.1,433-21.4,564.8c-2206.6,614.6-8646,2408.4-10479.9,2919.4
						c-301.4,83.9-471,207.8-436.8,318.7l235.2,762.3c0,0,8267.5-1770.2,11043.1-2364.5c584.9-125.2,1226.5-198.4,1846.3-210.5
						c2941.2-57.4,11702-228.6,11702-228.6l-235.2-762.3c-34.2-110.9-266.3-189-597-200.9C11042.4,726.2,3971.5,472.7,1548.5,385.9
						L1548.5,385.9z"/>
				</g>
				<g id="Full-logo-12">
					<path id="Top-12" class="st1" d="M1514.5,356.9c-418-37.9-885,9.1-1270.3,127.9c-1795.7,553.9-7036.1,2170.4-8528.5,2630.8
						c-245.3,75.6-385.5,197.2-361,312.6l168.1,793.9c0,0,6713.1-1526.4,8966.9-2038.8c474.9-108,994.1-160.3,1493.9-150.4
						c2372.1,46.6,9437.8,185.5,9437.8,185.5l-168.1-793.9c-24.5-115.5-209.3-204.3-475.5-228.4
						C9156.6,1049.2,3464.9,533.5,1514.5,356.9L1514.5,356.9z"/>
				</g>
				<g id="Full-logo-13">
					<path id="Top-13" class="st1" d="M1488,325.9c-335.8-54.1-713.5-22.4-1027.4,86.1c-1462.9,506-5731.9,1983-6947.7,2403.6
						c-199.8,69.1-316.2,189.3-299.8,309.1l113.1,824c0,0,5453.5-1331.1,7284.3-1778c385.8-94.2,805.7-129.4,1208.3-101.2
						c1910.5,133.4,7601.3,530.6,7601.3,530.6l-113.1-824c-16.5-119.8-163-218-376.8-252.4C7627.7,1314,3054.9,578,1488,325.9
						L1488,325.9z"/>
				</g>
				<g id="Full-logo-14">
					<path id="Top-14" class="st1" d="M1467.4,292.9C1198.3,225.1,893,244.1,637,344.6C-556.3,813.4-4038.5,2181.5-5030.3,2571.1
						c-163,64-260.2,183.6-250.3,307.7l68,853c0,0,4432.7-1175.2,5920.9-1569.8c313.6-83.1,653-104.3,976.7-60.9
						c1536.1,206.2,6111.4,820.2,6111.4,820.2l-68-853c-9.9-124.1-125.2-230.5-296.6-273.6C6388,1531.9,2723.2,609.1,1467.4,292.9z"
						/>
				</g>
				<g id="Full-logo-15">
					<path id="Top-15" class="st1" d="M1451.8,258.2c-215-79.6-461.6-70.9-670.8,23.4c-974.9,440-3820,1724.2-4630.2,2090
						c-133.2,60.1-214.9,179.9-210.4,308l30.8,881.3c0,0,3605.7-1051.3,4816.2-1404.3c255.1-74.4,529.2-84,788.9-27.6
						c1232.2,267.7,4902.4,1064.9,4902.4,1064.9l-30.8-881.3c-4.5-128.2-94.4-242-231.3-292.6
						C5382.7,1711.8,2455,629.1,1451.8,258.2L1451.8,258.2z"/>
				</g>
				<g id="Full-logo-16">
					<path id="Top-16" class="st1" d="M1440.2,221.9c-171.1-89.7-370.1-89.7-541.3,0C100.8,640.2-2228.4,1861-2891.7,2208.7
						c-109,57.1-178.2,177.6-178.2,309.8v909.1c0,0,2935.6-953.5,3921.2-1273.6c207.7-67.5,428.9-67.5,636.6,0
						C2473.4,2474.2,5409,3427.6,5409,3427.6v-909.1c0-132.2-69.3-252.7-178.2-309.8C4567.5,1861,2238.3,640.2,1440.2,221.9
						L1440.2,221.9z"/>
				</g>
			</g>
		</g>
	</g>
</g>
</svg>
