<?xml version="1.0" encoding="utf-8"?>
<!-- Generator: Adobe Illustrator 27.2.0, SVG Export Plug-In . SVG Version: 6.00 Build 0)  -->
<svg version="1.1" id="Livello_1" xmlns="http://www.w3.org/2000/svg" xmlns:xlink="http://www.w3.org/1999/xlink" x="0px" y="0px"
	 viewBox="0 0 1920 1080" style="enable-background:new 0 0 1920 1080;" xml:space="preserve">
<style type="text/css">
	.st0{clip-path:url(#SVGID_00000162337163376256908820000007530967385123454607_);}
	.st1{fill:none;stroke:#000000;stroke-width:4;stroke-miterlimit:10;}
</style>
<g>
	<defs>
		<rect id="SVGID_1_" width="1920" height="1080"/>
	</defs>
	<clipPath id="SVGID_00000018226818115838002240000010178477067000787587_">
		<use xlink:href="#SVGID_1_"  style="overflow:visible;"/>
	</clipPath>
	<g style="clip-path:url(#SVGID_00000018226818115838002240000010178477067000787587_);">
		<g>
			<g id="Full-logo-10">
				<path id="Bottom" class="st1" d="M3965.1,12.7c-1519.2,43.2-3284.7,43.2-4802.4,0c-7081.1-201.1-27746-788.3-33631.8-955.5
					c-966.3-27.5-1581.1-85.5-1581.1-149.1v-437.2c0,0,26045.8,458.6,34790,612.5c1842.6,32.4,3805.4,32.4,5648,0
					c8744.3-154,34790.1-612.5,34790.1-612.5v437.2c0,63.6-614.2,121.6-1581.5,149.1C31711.1-775.6,11046.3-188.4,3965.1,12.7z"/>
			</g>
			<g id="Full-logo-11">
				<path id="Bottom-2" class="st1" d="M3500.3,62.2c-1225.2,44-2648.9,44-3872.9,0c-5710.6-205.2-22375.8-804.4-27122.4-975
					c-779.2-28-1275-87.2-1275-152.1v-446.2c0,0,21004.7,467.9,28056.5,625c1486,33.1,3068.9,33.1,4554.8,0
					c7051.8-157.1,28056.5-625.1,28056.5-625.1v446.2c0,64.9-495.3,124.1-1275.4,152.1C25876.1-742.2,9210.9-143,3500.3,62.2z"/>
			</g>
			<g id="Full-logo-12">
				<path id="Bottom-3" class="st1" d="M3125.4,112.7c-988,45-2136.2,45-3123.3,0c-4605.3-209.4-18045-820.8-21872.9-994.9
					c-628.4-28.6-1028.3-89-1028.3-155.2v-455.3c0,0,16939.3,477.5,22626.2,637.8c1198.4,33.8,2474.9,33.8,3673.3,0
					c5687-160.3,22626.2-637.8,22626.2-637.8v455.3c0,66.2-399.5,126.6-1028.5,155.2C21170.4-708.1,7730.7-96.7,3125.4,112.7z"/>
			</g>
			<g id="Full-logo-13">
				<path id="Bottom-4" class="st1" d="M2823.1,164.2c-796.8,45.9-1722.8,45.9-2518.8,0C-3409.7-49.5-14248.2-673.4-17335.2-851
					c-506.8-29.2-829.2-90.8-829.2-158.4v-464.5c0,0,13660.7,487.2,18246.9,650.8c966.4,34.5,1995.9,34.5,2962.3,0
					c4586.2-163.6,18246.9-650.8,18246.9-650.8v464.5c0,67.6-322.1,129.2-829.5,158.4C17375.5-673.4,6537-49.5,2823.1,164.2z"/>
			</g>
			<g id="Full-logo-14">
				<path id="Bottom-5" class="st1" d="M2579.2,216.8c-642.6,46.8-1389.3,46.8-2031.3,0C-2447.2-1.3-11187.9-637.9-13677.4-819.2
					c-408.7-29.8-668.7-92.7-668.7-161.6v-474c0,0,11016.7,497.1,14715.3,664.1c779.4,35.2,1609.6,35.2,2389,0
					c3698.6-167,14715.3-664.1,14715.3-664.1v474c0,69-259.8,131.8-668.9,161.6C14315.1-637.9,5574.4-1.3,2579.2,216.8z"/>
			</g>
			<g id="Full-logo-15">
				<path id="Bottom-6" class="st1" d="M2382.6,270.4c-518.2,47.8-1120.4,47.8-1638.1,0C-1670.9,47.9-8719.9-601.7-10727.6-786.7
					c-329.6-30.4-539.3-94.5-539.3-164.9v-483.7c0,0,8884.4,507.3,11867.2,677.7c628.5,35.9,1298.1,35.9,1926.6,0
					C5509.6-928,14394-1435.3,14394-1435.3v483.7c0,70.4-209.5,134.5-539.5,164.9C11847-601.7,4798,47.9,2382.6,270.4z"/>
			</g>
			<g id="Full-logo-16">
				<path id="Bottom-7" class="st1" d="M2224.1,325.1c-417.9,48.7-903.6,48.7-1321.1,0c-1947.9-227-7632.6-889.9-9251.7-1078.6
					c-265.8-31-434.9-96.5-434.9-168.3v-493.6c0,0,7164.9,517.6,9570.3,691.5c506.9,36.6,1046.8,36.6,1553.7,0
					c2405.4-173.8,9570.3-691.5,9570.3-691.5v493.6c0,71.8-169,137.2-435,168.3C9856.6-564.8,4172,98.1,2224.1,325.1z"/>
			</g>
			<g id="Full-logo-17">
				<path id="Bottom-8" class="st1" d="M2096.2,381c-337,49.7-728.7,49.7-1065.4,0c-1570.9-231.7-6155.3-908-7461-1100.7
					c-214.4-31.7-350.8-98.4-350.8-171.7v-503.7c0,0,5778.1,528.2,7718,705.6c408.8,37.3,844.2,37.3,1253,0
					c1939.9-177.4,7718-705.6,7718-705.6v503.7c0,73.3-136.3,140-350.8,171.7C8251.5-527.1,3667.1,149.3,2096.2,381z"/>
			</g>
			<g id="Full-logo-18">
				<path id="Bottom-9" class="st1" d="M1993.1,437.9c-271.8,50.7-587.7,50.7-859.2,0c-1266.9-236.4-4964-926.6-6017-1123.1
					c-172.9-32.3-282.9-100.5-282.9-175.2v-513.9c0,0,4659.8,539,6224.2,720c329.7,38.1,680.8,38.1,1010.5,0
					c1564.4-181,6224.2-720,6224.2-720v513.9c0,74.8-109.9,142.9-282.9,175.2C6957-488.6,3259.9,201.5,1993.1,437.9z"/>
			</g>
			<g id="Full-logo-19">
				<path id="Bottom-10" class="st1" d="M1909.9,496.1c-219.2,51.8-473.9,51.8-692.9,0C195.3,254.8-2786.2-449.4-3635.4-650
					c-139.4-33-228.1-102.5-228.1-178.8v-524.4c0,0,3757.9,550,5019.5,734.7c265.8,38.9,549,38.9,814.9,0
					c1261.6-184.7,5019.5-734.7,5019.5-734.7v524.4c0,76.3-88.6,145.8-228.2,178.8C5913.1-449.4,2931.6,254.8,1909.9,496.1z"/>
			</g>
			<g id="Full-logo-20">
				<path id="Bottom-11" class="st1" d="M1842.8,555.4c-176.8,52.8-382.2,52.8-558.8,0C460.1,309.2-1944.3-409.4-2629.2-614
					c-112.4-33.6-184-104.6-184-182.4v-535.1c0,0,3030.5,561.2,4048,749.7c214.4,39.7,442.8,39.7,657.2,0
					c1017.4-188.5,4048-749.7,4048-749.7v535.1c0,77.8-71.5,148.8-184,182.4C5071.2-409.4,2666.7,309.2,1842.8,555.4L1842.8,555.4z"
					/>
			</g>
			<g id="Full-logo-21">
				<path id="Bottom-12" class="st1" d="M1788.7,616c-142.6,53.9-308.2,53.9-450.6,0C673.7,364.8-1265.4-368.5-1817.7-577.3
					c-90.7-34.3-148.4-106.7-148.4-186.2v-546c0,0,2444,572.7,3264.5,765c172.9,40.5,357.1,40.5,530,0
					c820.5-192.3,3264.5-765,3264.5-765v546c0,79.4-57.6,151.8-148.4,186.2C4392.3-368.5,2453.2,364.8,1788.7,616L1788.7,616z"/>
			</g>
			<g id="Full-logo-22">
				<path id="Bottom-13" class="st1" d="M1745.1,677.7c-115,55-248.6,55-363.4,0C845.8,421.4-717.9-326.8-1163.3-539.9
					c-73.1-35-119.6-108.9-119.6-190v-557.2c0,0,1971,584.4,2632.7,780.6c139.4,41.3,288,41.3,427.4,0
					c661.7-196.2,2632.7-780.6,2632.7-780.6v557.2c0,81.1-46.5,154.9-119.7,190C3844.7-326.8,2280.9,421.4,1745.1,677.7
					L1745.1,677.7z"/>
			</g>
		</g>
	</g>
</g>
</svg>
