<?xml version="1.0" encoding="UTF-8"?><svg id="Livello_1" xmlns="http://www.w3.org/2000/svg" xmlns:xlink="http://www.w3.org/1999/xlink" viewBox="0 0 1920 1080"><defs><style>.cls-1,.cls-2,.cls-3{fill:none;}.cls-4{clip-path:url(#clippath);}.cls-2{stroke:#ffa600;}.cls-2,.cls-3{fill-rule:evenodd;stroke-miterlimit:10;stroke-width:4px;}.cls-3{stroke:#fff;}.cls-5{clip-path:url(#clippath-1);}.cls-6{clip-path:url(#clippath-4);}.cls-7{clip-path:url(#clippath-3);}.cls-8{clip-path:url(#clippath-2);}</style><clipPath id="clippath"><rect class="cls-1" x="-1974.08" width="1920" height="1080"/></clipPath><clipPath id="clippath-1"><rect class="cls-1" width="1920" height="1080"/></clipPath><clipPath id="clippath-2"><rect class="cls-1" x="-3953.63" y="-1133.61" width="1920" height="1080"/></clipPath><clipPath id="clippath-3"><rect class="cls-1" x="-1974.08" y="-1133.61" width="1920" height="1080"/></clipPath><clipPath id="clippath-4"><rect class="cls-1" x="-3953.63" width="1920" height="1080"/></clipPath></defs><g class="cls-4"><g><g id="Full-logo"><path id="Top" class="cls-2" d="m990.68,454.42C-3351.3,1084.92-8092.79,1839.02-11906.93,2505.7c-17777.72,3107.5-69657.82,12176.13-84433.28,14758.9-2428.61,424.47-3720.97,710.69-3328.97,736.89l2695.14,180.1S-29849.91,6867.5-7314.66,3069.06C-2566.02,2268.65,2705.43,1430.26,7854.05,656.57c24433.3-3671.6,97210.53-14607.92,97210.53-14607.92l-2695.14-180.1c-392-26.2-2400.34,212.54-5164.6,613.96C80366.61-11072.3,21248.34-2487.36,990.68,454.42Z"/></g><g id="Full-logo-2"><path id="Top-2" class="cls-2" d="m679.86,478.53c-3517.21,493.39-7359.88,1099.75-10452.69,1649.39-14415.6,2562.04-56484.14,10038.85-68465.26,12168.27-1969.31,349.95-3018.96,598.35-2703.76,639.44l2167.11,282.53S-24356.93,5976.32-6087.5,2873.58C-2237.76,2219.76,2034.41,1545.63,6205.78,933.75,26001.38-1970.02,84964.74-10619.27,84964.74-10619.27l-2167.11-282.53c-315.2-41.09-1940.56,132.62-4179.74,446.75C64978.12-8541.6,17089.53-1823.54,679.86,478.53Z"/></g><g id="Full-logo-3"><path id="Top-3" class="cls-2" d="m428.67,492.19c-2848.62,381.79-5962.73,868.27-8470.88,1323.29-11690.51,2121.01-45806.52,8310.79-55522.76,10073.67-1597.03,289.7-2450,507.86-2197.12,561.54l1738.65,369.06S-19904.72,5255.76-5092.96,2716.32C-1971.82,2181.21,1490.36,1640.36,4869.53,1160.01c16036.2-2279.53,63801.76-9069.41,63801.76-9069.41l-1738.65-369.06c-252.88-53.68-1567.75,66.82-3381.28,309.9C52504.39-6487.87,13719-1289.23,428.67,492.19Z"/></g><g id="Full-logo-4"><path id="Top-4" class="cls-2" d="m225.84,497.22c-2306.62,290.87-4830.16,680.04-6864.44,1058.62-9481.78,1764.66-37152.14,6914.54-45032.66,8381.25-1295.3,241.02-1988.9,435.1-1786.6,499.5l1390.9,442.79S-16296.14,4673.56-4286.98,2590.08c2530.58-439.03,5336.18-871.71,8073.18-1245.03C16774.9-426.58,55463.15-5703.64,55463.15-5703.64l-1390.9-442.79c-202.3-64.4-1265.42,12.44-2733.9,197.64C42393.26-4820.71,10987.46-860.01,225.84,497.22Z"/></g><g id="Full-logo-5"><path id="Top-5" class="cls-2" d="m62.22,495.11c-1867.23,216.69-3912.06,526.87-5562.26,843.72-7691.61,1476.99-30137.76,5787.36-36530.43,7014.98-1050.74,201.72-1615.22,376.73-1453.98,450.36l1108.55,506.25S-13371.38,4203.54-3633.83,2489.02c2051.9-361.29,4325.28-706.13,6541.7-992.29C13426.11,138.73,44755.82-3906.27,44755.82-3906.27l-1108.55-506.25c-161.24-73.63-1020.23-32.72-2208.98,105.26C34197.16-3466.81,8773.86-516.05,62.22,495.11Z"/></g><g id="Full-logo-6"><path id="Top-6" class="cls-2" d="m-69.58,487.05c-1511.01,156.08-3167.79,402.08-4506.71,669.16-6240.7,1245.01-24452.72,4878.39-29639.51,5913.21-852.54,170.03-1312.41,330.03-1184.53,411.69l879.2,561.48S-11000.91,3824.52-3104.58,2408.39c1663.92-298.41,3505.88-571.91,5300.28-786.99,8515.5-1020.71,33879.86-4061.07,33879.86-4061.07l-879.2-561.48c-127.88-81.67-821.34-70.41-1783.31,28.97C27553.33-2366.79,6980.11-241.32-69.58,487.05Z"/></g><g id="Full-logo-7"><path id="Top-7" class="cls-2" d="m-175.59,474c-1222.21,106.44-2564.43,300.29-3651.06,527.29-5064.8,1058.2-19845.23,4146.43-24054.7,5025.98-691.9,144.51-1067.04,292.81-966.27,381.55l692.79,610.12S-9079.73,3519.3-2675.75,2344.36c1349.45-247.59,2841.7-463.1,4293.96-620.14C8510.1,978.97,29038.33-1240.93,29038.33-1240.93l-692.79-610.12c-100.77-88.74-659.99-102.1-1438.09-34.31C22167.7-1472.46,5526.68-22.79-175.59,474Z"/></g><g id="Full-logo-8"><path id="Top-8" class="cls-2" d="m-260.66,456.74c-988.05,65.69-2075.28,217.12-2957.45,411.9-4111.81,908.03-16111.17,3558.06-19528.59,4312.81-561.71,123.99-868.23,263.29-789.51,358.34l541.19,653.53S-7522.76,3273.95-2328.33,2293.82c1094.57-206.54,2303.33-374.89,3478.22-484.43C6725.45,1289.51,23332.87-259.07,23332.87-259.07l-541.19-653.53c-78.72-95.05-529.05-128.94-1158.08-87.09C17801.93-744.81,4349.13,150.06-260.66,456.74Z"/></g><g id="Full-logo-9"><path id="Top-9" class="cls-2" d="m-328.74,435.9c-798.18,32.14-1678.7,149.03-2395.18,317.98-3339.51,787.61-13085.1,3086.2-15860.65,3740.87-456.2,107.54-707.17,240.03-646.4,340.8l417.79,692.81S-6260.99,3077.19-2046.9,2254.25c888-173.41,1866.94-303.38,2816.94-373.97,4508.31-335.03,17936.82-1333.01,17936.82-1333.01l-417.79-692.81c-60.77-100.77-422.77-151.88-930.92-131.4C14262.81-152.19,3395.2,285.78-328.74,435.9Z"/></g><g id="Full-logo-10"><path id="Top-10" class="cls-2" d="m-383.02,411.97c-644.2,4.39-1357.16,93.15-1939.37,241.44-2713.68,691.32-10632.93,2708.93-12888.34,3283.57-370.71,94.39-576.71,221.86-530.57,327.87l317.22,728.83S-5238.51,2919.86-1818.97,2223.61c720.57-146.72,1513.22-245.4,2280.87-283.95,3642.95-182.98,14493.88-728.05,14493.88-728.05l-317.22-728.83c-46.14-106.01-336.46-171.69-746.58-168.87-2498.24,17.15-11269.43,77.39-14275,98.07Z"/></g><g id="Full-logo-11"><path id="Top-11" class="cls-2" d="m-426.09,385.37c-519.33-18.65-1096.44,47.14-1569.85,178.98-2206.58,614.63-8645.96,2408.45-10479.91,2919.35-301.43,83.91-471.05,207.83-436.84,318.71l235.15,762.33S-4410.01,2794.55-1634.4,2200.23c584.88-125.24,1226.5-198.39,1846.28-210.49,2941.22-57.45,11701.99-228.64,11701.99-228.64l-235.15-762.33c-34.2-110.88-266.34-189-596.96-200.85C9067.79,725.72,1996.86,472.2-426.09,385.37Z"/></g><g id="Full-logo-12"><path id="Top-12" class="cls-2" d="m-460.06,356.42c-418.03-37.9-885.02,9.12-1270.27,127.92-1795.71,553.87-7036.09,2170.35-8528.55,2630.75-245.3,75.61-385.49,197.18-361.05,312.65l168.07,793.89S-3738.75,2695.26-1484.98,2182.79c474.92-107.99,994.1-160.27,1493.95-150.44,2372.13,46.63,9437.77,185.46,9437.77,185.46l-168.07-793.89c-24.45-115.47-209.34-204.31-475.48-228.41C7182.05,1048.65,1490.3,533.05-460.06,356.42Z"/></g><g id="Full-logo-13"><path id="Top-13" class="cls-2" d="m-486.62,325.36c-335.85-54.09-713.54-22.44-1027.39,86.09-1462.86,506.04-5731.89,1982.96-6947.72,2403.62-199.83,69.07-316.24,189.29-299.79,309.13l113.11,823.99S-3194.94,2617.11-1364.07,2170.2c385.8-94.18,805.71-129.36,1208.3-101.25,1910.53,133.39,7601.25,530.63,7601.25,530.63l-113.11-823.99c-16.45-119.85-162.97-218.03-376.79-252.44C5653.14,1313.52,1080.32,577.51-486.62,325.36Z"/></g><g id="Full-logo-14"><path id="Top-14" class="cls-2" d="m-507.15,292.41c-269.16-67.81-574.46-48.79-830.46,51.74-1193.25,468.74-4675.49,1836.82-5667.23,2226.47-163,63.97-260.21,183.64-250.32,307.71l67.97,853.02S-2754.45,2556.15-1266.27,2161.58c313.59-83.15,653.01-104.29,976.69-60.85,1536.06,206.17,6111.37,820.2,6111.37,820.2l-67.97-853.02c-9.89-124.07-125.21-230.5-296.57-273.64C4413.43,1531.41,748.64,608.58-507.15,292.41Z"/></g><g id="Full-logo-15"><path id="Top-15" class="cls-2" d="m-522.78,257.72c-215.02-79.55-461.62-70.94-670.77,23.42-974.9,440.01-3819.96,1724.25-4630.23,2090.03-133.17,60.05-214.88,179.85-210.41,308.03l30.78,881.32s3605.69-1051.33,4816.21-1404.31c255.08-74.38,529.24-83.96,788.89-27.55,1232.2,267.68,4902.44,1064.93,4902.44,1064.93l-30.78-881.32c-4.48-128.19-94.43-241.99-231.32-292.61C3408.15,1711.3,480.45,628.65-522.78,257.72Z"/></g><g id="Full-logo-16"><path id="Top-16" class="cls-2" d="m-534.39,221.41c-171.06-89.7-370.05-89.7-541.28,0-798.12,418.27-3127.26,1639.06-3790.6,1986.77-109.02,57.08-178.25,177.56-178.25,309.79v909.13s2935.63-953.45,3921.2-1273.58c207.68-67.46,428.91-67.46,636.59,0,985.57,320.13,3921.2,1273.58,3921.2,1273.58v-909.13c0-132.23-69.29-252.72-178.2-309.79C2592.87,1860.47,263.73,639.68-534.39,221.41Z"/></g></g></g><g class="cls-5"><g><g id="Full-logo-17"><path id="Top-17" class="cls-2" d="m3879.6-1365.9C863.41-904.14-2407.21-338.04-5017.01,173.98c-12164.25,2386.66-47662.71,9351.66-57772.67,11335.31-1661.77,326-2524.82,556.39-2223.26,593.08l2073.38,252.32S-16862.93,3738.49-1393.87,845.79C1865.78,236.24,5501.96-393.13,9069.32-965.24c16929.24-2715,67354.81-10801.97,67354.81-10801.97l-2073.38-252.32c-301.57-36.7-1715.3,127-3635.5,420.99C59018.48-9807.76,17951.68-3520.38,3879.6-1365.9Z"/></g><g id="Full-logo-18"><path id="Top-18" class="cls-2" d="m3763.17-1371.17C1258.66-1003.94-1459.01-538.36-3629.33-104.72c-10115.81,2021.31-39636.4,7920.16-48043.86,9600.17-1381.93,276.09-2101.41,482.4-1853.39,531.06l1705.22,334.56S-13516.2,3141.58-656.2,717.8C2053.67,207.05,5075.09-310.56,8038.03-771.66c14060.89-2188.17,55942.78-8705.92,55942.78-8705.92l-1705.22-334.56c-248.02-48.66-1420.4,69.13-3014.86,302.94C49548.22-8084.98,15448.04-3084.64,3763.17-1371.17Z"/></g><g id="Full-logo-19"><path id="Top-19" class="cls-2" d="m3667.16-1380.79C1587.98-1092.55-670.08-710.64-2475.15-341.95c-8413.38,1718.6-32965.84,6734.07-39958.38,8162.49-1149.36,234.73-1749.56,421.41-1546.11,480.47l1398.76,406.05S-10734.77,2647-43.24,612.46C2209.69,183.74,4720.15-240.85,7180.66-609.31c11676.61-1748.58,46456.64-6956.95,46456.64-6956.95l-1398.76-406.05c-203.45-59.06-1175.16,20.12-2498.84,203.65C41676.64-6650.74,13367.62-2725.77,3667.16-1380.79Z"/></g><g id="Full-logo-20"><path id="Top-20" class="cls-2" d="m3588.14-1394.16C1862.55-1171.99-13.5-859.75-1515.02-544.83c-6998.54,1467.97-27422.13,5752.04-33238.76,6972.16-956.07,200.49-1457.19,371.24-1290.86,439.4l1143.59,468.68S-8423.2,2237.51,466.07,526C2339.23,165.34,4424.97-181.79,6467.84-472.89c9694.64-1381.45,38571.18-5496.29,38571.18-5496.29l-1143.59-468.68c-166.33-68.17-971.2-21.55-2069.77,119.91C35133.8-5456.25,11638.96-2430.88,3588.14-1394.16Z"/></g><g id="Full-logo-21"><path id="Top-21" class="cls-2" d="m3523.26-1410.78c-1431.65,166.82-2990.17,421.02-4239.42,691.46C-6538.89,541.33-23531.17,4220.38-28370.57,5268.2c-795.45,172.17-1214.26,330.06-1078.85,406.27l931.02,524.02S-6502.17,1898.77,889.23,455.23C2446.75,151.04,4179.46-131.57,5875.16-357.99c8047.07-1074.5,32016.12-4275.08,32016.12-4275.08l-931.02-524.02c-135.41-76.22-801.53-57.15-1712.97,49.08-5551.95,647.04-25044.61,2918.75-31724.02,3697.23Z"/></g><g id="Full-logo-22"><path id="Top-22" class="cls-2" d="m3470.16-1430.24C2282.88-1309.87,988.3-1104.04-51.3-870.36-4896.91,219-19037.67,3398.16-23064.96,4303.61c-661.96,148.77-1012.43,296.37-902.78,379.77l753.85,573.4S-4905.73,1618.89,1240.77,397.54C2535.97,140.18,3975.24-88.65,5382.32-260.92c6677.41-817.53,26566.79-3252.71,26566.79-3252.71l-753.85-573.4c-109.65-83.4-660.37-87.72-1416.23-11.07C25174.76-3631.21,9009.42-1991.98,3470.16-1430.24Z"/></g><g id="Full-logo-23"><path id="Top-23" class="cls-2" d="m3426.85-1452.19c-984.09,81.3-2059.28,246.78-2924.67,450.15C-3531.43-54.02-15302.59,2712.7-18655.02,3500.69c-551.03,129.46-844.76,268.92-756.6,358.79l606.1,617.89S-3579.1,1387.97,1532.79,350.76C2609.97,132.19,3805.33-51.79,4972.46-178.65c5538.74-602.06,22036.47-2395.42,22036.47-2395.42l-606.1-617.89c-88.16-89.87-542.9-114.14-1169.41-62.36-3816.32,315.38-17215.25,1422.66-21806.57,1802.13Z"/></g><g id="Full-logo-24"><path id="Top-24" class="cls-2" d="m3391.72-1476.37c-815.15,48.35-1707.96,180.17-2428.6,358.56C-2395.75-286.19-12197.86,2140.85-14989.5,2832.1c-458.85,113.56-705.48,246.68-635.26,342.44l482.78,658.42S-2476.71,1197.78,1775.33,313.06C2671.33,126.63,3663.93-19.92,4631.57-108.63c4592.04-421.03,18269.95-1675.16,18269.95-1675.16l-482.78-658.42c-70.22-95.77-445.11-137.13-964.07-106.32-3161.16,187.63-14259.84,846.39-18062.96,1072.16Z"/></g><g id="Full-logo-25"><path id="Top-25" class="cls-2" d="m3363.4-1502.55c-674.66,20.49-1415.88,124.18-2016.22,282.04C-1451.05-484.53-9617.03,1663.38-11942.7,2275.14c-382.26,100.49-589.8,228.77-534.56,329.96l379.76,695.74S-1560.72,1041.5,1976.74,282.95C2722.16,123.11,3546.22,7.83,4348-48.76c3804.91-268.57,15138.25-1068.58,15138.25-1068.58l-379.76-695.74c-55.24-101.19-363.68-157.3-793.2-144.23-2616.35,79.58-11802.23,358.98-14949.89,454.76Z"/></g><g id="Full-logo-26"><path id="Top-26" class="cls-2" d="m3340.76-1530.53c-557.82-3.16-1173.01,77-1673.42,218.05C-665.06-654.89-7471.64,1264.3-9410.16,1810.92c-318.62,89.78-493.74,214.48-451.04,320.73l293.59,730.49S-799.65,913.43,2143.97,259.18C2764.25,121.31,3448.2,32.19,4112.05,2.73c3150.38-139.81,12534.15-556.3,12534.15-556.3l-293.59-730.49c-42.7-106.25-295.84-175.15-650.98-177.13-2163.25-12.14-9758.32-54.78-12360.87-69.34Z"/></g><g id="Full-logo-27"><path id="Top-27" class="cls-2" d="m3322.87-1560.18c-460.64-23.33-971.06,37.13-1388.44,164.45C-10.96-802.13-5688.17,930.32-7305.04,1423.75c-265.76,81.04-413.99,203.22-381.78,314.22l221.42,763.18S-167.36,808.86,2282.77,240.69c516.29-119.73,1083.77-186.94,1632.92-193.41,2606.07-30.7,10368.54-122.19,10368.54-122.19l-221.42-763.18c-32.21-111-239.3-191.1-532.56-205.92-1786.37-90.34-8058.23-407.53-10207.37-516.17Z"/></g><g id="Full-logo-28"><path id="Top-28" class="cls-2" d="m3308.95-1591.37c-379.79-40.61-803.11,3.31-1151.51,119.48C533.53-930.3-4205.48,650.38-5555.16,1100.59c-221.84,73.93-347.79,194.48-324.39,310l160.87,794.28S357.89,723.88,2397.94,226.65c429.88-104.78,900.52-153.61,1354.28-140.52,2153.35,62.14,8567.34,247.15,8567.34,247.15l-160.87-794.28c-23.4-115.53-192.13-205.5-433.92-231.32-1472.83-157.35-6643.89-709.8-8415.82-899.06Z"/></g><g id="Full-logo-29"><path id="Top-29" class="cls-2" d="m3298.36-1624.01c-312.51-55.5-663.42-25.48-954.53,81.67C986.95-1042.76-2972.8,415.31-4100.53,830.6c-185.36,68.19-292.86,187.86-276.87,307.72l109.96,824.13S794.17,655.21,2493.48,216.32c358.08-92.49,748.21-125.87,1122.61-96.05,1776.75,141.5,7069.01,562.88,7069.01,562.88l-109.96-824.13c-15.99-119.87-152.77-218.64-351.72-253.94-1211.94-215.11-5467-970.35-6925.06-1229.09Z"/></g><g id="Full-logo-30"><path id="Top-30" class="cls-2" d="m3290.54-1658.02c-256.52-68.43-547.21-50.12-790.74,49.8C1364.69-1142.32-1947.89,217.46-2891.31,604.76c-155.06,63.59-247.31,183.01-237.55,307.09l67.05,853.06S1156.49,600.17,2572.68,209.11c298.42-82.41,621.61-102.76,929.98-58.57,1463.41,209.71,5822.36,834.27,5822.36,834.27l-67.05-853.06c-9.75-124.07-119.87-230.76-283.18-274.29-994.79-265.23-4487.44-1196.45-5684.25-1515.49Z"/></g><g id="Full-logo-31"><path id="Top-31" class="cls-2" d="m3285.07-1693.34c-209.89-79.73-450.52-71.33-654.54,22.86C1679.55-1231.31-1095.67,50.5-1886.05,415.58c-129.9,59.93-209.54,179.66-205.06,307.85l30.78,881.32S1457.33,556.49,2638.31,204.54c248.86-74.17,516.38-83.51,769.8-26.88,1202.65,268.71,4784.87,1069.03,4784.87,1069.03l-30.78-881.32c-4.48-128.19-92.35-242.06-225.98-292.79-813.99-309.06-3671.86-1394.15-4651.15-1765.92Z"/></g><g id="Full-logo-32"><path id="Top-32" class="cls-2" d="m3281.57-1729.93c-171.06-89.7-370.05-89.7-541.28,0C1942.18-1311.66-386.96-90.87-1050.31,256.85c-109.02,57.08-178.25,177.56-178.25,309.79v909.13S1707.07,522.31,2692.64,202.19c207.68-67.46,428.91-67.46,636.59,0,985.57,320.13,3921.2,1273.58,3921.2,1273.58v-909.13c0-132.23-69.29-252.72-178.2-309.79-663.39-347.71-2992.54-1568.5-3790.65-1986.77Z"/></g></g></g><g class="cls-8"><g><g id="Full-logo-33"><path id="Top-33" class="cls-2" d="m-44506.91,390.04c26245.39-35.01,56775.34-35.01,83046.41,0,122453.01,163.26,479806.71,639.78,581581.66,775.5,16727.04,22.28,27348.39,69.31,27348.39,120.92v354.86S197064.1,1269.16,45851.21,1144.21c-31863.76-26.33-65806.08-26.33-97669.84,0-151212.89,124.96-601618.34,497.12-601618.34,497.12v-354.86c0-51.61,10631.54-98.64,27340.88-120.92,101782.47-135.72,459136.16-612.24,581589.17-775.5Z"/></g><g id="Full-logo-34"><path id="Top-34" class="cls-2" d="m-36472.08,349.9c21165.64-35.73,45786.56-35.73,66972.91,0,98752.43,166.6,386940.89,652.83,469017.47,791.33,13489.54,22.73,22055.16,70.72,22055.16,123.39v362.1s-363230.2-379.76-485176.08-507.26c-25696.58-26.87-53069.42-26.87-78766,0-121945.88,127.51-485176.08,507.26-485176.08,507.26v-362.1c0-52.67,8573.82-100.66,22049.1-123.39C-423412.98,1002.73-135224.51,516.49-36472.08,349.9Z"/></g><g id="Full-logo-35"><path id="Top-35" class="cls-2" d="m-29992.38,308.93c17069.06-36.46,36924.65-36.46,54010.41,0,79639.06,169.99,312049.11,666.16,378239.89,807.48,10878.67,23.2,17786.42,72.17,17786.42,125.91v369.49S127116.76,1224.3,28773.31,1094.19c-20723.05-27.42-42797.92-27.42-63520.97,0-98343.45,130.11-391271.03,517.62-391271.03,517.62v-369.49c0-53.74,6914.37-102.71,17781.53-125.91C-342041.49,975.09-109631.44,478.93-29992.38,308.93Z"/></g><g id="Full-logo-36"><path id="Top-36" class="cls-2" d="m-24766.82,267.13c13765.37-37.2,29777.94-37.2,43556.78,0,64225.05,173.46,251652.51,679.75,305032.17,823.95,8773.12,23.67,14343.88,73.64,14343.88,128.48v377.03S101934.1,1201.18,22624.87,1068.42c-16712.14-27.98-34514.45-27.98-51226.59,0-79309.24,132.76-315541.15,528.18-315541.15,528.18v-377.03c0-54.84,5576.11-104.81,14339.94-128.48C-276419.32,946.88-88991.86,440.6-24766.82,267.13Z"/></g><g id="Full-logo-37"><path id="Top-37" class="cls-2" d="m-20552.65,224.48c11101.11-37.96,24014.47-37.96,35126.44,0,51794.39,177,202945.57,693.62,245993.69,840.77,7075.09,24.15,11567.65,75.14,11567.65,131.1v384.73S81625.51,1177.59,17666.45,1042.12c-13477.53-28.55-27834.23-28.55-41311.76,0-63959.06,135.47-254468.67,538.96-254468.67,538.96v-384.73c0-55.96,4496.86-106.95,11564.47-131.1C-223498.22,918.1-72347.04,401.48-20552.65,224.48Z"/></g><g id="Full-logo-38"><path id="Top-38" class="cls-2" d="m-17154.13,180.95c8952.51-38.73,19366.51-38.73,28327.77,0,41769.67,180.62,163665.78,707.78,198382.01,857.93,5705.72,24.65,9328.75,76.68,9328.75,133.78v392.58S65247.61,1153.52,13667.72,1015.28c-10868.98-29.13-22446.96-29.13-33315.94,0-51579.89,138.24-205216.67,549.96-205216.67,549.96v-392.58c0-57.1,3626.5-109.13,9326.19-133.78C-180819.91,888.73-58923.8,361.57-17154.13,180.95Z"/></g><g id="Full-logo-39"><path id="Top-39" class="cls-2" d="m-14413.39,136.54c7219.76-39.52,15618.15-39.52,22844.98,0,33685.22,184.3,131988.53,722.22,159985.49,875.44,4601.39,25.15,7523.18,78.24,7523.18,136.51v400.59S52039.63,1128.95,10442.95,987.89c-8765.3-29.73-18102.39-29.73-26867.69,0-41596.68,141.06-165497.32,561.18-165497.32,561.18v-400.59c0-58.27,2924.6-111.36,7521.12-136.51C-146401.92,858.76-48098.61,320.84-14413.39,136.54Z"/></g><g id="Full-logo-40"><path id="Top-40" class="cls-2" d="m-12203.11,91.22c5822.39-40.33,12595.28-40.33,18423.37,0,27165.5,188.06,106442.37,736.96,129020.55,893.3,3710.8,25.66,6067.08,79.84,6067.08,139.29v408.77S41388.03,1103.88,7842.32,959.95c-7068.79-30.33-14598.7-30.33-21667.49,0-33545.71,143.94-133465.58,572.63-133465.58,572.63v-408.77c0-59.45,2358.55-113.63,6065.42-139.29C-118645.48,828.18-39368.61,279.28-12203.11,91.22Z"/></g><g id="Full-logo-41"><path id="Top-41" class="cls-2" d="m-10420.63,44.97C-5725.16,3.82-263.15,3.82,4436.92,44.97c21907.66,191.9,85840.62,752,104048.83,911.53,2992.58,26.19,4892.81,81.47,4892.81,142.13v417.11S32798.03,1078.31,5745.04,931.43c-5700.64-30.95-11773.15-30.95-17473.79,0-27052.99,146.87-107633.53,584.32-107633.53,584.32v-417.11c0-60.67,1902.05-115.95,4891.47-142.13C-96261.25,796.98-32328.29,236.88-10420.63,44.97Z"/></g><g id="Full-logo-42"><path id="Top-42" class="cls-2" d="m-8983.15-2.21C-5196.47-44.21-791.63-44.21,2998.75-2.21c17667.47,195.82,69226.3,767.35,83910.35,930.14,2413.37,26.72,3945.81,83.13,3945.81,145.04v425.62S25870.61,1052.21,4053.68,902.33c-4597.29-31.58-9494.47-31.58-14091.76,0-21816.93,149.87-86801.23,596.25-86801.23,596.25v-425.62c0-61.91,1533.91-118.31,3944.73-145.04C-78209.45,765.14-26650.62,193.6-8983.15-2.21Z"/></g><g id="Full-logo-43"><path id="Top-43" class="cls-2" d="m-7823.89-50.37c3053.77-42.85,6606.07-42.85,9662.82,0,14247.96,199.81,55827.67,783.01,67669.64,949.12,1946.27,27.27,3182.11,84.83,3182.11,147.99v434.31S20283.99,1025.57,2689.69,872.64c-3707.49-32.23-7656.83-32.23-11364.32,0-17594.3,152.93-70000.99,608.41-70000.99,608.41v-434.31c0-63.17,1237.03-120.73,3181.23-147.99C-63651.55,732.64-22071.84,149.45-7823.89-50.37Z"/></g><g id="Full-logo-44"><path id="Top-44" class="cls-2" d="m-6889-99.5c2462.72-43.73,5327.47-43.73,7792.6,0C12393.89,104.39,45925.91,699.49,55475.89,868.99c1569.57,27.82,2566.22,86.56,2566.22,151.02v443.17S15778.64,998.4,1589.69,842.34c-2989.91-32.89-6174.86-32.89-9164.78,0-14188.95,156.05-56452.42,620.83-56452.42,620.83v-443.17c0-64.46,997.6-123.19,2565.51-151.02C-51911.31,699.49-18379.29,104.39-6889-99.5Z"/></g><g id="Full-logo-45"><path id="Top-45" class="cls-2" d="m-6135.06-149.64c1986.06-44.62,4296.35-44.62,6284.35,0C9415.66,58.42,36457.61,665.66,44159.21,838.62c1265.78,28.39,2069.53,88.32,2069.53,154.1v452.22S12145.3,970.67,702.6,811.43c-2411.22-33.56-4979.73-33.56-7390.95,0-11442.7,159.24-45526.14,633.5-45526.14,633.5v-452.22c0-65.77,804.52-125.71,2068.96-154.1C-42443.37,665.66-15401.42,58.42-6135.06-149.64Z"/></g><g id="Full-logo-46"><path id="Top-46" class="cls-2" d="m-5527.04-200.8c1601.66-45.53,3464.8-45.53,5068.03,0C7013.86,11.5,28821.89,631.14,35032.85,807.63c1020.79,28.97,1668.98,90.13,1668.98,157.24v461.44S9215.18,942.37-12.8,779.88c-1944.53-34.24-4015.91-34.24-5960.44,0-9227.99,162.49-36714.63,646.43-36714.63,646.43v-461.44c0-67.12,648.8-128.27,1668.52-157.24C-34807.94,631.14-12999.91,11.5-5527.04-200.8Z"/></g><g id="Full-logo-47"><path id="Top-47" class="cls-2" d="m-5036.7-253c1291.66-46.46,2794.19-46.46,4087.12,0C5076.93-36.37,22664.05,595.91,27672.89,776c823.22,29.56,1345.95,91.97,1345.95,160.45v470.86S6852.19,913.49-589.74,747.69c-1568.17-34.94-3238.64-34.94-4806.81,0-7441.92,165.8-29608.57,659.62-29608.57,659.62v-470.86c0-68.49,523.23-130.89,1345.58-160.45C-28650.33,595.91-11063.21-36.37-5036.7-253Z"/></g><g id="Full-logo-48"><path id="Top-48" class="cls-2" d="m-4641.27-306.27c1041.66-47.41,2253.38-47.41,3296.06,0C3514.89-85.22,17698.05,559.97,21737.43,743.73c663.89,30.16,1085.44,93.84,1085.44,163.73v480.47S4946.55,884.03-1055.01,714.85c-1264.65-35.65-2611.8-35.65-3876.46,0-6001.55,169.19-23877.88,673.08-23877.88,673.08v-480.47c0-69.88,421.96-133.56,1085.14-163.73C-23684.52,559.97-9501.36-85.22-4641.27-306.27Z"/></g><g id="Full-logo-49"><path id="Top-49" class="cls-2" d="m-4322.37-360.63c840.05-48.37,1817.24-48.37,2658.12,0C2255.17-135.06,13693.2,523.29,16950.78,710.8c535.39,30.78,875.36,95.76,875.36,167.07v490.28S3409.74,853.97-1430.22,681.33c-1019.88-36.38-2106.29-36.38-3126.18,0-4839.96,172.64-19256.36,686.82-19256.36,686.82v-490.28c0-71.31,340.29-136.29,875.12-167.07C-19679.83,523.29-8241.8-135.06-4322.37-360.63Z"/></g><g id="Full-logo-50"><path id="Top-50" class="cls-2" d="m-4065.19-416.09c677.46-49.36,1465.52-49.36,2143.64,0C1239.28-185.93,10463.5,485.86,13090.57,677.2c431.77,31.41,705.93,97.71,705.93,170.48v500.28S2170.38,823.29-1732.82,647.13c-822.49-37.12-1698.62-37.12-2521.11,0-3903.19,176.16-15529.32,700.84-15529.32,700.84v-500.28c0-72.76,274.43-139.07,705.74-170.48C-16450.24,485.86-7226.02-185.93-4065.19-416.09Z"/></g><g id="Full-logo-51"><path id="Top-51" class="cls-2" d="m-3857.79-472.69c546.34-50.37,1181.87-50.37,1728.74,0C420-237.83,7858.89,447.67,9977.5,642.92c348.2,32.05,569.3,99.71,569.3,173.96v510.49S1170.89,791.98-1976.85,612.23c-663.3-37.88-1369.86-37.88-2033.15,0-3147.74,179.76-12523.64,715.14-12523.64,715.14v-510.49c0-74.25,221.31-141.91,569.14-173.96C-13845.74,447.67-6406.85-237.83-3857.79-472.69Z"/></g><g id="Full-logo-52"><path id="Top-52" class="cls-2" d="m-3690.54-530.44c440.6-51.4,953.12-51.4,1394.15,0C-240.7-290.79,5758.4,408.7,7466.96,607.93c280.81,32.7,459.11,101.74,459.11,177.51v520.91S364.86,760.04-2173.64,576.61c-534.92-38.65-1104.72-38.65-1639.64,0-2538.5,183.43-10099.71,729.73-10099.71,729.73v-520.91c0-75.77,178.48-144.8,458.99-177.51,1708.68-199.23,7707.78-898.72,9763.47-1138.38Z"/></g><g id="Full-logo-53"><path id="Top-53" class="cls-2" d="m-3555.65-589.38c355.32-52.44,768.65-52.44,1124.31,0C-773.52-344.83,4064.46,368.94,5442.33,572.23c226.46,33.37,370.25,103.82,370.25,181.13v531.54S-285.17,727.44-2332.35,540.28c-431.38-39.44-890.91-39.44-1322.29,0-2047.18,187.17-8144.93,744.63-8144.93,744.63v-531.54c0-77.31,143.93-147.76,370.15-181.13,1377.97-203.3,6215.95-917.06,7873.77-1161.61Z"/></g><g id="Full-logo-54"><path id="Top-54" class="cls-2" d="m-3446.87-649.51c286.55-53.51,619.88-53.51,906.7,0C-1203.22-399.97,2698.38,328.36,3809.56,535.81c182.63,34.05,298.59,105.94,298.59,184.82v542.39S-809.39,694.18-2460.34,503.2c-347.89-40.25-718.47-40.25-1066.36,0-1650.95,190.99-6568.49,759.82-6568.49,759.82v-542.39c0-78.89,116.08-150.77,298.51-184.82,1111.26-207.45,5012.87-935.78,6349.81-1185.32Z"/></g><g id="Full-logo-55"><path id="Top-55" class="cls-2" d="m-3359.15-710.87c231.09-54.61,499.9-54.61,731.21,0C-1549.75-456.24,1596.7,286.95,2492.82,498.63c147.28,34.75,240.8,108.1,240.8,188.6v553.46S-1232.15,660.24-2563.56,465.36c-280.56-41.07-579.41-41.07-859.97,0-1331.41,194.89-5297.17,775.33-5297.17,775.33v-553.46c0-80.5,93.61-153.85,240.73-188.6,896.18-211.68,4042.63-954.87,5120.82-1209.51Z"/></g><g id="Full-logo-56"><path id="Top-56" class="cls-2" d="m-3288.4-773.49c186.36-55.72,403.14-55.72,589.69,0C-1829.21-513.66,708.25,244.7,1430.92,460.7c118.77,35.46,194.19,110.3,194.19,192.45v564.75S-1573.08,625.61-2646.8,426.75c-226.26-41.91-467.27-41.91-693.52,0-1073.72,198.86-4271.91,791.15-4271.91,791.15v-564.75c0-82.14,75.49-156.99,194.14-192.45,722.73-216,3260.19-974.36,4129.69-1234.19Z"/></g><g id="Full-logo-57"><path id="Top-57" class="cls-2" d="m-3231.35-837.38c150.29-56.86,325.12-56.86,475.55,0C-2054.58-572.25-8.24,201.59,574.56,422c95.79,36.18,156.61,112.55,156.61,196.37v576.28S-1848.02,590.27-2713.93,387.35c-182.46-42.76-376.83-42.76-559.29,0-865.9,202.92-3445.09,807.3-3445.09,807.3v-576.28c0-83.82,60.88-160.19,156.56-196.37,582.84-220.41,2629.18-994.24,3330.4-1259.38Z"/></g><g id="Full-logo-58"><path id="Top-58" class="cls-2" d="m-3185.34-902.57c121.2-58.02,262.19-58.02,383.51,0C-2236.33-632.03-586.06,157.6-116.06,382.51c77.25,36.92,126.3,114.85,126.3,200.38v588.04S-2069.75,554.21-2768.06,347.15c-147.15-43.64-303.9-43.64-451.04,0-698.31,207.06-2778.3,823.77-2778.3,823.77v-588.04c0-85.53,49.1-163.46,126.26-200.38,470.04-224.91,2120.31-1014.54,2685.8-1285.08Z"/></g></g></g><g class="cls-7"><g><g id="Full-logo-59"><path id="Top-59" class="cls-3" d="m-140.84-669.03C-4482.82-38.53-9224.31,715.57-13038.45,1382.25c-17777.72,3107.5-69657.82,12176.13-84433.28,14758.9-2428.61,424.47-3720.97,710.69-3328.97,736.89l2695.14,180.1S-30981.43,5744.05-8446.18,1945.61C-3697.54,1145.19,1573.91,306.81,6722.53-466.88c24433.3-3671.6,97210.53-14607.92,97210.53-14607.92l-2695.14-180.1c-392-26.2-2400.34,212.54-5164.6,613.96C79235.08-12195.76,20116.82-3610.81-140.84-669.03Z"/></g><g id="Full-logo-60"><path id="Top-60" class="cls-3" d="m-451.66-644.92C-3968.87-151.54-7811.54,454.82-10904.35,1004.47c-14415.6,2562.04-56484.14,10038.85-68465.26,12168.27-1969.31,349.95-3018.96,598.35-2703.76,639.44l2167.11,282.53S-25488.45,4852.86-7219.03,1750.12C-3369.28,1096.31,902.89,422.18,5074.26-189.71c19795.61-2903.77,78758.97-11553.02,78758.97-11553.02l-2167.11-282.53c-315.2-41.09-1940.56,132.62-4179.74,446.75C63846.6-9665.05,15958.01-2946.99-451.66-644.92Z"/></g><g id="Full-logo-61"><path id="Top-61" class="cls-3" d="m-702.85-631.27C-3551.47-249.48-6665.58,237-9173.73,692.03c-11690.51,2121.01-45806.52,8310.79-55522.76,10073.67-1597.03,289.7-2450,507.86-2197.12,561.54l1738.65,369.06S-21036.24,4132.31-6224.48,1592.87C-3103.34,1057.75,358.83,516.9,3738.01,36.56c16036.2-2279.53,63801.76-9069.41,63801.76-9069.41l-1738.65-369.06c-252.88-53.68-1567.75,66.82-3381.28,309.9C51372.87-7611.32,12587.48-2412.69-702.85-631.27Z"/></g><g id="Full-logo-62"><path id="Top-62" class="cls-3" d="m-905.68-626.23C-3212.3-335.36-5735.84,53.81-7770.12,432.38c-9481.78,1764.66-37152.14,6914.54-45032.66,8381.25-1295.3,241.02-1988.9,435.1-1786.6,499.5l1390.9,442.79S-17427.66,3550.1-5418.5,1466.63C-2887.92,1027.6-82.32,594.92,2654.68,221.6c12988.7-1771.64,51676.95-7048.7,51676.95-7048.7l-1390.9-442.79c-202.3-64.4-1265.42,12.44-2733.9,197.64C41261.74-5944.16,9855.94-1983.46-905.68-626.23Z"/></g><g id="Full-logo-63"><path id="Top-63" class="cls-3" d="m-1069.3-628.35C-2936.53-411.65-4981.35-101.48-6631.55,215.37c-7691.61,1476.99-30137.76,5787.36-36530.43,7014.98-1050.74,201.72-1615.22,376.73-1453.98,450.36l1108.55,506.25S-14502.9,3080.09-4765.35,1365.56C-2713.45,1004.28-440.07,659.44,1776.35,373.28,12294.59-984.72,43624.3-5029.72,43624.3-5029.72l-1108.55-506.25c-161.24-73.63-1020.23-32.72-2208.98,105.26C33065.64-4590.27,7642.34-1639.5-1069.3-628.35Z"/></g><g id="Full-logo-64"><path id="Top-64" class="cls-3" d="m-1201.11-636.41C-2712.12-480.33-4368.9-234.33-5707.81,32.75c-6240.7,1245.01-24452.72,4878.39-29639.51,5913.21-852.54,170.03-1312.41,330.03-1184.53,411.69l879.2,561.48S-12132.43,2701.07-4236.1,1284.94C-2572.18,986.53-730.22,713.03,1064.18,497.95c8515.5-1020.71,33879.86-4061.07,33879.86-4061.07l-879.2-561.48c-127.88-81.67-821.34-70.41-1783.31,28.97C26421.81-3490.24,5848.59-1364.77-1201.11-636.41Z"/></g><g id="Full-logo-65"><path id="Top-65" class="cls-3" d="m-1307.11-649.46c-1222.21,106.44-2564.43,300.29-3651.06,527.29C-10022.97,936.03-24803.4,4024.26-29012.87,4903.81c-691.9,144.51-1067.04,292.81-966.27,381.55l692.79,610.12S-10211.26,2395.85-3807.27,1220.91C-2457.82,973.32-965.58,757.81,486.69,600.77,7378.58-144.49,27906.81-2364.38,27906.81-2364.38l-692.79-610.12c-100.77-88.74-659.99-102.1-1438.09-34.31C21036.18-2595.92,4395.16-1146.25-1307.11-649.46Z"/></g><g id="Full-logo-66"><path id="Top-66" class="cls-3" d="m-1392.18-666.72c-988.05,65.69-2075.28,217.12-2957.45,411.9-4111.81,908.03-16111.17,3558.06-19528.59,4312.81-561.71,123.99-868.23,263.29-789.51,358.34l541.19,653.53S-8654.28,2150.5-3459.85,1170.37C-2365.28,963.83-1156.52,795.48,18.37,685.93,5593.93,166.06,22201.35-1382.52,22201.35-1382.52l-541.19-653.53c-78.72-95.05-529.05-128.94-1158.08-87.09C16670.41-1868.27,3217.61-973.4-1392.18-666.72Z"/></g><g id="Full-logo-67"><path id="Top-67" class="cls-3" d="m-1460.26-687.56c-798.18,32.14-1678.7,149.03-2395.18,317.98-3339.51,787.61-13085.1,3086.2-15860.65,3740.87-456.2,107.54-707.17,240.03-646.4,340.8l417.79,692.81S-7392.51,1953.74-3178.42,1130.8c888-173.41,1866.94-303.38,2816.94-373.97C4146.83,421.8,17575.34-576.18,17575.34-576.18l-417.79-692.81c-60.77-100.77-422.77-151.88-930.92-131.4-3095.34,124.74-13962.96,562.71-17686.89,712.83Z"/></g><g id="Full-logo-68"><path id="Top-68" class="cls-3" d="m-1514.54-711.48c-644.2,4.39-1357.16,93.15-1939.37,241.44C-6167.59,221.28-14086.84,2238.88-16342.25,2813.52c-370.71,94.39-576.71,221.86-530.57,327.87l317.22,728.83S-6370.04,1796.41-2950.49,1100.15c720.57-146.72,1513.22-245.4,2280.87-283.95C2973.33,633.23,13824.26,88.15,13824.26,88.15l-317.22-728.83c-46.14-106.01-336.46-171.69-746.58-168.87-2498.24,17.15-11269.43,77.39-14275,98.07Z"/></g><g id="Full-logo-69"><path id="Top-69" class="cls-3" d="m-1557.61-738.08c-519.33-18.65-1096.44,47.14-1569.85,178.98C-5334.04,55.53-11773.43,1849.34-13607.37,2360.25c-301.43,83.91-471.05,207.83-436.84,318.71l235.15,762.33S-5541.54,1671.1-2765.92,1076.78c584.88-125.24,1226.5-198.39,1846.28-210.49,2941.22-57.45,11701.99-228.64,11701.99-228.64l-235.15-762.33c-34.2-110.88-266.34-189-596.96-200.85C7936.27-397.74,865.34-651.26-1557.61-738.08Z"/></g><g id="Full-logo-70"><path id="Top-70" class="cls-3" d="m-1591.58-767.04c-418.03-37.9-885.02,9.12-1270.27,127.92C-4657.57-85.25-9897.94,1531.23-11390.41,1991.63c-245.3,75.61-385.49,197.18-361.05,312.65l168.07,793.89S-4870.27,1571.8-2616.51,1059.34c474.92-107.99,994.1-160.27,1493.95-150.44,2372.13,46.63,9437.77,185.46,9437.77,185.46l-168.07-793.89c-24.45-115.47-209.34-204.31-475.48-228.41C6050.53-74.8,358.78-590.41-1591.58-767.04Z"/></g><g id="Full-logo-71"><path id="Top-71" class="cls-3" d="m-1618.14-798.09c-335.85-54.09-713.54-22.44-1027.39,86.09-1462.86,506.04-5731.89,1982.96-6947.72,2403.62-199.83,69.07-316.24,189.29-299.79,309.13l113.11,823.99S-4326.46,1493.65-2495.59,1046.75c385.8-94.18,805.71-129.36,1208.3-101.25,1910.53,133.39,7601.25,530.63,7601.25,530.63l-113.11-823.99c-16.45-119.85-162.97-218.03-376.79-252.44C4521.61,190.07-51.2-545.94-1618.14-798.09Z"/></g><g id="Full-logo-72"><path id="Top-72" class="cls-3" d="m-1638.68-831.05c-269.16-67.81-574.46-48.79-830.46,51.74-1193.25,468.74-4675.49,1836.82-5667.23,2226.47-163,63.97-260.21,183.64-250.32,307.71l67.97,853.02S-3885.98,1432.7-2397.79,1038.12c313.59-83.15,653.01-104.29,976.69-60.85,1536.06,206.17,6111.37,820.2,6111.37,820.2l-67.97-853.02c-9.89-124.07-125.21-230.5-296.57-273.64C3281.91,407.96-382.88-514.88-1638.68-831.05Z"/></g><g id="Full-logo-73"><path id="Top-73" class="cls-3" d="m-1654.3-865.74c-215.02-79.55-461.62-70.94-670.77,23.42-974.9,440.01-3819.96,1724.25-4630.23,2090.03-133.17,60.05-214.88,179.85-210.41,308.03l30.78,881.32S-3529.24,1385.74-2318.72,1032.76c255.08-74.38,529.24-83.96,788.89-27.55,1232.2,267.68,4902.44,1064.93,4902.44,1064.93l-30.78-881.32c-4.48-128.19-94.43-241.99-231.32-292.61C2276.63,587.85-651.07-494.8-1654.3-865.74Z"/></g><g id="Full-logo-74"><path id="Top-74" class="cls-3" d="m-1665.91-902.04c-171.06-89.7-370.05-89.7-541.28,0-798.12,418.27-3127.26,1639.06-3790.6,1986.77-109.02,57.08-178.25,177.56-178.25,309.79v909.13s2935.63-953.45,3921.2-1273.58c207.68-67.46,428.91-67.46,636.59,0,985.57,320.13,3921.2,1273.58,3921.2,1273.58v-909.13c0-132.23-69.29-252.72-178.2-309.79C1461.35,737.02-867.79-483.77-1665.91-902.04Z"/></g></g></g><g class="cls-6"><g><g id="Full-logo-75"><path id="Top-75" class="cls-2" d="m-9763.89,1082.24c3053.77-42.85,6606.07-42.85,9662.82,0,14247.96,199.81,55827.67,783.01,67669.64,949.12,1946.27,27.27,3182.11,84.83,3182.11,147.99v434.31S18343.99,2158.18,749.69,2005.25c-3707.49-32.23-7656.83-32.23-11364.32,0-17594.3,152.93-70000.99,608.41-70000.99,608.41v-434.31c0-63.17,1237.03-120.73,3181.23-147.99,11842.85-166.11,53422.55-749.3,67670.51-949.12Z"/></g><g id="Full-logo-76"><path id="Top-76" class="cls-2" d="m-8829,1033.11c2462.72-43.73,5327.47-43.73,7792.6,0,11490.29,203.89,45022.31,798.99,54572.29,968.49,1569.57,27.82,2566.22,86.56,2566.22,151.02v443.17S13838.64,2131-350.31,1974.95c-2989.91-32.89-6174.86-32.89-9164.78,0-14188.95,156.05-56452.42,620.83-56452.42,620.83v-443.17c0-64.46,997.6-123.19,2565.51-151.02,9550.68-169.5,43082.7-764.6,54572.99-968.49Z"/></g><g id="Full-logo-77"><path id="Top-77" class="cls-2" d="m-8075.06,982.97c1986.06-44.62,4296.35-44.62,6284.35,0,9266.36,208.05,36308.31,815.3,44009.91,988.25,1265.78,28.39,2069.53,88.32,2069.53,154.1v452.22S10205.3,2103.27-1237.4,1944.04c-2411.22-33.56-4979.73-33.56-7390.95,0-11442.7,159.24-45526.14,633.5-45526.14,633.5v-452.22c0-65.77,804.52-125.71,2068.96-154.1,7702.16-172.96,34744.12-780.2,44010.48-988.25Z"/></g><g id="Full-logo-78"><path id="Top-78" class="cls-2" d="m-7467.04,931.81c1601.66-45.53,3464.8-45.53,5068.03,0,7472.87,212.3,29280.9,831.93,35491.86,1008.42,1020.79,28.97,1668.98,90.13,1668.98,157.24v461.44S7275.18,2074.98-1952.8,1912.49c-1944.53-34.24-4015.91-34.24-5960.44,0-9227.99,162.49-36714.63,646.43-36714.63,646.43v-461.44c0-67.12,648.8-128.27,1668.52-157.24,6211.42-176.49,28019.45-796.12,35492.32-1008.42Z"/></g><g id="Full-logo-79"><path id="Top-79" class="cls-2" d="m-6976.7,879.6c1291.66-46.46,2794.19-46.46,4087.12,0,6026.51,216.63,23613.63,848.91,28622.47,1029,823.22,29.56,1345.95,91.97,1345.95,160.45v470.86S4912.19,2046.1-2529.74,1880.3c-1568.17-34.94-3238.64-34.94-4806.81,0-7441.92,165.8-29608.57,659.62-29608.57,659.62v-470.86c0-68.49,523.23-130.89,1345.58-160.45,5009.21-180.09,22596.33-812.37,28622.84-1029Z"/></g><g id="Full-logo-80"><path id="Top-80" class="cls-2" d="m-6581.27,826.34c1041.66-47.41,2253.38-47.41,3296.06,0,4860.09,221.05,19043.25,866.24,23082.64,1050,663.89,30.16,1085.44,93.84,1085.44,163.73v480.47S3006.55,2016.64-2995.01,1847.45c-1264.65-35.65-2611.8-35.65-3876.46,0-6001.55,169.19-23877.88,673.08-23877.88,673.08v-480.47c0-69.88,421.96-133.56,1085.14-163.73,4039.69-183.76,18222.85-828.95,23082.94-1050Z"/></g><g id="Full-logo-81"><path id="Top-81" class="cls-2" d="m-6262.37,771.98c840.05-48.37,1817.24-48.37,2658.12,0C315.17,997.54,11753.2,1655.9,15010.78,1843.41c535.39,30.78,875.36,95.76,875.36,167.07v490.28S1469.74,1986.57-3370.22,1813.93c-1019.88-36.38-2106.29-36.38-3126.18,0-4839.96,172.64-19256.36,686.82-19256.36,686.82v-490.28c0-71.31,340.29-136.29,875.12-167.07,3257.81-187.52,14695.84-845.87,18615.27-1071.43Z"/></g><g id="Full-logo-82"><path id="Top-82" class="cls-2" d="m-6005.19,716.51c677.46-49.36,1465.52-49.36,2143.64,0,3160.83,230.17,12385.05,901.96,15012.12,1093.3,431.77,31.41,705.93,97.71,705.93,170.48v500.28S230.38,1955.89-3672.82,1779.73c-822.49-37.12-1698.62-37.12-2521.11,0-3903.19,176.16-15529.32,700.84-15529.32,700.84v-500.28c0-72.76,274.43-139.07,705.74-170.48,2627.27-191.34,11851.49-863.13,15012.31-1093.3Z"/></g><g id="Full-logo-83"><path id="Top-83" class="cls-2" d="m-5797.79,659.91c546.34-50.37,1181.87-50.37,1728.74,0,2549.05,234.87,9987.94,920.36,12106.55,1115.61,348.2,32.05,569.3,99.71,569.3,173.96v510.49S-769.11,1924.59-3916.85,1744.83c-663.3-37.88-1369.86-37.88-2033.15,0-3147.74,179.76-12523.64,715.14-12523.64,715.14v-510.49c0-74.25,221.31-141.91,569.14-173.96,2118.76-195.25,9557.65-880.74,12106.71-1115.61Z"/></g><g id="Full-logo-84"><path id="Top-84" class="cls-2" d="m-5630.54,602.16c440.6-51.4,953.12-51.4,1394.15,0,2055.69,239.66,8054.79,939.15,9763.35,1138.38,280.81,32.7,459.11,101.74,459.11,177.51v520.91S-1575.14,1892.65-4113.64,1709.22c-534.92-38.65-1104.72-38.65-1639.64,0-2538.5,183.43-10099.71,729.73-10099.71,729.73v-520.91c0-75.77,178.48-144.8,458.99-177.51,1708.68-199.23,7707.78-898.72,9763.47-1138.38Z"/></g><g id="Full-logo-85"><path id="Top-85" class="cls-2" d="m-5495.65,543.23c355.32-52.44,768.65-52.44,1124.31,0,1657.81,244.55,6495.8,958.31,7873.67,1161.61,226.46,33.37,370.25,103.82,370.25,181.13v531.54s-6097.75-557.46-8144.93-744.63c-431.38-39.44-890.91-39.44-1322.29,0-2047.18,187.17-8144.93,744.63-8144.93,744.63v-531.54c0-77.31,143.93-147.76,370.15-181.13,1377.97-203.3,6215.95-917.06,7873.77-1161.61Z"/></g><g id="Full-logo-86"><path id="Top-86" class="cls-2" d="m-5386.87,483.1c286.55-53.51,619.88-53.51,906.7,0C-3143.22,732.64,758.38,1460.96,1869.56,1668.41c182.63,34.05,298.59,105.94,298.59,184.82v542.39s-4917.54-568.83-6568.49-759.82c-347.89-40.25-718.47-40.25-1066.36,0-1650.95,190.99-6568.49,759.82-6568.49,759.82v-542.39c0-78.89,116.08-150.77,298.51-184.82,1111.26-207.45,5012.87-935.78,6349.81-1185.32Z"/></g><g id="Full-logo-87"><path id="Top-87" class="cls-2" d="m-5299.15,421.73c231.09-54.61,499.9-54.61,731.21,0C-3489.75,676.37-343.3,1419.56,552.82,1631.24c147.28,34.75,240.8,108.1,240.8,188.6v553.46s-3965.76-580.44-5297.17-775.33c-280.56-41.07-579.41-41.07-859.97,0-1331.41,194.89-5297.17,775.33-5297.17,775.33v-553.46c0-80.5,93.61-153.85,240.73-188.6,896.18-211.68,4042.63-954.87,5120.82-1209.51Z"/></g></g></g></svg>