<?xml version="1.0" encoding="utf-8"?>
<!-- Generator: Adobe Illustrator 27.2.0, SVG Export Plug-In . SVG Version: 6.00 Build 0)  -->
<svg version="1.1" id="Livello_1" xmlns="http://www.w3.org/2000/svg" xmlns:xlink="http://www.w3.org/1999/xlink" x="0px" y="0px"
	 viewBox="0 0 1984.3 2834.6" style="enable-background:new 0 0 1984.3 2834.6;" xml:space="preserve">
<style type="text/css">
	.st0{clip-path:url(#SVGID_00000073700896295239586460000011633487690876949378_);}
	.st1{fill-rule:evenodd;clip-rule:evenodd;fill:none;stroke:#010202;stroke-width:4;stroke-miterlimit:10;}
</style>
<g>
	<defs>
		<rect id="SVGID_1_" x="0" width="1984.3" height="2834.6"/>
	</defs>
	<clipPath id="SVGID_00000079455148968664257280000004880951996245568388_">
		<use xlink:href="#SVGID_1_"  style="overflow:visible;"/>
	</clipPath>
	<g style="clip-path:url(#SVGID_00000079455148968664257280000004880951996245568388_);">
		<g>
			<g>
				<g>
					<g transform="matrix(1,0,0,1,-2136.56,-973.343)">
						<g transform="matrix(0.746669,0,0,0.746669,1490.58,432.701)">
							<g id="Full-logo_00000146464913962380504560000004136414853233174459_">
								<path id="Top_00000126305368800161389990000013451500024549118398_" class="st1" d="M-57975.5,4504.5
									c36326.2-48.5,78582.8-48.5,114944.5,0c169487.2,226,664100.5,885.5,804967.2,1073.4
									c23151.9,30.8,37852.9,95.9,37852.9,167.4v491.2c0,0-623406.2-515.1-832700-688.1c-44102.6-36.4-91082.2-36.4-135184.8,0
									c-209293.8,173-832699.9,688.1-832699.9,688.1v-491.2c0-71.4,14715.1-136.5,37842.5-167.4
									C-722076,5390-227462.8,4730.5-57975.5,4504.5z"/>
							</g>
						</g>
					</g>
				</g>
			</g>
		</g>
		<g>
			<g>
				<g>
					<g transform="matrix(1,0,0,1,-2136.56,-973.343)">
						<g transform="matrix(0.746669,0,0,0.746669,1490.58,432.701)">
							<g id="Full-logo_00000109031187313568557650000001952967933132915355_">
								<path id="Top_00000026122437800089913490000005342678032737568140_" class="st1" d="M-46854.5,4449
									c29295.4-49.4,63373.2-49.4,92697.2,0c136683.2,230.6,535564.9,903.6,649167.1,1095.3
									c18670.9,31.5,30526.6,97.9,30526.6,170.8v501.2c0,0-502746.9-525.6-671532.2-702.1c-35566.6-37.2-73453.4-37.2-109020,0
									c-168785.3,176.5-671532.2,702.1-671532.2,702.1V5715c0-72.9,11867-139.3,30518.1-170.8
									C-582419.4,5352.5-183537.8,4679.5-46854.5,4449z"/>
							</g>
						</g>
					</g>
				</g>
			</g>
		</g>
		<g>
			<g>
				<g>
					<g transform="matrix(1,0,0,1,-2136.56,-973.343)">
						<g transform="matrix(0.746669,0,0,0.746669,1490.58,432.701)">
							<g id="Full-logo_00000183217973482261287070000011071434622901979535_">
								<path id="Top_00000127733939190186086950000008385090735771036582_" class="st1" d="M-37886,4392.3
									c23625.3-50.5,51107.4-50.5,74755.8,0c110228.4,235.3,431907.2,922,523521.8,1117.6
									c15057.1,32.1,24618.2,99.9,24618.2,174.3v511.4c0,0-405441.1-536.4-541558.2-716.4c-28682.8-37.9-59236.6-37.9-87919.4,0
									C-180584.9,5659.2-586026,6195.6-586026,6195.6v-511.4c0-74.4,9570.2-142.2,24611.4-174.3
									C-469793.1,5314.3-148114.4,4627.5-37886,4392.3z"/>
							</g>
						</g>
					</g>
				</g>
			</g>
		</g>
		<g>
			<g>
				<g>
					<g transform="matrix(1,0,0,1,-2136.56,-973.343)">
						<g transform="matrix(0.746669,0,0,0.746669,1490.58,432.701)">
							<g id="Full-logo_00000040541631797749384760000013596143794151257483_">
								<path id="Top_00000033337853355519963700000006896797716561988516_" class="st1" d="M-30653.3,4334.4
									c19052.7-51.5,41215.6-51.5,60286.9,0c88893.9,240.1,348312.2,940.8,422195,1140.4
									c12142.9,32.8,19853.4,101.9,19853.4,177.8v521.9c0,0-326968.6-547.3-436740.5-731.1c-23131.3-38.7-47771.4-38.7-70902.7,0
									c-109771.9,183.8-436740.5,731.1-436740.5,731.1v-521.9c0-75.9,7717.9-145.1,19847.9-177.8
									C-378965.5,5275.2-119547.1,4574.5-30653.3,4334.4z"/>
							</g>
						</g>
					</g>
				</g>
			</g>
		</g>
		<g>
			<g>
				<g>
					<g transform="matrix(1,0,0,1,-2136.56,-973.343)">
						<g transform="matrix(0.746669,0,0,0.746669,1490.58,432.701)">
							<g id="Full-logo_00000107589229876945282340000003639133329595834790_">
								<path id="Top_00000003797653510713631930000007698340361772012167_" class="st1" d="M-24820.4,4275.4
									c15365-52.5,33238.4-52.5,48618.5,0c71688.6,245,280897,960,340479.9,1163.7c9792.6,33.4,16010.8,104,16010.8,181.5V6153
									c0,0-263684.4-558.5-352210.1-746c-18654.2-39.5-38525.4-39.5-57179.6,0c-88525.7,187.5-352210.1,746-352210.1,746v-532.5
									c0-77.5,6224.1-148,16006.4-181.5C-305717.4,5235.4-96509.1,4520.3-24820.4,4275.4z"/>
							</g>
						</g>
					</g>
				</g>
			</g>
		</g>
		<g>
			<g>
				<g>
					<g transform="matrix(1,0,0,1,-2136.56,-973.343)">
						<g transform="matrix(0.746669,0,0,0.746669,1490.58,432.701)">
							<g id="Full-logo_00000003080950643170042900000005553087362282709404_">
								<path id="Top_00000044899166724771961770000011332952813877859969_" class="st1" d="M-20116.5,4215.1
									c12391.2-53.6,26805.2-53.6,39208.5,0c57813.4,250,226529.8,979.6,274580.5,1187.5c7897.3,34.1,12911.9,106.1,12911.9,185.2
									v543.4c0,0-212648.7-569.9-284040.4-761.2c-15043.8-40.3-31068.8-40.3-46112.6,0
									C-94960.3,5561.2-307609,6131.1-307609,6131.1v-543.4c0-79,5019.4-151,12908.4-185.2
									C-246646.4,5194.8-77929.9,4465.1-20116.5,4215.1z"/>
							</g>
						</g>
					</g>
				</g>
			</g>
		</g>
		<g>
			<g>
				<g>
					<g transform="matrix(1,0,0,1,-2136.56,-973.343)">
						<g transform="matrix(0.746669,0,0,0.746669,1490.58,432.701)">
							<g id="Full-logo_00000041276461028574871050000003072044127359449509_">
								<path id="Top_00000101061362222314700860000005575757884192181181_" class="st1" d="M-16323.1,4153.6
									c9992.9-54.7,21617.1-54.7,31619.7,0c46623.7,255.1,182685.3,999.6,221435.9,1211.7
									c6368.8,34.8,10412.8,108.3,10412.8,188.9v554.5c0,0-171490.9-581.5-229064.8-776.7c-12132.1-41.1-25055.5-41.1-37187.6,0
									c-57574,195.2-229064.8,776.7-229064.8,776.7v-554.5c0-80.6,4047.9-154.1,10410-188.9
									C-199008.4,5153.3-62946.8,4408.7-16323.1,4153.6z"/>
							</g>
						</g>
					</g>
				</g>
			</g>
		</g>
		<g>
			<g>
				<g>
					<g transform="matrix(1,0,0,1,-2136.56,-973.343)">
						<g transform="matrix(0.746669,0,0,0.746669,1490.58,432.701)">
							<g id="Full-logo_00000019668635891466522400000001150680468288115604_">
								<path id="Top_00000012438726407319146990000010198925474919090077_" class="st1" d="M-13263.8,4090.9
									c8058.8-55.8,17433.1-55.8,25499.8,0c37599.8,260.3,147326.9,1020,178577.3,1236.4c5136.1,35.5,8397.5,110.5,8397.5,192.8
									v565.8c0,0-138299.1-593.4-184729.7-792.6c-9783.9-42-20206.1-42-29990,0c-46430.6,199.2-184729.7,792.6-184729.7,792.6
									v-565.8c0-82.3,3264.5-157.3,8395.1-192.8C-160590.7,5110.9-50863.6,4351.2-13263.8,4090.9z"/>
							</g>
						</g>
					</g>
				</g>
			</g>
		</g>
		<g>
			<g>
				<g>
					<g transform="matrix(1,0,0,1,-2136.56,-973.343)">
						<g transform="matrix(0.746669,0,0,0.746669,1490.58,432.701)">
							<g id="Full-logo_00000098205281165879208880000016353650363077296265_">
								<path id="Top_00000132057409850526539420000004774979176711550909_" class="st1" d="M-10796.7,4026.9
									c6499-57,14059-57,20564.3,0c30322.4,265.6,118812,1040.8,144014,1261.7c4142,36.2,6772.1,112.8,6772.1,196.7v577.3
									c0,0-111531.5-605.5-148975.6-808.8c-7890.3-42.8-16295.2-42.8-24185.5,0c-37444.1,203.3-148975.6,808.8-148975.6,808.8
									v-577.3c0-84,2632.6-160.5,6770.3-196.7C-129608.7,5067.8-41119.1,4292.5-10796.7,4026.9z"/>
							</g>
						</g>
					</g>
				</g>
			</g>
		</g>
		<g>
			<g>
				<g>
					<g transform="matrix(1,0,0,1,-2136.56,-973.343)">
						<g transform="matrix(0.746669,0,0,0.746669,1490.58,432.701)">
							<g id="Full-logo_00000054969141077964042060000017656923805653587088_">
								<path id="Top_00000128453840486734045500000009708004126294103487_" class="st1" d="M-8807.1,3961.6
									c5241.1-58.1,11337.9-58.1,16584.1,0c24453.5,271,95816.1,1062.1,116140.3,1287.4c3340.4,37,5461.4,115.1,5461.4,200.7
									v589.1c0,0-89944.8-617.8-120141.6-825.3c-6363.1-43.7-13141.3-43.7-19504.4,0C-40464,5421-130408.8,6038.8-130408.8,6038.8
									v-589.1c0-85.7,2123.1-163.8,5459.9-200.7C-104623.2,5023.7-33260.6,4232.6-8807.1,3961.6z"/>
							</g>
						</g>
					</g>
				</g>
			</g>
		</g>
		<g>
			<g>
				<g>
					<g transform="matrix(1,0,0,1,-2136.56,-973.343)">
						<g transform="matrix(0.746669,0,0,0.746669,1490.58,432.701)">
							<g id="Full-logo_00000149368444156853703350000009691623698074923928_">
								<path id="Top_00000148651855882704225580000005193229868472613303_" class="st1" d="M-7202.6,3894.9
									c4226.7-59.3,9143.5-59.3,13374.3,0c19720.6,276.6,77271.1,1083.8,93661.5,1313.7c2693.8,37.7,4404.4,117.4,4404.4,204.8
									v601.1c0,0-72536.1-630.4-96888.4-842.1c-5131.5-44.6-10597.8-44.6-15729.4,0c-24352.3,211.7-96888.4,842.1-96888.4,842.1
									v-601.1c0-87.4,1712.2-167.1,4403.1-204.8C-84473.6,4978.7-26923.2,4171.5-7202.6,3894.9z"/>
							</g>
						</g>
					</g>
				</g>
			</g>
		</g>
		<g>
			<g>
				<g>
					<g transform="matrix(1,0,0,1,-2136.56,-973.343)">
						<g transform="matrix(0.746669,0,0,0.746669,1490.58,432.701)">
							<g id="Full-logo_00000095306386478758333920000010925301159481004166_">
								<path id="Top_00000000909565616131609920000003295843565652790672_" class="st1" d="M-5908.6,3826.9
									c3408.6-60.5,7373.8-60.5,10785.7,0c15903.7,282.2,62315.4,1105.9,75533.5,1340.5c2172.4,38.5,3551.9,119.8,3551.9,209
									v613.4c0,0-58496.9-643.3-78135.8-859.3c-4138.3-45.5-8546.6-45.5-12685,0c-19638.9,216-78135.8,859.3-78135.8,859.3v-613.4
									c0-89.2,1380.8-170.5,3550.9-209C-68224,4932.8-21812.3,4109.1-5908.6,3826.9z"/>
							</g>
						</g>
					</g>
				</g>
			</g>
		</g>
		<g>
			<g>
				<g>
					<g transform="matrix(1,0,0,1,-2136.56,-973.343)">
						<g transform="matrix(0.746669,0,0,0.746669,1490.58,432.701)">
							<g id="Full-logo_00000106849798156641481560000014601552074114432187_">
								<path id="Top_00000096764114502280230100000007635343208040238774_" class="st1" d="M-4865,3757.5
									c2748.9-61.8,5946.6-61.8,8698.2,0c12825.6,288,50254.3,1128.5,60914.1,1367.8c1752,39.3,2864.4,122.2,2864.4,213.3v625.9
									c0,0-47174.9-656.4-63012.7-876.8c-3337.4-46.4-6892.4-46.4-10229.8,0c-15837.8,220.4-63012.7,876.8-63012.7,876.8v-625.9
									c0-91,1113.5-174,2863.6-213.3C-55119.4,4886-17690.6,4045.5-4865,3757.5z"/>
							</g>
						</g>
					</g>
				</g>
			</g>
		</g>
		<g>
			<g>
				<g>
					<g transform="matrix(1,0,0,1,-2136.56,-973.343)">
						<g transform="matrix(0.746669,0,0,0.746669,1490.58,432.701)">
							<g id="Full-logo_00000095314046987223128280000005282119490612574359_">
								<path id="Top_00000031926437685426476320000011756883841205384106_" class="st1" d="M-4023.5,3686.7
									c2216.9-63,4795.6-63,7014.7,0c10343.2,293.8,40527.7,1151.5,49124.3,1395.8c1412.9,40.1,2310,124.7,2310,217.6v638.7
									c0,0-38044.3-669.8-50816.7-894.7c-2691.4-47.4-5558.4-47.4-8249.8,0c-12772.5,224.9-50816.7,894.7-50816.7,894.7v-638.7
									c0-92.9,898-177.5,2309.4-217.6C-44551.2,4838.2-14366.7,3980.6-4023.5,3686.7z"/>
							</g>
						</g>
					</g>
				</g>
			</g>
		</g>
		<g>
			<g>
				<g>
					<g transform="matrix(1,0,0,1,-2136.56,-973.343)">
						<g transform="matrix(0.746669,0,0,0.746669,1490.58,432.701)">
							<g id="Full-logo_00000011719827645404319010000004005842455010717885_">
								<path id="Top_00000004504629447580969130000000345719846806402958_" class="st1" d="M-3344.8,3614.5
									c1787.8-64.3,3867.4-64.3,5657,0c8341.3,299.8,32683.6,1175,39616.4,1424.2c1139.4,40.9,1862.9,127.3,1862.9,222.1v651.7
									c0,0-30680.9-683.5-40981.2-913c-2170.5-48.4-4482.6-48.4-6653.1,0c-10300.4,229.5-40981.2,913-40981.2,913v-651.7
									c0-94.8,724.2-181.2,1862.4-222.1C-36028.4,4789.5-11686.1,3914.3-3344.8,3614.5z"/>
							</g>
						</g>
					</g>
				</g>
			</g>
		</g>
		<g>
			<g>
				<g>
					<g transform="matrix(1,0,0,1,-2136.56,-973.343)">
						<g transform="matrix(0.746669,0,0,0.746669,1490.58,432.701)">
							<g id="Full-logo_00000049180962407472185180000013419757095376785302_">
								<path id="Top_00000012471602348165077540000000647686303197195654_" class="st1" d="M-2797.5,3540.7
									c1441.8-65.6,3118.9-65.6,4562.1,0c6726.8,306,26357.8,1199,31948.7,1453.3c918.9,41.8,1502.4,129.9,1502.4,226.6v665
									c0,0-24742.6-697.4-33049.4-931.6c-1750.4-49.3-3615-49.3-5365.4,0c-8306.7,234.2-33049.4,931.6-33049.4,931.6v-665
									c0-96.7,584-184.9,1501.9-226.6C-29155.2,4739.7-9524.3,3846.7-2797.5,3540.7z"/>
							</g>
						</g>
					</g>
				</g>
			</g>
		</g>
		<g>
			<g>
				<g>
					<g transform="matrix(1,0,0,1,-2136.56,-973.343)">
						<g transform="matrix(0.746669,0,0,0.746669,1490.58,432.701)">
							<g id="Full-logo_00000091709556690654715600000018274801456011722378_">
								<path id="Top_00000155104855268823919200000003041751257848974499_" class="st1" d="M-2356.1,3465.5
									c1162.7-67,2515.2-67,3679.1,0c5424.9,312.2,21256.3,1223.4,25765.1,1483c741,42.6,1211.6,132.5,1211.6,231.2v678.6
									c0,0-19953.7-711.7-26652.7-950.6c-1411.6-50.4-2915.3-50.4-4326.9,0c-6699,238.9-26652.7,950.6-26652.7,950.6v-678.6
									c0-98.7,471-188.6,1211.2-231.2C-23612.4,4688.9-7781,3777.7-2356.1,3465.5z"/>
							</g>
						</g>
					</g>
				</g>
			</g>
		</g>
		<g>
			<g>
				<g>
					<g transform="matrix(1,0,0,1,-2136.56,-973.343)">
						<g transform="matrix(0.746669,0,0,0.746669,1490.58,432.701)">
							<g id="Full-logo_00000020363730715991979200000000553172294232929975_">
								<path id="Top_00000148632259541266032210000010804479894898072739_" class="st1" d="M-2000.1,3388.7
									c937.7-68.3,2028.4-68.3,2967,0C5341.8,3707.3,18109,4637.1,21745.1,4902c597.6,43.5,977.1,135.2,977.1,236v692.4
									c0,0-16091.7-726.2-21494.1-970c-1138.4-51.4-2351.1-51.4-3489.5,0c-5402.4,243.8-21494.1,970-21494.1,970v-692.4
									c0-100.7,379.8-192.5,976.8-236C-19142.3,4637.1-6375,3707.3-2000.1,3388.7z"/>
							</g>
						</g>
					</g>
				</g>
			</g>
		</g>
		<g>
			<g>
				<g>
					<g transform="matrix(1,0,0,1,-2136.56,-973.343)">
						<g transform="matrix(0.746669,0,0,0.746669,1490.58,432.701)">
							<g id="Full-logo_00000127015282301941094470000013325756199424419985_">
								<path id="Top_00000046319352893514497850000010298859223370371504_" class="st1" d="M-1713.1,3310.4
									c756.2-69.7,1635.8-69.7,2392.8,0C4207.8,3635.5,14504,4584.3,17436.3,4854.5c481.9,44.4,788,138,788,240.8v706.6
									c0,0-12977.2-741-17334-989.8c-918.1-52.4-1896-52.4-2814.1,0c-4356.8,248.8-17334,989.8-17334,989.8v-706.6
									c0-102.8,306.3-196.4,787.8-240.8C-15537.4,4584.3-5241.2,3635.5-1713.1,3310.4z"/>
							</g>
						</g>
					</g>
				</g>
			</g>
		</g>
		<g>
			<g>
				<g>
					<g transform="matrix(1,0,0,1,-2136.56,-973.343)">
						<g transform="matrix(0.746669,0,0,0.746669,1490.58,432.701)">
							<g id="Full-logo_00000134243534576012865170000012906084186757417633_">
								<path id="Top_00000090268271746562108410000014168408898779657356_" class="st1" d="M-1481.6,3230.5
									c609.8-71.1,1319.2-71.1,1929.6,0c2845.3,331.7,11148.6,1299.9,13513.4,1575.6c388.7,45.3,635.5,140.8,635.5,245.7v721
									c0,0-10465.5-756.1-13979-1010c-740.4-53.5-1529-53.5-2269.4,0c-3513.5,253.9-13979,1010-13979,1010v-721
									c0-104.9,247-200.4,635.3-245.7C-12630.2,4530.3-4326.9,3562.2-1481.6,3230.5z"/>
							</g>
						</g>
					</g>
				</g>
			</g>
		</g>
		<g>
			<g>
				<g>
					<g transform="matrix(1,0,0,1,-2136.56,-973.343)">
						<g transform="matrix(0.746669,0,0,0.746669,1490.58,432.701)">
							<g id="Full-logo_00000030487530652287298860000010399908261327830189_">
								<path id="Top_00000050636031948739477510000012526440426910171830_" class="st1" d="M-1294.9,3148.9
									c491.8-72.6,1063.9-72.6,1556.2,0c2294.6,338.5,8990.8,1326.4,10897.9,1607.8c313.4,46.2,512.5,143.7,512.5,250.7v735.7
									c0,0-8439.9-771.6-11273.4-1030.6c-597.1-54.6-1233.1-54.6-1830.2,0c-2833.5,259.1-11273.4,1030.6-11273.4,1030.6v-735.7
									c0-107,199.2-204.5,512.3-250.7C-10285.7,4475.3-3589.5,3487.4-1294.9,3148.9z"/>
							</g>
						</g>
					</g>
				</g>
			</g>
		</g>
		<g>
			<g>
				<g>
					<g transform="matrix(1,0,0,1,-2136.56,-973.343)">
						<g transform="matrix(0.746669,0,0,0.746669,1490.58,432.701)">
							<g id="Full-logo_00000049937252028442547610000003186453018887107746_">
								<path id="Top_00000001627521314911023420000001758453222018419092_" class="st1" d="M-1144.3,3065.7
									c396.6-74.1,858-74.1,1255,0c1850.5,345.4,7250.7,1353.5,8788.7,1640.6c252.8,47.1,413.3,146.6,413.3,255.8v750.7
									c0,0-6806.4-787.3-9091.4-1051.7c-481.5-55.7-994.4-55.7-1476,0c-2285.1,264.3-9091.5,1051.7-9091.5,1051.7v-750.7
									c0-109.2,160.7-208.7,413.2-255.8C-8395,4419.1-2994.8,3411.1-1144.3,3065.7z"/>
							</g>
						</g>
					</g>
				</g>
			</g>
		</g>
		<g>
			<g>
				<g>
					<g transform="matrix(1,0,0,1,-2136.56,-973.343)">
						<g transform="matrix(0.746669,0,0,0.746669,1490.58,432.701)">
							<g id="Full-logo_00000008842282011665636350000009005295709392857495_">
								<path id="Top_00000065791339204361932410000011727464621572627378_" class="st1" d="M-1022.9,2980.7
									c319.8-75.6,691.9-75.6,1012.1,0c1492.3,352.4,5847.3,1381.1,7087.6,1674.1c203.8,48.1,333.3,149.6,333.3,261v766
									c0,0-5489-803.4-7331.8-1073.1c-388.3-56.8-802-56.8-1190.3,0c-1842.8,269.7-7331.8,1073.1-7331.8,1073.1v-766
									c0-111.4,129.6-212.9,333.2-261C-6870.2,4361.8-2515.2,3333.2-1022.9,2980.7z"/>
							</g>
						</g>
					</g>
				</g>
			</g>
		</g>
		<g>
			<g>
				<g>
					<g transform="matrix(1,0,0,1,-2136.56,-973.343)">
						<g transform="matrix(0.746669,0,0,0.746669,1490.58,432.701)">
							<g id="Full-logo_00000047041897949995857210000016785638021118685317_">
								<path id="Top_00000093156336930157608050000000554611112937688468_" class="st1" d="M-925,2894.1
									c257.9-77.1,558-77.1,816.2,0C1094.7,3253.7,4606.8,4303.4,5607,4602.3c164.4,49.1,268.8,152.7,268.8,266.4v781.7
									c0,0-4426.6-819.8-5912.8-1095c-313.2-58-646.7-58-959.9,0c-1486.1,275.2-5912.8,1095-5912.8,1095v-781.7
									c0-113.7,104.5-217.3,268.7-266.4C-5640.6,4303.4-2128.5,3253.7-925,2894.1z"/>
							</g>
						</g>
					</g>
				</g>
			</g>
		</g>
		<g>
			<g>
				<g>
					<g transform="matrix(1,0,0,1,-2136.56,-973.343)">
						<g transform="matrix(0.746669,0,0,0.746669,1490.58,432.701)">
							<g id="Full-logo_00000072256142516394808650000011462106150499527583_">
								<path id="Top_00000003803834971581238700000005251299332448009126_" class="st1" d="M-846,2805.6c208-78.7,450-78.7,658.2,0
									c970.5,367,3802.9,1438,4609.5,1743.1c132.6,50.1,216.8,155.8,216.8,271.8v797.6c0,0-3569.9-836.5-4768.3-1117.4
									c-252.5-59.2-521.6-59.2-774.1,0c-1198.5,280.9-4768.3,1117.4-4768.3,1117.4v-797.6c0-116,84.3-221.7,216.7-271.8
									C-4648.9,4243.7-1816.6,3172.6-846,2805.6z"/>
							</g>
						</g>
					</g>
				</g>
			</g>
		</g>
		<g>
			<g>
				<g>
					<g transform="matrix(1,0,0,1,-2136.56,-973.343)">
						<g transform="matrix(0.746669,0,0,0.746669,1490.58,432.701)">
							<g id="Full-logo_00000182521014134901231960000009026138606879312797_">
								<path id="Top_00000032611953050954501860000014988841472216188583_" class="st1" d="M-782.3,2715.4
									c167.8-80.3,362.9-80.3,530.8,0c782.7,374.5,3066.8,1467.4,3717.4,1778.7c106.9,51.1,174.8,159,174.8,277.3v813.9
									c0,0-2878.9-853.6-3845.4-1140.2c-203.7-60.4-420.6-60.4-624.3,0c-966.5,286.6-3845.4,1140.2-3845.4,1140.2v-813.9
									c0-118.4,68-226.2,174.8-277.3C-3849.2,4182.8-1565,3089.9-782.3,2715.4z"/>
							</g>
						</g>
					</g>
				</g>
			</g>
		</g>
	</g>
</g>
</svg>
