<?xml version="1.0" encoding="utf-8"?>
<!-- Generator: Adobe Illustrator 27.2.0, SVG Export Plug-In . SVG Version: 6.00 Build 0)  -->
<svg version="1.1" id="Livello_1" xmlns="http://www.w3.org/2000/svg" xmlns:xlink="http://www.w3.org/1999/xlink" x="0px" y="0px"
	 viewBox="0 0 1984.3 2834.6" style="enable-background:new 0 0 1984.3 2834.6;" xml:space="preserve">
<style type="text/css">
	.st0{clip-path:url(#SVGID_00000148641579907310622810000012980650361023783097_);}
	.st1{fill-rule:evenodd;clip-rule:evenodd;fill:none;stroke:#010202;stroke-width:4;stroke-miterlimit:10;}
</style>
<g>
	<defs>
		<rect id="SVGID_1_" y="235.9" width="1984.3" height="2478"/>
	</defs>
	<clipPath id="SVGID_00000145772375004433691750000009098048657161249967_">
		<use xlink:href="#SVGID_1_"  style="overflow:visible;"/>
	</clipPath>
	<g style="clip-path:url(#SVGID_00000145772375004433691750000009098048657161249967_);">
		<g>
			<g>
				<g>
					<g transform="matrix(1,0,0,1,-2136.56,-973.343)">
						<g transform="matrix(0.746669,0,0,0.746669,1490.58,432.701)">
							<g id="Full-logo_00000080166209304455967100000015348301276390507146_">
								<path id="Top_00000051356170232976433350000000990734699789893308_" class="st1" d="M4968.7,2580.9
									C-1041,3453.6-7603.7,4497.3-12882.8,5420.1C-37489,9721.2-109296.2,22273.1-129747,25847.9
									c-3361.4,587.5-5150.2,983.7-4607.6,1019.9l3730.4,249.3c0,0,92906.5-15659.8,124097.5-20917.2
									C45.9,5092,7342.1,3931.6,14468.3,2860.7c33818.1-5081.9,134549.1-20218.8,134549.1-20218.8l-3730.3-249.3
									c-542.6-36.3-3322.3,294.2-7148.3,849.8C114832.9-13373.2,33007.4-1490.8,4968.7,2580.9z"/>
							</g>
						</g>
					</g>
				</g>
			</g>
		</g>
		<g>
			<g>
				<g>
					<g transform="matrix(1,0,0,1,-2136.56,-973.343)">
						<g transform="matrix(0.746669,0,0,0.746669,1490.58,432.701)">
							<g id="Full-logo_00000163039515586460918180000016666136562537235075_">
								<path id="Top_00000088094597850138207140000011069159992259727535_" class="st1" d="M4538.5,2614.3
									C-329.7,3297.2-5648.3,4136.4-9929.1,4897.2C-29881.7,8443.3-88108.8,18792-104691.8,21739.3
									c-2725.7,484.4-4178.5,828.2-3742.3,885.1l2999.5,391c0,0,75319.7-12791.6,100606.4-17086.1
									c5328.4-904.9,11241.5-1838,17015.1-2684.9C39586-774.8,121197.2-12746.2,121197.2-12746.2l-2999.5-391
									c-436.3-56.9-2685.9,183.6-5785.2,618.3C93533.7-9870.5,27251.1-572,4538.5,2614.3z"/>
							</g>
						</g>
					</g>
				</g>
			</g>
		</g>
		<g>
			<g>
				<g>
					<g transform="matrix(1,0,0,1,-2136.56,-973.343)">
						<g transform="matrix(0.746669,0,0,0.746669,1490.58,432.701)">
							<g id="Full-logo_00000003107087612500164740000004720280196635806883_">
								<path id="Top_00000108275304706786353620000005564812002623424677_" class="st1" d="M4190.8,2633.2
									C248.1,3161.6-4062.2,3835-7533.7,4464.8c-16180.8,2935.7-63400.8,11503-76849,13943c-2210.5,401-3391.1,702.9-3041,777.2
									l2406.5,510.8c0,0,61064.7-10469.3,81565.7-13984.1c4320-740.7,9112-1489.2,13789.1-2154.1
									c22195.7-3155.1,88308-12553,88308-12553L96239-9506.3c-350-74.3-2169.9,92.5-4680,428.9
									C76268.8-7027.9,22586,167.5,4190.8,2633.2z"/>
							</g>
						</g>
					</g>
				</g>
			</g>
		</g>
		<g>
			<g>
				<g>
					<g transform="matrix(1,0,0,1,-2136.56,-973.343)">
						<g transform="matrix(0.746669,0,0,0.746669,1490.58,432.701)">
							<g id="Full-logo_00000003063994736088205720000004926015514071521452_">
								<path id="Top_00000083047617160735694480000005005615277682996097_" class="st1" d="M3910.1,2640.2
									C717.5,3042.7-2775.3,3581.4-5591,4105.4c-13123.7,2442.5-51422.3,9570.4-62329.7,11600.5
									c-1792.8,333.6-2752.8,602.2-2472.8,691.4l1925.1,612.9c0,0,49510.4-8589.5,66132.3-11473.2
									C1166.5,4929.2,5049.7,4330.4,8838,3813.6C26815.6,1361.5,80364-5942.5,80364-5942.5l-1925.1-612.9
									c-280-89.1-1751.5,17.2-3784,273.5C62274-4720.4,18805.2,761.6,3910.1,2640.2z"/>
							</g>
						</g>
					</g>
				</g>
			</g>
		</g>
		<g>
			<g>
				<g>
					<g transform="matrix(1,0,0,1,-2136.56,-973.343)">
						<g transform="matrix(0.746669,0,0,0.746669,1490.58,432.701)">
							<g id="Full-logo_00000026132327020290970620000002412895593965788035_">
								<path id="Top_00000003791049551637140870000004292412608862940084_" class="st1" d="M3683.6,2637.2
									C1099.2,2937.2-1731.1,3366.5-4015.1,3805c-10646,2044.3-41713.7,8010.3-50561.8,9709.4
									c-1454.3,279.2-2235.6,521.4-2012.5,623.3l1534.3,700.7c0,0,40145.2-7068.4,53622.9-9441.5
									c2840-500.1,5986.6-977.4,9054.4-1373.4C22180.6,2144,65544-3454.7,65544-3454.7l-1534.3-700.7
									c-223.2-101.9-1412.1-45.3-3057.4,145.7C50929.8-2846.5,15741.4,1237.7,3683.6,2637.2z"/>
							</g>
						</g>
					</g>
				</g>
			</g>
		</g>
		<g>
			<g>
				<g>
					<g transform="matrix(1,0,0,1,-2136.56,-973.343)">
						<g transform="matrix(0.746669,0,0,0.746669,1490.58,432.701)">
							<g id="Full-logo_00000030446469945753581040000000135083719534461622_">
								<path id="Top_00000095325986192132606290000011786208135168098218_" class="st1" d="M3501.2,2626.1
									c-2091.4,216-4384.5,556.5-6237.7,926.2c-8637.8,1723.2-33845,6752.2-41024,8184.5c-1180,235.3-1816.5,456.8-1639.5,569.8
									l1216.9,777.1c0,0,32554.3-5838.2,43483.7-7798.3c2303-413,4852.5-791.6,7336.1-1089.3
									c11786.3-1412.8,46893.1-5620.9,46893.1-5620.9l-1216.9-777.1c-177-113-1136.8-97.5-2468.3,40.1
									C41734.1-1323.9,13258.7,1618,3501.2,2626.1z"/>
							</g>
						</g>
					</g>
				</g>
			</g>
		</g>
		<g>
			<g>
				<g>
					<g transform="matrix(1,0,0,1,-2136.56,-973.343)">
						<g transform="matrix(0.746669,0,0,0.746669,1490.58,432.701)">
							<g id="Full-logo_00000074424433178985869210000011919427658959759549_">
								<path id="Top_00000103972623712806748000000005260869918565184187_" class="st1" d="M3354.5,2608
									C1662.8,2755.3-195,3023.6-1699,3337.8c-7010.2,1464.6-27467.8,5739.1-33294.1,6956.5c-957.7,200-1476.9,405.3-1337.4,528.1
									l958.9,844.5c0,0,26401.8-4843.8,35265.6-6470.1c1867.8-342.7,3933.2-641,5943.3-858.3
									C15376.3,3306.9,43789.4,234.4,43789.4,234.4l-958.9-844.5c-139.5-122.8-913.5-141.3-1990.5-47.5
									C34279.8-86.1,11247,1920.4,3354.5,2608z"/>
							</g>
						</g>
					</g>
				</g>
			</g>
		</g>
		<g>
			<g>
				<g>
					<g transform="matrix(1,0,0,1,-2136.56,-973.343)">
						<g transform="matrix(0.746669,0,0,0.746669,1490.58,432.701)">
							<g id="Full-logo_00000125601228731556553000000018313804229312653752_">
								<path id="Top_00000060709303497007853610000011749918129315672214_" class="st1" d="M3236.7,2584.1
									c-1367.6,90.9-2872.4,300.5-4093.4,570.1c-5691.2,1256.8-22299.5,4924.7-27029.5,5969.4
									c-777.5,171.6-1201.7,364.4-1092.8,496l749.1,904.6c0,0,21415.2-4040.7,28604.8-5397.3c1515-285.9,3188-518.9,4814.2-670.5
									c7717.1-719.6,30703.5-2862.9,30703.5-2862.9l-749.1-904.6c-108.9-131.6-732.3-178.5-1602.9-120.5
									C28237.1,921.1,9617.1,2159.7,3236.7,2584.1z"/>
							</g>
						</g>
					</g>
				</g>
			</g>
		</g>
		<g>
			<g>
				<g>
					<g transform="matrix(1,0,0,1,-2136.56,-973.343)">
						<g transform="matrix(0.746669,0,0,0.746669,1490.58,432.701)">
							<g id="Full-logo_00000165194266438913706310000010141957013777895102_">
								<path id="Top_00000024000517612036299390000006359544449858928551_" class="st1" d="M3142.5,2555.3
									C2037.7,2599.8,819,2761.6-172.7,2995.4C-4794.9,4085.5-18283.8,7267-22125.4,8173.1c-631.4,148.8-978.8,332.2-894.7,471.7
									l578.3,958.9c0,0,17373.5-3392.6,23206.2-4531.7c1229.1-240,2584-419.9,3898.9-517.6c6240-463.7,24826.4-1845,24826.4-1845
									l-578.3-958.9c-84.1-139.5-585.1-210.2-1288.5-181.9C23338.6,1741.3,8296.8,2347.5,3142.5,2555.3z"/>
							</g>
						</g>
					</g>
				</g>
			</g>
		</g>
		<g>
			<g>
				<g>
					<g transform="matrix(1,0,0,1,-2136.56,-973.343)">
						<g transform="matrix(0.746669,0,0,0.746669,1490.58,432.701)">
							<g id="Full-logo_00000076601223293545231880000002768401053321812121_">
								<path id="Top_00000009584259839020160690000003461237475564415877_" class="st1" d="M3067.3,2522.2
									c-891.6,6.1-1878.5,128.9-2684.3,334.2c-3756,956.9-14717,3749.4-17838.8,4544.8c-513.1,130.6-798.2,307.1-734.4,453.8
									l439.1,1008.8c0,0,14097.8-2870.4,18830.8-3834c997.3-203.1,2094.4-339.7,3156.9-393
									c5042.2-253.3,20061-1007.7,20061-1007.7l-439.1-1008.8c-63.9-146.7-465.7-237.6-1033.3-233.7
									C19367.6,2410.2,7227.4,2493.5,3067.3,2522.2z"/>
							</g>
						</g>
					</g>
				</g>
			</g>
		</g>
		<g>
			<g>
				<g>
					<g transform="matrix(1,0,0,1,-2136.56,-973.343)">
						<g transform="matrix(0.746669,0,0,0.746669,1490.58,432.701)">
							<g id="Full-logo_00000065777525844850452450000005620435722527571079_">
								<path id="Top_00000067934484419245545390000003906847255960832444_" class="st1" d="M3007.7,2485.4
									c-718.8-25.8-1517.6,65.3-2172.8,247.7C-2219.2,3583.8-11132,6066.6-13670.3,6773.7c-417.2,116.1-652,287.7-604.6,441.1
									l325.5,1055.1c0,0,11443.1-2450.1,15284.8-3272.7c809.5-173.3,1697.6-274.6,2555.4-291.3
									c4070.9-79.5,16196.7-316.5,16196.7-316.5L19762,3334.4c-47.3-153.5-368.6-261.6-826.3-278
									C16148.2,2956.4,6361.3,2605.5,3007.7,2485.4z"/>
							</g>
						</g>
					</g>
				</g>
			</g>
		</g>
		<g>
			<g>
				<g>
					<g transform="matrix(1,0,0,1,-2136.56,-973.343)">
						<g transform="matrix(0.746669,0,0,0.746669,1490.58,432.701)">
							<g id="Full-logo_00000081621348911295210370000001959282267307931819_">
								<path id="Top_00000114059456647048427500000000463088202372211089_" class="st1" d="M2960.7,2445.3
									c-578.6-52.5-1224.9,12.6-1758.2,177.1c-2485.4,766.6-9738.7,3004-11804.4,3641.2c-339.5,104.6-533.6,272.9-499.7,432.7
									l232.6,1098.8c0,0,9291.6-2112.6,12411.1-2821.9c657.3-149.5,1375.9-221.8,2067.8-208.2
									c3283.3,64.5,13062.8,256.7,13062.8,256.7l-232.6-1098.8c-33.8-159.8-289.7-282.8-658.1-316.1
									C13538.2,3403.4,5660.2,2689.8,2960.7,2445.3z"/>
							</g>
						</g>
					</g>
				</g>
			</g>
		</g>
		<g>
			<g>
				<g>
					<g transform="matrix(1,0,0,1,-2136.56,-973.343)">
						<g transform="matrix(0.746669,0,0,0.746669,1490.58,432.701)">
							<g id="Full-logo_00000087392740399869919630000015188774467150125962_">
								<path id="Top_00000119797864375545295640000017921832516653390516_" class="st1" d="M2923.9,2402.3
									c-464.8-74.9-987.6-31.1-1422,119.2c-2024.7,700.4-7933.5,2744.6-9616.3,3326.8c-276.6,95.6-437.7,262-414.9,427.9
									l156.6,1140.5c0,0,7548.1-1842.4,10082.2-2460.9c534-130.3,1115.2-179.1,1672.4-140.1
									C6026.2,5000.2,13902.8,5550,13902.8,5550l-156.6-1140.5c-22.8-165.9-225.6-301.8-521.5-349.4
									C11422,3770,5092.8,2751.3,2923.9,2402.3z"/>
							</g>
						</g>
					</g>
				</g>
			</g>
		</g>
		<g>
			<g>
				<g>
					<g transform="matrix(1,0,0,1,-2136.56,-973.343)">
						<g transform="matrix(0.746669,0,0,0.746669,1490.58,432.701)">
							<g id="Full-logo_00000110466962273259178790000000706347696403736244_">
								<path id="Top_00000114036720353293065150000010252967735092920750_" class="st1" d="M2895.5,2356.7
									c-372.5-93.9-795.1-67.5-1149.4,71.6C94.5,3077.1-4725.3,4970.6-6097.9,5510c-225.6,88.5-360.2,254.2-346.5,425.9
									l94.1,1180.7c0,0,6135.4-1626.6,8195.2-2172.7c434-115.1,903.8-144.4,1351.8-84.2c2126.1,285.4,8458.7,1135.2,8458.7,1135.2
									l-94.1-1180.7c-13.7-171.7-173.3-319-410.5-378.8C9706.1,4071.6,4633.7,2794.3,2895.5,2356.7z"/>
							</g>
						</g>
					</g>
				</g>
			</g>
		</g>
		<g>
			<g>
				<g>
					<g transform="matrix(1,0,0,1,-2136.56,-973.343)">
						<g transform="matrix(0.746669,0,0,0.746669,1490.58,432.701)">
							<g id="Full-logo_00000152239344013509868940000007455068074398112150_">
								<path id="Top_00000127726908789577832930000003777224121223478683_" class="st1" d="M2873.9,2308.7
									c-297.6-110.1-638.9-98.2-928.4,32.4c-1349.4,609-5287.2,2386.5-6408.7,2892.8c-184.3,83.1-297.4,248.9-291.2,426.3
									l42.6,1219.8c0,0,4990.6-1455.1,6666.1-1943.7c353.1-103,732.5-116.2,1091.9-38.1c1705.5,370.5,6785.5,1474,6785.5,1474
									L9789,5152.4c-6.2-177.4-130.7-334.9-320.2-405C8314.7,4320.6,4262.5,2822.1,2873.9,2308.7z"/>
							</g>
						</g>
					</g>
				</g>
			</g>
		</g>
		<g>
			<g>
				<g>
					<g transform="matrix(1,0,0,1,-2136.56,-973.343)">
						<g transform="matrix(0.746669,0,0,0.746669,1490.58,432.701)">
							<g id="Full-logo_00000124130030460652710380000002241387217233130397_">
								<path id="Top_00000011735098683924151480000008180325026338539946_" class="st1" d="M2857.8,2258.4
									c-236.8-124.2-512.2-124.2-749.2,0C1004,2837.3-2219.8,4527-3137.9,5008.3c-150.9,79-246.7,245.8-246.7,428.8v1258.3
									c0,0,4063.2-1319.7,5427.3-1762.8c287.4-93.4,593.7-93.4,881.1,0c1364.1,443.1,5427.3,1762.8,5427.3,1762.8V5437.1
									c0-183-95.9-349.8-246.6-428.8C7186.3,4527,3962.5,2837.3,2857.8,2258.4z"/>
							</g>
						</g>
					</g>
				</g>
			</g>
		</g>
	</g>
</g>
</svg>
