<?xml version="1.0" encoding="utf-8"?>
<!-- Generator: Adobe Illustrator 27.2.0, SVG Export Plug-In . SVG Version: 6.00 Build 0)  -->
<svg version="1.1" id="Livello_1" xmlns="http://www.w3.org/2000/svg" xmlns:xlink="http://www.w3.org/1999/xlink" x="0px" y="0px"
	 viewBox="0 0 1984.3 2834.6" style="enable-background:new 0 0 1984.3 2834.6;" xml:space="preserve">
<style type="text/css">
	.st0{clip-path:url(#SVGID_00000114039261256808836430000017216582898083664311_);}
	.st1{fill-rule:evenodd;clip-rule:evenodd;fill:none;stroke:#010202;stroke-width:4;stroke-miterlimit:10;}
</style>
<g>
	<defs>
		<rect id="SVGID_1_" x="0" y="1474.9" width="1984.3" height="1116.1"/>
	</defs>
	<clipPath id="SVGID_00000141413494493130643800000006516972614588379569_">
		<use xlink:href="#SVGID_1_"  style="overflow:visible;"/>
	</clipPath>
	<g style="clip-path:url(#SVGID_00000141413494493130643800000006516972614588379569_);">
		<g>
			<g>
				<g>
					<g transform="matrix(1,0,0,1,-2136.56,-973.343)">
						<g transform="matrix(0.746669,0,0,0.746669,1490.58,432.701)">
							<g id="Full-logo_00000170257597661413745410000017062131038254437000_">
								<path id="Top_00000183218340843878932780000015910801491100987300_" class="st1" d="M6234.9,808.8
									C2060.2,1447.9-2466.6,2231.5-6078.9,2940.2c-16836.5,3303.4-65970,12943.6-79963.2,15689.2
									c-2300.1,451.2-3494.6,770.1-3077.2,820.9l2869.8,349.2c0,0,63774.7-11925.7,85185.4-15929.5
									C3447.6,3026.3,8480.5,2155.2,13418,1363.4c23431.8-3757.8,93225.8-14951,93225.8-14951l-2869.8-349.2
									c-417.4-50.8-2374.1,175.8-5031.9,582.7C82552.7-10875.6,25712.1-2173.2,6234.9,808.8z"/>
							</g>
						</g>
					</g>
				</g>
			</g>
		</g>
		<g>
			<g>
				<g>
					<g transform="matrix(1,0,0,1,-2136.56,-973.343)">
						<g transform="matrix(0.746669,0,0,0.746669,1490.58,432.701)">
							<g id="Full-logo_00000046318990295704908560000001949235300659870853_">
								<path id="Top_00000129206748461717169820000009864774871219684261_" class="st1" d="M6073.8,801.5
									c-3466.5,508.3-7228,1152.7-10232,1752.9C-18159.5,5352.1-59018.9,13516.7-70655.7,15842
									c-1912.7,382.1-2908.6,667.7-2565.3,735l2360.2,463.1c0,0,53018.2-9992.5,70817.7-13347.3
									c3750.7-706.9,7932.7-1423.4,12033.7-2061.6C31452.3-1397.3,89421-10418.5,89421-10418.5l-2360.2-463.1
									c-343.3-67.4-1966,95.7-4172.9,419.3C69444.9-8491.1,22246.8-1570.1,6073.8,801.5z"/>
							</g>
						</g>
					</g>
				</g>
			</g>
		</g>
		<g>
			<g>
				<g>
					<g transform="matrix(1,0,0,1,-2136.56,-973.343)">
						<g transform="matrix(0.746669,0,0,0.746669,1490.58,432.701)">
							<g id="Full-logo_00000047031375264752061120000008271394291532018878_">
								<path id="Top_00000093861059237556509580000013124900172510833574_" class="st1" d="M5940.9,788.2
									c-2877.8,399-6003.2,927.6-8501.6,1437.9c-11645,2378.7-45628,9320.6-55306.4,11297.7c-1590.8,324.9-2421.6,583.3-2140,665
									l1936,562c0,0,44078.2-8387.7,58876.3-11203.7c3118.3-593.4,6593-1181.1,9998.6-1691.1
									C26965.5-564.2,75104.6-7773.1,75104.6-7773.1l-1936-562c-281.6-81.7-1626.5,27.8-3458.6,281.9
									C58549.8-6505.9,19367.3-1073.4,5940.9,788.2z"/>
							</g>
						</g>
					</g>
				</g>
			</g>
		</g>
		<g>
			<g>
				<g>
					<g transform="matrix(1,0,0,1,-2136.56,-973.343)">
						<g transform="matrix(0.746669,0,0,0.746669,1490.58,432.701)">
							<g id="Full-logo_00000013895860772806594110000005696128751403051919_">
								<path id="Top_00000092435442132950354060000008797403445329455767_" class="st1" d="M5831.5,769.7
									c-2388.4,307.5-4985,739.7-7063.3,1175.6c-9686.7,2031.8-37955,7961.4-46005.8,9650.2
									c-1323.3,277.5-2016.9,513.8-1786.7,608.2l1582.8,648.7c0,0,36648-7056,48951.6-9424.9
									c2592.6-499.2,5479.5-979.6,8307-1382.6C23235.7,132.8,63203.7-5562.6,63203.7-5562.6l-1582.8-648.7
									c-230.2-94.4-1344.2-29.8-2864.8,166C49493.9-4852.6,16974.7-665.2,5831.5,769.7z"/>
							</g>
						</g>
					</g>
				</g>
			</g>
		</g>
		<g>
			<g>
				<g>
					<g transform="matrix(1,0,0,1,-2136.56,-973.343)">
						<g transform="matrix(0.746669,0,0,0.746669,1490.58,432.701)">
							<g id="Full-logo_00000181069188754497569650000010496166598985504138_">
								<path id="Top_00000057862300095897181980000006493905266763760283_" class="st1" d="M5741.7,746.7
									c-1981.6,230.9-4138.7,582.7-5867.8,957c-8059.2,1744.9-31578.3,6837-38276.5,8287.3c-1101,238.3-1680.7,456.8-1493.2,562.3
									l1288.6,725.3c0,0,30472.7-5951.2,40703.1-7949.3c2155.8-421,4554-812.2,6901-1125.6
									C20134.9,716.7,53310.5-3713.3,53310.5-3713.3l-1288.6-725.3c-187.4-105.5-1109.4-79.1-2370.9,67.9
									C41966.5-3475.1,14986.7-330.8,5741.7,746.7z"/>
							</g>
						</g>
					</g>
				</g>
			</g>
		</g>
		<g>
			<g>
				<g>
					<g transform="matrix(1,0,0,1,-2136.56,-973.343)">
						<g transform="matrix(0.746669,0,0,0.746669,1490.58,432.701)">
							<g id="Full-logo_00000074403122314863237050000000190554187335340716_">
								<path id="Top_00000094577405077089548210000012600727456416275344_" class="st1" d="M5668.2,719.8
									c-1643.3,166.6-3435.1,451.5-4874.1,774.9c-6706.8,1507.8-26279,5908.1-31853.2,7161.3
									c-916.2,205.9-1401.3,410.2-1249.5,525.6l1043.4,793.6c0,0,25340.3-5035.2,33847.7-6725.7
									c1792.7-356.2,3784.8-672.9,5732.3-911.4C17557,1206.7,45085.9-2163.8,45085.9-2163.8l-1043.4-793.6
									c-151.8-115.4-914-121.4-1960.2-15.3C35709.6-2326.6,13335.1-57.7,5668.2,719.8z"/>
							</g>
						</g>
					</g>
				</g>
			</g>
		</g>
		<g>
			<g>
				<g>
					<g transform="matrix(1,0,0,1,-2136.56,-973.343)">
						<g transform="matrix(0.746669,0,0,0.746669,1490.58,432.701)">
							<g id="Full-logo_00000129909229700392705840000008402952088625426081_">
								<path id="Top_00000026884080393098188310000009287031552639783821_" class="st1" d="M5608.3,689.4
									c-1362.1,112.5-2850.2,341.6-4048,623C-4022.7,2624.6-20315.2,6454-24955.2,7544.7c-762.7,179.2-1169.2,372.2-1047.2,496.6
									l838.9,855.2c0,0,21074.9-4276,28150.3-5711.6c1490.9-302.5,3145.4-557.2,4760.8-732.8
									c7666.2-833.3,30500.7-3315.5,30500.7-3315.5l-838.9-855.2c-122-124.4-751.4-158-1618.6-86.3
									C30508.6-1368.4,11963.1,164.2,5608.3,689.4z"/>
							</g>
						</g>
					</g>
				</g>
			</g>
		</g>
		<g>
			<g>
				<g>
					<g transform="matrix(1,0,0,1,-2136.56,-973.343)">
						<g transform="matrix(0.746669,0,0,0.746669,1490.58,432.701)">
							<g id="Full-logo_00000130641179835980012200000006395082328257559424_">
								<path id="Top_00000101061234355438960000000016985196621719771568_" class="st1" d="M5559.6,655.9
									c-1128.2,66.9-2364,249.4-3361.4,496.3c-4649,1151.1-18216.1,4510.3-22080,5467.1c-635.1,157.2-976.5,341.4-879.3,474
									l668.2,911.3c0,0,17530-3647.4,23415.2-4871.9c1240.1-258,2614-460.9,3953.3-583.7
									c6355.8-582.7,25287.4-2318.6,25287.4-2318.6l-668.2-911.3c-97.2-132.5-616.1-189.8-1334.4-147.2
									C26185.2-568.4,10823.5,343.4,5559.6,655.9z"/>
							</g>
						</g>
					</g>
				</g>
			</g>
		</g>
		<g>
			<g>
				<g>
					<g transform="matrix(1,0,0,1,-2136.56,-973.343)">
						<g transform="matrix(0.746669,0,0,0.746669,1490.58,432.701)">
							<g id="Full-logo_00000062160877389281263240000006699808653431771781_">
								<path id="Top_00000161596085510822381640000005250978578346756012_" class="st1" d="M5520.4,619.7
									c-933.8,28.4-1959.7,171.9-2790.7,390.4c-3873,1018.7-15175.6,3991.6-18394.5,4838.3c-529.1,139.1-816.3,316.6-739.9,456.7
									l525.6,963c0,0,14584-3127.2,19480.2-4177.1c1031.7-221.2,2172.3-380.8,3282.1-459.1
									c5266.4-371.7,20952.9-1479,20952.9-1479l-525.6-963C27234,49.8,26807.1-27.8,26212.6-9.7
									C22591.3,100.4,9877.1,487.1,5520.4,619.7z"/>
							</g>
						</g>
					</g>
				</g>
			</g>
		</g>
		<g>
			<g>
				<g>
					<g transform="matrix(1,0,0,1,-2136.56,-973.343)">
						<g transform="matrix(0.746669,0,0,0.746669,1490.58,432.701)">
							<g id="Full-logo_00000100340670787487061160000016787918876811390645_">
								<path id="Top_00000024704914985051464690000014990072860077549223_" class="st1" d="M5489.1,581
									c-772.1-4.4-1623.6,106.6-2316.2,301.8C-55.4,1792.9-9476.3,4449.3-12159.4,5205.9c-441,124.3-683.4,296.9-624.3,443.9
									l406.4,1011.1c0,0,12135.7-2697.2,16210-3602.8c858.5-190.8,1805.2-314.2,2724-354.9c4360.4-193.5,17348.5-770,17348.5-770
									l-406.4-1011.1c-59.1-147.1-409.5-242.4-901-245.2C19603.6,660.1,9091.3,601.1,5489.1,581z"/>
							</g>
						</g>
					</g>
				</g>
			</g>
		</g>
		<g>
			<g>
				<g>
					<g transform="matrix(1,0,0,1,-2136.56,-973.343)">
						<g transform="matrix(0.746669,0,0,0.746669,1490.58,432.701)">
							<g id="Full-logo_00000065056082085213563210000015524636710158032283_">
								<path id="Top_00000059300249141563608220000013805152299100514218_" class="st1" d="M5464.3,539.9
									c-637.6-32.3-1344,51.4-1921.7,227.6C850,1589.1-7007.8,3987-9245.7,4670c-367.8,112.2-573,281.3-528.4,434.9l306.5,1056.3
									c0,0,10101.2-2342.3,13492.4-3128.7c714.6-165.7,1500-258.7,2260.1-267.7c3607.1-42.5,14351.1-169.1,14351.1-169.1
									l-306.5-1056.3c-44.6-153.6-331.2-264.5-737.1-285C17119.9,1129.3,8439,690.3,5464.3,539.9z"/>
							</g>
						</g>
					</g>
				</g>
			</g>
		</g>
		<g>
			<g>
				<g>
					<g transform="matrix(1,0,0,1,-2136.56,-973.343)">
						<g transform="matrix(0.746669,0,0,0.746669,1490.58,432.701)">
							<g id="Full-logo_00000034769828848264148390000016571386046730385320_">
								<path id="Top_00000173148835632731346410000006886934798459155629_" class="st1" d="M5445.1,496.8
									c-525.7-56.2-1111.6,4.6-1593.8,165.4c-2247.7,749.6-8806.9,2937.4-10675,3560.6c-307,102.3-481.4,269.2-449,429.1
									l222.7,1099.4c0,0,8410.6-2049.8,11234.2-2738.1c595-145,1246.4-212.6,1874.5-194.5c2980.5,86,11858.1,342.1,11858.1,342.1
									L17694,2061.3c-32.4-159.9-265.9-284.4-600.6-320.2C15054.9,1523.4,7897.6,758.7,5445.1,496.8z"/>
							</g>
						</g>
					</g>
				</g>
			</g>
		</g>
		<g>
			<g>
				<g>
					<g transform="matrix(1,0,0,1,-2136.56,-973.343)">
						<g transform="matrix(0.746669,0,0,0.746669,1490.58,432.701)">
							<g id="Full-logo_00000170985682578948992750000014535976451671230848_">
								<path id="Top_00000164506079272627008240000013256974306689746105_" class="st1" d="M5430.4,451.6
									c-432.5-76.8-918.2-35.3-1321.2,113C2231.2,1256.1-3249.5,3274.2-4810.4,3849c-256.6,94.4-405.4,260-383.2,425.9
									l152.2,1140.7c0,0,7005.8-1809.3,9357.8-2416.8c495.6-128,1035.6-174.2,1553.8-132.9
									c2459.2,195.8,9784.2,779.1,9784.2,779.1l-152.2-1140.7c-22.1-165.9-211.4-302.6-486.8-351.5
									C13337.9,1855,7448.5,809.7,5430.4,451.6z"/>
							</g>
						</g>
					</g>
				</g>
			</g>
		</g>
		<g>
			<g>
				<g>
					<g transform="matrix(1,0,0,1,-2136.56,-973.343)">
						<g transform="matrix(0.746669,0,0,0.746669,1490.58,432.701)">
							<g id="Full-logo_00000034805489031779738980000016576661734764732582_">
								<path id="Top_00000153674102533814580420000017586968910595928235_" class="st1" d="M5419.6,404.5
									c-355-94.7-757.4-69.4-1094.5,68.9c-1571.1,644.9-6156,2526.9-7461.8,3063c-214.6,88-342.3,253.3-328.8,425l92.8,1180.7
									c0,0,5838.6-1612.1,7798.7-2153.4c413-114.1,860.4-142.2,1287.2-81.1c2025.5,290.3,8058.7,1154.7,8058.7,1154.7
									l-92.8-1180.7c-13.5-171.7-165.9-319.4-392-379.6C11910.3,2135,7076.1,846.1,5419.6,404.5z"/>
							</g>
						</g>
					</g>
				</g>
			</g>
		</g>
		<g>
			<g>
				<g>
					<g transform="matrix(1,0,0,1,-2136.56,-973.343)">
						<g transform="matrix(0.746669,0,0,0.746669,1490.58,432.701)">
							<g id="Full-logo_00000036240234186955437120000017473334282447356803_">
								<path id="Top_00000068672890706290433050000011457751948977291448_" class="st1" d="M5412,355.6
									c-290.5-110.4-623.6-98.7-906,31.6c-1316.2,607.9-5157.4,2382-6251.4,2887.3c-179.8,83-290,248.7-283.8,426.1l42.6,1219.8
									c0,0,4868.8-1450.9,6503.4-1938c344.4-102.7,714.7-115.6,1065.5-37.2c1664.6,371.9,6622.7,1479.7,6622.7,1479.7
									l-42.6-1219.8c-6.2-177.4-127.8-335-312.8-405.3C10723,2372.1,6767.5,870.2,5412,355.6z"/>
							</g>
						</g>
					</g>
				</g>
			</g>
		</g>
		<g>
			<g>
				<g>
					<g transform="matrix(1,0,0,1,-2136.56,-973.343)">
						<g transform="matrix(0.746669,0,0,0.746669,1490.58,432.701)">
							<g id="Full-logo_00000043418084647221212230000000923714215055789457_">
								<path id="Top_00000044158565712451069850000004925988430669454527_" class="st1" d="M5407.2,305
									c-236.8-124.2-512.2-124.2-749.2,0C3553.3,883.9,329.6,2573.6-588.6,3054.9c-150.9,79-246.7,245.8-246.7,428.8V4742
									c0,0,4063.2-1319.7,5427.3-1762.8c287.5-93.4,593.7-93.4,881.1,0C6837.3,3422.3,10900.5,4742,10900.5,4742V3483.7
									c0-183-95.9-349.8-246.6-428.8C9735.6,2573.6,6511.9,883.9,5407.2,305z"/>
							</g>
						</g>
					</g>
				</g>
			</g>
		</g>
	</g>
</g>
</svg>
