<?xml version="1.0" encoding="utf-8"?>
<!-- Generator: Adobe Illustrator 27.2.0, SVG Export Plug-In . SVG Version: 6.00 Build 0)  -->
<svg version="1.1" id="Livello_1" xmlns="http://www.w3.org/2000/svg" xmlns:xlink="http://www.w3.org/1999/xlink" x="0px" y="0px"
	 viewBox="0 0 1984.3 2834.6" style="enable-background:new 0 0 1984.3 2834.6;" xml:space="preserve">
<style type="text/css">
	.st0{clip-path:url(#SVGID_00000172404443245428057880000006657800006184902585_);}
	.st1{fill-rule:evenodd;clip-rule:evenodd;fill:none;stroke:#010202;stroke-width:4;stroke-miterlimit:10;}
</style>
<g>
	<defs>
		<rect id="SVGID_1_" width="1984.3" height="2834.6"/>
	</defs>
	<clipPath id="SVGID_00000057131283489447158650000013335615558634922885_">
		<use xlink:href="#SVGID_1_"  style="overflow:visible;"/>
	</clipPath>
	<g style="clip-path:url(#SVGID_00000057131283489447158650000013335615558634922885_);">
		<g>
			<g>
				<g>
					<g transform="matrix(1,0,0,1,-2136.56,-973.343)">
						<g transform="matrix(0.746669,0,0,0.746669,1490.58,432.701)">
							<g id="Full-logo_00000076591044530528010860000011781973747579465624_">
								<path id="Top_00000178912766110264260230000003150697930104317105_" class="st1" d="M3986.8,3198.4
									C-3707.7,4315.7-12110.1,5652-18869.2,6833.5c-31504,5506.8-123441.1,21577.4-149624.8,26154.3
									c-4303.8,752.2-6594,1259.4-5899.3,1305.8l4776.1,319.2c0,0,118951.1-20049.8,158886-26781
									c8415.1-1418.4,17756.7-2904.1,26880.6-4275.2c43298.4-6506.5,172267.4-25886.8,172267.4-25886.8l-4776.1-319.2
									c-694.7-46.4-4253.7,376.6-9152.2,1088C144649.4-17228.2,39885.5-2014.8,3986.8,3198.4z"/>
							</g>
						</g>
					</g>
				</g>
			</g>
		</g>
		<g>
			<g>
				<g>
					<g transform="matrix(1,0,0,1,-2136.56,-973.343)">
						<g transform="matrix(0.746669,0,0,0.746669,1490.58,432.701)">
							<g id="Full-logo_00000134951852467564178360000010315755917056600707_">
								<path id="Top_00000111887236004159712910000012110440474423988657_" class="st1" d="M3435.9,3241.1
									C-2797,4115.5-9606.6,5190-15087.4,6164c-25546,4540.2-100095.9,17789.9-121327.8,21563.5
									c-3489.8,620.2-5349.9,1060.3-4791.3,1133.2l3840.3,500.7c0,0,96434.2-16377.5,128809.5-21875.9
									c6822.2-1158.6,14392.9-2353.3,21785-3437.6C48308.3-1098,152797.7-16425.4,152797.7-16425.4l-3840.4-500.7
									c-558.6-72.8-3438.9,235-7406.9,791.7C117379.3-12743.5,32515.6-838.4,3435.9,3241.1z"/>
							</g>
						</g>
					</g>
				</g>
			</g>
		</g>
		<g>
			<g>
				<g>
					<g transform="matrix(1,0,0,1,-2136.56,-973.343)">
						<g transform="matrix(0.746669,0,0,0.746669,1490.58,432.701)">
							<g id="Full-logo_00000097477774690365687200000017957909793951628170_">
								<path id="Top_00000102537624621098207870000006419918377141295759_" class="st1" d="M2990.7,3265.3
									c-5048.1,676.6-10566.6,1538.7-15011.3,2345C-32737.5,9369-93194.7,20338-110412.9,23462
									c-2830.1,513.4-4341.7,900-3893.5,995.1l3081.1,654c0,0,78183.1-13404.2,104431.1-17904.3
									c5531-948.3,11666.3-1906.7,17654.6-2757.9c28417.9-4039.6,113063.5-16072,113063.5-16072l-3081.1-654
									c-448.1-95.1-2778.2,118.4-5992,549.2C95274.4-9104.1,26542.6,108.5,2990.7,3265.3z"/>
							</g>
						</g>
					</g>
				</g>
			</g>
		</g>
		<g>
			<g>
				<g>
					<g transform="matrix(1,0,0,1,-2136.56,-973.343)">
						<g transform="matrix(0.746669,0,0,0.746669,1490.58,432.701)">
							<g id="Full-logo_00000047034651055915647460000012918869464771512974_">
								<path id="Top_00000144312718768331637740000008885632804263195804_" class="st1" d="M2631.2,3274.3
									c-4087.6,515.5-8559.6,1205.1-12164.5,1876C-26336.1,8277.4-75370.9,17403.6-89336,20002.7
									c-2295.4,427.1-3524.5,771-3166,885.2l2464.8,784.7c0,0,63389.7-10997.4,84671.2-14689.5
									c4484.5-778,9456.3-1544.8,14306.5-2206.3c23017.4-3139.5,91577.1-12491,91577.1-12491L98052.7-8499
									c-358.5-114.1-2242.5,22-4844.8,350.2C77356.3-6149.7,21701.9,869.1,2631.2,3274.3z"/>
							</g>
						</g>
					</g>
				</g>
			</g>
		</g>
		<g>
			<g>
				<g>
					<g transform="matrix(1,0,0,1,-2136.56,-973.343)">
						<g transform="matrix(0.746669,0,0,0.746669,1490.58,432.701)">
							<g id="Full-logo_00000087395785781168026400000008313369405520452789_">
								<path id="Top_00000044168897656110901350000007786898485714134913_" class="st1" d="M2341.2,3270.5
									c-3308.9,384-6932.6,933.7-9856.9,1495.2C-21146.1,7383.1-60923.1,15021.5-72251.6,17197
									c-1862,357.5-2862.3,667.6-2576.6,798.1l1964.5,897.1c0,0,51399.1-9049.9,68655.1-12088.2
									C-572.4,6163.7,3456.2,5552.6,7384,5045.5C26023.4,2639,81543-4529.2,81543-4529.2l-1964.5-897.1
									c-285.7-130.5-1808-58-3914.5,186.5C62831.9-3750.4,17779.1,1478.7,2341.2,3270.5z"/>
							</g>
						</g>
					</g>
				</g>
			</g>
		</g>
		<g>
			<g>
				<g>
					<g transform="matrix(1,0,0,1,-2136.56,-973.343)">
						<g transform="matrix(0.746669,0,0,0.746669,1490.58,432.701)">
							<g id="Full-logo_00000155838686273800939140000014785395405944048315_">
								<path id="Top_00000008837215056192466920000005213216409192721803_" class="st1" d="M2107.5,3256.3
									c-2677.7,276.6-5613.7,712.5-7986.4,1185.8c-11059.2,2206.3-43332.8,8645-52524.4,10478.8
									c-1510.8,301.3-2325.7,584.8-2099.1,729.6l1558,995c0,0,41680.4-7474.9,55673.5-9984.4
									C-322.1,6132.3,2942,5647.6,6121.9,5266.5c15090.4-1808.8,60038.7-7196.6,60038.7-7196.6l-1558-995
									c-226.6-144.7-1455.5-124.8-3160.2,51.3C51058.3-1801,14600.4,1965.5,2107.5,3256.3z"/>
							</g>
						</g>
					</g>
				</g>
			</g>
		</g>
		<g>
			<g>
				<g>
					<g transform="matrix(1,0,0,1,-2136.56,-973.343)">
						<g transform="matrix(0.746669,0,0,0.746669,1490.58,432.701)">
							<g id="Full-logo_00000054983085095599962580000005076134934015407746_">
								<path id="Top_00000174582556057155462350000017733192098818515130_" class="st1" d="M1919.7,3233.1
									c-2165.9,188.6-4544.4,532.1-6470.1,934.4c-8975.4,1875.2-35167.9,7347.9-42627.5,8906.6
									c-1226.1,256.1-1890.9,518.9-1712.3,676.1l1227.7,1081.2c0,0,33803.1-6201.7,45151.6-8283.8
									c2391.4-438.8,5035.8-820.7,7609.4-1098.9C17311.6,4128,53689.9,194.1,53689.9,194.1L52462.1-887.1
									c-178.6-157.3-1169.6-180.9-2548.5-60.8C41514.4-216.2,12024.7,2352.8,1919.7,3233.1z"/>
							</g>
						</g>
					</g>
				</g>
			</g>
		</g>
		<g>
			<g>
				<g>
					<g transform="matrix(1,0,0,1,-2136.56,-973.343)">
						<g transform="matrix(0.746669,0,0,0.746669,1490.58,432.701)">
							<g id="Full-logo_00000117653328528359046100000013400257402622509755_">
								<path id="Top_00000054236156680515061560000004996983724810655674_" class="st1" d="M1768.9,3202.6
									C18,3319-1908.7,3587.3-3472,3932.5c-7286.6,1609.1-28550.7,6305.3-34606.7,7642.8c-995.4,219.7-1538.6,466.6-1399.1,635
									l959.1,1158.1c0,0,27418.5-5173.4,36623.6-6910.3c1939.7-366,4081.7-664.3,6163.8-858.5
									c9880.5-921.3,39310.6-3665.5,39310.6-3665.5L42620.1,776c-139.5-168.4-937.5-228.5-2052.2-154.3
									C33777.7,1073.3,9937.9,2659.1,1768.9,3202.6z"/>
							</g>
						</g>
					</g>
				</g>
			</g>
		</g>
		<g>
			<g>
				<g>
					<g transform="matrix(1,0,0,1,-2136.56,-973.343)">
						<g transform="matrix(0.746669,0,0,0.746669,1490.58,432.701)">
							<g id="Full-logo_00000087369994214628067660000009326852632255767182_">
								<path id="Top_00000149367170024971712090000012741513133192321667_" class="st1" d="M1648.2,3165.6
									c-1414.5,56.9-2974.8,264.1-4244.5,563.5c-5918,1395.7-23188.2,5469.1-28106.8,6629.2
									c-808.4,190.6-1253.2,425.4-1145.5,603.9l740.4,1227.7c0,0,22243.8-4343.7,29711.6-5802
									c1573.6-307.3,3308.4-537.6,4991.9-662.7c7989.2-593.7,31786-2362.2,31786-2362.2L34641,2135.3
									c-107.7-178.6-749.2-269.1-1649.7-232.8C27506,2123.5,8247.4,2899.6,1648.2,3165.6z"/>
							</g>
						</g>
					</g>
				</g>
			</g>
		</g>
		<g>
			<g>
				<g>
					<g transform="matrix(1,0,0,1,-2136.56,-973.343)">
						<g transform="matrix(0.746669,0,0,0.746669,1490.58,432.701)">
							<g id="Full-logo_00000108289169321472492110000009301420332247154571_">
								<path id="Top_00000033331039556953151680000001291591968662833597_" class="st1" d="M1552,3123.3
									c-1141.6,7.8-2405,165.1-3436.8,427.9c-4808.9,1225.1-18842.7,4800.5-22839.5,5818.8c-656.9,167.3-1022,393.2-940.2,581
									l562.1,1291.6c0,0,18049.9-3675,24109.7-4908.9c1276.9-260,2681.6-434.9,4041.9-503.2
									C9505,5506.2,28734,4540.3,28734,4540.3l-562.1-1291.6c-81.8-187.9-596.2-304.3-1323-299.3
									C22421.7,2979.9,6878.2,3086.6,1552,3123.3z"/>
							</g>
						</g>
					</g>
				</g>
			</g>
		</g>
		<g>
			<g>
				<g>
					<g transform="matrix(1,0,0,1,-2136.56,-973.343)">
						<g transform="matrix(0.746669,0,0,0.746669,1490.58,432.701)">
							<g id="Full-logo_00000027593076349830582430000007359396760397525660_">
								<path id="Top_00000011714784125987410610000008582566317913310875_" class="st1" d="M1475.7,3076.1
									c-920.3-33.1-1943,83.5-2781.9,317.2c-3910.3,1089.2-15321.6,4268-18571.5,5173.4c-534.2,148.7-834.7,368.3-774.1,564.8
									l416.7,1350.9c0,0,14650.9-3137,19569.6-4190.2c1036.5-221.9,2173.5-351.6,3271.8-373
									c5212.2-101.8,20737.2-405.2,20737.2-405.2l-416.7-1350.9c-60.6-196.5-472-334.9-1057.9-355.9
									C18299.8,3679.2,5769.4,3230,1475.7,3076.1z"/>
							</g>
						</g>
					</g>
				</g>
			</g>
		</g>
		<g>
			<g>
				<g>
					<g transform="matrix(1,0,0,1,-2136.56,-973.343)">
						<g transform="matrix(0.746669,0,0,0.746669,1490.58,432.701)">
							<g id="Full-logo_00000080908551038127586780000005535501067929086097_">
								<path id="Top_00000006668621293912906150000004593181704573304237_" class="st1" d="M1415.5,3024.8
									c-740.8-67.2-1568.3,16.2-2251.1,226.7c-3182.2,981.5-12468.7,3846.1-15113.5,4662c-434.7,134-683.1,349.4-639.8,554.1
									l297.8,1406.9c0,0,11896.4-2704.9,15890.3-3613c841.6-191.4,1761.6-284,2647.4-266.6
									c4203.7,82.6,16724.7,328.6,16724.7,328.6l-297.8-1406.9c-43.3-204.6-371-362.1-842.6-404.8
									C14958.1,4251.5,4871.7,3337.8,1415.5,3024.8z"/>
							</g>
						</g>
					</g>
				</g>
			</g>
		</g>
		<g>
			<g>
				<g>
					<g transform="matrix(1,0,0,1,-2136.56,-973.343)">
						<g transform="matrix(0.746669,0,0,0.746669,1490.58,432.701)">
							<g id="Full-logo_00000120551722129370831970000008471886128678154171_">
								<path id="Top_00000049923057211474080720000014196886995927173547_" class="st1" d="M1368.4,2969.8
									c-595.2-95.9-1264.5-39.8-1820.6,152.6c-2592.3,896.8-10157.5,3514-12312.1,4259.5c-354.1,122.4-560.4,335.4-531.3,547.8
									l200.4,1460.2c0,0,9664.1-2358.8,12908.6-3150.8c683.7-166.9,1427.8-229.2,2141.2-179.4
									C5340.3,6296,15424.9,7000,15424.9,7000l-200.5-1460.2c-29.2-212.4-288.8-386.4-667.7-447.3
									C12248.7,4720.9,4145.2,3416.6,1368.4,2969.8z"/>
							</g>
						</g>
					</g>
				</g>
			</g>
		</g>
		<g>
			<g>
				<g>
					<g transform="matrix(1,0,0,1,-2136.56,-973.343)">
						<g transform="matrix(0.746669,0,0,0.746669,1490.58,432.701)">
							<g id="Full-logo_00000158707910426779117070000006514690173617953976_">
								<path id="Top_00000112609857103433513600000012727214425550021294_" class="st1" d="M1332,2911.4
									c-477-120.2-1018-86.5-1471.7,91.7c-2114.6,830.7-8285.5,3255-10042.9,3945.5c-288.9,113.4-461.1,325.4-443.6,545.3
									l120.5,1511.7c0,0,7855.3-2082.6,10492.5-2781.8c555.7-147.3,1157.2-184.8,1730.8-107.8
									c2722.1,365.4,10830,1453.5,10830,1453.5l-120.5-1511.7c-17.5-219.9-221.9-408.5-525.6-484.9
									C10051.8,5107,3557.4,3471.7,1332,2911.4z"/>
							</g>
						</g>
					</g>
				</g>
			</g>
		</g>
		<g>
			<g>
				<g>
					<g transform="matrix(1,0,0,1,-2136.56,-973.343)">
						<g transform="matrix(0.746669,0,0,0.746669,1490.58,432.701)">
							<g id="Full-logo_00000155106794198231538410000014935918419394751917_">
								<path id="Top_00000009560937125896564280000017268997880410187146_" class="st1" d="M1304.3,2849.9
									c-381-141-818-125.7-1188.7,41.5C-1612,3671.2-6653.8,5947-8089.6,6595.2c-236,106.4-380.8,318.7-372.9,545.9l54.5,1561.8
									c0,0,6389.7-1863.1,8534.8-2488.6c452-131.8,937.9-148.8,1398-48.8c2183.6,474.4,8687.6,1887.2,8687.6,1887.2l-54.5-1561.8
									c-7.9-227.2-167.3-428.8-409.9-518.5C8270.3,5425.8,3082.1,3507.3,1304.3,2849.9z"/>
							</g>
						</g>
					</g>
				</g>
			</g>
		</g>
		<g>
			<g>
				<g>
					<g transform="matrix(1,0,0,1,-2136.56,-973.343)">
						<g transform="matrix(0.746669,0,0,0.746669,1490.58,432.701)">
							<g id="Full-logo_00000090290966447776789580000004502757912823902612_">
								<path id="Top_00000002343121564984521740000008989752388431034794_" class="st1" d="M1283.7,2785.6
									c-303.1-159-655.8-159-959.2,0c-1414.4,741.2-5541.8,2904.6-6717.4,3520.8c-193.2,101.1-315.9,314.7-315.9,549v1611.1
									c0,0,5202.3-1689.6,6948.8-2256.9c368-119.5,760.1-119.5,1128.1,0c1746.5,567.3,6948.8,2256.9,6948.8,2256.9V6855.4
									c0-234.3-122.8-447.8-315.8-549C6825.5,5690.2,2698.1,3526.8,1283.7,2785.6z"/>
							</g>
						</g>
					</g>
				</g>
			</g>
		</g>
	</g>
</g>
</svg>
