<svg id="eZdoCU62g9M1" xmlns="http://www.w3.org/2000/svg" xmlns:xlink="http://www.w3.org/1999/xlink" viewBox="0 0 918 273" shape-rendering="geometricPrecision" text-rendering="geometricPrecision" width="918" height="273">
<style><![CDATA[
#eZdoCU62g9M8 {animation-name: eZdoCU62g9M8__tt, eZdoCU62g9M8_c_o;animation-duration: 7000ms;animation-fill-mode: forwards;animation-timing-function: linear;animation-direction: normal;animation-iteration-count: infinite;}@keyframes eZdoCU62g9M8__tt { 0% {transform: translate(1118.684998px,813.413605px) translate(-1118.684998px,-691px)} 8.571429% {transform: translate(1118.684998px,813.413605px) translate(-1118.684998px,-813.413605px)} 100% {transform: translate(1118.684998px,813.413605px) translate(-1118.684998px,-813.413605px)}}@keyframes eZdoCU62g9M8_c_o { 0% {opacity: 0} 5.714286% {opacity: 1} 71.428571% {opacity: 1} 78.571429% {opacity: 0} 100% {opacity: 0}} #eZdoCU62g9M9 {animation-name: eZdoCU62g9M9__tt, eZdoCU62g9M9_c_o;animation-duration: 7000ms;animation-fill-mode: forwards;animation-timing-function: linear;animation-direction: normal;animation-iteration-count: infinite;}@keyframes eZdoCU62g9M9__tt { 0% {transform: translate(1118.684998px,1192.352539px) translate(-1118.684998px,-1315px)} 8.571429% {transform: translate(1118.684998px,1192.352539px) translate(-1118.684998px,-1192.352539px)} 100% {transform: translate(1118.684998px,1192.352539px) translate(-1118.684998px,-1192.352539px)}}@keyframes eZdoCU62g9M9_c_o { 0% {opacity: 0} 5.714286% {opacity: 1} 71.428571% {opacity: 1} 78.571429% {opacity: 0} 100% {opacity: 0}} #eZdoCU62g9M11 {animation: eZdoCU62g9M11_c_o 7000ms linear infinite normal forwards}@keyframes eZdoCU62g9M11_c_o { 0% {opacity: 0} 12.857143% {opacity: 0} 18.571429% {opacity: 1} 71.428571% {opacity: 1} 78.571429% {opacity: 0} 100% {opacity: 0}} #eZdoCU62g9M12 {animation: eZdoCU62g9M12_c_o 7000ms linear infinite normal forwards}@keyframes eZdoCU62g9M12_c_o { 0% {opacity: 0} 30% {opacity: 0} 37.142857% {opacity: 1} 71.428571% {opacity: 1} 78.571429% {opacity: 0} 100% {opacity: 0}} #eZdoCU62g9M25 {animation: eZdoCU62g9M25_c_o 7000ms linear infinite normal forwards}@keyframes eZdoCU62g9M25_c_o { 0% {opacity: 0} 21.428571% {opacity: 0} 27.142857% {opacity: 1} 71.428571% {opacity: 1} 78.571429% {opacity: 0} 100% {opacity: 0}}
]]></style>
<defs><filter id="eZdoCU62g9M11-filter" x="-150%" width="400%" y="-150%" height="400%"><feGaussianBlur id="eZdoCU62g9M11-filter-blur-0" stdDeviation="0,0" result="result"/></filter></defs><g transform="translate(-1232.52002-70.850403)" clip-rule="evenodd"><g transform="translate(-139.610992 64.314301)" clip-rule="evenodd"><g transform="matrix(.652373 0 0 0.652373 1299.469971-52.793301)" clip-rule="evenodd"><g transform="matrix(1.00388 0 0 1.01497-1236.780029-344.475006)" clip-rule="evenodd"><path d="M1531.53,428.995l188.576317,132.320054-.000157,147.318102L1531.53,840.081L1342.948978,708.633155l.000003-147.318101L1531.53,428.995Z" opacity="0" clip-rule="evenodd" fill-rule="evenodd" stroke-linejoin="round" stroke-miterlimit="2"/></g><g transform="matrix(.746669 0 0 0.746669-534.593994-448.816986)" clip-rule="evenodd"><path id="eZdoCU62g9M8" d="M1102.5,727.744c10.23-4.897,22.13-4.897,32.37,0c47.73,22.835,187.02,89.483,226.69,108.466c6.52,3.116,10.66,9.694,10.66,16.913v49.633c0,0-175.56-52.053-234.5-69.53-12.42-3.683-25.65-3.683-38.07,0-58.94,17.477-234.5,69.53-234.5,69.53v-49.633c0-7.219,4.144-13.797,10.657-16.913c39.673-18.983,178.963-85.631,226.693-108.466Z" transform="translate(1118.684998,813.413605) translate(-1118.684998,-691)" opacity="0" clip-rule="evenodd" fill="#faa601" fill-rule="evenodd" stroke-linejoin="round" stroke-miterlimit="2"/><path id="eZdoCU62g9M9" d="M1134.87,1278.02c-10.24,4.9-22.14,4.9-32.37,0-47.73-22.83-187.02-89.48-226.693-108.46-6.513-3.12-10.657-9.7-10.657-16.92v-49.63c0,0,175.56,52.05,234.5,69.53c12.42,3.68,25.65,3.68,38.07,0c58.94-17.48,234.5-69.53,234.5-69.53v49.63c0,7.22-4.14,13.8-10.66,16.92-39.67,18.98-178.96,85.63-226.69,108.46Z" transform="translate(1118.684998,1192.352539) translate(-1118.684998,-1315)" opacity="0" clip-rule="evenodd" fill="#faa601" fill-rule="evenodd" stroke-linejoin="round" stroke-miterlimit="2"/><g transform="matrix(1.33928 0 0 1.33928-1996.310059-579.508972)" clip-rule="evenodd"><path id="eZdoCU62g9M11" d="M2280.827589,1203.259996v-43.469995l46.04831-16.160001v0v0v0l48.152435,16.160001.00006,43.469995L2326.875899,1219.42l-46.04831-16.160004Z" transform="matrix(4.019267 0 0 1-7030.696201 0)" opacity="0" clip-rule="evenodd" filter="url(#eZdoCU62g9M11-filter)" fill="#faa601" fill-rule="evenodd" stroke-linejoin="round" stroke-miterlimit="2"/></g></g><g id="eZdoCU62g9M12" transform="matrix(1.53287 0 0 1.53287-1671.73999-109.746919)" opacity="0" clip-rule="evenodd"><path d="M1568.32,318.917c.32-.504.74-.756,1.26-.756.34,0,.63.126.87.378s.36.594.36,1.026v20.196c0,.408-.13.726-.38.954s-.56.342-.92.342-.67-.114-.93-.342c-.27-.228-.4-.546-.4-.954v-15.84l-7.34,11.484c-.32.504-.72.756-1.23.756-.5,0-.92-.252-1.26-.756l-7.34-11.412v15.768c0,.408-.13.726-.38.954s-.56.342-.92.342-.67-.114-.93-.342c-.27-.228-.4-.546-.4-.954v-20.16c0-.432.13-.78.38-1.044s.54-.396.88-.396c.22,0,.43.066.65.198.21.132.39.33.54.594l8.78,13.644l8.71-13.68Z" clip-rule="evenodd" stroke="#040200" stroke-linejoin="round" stroke-miterlimit="2"/><path d="M1592.48,341.417c-2.18,0-4.16-.492-5.92-1.476-1.77-.984-3.16-2.4-4.2-4.248-1.03-1.848-1.54-4.008-1.54-6.48c0-2.52.58-4.638,1.76-6.354s2.64-2.988,4.39-3.816s3.49-1.242,5.22-1.242c1.75,0,3.54.414,5.37,1.242c1.82.828,3.35,2.1,4.59,3.816c1.23,1.716,1.85,3.834,1.85,6.354c0,2.424-.53,4.56-1.58,6.408-1.06,1.848-2.46,3.276-4.22,4.284-1.75,1.008-3.66,1.512-5.72,1.512Zm-8.96-12.096c0,1.92.39,3.612,1.17,5.076s1.85,2.592,3.22,3.384s2.89,1.188,4.57,1.188c1.63,0,3.12-.39,4.46-1.17c1.35-.78,2.42-1.896,3.21-3.348s1.19-3.162,1.19-5.13c0-2.04-.48-3.75-1.43-5.13-.94-1.38-2.11-2.388-3.51-3.024-1.39-.636-2.77-.954-4.14-.954-1.36,0-2.71.306-4.05.918-1.33.612-2.44,1.602-3.34,2.97s-1.35,3.108-1.35,5.22Z" clip-rule="evenodd" stroke="#040200" stroke-linejoin="round" stroke-miterlimit="2"/><path d="M1614.4,341.057c-.45,0-.84-.156-1.17-.468-.32-.312-.48-.672-.48-1.08v-19.836c0-.408.16-.762.48-1.062.33-.3.72-.45,1.17-.45h7.85c2.28,0,4.23.54,5.85,1.62s2.84,2.496,3.66,4.248c.81,1.752,1.22,3.612,1.22,5.58s-.41,3.828-1.22,5.58c-.82,1.752-2.04,3.168-3.66,4.248s-3.57,1.62-5.85,1.62h-7.85Zm7.85-2.34c1.73,0,3.2-.432,4.41-1.296s2.13-1.992,2.76-3.384c.62-1.392.93-2.868.93-4.428s-.31-3.042-.93-4.446c-.63-1.404-1.55-2.538-2.76-3.402s-2.68-1.296-4.41-1.296h-6.91v18.252h6.91Z" clip-rule="evenodd" stroke="#040200" stroke-linejoin="round" stroke-miterlimit="2"/><path d="M1661.24,319.133c0-.432.13-.762.4-.99.26-.228.58-.342.97-.342.36,0,.67.114.93.342.27.228.4.546.4.954v11.916c0,2.208-.5,4.098-1.51,5.67s-2.32,2.754-3.94,3.546-3.35,1.188-5.17,1.188-3.55-.396-5.17-1.188-2.93-1.974-3.94-3.546-1.51-3.462-1.51-5.67v-12.024c0-.384.13-.678.4-.882.26-.204.57-.306.93-.306.39,0,.71.108.97.324.27.216.4.516.4.9v11.988c0,1.656.37,3.072,1.12,4.248.74,1.176,1.72,2.064,2.93,2.664s2.5.9,3.87.9s2.66-.3,3.87-.9s2.19-1.488,2.93-2.664c.75-1.176,1.12-2.592,1.12-4.248v-11.88Z" clip-rule="evenodd" stroke="#040200" stroke-linejoin="round" stroke-miterlimit="2"/><path d="M1676.5,341.057c-.91,0-1.36-.444-1.36-1.332v-20.304c0-.408.13-.72.39-.936.27-.216.58-.324.94-.324s.67.108.93.324c.27.216.4.528.4.936v19.26h13.46c.44,0,.77.114,1.01.342s.36.51.36.846c0,.312-.12.588-.36.828s-.57.36-1.01.36h-14.76Z" clip-rule="evenodd" stroke="#040200" stroke-linejoin="round" stroke-miterlimit="2"/><path d="M1711.82,317.801c.53,0,.91.228,1.15.684l10.62,20.844c.1.192.15.384.15.576c0,.336-.14.612-.4.828s-.59.324-.97.324c-.55,0-.95-.228-1.19-.684l-2.59-5.112h-13.54l-2.66,5.148c-.24.432-.6.648-1.08.648-.36,0-.69-.12-.97-.36-.29-.24-.44-.528-.44-.864c0-.144.04-.3.11-.468l10.62-20.88c.1-.216.26-.384.49-.504s.46-.18.7-.18Zm-5.69,15.192h11.34l-5.65-11.34-5.69,11.34Z" clip-rule="evenodd" stroke="#040200" stroke-linejoin="round" stroke-miterlimit="2"/><path d="M1735.18,339.797c0,.384-.13.69-.39.918-.27.228-.58.342-.94.342-.33,0-.63-.108-.9-.324-.26-.216-.39-.516-.39-.9v-20.412c0-.384.12-.69.36-.918s.56-.342.97-.342h8.53c2.02,0,3.73.342,5.13,1.026s2.47,1.614,3.19,2.79s1.08,2.484,1.08,3.924c0,1.872-.53,3.42-1.59,4.644-1.05,1.224-2.66,2.016-4.82,2.376l5.51,5.94c.31.312.46.636.46.972s-.13.624-.39.864c-.27.24-.57.36-.9.36-.36,0-.69-.156-.97-.468l-6.95-7.524h-6.99v6.732Zm7.28-9c2.2,0,3.87-.444,5-1.332s1.69-2.028,1.69-3.42c-.02-1.584-.63-2.892-1.83-3.924s-2.82-1.548-4.86-1.548h-7.28v10.224h7.28Z" clip-rule="evenodd" stroke="#040200" stroke-linejoin="round" stroke-miterlimit="2"/><path d="M1785.98,317.765c3.86,0,6.85,1.188,8.96,3.564.41.48.62.96.62,1.44c0,.504-.2.924-.58,1.26s-.84.504-1.37.504c-.62,0-1.17-.252-1.65-.756-.84-.912-1.74-1.53-2.7-1.854s-2.07-.486-3.32-.486c-1.51,0-2.83.33-3.97.99s-2.03,1.584-2.67,2.772c-.63,1.188-.95,2.562-.95,4.122c0,1.68.32,3.156.97,4.428s1.56,2.256,2.74,2.952c1.17.696,2.53,1.044,4.06,1.044c1.11,0,2.22-.282,3.35-.846s2.04-1.266,2.74-2.106c.6-.696,1.25-1.044,1.94-1.044.51,0,.94.168,1.32.504.37.336.55.756.55,1.26c0,.456-.18.936-.54,1.44-.96,1.368-2.32,2.454-4.08,3.258-1.77.804-3.55,1.206-5.35,1.206-2.35,0-4.42-.504-6.21-1.512s-3.17-2.424-4.16-4.248c-.98-1.824-1.47-3.936-1.47-6.336c0-2.28.51-4.296,1.55-6.048c1.03-1.752,2.44-3.108,4.23-4.068c1.78-.96,3.78-1.44,5.99-1.44Z" clip-rule="evenodd" stroke="#040200" stroke-linejoin="round" stroke-miterlimit="2"/><path d="M1806.64,341.057c-.74,0-1.29-.162-1.63-.486-.35-.324-.53-.81-.53-1.458v-19.152c0-.576.21-1.026.63-1.35s.92-.486,1.5-.486c.55,0,1.04.162,1.46.486s.63.774.63,1.35v17.496h11.8c.68,0,1.2.18,1.59.54.38.36.57.78.57,1.26c0,.504-.19.93-.57,1.278-.39.348-.91.522-1.59.522h-13.86Z" clip-rule="evenodd" stroke="#040200" stroke-linejoin="round" stroke-miterlimit="2"/><path d="M1851.03,329.609c0,2.328-.48,4.386-1.46,6.174-.97,1.788-2.34,3.174-4.1,4.158s-3.81,1.476-6.14,1.476-4.38-.492-6.17-1.476-3.18-2.37-4.16-4.158-1.48-3.846-1.48-6.174.5-4.392,1.48-6.192s2.37-3.192,4.16-4.176s3.84-1.476,6.17-1.476c2.31,0,4.35.492,6.12,1.476c1.78.984,3.15,2.37,4.12,4.158.98,1.788,1.46,3.858,1.46,6.21Zm-11.7,8.136c1.49,0,2.8-.342,3.93-1.026c1.12-.684,2-1.638,2.62-2.862.63-1.224.94-2.64.94-4.248s-.31-3.03-.94-4.266c-.62-1.236-1.5-2.196-2.62-2.88-1.13-.684-2.44-1.026-3.93-1.026s-2.81.342-3.96,1.026-2.04,1.644-2.66,2.88c-.63,1.236-.94,2.658-.94,4.266s.31,3.024.94,4.248c.62,1.224,1.51,2.178,2.66,2.862s2.47,1.026,3.96,1.026Z" clip-rule="evenodd" stroke="#040200" stroke-linejoin="round" stroke-miterlimit="2"/><path d="M1878.1,320.033c0-.6.21-1.068.63-1.404s.92-.504,1.5-.504c.57,0,1.07.162,1.47.486.41.324.62.786.62,1.386v10.944c0,2.064-.45,3.888-1.35,5.472s-2.17,2.814-3.8,3.69-3.53,1.314-5.69,1.314-4.06-.438-5.69-1.314-2.9-2.106-3.8-3.69-1.35-3.408-1.35-5.472v-11.016c0-.576.21-1.02.62-1.332.4-.312.9-.468,1.47-.468.6,0,1.11.156,1.53.468s.63.768.63,1.368v10.98c0,1.992.6,3.606,1.8,4.842s2.79,1.854,4.75,1.854c2,0,3.6-.618,4.83-1.854c1.22-1.236,1.83-2.85,1.83-4.842v-10.908Z" clip-rule="evenodd" stroke="#040200" stroke-linejoin="round" stroke-miterlimit="2"/><path d="M1901.58,318.125c2.16,0,4.06.48,5.7,1.44c1.65.96,2.92,2.304,3.84,4.032.91,1.728,1.36,3.732,1.36,6.012s-.45,4.284-1.36,6.012c-.92,1.728-2.19,3.066-3.84,4.014-1.64.948-3.54,1.422-5.7,1.422h-7.42c-.65,0-1.21-.21-1.67-.63-.47-.42-.71-.918-.71-1.494v-18.72c0-.576.24-1.068.71-1.476.46-.408,1.02-.612,1.67-.612h7.42Zm0,19.368c1.34,0,2.52-.324,3.54-.972s1.81-1.572,2.38-2.772c.56-1.2.84-2.58.84-4.14s-.28-2.946-.84-4.158c-.57-1.212-1.36-2.148-2.4-2.808-1.03-.66-2.2-.99-3.52-.99h-5.69v15.84h5.69Z" clip-rule="evenodd" stroke="#040200" stroke-linejoin="round" stroke-miterlimit="2"/></g><g id="eZdoCU62g9M25" transform="matrix(14.7427 0 0 14.7427-7165.399902-2349.874971)" opacity="0" clip-rule="evenodd"><g transform="matrix(12 0 0 12 522.044983 183.742996)" clip-rule="evenodd"><path d="M0.543,-0.066c.011,0,.019.003.025.01.006.008.009.016.009.025s-.003.016-.009.022-.014.009-.025.009h-.421c-.013,0-.024-.004-.033-.013s-.013-.019-.013-.031v-.549c0-.012.004-.022.013-.031.009-.008.02-.012.033-.012h.422c.01,0,.018.003.023.009s.008.013.008.022-.003.016-.008.023c-.006.007-.014.01-.024.01h-.395v.225h.376c.009,0,.017.003.023.009.005.007.008.015.008.024c0,.008-.003.015-.008.021-.005.007-.013.01-.023.01h-.376v.217h.395Z" clip-rule="evenodd" fill="#ffa601" stroke-linejoin="round" stroke-miterlimit="2"/></g><g transform="matrix(12 0 0 12 530.312988 183.742996)" clip-rule="evenodd"><path d="M0.114,0c-.025,0-.038-.012-.038-.037v-.564c0-.011.004-.02.011-.026s.016-.009.026-.009.019.003.026.009.011.015.011.026v.535h.374c.012,0,.021.003.028.009.007.007.01.015.01.024s-.003.016-.01.023-.016.01-.028.01h-.41Z" clip-rule="evenodd" fill="#ffa601" stroke-linejoin="round" stroke-miterlimit="2"/></g><g transform="matrix(12 0 0 12 537.825012 183.742996)" clip-rule="evenodd"><path d="M0.543,-0.066c.011,0,.019.003.025.01.006.008.009.016.009.025s-.003.016-.009.022-.014.009-.025.009h-.421c-.013,0-.024-.004-.033-.013s-.013-.019-.013-.031v-.549c0-.012.004-.022.013-.031.009-.008.02-.012.033-.012h.422c.01,0,.018.003.023.009s.008.013.008.022-.003.016-.008.023c-.006.007-.014.01-.024.01h-.395v.225h.376c.009,0,.017.003.023.009.005.007.008.015.008.024c0,.008-.003.015-.008.021-.005.007-.013.01-.023.01h-.376v.217h.395Z" clip-rule="evenodd" fill="#ffa601" stroke-linejoin="round" stroke-miterlimit="2"/></g><g transform="matrix(12 0 0 12 546.093018 183.742996)" clip-rule="evenodd"><path d="M0.632,-0.615c.009-.014.02-.021.035-.021.009,0,.017.004.024.01.007.007.01.017.01.029v.561c0,.011-.003.02-.01.026-.007.007-.016.01-.026.01s-.019-.003-.026-.01c-.007-.006-.011-.015-.011-.026v-.44l-.204.319c-.009.014-.02.021-.034.021s-.026-.007-.035-.021l-.204-.317v.438c0,.011-.003.02-.01.026-.007.007-.016.01-.026.01s-.019-.003-.026-.01c-.007-.006-.011-.015-.011-.026v-.56c0-.012.004-.022.011-.029.006-.007.015-.011.024-.011.006,0,.012.002.018.005.006.004.011.01.015.017l.244.379.242-.38Z" clip-rule="evenodd" fill="#ffa601" stroke-linejoin="round" stroke-miterlimit="2"/></g><g transform="matrix(12 0 0 12 556.317017 183.742996)" clip-rule="evenodd"><path d="M0.543,-0.066c.011,0,.019.003.025.01.006.008.009.016.009.025s-.003.016-.009.022-.014.009-.025.009h-.421c-.013,0-.024-.004-.033-.013s-.013-.019-.013-.031v-.549c0-.012.004-.022.013-.031.009-.008.02-.012.033-.012h.422c.01,0,.018.003.023.009s.008.013.008.022-.003.016-.008.023c-.006.007-.014.01-.024.01h-.395v.225h.376c.009,0,.017.003.023.009.005.007.008.015.008.024c0,.008-.003.015-.008.021-.005.007-.013.01-.023.01h-.376v.217h.395Z" clip-rule="evenodd" fill="#ffa601" stroke-linejoin="round" stroke-miterlimit="2"/></g><g transform="matrix(12 0 0 12 564.585022 183.742996)" clip-rule="evenodd"><path d="M0.527,-0.604c0-.01.004-.018.012-.024.007-.005.016-.008.027-.008.01,0,.019.003.026.008.007.006.011.014.011.024v.561c0,.013-.004.024-.013.031-.009.008-.02.012-.033.012-.009,0-.017-.002-.025-.006s-.014-.01-.019-.017l-.374-.496.008.138v.344c0,.012-.004.021-.011.027-.007.007-.016.01-.027.01s-.02-.003-.027-.01c-.007-.006-.011-.015-.011-.027v-.555c0-.014.004-.025.012-.033.007-.007.017-.011.028-.011.008,0,.016.002.023.006s.013.01.018.017l.385.506-.01-.151v-.346Z" clip-rule="evenodd" fill="#ffa601" stroke-linejoin="round" stroke-miterlimit="2"/></g><g transform="matrix(12 0 0 12 573.47699 183.742996)" clip-rule="evenodd"><path d="M0.542,-0.636c.012,0,.021.003.028.01.006.007.009.015.009.024c0,.01-.003.018-.009.025-.007.007-.016.01-.028.01h-.223l.001.53c0,.011-.004.02-.012.027s-.017.01-.026.01-.018-.003-.025-.01c-.007-.006-.011-.015-.011-.027v-.53h-.222c-.011,0-.019-.004-.026-.011-.006-.006-.009-.015-.009-.024s.003-.017.009-.024c.007-.007.015-.01.026-.01h.518Z" clip-rule="evenodd" fill="#ffa601" stroke-linejoin="round" stroke-miterlimit="2"/></g><g transform="matrix(12 0 0 12 580.77301 183.742996)" clip-rule="evenodd"><path d="M0.361,0.01c-.061,0-.115-.014-.164-.041s-.088-.067-.117-.118-.043-.111-.043-.18c0-.07.016-.129.049-.177.033-.047.073-.082.122-.106.049-.023.097-.034.145-.034.049,0,.098.011.149.034.051.024.093.059.128.106.034.048.051.107.051.177c0,.067-.015.127-.044.178s-.068.091-.117.119-.102.042-.159.042Zm-.249-.336c0,.053.011.1.033.141.021.041.051.072.089.094s.08.033.127.033c.045,0,.087-.011.124-.033.037-.021.067-.052.089-.093.022-.04.033-.087.033-.142c0-.057-.013-.104-.039-.143-.027-.038-.059-.066-.098-.084-.039-.017-.077-.026-.115-.026s-.075.008-.112.025-.069.045-.093.083c-.025.038-.038.086-.038.145Z" clip-rule="evenodd" fill="#ffa601" stroke-linejoin="round" stroke-miterlimit="2"/></g></g></g></g></g></svg>
