<?xml version="1.0" encoding="utf-8"?>
<!-- Generator: Adobe Illustrator 27.2.0, SVG Export Plug-In . SVG Version: 6.00 Build 0)  -->
<svg version="1.1" id="Livello_1" xmlns="http://www.w3.org/2000/svg" xmlns:xlink="http://www.w3.org/1999/xlink" x="0px" y="0px"
	 viewBox="0 0 841.9 1190.6" style="enable-background:new 0 0 841.9 1190.6;" xml:space="preserve">
<g>
	<g>
		<path d="M0,799.3c283.7-43,565.2-85.2,841.9-126v-1.7C565.2,712.4,283.7,754.6,0,797.6V799.3z"/>
		<path d="M0,812.3c283.7-43,565.2-85.2,841.9-126v-1.7C565.2,725.4,283.7,767.6,0,810.6V812.3z"/>
		<path d="M0,785.8c284.1-42.4,566.2-83.6,841.9-123v-1.7C566.2,700.5,284.1,741.7,0,784.1V785.8z"/>
		<path d="M0,771.6c284.5-41.7,567.3-81.8,841.9-119.3v-1.7C567.3,688.1,284.5,728.2,0,769.9V771.6z"/>
		<path d="M0,756.8c284.8-41,568.8-79.8,841.9-114.8v-1.7C568.8,675.3,284.8,714,0,755.1V756.8z"/>
		<path d="M0,741.3c284.9-40.5,570.6-77.6,841.9-109.4v-1.7C570.6,662,284.9,699.1,0,739.5V741.3z"/>
		<path d="M838.1,622.6c1.3-0.1,2.5-0.3,3.8-0.4v-1.7c-2.2,0.2-4.3,0.4-6.5,0.7C836.3,621.6,837.2,622.1,838.1,622.6z"/>
		<path d="M820.2,622.7C557.5,649.9,276.9,684.3,0,723.4v1.7c277-39.1,557.6-73.5,820.4-100.7c4.9-0.5,9.8-1,14.7-1.5
			c-0.9-0.5-1.8-1-2.7-1.4C828.3,621.9,824.2,622.3,820.2,622.7z"/>
		<path d="M775.2,617.2C536.5,638,279.5,667.5,28.7,702.8c-1.5,0.8-3,1.6-4.5,2.3c252.3-35.6,511-65.3,751.2-86.3
			c14.7-1.3,29.5-2.6,44.6-3.9c-0.9-0.5-1.9-1-2.8-1.5C803,614.8,789,616,775.2,617.2z"/>
		<path d="M823.1,614.7c6.2-0.5,12.5-1.1,18.8-1.6v-1.7c-7.2,0.6-14.4,1.3-21.6,1.9C821.2,613.8,822.2,614.2,823.1,614.7z"/>
		<path d="M0,706.9v1.7c6.4-0.9,12.8-1.8,19.2-2.7c1.5-0.8,3-1.6,4.5-2.3C15.8,704.6,7.9,705.7,0,706.9z"/>
		<path d="M739.2,611.6c21.5-1.4,43.4-2.9,65.8-4.4c-1-0.5-1.9-1-2.9-1.5c-21.4,1.4-42.4,2.8-63,4.2
			c-205.8,13.7-428.8,36.8-644.7,66.9c-7.3,1-14.6,2-21.9,3.1c-1.5,0.8-3,1.6-4.5,2.4c8.9-1.3,17.8-2.5,26.7-3.8
			C310.5,648.4,533.4,625.3,739.2,611.6z"/>
		<path d="M841.9,604.4V603c-1.1,0.1-2.2,0.1-3.2,0.2C839.7,603.6,840.8,604,841.9,604.4z"/>
		<path d="M808.3,607c10-0.7,20-1.3,30.1-2c-1.3-0.5-2.6-1-3.9-1.4c-9.8,0.7-19.5,1.3-29.1,1.9C806.4,606,807.3,606.5,808.3,607z"/>
		<path d="M5.1,689.7c-1.7,0.8-3.4,1.5-5.1,2.3v0.2c20.9-3.1,41.9-6.2,62.9-9.2c1.5-0.8,3-1.6,4.5-2.4
			C46.6,683.5,25.8,686.6,5.1,689.7z"/>
		<path d="M52.7,668.2c17.9-2.8,36-5.6,54.1-8.2c1.5-0.8,3-1.6,4.5-2.4c-17.7,2.6-35.3,5.3-52.8,8C56.6,666.4,54.7,667.3,52.7,668.2
			z"/>
		<path d="M0,675v1.7c15.4-2.6,30.8-5.1,46.4-7.5c2-0.9,3.9-1.8,5.9-2.6C34.7,669.3,17.3,672.1,0,675z"/>
		<path d="M793.7,599.4c8.8-0.4,17.6-0.7,26.6-1.1c-1.4-0.5-2.8-1-4.1-1.5c-8.6,0.3-17,0.7-25.5,1
			C791.7,598.3,792.7,598.8,793.7,599.4z"/>
		<path d="M710.3,602.7c25.9-1,52.6-2.1,80-3.2c-1-0.5-2-1.1-3-1.6c-26.4,1.1-52.1,2.1-77.1,3.1c-166.3,6.7-346.6,22.5-521.5,45.7
			c-24.2,3.2-48.3,6.6-72.3,10.1c-1.5,0.8-3,1.6-4.5,2.4c25.6-3.7,51.3-7.3,77.1-10.8C363.8,625.2,544.1,609.4,710.3,602.7z"/>
		<path d="M824.7,598.1c5.7-0.2,11.4-0.5,17.1-0.7v-1.7c-7.1,0.3-14.2,0.6-21.3,0.9C822,597.1,823.4,597.6,824.7,598.1z"/>
		<path d="M61.1,650.6c-2.8,1.1-5.5,2.2-8.3,3.3c15.1-2.8,30.3-5.5,45.6-8.2c2.1-0.9,4.1-1.9,6.1-2.8
			C90,645.4,75.5,647.9,61.1,650.6z"/>
		<path d="M105.1,644.5c15-2.5,30-5,45.2-7.4c1.6-0.8,3.1-1.6,4.7-2.4c-14.7,2.3-29.3,4.6-43.8,7.1
			C109.2,642.7,107.1,643.6,105.1,644.5z"/>
		<path d="M779.6,591.9c7.6-0.1,15.4-0.1,23.1-0.2c-1.5-0.6-3-1.1-4.5-1.7c-7.3,0.1-14.6,0.1-21.8,0.2
			C777.4,590.8,778.5,591.4,779.6,591.9z"/>
		<path d="M807.5,591.7c8.1-0.1,16.3-0.1,24.6-0.2c-2.2-0.6-4.4-1.1-6.6-1.7c-7.6,0.1-15.1,0.1-22.5,0.2
			C804.5,590.6,806,591.2,807.5,591.7z"/>
		<path d="M11.4,660.1c-3.8,1.3-7.6,2.6-11.4,3.9v0.1c14.5-2.9,29.2-5.8,44-8.6c2.8-1.1,5.6-2.2,8.4-3.3
			C38.6,654.7,24.9,657.4,11.4,660.1z"/>
		<path d="M838.8,591.5c1,0,2,0,3,0v-1.7c-3.2,0-6.4,0-9.6,0.1C834.5,590.4,836.7,591,838.8,591.5z"/>
		<path d="M687.2,592.6c28.4-0.2,57.9-0.4,88.7-0.6c-1.1-0.6-2.1-1.1-3.2-1.7c-29.6,0.2-58.2,0.4-85.5,0.6
			c-134.2,0.9-280,10.7-421.7,28.3c-35.4,4.4-70.6,9.3-105.4,14.7c-1.5,0.8-3.1,1.6-4.7,2.4c36.4-5.7,73.2-10.8,110.3-15.4
			C407.3,603.3,553.1,593.5,687.2,592.6z"/>
		<path d="M2.2,655.6c-0.7,0.2-1.5,0.4-2.2,0.6v0.9c8.1-2.5,16-4.9,23.9-7.4C16.6,651.6,9.4,653.6,2.2,655.6z"/>
		<path d="M841.9,586L841.9,586c-0.5-0.1-0.9-0.2-1.4-0.2C840.9,585.9,841.4,586,841.9,586z"/>
		<path d="M595,580c25,0,49.7,0.4,73.9,1.3c29.5,1.1,60.5,2.2,93,3.3c-1.2-0.6-2.3-1.2-3.5-1.8c-31.2-1.1-61.1-2.2-89.5-3.2
			c-108.2-3.9-226,1-340.7,14c-42.1,4.8-84,10.7-124.9,17.6c-1.6,0.8-3.2,1.7-4.9,2.6c42.5-7.3,86.1-13.5,130-18.5
			C417.4,585.2,508.2,580,595,580z"/>
		<path d="M156.2,621.5c1.5-0.3,2.9-0.6,4.4-0.8c10.8-2,21.6-4,32.5-5.9c1.6-0.9,3.3-1.7,4.9-2.6c-11.8,2-23.5,4.1-35.1,6.3
			C160.6,619.5,158.4,620.5,156.2,621.5z"/>
		<path d="M112.8,630.3c11.9-2.5,24-5,36.1-7.4c2.2-1,4.5-2,6.7-3c-11.2,2.1-22.3,4.4-33.2,6.7C119.2,627.8,116,629,112.8,630.3z"/>
		<path d="M56.8,641.4c-10.6,3.3-21.4,6.6-32.4,10c9-2.4,18-4.7,27.2-7c5.7-2,11.3-3.9,16.9-5.9C64.6,639.4,60.7,640.4,56.8,641.4z"
			/>
		<path d="M69,640.1c11-2.6,22.2-5.2,33.5-7.6c3.3-1.3,6.6-2.6,9.9-3.9c-9.4,2-18.7,4.1-27.9,6.2C79.3,636.6,74.2,638.3,69,640.1z"
			/>
		<path d="M819.6,586.7c6.6,0.2,13.2,0.5,19.9,0.7c-4.6-0.7-9.1-1.5-13.6-2.2c-4.8-0.2-9.5-0.3-14.2-0.5
			C814.3,585.3,816.9,586,819.6,586.7z"/>
		<path d="M791,585.6c6.7,0.2,13.6,0.5,20.4,0.7c-2.6-0.7-5.3-1.3-7.9-2c-5.9-0.2-11.8-0.4-17.6-0.6
			C787.6,584.4,789.3,585,791,585.6z"/>
		<path d="M765.9,584.7c6.5,0.2,13.1,0.5,19.8,0.7c-1.7-0.6-3.4-1.3-5.1-1.9c-6.1-0.2-12.2-0.4-18.2-0.7
			C763.5,583.5,764.7,584.1,765.9,584.7z"/>
		<path d="M205,599.4c9.7-2.2,19.4-4.3,29.2-6.3c1.8-0.9,3.6-1.9,5.4-2.8c-9,1.8-18,3.7-26.9,5.7C210.1,597.1,207.6,598.3,205,599.4
			z"/>
		<path d="M169.4,608c9-2.3,18-4.5,27.2-6.7c2.6-1.2,5.3-2.4,7.9-3.6c-7.6,1.7-15.2,3.5-22.7,5.4C177.7,604.8,173.6,606.4,169.4,608
			z"/>
		<path d="M775.6,579.9c5.3,0.5,10.7,1,16.1,1.5c-3.5-0.9-7.1-1.8-10.6-2.7c-3.9-0.4-7.8-0.7-11.6-1.1
			C771.6,578.4,773.6,579.2,775.6,579.9z"/>
		<path d="M816,583.6c-8-1.3-16-2.6-23.8-3.8c3.4,0.9,6.9,1.7,10.4,2.6C807,582.8,811.5,583.2,816,583.6z"/>
		<path d="M379.7,571.2c46.1-4.6,92.8-7.2,138.7-7.6c4.2,0,8.4-0.1,12.6-0.1c42.1,0,83.6,1.8,123.5,5.4c29.3,2.7,60.7,5.5,93.9,8.5
			c-1.3-0.7-2.6-1.4-3.9-2.1c-31.7-2.9-61.7-5.6-89.8-8.1c-43.9-4-89.8-5.8-136.2-5.4c-45.9,0.4-92.6,3-138.8,7.6
			c-45.5,4.6-90.6,11.2-134.1,19.7c-1.8,0.9-3.5,1.8-5.3,2.8c1.2-0.2,2.3-0.5,3.5-0.7C287.8,582.6,333.6,575.8,379.7,571.2z"/>
		<path d="M752.8,577.9c5.4,0.5,10.9,1,16.4,1.5c-2-0.8-4.1-1.5-6.1-2.3c-4.8-0.4-9.5-0.9-14.2-1.3
			C750.1,576.5,751.4,577.2,752.8,577.9z"/>
		<path d="M840.5,585.8c0.5,0,0.9,0.1,1.4,0.1v-1.7c-8.7-0.8-17.2-1.6-25.7-2.3C824.2,583.2,832.3,584.5,840.5,585.8z"/>
		<path d="M89.6,631.2c14.7-5.1,29.1-10.1,43-14.9c-5.9,1.7-11.8,3.5-17.6,5.3c-28.5,8.8-58.9,18.2-91.1,28.1
			c-7.9,2.4-15.8,4.9-23.9,7.4v1.8c8.2-2.5,16.4-5,24.4-7.5c11-3.4,21.8-6.7,32.4-10C67.9,637.9,78.9,634.5,89.6,631.2z"/>
		<path d="M133.1,618c7.3-2.1,14.7-4.2,22.2-6.2c4.6-1.8,9.1-3.6,13.6-5.3c-3.3,0.8-6.5,1.7-9.8,2.6
			C150.6,611.9,141.9,614.9,133.1,618z"/>
		<path d="M251.3,578.6c7.3-2,14.6-4,22-5.9c2.1-1.1,4.2-2.2,6.3-3.3c-6.2,1.5-12.3,3.1-18.4,4.7
			C257.9,575.6,254.6,577.1,251.3,578.6z"/>
		<path d="M421.7,548.2c26.7-2.2,53.7-3.4,80.4-3.4c10.6,0,21.1,0.2,31.5,0.5c37.4,1.3,74.2,4.8,109.5,10.4
			c28.5,4.6,59.3,9.5,92.1,14.8c-1.6-0.8-3.2-1.7-4.7-2.5c-31-5-60.1-9.7-87.1-14c-35.3-5.7-72.2-9.2-109.7-10.5
			c-37-1.2-74.8-0.3-112.1,2.8c-37.4,3.1-74.5,8.4-110.4,15.8c-8.4,1.7-16.7,3.5-24.9,5.5c-2,1.1-4.1,2.1-6.1,3.2
			c10.3-2.5,20.8-4.9,31.4-7C347.3,556.6,384.4,551.3,421.7,548.2z"/>
		<path d="M762,574.9c3.6,0.6,7.2,1.2,10.9,1.7c-6.4-1.6-12.7-3.2-18.9-4.8c-0.1,0-0.1,0-0.2,0C756.5,572.9,759.3,573.9,762,574.9z"
			/>
		<path d="M69,640.1c5.2-1.8,10.3-3.6,15.4-5.3c16.7-5.8,32.9-11.4,48.7-16.8c8.8-3.1,17.5-6,26-9c9.3-3.2,18.4-6.4,27.3-9.5
			c11.9-4.7,23.5-9.2,34.7-13.6c-4.8,1.6-9.6,3.2-14.4,4.8c-23.2,8-48,16.6-74.2,25.7c-13.9,4.8-28.3,9.8-43,14.9
			c-6.9,2.4-14,4.8-21.1,7.3c-5.6,1.9-11.2,3.9-16.9,5.9c-16.8,5.8-34,11.8-51.6,17.8v1.8c3.8-1.3,7.6-2.6,11.4-3.9
			C31.2,653.2,50.4,646.6,69,640.1z"/>
		<path d="M740.5,571.5c4.3,0.7,8.5,1.4,12.9,2.1c-2.8-1-5.5-2-8.2-3c-3.1-0.5-6.3-1-9.4-1.5C737.3,569.8,738.9,570.6,740.5,571.5z"
			/>
		<path d="M221.7,587.5c5.9-1.9,12-3.8,18-5.6c3.7-1.7,7.3-3.3,10.9-4.9c-2.7,0.8-5.4,1.5-8,2.3C235.8,582,228.8,584.7,221.7,587.5z
			"/>
		<path d="M816.2,581.9c-14.7-2.4-29-4.7-43-6.9c6.2,1.6,12.6,3.2,18.9,4.8c7.9,1.3,15.8,2.5,23.8,3.8c3.3,0.5,6.6,1.1,9.9,1.6
			c4.5,0.7,9,1.5,13.6,2.2c0.8,0.1,1.6,0.3,2.4,0.4V586c-0.5-0.1-0.9-0.2-1.4-0.2C832.3,584.5,824.2,583.2,816.2,581.9z"/>
		<path d="M112.8,630.3c3.2-1.3,6.4-2.5,9.6-3.8c16.1-6.3,31.8-12.5,47-18.5c4.2-1.6,8.3-3.2,12.4-4.9c13.7-5.4,27.1-10.6,39.9-15.7
			c7.1-2.8,14.1-5.5,20.9-8.2c7.7-3,15.1-6,22.5-8.8c9.7-4.4,19.1-8.6,28.2-12.7c-3.9,1.4-7.8,2.9-11.7,4.4
			c-18.9,7.4-39.1,15.4-60.5,23.8c-11.2,4.4-22.8,9-34.7,13.6c-5.8,2.3-11.6,4.6-17.5,6.9c-4.5,1.8-9,3.5-13.6,5.3
			c-14,5.5-28.3,11.1-43,16.9c-3.3,1.3-6.6,2.6-9.9,3.9c-16.3,6.4-33,13-50.1,19.7c-2.8,1.1-5.6,2.2-8.4,3.3
			c-14.4,5.7-29.1,11.4-44,17.3v1.8c18-7.1,35.6-14,52.9-20.8c2.8-1.1,5.5-2.2,8.3-3.3C78.8,643.6,96.1,636.9,112.8,630.3z"/>
		<path d="M456.2,526c12.6-0.8,25.2-1.2,37.8-1.2c17.6,0,35.1,0.8,52.4,2.3c30.1,2.6,59.7,7.6,87.9,14.7
			c26.9,6.8,56.5,14.2,88.3,22.2c-2.2-1.1-4.3-2.3-6.4-3.4c-29.3-7.4-56.5-14.2-81.5-20.5c-28.3-7.1-58-12.1-88.1-14.7
			c-29.8-2.6-60.3-3-90.5-1.1c-30.2,1.9-60.3,6-89.4,12.3c-13.7,3-27.3,6.4-40.6,10.3c-2.6,1.4-5.3,2.8-8,4.2
			c15.9-5,32.3-9.3,49-12.9C396,532,426,527.9,456.2,526z"/>
		<path d="M294,559.3c4.8-1.8,9.7-3.4,14.6-5.1c3-1.6,5.9-3.1,8.8-4.6c-2.2,0.7-4.3,1.4-6.5,2.1C305.4,554.1,299.7,556.7,294,559.3z
			"/>
		<path d="M729.7,565.8c2.9,0.7,5.7,1.4,8.6,2.2c-5-1.9-10-3.7-14.8-5.5c-0.1,0-0.1,0-0.2-0.1C725.4,563.5,727.5,564.7,729.7,565.8z
			"/>
		<path d="M832.3,589.9c-4.3-1.1-8.5-2.1-12.7-3.2c-2.6-0.7-5.3-1.3-7.9-2c-3.1-0.8-6.1-1.5-9.1-2.3c-3.5-0.9-7-1.8-10.4-2.6
			c-6.4-1.6-12.7-3.2-18.9-4.8c-11.7-3-23.2-5.8-34.4-8.7c4.9,1.8,9.8,3.6,14.8,5.5c0.1,0,0.2,0.1,0.3,0.1
			c6.2,1.6,12.5,3.2,18.9,4.8c2.7,0.7,5.5,1.4,8.2,2.1c3.5,0.9,7,1.8,10.6,2.7c3.9,1,7.9,2,11.9,3c2.6,0.7,5.2,1.3,7.9,2
			c4.6,1.2,9.3,2.3,14,3.5c2.2,0.5,4.4,1.1,6.6,1.7c3.3,0.8,6.5,1.6,9.8,2.5v-1.8c-1-0.3-2-0.5-3-0.8
			C836.7,591,834.5,590.4,832.3,589.9z"/>
		<path d="M52.7,668.2c1.9-0.9,3.9-1.8,5.8-2.6c15.8-7.1,31.3-14.1,46.5-21c2-0.9,4.1-1.8,6.1-2.8c15.3-6.9,30.3-13.7,45-20.3
			c2.2-1,4.4-2,6.6-3c14.4-6.5,28.5-12.9,42.2-19.1c2.6-1.2,5.1-2.3,7.6-3.5c13.2-6,26.1-11.8,38.6-17.4c3.3-1.5,6.6-3,9.9-4.5
			c11.3-5.1,22.2-10,32.8-14.8c5.7-2.6,11.4-5.1,16.9-7.6c6.2-2.8,12.3-5.5,18.2-8.2c8-4.2,15.7-8.2,23.2-12.2
			c-3.2,1.3-6.4,2.7-9.6,4.1c-15.5,7-32,14.4-49.4,22.3c-9.2,4.1-18.6,8.4-28.2,12.7c-4.8,2.1-9.6,4.3-14.4,6.5
			c-3.6,1.6-7.3,3.3-10.9,4.9c-11.5,5.2-23.2,10.5-35.3,15.9c-2.6,1.2-5.2,2.4-7.9,3.6c-13.3,6-27,12.2-40.9,18.5
			c-2.2,1-4.5,2-6.7,3c-14.5,6.5-29.2,13.2-44.3,20c-2,0.9-4.1,1.8-6.1,2.8c-15.1,6.8-30.5,13.8-46.2,20.9c-1.9,0.9-3.9,1.8-5.9,2.6
			C31.2,676,15.7,683,0,690.1v1.9c1.7-0.8,3.4-1.5,5.1-2.3C21.3,682.4,37.1,675.2,52.7,668.2z"/>
		<path d="M484.6,504.4c4.5-0.2,8.9-0.2,13.4-0.2c19.9,0,39.8,1.5,59.3,4.6c24.2,3.8,47.8,10,70.4,18.3c25,9.3,52.8,19.5,83.1,30.7
			c-4-2.1-7.9-4.1-11.7-6.1c-25.5-9.4-49.2-18.2-70.8-26.2c-22.6-8.4-46.4-14.6-70.7-18.4c-24-3.8-48.5-5.3-73-4.4
			c-24.4,0.9-48.8,4-72.5,9.5c-15.4,3.5-30.5,8-45.2,13.4c-4.5,2.4-9.1,4.8-13.8,7.2c19.1-7.9,39-14.3,59.4-19
			C436,508.4,460.3,505.2,484.6,504.4z"/>
		<path d="M824.7,598.1c-1.4-0.5-2.8-1-4.1-1.5c-4.4-1.6-8.8-3.2-13.1-4.8c-1.5-0.6-3-1.1-4.5-1.7c-4-1.5-8-3-12-4.4
			c-1.7-0.6-3.4-1.3-5.1-1.9c-3.5-1.3-6.9-2.6-10.3-3.8c-2-0.8-4.1-1.5-6.1-2.3c-2.5-0.9-5-1.9-7.5-2.8c-2.8-1-5.5-2-8.2-3
			c0,0-0.1,0-0.1,0c-5-1.8-9.9-3.7-14.8-5.5c-9.4-3.5-18.5-6.8-27.5-10.2c3.9,2,7.8,4.1,11.7,6.1c0.1,0,0.3,0.1,0.4,0.1
			c4.9,1.8,9.8,3.6,14.8,5.5c2.3,0.8,4.5,1.7,6.8,2.5c2.7,1,5.5,2,8.2,3c3.2,1.2,6.4,2.4,9.7,3.6c2,0.7,4.1,1.5,6.1,2.3
			c3.8,1.4,7.6,2.8,11.4,4.2c1.7,0.6,3.4,1.3,5.1,1.9c4.2,1.5,8.4,3.1,12.6,4.6c1.5,0.6,3,1.1,4.5,1.7c4.5,1.6,8.9,3.3,13.5,5
			c1.4,0.5,2.8,1,4.1,1.5c4.7,1.7,9.4,3.5,14.2,5.2c1.3,0.5,2.6,1,3.9,1.4c1.2,0.4,2.3,0.9,3.5,1.3v-1.8c-1.1-0.4-2.2-0.8-3.2-1.2
			C834,601.5,829.3,599.8,824.7,598.1z"/>
		<path d="M835.4,621.2c-4.1-2.2-8.2-4.3-12.3-6.4c-0.9-0.5-1.9-1-2.8-1.5c-4-2.1-8-4.2-12-6.3c-1-0.5-1.9-1-2.9-1.5
			c-3.9-2.1-7.8-4.1-11.7-6.1c-1-0.5-2-1.1-3-1.6c-3.7-2-7.5-3.9-11.2-5.8c-1.1-0.6-2.1-1.1-3.2-1.7c-3.5-1.9-7-3.7-10.5-5.5
			c-1.2-0.6-2.3-1.2-3.5-1.8c-3.2-1.7-6.4-3.4-9.6-5c-1.3-0.7-2.6-1.4-3.9-2.1c-2.8-1.5-5.6-2.9-8.3-4.4c-1.6-0.8-3.2-1.7-4.7-2.5
			c-2-1.1-4.1-2.1-6.1-3.2c-2.2-1.1-4.3-2.3-6.4-3.4c-0.1,0-0.1-0.1-0.2-0.1c-4-2.1-7.9-4.1-11.7-6.1c-32.6-17.1-62.1-32.6-88-46.1
			l0,0c-18-9.5-37-16.7-56.5-21.5c-19.2-4.8-39-7.2-58.8-7.2c-19.7,0-39.5,2.4-58.8,7.2c-19.5,4.8-38.5,12-56.6,21.5
			c-12.5,6.6-26,13.6-40.4,21.2c-7.5,3.9-15.2,8-23.2,12.2c-3.8,2-7.8,4.1-11.7,6.1c-2.9,1.5-5.9,3.1-8.8,4.6
			c-9.4,4.9-19,10-29,15.2c-2.1,1.1-4.2,2.2-6.3,3.3c-10.9,5.7-22.1,11.6-33.6,17.6c-1.8,0.9-3.6,1.9-5.4,2.8
			c-11.8,6.2-23.9,12.5-36.3,19c-1.6,0.9-3.3,1.7-4.9,2.6c-12.4,6.5-25.1,13.2-38.1,20c-1.6,0.8-3.1,1.6-4.7,2.4
			c-12.7,6.7-25.7,13.5-38.9,20.4c-1.5,0.8-3,1.6-4.5,2.4c-12.9,6.8-26,13.6-39.4,20.6c-1.5,0.8-3,1.6-4.5,2.4
			c-12.9,6.8-26,13.6-39.3,20.6c-1.5,0.8-3,1.6-4.5,2.3c-6.4,3.3-12.8,6.7-19.2,10.1v1.9c8.1-4.3,16.2-8.5,24.2-12.7
			c1.5-0.8,3-1.6,4.5-2.3c13.3-7,26.4-13.8,39.3-20.6c1.5-0.8,3-1.6,4.5-2.4c13.3-7,26.5-13.9,39.4-20.7c1.5-0.8,3-1.6,4.5-2.4
			c13.3-7,26.3-13.8,39.1-20.5c1.6-0.8,3.1-1.6,4.7-2.4c13-6.8,25.8-13.5,38.3-20.1c1.6-0.9,3.3-1.7,4.9-2.6
			c12.6-6.6,24.9-13,36.8-19.3c1.8-0.9,3.5-1.9,5.3-2.8c11.9-6.2,23.5-12.3,34.7-18.2c2.1-1.1,4.1-2.1,6.1-3.2
			c10.9-5.7,21.5-11.3,31.7-16.6c2.7-1.4,5.4-2.8,8-4.2c9.3-4.9,18.3-9.6,27-14.1c4.7-2.5,9.3-4.9,13.8-7.2
			c9.3-4.9,18.3-9.6,26.7-14c17.9-9.4,36.8-16.6,56.2-21.3c19.1-4.7,38.8-7.1,58.4-7.1c19.6,0,39.2,2.4,58.3,7.1
			c19.3,4.8,38.2,12,56.1,21.3h0c22.8,11.9,48.3,25.3,76.4,40c3.9,2,7.8,4.1,11.7,6.1c1.8,1,3.7,1.9,5.6,2.9
			c2.1,1.1,4.3,2.2,6.4,3.4c2.6,1.4,5.2,2.7,7.8,4.1c1.6,0.8,3.2,1.7,4.7,2.5c3,1.6,6.1,3.2,9.2,4.8c1.3,0.7,2.6,1.4,3.9,2.1
			c3.3,1.8,6.7,3.5,10.1,5.3c1.2,0.6,2.3,1.2,3.5,1.8c3.6,1.9,7.2,3.8,10.8,5.7c1.1,0.6,2.1,1.1,3.2,1.7c3.8,2,7.6,4,11.4,6
			c1,0.5,2,1.1,3,1.6c3.9,2,7.8,4.1,11.8,6.2c1,0.5,1.9,1,2.9,1.5c4,2.1,8.1,4.2,12.1,6.4c0.9,0.5,1.9,1,2.8,1.5
			c4.1,2.1,8.2,4.3,12.4,6.5c0.9,0.5,1.8,0.9,2.7,1.4c2.3,1.2,4.6,2.4,6.9,3.6v-1.9c-1.3-0.7-2.5-1.3-3.8-2
			C837.2,622.1,836.3,621.6,835.4,621.2z"/>
	</g>
</g>
</svg>
