<?xml version="1.0" encoding="utf-8"?>
<!-- Generator: Adobe Illustrator 27.2.0, SVG Export Plug-In . SVG Version: 6.00 Build 0)  -->
<svg version="1.1" id="Livello_1" xmlns="http://www.w3.org/2000/svg" xmlns:xlink="http://www.w3.org/1999/xlink" x="0px" y="0px"
	 viewBox="0 0 841.9 1190.6" style="enable-background:new 0 0 841.9 1190.6;" xml:space="preserve">
<style type="text/css">
	.st0{fill:none;}
	.st1{fill:#010202;}
</style>
<rect x="0" class="st0" width="841.9" height="1190.6"/>
<g>
	<path class="st1" d="M807.5,1175.6c11.5,0,23,0,34.4,0v-1.7c-12.7,0-25.3,0-38,0C805.1,1174.5,806.3,1175.1,807.5,1175.6z"/>
	<path class="st1" d="M800,1173.9c-266.6,0-533.3,0-800,0v1.7c267.9,0,535.7,0,803.5,0C802.4,1175,801.2,1174.5,800,1173.9z"/>
	<path class="st1" d="M770.4,1157.9c23.8,0,47.6,0,71.5,0v-1.7c-25,0-50,0-75,0C768.1,1156.8,769.3,1157.3,770.4,1157.9z"/>
	<path class="st1" d="M763,1156.2c-254.3,0-508.6-0.1-763-0.1v1.7c255.5,0,511.1,0,766.5,0.1C765.3,1157.3,764.2,1156.8,763,1156.2z
		"/>
	<path class="st1" d="M732.7,1139.8c36.4,0,72.8,0,109.2,0v-1.7c-37.6,0-75.2,0-112.8,0C730.3,1138.7,731.5,1139.3,732.7,1139.8z"/>
	<path class="st1" d="M725.2,1138.1c-241.7,0-483.4-0.1-725.2-0.1v1.7c243,0,485.9,0,728.8,0.1
		C727.6,1139.3,726.4,1138.7,725.2,1138.1z"/>
	<path class="st1" d="M694.2,1121.4c49.2,0,98.5,0,147.7,0v-1.7c-50.4,0-100.8,0-151.2,0C691.8,1120.3,693,1120.8,694.2,1121.4z"/>
	<path class="st1" d="M686.7,1119.7c-228.8-0.1-457.7-0.1-686.7-0.1v1.7c230.2,0,460.3,0.1,690.3,0.1
		C689.1,1120.8,687.9,1120.3,686.7,1119.7z"/>
	<path class="st1" d="M655.1,1102.7c62.3,0,124.6,0.1,186.8,0.1v-1.7c-63.4,0-126.9-0.1-190.4-0.1
		C652.7,1101.6,653.9,1102.1,655.1,1102.7z"/>
	<path class="st1" d="M647.6,1101c-215.8-0.1-431.7-0.2-647.6-0.2v1.7c217.1,0,434.2,0.1,651.1,0.2
		C650,1102.1,648.8,1101.6,647.6,1101z"/>
	<path class="st1" d="M816.4,1083.7c8.5,0,17,0,25.5,0v-1.7c-10,0-19.9,0-29.9,0C813.5,1082.6,814.9,1083.1,816.4,1083.7z"/>
	<path class="st1" d="M615,1083.5c65.6,0,131.1,0.1,196.6,0.1c-1.5-0.6-3-1.1-4.5-1.7c-65.2-0.1-130.4-0.1-195.7-0.1
		C612.7,1082.4,613.9,1083,615,1083.5z"/>
	<path class="st1" d="M607.6,1081.8c-202.4-0.1-405-0.2-607.6-0.3v1.7c203.8,0.1,407.6,0.2,611.1,0.3
		C610,1083,608.8,1082.4,607.6,1081.8z"/>
	<path class="st1" d="M566.9,1062.4c-188.7-0.2-377.8-0.3-566.9-0.4v1.7c190.3,0.1,380.6,0.2,570.5,0.4
		C569.3,1063.5,568.1,1063,566.9,1062.4z"/>
	<path class="st1" d="M574.4,1064.1c62,0.1,124,0.1,186,0.2c-1.5-0.6-3-1.1-4.5-1.7c-61.6-0.1-123.3-0.1-185-0.2
		C572,1063,573.2,1063.5,574.4,1064.1z"/>
	<path class="st1" d="M765.2,1064.3c25.6,0,51.2,0.1,76.7,0.1v-1.7c-27.1,0-54.1-0.1-81.2-0.1
		C762.2,1063.2,763.7,1063.7,765.2,1064.3z"/>
	<path class="st1" d="M533,1044.3c58.5,0.1,116.9,0.2,175.2,0.3c-1.5-0.6-3-1.1-4.5-1.7c-58-0.1-116.1-0.2-174.3-0.3
		C530.6,1043.1,531.8,1043.7,533,1044.3z"/>
	<path class="st1" d="M713,1044.6c43,0.1,86,0.2,128.9,0.2v-1.7c-44.4-0.1-88.9-0.2-133.4-0.3C710,1043.4,711.5,1044,713,1044.6z"/>
	<path class="st1" d="M525.5,1042.6c-174.8-0.3-350.1-0.5-525.5-0.6v1.7c176.6,0.1,353,0.3,529,0.6
		C527.9,1043.7,526.7,1043.1,525.5,1042.6z"/>
	<path class="st1" d="M660.1,1024.6c60.7,0.2,121.3,0.3,181.8,0.5v-1.7c-62-0.2-124-0.4-186.2-0.5
		C657.1,1023.4,658.6,1024,660.1,1024.6z"/>
	<path class="st1" d="M490.9,1024.2c54.9,0.1,109.7,0.3,164.4,0.4c-1.5-0.6-3-1.1-4.5-1.7c-54.4-0.1-108.9-0.3-163.4-0.4
		C488.6,1023,489.8,1023.6,490.9,1024.2z"/>
	<path class="st1" d="M483.5,1022.5c-160.7-0.4-322-0.6-483.5-0.8v1.7c162.7,0.2,325.1,0.4,487,0.8
		C485.8,1023.6,484.7,1023,483.5,1022.5z"/>
	<path class="st1" d="M606.6,1004.3c59.1,0.2,118.1,0.5,176.9,0.8c-1.9-0.6-3.8-1.1-5.7-1.7c-58.4-0.3-117-0.5-175.7-0.8
		C603.6,1003.2,605.1,1003.8,606.6,1004.3z"/>
	<path class="st1" d="M440.8,1002c-146.4-0.5-293.4-0.9-440.8-1.1v1.7c148.6,0.3,296.8,0.6,444.4,1.1
		C443.2,1003.2,442,1002.6,440.8,1002z"/>
	<path class="st1" d="M789.5,1005.1c17.5,0.1,34.9,0.2,52.3,0.3v-1.7c-19.3-0.1-38.7-0.2-58.1-0.3
		C785.7,1004,787.6,1004.6,789.5,1005.1z"/>
	<path class="st1" d="M448.3,1003.7c51.3,0.2,102.4,0.4,153.5,0.6c-1.5-0.6-3-1.1-4.5-1.7c-50.7-0.2-101.6-0.4-152.5-0.6
		C445.9,1002.6,447.1,1003.2,448.3,1003.7z"/>
	<path class="st1" d="M397.6,981.4c-131.8-0.7-264.5-1.2-397.6-1.5v1.7c134.3,0.4,268.2,0.9,401.2,1.6
		C400,982.5,398.8,981.9,397.6,981.4z"/>
	<path class="st1" d="M552.6,983.9c54.7,0.3,109.3,0.7,163.6,1.1c-1.9-0.6-3.9-1.2-5.8-1.7c-53.9-0.4-108-0.7-162.4-1.1
		C549.6,982.8,551.1,983.4,552.6,983.9z"/>
	<path class="st1" d="M722.3,985c40,0.3,79.9,0.6,119.6,0.9v-1.7c-41.7-0.3-83.5-0.6-125.4-0.9C718.4,983.9,720.4,984.5,722.3,985z"
		/>
	<path class="st1" d="M405.1,983.1c47.7,0.2,95.2,0.5,142.6,0.8c-1.5-0.6-3-1.1-4.5-1.7c-47.1-0.3-94.3-0.5-141.7-0.8
		C402.8,982,404,982.5,405.1,983.1z"/>
	<path class="st1" d="M361.6,962.3c44.1,0.3,88.1,0.7,131.9,1.1c-1.5-0.6-3-1.2-4.6-1.7c-43.5-0.4-87.1-0.7-130.9-1.1
		C359.2,961.1,360.4,961.7,361.6,962.3z"/>
	<path class="st1" d="M655.1,965c57.4,0.6,114.5,1.3,171.1,2c-2.5-0.6-5-1.2-7.5-1.8c-56.1-0.7-112.6-1.3-169.4-1.9
		C651.1,963.8,653.1,964.4,655.1,965z"/>
	<path class="st1" d="M833.9,967c2.7,0,5.3,0.1,8,0.1v-1.7c-5.2-0.1-10.3-0.1-15.5-0.2C828.9,965.8,831.4,966.4,833.9,967z"/>
	<path class="st1" d="M354.1,960.5c-117.1-0.9-235.3-1.6-354.1-2.1v1.7c119.9,0.5,239.3,1.2,357.6,2.1
		C356.4,961.7,355.2,961.1,354.1,960.5z"/>
	<path class="st1" d="M498.4,963.4c50.4,0.5,100.6,0.9,150.5,1.5c-2-0.6-3.9-1.2-5.9-1.7c-49.5-0.5-99.3-1-149.3-1.5
		C495.3,962.3,496.9,962.8,498.4,963.4z"/>
	<path class="st1" d="M310.2,939.6c-102.4-1.2-206-2.1-310.2-2.8v1.7c105.5,0.7,210.3,1.6,313.9,2.8
		C312.6,940.7,311.4,940.1,310.2,939.6z"/>
	<path class="st1" d="M444.2,942.9c46.3,0.6,92.3,1.3,138,2c-2-0.6-4-1.2-6-1.8c-45.2-0.7-90.8-1.4-136.6-2
		C441.1,941.7,442.6,942.3,444.2,942.9z"/>
	<path class="st1" d="M317.9,941.3c40.7,0.5,81.1,1,121.4,1.5c-1.5-0.6-3.1-1.2-4.6-1.8c-39.9-0.5-80-1-120.3-1.5
		C315.5,940.2,316.7,940.8,317.9,941.3z"/>
	<path class="st1" d="M752.8,947.9c29.9,0.6,59.6,1.1,89.1,1.8v-1.7c-32-0.7-64.3-1.3-96.8-1.9C747.7,946.7,750.2,947.3,752.8,947.9
		z"/>
	<path class="st1" d="M588.4,945c52.7,0.8,104.9,1.7,156.5,2.7c-2.6-0.6-5.2-1.2-7.8-1.8c-51-0.9-102.6-1.8-154.7-2.7
		C584.4,943.8,586.4,944.4,588.4,945z"/>
	<path class="st1" d="M274.1,920.4c37.3,0.6,74.4,1.3,111.2,2.1c-1.6-0.6-3.1-1.2-4.7-1.8c-36.5-0.7-73.2-1.4-110.2-2
		C271.7,919.2,272.9,919.8,274.1,920.4z"/>
	<path class="st1" d="M266.4,918.6C178.8,917.1,89.8,915.9,0,915v1.7c91,0.9,181.2,2.2,270.1,3.7
		C268.9,919.8,267.6,919.2,266.4,918.6z"/>
	<path class="st1" d="M841.9,933.2v-0.7c-1.5,0-3-0.1-4.6-0.1C838.9,932.7,840.4,933,841.9,933.2z"/>
	<path class="st1" d="M666.7,927.5c2.7,0.6,5.4,1.3,8.1,1.9c52.6,1.5,106.7,3,162.3,4.6c-3.6-0.7-7.1-1.3-10.7-2
		c-53.1-1.5-104.9-3-155.2-4.4C669.7,927.6,668.2,927.6,666.7,927.5z"/>
	<path class="st1" d="M390.4,922.6c42.5,0.9,84.6,1.8,126.2,2.8c-2-0.6-4.1-1.2-6.1-1.8c-41.2-1-82.8-1.9-124.8-2.7
		C387.3,921.4,388.8,922,390.4,922.6z"/>
	<path class="st1" d="M523,925.5c48.5,1.2,96.4,2.4,143.5,3.7c-2.7-0.6-5.4-1.3-8.1-1.9c-46.5-1.3-93.7-2.5-141.5-3.7
		C518.9,924.3,521,924.9,523,925.5z"/>
	<path class="st1" d="M756.8,917.4c28,1,56.3,2,85.1,3.1v-1.7c-32.6-1.2-64.7-2.3-96.3-3.5C749.3,916,753.1,916.7,756.8,917.4z"/>
	<path class="st1" d="M337.7,902.6c39.1,1.2,77.7,2.4,115.7,3.8c-2.1-0.6-4.3-1.3-6.4-1.9c-37.5-1.3-75.6-2.6-114.2-3.7
		C334.4,901.4,336.1,902,337.7,902.6z"/>
	<path class="st1" d="M453.7,904.8c2.1,0.6,4.3,1.3,6.4,1.9c42.5,1.5,86.1,3.1,130.9,4.7c-2.8-0.7-5.6-1.3-8.4-2
		c-42.8-1.5-84.6-3-125.3-4.5C456.1,904.9,454.9,904.8,453.7,904.8z"/>
	<path class="st1" d="M222.9,897.8c-73.1-1.8-147.6-3.4-222.9-4.6v1.7c76.7,1.2,152.4,2.8,226.6,4.7
		C225.4,899,224.2,898.4,222.9,897.8z"/>
	<path class="st1" d="M599.7,911.7c47.3,1.7,95.9,3.4,145.7,5.2c-3.7-0.7-7.5-1.4-11.2-2.1c-48.9-1.8-96.5-3.5-143-5.1
		C594.1,910.4,596.9,911,599.7,911.7z"/>
	<path class="st1" d="M230.8,899.7c34.2,0.9,68.2,1.8,101.7,2.8c-1.6-0.6-3.2-1.2-4.9-1.8c-33.2-1-66.7-1.9-100.6-2.8
		C228.3,898.5,229.5,899.1,230.8,899.7z"/>
	<path class="st1" d="M399.5,888.6c38.1,1.7,77.3,3.5,117.6,5.3c-3-0.7-5.9-1.4-8.9-2.1c-39.5-1.8-77.9-3.5-115.4-5.2
		C395,887.2,397.2,887.9,399.5,888.6z"/>
	<path class="st1" d="M180.2,877.3c-58.8-2.2-119-4.1-180.2-5.7v1.7c62.5,1.6,124,3.5,184,5.8C182.7,878.6,181.5,877.9,180.2,877.3z
		"/>
	<path class="st1" d="M826.6,908c5.1,0.2,10.2,0.5,15.3,0.7V907c-10.7-0.5-21.3-1-31.9-1.5C815.5,906.4,821,907.2,826.6,908z"/>
	<path class="st1" d="M281.9,881.5c1.7,0.6,3.4,1.3,5.1,1.9c34.2,1.6,69.4,3.2,105.6,4.8c-2.2-0.7-4.5-1.3-6.7-2
		c-34.6-1.6-68.3-3.1-101.1-4.6C283.8,881.6,282.8,881.6,281.9,881.5z"/>
	<path class="st1" d="M526.1,894.3c42.2,1.9,85.4,3.9,129.8,5.9c-4-0.7-8-1.5-12-2.2c-43.3-2-85.5-3.9-126.7-5.8
		C520.2,892.9,523.2,893.6,526.1,894.3z"/>
	<path class="st1" d="M188.3,879.3c31.5,1.2,62.6,2.5,93.3,3.9c-1.7-0.6-3.4-1.3-5.1-1.9c-30.2-1.4-60.9-2.6-92-3.8
		C185.7,878.1,187,878.7,188.3,879.3z"/>
	<path class="st1" d="M668.1,900.8c46.1,2.1,93.4,4.2,141.8,6.4c-5.5-0.8-11.1-1.6-16.6-2.4c-46.8-2.1-92.5-4.2-137.2-6.2
		C660.1,899.3,664.1,900,668.1,900.8z"/>
	<path class="st1" d="M582.3,884.8c40.2,2.3,81.4,4.7,123.5,7.1c-6.3-0.9-12.5-1.9-18.8-2.8c-40.2-2.3-79.4-4.6-117.8-6.8
		C573.6,883.1,577.9,884,582.3,884.8z"/>
	<path class="st1" d="M138.9,857.6C93.7,855,47.3,852.8,0,850.8v1.7c48.7,2,96.5,4.3,142.9,7C141.6,858.9,140.2,858.2,138.9,857.6z"
		/>
	<path class="st1" d="M454.6,877.4c37.2,2.1,75.3,4.3,114.4,6.6c-4.4-0.8-8.7-1.6-13.1-2.4c-37.9-2.2-74.8-4.3-110.8-6.4
		C448.2,875.9,451.4,876.7,454.6,877.4z"/>
	<path class="st1" d="M706,890.2c6.3,0.9,12.5,1.8,18.8,2.8c38.3,2.2,77.3,4.5,117.1,6.7v-0.8c-5-0.6-10-1.2-15-1.7
		C785.8,894.8,745.4,892.5,706,890.2z"/>
	<path class="st1" d="M340.2,870.8c33.9,2,68.8,4,104.7,6c-3.2-0.7-6.3-1.5-9.5-2.2c-35-2-69.1-4-102.2-5.9
		C335.5,869.4,337.8,870.1,340.2,870.8z"/>
	<path class="st1" d="M238.1,865c30.6,1.8,62.3,3.6,94.8,5.5c-2.3-0.7-4.7-1.4-7-2.1c-31.9-1.8-63-3.6-93.1-5.4
		C234.5,863.6,236.3,864.3,238.1,865z"/>
	<path class="st1" d="M143.3,857.8c1.3,0.6,2.7,1.3,4,1.9c27.5,1.6,55.8,3.2,85.1,4.9c-1.8-0.7-3.5-1.3-5.3-2
		c-28-1.6-55.2-3.2-81.6-4.7C144.8,857.9,144.1,857.9,143.3,857.8z"/>
	<path class="st1" d="M737.4,885c12.8,1.5,25.7,3,38.7,4.5c21.7,1.6,43.7,3.2,65.8,4.8v-0.7c-16.8-1.6-33.6-3.1-50.2-4.6
		C773.5,887.7,755.4,886.3,737.4,885z"/>
	<path class="st1" d="M190.2,846.9c27.4,2,55.6,4,84.4,6.1c-2.5-0.7-5-1.5-7.5-2.2c-28.2-2.1-55.7-4.1-82.5-6
		C186.5,845.5,188.4,846.2,190.2,846.9z"/>
	<path class="st1" d="M103.3,840.5c-1.4-0.7-2.8-1.3-4.2-2c-22.5-1.6-44.4-3.2-65.8-4.8c-11-0.8-22.2-1.6-33.4-2.3v1.7
		c11.2,0.7,22.3,1.5,33.2,2.3C55.9,837.1,79.3,838.8,103.3,840.5z"/>
	<path class="st1" d="M628.7,878.8c35.6,2.6,71.8,5.2,108.6,7.9c-13-1.5-25.8-3-38.7-4.5c-31.3-2.3-62.2-4.5-92.5-6.7
		C613.6,876.6,621.1,877.7,628.7,878.8z"/>
	<path class="st1" d="M385.4,861.1c32.5,2.4,65.8,4.8,99.7,7.3c-5-0.9-9.9-1.9-14.9-2.8c-32.4-2.4-64.1-4.7-95.2-6.9
		C378.5,859.5,381.9,860.3,385.4,861.1z"/>
	<path class="st1" d="M107.9,840.9c24.8,1.8,50.3,3.7,76.4,5.6c-1.8-0.7-3.7-1.4-5.5-2.1c-25.6-1.9-50.7-3.7-75-5.5
		C105.1,839.6,106.5,840.2,107.9,840.9z"/>
	<path class="st1" d="M500.2,869.4c34.5,2.5,69.8,5.1,105.7,7.7c-7.6-1.1-15.1-2.2-22.7-3.3c-33.2-2.4-65.9-4.8-97.9-7.1
		C490.3,867.6,495.2,868.5,500.2,869.4z"/>
	<path class="st1" d="M282.4,853.6c30.1,2.2,60.9,4.4,92.3,6.7c-3.5-0.8-6.9-1.6-10.4-2.4c-30.5-2.2-60.3-4.4-89.5-6.5
		C277.4,852.1,279.9,852.8,282.4,853.6z"/>
	<path class="st1" d="M143.7,829.3c24.2,2.2,49,4.5,74.5,6.9c-2.7-0.8-5.5-1.6-8.2-2.5c-24.6-2.3-48.7-4.5-72.2-6.7
		C139.7,827.8,141.7,828.5,143.7,829.3z"/>
	<path class="st1" d="M226.6,836.9c26.2,2.4,53,4.9,80.5,7.4c-3.9-0.9-7.9-1.9-11.8-2.8c-26.2-2.4-51.8-4.8-76.9-7.1
		C221.2,835.3,223.9,836.1,226.6,836.9z"/>
	<path class="st1" d="M422.7,855c28.7,2.6,58,5.3,87.8,8.1c-10.3-1.5-20.5-3-30.6-4.5c-25.4-2.3-50.5-4.7-75.1-6.9
		C410.7,852.7,416.7,853.9,422.7,855z"/>
	<path class="st1" d="M541.3,865.9c27.5,2.5,55.4,5.1,83.7,7.7c-23.4-2.7-46.5-5.4-69.3-8.1c-15.1-1.4-30.1-2.8-45-4.1
		C520.8,862.9,531,864.4,541.3,865.9z"/>
	<path class="st1" d="M694.5,880c31.9,2.9,64.3,5.9,97.2,9c16.6,1.5,33.3,3.1,50.2,4.6v-1.7c-74.4-6.9-146.8-13.5-216.7-20
		C648.1,874.6,671.2,877.3,694.5,880z"/>
	<path class="st1" d="M60.1,819.9c-20.6-1.9-40.6-3.7-60.1-5.5v1.7c20.9,1.9,42.4,3.9,64.5,5.9C63,821.3,61.6,820.6,60.1,819.9z"/>
	<path class="st1" d="M319.1,845.4c27.9,2.6,56.3,5.2,85.4,7.9c-6-1.1-12-2.2-17.9-3.3c-26.9-2.5-53.3-4.9-79.2-7.3
		C311.3,843.6,315.2,844.5,319.1,845.4z"/>
	<path class="st1" d="M69.3,822.4c22.1,2,44.8,4.1,68,6.3c-2-0.7-4-1.5-5.9-2.2c-22.7-2.1-44.9-4.1-66.5-6.1
		C66.4,821,67.9,821.7,69.3,822.4z"/>
	<path class="st1" d="M256.6,830.7c23.2,2.7,46.9,5.5,71,8.3c-8.1-1.5-16.2-3-24.3-4.5c-20.6-2.4-40.9-4.8-60.9-7.1
		C247.1,828.4,251.9,829.6,256.6,830.7z"/>
	<path class="st1" d="M98.7,812.3c21.1,2.5,42.8,5,64.9,7.6c-3.1-0.9-6.2-1.9-9.3-2.8c-21.1-2.5-41.8-4.9-62-7.2
		C94.3,810.6,96.5,811.4,98.7,812.3z"/>
	<path class="st1" d="M173.2,820.9c22.5,2.6,45.5,5.3,68.9,8c-4.8-1.1-9.5-2.2-14.2-3.4c-21.7-2.5-43.1-5-64-7.5
		C167,819.1,170.1,820,173.2,820.9z"/>
	<path class="st1" d="M352.1,841.8c22.3,2.6,44.9,5.2,67.9,7.9c-18.5-2.7-36.8-5.4-54.9-8.1c-12.5-1.5-24.9-2.9-37.2-4.3
		C335.9,838.8,344,840.3,352.1,841.8z"/>
	<path class="st1" d="M31.8,804.5c19.5,2.3,39.5,4.6,60,7c-2.2-0.8-4.3-1.6-6.5-2.5c-19.8-2.3-39.2-4.6-58.2-6.8
		C28.7,803,30.2,803.7,31.8,804.5z"/>
	<path class="st1" d="M21.9,801.6c-7.4-0.9-14.7-1.7-21.9-2.6v1.7c8.8,1,17.6,2.1,26.6,3.1C25.1,803.1,23.5,802.4,21.9,801.6z"/>
	<path class="st1" d="M737.4,885c-14.4-1.7-28.7-3.3-42.9-5c-23.3-2.7-46.5-5.4-69.3-8.1c-70.7-8.2-139.2-16.2-205-23.9
		c18.1,2.7,36.4,5.4,54.9,8.1c26.5,3.1,53.3,6.2,80.6,9.4c22.9,2.7,46,5.4,69.3,8.1c24.3,2.8,48.8,5.7,73.6,8.6
		c12.8,1.5,25.7,3,38.7,4.5c29.6,3.4,59.4,6.9,89.6,10.5c5,0.6,10,1.2,15,1.7v-1.7c-22.1-2.6-44-5.1-65.8-7.7
		C763.1,888,750.3,886.5,737.4,885z"/>
	<path class="st1" d="M122.8,805.9c18.7,2.8,37.8,5.6,57.3,8.5c-6.4-1.5-12.9-3-19.2-4.5c-16.7-2.5-33.2-4.9-49.3-7.3
		C115.2,803.6,119,804.7,122.8,805.9z"/>
	<path class="st1" d="M40.4,792c-13.7-2-27.2-4-40.4-6v1.7c15.6,2.3,31.5,4.6,47.8,7C45.3,793.9,42.8,792.9,40.4,792z"/>
	<path class="st1" d="M199.6,817.2c18,2.7,36.4,5.4,55,8.1c-14.7-2.7-29.2-5.5-43.6-8.1c-10.3-1.5-20.5-3-30.6-4.5
		C186.8,814.2,193.2,815.7,199.6,817.2z"/>
	<path class="st1" d="M55.6,796c18.1,2.7,36.6,5.4,55.5,8.2c-3.8-1.1-7.5-2.3-11.3-3.4c-17.6-2.6-34.8-5.1-51.7-7.6
		C50.6,794.1,53.1,795,55.6,796z"/>
	<path class="st1" d="M810,905.6c-28.7-4.2-57.1-8.4-85.2-12.6c-6.3-0.9-12.5-1.9-18.8-2.8c-26-3.8-51.8-7.6-77.2-11.4
		c-7.6-1.1-15.1-2.2-22.7-3.3c-21.8-3.2-43.4-6.4-64.8-9.6c-10.3-1.5-20.5-3-30.6-4.5c-11.9-1.8-23.8-3.5-35.6-5.2
		c-18.5-2.7-36.8-5.4-54.9-8.1c-57.1-8.4-112.4-16.6-165.3-24.4c14.4,2.7,28.9,5.4,43.6,8.1c21.9,3.2,44.1,6.5,66.6,9.8
		c18.1,2.7,36.4,5.4,54.9,8.1c19.7,2.9,39.7,5.9,59.9,8.8c10.2,1.5,20.4,3,30.6,4.5c24,3.5,48.2,7.1,72.7,10.7
		c7.5,1.1,15.1,2.2,22.7,3.3c26.8,3.9,53.8,7.9,81.1,12c6.3,0.9,12.5,1.8,18.8,2.8c28.9,4.3,58,8.6,87.5,12.9
		c5.5,0.8,11,1.6,16.6,2.4c10.6,1.6,21.3,3.1,32,4.7v-1.7c-5.1-0.8-10.2-1.5-15.3-2.3C821,907.2,815.5,906.4,810,905.6z"/>
	<path class="st1" d="M76.8,792.1c14.6,2.7,29.4,5.5,44.4,8.3c-11.7-2.8-23.2-5.5-34.7-8.2c-8.4-1.6-16.7-3.1-25-4.7
		C66.6,789.1,71.7,790.6,76.8,792.1z"/>
	<path class="st1" d="M0,776.8v1c1.8,0.3,3.6,0.7,5.5,1C3.6,778.1,1.8,777.4,0,776.8z"/>
	<path class="st1" d="M14.9,780.6c15.1,2.8,30.5,5.7,46.2,8.6c-5.1-1.5-10.2-3.1-15.3-4.6c-13.5-2.5-26.8-5-39.8-7.4
		C8.9,778.3,11.9,779.4,14.9,780.6z"/>
	<path class="st1" d="M756.8,917.4c-3.7-0.7-7.5-1.4-11.2-2.1c-26-4.9-51.8-9.7-77.5-14.5c-4-0.7-8-1.5-12-2.2
		c-24.8-4.6-49.4-9.2-73.8-13.8c-4.4-0.8-8.7-1.6-13.1-2.4c-23.2-4.3-46.2-8.6-69-12.9c-5-0.9-9.9-1.9-14.9-2.8
		c-21.1-3.9-41.9-7.8-62.6-11.7c-6-1.1-12-2.2-17.9-3.3c-17.7-3.3-35.3-6.6-52.7-9.8c-8.1-1.5-16.2-3-24.3-4.5
		c-9.9-1.8-19.7-3.7-29.4-5.5c-14.7-2.7-29.2-5.5-43.6-8.1c-46-8.6-90.5-16.9-133.3-24.9c11.4,2.7,23,5.4,34.7,8.2
		c18,3.4,36.3,6.8,54.8,10.2c14.4,2.7,28.9,5.4,43.6,8.1c16.1,3,32.3,6,48.8,9.1c8,1.5,16.1,3,24.3,4.5c19.5,3.6,39.1,7.3,59,11
		c6,1.1,11.9,2.2,17.9,3.3c21.7,4,43.6,8.1,65.7,12.3c4.9,0.9,9.9,1.8,14.9,2.8c23.4,4.4,47,8.8,70.8,13.2c4.4,0.8,8.7,1.6,13.1,2.4
		c24.8,4.6,49.8,9.3,74.9,14c4,0.7,8,1.5,12,2.2c25.9,4.8,52,9.7,78.3,14.6c3.7,0.7,7.5,1.4,11.2,2.1c26.9,5,53.9,10.1,81.1,15.1
		c3.6,0.7,7.1,1.3,10.7,2c1.6,0.3,3.2,0.6,4.7,0.9v-1.7c-1.5-0.3-3-0.6-4.6-0.9C810.4,927.4,783.5,922.3,756.8,917.4z"/>
	<path class="st1" d="M0,770.9v0.9c4.5,1.1,9,2.1,13.6,3.2C9,773.6,4.5,772.3,0,770.9z"/>
	<path class="st1" d="M826.4,965.2c-24.5-5.8-49-11.6-73.5-17.4c-2.6-0.6-5.2-1.2-7.8-1.8c-23.4-5.5-46.9-11.1-70.2-16.6
		c-2.7-0.6-5.4-1.3-8.1-1.9c-22.4-5.3-44.8-10.6-67-15.8c-2.8-0.7-5.6-1.3-8.4-2c-21.8-5.1-43.5-10.3-65.1-15.4
		c-3-0.7-5.9-1.4-8.9-2.1c-21-5-41.9-9.9-62.7-14.8c-3.2-0.7-6.3-1.5-9.5-2.2c-20-4.7-40-9.4-59.7-14.1c-3.5-0.8-6.9-1.6-10.4-2.4
		c-18.8-4.4-37.4-8.8-55.9-13.2c-3.9-0.9-7.9-1.9-11.8-2.8c-17.1-4-34-8-50.8-12c-4.7-1.1-9.5-2.2-14.2-3.4
		c-14.4-3.4-28.7-6.8-42.8-10.1c-6.4-1.5-12.9-3-19.2-4.5c-8.1-1.9-16.2-3.8-24.2-5.7c-11.7-2.8-23.2-5.5-34.7-8.2
		c-37.1-8.8-73-17.2-107.5-25.4c9.1,2.7,18.4,5.5,27.7,8.3c14.7,3.5,29.6,7,44.8,10.6c11.4,2.7,23,5.4,34.7,8.2
		c13.1,3.1,26.3,6.2,39.6,9.4c6.4,1.5,12.8,3,19.2,4.5c15.8,3.7,31.7,7.5,47.8,11.3c4.7,1.1,9.5,2.2,14.2,3.4
		c17.6,4.1,35.3,8.3,53.2,12.6c3.9,0.9,7.8,1.9,11.8,2.8c18.9,4.5,38,9,57.3,13.5c3.4,0.8,6.9,1.6,10.4,2.4
		c20,4.7,40.3,9.5,60.6,14.3c3.2,0.7,6.3,1.5,9.5,2.2c21,5,42.1,9.9,63.3,15c3,0.7,5.9,1.4,8.9,2.1c21.7,5.1,43.6,10.3,65.5,15.5
		c2.8,0.7,5.6,1.3,8.4,2c22.4,5.3,44.8,10.6,67.4,15.9c2.7,0.6,5.4,1.3,8.1,1.9c23.5,5.5,47,11.1,70.6,16.7c2.6,0.6,5.2,1.2,7.8,1.8
		c24.6,5.8,49.2,11.6,73.7,17.4c2.5,0.6,5,1.2,7.5,1.8c5.2,1.2,10.5,2.5,15.7,3.7v-1.7c-2.7-0.6-5.3-1.3-8-1.9
		C831.4,966.4,828.9,965.8,826.4,965.2z"/>
	<path class="st1" d="M783.8,1003.4c-20.4-6.1-40.9-12.2-61.5-18.4c-1.9-0.6-3.9-1.2-5.8-1.7c-20.4-6.1-40.9-12.2-61.4-18.4
		c-2-0.6-3.9-1.2-5.9-1.8c-20.2-6.1-40.5-12.1-60.8-18.2c-2-0.6-4-1.2-6-1.8c-19.8-5.9-39.6-11.8-59.4-17.8c-2-0.6-4.1-1.2-6.1-1.8
		c-19-5.7-37.9-11.3-56.8-17c-2.1-0.6-4.3-1.3-6.4-1.9c-18.1-5.4-36.2-10.8-54.2-16.2c-2.2-0.7-4.5-1.3-6.7-2
		c-17.6-5.3-35.2-10.5-52.6-15.7c-2.3-0.7-4.7-1.4-7-2.1c-17-5.1-33.9-10.1-50.7-15.2c-2.5-0.7-5-1.5-7.5-2.2
		c-16.2-4.8-32.3-9.7-48.3-14.4c-2.7-0.8-5.5-1.6-8.2-2.5c-15.2-4.5-30.3-9.1-45.2-13.5c-3.1-0.9-6.2-1.9-9.3-2.8
		c-13.8-4.1-27.5-8.2-41.1-12.3c-3.8-1.1-7.5-2.2-11.3-3.4c-11.7-3.5-23.2-6.9-34.7-10.4c-5.1-1.5-10.2-3.1-15.3-4.6
		c-6.6-2-13.2-4-19.8-5.9c-9.3-2.8-18.5-5.5-27.7-8.3c-4.7-1.4-9.4-2.8-14-4.2v1.8c4.5,1.3,9,2.7,13.6,4.1
		c10.6,3.2,21.3,6.4,32.2,9.6c5.1,1.5,10.2,3,15.3,4.6c12.8,3.8,25.7,7.7,38.8,11.6c3.7,1.1,7.5,2.2,11.3,3.4
		c14.2,4.2,28.6,8.5,43.1,12.9c3.1,0.9,6.2,1.9,9.3,2.8c15.3,4.6,30.8,9.2,46.4,13.9c2.7,0.8,5.5,1.6,8.2,2.5
		c16.2,4.8,32.6,9.7,49,14.7c2.5,0.7,5,1.5,7.5,2.2c17,5.1,34,10.2,51.2,15.3c2.3,0.7,4.7,1.4,7,2.1c17.6,5.3,35.2,10.5,53,15.8
		c2.2,0.7,4.5,1.3,6.7,2c18.1,5.4,36.2,10.8,54.5,16.3c2.1,0.6,4.3,1.3,6.4,1.9c19,5.7,38,11.4,57.1,17.1c2,0.6,4.1,1.2,6.1,1.8
		c19.8,5.9,39.7,11.9,59.6,17.8c2,0.6,4,1.2,6,1.8c20.3,6.1,40.7,12.1,60.9,18.2c2,0.6,3.9,1.2,5.9,1.7
		c20.6,6.1,41.1,12.3,61.5,18.4c1.9,0.6,3.9,1.2,5.8,1.7c20.6,6.2,41.2,12.3,61.6,18.4c1.9,0.6,3.8,1.1,5.7,1.7
		c19.6,5.8,39,11.7,58.3,17.4v-1.8c-17.3-5.2-34.8-10.4-52.3-15.6C787.6,1004.6,785.7,1004,783.8,1003.4z"/>
	<path class="st1" d="M812,1082c-15.3-5.8-30.9-11.7-46.8-17.7c-1.5-0.6-3-1.1-4.5-1.7c-15.7-5.9-31.6-11.9-47.7-18
		c-1.5-0.6-3-1.1-4.5-1.7c-15.9-6-32.1-12.1-48.4-18.3c-1.5-0.6-3-1.1-4.5-1.7c-16.2-6.1-32.5-12.3-49-18.5c-1.5-0.6-3-1.1-4.5-1.7
		c-16.4-6.2-32.9-12.4-49.5-18.7c-1.5-0.6-3-1.1-4.5-1.7c-16.5-6.2-33.1-12.5-49.7-18.8c-1.5-0.6-3-1.2-4.6-1.7
		c-16.5-6.2-33-12.5-49.6-18.8c-1.5-0.6-3.1-1.2-4.6-1.8c-16.4-6.2-32.7-12.4-49.1-18.6c-1.6-0.6-3.1-1.2-4.7-1.8
		c-16-6.1-32-12.1-48-18.2c-1.6-0.6-3.2-1.2-4.9-1.8c-15.3-5.8-30.6-11.6-45.9-17.4c-1.7-0.6-3.4-1.3-5.1-1.9
		c-14.6-5.5-29.3-11.1-43.8-16.6c-1.8-0.7-3.5-1.3-5.3-2c-14.3-5.4-28.4-10.8-42.6-16.1c-1.8-0.7-3.7-1.4-5.5-2.1
		c-13.8-5.2-27.4-10.4-41-15.5c-2-0.7-4-1.5-5.9-2.2c-13.1-5-26.1-9.9-39.1-14.8c-2.2-0.8-4.3-1.6-6.5-2.5
		c-12.3-4.7-24.5-9.3-36.6-13.8c-2.5-0.9-4.9-1.9-7.4-2.8c-11.2-4.2-22.3-8.4-33.3-12.6c-3-1.1-6-2.3-9-3.4c-2-0.7-4-1.5-5.9-2.2
		v1.8c1.8,0.7,3.6,1.4,5.5,2.1c11.5,4.4,23.1,8.7,34.9,13.2c2.5,0.9,4.9,1.9,7.4,2.8c12.4,4.7,24.9,9.4,37.5,14.2
		c2.2,0.8,4.3,1.6,6.5,2.5c13.1,5,26.3,10,39.7,15c2,0.7,3.9,1.5,5.9,2.2c13.7,5.2,27.5,10.4,41.4,15.7c1.8,0.7,3.7,1.4,5.5,2.1
		c14.2,5.4,28.5,10.8,42.8,16.2c1.8,0.7,3.5,1.3,5.3,2c14.6,5.5,29.3,11.1,44,16.6c1.7,0.6,3.4,1.3,5.1,1.9
		c15.3,5.8,30.7,11.6,46.1,17.4c1.6,0.6,3.2,1.2,4.9,1.8c16,6.1,32.1,12.1,48.1,18.2c1.6,0.6,3.1,1.2,4.7,1.8
		c16.4,6.2,32.8,12.4,49.2,18.6c1.5,0.6,3.1,1.2,4.6,1.8c16.6,6.3,33.2,12.6,49.7,18.8c1.5,0.6,3,1.2,4.6,1.7
		c16.7,6.3,33.3,12.6,49.8,18.8c1.5,0.6,3,1.1,4.5,1.7c16.6,6.3,33.1,12.5,49.5,18.7c1.5,0.6,3,1.1,4.5,1.7
		c16.5,6.2,32.9,12.4,49,18.5c1.5,0.6,3,1.1,4.5,1.7c16.3,6.2,32.4,12.3,48.4,18.3c1.5,0.6,3,1.1,4.5,1.7c16.1,6.1,32,12.1,47.7,18
		c1.5,0.6,3,1.1,4.5,1.7c15.9,6,31.5,11.9,46.8,17.7c1.5,0.6,3,1.1,4.5,1.7c10.2,3.9,20.3,7.7,30.2,11.4v-1.8
		c-8.4-3.2-16.9-6.4-25.5-9.6C814.9,1083.1,813.5,1082.6,812,1082z"/>
	<path class="st1" d="M807.5,1175.6c-1.2-0.6-2.3-1.1-3.5-1.7c-10.2-4.9-21.4-10.2-33.5-16c-1.2-0.6-2.3-1.1-3.5-1.7
		c-10.7-5.1-22.2-10.6-34.2-16.4c-1.2-0.6-2.3-1.1-3.5-1.7c-11.2-5.3-22.8-10.9-35-16.7c-1.2-0.6-2.3-1.1-3.5-1.7
		c-11.5-5.5-23.3-11.2-35.6-17c-1.2-0.6-2.3-1.1-3.5-1.7c-11.8-5.7-24-11.5-36.5-17.5c-1.2-0.6-2.4-1.1-3.5-1.7
		c-12.1-5.8-24.5-11.7-37.1-17.8c-1.2-0.6-2.3-1.1-3.5-1.7c-12.4-5.9-25-12-37.9-18.1c-1.2-0.6-2.4-1.1-3.5-1.7
		c-12.6-6-25.5-12.2-38.5-18.4c-1.2-0.6-2.4-1.1-3.5-1.7c-12.9-6.2-25.9-12.4-39.1-18.7c-1.2-0.6-2.4-1.1-3.5-1.7
		c-13.1-6.3-26.3-12.6-39.6-18.9c-1.2-0.6-2.4-1.1-3.6-1.7c-13.2-6.3-26.6-12.7-40-19.1c-1.2-0.6-2.4-1.1-3.6-1.7
		c-13.3-6.4-26.7-12.8-40.2-19.2c-1.2-0.6-2.4-1.2-3.6-1.7c-13.3-6.4-26.7-12.8-40.1-19.2c-1.2-0.6-2.4-1.2-3.7-1.8
		c-13.2-6.3-26.5-12.7-39.7-19c-1.2-0.6-2.5-1.2-3.7-1.8c-12.9-6.2-25.9-12.4-38.8-18.6c-1.3-0.6-2.6-1.2-3.8-1.8
		c-12.4-5.9-24.7-11.8-37.1-17.7c-1.3-0.6-2.7-1.3-4-1.9c-11.8-5.7-23.6-11.3-35.4-16.9c-1.4-0.7-2.8-1.3-4.2-2
		c-11.5-5.5-23-11-34.4-16.5c-1.5-0.7-2.9-1.4-4.4-2.1c-11.1-5.3-22.2-10.6-33.2-15.9c-1.6-0.7-3.1-1.5-4.7-2.2
		C18,797.9,9,793.5,0,789.2v1.9c7.3,3.5,14.6,7,21.9,10.5c1.6,0.7,3.1,1.5,4.7,2.2c11.1,5.3,22.2,10.6,33.5,16
		c1.5,0.7,2.9,1.4,4.4,2.1c11.5,5.5,23,11,34.6,16.6c1.4,0.7,2.8,1.3,4.2,2c11.8,5.7,23.7,11.3,35.6,17c1.3,0.6,2.7,1.3,4,1.9
		c12.4,5.9,24.8,11.9,37.3,17.8c1.3,0.6,2.6,1.2,3.8,1.8c13,6.2,25.9,12.4,38.9,18.6c1.2,0.6,2.5,1.2,3.7,1.8
		c13.3,6.4,26.5,12.7,39.8,19c1.2,0.6,2.4,1.2,3.7,1.8c13.4,6.4,26.8,12.8,40.2,19.2c1.2,0.6,2.4,1.2,3.6,1.7
		c13.5,6.4,26.9,12.9,40.2,19.2c1.2,0.6,2.4,1.1,3.6,1.7c13.4,6.4,26.8,12.8,40,19.1c1.2,0.6,2.4,1.1,3.6,1.7
		c13.3,6.4,26.5,12.7,39.6,19c1.2,0.6,2.4,1.1,3.5,1.7c13.2,6.3,26.2,12.6,39.1,18.7c1.2,0.6,2.4,1.1,3.5,1.7
		c13,6.2,25.8,12.4,38.5,18.4c1.2,0.6,2.4,1.1,3.5,1.7c12.8,6.1,25.5,12.2,37.9,18.1c1.2,0.6,2.4,1.1,3.5,1.7
		c12.6,6,25,12,37.1,17.8c1.2,0.6,2.4,1.1,3.5,1.7c12.5,6,24.6,11.8,36.5,17.5c1.2,0.6,2.4,1.1,3.5,1.7c12.2,5.9,24.1,11.5,35.6,17
		c1.2,0.6,2.4,1.1,3.5,1.7c12.1,5.8,23.8,11.4,35,16.7c1.2,0.6,2.4,1.1,3.5,1.7c12,5.8,23.5,11.2,34.2,16.4c1.2,0.6,2.4,1.1,3.5,1.7
		c12.1,5.8,23.3,11.1,33.5,16c1.2,0.6,2.4,1.1,3.5,1.7c6,2.9,11.6,5.6,16.9,8.1c4.2,2,8.2,4.3,12,6.9h3c-4.5-3.2-9.3-6-14.3-8.4
		C816.8,1180.1,812.3,1177.9,807.5,1175.6z"/>
</g>
</svg>
