<?xml version="1.0" encoding="utf-8"?>
<!-- Generator: Adobe Illustrator 27.2.0, SVG Export Plug-In . SVG Version: 6.00 Build 0)  -->
<svg version="1.1" id="Livello_1" xmlns="http://www.w3.org/2000/svg" xmlns:xlink="http://www.w3.org/1999/xlink" x="0px" y="0px"
	 viewBox="0 0 841.9 1190.6" style="enable-background:new 0 0 841.9 1190.6;" xml:space="preserve">
<g>
	<path d="M768.9,799.3c24.4-3.6,48.7-7.1,72.9-10.6v-2.2c-26.7,3.9-53.4,7.8-80.1,11.7C764.2,798.5,766.5,798.9,768.9,799.3z"/>
	<path d="M497.5,839c24.5-3.6,49-7.2,73.5-10.8c-1.4-0.5-2.8-1.1-4.3-1.6c-24.1,3.5-48.3,7.1-72.5,10.7
		C495.3,837.9,496.4,838.5,497.5,839z"/>
	<path d="M490.5,837.9C328.3,861.7,164.7,886,0,910.5v2.2c165.8-24.7,330.5-49.1,493.8-73.2C492.7,839,491.6,838.4,490.5,837.9z"/>
	<path d="M665.5,814.4c32.1-4.7,64.2-9.4,96.2-14.1c-2.4-0.4-4.8-0.8-7.2-1.2c-31.5,4.6-63,9.2-94.6,13.8
		C661.8,813.4,663.7,813.9,665.5,814.4z"/>
	<path d="M575.5,827.6c28.2-4.1,56.3-8.3,84.4-12.4c-1.8-0.5-3.7-0.9-5.5-1.4c-27.7,4.1-55.3,8.1-83.1,12.2
		C572.7,826.5,574.1,827,575.5,827.6z"/>
	<path d="M505.8,845.9C338.6,870.4,169.8,895.4,0,920.7v2.2c171-25.5,340.8-50.6,509.1-75.4C508,847,506.9,846.4,505.8,845.9z"/>
	<path d="M512.7,847c26.1-3.8,52.1-7.7,78.1-11.5c-1.4-0.5-2.8-1.1-4.3-1.6c-25.7,3.8-51.4,7.5-77.1,11.3
		C510.6,845.9,511.6,846.5,512.7,847z"/>
	<path d="M595.4,834.9c30.1-4.4,60.2-8.8,90.3-13.2c-1.8-0.5-3.7-0.9-5.5-1.4c-29.6,4.3-59.3,8.7-89,13
		C592.5,833.9,593.9,834.4,595.4,834.9z"/>
	<path d="M802.4,804.6c13.2-1.9,26.3-3.8,39.5-5.7v-2.2c-15.5,2.3-31.1,4.5-46.7,6.8C797.6,803.9,800,804.3,802.4,804.6z"/>
	<path d="M691.3,820.9c34.7-5.1,69.4-10.1,103.9-15.2c-2.4-0.4-4.8-0.8-7.2-1.2c-34,5-68.1,9.9-102.3,14.9
		C687.6,819.9,689.4,820.4,691.3,820.9z"/>
	<path d="M625.4,846c33.1-4.9,66.2-9.7,99.2-14.5c-1.8-0.5-3.7-0.9-5.5-1.4c-32.6,4.8-65.2,9.5-97.9,14.3
		C622.5,845,624,845.5,625.4,846z"/>
	<path d="M528.9,858C354.1,883.6,177.7,909.7,0,936.2v2.2c178.8-26.6,356.3-52.9,532.2-78.7C531.1,859.1,530,858.5,528.9,858z"/>
	<path d="M724.7,829.3c1.8,0.5,3.7,0.9,5.5,1.4c37.3-5.4,74.5-10.9,111.6-16.3v-1.2c-1.1-0.2-2.2-0.3-3.3-0.5
		C800.8,818.2,762.8,823.7,724.7,829.3z"/>
	<path d="M535.8,859.2c28.4-4.2,56.7-8.3,85-12.5c-1.4-0.5-2.8-1.1-4.3-1.6c-28,4.1-56,8.2-84.1,12.3
		C533.7,858,534.8,858.6,535.8,859.2z"/>
	<path d="M767.2,840c24.9-3.6,49.9-7.3,74.7-10.9v-2.2c-26.7,3.9-53.5,7.8-80.3,11.7C763.5,839,765.3,839.5,767.2,840z"/>
	<path d="M557.7,870.6c30.6-4.5,61.1-9,91.6-13.4c-1.4-0.5-2.8-1.1-4.3-1.6c-30.1,4.4-60.4,8.8-90.6,13.3
		C555.5,869.5,556.6,870,557.7,870.6z"/>
	<path d="M653.8,856.5c36-5.3,71.9-10.5,107.7-15.7c-1.8-0.5-3.7-0.9-5.5-1.4c-35.4,5.2-70.9,10.3-106.4,15.5
		C651,855.5,652.4,856,653.8,856.5z"/>
	<path d="M550.7,869.4C368.8,896.1,185.1,923.3,0,950.8v2.2c186.2-27.7,371.1-55.1,554-81.9C552.9,870.6,551.8,870,550.7,869.4z"/>
	<path d="M634.5,806.6c29.6-4.2,59.1-8.3,88.5-12.5c-2.4-0.4-4.9-0.8-7.3-1.2c-28.9,4.1-57.8,8.2-86.8,12.3
		C630.7,805.6,632.6,806.1,634.5,806.6z"/>
	<path d="M470.9,827.6C315.4,849.7,158.3,872.3,0,895.3v2.2c159.4-23.2,317.6-45.9,474.2-68.2C473.1,828.7,472,828.1,470.9,827.6z"
		/>
	<path d="M723,791.9c2.4,0.4,4.9,0.8,7.3,1.2c18.5-2.6,37-5.2,55.4-7.8c14.8-2.1,29.6-4.2,44.5-6.2c-3.2-0.3-6.4-0.6-9.6-0.9
		c-11.8,1.7-23.6,3.3-35.3,4.9C764.7,786,743.9,788.9,723,791.9z"/>
	<path d="M477.9,828.8c22.8-3.2,45.6-6.5,68.3-9.7c-1.4-0.5-2.9-1.1-4.3-1.6c-22.4,3.2-44.8,6.4-67.3,9.6
		C475.7,827.6,476.8,828.2,477.9,828.8z"/>
	<path d="M550.7,818.4c26.1-3.7,52.1-7.4,78-11c-1.9-0.5-3.7-0.9-5.6-1.4c-25.5,3.6-51.1,7.2-76.7,10.9
		C547.9,817.3,549.3,817.9,550.7,818.4z"/>
	<path d="M839.8,777.7c0.7-0.1,1.4-0.2,2.1-0.3v-2.2c-3.9,0.5-7.8,1.1-11.6,1.6C833.4,777.1,836.6,777.4,839.8,777.7z"/>
	<path d="M451.1,817.2C302.5,837.4,151.9,858.2,0,879.6v2.2c153-21.5,304.7-42.5,454.4-62.8C453.3,818.4,452.2,817.8,451.1,817.2z"
		/>
	<path d="M597.8,797.3c1.9,0.5,3.8,1,5.7,1.4c15-2,30.1-4,45.1-6.1c12-1.6,24-3.2,36-4.8c-2.5-0.4-5-0.8-7.5-1.2
		c-9.6,1.3-19.2,2.6-28.8,3.9C631.5,792.8,614.7,795.1,597.8,797.3z"/>
	<path d="M792.6,773.4c16.3-2.2,32.8-4.4,49.2-6.6v-2.2c-19.8,2.7-39.5,5.3-59.1,7.9C786.1,772.8,789.4,773.1,792.6,773.4z"/>
	<path d="M458.2,818.4c21.1-2.9,42.1-5.7,63.2-8.6c-1.5-0.5-2.9-1.1-4.4-1.6c-20.7,2.8-41.4,5.6-62.1,8.4
		C455.9,817.3,457,817.8,458.2,818.4z"/>
	<path d="M525.9,809.2c24-3.2,47.9-6.5,71.8-9.7c-1.9-0.5-3.8-1-5.7-1.4c-23.4,3.2-46.9,6.3-70.4,9.5
		C523,808.2,524.5,808.7,525.9,809.2z"/>
	<path d="M692.1,786.9c30-4,60.3-8.1,90.8-12.2c-3.3-0.3-6.5-0.6-9.8-0.9c-29.7,4-59.2,7.9-88.4,11.9
		C687.1,786.1,689.6,786.5,692.1,786.9z"/>
	<path d="M654.2,780.8c27.1-3.4,54.3-6.9,81.8-10.3c-3.4-0.3-6.8-0.6-10.2-0.9c-26.6,3.4-53.1,6.7-79.3,10
		C649.1,780,651.6,780.4,654.2,780.8z"/>
	<path d="M431.2,806.8c-141.7,18.1-285.7,37-431.2,56.6v2.2c146.7-19.7,291.8-38.8,434.6-57C433.5,808,432.4,807.4,431.2,806.8z"/>
	<path d="M841.9,755.9v-1c-2,0.2-3.9,0.5-5.9,0.7C838,755.7,839.9,755.8,841.9,755.9z"/>
	<path d="M746.1,769.2c29.7-3.8,59.7-7.5,90-11.3c-4.5-0.2-9.1-0.3-13.6-0.5c-29.1,3.7-57.9,7.3-86.5,10.9
		C739.3,768.6,742.7,768.9,746.1,769.2z"/>
	<path d="M572.9,791c24.4-3.1,48.9-6.2,73.6-9.3c-2.6-0.4-5.1-0.8-7.7-1.2c-24.1,3-48,6.1-71.8,9.1C569,790.1,570.9,790.6,572.9,791
		z"/>
	<path d="M496.8,798.5c1.5,0.5,3,1.1,4.4,1.6c12.2-1.5,24.4-3.1,36.6-4.6c9.7-1.2,19.4-2.4,29.1-3.7c-1.9-0.5-3.9-1-5.8-1.5
		c-7.9,1-15.7,2-23.5,3C524,795,510.4,796.7,496.8,798.5z"/>
	<path d="M438.4,808.1c19.4-2.5,38.8-4.9,58.1-7.4c-1.5-0.5-3-1.1-4.4-1.6c-19,2.4-38,4.8-57,7.3
		C436.1,806.9,437.3,807.5,438.4,808.1z"/>
	<path d="M616.8,774.8c24.1-2.8,48.5-5.6,73.1-8.5c-3.6-0.3-7.1-0.6-10.7-1c-23.6,2.7-47.1,5.5-70.3,8.2
		C611.5,773.9,614.2,774.3,616.8,774.8z"/>
	<path d="M794.4,754.2c15.8-1.8,31.6-3.7,47.5-5.5v-2.2c-20.8,2.4-41.5,4.8-62,7.2C784.7,753.8,789.5,754,794.4,754.2z"/>
	<path d="M415.3,796c1.1,0.6,2.3,1.2,3.4,1.8c9.9-1.2,19.8-2.3,29.7-3.5c7.8-0.9,15.6-1.8,23.4-2.7c-1.5-0.6-3-1.1-4.5-1.7
		c-6.4,0.7-12.8,1.5-19.2,2.2C437.3,793.4,426.3,794.7,415.3,796z"/>
	<path d="M700.5,765.1c26.3-3,52.8-6.1,79.5-9.2c-4.8-0.2-9.7-0.3-14.5-0.5c-25.4,3-50.6,5.9-75.6,8.8
		C693.4,764.4,696.9,764.7,700.5,765.1z"/>
	<path d="M411.5,796.4C276.7,812.2,139.2,829,0,846.7v2.2c140.4-17.8,279.1-34.8,414.9-50.6C413.7,797.6,412.6,797,411.5,796.4z"/>
	<path d="M476.7,791c19.7-2.3,39.6-4.6,59.7-6.9c-2-0.5-4-1-6-1.5c-19.5,2.3-39,4.5-58.2,6.8C473.7,789.9,475.2,790.5,476.7,791z"/>
	<path d="M542.5,783.4c21.9-2.5,44.1-5.1,66.4-7.7c-2.7-0.4-5.3-0.9-7.9-1.3c-21.6,2.5-43.1,5-64.4,7.5
		C538.5,782.4,540.5,782.9,542.5,783.4z"/>
	<path d="M580.1,768.9c21.3-2.2,42.8-4.4,64.5-6.7c-3.8-0.3-7.5-0.7-11.3-1c-20.7,2.1-41.2,4.3-61.5,6.4
		C574.6,768,577.4,768.4,580.1,768.9z"/>
	<path d="M512.5,775.9c19.6-2,39.3-4.1,59.3-6.1c-2.8-0.4-5.5-0.9-8.3-1.3c-19.2,2-38.2,4-57.1,5.9
		C508.4,774.8,510.4,775.3,512.5,775.9z"/>
	<path d="M741,752.2c24-2.5,48.3-5,72.8-7.5c-7.6,0.1-15.2,0.1-22.7,0.2c-22.1,2.3-44.1,4.6-65.8,6.8
		C730.4,751.9,735.7,752.1,741,752.2z"/>
	<path d="M395.3,788c-1.2-0.6-2.3-1.2-3.5-1.8c-5.2,0.5-10.4,1.1-15.6,1.6C253.4,800.4,127.5,814.4,0,829.4v2.2
		c127.6-15,253.6-29,376.5-41.7C382.7,789.3,389,788.6,395.3,788z"/>
	<path d="M656,761c22.9-2.4,46-4.7,69.3-7.2c-5.3-0.2-10.5-0.4-15.8-0.6c-21.8,2.3-43.4,4.5-64.8,6.7
		C648.4,760.3,652.2,760.7,656,761z"/>
	<path d="M836.4,742.4c1.8-0.2,3.7-0.4,5.5-0.6v-2.2c-9.4,1-18.9,1.9-28.3,2.9C821.2,742.5,828.8,742.4,836.4,742.4z"/>
	<path d="M452.4,782.1c17.8-1.8,35.7-3.7,53.7-5.6c-2.1-0.5-4.1-1-6.2-1.6c-17.5,1.8-35,3.6-52.2,5.4
		C449.3,780.9,450.9,781.5,452.4,782.1z"/>
	<path d="M399.2,787.6c16-1.6,32-3.3,48.3-5c-1.5-0.6-3.1-1.1-4.6-1.7c-15.8,1.6-31.5,3.3-47.1,4.9
		C396.9,786.3,398.1,786.9,399.2,787.6z"/>
	<path d="M379.9,777.4c14.4-1.3,28.8-2.5,43.4-3.8c-1.6-0.6-3.2-1.2-4.8-1.8c-14.2,1.2-28.3,2.5-42.2,3.7
		C377.5,776.2,378.7,776.8,379.9,777.4z"/>
	<path d="M544.4,763.1c18.6-1.6,37.3-3.3,56.3-4.9c-4.1-0.4-8.2-0.7-12.3-1.1c-17.7,1.5-35.3,3.1-52.8,4.6
		C538.5,762.2,541.4,762.6,544.4,763.1z"/>
	<path d="M777.5,742.8c19-1.7,38.2-3.3,57.5-5c-15.7,0.6-31.3,1.3-46.8,1.9c-12.7,1.1-25.4,2.2-38,3.3
		C759.3,742.9,768.4,742.9,777.5,742.8z"/>
	<path d="M428.5,773.2c15.9-1.4,31.8-2.8,48-4.2c-2.2-0.5-4.3-1.1-6.5-1.6c-15.6,1.4-31,2.7-46.3,4
		C425.3,772,426.9,772.6,428.5,773.2z"/>
	<path d="M483.1,768.4c17.3-1.5,34.7-3,52.3-4.6c-2.9-0.5-5.9-0.9-8.8-1.4c-16.8,1.5-33.5,2.9-50,4.4
		C478.8,767.4,480.9,767.9,483.1,768.4z"/>
	<path d="M613,757.1c19.6-1.7,39.3-3.4,59.2-5.2c-6-0.2-11.9-0.4-17.8-0.6c-18.1,1.6-36,3.1-53.8,4.7
		C604.8,756.4,608.9,756.8,613,757.1z"/>
	<path d="M690,750.4c19.9-1.7,40-3.5,60.3-5.3c-9.1,0.1-18.2,0.1-27.3,0.2c-17.1,1.5-34,3-50.9,4.4C678.1,750,684,750.2,690,750.4z"
		/>
	<path d="M375.9,777.8c-1.2-0.6-2.4-1.3-3.6-1.9c-18.2,1.6-36.2,3.2-54,4.7C214.5,789.7,108,800,0,811.4v2.2
		c108.1-11.5,214.7-21.8,318.6-30.8C337.4,781.1,356.6,779.5,375.9,777.8z"/>
	<path d="M571.9,753.4c16.3-1.1,32.7-2.2,49.2-3.3c-7.2-0.3-14.3-0.5-21.4-0.8c-14,0.9-27.9,1.9-41.8,2.8
		C562.6,752.6,567.3,753,571.9,753.4z"/>
	<path d="M405,764.5c14-0.9,28.1-1.9,42.4-2.8c-2.3-0.6-4.6-1.2-6.9-1.7c-13.6,0.9-27.1,1.8-40.5,2.7
		C401.6,763.3,403.3,763.9,405,764.5z"/>
	<path d="M356.7,767.7c-1.2-0.7-2.5-1.3-3.7-1.9c-27.6,1.8-54.6,3.6-81.1,5.4C183.4,777.1,92.3,784.3,0,792.8v2.2
		c92.4-8.5,183.5-15.8,272.1-21.6C299.7,771.5,327.9,769.6,356.7,767.7z"/>
	<path d="M360.9,767.5c12.8-0.9,25.7-1.7,38.8-2.6c-1.7-0.6-3.4-1.2-5-1.9c-12.6,0.8-25.1,1.7-37.4,2.5
		C358.4,766.2,359.6,766.8,360.9,767.5z"/>
	<path d="M509.8,757.5c15.9-1.1,32-2.1,48.2-3.2c-4.7-0.4-9.3-0.8-13.9-1.3c-14.7,1-29.4,2-43.8,2.9
		C503.4,756.5,506.6,757,509.8,757.5z"/>
	<path d="M454.4,761.2c15.1-1,30.3-2,45.6-3c-3.2-0.5-6.4-1-9.6-1.6c-14.4,1-28.7,1.9-42.9,2.9C449.8,760.1,452.1,760.7,454.4,761.2
		z"/>
	<path d="M841.9,735.3v-2.1c-26.6,1.8-52.8,3.5-78.7,5.2C789.1,737.5,815.3,736.4,841.9,735.3z"/>
	<path d="M763.4,740.7c-22.3,0.9-44.4,1.8-66.3,2.7c9.7-0.1,19.4-0.1,29.1-0.2C738.5,742.3,750.9,741.5,763.4,740.7z"/>
	<path d="M642.5,748.7c15.6-1,31.3-2.1,47.1-3.1c-12.3,0.1-24.6,0.2-36.7,0.3c-10.7,0.7-21.3,1.4-31.8,2.1
		C628.2,748.2,635.3,748.5,642.5,748.7z"/>
	<path d="M337.8,757.8c-1.3-0.7-2.6-1.4-3.9-2c-34,1.4-67,2.7-99.2,4c-76.3,3.1-155,7.6-234.8,13.6v2.2
		c79.8-6,158.5-10.5,234.9-13.6C268.2,760.6,302.5,759.3,337.8,757.8z"/>
	<path d="M631.8,746c-18.6,0.1-36.9,0.3-55.1,0.4c8,0.3,16.1,0.6,24.2,0.9C611.1,746.8,621.4,746.4,631.8,746z"/>
	<path d="M533.6,749.9c12.8-0.5,25.6-1,38.6-1.6c-9.6-0.3-19.2-0.7-28.7-1c-8.9,0.4-17.8,0.7-26.6,1.1
		C522.4,748.9,528,749.4,533.6,749.9z"/>
	<path d="M476.8,752.2c13.2-0.5,26.6-1.1,40-1.6c-5.6-0.5-11.2-1-16.7-1.5c-11.5,0.5-22.9,0.9-34.2,1.4
		C469.5,751.1,473.1,751.6,476.8,752.2z"/>
	<path d="M382.1,756c12.2-0.5,24.5-1,36.9-1.5c-2.5-0.6-5-1.3-7.5-1.9c-11.7,0.5-23.3,0.9-34.8,1.4
		C378.5,754.7,380.3,755.4,382.1,756z"/>
	<path d="M426.7,754.2c12.9-0.5,25.9-1,39.1-1.6c-3.6-0.6-7.2-1.2-10.9-1.7c-12,0.5-23.9,1-35.7,1.4
		C421.7,753,424.2,753.6,426.7,754.2z"/>
	<path d="M342.2,757.7c11.3-0.5,22.7-0.9,34.2-1.4c-1.8-0.7-3.6-1.3-5.3-2c-11,0.4-21.9,0.9-32.7,1.3
		C339.6,756.3,340.9,757,342.2,757.7z"/>
	<path d="M763.2,738.5c-44.8,1.8-88.6,3.6-131.5,5.3c21.5-0.1,43.3-0.3,65.4-0.4c21.9-0.9,44-1.8,66.3-2.7c8.2-0.3,16.5-0.7,24.8-1
		c15.5-0.6,31.1-1.3,46.8-1.9c2.3-0.1,4.6-0.2,6.9-0.3v-2.2C815.3,736.4,789.1,737.5,763.2,738.5z"/>
	<path d="M324,748.1c9.8-0.1,19.8-0.1,29.8-0.2c-1.9-0.7-3.9-1.4-5.8-2.1c-9.4,0.1-18.8,0.1-28.1,0.2
		C321.2,746.7,322.6,747.4,324,748.1z"/>
	<path d="M319.3,748.1c-1.4-0.7-2.7-1.4-4.1-2.2c-38.1,0.3-74.8,0.5-110,0.8c-66.6,0.5-135.3,2.6-205.2,6.4v2.2
		c69.8-3.8,138.6-5.9,205.2-6.4C241.6,748.7,279.7,748.4,319.3,748.1z"/>
	<path d="M525.5,746.7c-15.4-0.6-30.6-1.1-45.6-1.6c6.6,0.6,13.3,1.2,20,1.8C508.4,746.8,516.9,746.8,525.5,746.7z"/>
	<path d="M445.9,747.3c10.4-0.1,20.9-0.1,31.5-0.2c-7.5-0.7-15-1.4-22.4-2c-7.4,0.1-14.8,0.1-22.1,0.2
		C437.2,745.9,441.5,746.6,445.9,747.3z"/>
	<path d="M400.2,747.6c10.7-0.1,21.6-0.1,32.5-0.2c-4.4-0.7-8.7-1.4-13-2.1c-9.4,0.1-18.7,0.1-27.9,0.2
		C394.6,746.2,397.4,746.9,400.2,747.6z"/>
	<path d="M359.9,747.9c10.4-0.1,21-0.1,31.6-0.2c-2.8-0.7-5.6-1.4-8.4-2.1c-9.7,0.1-19.4,0.1-28.9,0.2
		C356,746.4,358,747.1,359.9,747.9z"/>
	<path d="M813.6,742.5c-12.1,0.1-24.1,0.2-36.1,0.2c-9.1,0.1-18.2,0.1-27.3,0.2c-8,0.1-16.1,0.1-24,0.2c-9.8,0.1-19.5,0.1-29.1,0.2
		c-22.1,0.2-43.9,0.3-65.4,0.4c-36.2,0.2-71.6,0.5-106.2,0.7c16.8,0.6,33.9,1.2,51.1,1.8c18.1-0.1,36.5-0.3,55.1-0.4
		c7,0,14.1-0.1,21.1-0.1c12.2-0.1,24.4-0.2,36.7-0.3c11.1-0.1,22.2-0.2,33.4-0.2c9-0.1,18.2-0.1,27.3-0.2c13.5-0.1,27-0.2,40.7-0.3
		c7.5-0.1,15.1-0.1,22.7-0.2c9.3-0.1,18.7-0.1,28.2-0.2v-2.2c-1.8,0-3.7,0-5.5,0C828.8,742.4,821.2,742.5,813.6,742.5z"/>
	<path d="M306.3,738.9c8.4,0.3,16.9,0.6,25.4,0.9c-2.2-0.8-4.4-1.6-6.5-2.4c-7.9-0.3-15.6-0.6-23.4-0.8
		C303.3,737.3,304.8,738.1,306.3,738.9z"/>
	<path d="M181.6,734.4c37.8,1.4,77.7,2.8,119.7,4.3c-1.5-0.8-3-1.6-4.5-2.3c-40.3-1.4-78.7-2.8-115.1-4.1
		C122.9,730.1,61.9,730,0,731.8v2.2c29.1-0.9,58-1.3,86.6-1.3C118.7,732.7,150.5,733.3,181.6,734.4z"/>
	<path d="M375.4,741.3c8.5,0.3,17,0.6,25.6,0.9c-5.9-0.9-11.7-1.9-17.5-2.8c-6.1-0.2-12.2-0.4-18.2-0.7
		C368.7,739.6,372,740.5,375.4,741.3z"/>
	<path d="M439.8,743.6c-12.7-1.1-25.2-2.3-37.5-3.4c5.4,0.9,10.9,1.8,16.4,2.6C425.7,743.1,432.7,743.4,439.8,743.6z"/>
	<path d="M794.4,754.2c-4.8-0.2-9.7-0.3-14.5-0.5c-13.1-0.5-26-0.9-38.9-1.4c-5.3-0.2-10.5-0.4-15.8-0.6
		c-11.8-0.4-23.6-0.8-35.2-1.3c-6-0.2-11.9-0.4-17.8-0.6c-10-0.4-19.9-0.7-29.7-1.1c-7.2-0.3-14.3-0.5-21.4-0.8
		c-6.8-0.2-13.5-0.5-20.2-0.7c-8.1-0.3-16.2-0.6-24.2-0.9c-17.3-0.6-34.3-1.2-51.1-1.8c-29.2-1-57.7-2.1-85.6-3.1
		c13.2,1.2,26.5,2.4,39.9,3.6c15,0.5,30.2,1.1,45.6,1.6c6,0.2,11.9,0.4,17.9,0.6c9.5,0.3,19.1,0.7,28.7,1c9.1,0.3,18.3,0.7,27.6,1
		c7.1,0.3,14.2,0.5,21.4,0.8c11,0.4,22.1,0.8,33.3,1.2c5.9,0.2,11.8,0.4,17.8,0.6c12.3,0.4,24.8,0.9,37.3,1.3
		c5.2,0.2,10.5,0.4,15.8,0.6c13.3,0.5,26.7,1,40.2,1.4c4.8,0.2,9.6,0.3,14.5,0.5c14.1,0.5,28.2,1,42.5,1.5c4.5,0.2,9.1,0.3,13.6,0.5
		c1.9,0.1,3.9,0.1,5.8,0.2v-2.2c-2-0.1-3.9-0.1-5.9-0.2C822,755.2,808.1,754.7,794.4,754.2z"/>
	<path d="M338.7,740c8.7,0.3,17.4,0.6,26.3,0.9c-3.4-0.9-6.8-1.7-10.1-2.5c-7.6-0.3-15.2-0.5-22.7-0.8
		C334.3,738.4,336.5,739.2,338.7,740z"/>
	<path d="M289.5,730c7,0.6,14,1.3,21.1,1.9c-2.6-1-5.2-1.9-7.9-2.9c-6.2-0.6-12.2-1.1-18.3-1.7C286.1,728.3,287.8,729.1,289.5,730z"
		/>
	<path d="M318.9,732.7c6.8,0.6,13.7,1.2,20.7,1.9c-4.6-1.1-9.1-2.3-13.6-3.4c-5-0.5-10-0.9-14.9-1.4
		C313.7,730.7,316.3,731.7,318.9,732.7z"/>
	<path d="M163,718.6c37.7,3.4,78.1,7.1,120.8,10.9c-1.7-0.9-3.4-1.8-5.1-2.7c-40.8-3.7-79.3-7.2-115.5-10.5
		c-52.7-4.8-107.6-7.1-163.2-7v2.2c1.4,0,2.8,0,4.2,0C58.3,711.6,111.7,713.9,163,718.6z"/>
	<path d="M370.8,737.4c-10.3-1.7-20.6-3.3-30.7-4.9c4.4,1.1,8.9,2.2,13.4,3.4C359.3,736.3,365,736.9,370.8,737.4z"/>
	<path d="M830.2,776.8c-12.6-1.1-25.2-2.3-37.6-3.4c-3.3-0.3-6.6-0.6-9.8-0.9c-12.3-1.1-24.6-2.2-36.7-3.3
		c-3.4-0.3-6.8-0.6-10.2-0.9c-11.9-1.1-23.7-2.1-35.5-3.2c-3.6-0.3-7.1-0.6-10.7-1c-11.4-1-22.7-2.1-33.9-3.1
		c-3.8-0.3-7.5-0.7-11.3-1c-10.6-1-21.2-1.9-31.7-2.9c-4.1-0.4-8.2-0.7-12.3-1.1c-9.6-0.9-19.2-1.7-28.7-2.6
		c-4.7-0.4-9.3-0.8-13.9-1.3c-8.2-0.7-16.3-1.5-24.4-2.2c-5.6-0.5-11.2-1-16.7-1.5c-5.7-0.5-11.4-1-17-1.5c-6.7-0.6-13.4-1.2-20-1.8
		c-13.5-1.2-26.8-2.4-39.9-3.6c-23.5-2.1-46.4-4.2-68.9-6.2c10.3,1.7,20.7,3.3,31.2,5c12.4,1.1,24.9,2.3,37.5,3.4
		c5,0.5,10.1,0.9,15.2,1.4c7.4,0.7,14.9,1.3,22.4,2c7.5,0.7,15.1,1.4,22.7,2.1c5.5,0.5,11.1,1,16.7,1.5c9,0.8,18.1,1.6,27.2,2.5
		c4.6,0.4,9.3,0.8,13.9,1.3c10,0.9,20.2,1.8,30.3,2.7c4.1,0.4,8.2,0.7,12.3,1.1c10.8,1,21.7,2,32.7,3c3.8,0.3,7.5,0.7,11.3,1
		c11.4,1,22.9,2.1,34.6,3.1c3.5,0.3,7.1,0.6,10.7,1c11.9,1.1,23.9,2.2,36,3.3c3.4,0.3,6.8,0.6,10.2,0.9c12.3,1.1,24.6,2.2,37.1,3.4
		c3.3,0.3,6.5,0.6,9.8,0.9c12.5,1.1,25.2,2.3,37.9,3.4c3.2,0.3,6.4,0.6,9.6,0.9c3.9,0.3,7.7,0.7,11.6,1v-2.2
		c-0.7-0.1-1.4-0.1-2.1-0.2C836.6,777.4,833.4,777.1,830.2,776.8z"/>
	<path d="M273.7,721.8c5.5,0.9,11,1.8,16.5,2.7c-3.6-1.3-7.1-2.6-10.6-3.9c-4-0.7-8.1-1.3-12-1.9
		C269.6,719.6,271.7,720.7,273.7,721.8z"/>
	<path d="M148.4,701.6c36.5,5.9,76.1,12.2,118.5,19.1c-2-1.1-4.1-2.1-6.1-3.2c-40-6.4-77.4-12.5-112-18
		c-45.4-7.3-92.9-11.8-141.1-13.5c-2.6-0.1-5.1-0.2-7.7-0.2v2.2c2.5,0.1,5.1,0.1,7.6,0.2C55.7,689.8,103.1,694.3,148.4,701.6z"/>
	<path d="M301.4,726.2c4.6,0.7,9.3,1.5,14,2.2c-8.2-2.1-16.3-4.1-24.4-6.1c-0.1,0-0.1,0-0.2,0C294.3,723.6,297.9,724.9,301.4,726.2z
		"/>
	<path d="M795.2,803.5c-8.8-1.4-17.6-2.8-26.3-4.2c-2.4-0.4-4.8-0.8-7.2-1.2c-10.5-1.7-21-3.4-31.4-5.1c-2.4-0.4-4.9-0.8-7.3-1.2
		c-10.4-1.7-20.7-3.3-30.9-5c-2.5-0.4-5-0.8-7.5-1.2c-10.2-1.6-20.3-3.3-30.4-4.9c-2.6-0.4-5.1-0.8-7.7-1.2
		c-10-1.6-19.9-3.2-29.7-4.8c-2.7-0.4-5.3-0.9-7.9-1.3c-9.7-1.6-19.2-3.1-28.7-4.6c-2.8-0.4-5.5-0.9-8.3-1.3
		c-9.2-1.5-18.4-3-27.5-4.4c-3-0.5-5.9-0.9-8.8-1.4c-8.6-1.4-17.2-2.8-25.7-4.1c-3.2-0.5-6.4-1-9.6-1.6c-7.9-1.3-15.7-2.5-23.4-3.8
		c-3.6-0.6-7.3-1.2-10.9-1.7c-6.7-1.1-13.4-2.2-20-3.2c-4.4-0.7-8.7-1.4-13-2.1c-4.7-0.8-9.5-1.5-14.2-2.3c-5.5-0.9-11-1.8-16.4-2.6
		c-10.5-1.7-20.9-3.4-31.2-5c-18.9-3-37.3-6-55.3-8.9c8,2,16.1,4.1,24.4,6.1c10.1,1.6,20.3,3.3,30.7,4.9c4.2,0.7,8.5,1.4,12.7,2
		c5.8,0.9,11.6,1.9,17.5,2.8c6.2,1,12.4,2,18.7,3c4.3,0.7,8.7,1.4,13,2.1c7.3,1.2,14.8,2.4,22.2,3.6c3.6,0.6,7.2,1.2,10.9,1.7
		c8.2,1.3,16.4,2.6,24.7,4c3.2,0.5,6.4,1,9.6,1.6c8.8,1.4,17.6,2.8,26.5,4.3c2.9,0.5,5.9,0.9,8.8,1.4c9.3,1.5,18.6,3,28,4.5
		c2.8,0.4,5.5,0.9,8.3,1.3c9.6,1.6,19.3,3.1,29.1,4.7c2.6,0.4,5.3,0.9,7.9,1.3c9.9,1.6,19.9,3.2,30,4.8c2.6,0.4,5.1,0.8,7.7,1.2
		c10.1,1.6,20.3,3.3,30.6,4.9c2.5,0.4,5,0.8,7.5,1.2c10.3,1.7,20.7,3.3,31.1,5c2.4,0.4,4.9,0.8,7.3,1.2c10.5,1.7,21,3.4,31.5,5.1
		c2.4,0.4,4.8,0.8,7.2,1.2c8.7,1.4,17.5,2.8,26.3,4.2c2.4,0.4,4.8,0.8,7.2,1.2c14.4,2.3,28.8,4.6,43.4,7c1.1,0.2,2.2,0.3,3.3,0.5
		V811c-13.2-2.1-26.4-4.2-39.5-6.4C800,804.3,797.6,803.9,795.2,803.5z"/>
	<path d="M137.1,683.6c34.8,8.8,72.8,18.3,113.6,28.6c-2.8-1.5-5.5-2.9-8.3-4.3c-37.5-9.4-72.5-18.3-104.8-26.4
		c-36.4-9.2-74.6-15.6-113.4-19c-8.1-0.7-16.2-1.3-24.3-1.7v2.2c8.1,0.4,16.1,1,24.1,1.7C62.8,668.1,100.8,674.4,137.1,683.6z"/>
	<path d="M259.8,714.5c3.7,0.9,7.4,1.9,11.1,2.8c-6.4-2.4-12.8-4.7-19.1-7.1c-0.1,0-0.2,0-0.3-0.1C254.3,711.6,257,713,259.8,714.5z
		"/>
	<path d="M761.6,838.6c-10.5-2.6-21-5.3-31.3-7.9c-1.8-0.5-3.7-0.9-5.5-1.4c-11.2-2.8-22.4-5.6-33.4-8.4c-1.8-0.5-3.7-0.9-5.5-1.4
		c-6.8-1.7-13.5-3.4-20.2-5.1c-1.8-0.5-3.7-0.9-5.5-1.4c-8.6-2.2-17.1-4.3-25.5-6.4c-1.9-0.5-3.7-0.9-5.6-1.4
		c-8.5-2.1-16.9-4.3-25.3-6.4c-1.9-0.5-3.8-1-5.7-1.4c-8.4-2.1-16.7-4.2-25-6.3c-1.9-0.5-3.9-1-5.8-1.5c-8.2-2.1-16.4-4.1-24.5-6.2
		c-2-0.5-4-1-6-1.5c-8.1-2-16-4-24-6c-2.1-0.5-4.1-1-6.2-1.6c-7.8-2-15.5-3.9-23.2-5.9c-2.2-0.5-4.3-1.1-6.5-1.6
		c-7.5-1.9-14.9-3.7-22.2-5.6c-2.3-0.6-4.6-1.2-6.9-1.7c-7-1.8-13.9-3.5-20.8-5.2c-2.5-0.6-5-1.3-7.5-1.9c-6.4-1.6-12.7-3.2-19-4.8
		c-2.8-0.7-5.6-1.4-8.4-2.1c-5.5-1.4-10.9-2.8-16.3-4.1c-3.4-0.9-6.8-1.7-10.1-2.5c-3.9-1-7.8-2-11.7-3c-4.5-1.1-8.9-2.3-13.4-3.4
		c-8.2-2.1-16.3-4.1-24.4-6.1c-15.1-3.8-29.8-7.5-44.3-11.1c6.3,2.3,12.7,4.7,19.1,7.1c0.1,0,0.3,0.1,0.4,0.1c8,2,16.1,4.1,24.4,6.1
		c3.5,0.9,7,1.8,10.6,2.7c4.5,1.1,9,2.3,13.6,3.4c5.1,1.3,10.2,2.6,15.3,3.8c3.4,0.8,6.7,1.7,10.1,2.5c6,1.5,12,3,18.1,4.5
		c2.8,0.7,5.6,1.4,8.4,2.1c6.6,1.7,13.3,3.3,20,5c2.5,0.6,5,1.3,7.5,1.9c7.1,1.8,14.3,3.6,21.5,5.4c2.3,0.6,4.6,1.2,6.9,1.7
		c7.5,1.9,15,3.8,22.6,5.7c2.1,0.5,4.3,1.1,6.5,1.6c7.8,2,15.6,3.9,23.5,5.9c2.1,0.5,4.1,1,6.2,1.6c8,2,16.1,4.1,24.2,6.1
		c2,0.5,4,1,6,1.5c8.2,2.1,16.4,4.1,24.7,6.2c1.9,0.5,3.9,1,5.8,1.5c8.3,2.1,16.7,4.2,25.1,6.3c1.9,0.5,3.8,1,5.7,1.4
		c8.4,2.1,16.9,4.3,25.4,6.4c1.9,0.5,3.7,0.9,5.6,1.4c8.5,2.1,17,4.3,25.6,6.4c1.8,0.5,3.7,0.9,5.5,1.4c6.7,1.7,13.5,3.4,20.2,5.1
		c1.8,0.5,3.7,0.9,5.5,1.4c11.1,2.8,22.2,5.6,33.4,8.4c1.8,0.5,3.7,0.9,5.5,1.4c10.4,2.6,20.8,5.2,31.3,7.9c1.8,0.5,3.7,0.9,5.5,1.4
		c26.4,6.7,53.3,13.4,80.4,20.2v-2.3c-25.2-6.3-50.1-12.6-74.7-18.8C765.3,839.5,763.5,839,761.6,838.6z"/>
	<path d="M128.5,664.6c32.3,11.9,68.1,25.2,106.9,39.5c-5.1-2.7-10.1-5.3-15.1-7.9c-32.7-12.1-63.2-23.4-91-33.7
		c-29.1-10.8-59.7-18.7-90.9-23.6c-12.7-2-25.5-3.5-38.3-4.5v2.2c12.7,1,25.4,2.5,38,4.4C69.1,646,99.5,653.9,128.5,664.6z"/>
	<path d="M649.5,854.9c-8.1-3-16.1-6-24.1-8.9c-1.4-0.5-2.8-1.1-4.3-1.6c-8.6-3.2-17.2-6.4-25.8-9.5c-1.4-0.5-2.8-1.1-4.3-1.6
		c-5.2-1.9-10.4-3.8-15.6-5.8c-1.4-0.5-2.8-1.1-4.3-1.6c-6.9-2.5-13.7-5.1-20.5-7.6c-1.4-0.5-2.9-1.1-4.3-1.6
		c-6.9-2.5-13.7-5.1-20.5-7.6c-1.5-0.5-2.9-1.1-4.4-1.6c-6.8-2.5-13.6-5-20.4-7.5c-1.5-0.5-3-1.1-4.4-1.6c-6.7-2.5-13.4-5-20.1-7.4
		c-1.5-0.6-3-1.1-4.5-1.7c-6.6-2.4-13.2-4.9-19.7-7.3c-1.5-0.6-3.1-1.1-4.6-1.7c-6.5-2.4-12.9-4.8-19.3-7.1
		c-1.6-0.6-3.2-1.2-4.8-1.8c-6.3-2.3-12.5-4.6-18.7-6.9c-1.7-0.6-3.4-1.2-5-1.9c-6-2.2-12-4.4-17.9-6.6c-1.8-0.7-3.6-1.3-5.3-2
		c-5.7-2.1-11.3-4.2-16.8-6.2c-1.9-0.7-3.9-1.4-5.8-2.1c-5.2-1.9-10.3-3.8-15.4-5.7c-2.2-0.8-4.4-1.6-6.5-2.4
		c-4.5-1.6-8.9-3.3-13.3-4.9c-2.6-1-5.2-1.9-7.9-2.9c-3.2-1.2-6.4-2.4-9.6-3.6c-3.6-1.3-7.1-2.6-10.6-3.9c-0.1,0-0.1,0-0.2-0.1
		c-6.4-2.4-12.8-4.7-19.1-7.1c-12-4.4-23.8-8.8-35.3-13.1c5,2.6,10,5.2,15.1,7.9c0.2,0.1,0.3,0.1,0.5,0.2c6.3,2.3,12.7,4.7,19.1,7.1
		c2.9,1.1,5.8,2.2,8.8,3.2c3.5,1.3,7,2.6,10.6,3.9c4.1,1.5,8.3,3.1,12.4,4.6c2.6,1,5.2,1.9,7.9,2.9c4.8,1.8,9.7,3.6,14.6,5.4
		c2.2,0.8,4.4,1.6,6.5,2.4c5.4,2,10.7,4,16.2,6c1.9,0.7,3.9,1.4,5.8,2.1c5.7,2.1,11.5,4.3,17.3,6.4c1.8,0.7,3.5,1.3,5.3,2
		c6,2.2,12.1,4.5,18.2,6.7c1.7,0.6,3.3,1.2,5,1.9c6.3,2.3,12.6,4.7,18.9,7c1.6,0.6,3.2,1.2,4.8,1.8c6.4,2.4,12.9,4.8,19.5,7.2
		c1.5,0.6,3.1,1.1,4.6,1.7c6.6,2.4,13.2,4.9,19.9,7.3c1.5,0.6,3,1.1,4.5,1.7c6.7,2.5,13.4,5,20.2,7.5c1.5,0.5,3,1.1,4.4,1.6
		c6.8,2.5,13.6,5,20.4,7.6c1.5,0.5,2.9,1.1,4.4,1.6c6.8,2.5,13.7,5.1,20.6,7.6c1.4,0.5,2.9,1.1,4.3,1.6c6.8,2.5,13.7,5.1,20.6,7.6
		c1.4,0.5,2.8,1.1,4.3,1.6c5.2,1.9,10.4,3.8,15.6,5.8c1.4,0.5,2.8,1.1,4.3,1.6c8.5,3.2,17.1,6.3,25.8,9.5c1.4,0.5,2.8,1.1,4.3,1.6
		c8,3,16,5.9,24.1,8.9c1.4,0.5,2.8,1.1,4.3,1.6c62.1,22.9,126.5,46.8,192.6,71.2v-2.3c-64.5-23.9-127.4-47.1-188.1-69.6
		C652.4,856,651,855.5,649.5,854.9z"/>
	<path d="M554.4,868.9c-6.2-3.3-12.4-6.5-18.6-9.7c-1.1-0.6-2.2-1.1-3.3-1.7c-6.6-3.5-13.3-6.9-19.8-10.4c-1.1-0.6-2.2-1.1-3.3-1.7
		c-4-2.1-8-4.2-12-6.3c-1.1-0.6-2.2-1.1-3.3-1.7c-5.5-2.9-10.9-5.7-16.3-8.6c-1.1-0.6-2.2-1.2-3.3-1.7c-5.5-2.9-11-5.7-16.4-8.6
		c-1.1-0.6-2.2-1.2-3.3-1.7c-5.5-2.9-11-5.8-16.4-8.6c-1.1-0.6-2.3-1.2-3.4-1.8c-5.5-2.9-10.9-5.7-16.3-8.5
		c-1.1-0.6-2.3-1.2-3.4-1.8c-5.4-2.8-10.7-5.6-16.1-8.4c-1.2-0.6-2.3-1.2-3.5-1.8c-5.3-2.8-10.6-5.5-15.8-8.3
		c-1.2-0.6-2.4-1.3-3.6-1.9c-5.2-2.7-10.3-5.4-15.5-8.1c-1.2-0.6-2.5-1.3-3.7-1.9c-5-2.6-10-5.3-15-7.9c-1.3-0.7-2.6-1.4-3.9-2
		c-4.8-2.5-9.6-5-14.4-7.5c-1.4-0.7-2.7-1.4-4.1-2.2c-4.5-2.4-9-4.7-13.5-7.1c-1.5-0.8-3-1.6-4.5-2.3c-4.2-2.2-8.3-4.3-12.4-6.5
		c-1.7-0.9-3.4-1.8-5.1-2.7c-3.6-1.9-7.2-3.8-10.7-5.6c-2-1.1-4.1-2.1-6.1-3.2c-2.6-1.4-5.2-2.7-7.8-4.1c-2.8-1.5-5.5-2.9-8.3-4.3
		c-0.1,0-0.1-0.1-0.2-0.1c-5.1-2.7-10.1-5.3-15.1-7.9c-42.1-22-80-41.9-113.2-59.3v0c-23.2-12.2-47.6-21.5-72.7-27.6
		c-16.5-4.1-33.4-6.8-50.3-8.2v2.2c16.8,1.4,33.4,4.1,49.8,8.1c24.9,6.1,49.2,15.4,72.2,27.5h0c29.2,15.3,62.1,32.5,98.2,51.5
		c5,2.6,10,5.2,15.1,7.9c2.4,1.2,4.7,2.5,7.1,3.7c2.7,1.4,5.5,2.9,8.3,4.3c3.3,1.7,6.7,3.5,10.1,5.3c2,1.1,4.1,2.1,6.1,3.2
		c3.9,2,7.8,4.1,11.8,6.2c1.7,0.9,3.4,1.8,5.1,2.7c4.3,2.3,8.6,4.5,13,6.8c1.5,0.8,3,1.6,4.5,2.3c4.6,2.4,9.2,4.8,13.9,7.3
		c1.4,0.7,2.7,1.4,4.1,2.2c4.8,2.5,9.7,5.1,14.6,7.7c1.3,0.7,2.6,1.4,3.9,2c5,2.6,10.1,5.3,15.2,8c1.2,0.6,2.5,1.3,3.7,1.9
		c5.2,2.7,10.4,5.4,15.6,8.2c1.2,0.6,2.4,1.3,3.6,1.9c5.3,2.8,10.6,5.5,15.9,8.3c1.2,0.6,2.3,1.2,3.5,1.8c5.3,2.8,10.7,5.6,16.1,8.5
		c1.1,0.6,2.3,1.2,3.4,1.8c5.4,2.8,10.9,5.7,16.3,8.6c1.1,0.6,2.3,1.2,3.4,1.8c5.5,2.9,10.9,5.7,16.5,8.6c1.1,0.6,2.2,1.2,3.3,1.7
		c5.5,2.9,10.9,5.7,16.4,8.6c1.1,0.6,2.2,1.2,3.3,1.7c5.4,2.8,10.9,5.7,16.4,8.6c1.1,0.6,2.2,1.1,3.3,1.7c4,2.1,8,4.2,12,6.3
		c1.1,0.6,2.2,1.1,3.3,1.7c6.6,3.4,13.2,6.9,19.8,10.4c1.1,0.6,2.2,1.1,3.3,1.7c6.2,3.2,12.3,6.5,18.6,9.7c1.1,0.6,2.2,1.1,3.3,1.7
		c90.6,47.5,187.6,98.3,287.9,150.9v-2.5c-98.9-51.9-194.7-102-284.2-148.9C556.6,870,555.5,869.5,554.4,868.9z"/>
</g>
</svg>
