<?xml version="1.0" encoding="utf-8"?>
<!-- Generator: Adobe Illustrator 27.2.0, SVG Export Plug-In . SVG Version: 6.00 Build 0)  -->
<svg version="1.1" id="Livello_1" xmlns="http://www.w3.org/2000/svg" xmlns:xlink="http://www.w3.org/1999/xlink" x="0px" y="0px"
	 viewBox="0 0 841.9 1190.6" style="enable-background:new 0 0 841.9 1190.6;" xml:space="preserve">
<g>
	<path d="M0,1179.6c280.5,0,561.2-0.1,841.9-0.1v-1.7c-280.7,0-561.4,0.1-841.9,0.1V1179.6z"/>
	<path d="M0,1162.3c280.5-0.1,561.2-0.1,841.9-0.1v-1.8c-280.7,0-561.4,0.1-841.9,0.1V1162.3z"/>
	<path d="M0,1144.8c280.5-0.1,561.2-0.1,841.9-0.2v-1.7c-280.7,0-561.4,0.1-841.9,0.2V1144.8z"/>
	<path d="M0,1126.8c280.5-0.1,561.2-0.2,841.9-0.2v-1.7c-280.7,0-561.4,0.1-841.9,0.2V1126.8z"/>
	<path d="M0,1108.5c280.4-0.2,561.2-0.3,841.9-0.3v-1.8c-280.7,0-561.5,0.1-841.9,0.3V1108.5z"/>
	<path d="M0,1088.1v1.7c277.6-0.2,555.7-0.4,833.5-0.4c2.8,0,5.6,0,8.3,0v-1.7c-2.8,0-5.6,0-8.3,0
		C555.7,1087.8,277.6,1087.9,0,1088.1z"/>
	<path d="M0,1069.1v1.7c250.6-0.3,501.7-0.4,752.7-0.4c29.7,0,59.5,0,89.2,0v-1.7c-29.7,0-59.5,0-89.2,0
		C501.7,1068.6,250.6,1068.8,0,1069.1z"/>
	<path d="M0,1049.7v1.8c228.7-0.4,458.2-0.6,687.4-0.6c51.5,0,103,0,154.4,0v-1.8c-51.5,0-103,0-154.4,0
		C458.2,1049.1,228.7,1049.3,0,1049.7z"/>
	<path d="M0,1030v1.7c211-0.5,423.1-0.8,634.8-0.8c69,0,138,0,207.1,0.1v-1.7c-69-0.1-138-0.1-207.1-0.1
		C423.1,1029.2,211,1029.5,0,1030z"/>
	<path d="M0,1010v1.7c196.7-0.7,394.7-1.1,592.4-1.1c83.1,0,166.3,0.1,249.5,0.2v-1.7c-83.1-0.1-166.3-0.2-249.5-0.2
		C394.7,1008.9,196.7,1009.3,0,1010z"/>
	<path d="M0,989.7v1.7c185-1,371.8-1.5,558.2-1.5c94.6,0,189.2,0.1,283.7,0.4v-1.7c-94.5-0.3-189.1-0.4-283.7-0.4
		C371.8,988.2,185,988.7,0,989.7z"/>
	<path d="M0,969.1v1.7c175.4-1.4,353.2-2.1,530.6-2.1c103.8,0,207.8,0.2,311.3,0.7v-1.7c-103.5-0.5-207.5-0.7-311.3-0.7
		C353.2,967,175.4,967.7,0,969.1z"/>
	<path d="M0,948.5v1.8c167.4-2,338.1-3,508.4-3c111.4,0,222.9,0.4,333.5,1.3v-1.7c-110.7-0.9-222.2-1.3-333.5-1.3
		C338.1,945.4,167.4,946.4,0,948.5z"/>
	<path d="M0,927.8v1.8c160.5-2.9,325.7-4.5,490.4-4.5c117.5,0,235.3,0.8,351.5,2.3v-1.8c-116.1-1.5-233.9-2.3-351.5-2.3
		C325.7,923.4,160.5,924.9,0,927.8z"/>
	<path d="M0,907.5v1.7c154.4-4.4,315.4-6.6,476-6.6c122.8,0,245.8,1.3,365.9,3.9v-1.7c-120.1-2.6-243.2-3.9-365.9-3.9
		C315.4,900.9,154.4,903.2,0,907.5z"/>
	<path d="M0,887.9v1.8c148.4-6.5,306.7-9.9,464.3-9.9c127.3,0,255.1,2.2,377.6,6.5v-1.8c-122.6-4.3-250.3-6.5-377.6-6.5
		C306.7,878,148.4,881.4,0,887.9z"/>
	<path d="M0,869.8v1.8c141.9-9.9,298.8-15.2,454.9-15.2c131.6,0,263.8,3.7,387,10.9v-1.8c-123.2-7.1-255.4-10.9-387-10.9
		C298.8,854.6,141.9,859.8,0,869.8z"/>
	<path d="M447.3,830.7c-130.1,0-260.9,5.7-378.3,16.5c-22.2,2-45.2,4.2-69,6.4v1.8c23.9-2.2,46.9-4.3,69.2-6.4
		c117.3-10.8,248.1-16.5,378.1-16.5c130,0,260.7,5.7,377.9,16.5c5.5,0.5,11.1,1,16.7,1.5v-1.8c-5.5-0.5-11.1-1-16.5-1.5
		C708.1,836.4,577.3,830.7,447.3,830.7z"/>
	<path d="M441.2,806.3c-104.9,0-210.4,5.8-305.1,16.9C94.2,828.1,48.8,833.4,0,839.1v1.8c48.8-5.7,94.4-11,136.3-15.9
		c94.6-11,200.1-16.9,304.9-16.9c104.8,0,210.2,5.8,304.8,16.9c30.1,3.5,62.1,7.2,96,11.2v-1.8c-33.8-3.9-65.7-7.7-95.8-11.2
		C651.5,812.2,546.1,806.3,441.2,806.3z"/>
	<path d="M436.2,783.2c84.5,0,169.5,6,245.7,17.2c42.1,6.2,89,13.1,139.9,20.6c-1.8-0.9-3.6-1.7-5.3-2.6
		c-48.8-7.2-93.8-13.8-134.3-19.8c-76.3-11.3-161.4-17.2-246-17.2c-84.6,0-169.7,6-246.1,17.2c-51.3,7.6-109.5,16.1-173.4,25.6
		c-1.8,0.9-3.6,1.7-5.3,2.6c66.1-9.8,126.2-18.6,179-26.4C266.7,789.2,351.7,783.2,436.2,783.2z"/>
	<path d="M10.9,825.1c-3.6,0.5-7.2,1.1-10.9,1.6v1.8c1.8-0.3,3.7-0.5,5.5-0.8C7.3,826.8,9.1,826,10.9,825.1z"/>
	<path d="M827.7,821.9c4.7,0.7,9.4,1.4,14.2,2.1v-1.8c-6.6-1-13.1-1.9-19.5-2.9C824.2,820.2,825.9,821.1,827.7,821.9z"/>
	<path d="M44.7,808.9c-12.7,2.4-25.7,4.8-38.9,7.3c-1.9,0.7-3.9,1.5-5.8,2.2v0.7c13.1-2.4,26-4.8,38.6-7.2
		C40.6,810.9,42.7,809.9,44.7,808.9z"/>
	<path d="M432.2,757.8c68.2,0,136.7,6.1,198.1,17.6c45.9,8.6,98.8,18.4,157.5,29.4c-2-1-4.1-1.9-6.1-2.9
		c-56.2-10.5-106.9-19.9-151.1-28.2c-61.6-11.5-130.2-17.6-198.4-17.6s-136.9,6.1-198.5,17.6c-52.5,9.8-113.8,21.2-182.4,34
		c-2,1-4.1,1.9-6.1,2.9c71.2-13.3,134.7-25.1,188.8-35.2C295.6,763.9,364.1,757.8,432.2,757.8z"/>
	<path d="M794.5,806c13.8,2.6,27.9,5.2,42.3,7.9c-3.1-1.2-6.2-2.3-9.3-3.5c-13.3-2.5-26.3-4.9-39.1-7.3
		C790.4,804.1,792.5,805,794.5,806z"/>
	<path d="M841.9,814v-0.9c-1.5-0.3-3.1-0.6-4.6-0.9C838.8,812.8,840.4,813.4,841.9,814z"/>
	<path d="M798.7,797.6c4.2,1.6,8.4,3.2,12.7,4.8c10,2.4,20.2,4.8,30.6,7.2v-0.2c-8.8-2.6-17.4-5.2-26-7.8
		C810.1,800.3,804.4,799,798.7,797.6z"/>
	<path d="M429,731.9c54.9,0,110.2,6.2,159.7,17.9c47.1,11.1,103.2,24.4,166.5,39.3c-2.5-1.2-5-2.4-7.4-3.6
		c-60.1-14.2-113.6-26.8-158.7-37.5c-49.7-11.7-105-17.9-160.1-17.9c-55.1,0-110.5,6.2-160.2,17.9c-51.5,12.2-113.5,26.8-183.7,43.4
		c-2.5,1.2-4.9,2.4-7.4,3.5c73.4-17.3,138.1-32.6,191.5-45.2C318.9,738.1,374.1,731.9,429,731.9z"/>
	<path d="M35,805.2c11.8-2.8,23.4-5.5,34.7-8.2c2.5-1.2,5-2.4,7.4-3.5c-9.7,2.3-19.5,4.6-29.5,7C43.5,802,39.2,803.6,35,805.2z"/>
	<path d="M34.5,803.5c-5.6,1.3-11.3,2.7-17,4c-5.8,1.7-11.6,3.5-17.5,5.2v0.7c7.3-1.7,14.6-3.5,21.8-5.2
		C26.1,806.7,30.3,805.1,34.5,803.5z"/>
	<path d="M763.2,791c11.4,2.7,23.1,5.5,35,8.3c-4.2-1.6-8.5-3.2-12.7-4.8c-10.1-2.4-20-4.7-29.7-7
		C758.3,788.7,760.7,789.9,763.2,791z"/>
	<path d="M734.8,777.5c8.7,2.6,17.6,5.3,26.7,8c-7.8-2.9-15.4-5.8-23-8.7c-4.6-1.4-9.2-2.8-13.8-4.1
		C728,774.2,731.4,775.8,734.8,777.5z"/>
	<path d="M297.7,723.8c40-11.9,84.5-18.3,128.8-18.3s88.8,6.3,128.7,18.3c46.3,13.8,103.5,30.9,168.9,50.5
		c-3.4-1.6-6.8-3.3-10.2-4.9c-60.9-18.2-114.5-34.2-158.2-47.3c-40.1-12-84.8-18.3-129.2-18.3s-89.1,6.3-129.3,18.3
		c-48.7,14.5-109.1,32.6-178.2,53.3c-3.4,1.6-6.8,3.2-10.2,4.9C182.4,758.2,246.5,739.1,297.7,723.8L297.7,723.8z"/>
	<path d="M785.1,792.5c10.1,3,20.4,6.1,30.8,9.2c8.6,2.6,17.2,5.2,26,7.8v-1.8c-27.6-8.2-54.3-16.2-79.9-23.9
		C769.6,786.6,777.3,789.5,785.1,792.5z"/>
	<path d="M71.5,791.4c8.9-2.7,17.8-5.3,26.5-7.9c3.4-1.6,6.8-3.2,10.2-4.9c-4.5,1.3-9,2.7-13.6,4.1
		C86.9,785.5,79.3,788.4,71.5,791.4z"/>
	<path d="M47.9,798.4c7.8-2.9,15.4-5.8,23-8.7c-22.9,6.8-46.6,13.9-70.9,21.2v1.8c5.9-1.8,11.7-3.5,17.5-5.2
		C27.8,804.4,37.9,801.4,47.9,798.4z"/>
	<path d="M811.3,802.4c-4.2-1.6-8.5-3.2-12.7-4.8c-4.6-1.7-9.1-3.4-13.6-5.1c-7.8-2.9-15.4-5.8-23-8.7
		c-23.1-8.8-45.5-17.2-66.9-25.3c6.1,2.9,12.4,5.9,18.6,8.9c8.1,3.1,16.3,6.2,24.7,9.3c7.6,2.9,15.3,5.8,23,8.7c7.9,3,15.9,6,24,9.1
		c4.2,1.6,8.4,3.2,12.7,4.8c9.7,3.7,19.5,7.4,29.4,11.1c3.1,1.2,6.2,2.3,9.3,3.5c1.7,0.6,3.4,1.3,5.1,1.9V814
		c-1.5-0.6-3.1-1.2-4.6-1.7C828.6,808.9,819.9,805.7,811.3,802.4z"/>
	<path d="M35,805.2c4.2-1.6,8.5-3.2,12.7-4.8c8-3,16-6,23.9-9c7.8-2.9,15.4-5.8,23-8.7c8.2-3.1,16.4-6.2,24.4-9.2
		c6.3-3,12.5-6,18.6-8.9c-21.4,8.1-43.6,16.5-66.6,25.2c-7.6,2.9-15.3,5.8-23,8.7c-4.5,1.7-8.9,3.4-13.4,5.1
		c-4.2,1.6-8.4,3.2-12.7,4.8c-7.2,2.7-14.5,5.5-21.8,8.2v1.9c1.9-0.7,3.9-1.5,5.8-2.2C15.6,812.5,25.4,808.8,35,805.2z"/>
	<path d="M424.4,678.6c35.7,0,71.5,6.4,103.7,18.6c44.3,16.8,101.1,38.2,166.4,62.9c-6.3-3-12.5-6-18.6-8.9
		c-57.2-21.6-107.2-40.5-147.1-55.6c-32.4-12.2-68.4-18.7-104.3-18.7c-35.9,0-72,6.5-104.3,18.7c-43.8,16.6-99.3,37.5-163.1,61.7
		c-6.1,2.9-12.4,5.9-18.6,8.9c71.9-27.2,134.3-50.8,182.4-69C352.8,685,388.7,678.6,424.4,678.6z"/>
	<path d="M822.4,819.4c-9.4-4.5-18.7-8.9-27.9-13.3c-2-1-4.1-1.9-6.1-2.9c-8.5-4.1-16.9-8.1-25.2-12.1c-2.5-1.2-5-2.4-7.4-3.5
		c-7.1-3.4-14.1-6.7-21-10c-3.4-1.6-6.8-3.3-10.2-4.9c-3.7-1.7-7.3-3.5-10.9-5.2c-6.3-3-12.5-6-18.6-8.9
		c-75.6-36.2-140.7-67.3-188.2-90c-26.1-12.5-55.3-19.1-84.2-19.1s-58.1,6.6-84.3,19.1c-50.3,24.1-120,57.4-200.9,96.1
		c-6.2,2.9-12.4,5.9-18.6,8.9c-3.6,1.7-7.2,3.4-10.8,5.1c-3.4,1.6-6.8,3.2-10.2,4.9c-6.9,3.3-13.8,6.6-20.8,10
		c-2.5,1.2-4.9,2.4-7.4,3.5c-8.3,4-16.6,8-25,12c-2,1-4.1,1.9-6.1,2.9c-9.2,4.4-18.4,8.8-27.7,13.3c-1.8,0.9-3.6,1.7-5.3,2.6
		c-1.8,0.9-3.7,1.8-5.5,2.6v1.9c3.8-1.8,7.6-3.6,11.4-5.5c1.8-0.9,3.6-1.7,5.3-2.6c9.6-4.6,19.1-9.1,28.5-13.6c2-1,4.1-1.9,6.1-2.9
		c8.9-4.3,17.7-8.5,26.4-12.6c2.5-1.2,5-2.4,7.4-3.5c8-3.8,15.8-7.6,23.6-11.3c3.4-1.6,6.8-3.3,10.2-4.9c6.5-3.1,12.9-6.2,19.3-9.2
		c6.3-3,12.5-6,18.6-8.9c73-34.9,135.8-65,182.3-87.2v0c25.9-12.4,54.8-19,83.5-19c28.7,0,57.6,6.6,83.5,19
		c43.5,20.8,101.9,48.7,169.6,81.1c6.1,2.9,12.4,5.9,18.6,8.9c6.4,3.1,12.9,6.2,19.4,9.3c3.4,1.6,6.8,3.2,10.2,4.9
		c7.8,3.7,15.8,7.5,23.8,11.4c2.5,1.2,4.9,2.4,7.4,3.6c8.8,4.2,17.6,8.4,26.6,12.7c2,1,4.1,1.9,6.1,2.9c9.5,4.5,19,9.1,28.7,13.7
		c1.8,0.9,3.6,1.7,5.3,2.6c6.6,3.2,13.3,6.4,20,9.6v-1.9c-4.7-2.3-9.5-4.5-14.2-6.8C825.9,821.1,824.2,820.2,822.4,819.4z"/>
</g>
</svg>
