<?xml version="1.0" encoding="utf-8"?>
<!-- Generator: Adobe Illustrator 27.2.0, SVG Export Plug-In . SVG Version: 6.00 Build 0)  -->
<svg version="1.1" id="Livello_1" xmlns="http://www.w3.org/2000/svg" xmlns:xlink="http://www.w3.org/1999/xlink" x="0px" y="0px"
	 viewBox="0 0 841.9 1190.6" style="enable-background:new 0 0 841.9 1190.6;" xml:space="preserve">
<g>
	<path d="M841.9,724.3C557.5,774.8,276.5,825.4,0,876v1.8c276.4-50.5,557.5-101.2,841.9-151.7V724.3z"/>
	<path d="M841.9,726.3C556.4,777,275.2,828,0,879v1.8C275.2,829.8,556.4,778.8,841.9,728V726.3z"/>
	<path d="M841.9,728.3C555,779.4,273.5,831.1,0,883v1.8c273.5-52,555-103.7,841.9-154.7V728.3z"/>
	<path d="M841.9,732.3v-1.8c-217,38.8-430.1,78.3-637.7,118.3c-65.9,12.7-134,25.8-204.2,39.3v1.8c70.3-13.5,138.5-26.7,204.5-39.4
		C412,810.5,625,771,841.9,732.3z"/>
	<path d="M841.9,734.6v-1.8c-153.5,27.7-304.5,56.1-452.1,84.9C268.5,841.4,138.3,866.8,0,893.9v1.8c138.5-27,268.8-52.5,390.1-76.2
		C537.6,790.6,688.5,762.3,841.9,734.6z"/>
	<path d="M841.9,737.2v-1.8c-101.1,18.6-200.5,37.6-298,57C381.1,824.8,198.8,861,0,900.5v1.8c198.9-39.5,381.3-75.8,544.2-108.1
		C641.6,774.8,740.9,755.8,841.9,737.2z"/>
	<path d="M841.9,740.3v-1.8c-57.4,10.9-114.1,22.1-170,33.4C478.6,811.2,252.2,857.1,0,908.3v1.8c252.4-51.2,478.8-97.2,672.3-136.4
		C728.1,762.3,784.6,751.2,841.9,740.3z"/>
	<path d="M841.9,744.2v-1.8c-21.3,4.3-42.5,8.6-63.6,13C563.2,800.2,299.1,855.1,0,917.3v1.8c299.2-62.3,563.5-117.2,778.6-162
		C799.6,752.8,820.7,748.5,841.9,744.2z"/>
	<path d="M841.9,747.5C615.6,796,327.5,857.8,0,928v1.8c327.5-70.2,615.6-132,841.9-180.5V747.5z"/>
	<path d="M841.9,753.6C614.6,804.1,325.1,868.4,0,940.7v1.8c325-72.2,614.6-136.6,841.9-187.1V753.6z"/>
	<path d="M841.9,760.5C613,813.6,321.7,881.1,0,955.7v1.8C321.7,883,613,815.4,841.9,762.3V760.5z"/>
	<path d="M841.9,768.5C610.8,824.9,317.1,896.5,0,973.7v1.8c317-77.3,610.7-148.8,841.9-205.2V768.5z"/>
	<path d="M841.9,777.9C607.5,838.4,310.7,915.1,0,995.3v1.8c310.6-80.2,607.4-156.9,841.9-217.4V777.9z"/>
	<path d="M841.9,788.8C602.8,854.8,301.6,938,0,1021.3v1.8c301.6-83.3,602.7-166.4,841.9-232.5V788.8z"/>
	<path d="M841.9,801.6C595.8,875,288.2,966.6,0,1052.5v1.8c288.1-85.9,595.7-177.5,841.9-250.9V801.6z"/>
	<path d="M841.9,816.8c-257.4,83.6-575.7,187-841.9,273.4v1.8c266.1-86.4,584.4-189.8,841.9-273.4V816.8z"/>
</g>
</svg>
